<svg width="656" height="359" viewBox="0 0 656 359" fill="none" xmlns="http://www.w3.org/2000/svg">
<g clip-path="url(#clip0)">
<path d="M460.507 72.4519C465.268 62.1667 469.198 54.5284 471.994 49.2345C476.377 45.2263 495.495 27.0759 491.263 19.7401C487.485 13.2362 477.057 35.2436 472.9 45.3019C469.878 50.6714 464.966 59.8979 458.769 73.5107C459.903 67.4606 464.21 41.7475 456.427 38.4199C448.039 34.8655 456.956 70.3344 458.391 74.3426C453.404 85.2329 447.661 98.8457 441.313 115.332C443.278 103.837 447.661 72.7544 437.535 68.4437C426.049 63.6036 437.611 110.643 440.104 118.509C435.192 131.365 430.054 145.961 424.688 162.296L425.746 162.675C431.036 146.49 436.175 132.046 441.011 119.34C446.225 116.996 483.178 100.056 480.457 87.8042C477.888 75.9308 447.661 110.265 441.464 118.055C448.265 100.207 454.386 85.7622 459.601 74.3426C464.664 72.0738 488.996 60.5785 487.183 52.1083C485.445 44.3188 466.477 65.1918 460.507 72.4519Z" fill="#D9F6F7"/>
<path d="M540.533 147.018L550.734 145.43C560.936 113.743 549.223 89.6177 549.223 89.6177C526.553 90.4496 504.865 107.239 504.865 107.239L499.651 97.7854C477.736 102.777 449.323 134.086 449.323 134.086L447.509 151.783C447.509 151.783 439.121 145.657 437.61 147.018C436.099 148.38 421.438 190.579 421.438 190.579V258.719C435.267 235.426 447.811 215.385 459.071 198.445C459.147 198.293 459.222 198.218 459.298 198.066L459.373 197.991C466.099 187.857 472.371 178.782 478.19 170.69C478.567 167.664 481.288 145.128 487.031 133.557C492.623 122.213 487.106 112.835 487.106 112.759C486.729 112.154 486.955 111.323 487.56 110.944C488.164 110.566 488.996 110.793 489.373 111.398C489.6 111.852 495.646 122.062 489.449 134.691C485.293 143.161 482.648 158.287 481.514 166.152C487.787 157.455 493.454 150.043 498.442 143.691C525.797 109.054 540.079 98.5416 540.684 98.1635C541.288 97.7097 542.119 97.861 542.497 98.466C542.951 99.071 542.8 99.9029 542.195 100.281C542.044 100.357 527.459 111.096 500.255 145.581C491.112 157.228 479.852 172.429 466.552 192.092C473.958 187.025 487.484 180.218 508.719 177.874C542.044 174.244 546.578 172.807 546.805 172.731C547.485 172.429 548.24 172.807 548.467 173.488C548.769 174.168 548.392 174.925 547.711 175.227C547.334 175.378 542.8 176.891 509.021 180.521C477.358 183.924 463.152 197.915 461.489 199.73C459.978 202.075 458.391 204.419 456.804 206.839C458.542 205.553 460.507 204.192 462.925 202.831C470.708 198.218 483.857 192.243 501.842 190.428C535.318 187.025 540.835 185.361 541.062 185.285C541.742 185.059 542.497 185.437 542.724 186.117C542.951 186.798 542.573 187.554 541.893 187.781C541.666 187.857 536.225 189.521 502.144 192.999C468.668 196.403 452.194 214.251 452.043 214.402C451.968 214.477 451.968 214.477 451.892 214.553C442.522 229.073 432.396 245.484 421.59 264.013V355.899C506.527 309.616 532.371 245.484 532.371 245.484L523.228 231.493L537.208 232.93C558.669 183.244 553.379 156.396 553.379 156.396L540.533 147.018Z" fill="#D9F6F7"/>
<path d="M245.065 197.461C234.41 190.125 203.579 228.241 198.289 219.014C192.999 209.788 186.652 144.749 178.339 144.598C170.102 144.522 166.702 180.294 152.344 191.486C138.666 202.225 95.8197 140.59 82.8977 150.043C107.759 178.327 208.566 293.582 242.496 346.294C242.874 346.899 242.723 347.731 242.118 348.109C241.891 348.261 241.665 348.336 241.438 348.336C240.985 348.336 240.607 348.109 240.304 347.731C206.526 295.322 106.399 180.747 81.1597 152.085C71.2604 168.95 115.543 206.914 117.205 230.812C118.868 254.862 71.7893 231.72 68.4644 253.425C65.0638 275.13 142.369 272.104 151.135 290.255C159.901 308.405 113.88 306.515 106.021 323.531C98.1623 340.547 249.221 358.319 249.221 358.319C249.221 358.319 255.72 204.797 245.065 197.461Z" fill="#D9F6F7"/>
<path d="M39.5213 313.549C28.2618 313.549 19.1182 304.399 19.1182 293.13C19.1182 281.862 28.2618 272.711 39.5213 272.711C50.7809 272.711 59.9245 281.862 59.9245 293.13C59.9245 304.399 50.7809 313.549 39.5213 313.549ZM39.5213 273.921C28.9419 273.921 20.2517 282.542 20.2517 293.206C20.2517 303.794 28.8663 312.491 39.5213 312.491C50.1008 312.491 58.791 303.869 58.791 293.206C58.791 282.542 50.1763 273.921 39.5213 273.921Z" fill="black"/>
<path d="M51.7641 301.522H27.2803V285.641H51.7641V301.522ZM28.4138 300.388H50.6306V286.699H28.4138V300.388Z" fill="black"/>
<path d="M36.4229 298.274V288.82L43.0728 293.585L36.4229 298.274ZM37.5564 291.013V296.156L41.1836 293.585L37.5564 291.013Z" fill="black"/>
<path d="M34.2317 182.788C27.355 182.788 21.6875 177.191 21.6875 170.234C21.6875 163.352 27.2795 157.68 34.2317 157.68C41.1839 157.68 46.7759 163.276 46.7759 170.234C46.7003 177.116 41.1083 182.788 34.2317 182.788ZM34.2317 158.814C27.9596 158.814 22.821 163.957 22.821 170.234C22.821 176.511 27.9596 181.653 34.2317 181.653C40.5038 181.653 45.6423 176.511 45.6423 170.234C45.5668 163.957 40.5038 158.814 34.2317 158.814Z" fill="black"/>
<path d="M34.2321 175.907C33.9298 175.907 33.7031 175.681 33.7031 175.378V165.622C33.7031 165.32 33.9298 165.093 34.2321 165.093C34.5344 165.093 34.7611 165.32 34.7611 165.622V175.302C34.7611 175.605 34.5344 175.907 34.2321 175.907Z" fill="black"/>
<path d="M38.9927 171.068H29.3957C29.0934 171.068 28.8667 170.841 28.8667 170.538C28.8667 170.236 29.0934 170.009 29.3957 170.009H39.0683C39.3706 170.009 39.5973 170.236 39.5973 170.538C39.5973 170.765 39.3706 171.068 38.9927 171.068Z" fill="black"/>
<path d="M633.179 73.8122H628.343C628.191 71.9215 627.663 65.5689 624.867 63.9807C623.884 63.3757 622.751 63.4513 621.542 64.0563L621.239 64.2076V90.1475H633.179C635.824 90.1475 637.94 88.03 637.94 85.3831V78.6523C637.94 75.9297 635.824 73.8122 633.179 73.8122ZM633.179 89.0131H622.373V64.8882C623.128 64.5857 623.733 64.5857 624.262 64.8882C626.453 66.1739 627.134 72.1484 627.209 74.3416V74.871H633.103C634.615 74.871 635.899 75.7785 636.504 77.1398H630.383C630.081 77.1398 629.854 77.3666 629.854 77.6691C629.854 77.9716 630.081 78.1985 630.383 78.1985H636.806C636.806 78.2742 636.806 78.4254 636.806 78.501V80.9967H630.383C630.081 80.9967 629.854 81.2236 629.854 81.5261C629.854 81.8286 630.081 82.0555 630.383 82.0555H636.806V84.8537H630.383C630.081 84.8537 629.854 85.0806 629.854 85.3831C629.854 85.6856 630.081 85.9125 630.383 85.9125H636.731C636.353 87.8031 634.917 89.0131 633.179 89.0131Z" fill="black"/>
<path d="M619.35 90.146H614.514V72.6763H619.35V90.146ZM615.647 89.0116H618.292V73.8107H615.647V89.0116Z" fill="black"/>
<path d="M624.11 101.265C611.642 101.265 601.516 91.1308 601.516 78.6524C601.516 66.174 611.642 55.9644 624.11 55.9644C636.579 55.9644 646.705 66.0983 646.705 78.5767C646.705 91.0552 636.579 101.265 624.11 101.265ZM624.11 57.0988C612.246 57.0988 602.649 66.779 602.649 78.5767C602.649 90.4501 612.322 100.055 624.11 100.055C635.899 100.055 645.571 90.3745 645.571 78.5767C645.571 66.779 635.974 57.0988 624.11 57.0988Z" fill="black"/>
<path d="M573.556 60.9553C569.324 60.9553 565.924 57.5521 565.924 53.317C565.924 49.0819 569.324 45.6787 573.556 45.6787C577.788 45.6787 581.188 49.0819 581.188 53.317C581.188 57.4765 577.712 60.9553 573.556 60.9553ZM573.556 46.7375C569.929 46.7375 567.057 49.6869 567.057 53.2414C567.057 56.8715 570.004 59.7453 573.556 59.7453C577.183 59.7453 580.055 56.7958 580.055 53.2414C580.055 49.6869 577.108 46.7375 573.556 46.7375Z" fill="black"/>
<path d="M622.6 216.293C620.182 216.293 618.217 214.327 618.217 211.907C618.217 209.487 620.182 207.521 622.6 207.521C625.018 207.521 626.983 209.487 626.983 211.907C626.983 214.327 625.018 216.293 622.6 216.293ZM622.6 208.655C620.786 208.655 619.35 210.092 619.35 211.907C619.35 213.722 620.786 215.159 622.6 215.159C624.413 215.159 625.849 213.722 625.849 211.907C625.849 210.092 624.413 208.655 622.6 208.655Z" fill="black"/>
<path d="M193.074 11.2688C189.976 11.2688 187.407 8.77313 187.407 5.59681C187.407 2.49611 189.9 -0.0751953 193.074 -0.0751953C196.173 -0.0751953 198.742 2.42049 198.742 5.59681C198.742 8.77313 196.173 11.2688 193.074 11.2688ZM193.074 1.13483C190.581 1.13483 188.54 3.17675 188.54 5.67243C188.54 8.16811 190.581 10.21 193.074 10.21C195.568 10.21 197.608 8.16811 197.608 5.67243C197.608 3.17675 195.568 1.13483 193.074 1.13483Z" fill="black"/>
<path d="M50.5548 260.912C47.8344 260.912 45.5674 258.644 45.5674 255.921C45.5674 253.198 47.8344 250.93 50.5548 250.93C53.2752 250.93 55.5423 253.198 55.5423 255.921C55.5423 258.644 53.3508 260.912 50.5548 260.912ZM50.5548 252.064C48.4389 252.064 46.7009 253.804 46.7009 255.921C46.7009 258.039 48.4389 259.778 50.5548 259.778C52.6707 259.778 54.4088 258.039 54.4088 255.921C54.4088 253.804 52.6707 252.064 50.5548 252.064Z" fill="black"/>
<path d="M415.998 358.393H249.221C241.362 358.393 235.015 352.04 235.015 344.175V38.8702C235.015 31.005 241.362 24.6523 249.221 24.6523H415.998C423.857 24.6523 430.205 31.005 430.205 38.8702V344.175C430.13 352.04 423.782 358.393 415.998 358.393Z" fill="#0A3F64"/>
<path d="M340.96 46.2061C340.204 46.2061 339.6 46.8111 339.6 47.5673C339.6 52.71 336.048 56.8694 331.665 56.8694C327.282 56.8694 323.731 52.71 323.731 47.5673C323.731 46.8111 323.126 46.2061 322.371 46.2061H248.995V320.731H416.074V46.2061H340.96Z" fill="white"/>
<path d="M416.679 321.26H248.466V45.6011H322.371C322.9 45.6011 323.353 45.828 323.731 46.1305C324.109 46.5086 324.26 46.9624 324.26 47.4917C324.26 52.3319 327.585 56.2644 331.665 56.2644C335.746 56.2644 339.071 52.3319 339.071 47.4917C339.071 46.9624 339.298 46.433 339.6 46.1305C339.978 45.7523 340.431 45.6011 340.96 45.6011H416.754V321.26H416.679ZM249.599 320.126H415.621V46.7355H340.96C340.734 46.7355 340.582 46.8111 340.431 46.9624C340.28 47.1136 340.205 47.3405 340.205 47.5674C340.205 53.0125 336.426 57.4745 331.741 57.4745C327.056 57.4745 323.277 53.0125 323.277 47.5674C323.277 47.3405 323.202 47.1136 323.051 46.9624C322.9 46.8111 322.749 46.7355 322.522 46.7355H249.75V320.126H249.599Z" fill="#0A3F64"/>
<path d="M339.071 339.564C339.071 345.388 334.31 350.152 328.492 350.152C322.673 350.152 317.912 345.388 317.912 339.564C317.912 333.741 322.673 328.977 328.492 328.977C334.31 328.977 339.071 333.741 339.071 339.564Z" fill="white"/>
<path d="M328.492 350.753C322.371 350.753 317.308 345.761 317.308 339.56C317.308 333.434 322.295 328.367 328.492 328.367C334.613 328.367 339.676 333.359 339.676 339.56C339.6 345.761 334.613 350.753 328.492 350.753ZM328.492 329.502C322.975 329.502 318.441 334.039 318.441 339.56C318.441 345.081 322.975 349.618 328.492 349.618C334.008 349.618 338.542 345.081 338.542 339.56C338.542 334.039 334.008 329.502 328.492 329.502Z" fill="#DDF8F8"/>
<path d="M159.674 337.898V347.049H172.369L173.427 338.427L159.674 337.898Z" fill="white"/>
<path d="M172.898 347.652H159.145V337.367L174.107 337.897L172.898 347.652ZM160.278 346.518H171.915L172.822 338.955L160.278 338.502V346.518Z" fill="#0A3F64"/>
<path d="M158.994 346.52C158.994 346.52 140.706 352.343 140.026 357.108H172.898V346.52H158.994Z" fill="#FFB900"/>
<path d="M210.757 338.125L211.135 347.351H223.83L224.359 337.898L210.757 338.125Z" fill="white"/>
<path d="M224.36 347.955H210.606L210.229 337.594L225.04 337.367L224.36 347.955ZM211.664 346.821H223.302L223.831 338.502L211.362 338.653L211.664 346.821Z" fill="#0A3F64"/>
<path d="M210.455 346.821C210.455 346.821 192.168 352.645 191.488 357.409H224.36V346.821H210.455Z" fill="#FFB900"/>
<path d="M190.278 355.597V358.395H225.19V355.219L190.278 355.597Z" fill="#0A3F64"/>
<path d="M173.956 355.14V358.09H139.044V354.914L173.956 355.14Z" fill="#0A3F64"/>
<path d="M209.17 350.828C209.095 350.828 209.095 350.828 209.019 350.828L202.672 348.937C202.369 348.862 202.218 348.559 202.294 348.257C202.369 347.954 202.672 347.803 202.974 347.879L209.321 349.769C209.624 349.845 209.775 350.147 209.699 350.45C209.624 350.677 209.473 350.828 209.17 350.828Z" fill="#0A3F64"/>
<path d="M205.996 352.719C205.921 352.719 205.921 352.719 205.845 352.719L199.498 350.828C199.195 350.752 199.044 350.45 199.12 350.147C199.195 349.845 199.498 349.694 199.8 349.769L206.148 351.66C206.45 351.736 206.601 352.038 206.525 352.341C206.525 352.567 206.299 352.719 205.996 352.719Z" fill="#0A3F64"/>
<path d="M201.614 354.687C201.538 354.687 201.538 354.687 201.463 354.687L195.115 352.797C194.813 352.721 194.661 352.419 194.737 352.116C194.813 351.814 195.115 351.662 195.417 351.738L201.765 353.629C202.067 353.704 202.218 354.007 202.143 354.309C202.143 354.461 201.916 354.687 201.614 354.687Z" fill="#0A3F64"/>
<path d="M158.692 349.922C158.616 349.922 158.616 349.922 158.541 349.922L152.193 348.031C151.891 347.956 151.74 347.653 151.815 347.351C151.891 347.048 152.193 346.897 152.495 346.972L158.843 348.863C159.145 348.939 159.296 349.241 159.221 349.544C159.145 349.771 158.918 349.922 158.692 349.922Z" fill="#0A3F64"/>
<path d="M155.517 351.812C155.441 351.812 155.441 351.812 155.366 351.812L149.018 349.922C148.716 349.846 148.565 349.544 148.64 349.241C148.716 348.939 149.018 348.787 149.32 348.863L155.668 350.754C155.97 350.829 156.122 351.132 156.046 351.434C155.97 351.661 155.744 351.812 155.517 351.812Z" fill="#0A3F64"/>
<path d="M151.135 353.703C151.06 353.703 151.06 353.703 150.984 353.703L144.636 351.812C144.334 351.737 144.183 351.434 144.259 351.132C144.334 350.829 144.636 350.678 144.939 350.754L151.286 352.644C151.589 352.72 151.74 353.022 151.664 353.325C151.589 353.552 151.362 353.703 151.135 353.703Z" fill="#0A3F64"/>
<path d="M206.601 339.788H226.778L228.44 178.022L170.329 188.081L156.5 339.788H175.921L196.248 238.978L193.906 216.895L206.601 339.788Z" fill="#0A3F64"/>
<path d="M161.789 93.9245L154.384 106.932L164.963 110.487C164.963 110.487 167.91 100.277 170.102 99.294C172.293 98.3864 174.258 95.1345 173.653 93.5463C173.124 91.9582 171.311 90.2188 171.311 90.2188L161.789 93.9245Z" fill="white"/>
<path d="M165.341 111.171L153.553 107.238L161.412 93.4742L171.462 89.6172L171.689 89.8441C171.764 89.9197 173.578 91.6591 174.183 93.3229C174.863 95.2136 172.747 98.6924 170.329 99.7512C169.044 100.356 166.701 106.406 165.492 110.566L165.341 111.171ZM155.215 106.633L164.586 109.81C165.341 107.238 167.759 99.7512 169.875 98.8436C171.84 98.0118 173.578 94.9867 173.125 93.8523C172.747 92.7179 171.689 91.5079 171.16 91.0541L162.167 94.5329L155.215 106.633Z" fill="#0A3F64"/>
<path d="M160.581 101.942L162.697 103.531C163.755 104.287 165.266 104.06 166.022 103.001L178.793 85.7584L172.823 81.2964L160.052 98.5393C159.296 99.6737 159.523 101.111 160.581 101.942Z" fill="#0A3F64"/>
<path d="M186.122 75.8513L167.155 67.6837L154.686 50.8945L140.479 83.8678L161.26 81.3721L180.152 89.5398L186.122 75.8513Z" fill="#FFB900"/>
<path d="M193.982 89.0106C193.982 89.0106 195.417 103.985 194.208 105.649C192.999 107.312 186.123 110.337 186.123 110.337L197.76 144.445L222.546 142.025L224.133 116.614C224.133 116.614 212.798 107.388 212.118 105.497C211.211 102.85 211.135 88.8594 211.135 88.8594H193.982V89.0106Z" fill="white"/>
<path d="M197.306 145.125L185.367 110.11L185.82 109.883C187.709 109.051 192.772 106.631 193.679 105.346C194.359 104.438 194.057 96.3461 193.377 89.086C193.377 88.7835 193.604 88.481 193.906 88.481C194.208 88.481 194.51 88.7078 194.51 89.0103C194.737 91.5817 195.871 104.287 194.661 106.026C193.528 107.539 188.465 109.959 186.802 110.715L198.062 143.915L221.941 141.571L223.528 116.992C221.186 115.102 212.269 107.69 211.589 105.799C210.606 103.153 210.606 89.5397 210.606 89.0103C210.606 88.7078 210.833 88.481 211.135 88.481C211.437 88.481 211.664 88.7078 211.664 89.0103C211.664 92.8673 211.815 103.379 212.571 105.421C213.024 106.707 220.052 112.757 224.359 116.312L224.586 116.463L222.924 142.63L197.306 145.125Z" fill="#0A3F64"/>
<path d="M182.344 109.051C174.863 111.774 176.676 151.78 176.676 151.78C175.467 156.469 172.596 188.157 172.596 188.157L225.039 192.089L231.236 160.629C231.236 160.629 235.09 107.69 214.536 104.589C212.571 104.287 193.377 125.462 192.772 105.27C192.697 105.345 183.931 108.446 182.344 109.051Z" fill="#FFB900"/>
<path d="M220.279 204.872C220.203 204.872 220.052 204.872 219.977 204.796L207.735 196.326C207.508 196.175 207.432 195.797 207.584 195.57C207.735 195.343 208.112 195.267 208.339 195.419L220.581 203.889C220.808 204.04 220.883 204.418 220.732 204.645C220.657 204.796 220.506 204.872 220.279 204.872Z" fill="#00B7C5"/>
<path d="M189.523 105.649C186.5 105.649 173.805 111.926 161.79 125.161C160.279 126.824 159.069 134.841 159.069 134.841C158.238 135.446 167.609 106.935 167.684 108.069C167.684 108.069 150.757 101.641 150.833 103.456C150.908 105.271 135.946 134.311 141.689 156.47C142.293 158.814 150.455 175.301 171.614 142.101L169.12 181.956L166.928 208.274L186.954 209.787L189.523 105.649Z" fill="#00B7C5"/>
<path d="M213.252 103.68L205.468 143.081C205.393 147.392 200.178 192.314 201.236 210.767L228.214 212.885L228.516 200.104V186.642C228.516 186.642 259.574 172.651 257.912 166.147C251.564 140.207 244.99 128.258 239.776 117.292C238.944 115.477 220.204 103.68 213.252 103.68Z" fill="#00B7C5"/>
<path d="M202.974 58.7598C199.876 58.4573 192.319 57.6254 191.185 63.0705C189.901 69.2719 189.296 77.4396 189.069 81.8259C188.994 83.5653 190.127 85.0779 191.79 85.3804L210.531 89.2373C212.269 89.6155 213.931 88.6323 214.536 86.9685C216.349 81.3722 220.203 69.4231 219.901 67.4568C218.767 60.6504 207.886 59.2135 202.974 58.7598Z" fill="#0A3F64"/>
<path d="M208.264 92.9409C209.473 92.109 210.757 88.0251 211.815 83.3363C211.815 83.185 211.966 83.1094 212.042 83.0338C213.402 82.58 215.518 81.37 215.971 79.0255C216.349 76.9836 214.762 77.1349 213.478 77.513C213.251 77.5886 213.024 77.3618 213.1 77.1349C214.158 71.3872 214.913 66.3203 214.913 66.3203L192.697 61.707C192.697 61.707 191.714 66.8496 190.732 72.5973C190.656 72.8242 188.843 86.6638 189.069 88.0251C189.221 88.7814 189.674 89.462 190.354 90.067C190.354 90.067 191.563 91.5039 199.649 93.1677L208.264 92.9409Z" fill="white"/>
<path d="M199.574 93.7006C199.574 93.7006 199.498 93.7006 199.423 93.7006C191.866 92.1124 190.128 90.7511 189.901 90.4486C189.145 89.768 188.692 88.9361 188.465 88.1798C188.163 86.6673 190.052 72.6764 190.128 72.5251C191.11 66.8531 192.093 61.7105 192.093 61.6349L192.168 61.1055L215.443 65.9456L215.367 66.475C215.367 66.5506 214.687 71.3907 213.629 76.9114C214.687 76.6089 215.443 76.6846 215.972 77.1383C216.425 77.5921 216.576 78.1971 216.425 79.1802C215.896 81.9784 213.403 83.1885 212.194 83.6422C210.38 91.4318 209.171 93.0199 208.415 93.5493C208.188 93.7006 207.811 93.6249 207.659 93.3981C207.508 93.1712 207.584 92.7931 207.811 92.6418C208.34 92.2637 209.473 90.5999 211.136 83.3397C211.211 83.0372 211.438 82.7347 211.74 82.6591C212.647 82.3566 214.838 81.3734 215.292 79.029C215.367 78.5752 215.367 78.1971 215.216 78.0458C215.141 77.9702 214.763 77.7433 213.554 78.1215C213.251 78.1971 212.949 78.1215 212.722 77.9702C212.496 77.7433 212.345 77.4408 212.42 77.1383C213.327 72.5251 213.932 68.29 214.158 66.8531L192.999 62.4667C192.697 63.9793 191.941 68.1387 191.11 72.752C190.959 73.7351 189.221 86.8185 189.448 87.9529C189.599 88.558 189.901 89.0873 190.506 89.6924L190.581 89.768C190.581 89.768 191.941 91.1293 199.498 92.7174C199.8 92.7931 200.027 93.0956 199.952 93.3981C200.103 93.5493 199.876 93.7006 199.574 93.7006Z" fill="#0A3F64"/>
<path d="M203.049 77.2889H202.974C202.672 77.2133 202.445 76.9864 202.521 76.6839L202.596 76.2301C202.672 75.9276 202.898 75.7007 203.201 75.7764C203.503 75.852 203.73 76.0789 203.654 76.3814L203.578 76.8352C203.578 77.062 203.352 77.2889 203.049 77.2889Z" fill="#0A3F64"/>
<path d="M193.83 75.9275H193.755C193.452 75.8518 193.226 75.5493 193.301 75.2468L193.377 74.7174C193.452 74.4149 193.755 74.1881 194.057 74.2637C194.359 74.3393 194.586 74.6418 194.51 74.9443L194.435 75.4737C194.284 75.7006 194.057 75.9275 193.83 75.9275Z" fill="#0A3F64"/>
<path d="M207.508 74.9435C207.357 74.9435 207.206 74.8679 207.13 74.7923C204.41 72.1454 202.445 72.6747 202.369 72.6747C202.067 72.7504 201.765 72.5991 201.689 72.2966C201.614 71.9941 201.765 71.6916 202.067 71.616C202.143 71.616 204.712 70.8597 207.961 73.9604C208.188 74.1873 208.188 74.5654 207.961 74.7167C207.81 74.8679 207.659 74.9435 207.508 74.9435Z" fill="#0A3F64"/>
<path d="M196.551 81.0694C196.475 81.0694 196.4 81.0694 196.324 80.9938C195.871 80.7669 194.359 80.0106 194.359 78.9518C194.359 78.1956 194.51 77.9687 195.871 75.8511C196.173 75.3974 196.551 74.868 196.928 74.1873C197.155 73.8092 197.609 72.7504 197.609 72.0698C197.457 71.9185 196.702 71.6917 195.568 71.6917C195.568 71.6917 195.568 71.6917 195.493 71.6917C194.359 71.6917 193.377 71.9942 193.075 72.3723C192.848 72.5992 192.546 72.6748 192.319 72.4479C192.092 72.2211 192.017 71.9185 192.243 71.6917C193.226 70.406 196.173 70.3304 197.684 70.8598C198.591 71.1623 198.818 71.6917 198.818 71.9942C198.818 73.1286 198.062 74.5655 197.986 74.7167C197.533 75.3974 197.155 75.9268 196.853 76.3805C195.493 78.4224 195.493 78.4981 195.493 78.8762C195.493 79.0275 196.097 79.5568 196.777 79.8594C197.08 80.0106 197.155 80.3131 197.08 80.6156C196.928 80.9181 196.777 81.0694 196.551 81.0694Z" fill="#0A3F64"/>
<path d="M215.896 182.863C215.896 182.863 212.571 187.174 211.816 188.157C211.06 189.065 205.543 192.014 205.543 192.014L218.465 196.552C218.465 196.552 218.541 192.922 218.843 190.88C219.07 189.821 222.319 187.174 222.319 187.174C222.319 187.174 216.198 183.241 215.896 182.863Z" fill="white"/>
<path d="M218.994 197.308L204.183 192.09L205.317 191.485C207.432 190.426 210.909 188.384 211.362 187.779C212.118 186.872 215.443 182.561 215.443 182.561L215.82 182.032L216.274 182.486C216.652 182.788 220.354 185.208 222.622 186.645L223.302 187.099L222.697 187.628C221.186 188.838 219.523 190.502 219.372 190.956C218.994 192.998 218.994 196.552 218.994 196.552V197.308ZM206.979 191.863L217.936 195.72C217.936 194.51 218.087 192.241 218.314 190.729C218.465 189.746 220.279 188.082 221.412 187.174C219.523 185.964 217.105 184.452 216.047 183.696C215.216 184.83 212.949 187.779 212.269 188.536C211.664 189.292 208.717 190.956 206.979 191.863Z" fill="#0A3F64"/>
<path d="M221.337 197.988C221.261 197.988 221.186 197.988 221.11 197.988L204.108 192.316C203.805 192.241 203.654 191.863 203.73 191.636C203.805 191.409 204.183 191.182 204.485 191.258L221.488 196.929C221.79 197.005 221.941 197.383 221.866 197.61C221.79 197.837 221.564 197.988 221.337 197.988Z" fill="#0A3F64"/>
<path d="M169.498 196.402C169.271 196.402 169.044 196.251 168.969 196.024C168.893 195.721 168.969 195.419 169.271 195.268L182.873 190.125C183.175 190.049 183.478 190.125 183.629 190.427C183.704 190.73 183.629 191.032 183.326 191.184L169.724 196.326C169.649 196.402 169.573 196.402 169.498 196.402Z" fill="#0A3F64"/>
<path d="M223.982 188.838L211.664 180.746L232.747 162.217L222.848 143.386C222.697 143.084 222.772 142.781 223.075 142.63C223.377 142.479 223.679 142.554 223.83 142.857L234.108 162.52L213.478 180.67L224.133 187.628L227.382 186.569C227.684 186.493 227.987 186.645 228.062 186.947C228.138 187.25 227.987 187.552 227.684 187.628L223.982 188.838Z" fill="#0A3F64"/>
<path d="M209.926 163.731C209.926 164.412 210.53 165.017 211.21 165.017C211.891 165.017 212.495 164.412 212.495 163.731C212.495 163.05 211.891 162.445 211.21 162.445C210.455 162.445 209.926 163.05 209.926 163.731Z" fill="white"/>
<path d="M211.211 165.622C210.229 165.622 209.397 164.79 209.397 163.807C209.397 162.824 210.229 161.992 211.211 161.992C212.193 161.992 213.025 162.824 213.025 163.807C213.025 164.79 212.193 165.622 211.211 165.622ZM211.211 163.051C210.833 163.051 210.455 163.353 210.455 163.807C210.455 164.185 210.758 164.564 211.211 164.564C211.589 164.564 211.967 164.261 211.967 163.807C211.891 163.353 211.589 163.051 211.211 163.051Z" fill="#0A3F64"/>
<path d="M208.642 174.012C208.642 174.693 209.246 175.298 209.926 175.298C210.606 175.298 211.211 174.693 211.211 174.012C211.211 173.332 210.606 172.727 209.926 172.727C209.171 172.727 208.642 173.332 208.642 174.012Z" fill="white"/>
<path d="M209.926 175.907C208.944 175.907 208.112 175.076 208.112 174.092C208.112 173.109 208.944 172.277 209.926 172.277C210.908 172.277 211.74 173.109 211.74 174.092C211.74 175.076 210.908 175.907 209.926 175.907ZM209.926 173.336C209.548 173.336 209.17 173.639 209.17 174.092C209.17 174.471 209.473 174.849 209.926 174.849C210.304 174.849 210.682 174.546 210.682 174.092C210.606 173.639 210.304 173.336 209.926 173.336Z" fill="#0A3F64"/>
<path d="M196.929 65.1124C194.133 64.3561 188.919 62.0873 190.657 56.5665C192.395 51.0458 193.075 53.3146 193.075 53.3146C193.075 53.3146 193.982 54.8271 194.435 54.9784C194.888 55.1296 193.906 55.2809 196.4 50.8945C196.4 50.8945 200.783 50.9702 202.067 54.0709C203.352 57.0959 204.939 55.8859 205.921 54.7515C206.752 53.7683 208.188 55.5834 208.339 56.869C208.717 58.3059 215.367 58.9866 217.105 60.4235C219.826 62.6167 220.732 63.4486 219.826 67.5324C219.674 68.2887 216.803 75.6245 216.803 75.6245L216.047 67.1543C216.047 67.003 201.614 66.398 196.929 65.1124Z" fill="#0A3F64"/>
<path d="M183.704 163.051H180.455C180.152 163.051 179.926 162.824 179.926 162.522C179.926 162.219 180.152 161.992 180.455 161.992H183.704C184.006 161.992 184.233 162.219 184.233 162.522C184.233 162.824 184.006 163.051 183.704 163.051Z" fill="#0A3F64"/>
<path d="M184.687 174.621H181.437C181.135 174.621 180.908 174.394 180.908 174.092C180.908 173.789 181.135 173.562 181.437 173.562H184.687C184.989 173.562 185.216 173.789 185.216 174.092C185.291 174.319 184.989 174.621 184.687 174.621Z" fill="#0A3F64"/>
<path d="M195.644 239.054L191.941 215.761V202.98H192.999V215.686L196.778 238.903L195.644 239.054Z" fill="#00B7C5"/>
<path d="M168.137 98.4645C174.485 98.6157 173.805 92.7925 173.805 92.7925C173.805 92.7925 167.759 96.0444 166.626 96.8763C165.492 97.7839 167.23 98.4645 168.137 98.4645Z" fill="white"/>
<path d="M168.365 99.0698C168.289 99.0698 168.213 99.0698 168.138 99.0698C167.458 99.0698 166.022 98.6917 165.72 97.7842C165.644 97.4817 165.569 96.9523 166.249 96.4985C167.382 95.6666 173.276 92.4903 173.503 92.3391L174.259 91.9609L174.334 92.7928C174.334 92.8685 174.637 95.5154 172.974 97.3304C171.992 98.4648 170.405 99.0698 168.365 99.0698ZM168.213 97.9354C170.027 98.0111 171.387 97.4817 172.218 96.5742C173.05 95.6666 173.276 94.5322 173.276 93.776C171.614 94.6835 167.836 96.801 166.929 97.4061C166.853 97.4817 166.853 97.4817 166.778 97.4817C167.004 97.6329 167.684 97.9354 168.213 97.9354Z" fill="#0A3F64"/>
<path d="M166.777 88.1781C166.777 88.1781 170.102 92.7157 170.027 95.2114C169.951 97.7071 165.115 98.7659 161.563 95.7408C158.011 92.7157 165.266 86.8925 166.777 88.1781Z" fill="white"/>
<path d="M166.4 98.1618C164.737 98.1618 162.848 97.6324 161.185 96.1955C159.523 94.7586 159.674 92.5654 161.563 90.2966C162.999 88.5572 165.871 86.6665 167.155 87.8009L167.231 87.8765C167.382 88.1034 170.631 92.641 170.556 95.288C170.556 96.3467 169.876 97.2543 168.667 97.708C168.138 98.0105 167.306 98.1618 166.4 98.1618ZM166.173 88.5572C165.493 88.5572 163.755 89.3891 162.395 90.9772C161.563 91.9604 160.354 93.9267 161.941 95.288C164.057 97.103 166.702 97.3299 168.289 96.6492C168.742 96.4224 169.498 95.9686 169.498 95.2123C169.498 93.3973 167.306 89.8428 166.4 88.5572C166.324 88.5572 166.324 88.5572 166.173 88.5572Z" fill="#0A3F64"/>
<path d="M155.518 150.721C155.443 150.721 155.367 150.721 155.367 150.721C155.065 150.646 154.914 150.267 155.065 150.041C158.767 139.755 161.261 125.311 161.261 125.159C161.337 124.857 161.639 124.63 161.941 124.706C162.244 124.781 162.47 125.084 162.395 125.386C162.395 125.537 159.901 140.058 156.123 150.494C155.971 150.57 155.745 150.721 155.518 150.721Z" fill="#0A3F64"/>
<path d="M196.248 85.2284C196.097 86.2116 195.568 86.8922 195.039 86.8166C194.51 86.741 194.283 85.9091 194.435 84.9259C194.586 83.9428 195.115 83.2621 195.644 83.3378C196.173 83.4134 196.475 84.2453 196.248 85.2284Z" fill="#0A3F64"/>
<path d="M146.828 81.0698C146.752 81.0698 146.676 81.0698 146.601 80.9941C146.299 80.8429 146.147 80.5404 146.299 80.2379L156.047 56.2642C156.198 55.9617 156.5 55.8104 156.802 55.9617C157.105 56.1129 157.256 56.4154 157.105 56.7179L147.356 80.6916C147.205 80.9185 146.979 81.0698 146.828 81.0698Z" fill="#0A3F64"/>
</g>
<g filter="url(#filter0_d)">
<rect x="226.459" y="158.203" width="212.486" height="110.409" fill="white"/>
</g>
<rect x="239.7" y="169.398" width="122.276" height="11.9444" rx="5.97218" fill="#CCCCCC"/>
<rect x="240.201" y="199.043" width="80.3428" height="5.97223" rx="2.98611" fill="#CCCCCC"/>
<rect x="342.479" y="199.043" width="80.3428" height="5.97223" rx="2.98611" fill="#CCCCCC"/>
<rect x="240.201" y="214.566" width="80.3428" height="5.97223" rx="2.98611" fill="#CCCCCC"/>
<rect x="342.479" y="214.566" width="80.3428" height="5.97223" rx="2.98611" fill="#CCCCCC"/>
<rect x="240.201" y="230.086" width="80.3428" height="5.97223" rx="2.98611" fill="#CCCCCC"/>
<rect x="342.479" y="230.086" width="80.3428" height="5.97223" rx="2.98611" fill="#CCCCCC"/>
<rect x="240.201" y="245.606" width="80.3428" height="5.97223" rx="2.98611" fill="#CCCCCC"/>
<rect x="342.479" y="245.606" width="80.3428" height="5.97223" rx="2.98611" fill="#CCCCCC"/>
<g filter="url(#filter1_d)">
<rect x="295" y="275" width="35" height="33" fill="white"/>
</g>
<g clip-path="url(#clip1)">
<path d="M316.515 293.086L316.509 293.138C314.905 292.384 314.737 292.284 314.53 292.577C314.387 292.779 313.968 293.239 313.842 293.375C313.714 293.509 313.588 293.52 313.371 293.427C313.152 293.324 312.45 293.107 311.619 292.406C310.971 291.859 310.537 291.189 310.408 290.983C310.195 290.635 310.642 290.586 311.049 289.86C311.121 289.715 311.084 289.602 311.03 289.499C310.976 289.396 310.54 288.386 310.358 287.983C310.183 287.581 310.003 287.632 309.868 287.632C309.448 287.598 309.141 287.603 308.871 287.869C307.694 289.088 307.99 290.346 308.997 291.684C310.976 294.126 312.031 294.576 313.959 295.2C314.479 295.356 314.954 295.334 315.33 295.283C315.748 295.221 316.618 294.788 316.8 294.303C316.985 293.818 316.985 293.416 316.931 293.323C316.877 293.23 316.734 293.179 316.515 293.086V293.086Z" fill="#00A7B3"/>
<path d="M318.713 285.621C313.106 280.511 303.827 284.218 303.824 291.427C303.824 292.868 304.224 294.273 304.987 295.514L303.75 299.75L308.369 298.615C314.133 301.55 321.247 297.652 321.25 291.431C321.25 289.247 320.346 287.192 318.702 285.648L318.713 285.621ZM319.793 291.408C319.789 296.656 313.679 299.933 308.847 297.255L308.584 297.108L305.85 297.778L306.583 295.272L306.409 295.014C303.401 290.501 306.856 284.602 312.552 284.602C314.488 284.602 316.304 285.313 317.672 286.603C319.039 287.881 319.793 289.593 319.793 291.408V291.408Z" fill="#00A7B3"/>
</g>
<g filter="url(#filter2_d)">
<rect x="337" y="275" width="33" height="33" fill="white"/>
</g>
<path d="M357.109 299.75C356.576 299.75 356.048 299.656 355.531 299.468C353.256 298.642 351.145 297.296 349.424 295.576C347.704 293.855 346.358 291.744 345.532 289.469C345.266 288.738 345.188 287.983 345.299 287.225C345.403 286.516 345.678 285.827 346.094 285.234C346.511 284.637 347.068 284.141 347.704 283.8C348.382 283.435 349.122 283.25 349.904 283.25C350.147 283.25 350.357 283.42 350.408 283.658L351.218 287.434C351.254 287.605 351.202 287.783 351.078 287.907L349.695 289.29C351 291.883 353.116 294 355.71 295.305L357.093 293.922C357.217 293.798 357.395 293.746 357.566 293.782L361.342 294.592C361.58 294.643 361.75 294.853 361.75 295.096C361.75 295.878 361.565 296.618 361.2 297.296C360.858 297.932 360.363 298.489 359.766 298.906C359.173 299.322 358.484 299.597 357.775 299.701C357.552 299.734 357.33 299.75 357.109 299.75V299.75ZM349.492 284.304C348.461 284.418 347.546 284.958 346.938 285.825C346.255 286.801 346.095 288 346.501 289.117C348.09 293.49 351.51 296.91 355.883 298.499C357 298.905 358.199 298.745 359.175 298.062C360.042 297.454 360.582 296.539 360.696 295.508L357.624 294.85L356.18 296.294C356.026 296.447 355.792 296.488 355.596 296.396C352.528 294.955 350.045 292.472 348.604 289.404C348.512 289.208 348.553 288.974 348.706 288.82L350.15 287.376L349.492 284.304Z" fill="#00A7B3"/>
<path d="M361.234 292.015C360.949 292.015 360.718 291.784 360.718 291.5C360.718 287.519 357.48 284.281 353.5 284.281C353.215 284.281 352.984 284.05 352.984 283.766C352.984 283.481 353.215 283.25 353.5 283.25C355.704 283.25 357.775 284.108 359.333 285.666C360.892 287.224 361.75 289.296 361.75 291.5C361.75 291.784 361.519 292.015 361.234 292.015Z" fill="#00A7B3"/>
<path d="M359.172 292.015C358.887 292.015 358.656 291.784 358.656 291.5C358.656 288.657 356.343 286.344 353.5 286.344C353.215 286.344 352.984 286.113 352.984 285.828C352.984 285.543 353.215 285.312 353.5 285.312C356.912 285.312 359.687 288.088 359.687 291.5C359.687 291.784 359.456 292.015 359.172 292.015Z" fill="#00A7B3"/>
<path d="M357.109 292.015C356.824 292.015 356.594 291.784 356.594 291.499C356.594 289.793 355.206 288.406 353.5 288.406C353.215 288.406 352.984 288.175 352.984 287.89C352.984 287.605 353.215 287.375 353.5 287.375C355.774 287.375 357.625 289.225 357.625 291.499C357.625 291.784 357.394 292.015 357.109 292.015Z" fill="#00A7B3"/>
<g filter="url(#filter3_d)">
<rect x="294.599" y="66.4805" width="76.0574" height="76.0574" fill="white"/>
</g>
<g clip-path="url(#clip2)">
<path d="M303.251 126.588C303.251 111.875 303.251 97.136 303.251 82.4229C303.329 82.24 303.434 82.0309 303.512 81.848C304.348 78.9471 306.855 76.961 309.831 76.961C325.029 76.9349 340.201 76.9349 355.373 76.961C357.383 76.961 359.159 77.7189 360.36 79.3653C361.065 80.3584 361.457 81.5866 362.005 82.7104C362.005 97.3451 362.005 111.98 362.005 126.615C360.23 131.005 358.585 132.103 353.727 132.103C339.313 132.103 324.873 132.103 310.458 132.103C309.91 132.103 309.335 132.076 308.787 131.972C305.758 131.397 304.139 129.385 303.251 126.588ZM333.02 125.935C339.626 125.935 346.233 125.961 352.84 125.909C353.571 125.909 354.563 125.569 354.903 125.02C355.164 124.602 354.772 123.557 354.38 122.982C352.213 119.768 349.993 116.605 347.748 113.469C346.494 111.719 344.927 111.562 343.334 113.077C342.551 113.835 341.82 114.645 341.037 115.403C339.365 117.05 337.772 116.945 336.31 115.037C332.811 110.49 329.338 105.917 325.839 101.37C324.246 99.3051 322.966 99.4358 321.791 101.788C319.807 105.708 317.848 109.602 315.89 113.522C314.297 116.71 312.652 119.846 311.085 123.06C310.275 124.707 310.928 125.778 312.73 125.961C313.174 125.987 313.592 125.987 314.036 125.987C320.407 125.935 326.7 125.935 333.02 125.935ZM341.245 86.8656C337.668 86.8656 334.848 89.6619 334.848 93.1899C334.848 96.8486 337.616 99.671 341.219 99.671C344.771 99.671 347.643 96.8486 347.643 93.3467C347.643 89.688 344.849 86.8656 341.245 86.8656Z" fill="#00A7B3"/>
</g>
<defs>
<filter id="filter0_d" x="218.459" y="154.203" width="228.486" height="126.409" filterUnits="userSpaceOnUse" color-interpolation-filters="sRGB">
<feFlood flood-opacity="0" result="BackgroundImageFix"/>
<feColorMatrix in="SourceAlpha" type="matrix" values="0 0 0 0 0 0 0 0 0 0 0 0 0 0 0 0 0 0 127 0"/>
<feOffset dy="4"/>
<feGaussianBlur stdDeviation="4"/>
<feColorMatrix type="matrix" values="0 0 0 0 0 0 0 0 0 0 0 0 0 0 0 0 0 0 0.25 0"/>
<feBlend mode="normal" in2="BackgroundImageFix" result="effect1_dropShadow"/>
<feBlend mode="normal" in="SourceGraphic" in2="effect1_dropShadow" result="shape"/>
</filter>
<filter id="filter1_d" x="290" y="270" width="45" height="43" filterUnits="userSpaceOnUse" color-interpolation-filters="sRGB">
<feFlood flood-opacity="0" result="BackgroundImageFix"/>
<feColorMatrix in="SourceAlpha" type="matrix" values="0 0 0 0 0 0 0 0 0 0 0 0 0 0 0 0 0 0 127 0"/>
<feOffset/>
<feGaussianBlur stdDeviation="2.5"/>
<feColorMatrix type="matrix" values="0 0 0 0 0 0 0 0 0 0 0 0 0 0 0 0 0 0 0.12 0"/>
<feBlend mode="normal" in2="BackgroundImageFix" result="effect1_dropShadow"/>
<feBlend mode="normal" in="SourceGraphic" in2="effect1_dropShadow" result="shape"/>
</filter>
<filter id="filter2_d" x="332" y="270" width="43" height="43" filterUnits="userSpaceOnUse" color-interpolation-filters="sRGB">
<feFlood flood-opacity="0" result="BackgroundImageFix"/>
<feColorMatrix in="SourceAlpha" type="matrix" values="0 0 0 0 0 0 0 0 0 0 0 0 0 0 0 0 0 0 127 0"/>
<feOffset/>
<feGaussianBlur stdDeviation="2.5"/>
<feColorMatrix type="matrix" values="0 0 0 0 0 0 0 0 0 0 0 0 0 0 0 0 0 0 0.12 0"/>
<feBlend mode="normal" in2="BackgroundImageFix" result="effect1_dropShadow"/>
<feBlend mode="normal" in="SourceGraphic" in2="effect1_dropShadow" result="shape"/>
</filter>
<filter id="filter3_d" x="286.599" y="62.4805" width="92.0574" height="92.0574" filterUnits="userSpaceOnUse" color-interpolation-filters="sRGB">
<feFlood flood-opacity="0" result="BackgroundImageFix"/>
<feColorMatrix in="SourceAlpha" type="matrix" values="0 0 0 0 0 0 0 0 0 0 0 0 0 0 0 0 0 0 127 0"/>
<feOffset dy="4"/>
<feGaussianBlur stdDeviation="4"/>
<feColorMatrix type="matrix" values="0 0 0 0 0 0 0 0 0 0 0 0 0 0 0 0 0 0 0.1 0"/>
<feBlend mode="normal" in2="BackgroundImageFix" result="effect1_dropShadow"/>
<feBlend mode="normal" in="SourceGraphic" in2="effect1_dropShadow" result="shape"/>
</filter>
<clipPath id="clip0">
<rect width="656" height="359" fill="white"/>
</clipPath>
<clipPath id="clip1">
<rect width="17.5" height="16.5" fill="white" transform="translate(303.75 283.25)"/>
</clipPath>
<clipPath id="clip2">
<rect width="58.7544" height="55.1416" fill="white" transform="translate(303.251 76.9375)"/>
</clipPath>
</defs>
</svg>
