<svg width="406" height="105" viewBox="0 0 406 105" fill="none" xmlns="http://www.w3.org/2000/svg">
<path d="M115.973 54.3532H60.08L31.2485 0.9375H87.1417L115.973 54.3532Z" fill="#00A7B3"/>
<path d="M31.2485 104.938H87.1417L115.973 54.3535H60.08L31.2485 104.938Z" fill="#008187"/>
<path d="M60.3796 54.3804L31.0853 0.9375L0.130371 52.8286L31.1942 104.938L60.3796 54.3804Z" fill="#059A9F"/>
<path d="M68.7375 49.2619H57.4118C56.2956 49.2619 55.4244 50.1604 55.4244 51.2494V53.7541H48.7542V51.2494C48.7542 46.4577 52.6202 42.5918 57.4118 42.5918H68.7375V32.6001C68.7375 30.7488 67.2401 29.2787 65.416 29.2787H38.7626C36.9113 29.2787 35.4412 30.7761 35.4412 32.6001V59.2535C35.4412 61.1049 36.9385 62.575 38.7626 62.575H48.7542V57.0755H55.4244V62.575H65.416C67.2673 62.575 68.7375 61.0776 68.7375 59.2535V49.2619ZM75.4076 49.2619V59.2535C75.4076 64.7803 70.9427 69.2452 65.416 69.2452H55.4244V77.2494C55.4244 78.3656 56.3228 79.2368 57.4118 79.2368H65.7427V85.907H57.4118C52.6202 85.907 48.7542 82.041 48.7542 77.2494V69.2724H38.7626C33.2359 69.2724 28.771 64.8075 28.771 59.2808V32.6274C28.771 27.1007 33.2359 22.6357 38.7626 22.6357H65.416C70.9427 22.6357 75.4076 27.1007 75.4076 32.6274V42.619H83.4118V49.2892H75.4076V49.2619ZM92.0694 63.0923V77.2766C92.0694 82.0682 88.2035 85.9342 83.4118 85.9342H69.0914V79.264H83.4118C84.5281 79.264 85.3993 78.3656 85.3993 77.2766V63.0923H92.0694ZM83.4118 42.619C88.2035 42.619 92.0694 46.485 92.0694 51.2766V59.7708H85.3993V51.2766C85.3993 50.1604 84.5008 49.2892 83.4118 49.2892V42.619Z" fill="white"/>
<path d="M184.091 53.0735C184.091 58.1102 183.574 62.5207 182.239 66.2233C179.354 74.8536 172.874 80.217 162.801 80.217C158.064 80.217 153.844 78.3657 150.876 74.8809C150.577 74.5814 150.25 74.772 150.25 75.1803V77.8484C150.25 78.7741 149.624 79.4002 148.698 79.4002H141.919C140.993 79.4002 140.367 78.7741 140.367 77.8484V8.96882C140.367 8.04317 140.993 7.41699 141.919 7.41699H148.698C149.624 7.41699 150.25 8.04317 150.25 8.96882V31.2662C150.25 31.6746 150.549 31.7835 150.876 31.484C153.871 28.0809 158.064 26.2296 162.801 26.2296C173.173 26.2296 179.762 31.7835 182.539 40.6317C183.682 44.2254 184.091 48.4453 184.091 53.0735ZM174.235 53.2641C174.235 47.1929 173.01 42.8913 170.941 39.706C168.872 36.5207 165.795 34.7782 161.793 34.7782C157.9 34.7782 155.014 36.6296 153.054 40.0327C151.312 43.1091 150.386 47.329 150.386 53.1824C150.386 58.8453 151.203 63.1468 152.864 66.1416C154.824 69.6264 157.791 71.6955 161.821 71.6955C166.34 71.6955 169.743 69.7353 171.676 66.0327C173.31 62.929 174.235 58.818 174.235 53.2641Z" fill="#008187"/>
<path d="M223.05 27.0464H229.72C230.645 27.0464 231.272 27.6726 231.272 28.5982V77.8485C231.272 78.7741 230.645 79.4003 229.72 79.4003H223.05C222.124 79.4003 221.498 78.7741 221.498 77.8485V74.7721C221.498 74.3637 221.198 74.2548 220.872 74.5542C218.204 78.148 214.093 80.1082 208.321 80.1082C198.547 80.1082 189.617 74.4453 189.617 63.1469V28.5982C189.617 27.6726 190.243 27.0464 191.169 27.0464H197.839C198.765 27.0464 199.391 27.6726 199.391 28.5982V60.0433C199.391 67.0401 203.284 71.5595 210.172 71.5595C217.06 71.5595 221.471 67.0401 221.471 60.0433V28.5982C221.525 27.6726 222.124 27.0464 223.05 27.0464Z" fill="#008187"/>
<path d="M238.486 12.7804C238.486 8.96884 241.263 6.30078 245.265 6.30078C249.268 6.30078 251.936 8.96884 251.936 12.7804C251.936 16.5919 249.268 19.2599 245.265 19.2599C241.263 19.2327 238.486 16.5647 238.486 12.7804ZM240.338 77.8484V28.5982C240.338 27.6725 240.964 27.0463 241.889 27.0463H248.669C249.594 27.0463 250.22 27.6725 250.22 28.5982V77.8484C250.22 78.7741 249.594 79.4002 248.669 79.4002H241.889C240.937 79.373 240.338 78.7741 240.338 77.8484Z" fill="#008187"/>
<path d="M259.232 77.8484V8.96882C259.232 8.04317 259.858 7.41699 260.784 7.41699H267.563C268.488 7.41699 269.115 8.04317 269.115 8.96882V77.8484C269.115 78.7741 268.488 79.4002 267.563 79.4002H260.784C259.858 79.373 259.232 78.7741 259.232 77.8484Z" fill="#008187"/>
<path d="M310.851 7.41699H317.63C318.555 7.41699 319.182 8.04317 319.182 8.96882V77.8484C319.182 78.7741 318.555 79.4002 317.63 79.4002H310.851C309.925 79.4002 309.299 78.7741 309.299 77.8484V75.1803C309.299 74.772 308.999 74.5542 308.673 74.8809C305.678 78.3657 301.485 80.217 296.748 80.217C286.675 80.217 280.195 74.8809 277.309 66.2233C275.975 62.5207 275.458 58.1102 275.458 53.0735C275.458 48.4453 275.866 44.2254 277.01 40.6317C279.787 31.7835 286.375 26.2296 296.748 26.2296C301.485 26.2296 305.705 28.0809 308.673 31.484C308.972 31.7835 309.299 31.7018 309.299 31.2662V8.96882C309.299 8.04317 309.925 7.41699 310.851 7.41699ZM309.19 53.1824C309.19 47.329 308.264 43.1091 306.522 40.0327C304.562 36.6296 301.703 34.7782 297.783 34.7782C293.781 34.7782 290.677 36.5207 288.635 39.706C286.566 42.8913 285.341 47.2201 285.341 53.2641C285.341 58.818 286.266 62.929 287.9 66.0055C289.86 69.7081 293.236 71.6683 297.755 71.6683C301.757 71.6683 304.752 69.5992 306.712 66.1144C308.373 63.1468 309.19 58.818 309.19 53.1824Z" fill="#008187"/>
<path d="M361.435 65.2978C361.952 64.3722 362.578 64.0727 363.504 64.6716L367.724 67.2308C368.541 67.7481 368.758 68.4559 368.35 69.3816C364.756 75.8612 357.977 80.1627 348.612 80.1627C338.756 80.1627 332.059 75.5345 328.656 67.6119C327.022 63.6099 326.097 58.5732 326.097 52.9104C326.097 48.1732 326.314 44.6884 327.24 41.503C329.718 32.1376 337.422 26.1753 348.122 26.1753C361.598 26.1753 367.751 33.6894 369.711 46.0224C370.12 48.7994 370.338 51.7669 370.419 55.279C370.419 56.3135 369.793 56.8308 368.867 56.8308H336.388C336.088 56.8308 335.87 57.0486 335.87 57.3481C335.979 59.8256 336.17 61.6769 336.578 62.902C338.021 68.2381 342.758 71.7502 349.538 71.7502C355.146 71.6685 359.175 69.2999 361.435 65.2978ZM336.851 42.8915C336.333 44.4434 336.034 46.3763 335.925 48.636C335.925 48.9355 336.143 49.1533 336.442 49.1533H359.774C360.074 49.1533 360.291 48.9355 360.291 48.636C360.183 46.5669 359.992 44.7428 359.665 43.5994C358.331 38.3449 354.22 34.7512 348.04 34.7512C341.887 34.7784 338.185 38.0455 336.851 42.8915Z" fill="#008187"/>
<path d="M405.104 27.6724C405.921 28.0808 406.139 28.8158 405.921 29.6326L404.478 36.3027C404.26 37.4462 403.661 37.5279 402.627 37.2284C401.402 36.82 399.55 36.6022 397.59 36.82C391.328 37.0378 386.482 41.4483 386.482 48.3363V77.8483C386.482 78.7739 385.856 79.4001 384.93 79.4001H378.151C377.226 79.4001 376.6 78.7739 376.6 77.8483V28.598C376.6 27.6724 377.226 27.0462 378.151 27.0462H384.93C385.856 27.0462 386.482 27.6724 386.482 28.598V33.3352C386.482 33.8525 386.782 33.9614 387 33.553C389.777 29.3331 393.888 26.5562 399.55 26.5562C402.028 26.5562 403.77 27.0462 405.104 27.6724Z" fill="#008187"/>
</svg>
