<svg width="157" height="41" viewBox="0 0 157 41" fill="none" xmlns="http://www.w3.org/2000/svg">
<path d="M45.0737 20.7906H23.5763L12.4873 0.246094H33.9847L45.0737 20.7906Z" fill="#00A7B3"/>
<path d="M12.4873 40.2465H33.9847L45.0737 20.791H23.5763L12.4873 40.2465Z" fill="#008187"/>
<path d="M23.6913 20.8011L12.4243 0.246094L0.518555 20.2042L12.4662 40.2461L23.6913 20.8011Z" fill="#059A9F"/>
<path d="M26.9059 18.8326H22.5499C22.1206 18.8326 21.7855 19.1782 21.7855 19.597V20.5604H19.22V19.597C19.22 17.7541 20.707 16.2672 22.5499 16.2672H26.9059V12.4243C26.9059 11.7122 26.33 11.1468 25.6284 11.1468H15.3771C14.6651 11.1468 14.0996 11.7227 14.0996 12.4243V22.6756C14.0996 23.3876 14.6755 23.9531 15.3771 23.9531H19.22V21.8379H21.7855V23.9531H25.6284C26.3405 23.9531 26.9059 23.3771 26.9059 22.6756V18.8326ZM29.4714 18.8326V22.6756C29.4714 24.8012 27.7541 26.5185 25.6284 26.5185H21.7855V29.597C21.7855 30.0264 22.131 30.3614 22.5499 30.3614H25.7541V32.9269H22.5499C20.707 32.9269 19.22 31.44 19.22 29.597V26.529H15.3771C13.2515 26.529 11.5342 24.8117 11.5342 22.686V12.4347C11.5342 10.3091 13.2515 8.5918 15.3771 8.5918H25.6284C27.7541 8.5918 29.4714 10.3091 29.4714 12.4347V16.2777H32.5499V18.8431H29.4714V18.8326ZM35.8797 24.152V29.6075C35.8797 31.4504 34.3928 32.9374 32.5499 32.9374H27.042V30.3719H32.5499C32.9792 30.3719 33.3143 30.0264 33.3143 29.6075V24.152H35.8797ZM32.5499 16.2777C34.3928 16.2777 35.8797 17.7646 35.8797 19.6075V22.8745H33.3143V19.6075C33.3143 19.1782 32.9687 18.8431 32.5499 18.8431V16.2777Z" fill="white"/>
<path d="M71.2723 20.2985C71.2723 22.2357 71.0734 23.932 70.5603 25.3561C69.4503 28.6755 66.9582 30.7383 63.0838 30.7383C61.2619 30.7383 59.6388 30.0262 58.4975 28.6859C58.3823 28.5707 58.2566 28.644 58.2566 28.8011V29.8273C58.2566 30.1833 58.0158 30.4241 57.6598 30.4241H55.0524C54.6964 30.4241 54.4556 30.1833 54.4556 29.8273V3.33514C54.4556 2.97912 54.6964 2.73828 55.0524 2.73828H57.6598C58.0158 2.73828 58.2566 2.97912 58.2566 3.33514V11.9111C58.2566 12.0681 58.3718 12.11 58.4975 11.9948C59.6493 10.6859 61.2619 9.97388 63.0838 9.97388C67.0734 9.97388 69.6074 12.11 70.6755 15.5132C71.1153 16.8953 71.2723 18.5184 71.2723 20.2985ZM67.4817 20.3718C67.4817 18.0367 67.0105 16.3823 66.2147 15.1571C65.4189 13.932 64.2357 13.2618 62.6964 13.2618C61.199 13.2618 60.0891 13.9739 59.3352 15.2828C58.665 16.466 58.309 18.0891 58.309 20.3404C58.309 22.5184 58.6231 24.1728 59.2619 25.3247C60.0158 26.665 61.1571 27.4608 62.7069 27.4608C64.4451 27.4608 65.754 26.7069 66.4975 25.2828C67.1257 24.0891 67.4817 22.5079 67.4817 20.3718Z" fill="#008187"/>
<path d="M86.2566 10.2881H88.822C89.1781 10.2881 89.4189 10.5289 89.4189 10.8849V29.8274C89.4189 30.1834 89.1781 30.4242 88.822 30.4242H86.2566C85.9006 30.4242 85.6597 30.1834 85.6597 29.8274V28.6441C85.6597 28.487 85.5445 28.4452 85.4189 28.5603C84.3927 29.9425 82.8116 30.6965 80.5917 30.6965C76.8325 30.6965 73.3979 28.5185 73.3979 24.1729V10.8849C73.3979 10.5289 73.6388 10.2881 73.9948 10.2881H76.5603C76.9163 10.2881 77.1571 10.5289 77.1571 10.8849V22.9792C77.1571 25.6703 78.6545 27.4085 81.3037 27.4085C83.9529 27.4085 85.6493 25.6703 85.6493 22.9792V10.8849C85.6702 10.5289 85.9006 10.2881 86.2566 10.2881Z" fill="#008187"/>
<path d="M92.1938 4.80074C92.1938 3.33477 93.2619 2.30859 94.8012 2.30859C96.3405 2.30859 97.3667 3.33477 97.3667 4.80074C97.3667 6.26671 96.3405 7.29289 94.8012 7.29289C93.2619 7.28242 92.1938 6.25624 92.1938 4.80074ZM92.9059 29.8269V10.8845C92.9059 10.5285 93.1467 10.2877 93.5028 10.2877H96.1101C96.4661 10.2877 96.707 10.5285 96.707 10.8845V29.8269C96.707 30.1829 96.4661 30.4238 96.1101 30.4238H93.5028C93.1363 30.4133 92.9059 30.1829 92.9059 29.8269Z" fill="#008187"/>
<path d="M100.173 29.8273V3.33514C100.173 2.97912 100.414 2.73828 100.77 2.73828H103.377C103.733 2.73828 103.974 2.97912 103.974 3.33514V29.8273C103.974 30.1833 103.733 30.4241 103.377 30.4241H100.77C100.414 30.4137 100.173 30.1833 100.173 29.8273Z" fill="#008187"/>
<path d="M120.027 2.73828H122.634C122.99 2.73828 123.231 2.97912 123.231 3.33514V29.8273C123.231 30.1833 122.99 30.4241 122.634 30.4241H120.027C119.671 30.4241 119.43 30.1833 119.43 29.8273V28.8011C119.43 28.644 119.315 28.5603 119.189 28.6859C118.037 30.0262 116.425 30.7383 114.603 30.7383C110.728 30.7383 108.236 28.6859 107.126 25.3561C106.613 23.932 106.414 22.2357 106.414 20.2985C106.414 18.5184 106.571 16.8953 107.011 15.5132C108.079 12.11 110.613 9.97388 114.603 9.97388C116.425 9.97388 118.048 10.6859 119.189 11.9948C119.304 12.11 119.43 12.0786 119.43 11.9111V3.33514C119.43 2.97912 119.671 2.73828 120.027 2.73828ZM119.388 20.3404C119.388 18.0891 119.032 16.466 118.362 15.2828C117.608 13.9739 116.508 13.2618 115 13.2618C113.461 13.2618 112.267 13.932 111.482 15.1571C110.686 16.3823 110.215 18.0472 110.215 20.3718C110.215 22.5079 110.571 24.0891 111.199 25.2723C111.953 26.6964 113.252 27.4503 114.99 27.4503C116.529 27.4503 117.681 26.6545 118.435 25.3142C119.074 24.1728 119.388 22.5079 119.388 20.3404Z" fill="#008187"/>
<path d="M139.482 25.0002C139.681 24.6442 139.922 24.529 140.278 24.7594L141.901 25.7437C142.215 25.9427 142.299 26.2149 142.141 26.5709C140.759 29.0631 138.152 30.7175 134.55 30.7175C130.759 30.7175 128.183 28.9374 126.874 25.8903C126.246 24.351 125.89 22.4139 125.89 20.2358C125.89 18.4139 125.974 17.0735 126.33 15.8484C127.283 12.2463 130.246 9.95312 134.361 9.95312C139.545 9.95312 141.911 12.8432 142.665 17.5866C142.822 18.6547 142.906 19.7961 142.937 21.1468C142.937 21.5448 142.696 21.7437 142.34 21.7437H129.848C129.733 21.7437 129.649 21.8275 129.649 21.9427C129.691 22.8955 129.764 23.6076 129.922 24.0788C130.477 26.1311 132.299 27.4819 134.906 27.4819C137.063 27.4505 138.613 26.5395 139.482 25.0002ZM130.026 16.3824C129.827 16.9793 129.712 17.7228 129.67 18.5919C129.67 18.7071 129.754 18.7908 129.869 18.7908H138.843C138.958 18.7908 139.042 18.7071 139.042 18.5919C139 17.7961 138.927 17.0945 138.801 16.6547C138.288 14.6338 136.707 13.2516 134.33 13.2516C131.963 13.262 130.539 14.5186 130.026 16.3824Z" fill="#008187"/>
<path d="M156.278 10.5289C156.592 10.686 156.676 10.9687 156.592 11.2829L156.037 13.8483C155.953 14.2881 155.723 14.3195 155.325 14.2043C154.854 14.0473 154.142 13.9635 153.388 14.0473C150.979 14.131 149.115 15.8274 149.115 18.4766V29.8274C149.115 30.1834 148.875 30.4242 148.519 30.4242H145.911C145.555 30.4242 145.314 30.1834 145.314 29.8274V10.8849C145.314 10.5289 145.555 10.2881 145.911 10.2881H148.519C148.875 10.2881 149.115 10.5289 149.115 10.8849V12.7069C149.115 12.9059 149.231 12.9478 149.314 12.7907C150.383 11.1677 151.964 10.0996 154.142 10.0996C155.095 10.0996 155.765 10.2881 156.278 10.5289Z" fill="#008187"/>
</svg>
