<svg width="63" height="21" viewBox="0 0 63 21" fill="none" xmlns="http://www.w3.org/2000/svg">
<path d="M22.2829 10.8973H11.5343L5.98975 0.625H16.7384L22.2829 10.8973Z" fill="#F09700"/>
<path d="M5.98975 20.6252H16.7384L22.2829 10.8975H11.5343L5.98975 20.6252Z" fill="#E94F0F"/>
<path d="M11.5918 10.9025L5.95825 0.625L0.00537109 10.6041L5.97919 20.625L11.5918 10.9025Z" fill="#EE7802"/>
<path d="M16.5392 6.12256H9.03662V6.9079H16.534C16.7487 6.9079 16.9267 7.08591 16.9267 7.30057V9.65135C16.9267 9.86601 16.7487 10.044 16.534 10.044H15.3508V8.47858L12.9843 10.4367L15.3508 12.3948V10.8294H16.534C17.1885 10.8294 17.7172 10.3006 17.7172 9.65135V7.30057C17.7225 6.65135 17.1885 6.12256 16.5392 6.12256Z" fill="white"/>
<path d="M11.4084 14.7456H6.27748C6.05759 14.7456 5.88481 14.5676 5.88481 14.353V11.2168C5.88481 11.0022 6.06282 10.8242 6.27748 10.8242H8.25131V10.0388H6.27748C5.62303 10.0388 5.09424 10.5676 5.09424 11.2168V14.353C5.09424 15.0022 5.62303 15.531 6.27748 15.531H11.4084V17.0964L13.7749 15.1383L11.4084 13.1802V14.7456Z" fill="white"/>
<path d="M5.48691 7.68782H7.8534C8.06806 7.68782 8.24607 7.50981 8.24607 7.29515V5.72971C8.24607 5.51505 8.06806 5.33704 7.8534 5.33704H5.48691C5.27225 5.33704 5.09424 5.51505 5.09424 5.72971V7.29515C5.09424 7.51505 5.27225 7.68782 5.48691 7.68782Z" fill="white"/>
<path d="M9.43477 11.6093H11.8013C12.0159 11.6093 12.1939 11.4313 12.1939 11.2167V9.65121C12.1939 9.43656 12.0159 9.25854 11.8013 9.25854H9.43477C9.22012 9.25854 9.0421 9.43656 9.0421 9.65121V11.2167C9.03687 11.4313 9.21488 11.6093 9.43477 11.6093Z" fill="white"/>
<path d="M17.3246 13.9601H14.9581C14.7434 13.9601 14.5654 14.1381 14.5654 14.3528V15.9182C14.5654 16.1329 14.7434 16.3109 14.9581 16.3109H17.3246C17.5393 16.3109 17.7173 16.1329 17.7173 15.9182V14.3528C17.7225 14.1381 17.5445 13.9601 17.3246 13.9601Z" fill="white"/>
<path d="M26.1729 15.4157V14.1906C26.1729 14.0545 26.2147 13.955 26.309 13.8346L31.4713 7.50474C31.5132 7.44715 31.4922 7.38432 31.4137 7.38432H26.5708C26.3927 7.38432 26.2723 7.26391 26.2723 7.08589V5.9393C26.2723 5.76129 26.3927 5.64087 26.5708 5.64087H33.5079C33.6859 5.64087 33.8064 5.76129 33.8064 5.9393V7.16966C33.8064 7.30579 33.7645 7.44715 33.6702 7.54663L28.4242 13.8712C28.3823 13.9288 28.4032 13.9917 28.4818 13.9917H33.5236C33.7016 13.9917 33.8221 14.1121 33.8221 14.2901V15.4157C33.8221 15.5937 33.7016 15.7142 33.5236 15.7142H26.466C26.288 15.7089 26.1729 15.5937 26.1729 15.4157Z" fill="#E94F0F"/>
<path d="M34.7486 13.0596C34.5287 12.4051 34.3926 11.5151 34.3926 10.646C34.3926 9.77685 34.513 8.90774 34.7277 8.27423C35.3036 6.53601 36.8219 5.48889 38.8376 5.48889C40.7538 5.48889 42.2355 6.53601 42.8324 8.25853C43.068 8.92868 43.1884 9.80303 43.1884 10.6303C43.1884 11.4784 43.068 12.3685 42.8324 13.0596C42.2407 14.8187 40.7381 15.8659 38.8167 15.8659C36.8481 15.8711 35.3245 14.8187 34.7486 13.0596ZM41.0575 12.5255C41.1936 12.0491 41.2774 11.3371 41.2774 10.6669C41.2774 9.93392 41.1989 9.26376 41.0784 8.82921C40.7434 7.76114 39.9109 7.12763 38.7852 7.12763C37.6962 7.12763 36.869 7.76114 36.5339 8.82921C36.3978 9.26376 36.314 9.93392 36.314 10.6669C36.314 11.3789 36.3926 12.07 36.5339 12.5255C36.8481 13.5936 37.7015 14.2271 38.8271 14.2271C39.89 14.2271 40.7224 13.5936 41.0575 12.5255Z" fill="#E94F0F"/>
<path d="M50.7648 5.64575H52.0475C52.2255 5.64575 52.3459 5.76617 52.3459 5.94418V15.4154C52.3459 15.5934 52.2255 15.7138 52.0475 15.7138H50.7648C50.5868 15.7138 50.4663 15.5934 50.4663 15.4154V14.8238C50.4663 14.7452 50.4087 14.7243 50.3459 14.7819C49.8328 15.473 49.0423 15.8499 47.9323 15.8499C46.0527 15.8499 44.3354 14.7609 44.3354 12.5882V5.94418C44.3354 5.76617 44.4559 5.64575 44.6339 5.64575H45.9218C46.0998 5.64575 46.2203 5.76617 46.2203 5.94418V11.9913C46.2203 13.3369 46.969 14.206 48.2936 14.206C49.6182 14.206 50.4663 13.3369 50.4663 11.9913V5.94418C50.4663 5.76617 50.5868 5.64575 50.7648 5.64575Z" fill="#E94F0F"/>
<path d="M60.4085 5.64596H61.7122C61.8902 5.64596 62.0106 5.76638 62.0106 5.94439V15.1957C62.0106 18.9496 59.2619 19.8397 56.1415 19.6041C55.9425 19.6041 55.864 19.468 55.864 19.2899L55.9059 18.1224C55.9059 17.9444 56.042 17.824 56.241 17.8449C58.9478 18.0229 60.1153 17.3528 60.1153 15.1381V14.803C60.1153 14.7245 60.0577 14.7036 59.9949 14.7611C59.4818 15.3371 58.7122 15.7088 57.5813 15.7088C56.0001 15.7088 54.3771 14.8973 53.8273 13.0596C53.6284 12.3894 53.5708 11.557 53.5708 10.646C53.5708 9.67737 53.6284 8.82921 53.8692 8.11716C54.3614 6.57266 55.686 5.48889 57.4661 5.48889C58.5917 5.48889 59.4242 5.84491 59.9949 6.45748C60.0525 6.53601 60.1153 6.49936 60.1153 6.41559V5.93915C60.1153 5.76638 60.2305 5.64596 60.4085 5.64596ZM60.1153 10.6303C60.1153 9.44177 60.0734 9.18523 59.9792 8.79256C59.7802 7.86586 59.0315 7.13287 57.8849 7.13287C56.7383 7.13287 56.0054 7.86586 55.7122 8.79256C55.576 9.16952 55.4923 9.70355 55.4923 10.6303C55.4923 11.5988 55.5708 12.1905 55.6912 12.4889C55.9478 13.4156 56.7383 14.1486 57.8849 14.1486C59.0891 14.1486 59.8012 13.3999 60.0001 12.4889C60.0734 12.1119 60.1153 11.8344 60.1153 10.6303Z" fill="#E94F0F"/>
</svg>
