<svg width="59" height="21" viewBox="0 0 59 21" fill="none" xmlns="http://www.w3.org/2000/svg">
<path d="M28.9107 16.4158C28.3453 16.1906 27.9055 15.887 27.6018 15.51C27.2929 15.133 27.1411 14.7142 27.1411 14.2482V14.0231C27.1411 13.8974 27.2039 13.8346 27.3348 13.8346H28.272C28.4029 13.8346 28.4657 13.8974 28.4657 14.0231V14.1749C28.4657 14.5885 28.6908 14.9498 29.1411 15.2587C29.5914 15.5676 30.1516 15.7194 30.8322 15.7194C31.5076 15.7194 32.0573 15.5728 32.4762 15.2744C32.895 14.9812 33.0992 14.6042 33.0992 14.154C33.0992 13.8398 32.9893 13.5833 32.7746 13.3791C32.56 13.1802 32.3034 13.0231 32.0102 12.9079C31.717 12.7927 31.2668 12.6514 30.6542 12.4733C29.9265 12.2744 29.3244 12.0702 28.8584 11.8713C28.3872 11.6723 27.9945 11.3896 27.6751 11.0336C27.3558 10.6775 27.1987 10.222 27.1987 9.66706C27.1987 8.86602 27.5233 8.22204 28.1778 7.7456C28.827 7.26916 29.6908 7.02832 30.7589 7.02832C31.4762 7.02832 32.1097 7.1435 32.6647 7.36863C33.2196 7.59377 33.6437 7.9079 33.9474 8.30057C34.2458 8.69848 34.3977 9.13827 34.3977 9.63041V9.68801C34.3977 9.81366 34.3348 9.87649 34.2039 9.87649H33.2877C33.1568 9.87649 33.094 9.81366 33.094 9.68801V9.63041C33.094 9.20109 32.8846 8.84507 32.4605 8.55712C32.0364 8.26916 31.4657 8.12256 30.7484 8.12256C30.0835 8.12256 29.5495 8.25345 29.1463 8.51C28.7432 8.76654 28.539 9.12256 28.539 9.57282C28.539 10.0021 28.7327 10.3267 29.1254 10.5519C29.5181 10.777 30.1202 11.0021 30.9422 11.2325C31.6961 11.4472 32.3086 11.6461 32.7799 11.8346C33.2511 12.0231 33.6542 12.2953 33.9893 12.6566C34.3296 13.0126 34.4971 13.4838 34.4971 14.0597C34.4971 14.8765 34.1673 15.5309 33.5024 16.0178C32.8374 16.51 31.9579 16.7508 30.8636 16.7508C30.1254 16.7561 29.4762 16.6409 28.9107 16.4158Z" fill="#F09700"/>
<path fill-rule="evenodd" clip-rule="evenodd" d="M30.7592 7.46069C29.7538 7.46069 28.9883 7.6873 28.4339 8.09416L28.4332 8.09465L28.4326 8.09514C27.8902 8.48996 27.6314 9.00384 27.6314 9.667C27.6314 10.1353 27.7614 10.4817 27.9973 10.7447C28.2736 11.0527 28.6135 11.2983 29.0269 11.4728L29.0277 11.4732L29.0285 11.4735C29.471 11.6624 30.0533 11.8606 30.7685 12.0562L30.7719 12.0571L30.7752 12.058C31.387 12.2358 31.8548 12.3821 32.1686 12.5054C32.5069 12.6382 32.8108 12.8227 33.0689 13.0619L33.0709 13.0638L33.073 13.0657C33.3763 13.3543 33.532 13.7254 33.532 14.1539C33.532 14.7604 33.246 15.263 32.7259 15.6276C32.213 15.9925 31.5672 16.1518 30.8325 16.1518C30.0869 16.1518 29.4355 15.9848 28.8968 15.6152C28.3978 15.2729 28.0689 14.8242 28.0363 14.267H27.574C27.5779 14.6216 27.6929 14.9384 27.9366 15.2359L27.9378 15.2373L27.9389 15.2387C28.185 15.5442 28.5567 15.8092 29.071 16.0139C29.5769 16.2154 30.1696 16.3233 30.8609 16.3184L30.8624 16.3183H30.8639C31.8972 16.3183 32.6769 16.091 33.2454 15.6702L33.2463 15.6696L33.2472 15.6689C33.8008 15.2635 34.065 14.7387 34.065 14.0597C34.065 13.572 33.9258 13.2156 33.677 12.9553L33.6747 12.953L33.6725 12.9506C33.3832 12.6387 33.0344 12.402 32.6196 12.236C32.1684 12.0556 31.5722 11.8614 30.8249 11.6486C29.9939 11.4157 29.3505 11.1792 28.9106 10.927C28.6624 10.7846 28.4564 10.5986 28.3142 10.3609C28.1713 10.1221 28.1069 9.85482 28.1069 9.57276C28.1069 8.96332 28.3965 8.47475 28.9145 8.14511C29.4082 7.83094 30.0309 7.69007 30.7487 7.69007C31.5208 7.69007 32.1855 7.84742 32.7037 8.1993C33.166 8.51322 33.4597 8.9295 33.5166 9.44399H33.9563C33.9242 9.12514 33.8079 8.83563 33.6037 8.56252C33.3533 8.2398 32.9958 7.96942 32.5024 7.76929C32.007 7.56833 31.43 7.46069 30.7592 7.46069ZM27.9229 7.39642C28.6668 6.85074 29.6288 6.59583 30.7592 6.59583C31.5229 6.59583 32.213 6.71855 32.8275 6.96786C33.4428 7.21746 33.9329 7.57447 34.2898 8.03597L34.2917 8.0385L34.2936 8.04105C34.6459 8.51077 34.8304 9.04091 34.8304 9.63035V9.68795C34.8304 9.81744 34.7976 9.99633 34.6528 10.1382C34.5097 10.2784 34.3319 10.3089 34.2042 10.3089H33.288C33.1603 10.3089 32.9826 10.2784 32.8395 10.1382C32.6946 9.99633 32.6619 9.81744 32.6619 9.68795V9.63035C32.6619 9.37284 32.5491 9.13974 32.2179 8.91481C31.8879 8.69078 31.4113 8.55493 30.7487 8.55493C30.1367 8.55493 29.6914 8.67584 29.3788 8.87476C29.0905 9.05821 28.9718 9.28168 28.9718 9.57276C28.9718 9.72003 29.0042 9.82967 29.0563 9.91682C29.1091 10.005 29.1964 10.0939 29.3408 10.1767C29.6861 10.3746 30.2466 10.5883 31.0592 10.8161L31.06 10.8163L31.0609 10.8165C31.821 11.033 32.4497 11.2366 32.9408 11.433C33.4673 11.6437 33.9241 11.9507 34.3044 12.3601C34.7347 12.8115 34.9299 13.3967 34.9299 14.0597C34.9299 15.0138 34.5347 15.7977 33.7591 16.366C32.9982 16.9288 32.0195 17.183 30.8654 17.1832C30.0809 17.1886 29.3756 17.0661 28.7511 16.8175C28.1351 16.5722 27.6276 16.2303 27.2665 15.7826C26.8975 15.3317 26.709 14.8173 26.709 14.2482V14.023C26.709 13.8935 26.7417 13.7147 26.8866 13.5728C27.0297 13.4325 27.2074 13.4021 27.3351 13.4021H28.2723C28.4 13.4021 28.5777 13.4325 28.7209 13.5728C28.8657 13.7146 28.8985 13.8935 28.8985 14.023V14.1749C28.8985 14.4019 29.0117 14.6452 29.386 14.902C29.7479 15.1503 30.2169 15.2869 30.8325 15.2869C31.4479 15.2869 31.9011 15.1534 32.2256 14.9222L32.227 14.9211L32.2285 14.9201C32.5452 14.6984 32.6671 14.4474 32.6671 14.1539C32.6671 13.9552 32.6035 13.8136 32.4788 13.6942C32.308 13.5364 32.0995 13.4074 31.8524 13.3103C31.5804 13.2035 31.1487 13.0673 30.5371 12.8895C29.7987 12.6875 29.1782 12.4778 28.6897 12.2692C28.161 12.0459 27.7159 11.7261 27.3536 11.3223C26.9508 10.8732 26.7666 10.3087 26.7666 9.667C26.7666 8.72834 27.1568 7.95444 27.9229 7.39642Z" fill="#F09700"/>
<path d="M48.3561 7.84499C48.9216 8.41044 49.2043 9.18007 49.2043 10.1644V16.4733C49.2043 16.5989 49.1415 16.6617 49.0106 16.6617H48.0315C47.9006 16.6617 47.8378 16.5989 47.8378 16.4733V10.4261C47.8378 9.73504 47.6336 9.18531 47.22 8.77693C46.8116 8.36855 46.2724 8.16436 45.6074 8.16436C44.9163 8.16436 44.3614 8.36332 43.9373 8.76646C43.5132 9.1696 43.3038 9.70887 43.3038 10.3843V16.468C43.3038 16.5937 43.2409 16.6565 43.1101 16.6565H42.1153C41.9844 16.6565 41.9216 16.5937 41.9216 16.468V10.4261C41.9216 9.73504 41.7174 9.18531 41.3142 8.77693C40.9111 8.36855 40.3718 8.16436 39.6912 8.16436C39.0001 8.16436 38.4504 8.36332 38.042 8.76646C37.6336 9.1696 37.4242 9.70887 37.4242 10.3843V16.468C37.4242 16.5937 37.3614 16.6565 37.2305 16.6565H36.2357C36.1048 16.6565 36.042 16.5937 36.042 16.468V7.3162C36.042 7.19054 36.1048 7.12772 36.2357 7.12772H37.2305C37.3614 7.12772 37.4242 7.19054 37.4242 7.3162V8.07012C37.4242 8.0963 37.4347 8.11201 37.4556 8.11724C37.4765 8.12248 37.4975 8.11201 37.5237 8.09107C37.8116 7.72457 38.1781 7.45232 38.6284 7.26908C39.0786 7.08583 39.576 6.99683 40.1258 6.99683C40.8012 6.99683 41.3823 7.12772 41.864 7.39473C42.3457 7.65651 42.7121 8.04395 42.9582 8.54133C42.9844 8.60415 43.0158 8.60415 43.0577 8.54133C43.3457 8.02824 43.7488 7.64081 44.2671 7.38426C44.7907 7.12772 45.3823 6.99683 46.0472 6.99683C47.0158 6.99683 47.7907 7.27955 48.3561 7.84499Z" fill="#F09700"/>
<path fill-rule="evenodd" clip-rule="evenodd" d="M40.1256 7.4292C39.6231 7.4292 39.1823 7.51038 38.7912 7.66955C38.427 7.81778 38.1345 8.03023 37.9012 8.3115C38.3845 7.91413 38.9934 7.73187 39.691 7.73187C40.4647 7.73187 41.1228 7.96757 41.6218 8.47307C42.1199 8.97761 42.3538 9.64463 42.3538 10.4261V16.224H42.8712V10.3842C42.8712 9.8499 42.9877 9.36927 43.2331 8.95876C43.1764 8.99125 43.0985 9.02082 43.0019 9.02082C42.8385 9.02082 42.7236 8.93746 42.6616 8.87061C42.6126 8.81769 42.5831 8.76229 42.566 8.72402C42.3581 8.30808 42.055 7.99076 41.6573 7.77462L41.6557 7.77375L41.6541 7.77288C41.2508 7.54931 40.7458 7.4292 40.1256 7.4292ZM43.6088 8.48229C43.6188 8.47246 43.6289 8.46269 43.6392 8.45298C44.1585 7.95932 44.8276 7.73187 45.6072 7.73187C46.367 7.73187 47.0225 7.96856 47.5246 8.47006C48.036 8.97556 48.27 9.64474 48.27 10.4261V16.2293H48.7717V10.1643C48.7717 9.26734 48.517 8.61756 48.0502 8.15071C47.5831 7.68363 46.9279 7.4292 46.047 7.4292C45.4407 7.4292 44.9156 7.54807 44.4579 7.77216C44.1157 7.94172 43.8335 8.17744 43.6088 8.48229ZM37.7121 8.48461C37.6337 8.52882 37.5063 8.57564 37.3505 8.5367C37.2517 8.51201 37.1455 8.45158 37.0721 8.34136C37.0044 8.2399 36.9916 8.13663 36.9916 8.07006V7.56009H36.4742V16.224H36.9916V10.3842C36.9916 9.62575 37.2262 8.97841 37.7121 8.48461ZM38.4652 6.86848C38.9746 6.66116 39.5285 6.56433 40.1256 6.56433C40.8554 6.56433 41.5122 6.70573 42.0719 7.01559C42.4508 7.22183 42.7688 7.49554 43.0228 7.82791C43.309 7.48085 43.6604 7.20191 44.0751 6.99664L44.0759 6.99626L44.0767 6.99588C44.666 6.70711 45.3238 6.56433 46.047 6.56433C47.1033 6.56433 47.9979 6.87534 48.6617 7.53916C49.3257 8.20319 49.6365 9.09268 49.6365 10.1643V16.4732C49.6365 16.6027 49.6038 16.7816 49.4589 16.9235C49.3158 17.0637 49.1381 17.0941 49.0104 17.0941H48.0313C47.9036 17.0941 47.7259 17.0637 47.5828 16.9235C47.4379 16.7816 47.4052 16.6027 47.4052 16.4732V10.4261C47.4052 9.8257 47.2311 9.39573 46.916 9.08459L46.915 9.08362L46.914 9.08265C46.5995 8.7681 46.1768 8.59674 45.6072 8.59674C45.0047 8.59674 44.5639 8.7672 44.235 9.07981C43.9112 9.38768 43.736 9.80591 43.736 10.3842V16.468C43.736 16.5975 43.7033 16.7763 43.5584 16.9182C43.4153 17.0585 43.2376 17.0889 43.1099 17.0889H42.1151C41.9874 17.0889 41.8097 17.0585 41.6666 16.9182C41.5217 16.7764 41.489 16.5975 41.489 16.468V10.4261C41.489 9.82534 41.3145 9.39288 41.0063 9.08067C40.699 8.76941 40.2786 8.59674 39.691 8.59674C39.0874 8.59674 38.6561 8.7676 38.3456 9.07414C38.0323 9.38345 37.8564 9.80523 37.8564 10.3842V16.468C37.8564 16.5975 37.8237 16.7764 37.6788 16.9182C37.5357 17.0585 37.358 17.0889 37.2303 17.0889H36.2355C36.1078 17.0889 35.9301 17.0585 35.787 16.9182C35.6421 16.7763 35.6094 16.5975 35.6094 16.468V7.31614C35.6094 7.18664 35.6421 7.00776 35.787 6.86587C35.9301 6.72565 36.1078 6.69522 36.2355 6.69522H37.2303C37.358 6.69522 37.5357 6.72565 37.6788 6.86586C37.7838 6.96865 37.8299 7.09084 37.8473 7.19961C38.0368 7.06921 38.2429 6.95897 38.4652 6.86848Z" fill="#F09700"/>
<path d="M52.5182 16.4158C51.9527 16.1906 51.5129 15.887 51.2093 15.51C50.9004 15.133 50.7485 14.7142 50.7485 14.2482V14.0231C50.7485 13.8974 50.8114 13.8346 50.9423 13.8346H51.8847C52.0156 13.8346 52.0784 13.8974 52.0784 14.0231V14.1749C52.0784 14.5885 52.3035 14.9498 52.7538 15.2587C53.204 15.5676 53.7642 15.7194 54.4449 15.7194C55.1203 15.7194 55.67 15.5728 56.0889 15.2744C56.5077 14.9812 56.7119 14.6042 56.7119 14.154C56.7119 13.8398 56.6019 13.5833 56.3873 13.3791C56.1726 13.1802 55.9161 13.0231 55.6229 12.9079C55.3297 12.7927 54.8794 12.6514 54.2669 12.4733C53.5391 12.2744 52.937 12.0702 52.471 11.8713C51.9998 11.6723 51.6072 11.3896 51.2878 11.0336C50.9684 10.6775 50.8114 10.222 50.8114 9.66706C50.8114 8.86602 51.136 8.22204 51.7904 7.7456C52.4396 7.26916 53.3035 7.02832 54.3716 7.02832C55.0888 7.02832 55.7224 7.1435 56.2773 7.36863C56.8323 7.59377 57.2564 7.9079 57.5601 8.30057C57.8585 8.69848 58.0103 9.13827 58.0103 9.63041V9.68801C58.0103 9.81366 57.9475 9.87649 57.8166 9.87649H56.9004C56.7695 9.87649 56.7066 9.81366 56.7066 9.68801V9.63041C56.7066 9.20109 56.4972 8.84507 56.0731 8.55712C55.6491 8.26916 55.0784 8.12256 54.3611 8.12256C53.6962 8.12256 53.1621 8.25345 52.759 8.51C52.3559 8.76654 52.1517 9.12256 52.1517 9.57282C52.1517 10.0021 52.3454 10.3267 52.7381 10.5519C53.1307 10.777 53.7328 11.0021 54.5548 11.2325C55.3087 11.4472 55.9213 11.6461 56.3925 11.8346C56.8637 12.0231 57.2669 12.2953 57.6019 12.6566C57.9422 13.0126 58.1098 13.4838 58.1098 14.0597C58.1098 14.8765 57.7799 15.5309 57.115 16.0178C56.4501 16.51 55.5705 16.7508 54.4763 16.7508C53.7328 16.7561 53.0836 16.6409 52.5182 16.4158Z" fill="#F09700"/>
<path fill-rule="evenodd" clip-rule="evenodd" d="M54.3719 7.46069C53.3665 7.46069 52.601 7.6873 52.0466 8.09416L52.0459 8.09465L52.0452 8.09514C51.5029 8.48996 51.2441 9.00384 51.2441 9.667C51.2441 10.1353 51.3741 10.4817 51.61 10.7447C51.8862 11.0527 52.2262 11.2983 52.6396 11.4728L52.6404 11.4731L52.6412 11.4735C53.0837 11.6624 53.6659 11.8606 54.3812 12.0562L54.3845 12.0571L54.3878 12.058C54.9996 12.2358 55.4675 12.3821 55.7813 12.5054C56.1195 12.6382 56.4234 12.8227 56.6815 13.0619L56.6836 13.0638L56.6856 13.0657C56.989 13.3543 57.1446 13.7254 57.1446 14.1539C57.1446 14.7604 56.8587 15.263 56.3386 15.6276C55.8256 15.9925 55.1799 16.1518 54.4452 16.1518C53.6995 16.1518 53.0481 15.9848 52.5094 15.6152C52.0105 15.2729 51.6816 14.8242 51.6489 14.267H51.1814C51.1853 14.6216 51.3003 14.9384 51.544 15.2358L51.5452 15.2372L51.5463 15.2387C51.7925 15.5442 52.1642 15.8092 52.6784 16.0139C53.1842 16.2153 53.7768 16.3233 54.4735 16.3183L54.4751 16.3183H54.4766C55.5098 16.3183 56.2895 16.091 56.8581 15.6702L56.859 15.6695L56.8598 15.6689C57.4135 15.2635 57.6777 14.7387 57.6777 14.0597C57.6777 13.572 57.5385 13.2156 57.2896 12.9553L57.2874 12.953L57.2852 12.9506C56.9959 12.6387 56.647 12.402 56.2322 12.236C55.7811 12.0556 55.1849 11.8614 54.4375 11.6486C53.6066 11.4157 52.9632 11.1792 52.5233 10.927C52.275 10.7846 52.0691 10.5986 51.9269 10.3609C51.784 10.1221 51.7195 9.85482 51.7195 9.57276C51.7195 8.96332 52.0091 8.47475 52.5271 8.14511C53.0208 7.83094 53.6436 7.69007 54.3614 7.69007C55.1334 7.69007 55.7981 7.84742 56.3164 8.1993C56.7787 8.51321 57.0724 8.92949 57.1293 9.44399H57.569C57.5369 9.12513 57.4205 8.83563 57.2163 8.56252C56.966 8.23979 56.6084 7.96942 56.1151 7.76929C55.6197 7.56833 55.0427 7.46069 54.3719 7.46069ZM51.5355 7.39642C52.2795 6.85074 53.2415 6.59583 54.3719 6.59583C55.1356 6.59583 55.8256 6.71855 56.4402 6.96786C57.0555 7.21746 57.5455 7.57447 57.9024 8.03597L57.9044 8.0385L57.9063 8.04105C58.2586 8.51077 58.4431 9.04091 58.4431 9.63035V9.68794C58.4431 9.81743 58.4103 9.99632 58.2655 10.1382C58.1223 10.2784 57.9446 10.3089 57.8169 10.3089H56.9007C56.773 10.3089 56.5953 10.2784 56.4521 10.1382C56.3073 9.99633 56.2745 9.81745 56.2745 9.68794V9.63035C56.2745 9.37284 56.1618 9.13974 55.8305 8.91481C55.5006 8.69077 55.0239 8.55493 54.3614 8.55493C53.7494 8.55493 53.3041 8.67584 52.9915 8.87476C52.7032 9.05821 52.5844 9.28168 52.5844 9.57276C52.5844 9.72002 52.6168 9.82966 52.669 9.91681C52.7218 10.005 52.809 10.0939 52.9535 10.1767C53.2987 10.3746 53.8592 10.5883 54.6718 10.8161L54.6727 10.8163L54.6735 10.8165C55.4337 11.033 56.0623 11.2366 56.5534 11.433C57.08 11.6437 57.5367 11.9507 57.9171 12.3601C58.3473 12.8115 58.5425 13.3967 58.5425 14.0597C58.5425 15.0138 58.1473 15.7977 57.3717 16.366C56.6109 16.9288 55.6322 17.183 54.4781 17.1832C53.6886 17.1886 52.9832 17.0662 52.3585 16.8175C51.7425 16.5722 51.2351 16.2303 50.8739 15.7826C50.5049 15.3317 50.3164 14.8173 50.3164 14.2482V14.023C50.3164 13.8935 50.3492 13.7146 50.494 13.5727C50.6371 13.4325 50.8149 13.4021 50.9426 13.4021H51.885C52.0127 13.4021 52.1904 13.4325 52.3335 13.5727C52.4784 13.7146 52.5111 13.8935 52.5111 14.023V14.1749C52.5111 14.4019 52.6244 14.6452 52.9987 14.902C53.3605 15.1503 53.8296 15.2869 54.4452 15.2869C55.0605 15.2869 55.5137 15.1534 55.8382 14.9221L55.8397 14.9211L55.8412 14.9201C56.1579 14.6984 56.2798 14.4474 56.2798 14.1539C56.2798 13.9552 56.2161 13.8136 56.0915 13.6942C55.9206 13.5364 55.7122 13.4074 55.4651 13.3103C55.193 13.2034 54.7614 13.0673 54.1498 12.8895C53.4114 12.6875 52.7909 12.4777 52.3023 12.2692C51.7736 12.0459 51.3285 11.7261 50.9662 11.3223C50.5634 10.8732 50.3792 10.3087 50.3792 9.667C50.3792 8.72834 50.7694 7.95444 51.5355 7.39642Z" fill="#F09700"/>
<path d="M22.2776 10.8972H11.5289L5.98438 0.625H16.7331L22.2776 10.8972Z" fill="#EFAD00"/>
<path d="M5.98438 20.6248H16.7331L22.2776 10.8971H11.5289L5.98438 20.6248Z" fill="#CC4309"/>
<path d="M11.5864 10.9025L5.95288 0.625L0 10.6041L5.97382 20.625L11.5864 10.9025Z" fill="#E86B02"/>
<path fill-rule="evenodd" clip-rule="evenodd" d="M5.94824 8.30538C5.94824 7.08272 6.93953 6.09143 8.16219 6.09143H14.7067C15.9334 6.09143 16.9094 7.08442 16.9258 8.28912L16.9259 8.29463V12.3525C16.9259 13.5752 15.9346 14.5665 14.7119 14.5665H11.745L9.36789 16.3359L9.33328 16.3567C8.98679 16.5646 8.55572 16.5281 8.25079 16.291C7.98554 16.0846 7.86736 15.7756 7.87848 15.4844L7.82734 14.5413C6.76355 14.3799 5.94824 13.4613 5.94824 12.3525V8.30538ZM8.16219 7.71305C7.83512 7.71305 7.56986 7.97831 7.56986 8.30538V12.3525C7.56986 12.6796 7.83512 12.9448 8.16219 12.9448H9.36479L9.43628 14.2634L11.2077 12.9448H14.7119C15.039 12.9448 15.3043 12.6796 15.3043 12.3525V8.30679C15.2974 7.9743 15.0283 7.71305 14.7067 7.71305H8.16219Z" fill="white"/>
</svg>
