<svg width="79" height="21" viewBox="0 0 79 21" fill="none" xmlns="http://www.w3.org/2000/svg">
<path d="M22.283 10.8973H11.5343L5.98975 0.625H16.7384L22.283 10.8973Z" fill="#00A7B3"/>
<path d="M5.98975 20.6252H16.7384L22.283 10.8975H11.5343L5.98975 20.6252Z" fill="#008187"/>
<path d="M11.5918 10.9025L5.95825 0.625L0.00537109 10.6041L5.97919 20.625L11.5918 10.9025Z" fill="#059A9F"/>
<path d="M13.1991 9.91815H11.021C10.8064 9.91815 10.6388 10.0909 10.6388 10.3003V10.782H9.35612V10.3003C9.35612 9.37888 10.0996 8.63543 11.021 8.63543H13.1991V6.71396C13.1991 6.35794 12.9111 6.07522 12.5603 6.07522H7.43465C7.07863 6.07522 6.79591 6.36318 6.79591 6.71396V11.8396C6.79591 12.1956 7.08387 12.4784 7.43465 12.4784H9.35612V11.4208H10.6388V12.4784H12.5603C12.9163 12.4784 13.1991 12.1904 13.1991 11.8396V9.91815ZM14.4818 9.91815V11.8396C14.4818 12.9024 13.6231 13.7611 12.5603 13.7611H10.6388V15.3003C10.6388 15.515 10.8116 15.6825 11.021 15.6825H12.6231V16.9653H11.021C10.0996 16.9653 9.35612 16.2218 9.35612 15.3003V13.7663H7.43465C6.37182 13.7663 5.51318 12.9077 5.51318 11.8449V6.7192C5.51318 5.65637 6.37182 4.79773 7.43465 4.79773H12.5603C13.6231 4.79773 14.4818 5.65637 14.4818 6.7192V8.64066H16.021V9.92339H14.4818V9.91815ZM17.686 12.5778V15.3056C17.686 16.2271 16.9425 16.9705 16.021 16.9705H13.2671V15.6878H16.021C16.2357 15.6878 16.4032 15.515 16.4032 15.3056V12.5778H17.686ZM16.021 8.64066C16.9425 8.64066 17.686 9.38412 17.686 10.3056V11.9391H16.4032V10.3056C16.4032 10.0909 16.2305 9.92339 16.021 9.92339V8.64066Z" fill="white"/>
<path d="M35.3825 10.6511C35.3825 11.6197 35.283 12.4678 35.0265 13.1799C34.4715 14.8396 33.2254 15.871 31.2883 15.871C30.3773 15.871 29.5657 15.515 28.9951 14.8448C28.9375 14.7872 28.8746 14.8239 28.8746 14.9024V15.4155C28.8746 15.5935 28.7542 15.7139 28.5762 15.7139H27.2726C27.0945 15.7139 26.9741 15.5935 26.9741 15.4155V2.1694C26.9741 1.99139 27.0945 1.87097 27.2726 1.87097H28.5762C28.7542 1.87097 28.8746 1.99139 28.8746 2.1694V6.45736C28.8746 6.53589 28.9322 6.55684 28.9951 6.49924C29.571 5.84479 30.3773 5.48877 31.2883 5.48877C33.283 5.48877 34.55 6.55684 35.0841 8.25841C35.304 8.94951 35.3825 9.76102 35.3825 10.6511ZM33.4872 10.6877C33.4872 9.52019 33.2516 8.69296 32.8537 8.0804C32.4558 7.46783 31.8642 7.13275 31.0945 7.13275C30.3458 7.13275 29.7909 7.48877 29.4139 8.14322C29.0788 8.73485 28.9008 9.54636 28.9008 10.672C28.9008 11.761 29.0579 12.5882 29.3773 13.1642C29.7542 13.8343 30.3249 14.2322 31.0998 14.2322C31.9689 14.2322 32.6233 13.8553 32.9951 13.1432C33.3092 12.5464 33.4872 11.7558 33.4872 10.6877Z" fill="#008187"/>
<path d="M42.8746 5.64575H44.1574C44.3354 5.64575 44.4558 5.76617 44.4558 5.94418V15.4154C44.4558 15.5934 44.3354 15.7138 44.1574 15.7138H42.8746C42.6966 15.7138 42.5762 15.5934 42.5762 15.4154V14.8238C42.5762 14.7452 42.5186 14.7243 42.4558 14.7819C41.9427 15.473 41.1521 15.8499 40.0422 15.8499C38.1626 15.8499 36.4453 14.7609 36.4453 12.5882V5.94418C36.4453 5.76617 36.5657 5.64575 36.7437 5.64575H38.0265C38.2045 5.64575 38.3249 5.76617 38.3249 5.94418V11.9913C38.3249 13.3369 39.0736 14.206 40.3982 14.206C41.7228 14.206 42.571 13.3369 42.571 11.9913V5.94418C42.5814 5.76617 42.6966 5.64575 42.8746 5.64575Z" fill="#008187"/>
<path d="M45.8433 2.90257C45.8433 2.16958 46.3773 1.65649 47.1469 1.65649C47.9166 1.65649 48.4297 2.16958 48.4297 2.90257C48.4297 3.63555 47.9166 4.14864 47.1469 4.14864C46.3773 4.1434 45.8433 3.63032 45.8433 2.90257ZM46.1993 15.4157V5.94445C46.1993 5.76644 46.3197 5.64602 46.4977 5.64602H47.8014C47.9794 5.64602 48.0998 5.76644 48.0998 5.94445V15.4157C48.0998 15.5937 47.9794 15.7141 47.8014 15.7141H46.4977C46.3145 15.7088 46.1993 15.5937 46.1993 15.4157Z" fill="#008187"/>
<path d="M49.8325 15.4155V2.1694C49.8325 1.99139 49.9529 1.87097 50.1309 1.87097H51.4346C51.6126 1.87097 51.733 1.99139 51.733 2.1694V15.4155C51.733 15.5935 51.6126 15.7139 51.4346 15.7139H50.1309C49.9529 15.7087 49.8325 15.5935 49.8325 15.4155Z" fill="#008187"/>
<path d="M59.7594 1.87097H61.0631C61.2411 1.87097 61.3615 1.99139 61.3615 2.1694V15.4155C61.3615 15.5935 61.2411 15.7139 61.0631 15.7139H59.7594C59.5814 15.7139 59.461 15.5935 59.461 15.4155V14.9024C59.461 14.8239 59.4034 14.782 59.3406 14.8448C58.7646 15.515 57.9584 15.871 57.0474 15.871C55.1102 15.871 53.8641 14.8448 53.3091 13.1799C53.0526 12.4678 52.9531 11.6197 52.9531 10.6511C52.9531 9.76102 53.0317 8.94951 53.2516 8.25841C53.7856 6.55684 55.0526 5.48877 57.0474 5.48877C57.9584 5.48877 58.7699 5.84479 59.3406 6.49924C59.3981 6.55684 59.461 6.54113 59.461 6.45736V2.1694C59.461 1.99139 59.5814 1.87097 59.7594 1.87097ZM59.44 10.672C59.44 9.54636 59.262 8.73485 58.9269 8.14322C58.55 7.48877 58.0002 7.13275 57.2463 7.13275C56.4767 7.13275 55.8798 7.46783 55.4872 8.0804C55.0892 8.69296 54.8536 9.52542 54.8536 10.6877C54.8536 11.7558 55.0317 12.5464 55.3458 13.138C55.7228 13.85 56.372 14.227 57.2411 14.227C58.0107 14.227 58.5866 13.8291 58.9636 13.1589C59.283 12.5882 59.44 11.7558 59.44 10.672Z" fill="#008187"/>
<path d="M69.4872 13.0018C69.5867 12.8238 69.7071 12.7662 69.8851 12.8814L70.6966 13.3736C70.8537 13.473 70.8956 13.6092 70.8171 13.7872C70.126 15.0332 68.8223 15.8605 67.0213 15.8605C65.126 15.8605 63.838 14.9704 63.1835 13.4469C62.8694 12.6772 62.6914 11.7086 62.6914 10.6196C62.6914 9.70864 62.7333 9.03848 62.9113 8.42592C63.3877 6.62487 64.8694 5.47827 66.927 5.47827C69.5186 5.47827 70.7019 6.9233 71.0788 9.29503C71.1574 9.82906 71.1993 10.3997 71.215 11.0751C71.215 11.2741 71.0946 11.3736 70.9165 11.3736H64.6705C64.6129 11.3736 64.571 11.4154 64.571 11.473C64.5919 11.9495 64.6286 12.3055 64.7071 12.5411C64.9846 13.5673 65.8956 14.2427 67.1993 14.2427C68.2778 14.227 69.0527 13.7715 69.4872 13.0018ZM64.7595 8.69293C64.66 8.99136 64.6024 9.36309 64.5815 9.79764C64.5815 9.85524 64.6233 9.89712 64.6809 9.89712H69.1679C69.2254 9.89712 69.2673 9.85524 69.2673 9.79764C69.2464 9.39974 69.2097 9.04895 69.1469 8.82906C68.8904 7.81859 68.0998 7.12749 66.9113 7.12749C65.7281 7.13272 65.016 7.76099 64.7595 8.69293Z" fill="#008187"/>
<path d="M77.885 5.76654C78.0421 5.84507 78.0839 5.98643 78.0421 6.1435L77.7646 7.42623C77.7227 7.64612 77.6075 7.66183 77.4086 7.60424C77.1729 7.5257 76.8169 7.48382 76.44 7.5257C75.2358 7.56759 74.3038 8.41575 74.3038 9.74036V15.4158C74.3038 15.5938 74.1834 15.7142 74.0054 15.7142H72.7017C72.5237 15.7142 72.4033 15.5938 72.4033 15.4158V5.94455C72.4033 5.76654 72.5237 5.64612 72.7017 5.64612H74.0054C74.1834 5.64612 74.3038 5.76654 74.3038 5.94455V6.85554C74.3038 6.95502 74.3614 6.97596 74.4033 6.89743C74.9373 6.08591 75.7279 5.55188 76.8169 5.55188C77.2934 5.55188 77.6284 5.64612 77.885 5.76654Z" fill="#008187"/>
</svg>
