<svg width="622" height="445" viewBox="0 0 622 445" fill="none" xmlns="http://www.w3.org/2000/svg">
<path d="M615.34 444.001H393.099C392.91 444.001 392.72 443.811 392.72 443.62C392.72 443.429 392.91 443.238 393.099 443.238H615.34C615.53 443.238 615.72 443.429 615.72 443.62C615.72 443.811 615.625 444.001 615.34 444.001Z" fill="#0A3F64"/>
<g clip-path="url(#clip0)">
<path d="M122.275 114.966L123.326 97.3208H142.407L148.096 117.951L122.275 114.966Z" fill="white"/>
<path d="M60.656 360.423L46.4766 400.103H65.3825L83.8507 358.93L60.656 360.423Z" fill="white"/>
<path d="M65.6458 400.456H45.9521L60.3942 359.985L84.5517 358.493L65.6458 400.456ZM47.09 399.666H65.1206L83.2388 359.371L60.9193 360.775L47.09 399.666Z" fill="#0A3F64" stroke="#0A3F64"/>
<path d="M135.055 362.971V401.774H152.473L156.149 361.391L135.055 362.971Z" fill="white"/>
<path d="M152.823 402.211H134.617V362.618L156.499 360.95L152.823 402.211ZM135.492 401.421H152.123L155.711 361.828L135.492 363.408V401.421Z" fill="#0A3F64" stroke="#0A3F64"/>
<path d="M151.51 204.861L140.919 212.499L105.821 364.813H55.1426C55.1426 364.813 94.0923 231.461 101.445 201.876C108.797 172.291 116.412 172.379 116.412 172.379L162.276 172.818C162.276 172.818 171.204 177.646 175.318 200.472C179.431 223.297 177.681 365.34 177.681 365.34H132.079L139.694 210.48L151.51 204.861Z" fill="#EE7802"/>
<path d="M109.322 182.297L142.67 208.722L123.151 231.723L90.416 205.386L109.322 182.297Z" fill="white"/>
<path d="M123.239 232.253L89.8906 205.389L109.234 181.774L143.282 208.637L123.239 232.253ZM91.0285 205.302L123.151 231.112L142.144 208.725L109.409 182.915L91.0285 205.302Z" fill="#0A3F64" stroke="#0A3F64"/>
<path d="M115.274 196.082C112.735 206.266 111.16 212.236 111.423 213.816C111.773 216.098 115.799 223.473 115.799 225.316C115.799 226.37 111.335 222.595 111.16 222.507L110.372 224.351C110.372 224.351 109.147 225.053 108.272 224.438C107.571 223.912 107.484 222.595 106.784 222.244C106.696 222.244 105.208 222.068 104.77 221.805C104.158 221.453 104.07 220.137 103.633 219.61C103.37 219.259 102.057 219.434 101.619 218.908C100.919 218.117 101.532 216.976 101.007 216.449C100.569 215.923 99.4313 216.537 98.6435 215.572C97.8558 214.606 103.282 209.953 103.545 208.724C104.42 204.159 100.919 167.112 106.083 159.737C111.247 152.363 119.387 179.49 115.274 196.082Z" fill="white"/>
<path d="M115.624 225.929C115.099 225.929 114.048 225.314 111.422 223.208L111.335 223.12L110.722 224.612L110.635 224.7C110.547 224.7 109.147 225.578 108.096 224.788C107.659 224.437 107.484 223.998 107.309 223.559C107.134 223.208 106.959 222.856 106.784 222.681C106.696 222.681 106.696 222.681 106.608 222.681C105.908 222.593 105.12 222.505 104.77 222.242C104.245 221.978 104.07 221.276 103.808 220.662C103.72 220.398 103.633 220.047 103.457 219.872C103.37 219.872 103.107 219.784 102.845 219.784C102.32 219.696 101.794 219.608 101.444 219.257C100.919 218.73 100.919 218.028 101.007 217.501C101.007 217.15 101.007 216.887 100.919 216.711C100.832 216.623 100.657 216.623 100.306 216.536C99.7813 216.536 99.0811 216.448 98.5559 215.745C97.9433 214.955 99.0811 213.638 101.182 211.268C102.145 210.215 103.282 208.986 103.37 208.547C103.633 207.23 103.457 202.753 103.282 197.222C102.845 184.229 102.232 164.652 105.908 159.472C107.046 157.804 108.271 157.892 109.059 158.331C111.51 159.472 114.048 165.179 115.624 172.904C117.287 181.332 117.374 189.848 115.711 196.256C115.449 197.31 115.186 198.363 114.924 199.329C112.91 207.23 111.598 212.497 111.86 213.814C112.035 214.78 112.998 217.062 113.961 219.169C115.099 221.803 116.236 224.261 116.236 225.314C116.236 225.578 116.149 225.753 115.886 225.841C115.799 225.929 115.711 225.929 115.624 225.929ZM110.897 221.978L111.247 222.154C111.335 222.154 111.422 222.242 111.773 222.593C113.873 224.261 114.836 224.876 115.274 225.051C115.099 223.998 114.048 221.627 113.085 219.52C112.035 217.238 111.072 215.043 110.897 213.902C110.635 212.409 111.86 207.669 113.961 199.065C114.223 198.1 114.486 197.046 114.749 195.993L115.099 196.081L114.749 195.993C116.324 189.76 116.236 181.332 114.661 172.992C113.173 165.618 110.722 159.999 108.534 158.946C108.271 158.858 107.396 158.419 106.346 159.824C102.845 164.828 103.457 184.229 103.895 197.134C104.07 203.016 104.245 207.23 103.895 208.634C103.808 209.249 102.932 210.215 101.532 211.795C100.569 212.848 98.9061 214.692 98.9936 215.219C99.3437 215.658 99.6938 215.658 100.131 215.658C100.482 215.658 100.919 215.745 101.269 216.097C101.619 216.448 101.619 216.974 101.619 217.413C101.619 217.852 101.619 218.291 101.882 218.555C102.057 218.73 102.495 218.818 102.845 218.818C103.37 218.906 103.72 218.906 103.983 219.257C104.158 219.52 104.245 219.872 104.42 220.223C104.595 220.662 104.77 221.188 104.945 221.364C105.208 221.54 106.083 221.627 106.521 221.715C106.871 221.715 106.871 221.803 106.959 221.803C107.396 222.066 107.659 222.593 107.921 223.12C108.096 223.471 108.271 223.91 108.534 224.085C108.972 224.437 109.759 224.173 110.022 223.998L110.897 221.978Z" fill="#0A3F64" stroke="#0A3F64"/>
<path d="M133.917 398.085C133.917 398.085 135.492 408.971 134.705 415.731C133.479 426.09 133.917 443.209 133.917 443.209H142.319V430.48L146.521 443.209H172.079V435.396L152.998 417.662L153.873 398.085H133.917Z" fill="#EE7802"/>
<path d="M150.985 435.307C147.572 431.006 140.307 422.929 134.092 423.017L133.305 443.121H142.32V430.391L145.383 439.609L146.521 443.121H173.13V435.307H150.985Z" fill="#0A3F64"/>
<path d="M67.1334 398.611C67.1334 398.611 56.8052 410.375 57.5929 416.169C58.9934 426.44 58.3807 443.647 58.3807 443.647H49.8905V430.918L45.6892 443.647H20.2188V435.834L39.2997 418.188L44.5514 397.997L67.1334 398.611Z" fill="#EE7802"/>
<path d="M58.9929 443.562L58.2052 423.458C51.9907 423.37 44.726 431.359 41.3124 435.749H19.168V443.562H45.7763L47.3518 438.734L49.9776 430.92V443.65H58.9929V443.562Z" fill="#0A3F64"/>
<path d="M131.554 27.3508C131.554 27.3508 144.42 26.9118 151.072 38.1489C152.823 41.1337 152.735 41.6605 151.86 44.9087C151.51 46.3133 153.873 47.8935 153.786 49.8249C153.786 50.8784 153.085 52.3708 153.173 53.512C153.26 55.0923 154.836 55.7946 155.011 57.3748C155.186 58.4282 153.611 59.3939 153.873 60.3596C154.048 61.4131 156.061 62.1154 156.324 63.1689C156.674 64.4857 155.711 65.4514 155.711 66.6805C155.711 68.1729 156.849 68.524 158.337 69.4897C159.387 70.1043 158.337 73.528 158.95 74.1426C159.475 74.6693 161.138 75.7228 161.401 76.2495C161.926 77.6541 160.788 78.7076 160.963 79.4099C161.225 80.5512 163.501 80.9902 163.851 82.0436C164.201 83.0971 163.326 84.6773 163.064 85.9064C162.889 86.9598 164.814 87.9255 164.902 88.7156C165.164 90.9104 164.464 92.315 164.376 93.1051C164.289 94.0708 166.74 96.0021 166.74 97.2312C165.689 123.392 96.4553 118.388 97.243 100.04C97.3305 98.8992 99.6938 98.1969 98.9935 96.7923C98.4684 95.8266 97.9432 95.1243 97.5931 94.0708C97.1555 92.9295 99.6062 91.876 100.131 90.7348C100.919 89.0668 97.7682 88.1011 98.6434 84.8529C99.3437 82.3948 101.794 82.8337 101.532 80.9024C101.357 79.3222 99.6938 77.2152 99.9563 75.8984C100.832 71.86 104.333 71.5089 103.107 70.2798C101.794 68.963 100.832 68.3485 101.444 65.5392C101.707 64.3101 103.457 61.6765 103.457 61.6765C103.282 59.5695 101.007 58.3405 101.794 54.9167C102.932 50.0882 104.595 53.6876 104.158 46.3133C103.983 44.9965 106.346 24.1026 131.554 27.3508Z" fill="#0A3F64"/>
<path d="M120.35 67.1177C120.35 67.1177 121.226 89.5918 120.438 90.8208C117.55 94.8591 108.797 98.4585 106.871 98.9853C104.858 99.512 139.256 112.68 139.256 112.68L155.711 104.604L149.322 98.8097C149.322 98.8097 143.983 96.0882 141.62 93.7179C139.256 91.2598 138.118 68.4345 138.118 68.4345L120.35 67.1177Z" fill="white"/>
<path d="M139.168 113.035L138.993 112.947C138.906 112.947 130.765 109.787 122.713 106.538C106.17 99.9542 106.258 99.3397 106.258 98.9008C106.258 98.7252 106.345 98.5496 106.608 98.4618C108.884 97.8473 117.199 94.2479 120 90.473C120.525 89.4195 120.175 75.5488 119.825 67.0332V66.5942L138.468 67.8233V68.1745C138.818 74.4953 140.043 91.3509 141.881 93.1945C144.157 95.5648 149.409 98.1984 149.496 98.2862H149.584L156.411 104.431L139.168 113.035ZM107.483 99.0763C110.459 100.832 127.527 107.68 139.168 112.069L155.011 104.256L149.146 98.9008C148.534 98.6374 143.632 96.0915 141.356 93.7212C139.081 91.3509 137.943 72.125 137.768 68.5256L120.787 67.3843C121.05 73.1784 121.575 89.6829 120.787 90.8241C117.899 94.8624 110.197 98.1984 107.483 99.0763Z" fill="#0A3F64" stroke="#0A3F64"/>
<path d="M120.613 70.8066C117.987 69.0508 113.348 65.5393 113.26 62.0277C113.173 58.6039 117.111 58.9551 118.249 59.4818C119.037 59.8329 118.249 42.5384 118.249 42.5384L144.945 41.1338C144.945 41.1338 148.884 55.9702 147.921 65.5393C146.958 75.1083 142.582 77.6542 135.58 77.9176C132.166 78.0932 129.453 77.3031 127.265 76.2496L120.613 70.8066Z" fill="white"/>
<path d="M134.704 78.3554C131.903 78.3554 129.365 77.7409 127.089 76.5996C126.914 76.5119 126.827 76.2485 126.914 76.0729C127.002 75.8973 127.265 75.8095 127.44 75.8973C129.803 77.1264 132.604 77.6531 135.58 77.5653C142.057 77.302 146.521 75.1072 147.483 65.5382C148.359 56.9348 145.12 43.7664 144.595 41.5716L118.599 42.9763C118.687 44.1175 118.774 47.4535 118.862 50.8773C119.037 59.4807 118.774 59.6563 118.424 59.8319C118.249 59.9196 118.162 59.9196 117.987 59.8319C117.286 59.4807 115.448 59.2173 114.398 60.0074C113.785 60.4464 113.523 61.0609 113.523 62.0266C113.61 65.2748 118.074 68.6986 120.7 70.4544C120.875 70.5422 120.963 70.8055 120.788 70.9811C120.7 71.1567 120.437 71.2445 120.262 71.0689C117.461 69.2253 112.823 65.626 112.735 62.0266C112.647 60.5342 113.348 59.7441 113.96 59.3051C115.186 58.4272 117.024 58.6906 117.987 58.954C118.337 57.1982 117.987 48.1559 117.724 42.5373V42.0984L145.12 40.606L145.295 41.0449C145.295 41.2205 149.234 56.1447 148.271 65.626C147.833 70.2788 146.521 73.527 144.245 75.5462C142.232 77.302 139.606 78.1799 135.58 78.3554C135.317 78.3554 135.054 78.3554 134.704 78.3554Z" fill="#0A3F64" stroke="#0A3F64"/>
<path d="M148.009 40.5194C148.009 40.5194 146.171 40.6072 142.845 41.924C142.057 42.1874 141.62 44.6455 140.744 44.9967C139.782 45.4356 138.031 44.2944 136.981 44.8211C135.93 45.3478 135.493 46.7525 134.355 47.367C133.48 47.8059 131.992 47.367 131.116 47.8059C129.716 48.596 129.366 50.264 127.965 51.2297C127.09 51.8443 124.639 51.8443 123.852 52.5466C122.451 53.8634 122.451 56.1459 121.926 56.6727C120.088 58.5163 119.3 57.7262 118.512 59.8331C118.512 59.8331 117.024 59.1308 115.887 59.2186C114.486 59.3064 113.961 59.8331 113.961 59.8331L115.449 39.9927L148.009 40.5194Z" fill="#0A3F64"/>
<path d="M180.656 154.468C180.306 154.732 181.006 155.346 170.591 168.953C164.201 177.381 160.613 182.297 159.125 183.088C155.886 184.843 151.51 187.828 152.122 188.092L168.402 190.637C168.402 190.637 167.09 186.862 167.965 185.897C170.941 182.385 191.51 163.247 194.048 154.644C196.674 146.128 180.656 154.468 180.656 154.468Z" fill="white"/>
<path d="M193.96 151.046C191.072 148.676 181.532 153.504 180.481 154.119H180.394C180.306 154.206 180.219 154.294 180.131 154.47C179.256 156.401 175.93 161.142 170.241 168.604C169.54 169.482 168.928 170.36 168.315 171.15C163.413 177.646 160.087 181.948 158.949 182.65C158.862 182.65 152.385 186.337 151.772 187.742L147.921 187.128C147.746 187.128 147.483 187.215 147.483 187.479C147.483 187.654 147.571 187.918 147.834 187.918L170.153 191.429C170.153 191.429 170.153 191.429 170.241 191.429C170.416 191.429 170.591 191.254 170.591 191.078C170.591 190.902 170.503 190.639 170.241 190.639L168.84 190.376C168.315 188.883 167.877 186.601 168.315 186.074C168.928 185.284 170.503 183.704 172.516 181.685C179.518 174.574 192.472 161.405 194.486 154.645C195.011 153.065 194.836 151.748 193.96 151.046ZM193.698 154.558C191.772 161.142 178.906 174.222 171.904 181.246C169.803 183.353 168.315 184.845 167.702 185.635C166.914 186.513 167.527 188.971 167.877 190.2L152.735 187.83C153.61 186.952 156.586 184.933 159.3 183.44C160.613 182.738 163.588 178.788 168.928 171.764C169.54 170.974 170.153 170.096 170.853 169.218C176.542 161.756 179.869 156.928 180.831 154.909C180.831 154.909 180.831 154.821 180.919 154.821C183.807 153.329 191.422 149.993 193.435 151.748C194.048 152.187 194.135 153.153 193.698 154.558Z" fill="#0A3F64" stroke="#0A3F64"/>
<path d="M165.251 100.391C174.967 108.117 200.7 145.691 200 149.027C196.586 166.146 171.728 185.284 171.728 185.284L161.925 177.383L174.179 153.328L164.026 139.37L162.275 172.905L117.461 173.696L116.586 204.246L101.619 203.105C101.619 203.105 81.8376 116.545 95.6669 102.235C100.306 97.4065 104.507 96.8797 106.783 96.8797C113.61 96.8797 125.076 109.96 153.96 95.4751C157.636 93.7193 162.625 98.2844 165.251 100.391Z" fill="#007E82"/>
<path d="M142.144 58.6924C141.707 58.6924 141.269 58.3413 141.269 57.9023L141.181 57.0244C141.094 56.4977 141.444 56.0588 141.969 55.971C142.494 55.8832 142.932 56.2343 143.019 56.7611L143.107 57.639C143.194 58.1657 142.844 58.6046 142.319 58.6924C142.232 58.6924 142.144 58.6924 142.144 58.6924Z" fill="#0A3F64"/>
<path d="M130.241 59.2198C129.803 59.2198 129.366 58.8686 129.366 58.4297L129.278 57.5518C129.191 57.025 129.541 56.5861 130.066 56.4983C130.591 56.4105 131.029 56.7617 131.116 57.2884L131.204 58.1663C131.291 58.693 130.941 59.132 130.416 59.2198C130.328 59.2198 130.328 59.2198 130.241 59.2198Z" fill="#0A3F64"/>
<path d="M126.302 55.1787C126.127 55.1787 126.04 55.0909 125.952 55.0031C125.864 54.8275 125.864 54.5642 126.04 54.4764C128.49 52.984 131.116 53.5985 131.204 53.5985C131.379 53.6863 131.554 53.8618 131.466 54.1252C131.379 54.3008 131.204 54.4764 130.941 54.3886C130.941 54.3886 128.49 53.7741 126.39 55.1787C126.477 55.1787 126.39 55.1787 126.302 55.1787Z" fill="#0A3F64" stroke="#0A3F64"/>
<path d="M138.73 64.4857C138.468 64.4857 138.205 64.3979 138.03 64.3979C137.855 64.3101 137.768 64.1346 137.768 63.959C137.768 63.6956 137.943 63.6078 138.205 63.6078C138.293 63.6078 138.38 63.6078 138.38 63.6956C138.643 63.6956 139.431 63.6956 139.956 63.2567C140.218 62.9933 140.306 62.6421 140.218 62.1154C140.131 61.5887 139.868 60.8863 139.518 60.0085C139.256 59.4817 139.08 58.8672 138.818 58.1649C138.03 56.0579 137.855 54.9167 138.205 54.2144C138.468 53.6876 138.905 53.512 139.343 53.3365C139.431 53.3365 139.518 53.2487 139.518 53.2487C141.181 52.6341 144.332 53.3365 144.507 53.3365C144.682 53.4242 144.857 53.5998 144.77 53.7754C144.682 53.951 144.507 54.1266 144.332 54.0388C144.332 54.0388 141.269 53.3365 139.868 53.8632C139.781 53.8632 139.693 53.951 139.606 53.951C139.256 54.0388 138.993 54.1266 138.905 54.3899C138.73 54.8289 138.905 55.9701 139.518 57.7259C139.781 58.4282 140.043 59.0428 140.218 59.5695C140.568 60.4474 140.919 61.1497 141.006 61.7642C141.181 62.9055 140.744 63.4322 140.306 63.7834C139.868 64.3979 139.256 64.4857 138.73 64.4857Z" fill="#0A3F64" stroke="#0A3F64"/>
<path d="M107.483 97.4961L115.974 90.2974L134.442 97.0572L128.84 104.256L107.483 97.4961Z" fill="white"/>
<path d="M154.485 96.6182L148.183 90.2974L134.441 97.0572L139.868 103.29L154.485 96.6182Z" fill="white"/>
<path d="M155.186 96.7049L148.184 89.7695L134.355 96.6171L116.061 89.9451L115.886 89.8573L106.608 97.6706L128.928 104.694L134.355 97.6706L139.694 103.816L155.186 96.7049ZM128.665 103.816L108.184 97.3194L115.974 90.7352L133.654 97.2316L128.665 103.816ZM148.096 90.823L153.873 96.5293L140.044 102.85L135.142 97.2316L148.096 90.823Z" fill="#0A3F64" stroke="#0A3F64"/>
<path d="M118.162 171.148C117.987 171.148 117.812 170.972 117.725 170.797L117.024 131.643C117.024 131.379 117.199 131.204 117.375 131.204C117.55 131.204 117.812 131.379 117.812 131.555L118.512 170.709C118.6 170.972 118.425 171.148 118.162 171.148Z" fill="#0A3F64" stroke="#0A3F64"/>
<path d="M142.407 66.5047C142.844 66.9437 140.568 68.9628 138.73 68.9628C134.091 68.9628 132.691 65.7146 133.741 66.1536C134.091 66.3292 136.455 67.3826 138.73 67.2071C141.706 67.0315 141.881 65.978 142.407 66.5047Z" fill="#0A3F64"/>
<path d="M140.569 207.407C140.394 207.407 140.306 207.319 140.219 207.143C140.131 206.968 140.219 206.705 140.394 206.617L151.948 200.91C152.123 200.823 152.385 200.91 152.473 201.086C152.56 201.262 152.473 201.525 152.298 201.613L140.744 207.319C140.657 207.407 140.657 207.407 140.569 207.407Z" fill="#0A3F64" stroke="#0A3F64"/>
<path d="M101.97 353.489H60.4816C60.219 353.489 60.0439 353.313 60.0439 353.05C60.0439 352.786 60.219 352.611 60.4816 352.611H101.97C102.232 352.611 102.407 352.786 102.407 353.05C102.407 353.313 102.232 353.489 101.97 353.489Z" fill="#0A3F64" stroke="#0A3F64"/>
<path d="M172.078 353.489H136.805C136.542 353.489 136.367 353.313 136.367 353.05C136.367 352.786 136.542 352.611 136.805 352.611H172.078C172.341 352.611 172.516 352.786 172.516 353.05C172.516 353.313 172.341 353.489 172.078 353.489Z" fill="#0A3F64" stroke="#0A3F64"/>
<path d="M182.319 444H0.437637C0.175055 444 0 443.824 0 443.561C0 443.298 0.175055 443.122 0.437637 443.122H182.319C182.582 443.122 182.757 443.298 182.757 443.561C182.757 443.824 182.495 444 182.319 444Z" fill="#0A3F64"/>
</g>
<g clip-path="url(#clip1)">
<path d="M279.934 44.5435C279.934 44.5435 280.693 65.6227 278.89 68.0073C276.991 70.3918 267.308 75.8285 267.308 75.8285L300.345 96.8124L320.186 76.3054C320.186 76.3054 309.553 71.6317 308.509 68.8657C307.085 65.0504 307.37 44.5435 307.37 44.5435H279.934Z" fill="white"/>
<path d="M300.439 97.3864L266.548 75.9256L267.117 75.6394C267.212 75.544 276.801 70.2027 278.604 67.9135C279.934 66.1967 279.934 53.1294 279.649 44.7359C279.649 44.5451 279.839 44.3543 280.028 44.3543C280.218 44.3543 280.408 44.5451 280.408 44.7359C280.408 46.7389 281.073 65.8151 279.174 68.295C277.56 70.3934 270.155 74.6856 268.067 75.9256L300.344 96.3372L319.616 76.4025C317.338 75.3533 309.173 71.538 308.319 68.9627C306.895 65.0521 307.18 45.4035 307.18 44.5451C307.18 44.3543 307.369 44.1636 307.559 44.1636C307.749 44.1636 307.939 44.3543 307.939 44.5451C307.939 44.7359 307.654 64.9567 309.078 68.6766C309.838 70.8703 317.622 74.5902 320.47 75.9256L320.945 76.1163L300.439 97.3864Z" fill="#0A3F64" stroke="#0A3F64"/>
<path d="M287.244 2.19381C282.877 2.67072 272.149 3.62453 272.149 11.5412C272.149 20.507 273.668 32.0482 274.523 38.1526C274.902 40.5371 276.896 42.3493 279.364 42.3493H306.421C308.889 42.3493 310.977 40.4417 311.262 37.9618C312.212 29.6636 314.11 12.0181 313.066 9.34741C309.743 0.381565 294.174 1.52614 287.244 2.19381Z" fill="#0A3F64"/>
<path d="M287.623 51.6016C295.313 52.4601 304.901 51.0293 307.559 48.3587C309.078 46.8326 309.742 40.6328 309.932 33.4792C309.932 33.2884 310.027 33.0976 310.217 33.0023C312.116 31.9531 314.869 29.5685 314.774 26.0394C314.679 22.9872 312.401 23.6549 310.692 24.6087C310.407 24.7995 310.027 24.5133 310.027 24.2272C309.932 15.7382 309.363 8.20312 309.363 8.20312H274.997C274.997 8.20312 275.092 15.8336 275.376 24.3226C275.376 24.7041 274.997 24.9902 274.617 24.7995C272.813 23.7503 270.345 22.8918 270.25 26.0394C270.155 30.0454 273.668 32.5254 275.471 33.3838C275.661 33.4792 275.756 33.6699 275.756 33.8607C276.136 39.8697 276.705 45.1157 277.56 46.9279C278.035 47.9771 278.889 48.7402 280.028 49.4078L287.623 51.6016Z" fill="white"/>
<path d="M292.465 52.2708C290.851 52.2708 289.142 52.1754 287.528 51.9846C287.338 51.9846 287.148 51.7939 287.148 51.5077C287.148 51.317 287.338 51.1262 287.623 51.1262C295.313 51.9846 304.711 50.5539 307.179 47.9786C308.034 47.1202 309.173 43.8772 309.458 33.3853C309.458 33.0038 309.648 32.7176 309.932 32.5268C311.262 31.7638 314.394 29.57 314.299 25.9455C314.299 25.0871 314.015 24.5148 313.635 24.2287C313.065 23.9425 312.021 24.1333 310.692 24.801C310.407 24.9917 310.122 24.9917 309.838 24.801C309.553 24.6102 309.363 24.3241 309.363 24.0379C309.268 16.6935 308.888 10.0169 308.793 8.39537H275.377C275.377 10.1122 275.471 16.7889 275.756 24.1333C275.756 24.4194 275.566 24.801 275.377 24.8963C275.092 25.0871 274.807 25.0871 274.522 24.8963C273.098 24.0379 271.959 23.7518 271.389 24.1333C271.01 24.3241 270.725 24.9917 270.725 25.8502C270.63 30.2377 275.282 32.5268 275.756 32.813C276.041 33.0038 276.326 33.2899 276.326 33.6714C276.801 40.6343 277.37 45.0218 278.13 46.5479C278.509 47.4063 279.269 48.2648 280.408 48.8371C280.598 48.9324 280.693 49.2186 280.503 49.4093C280.408 49.6001 280.123 49.6955 279.933 49.5047C278.699 48.7417 277.75 47.8832 277.275 46.834C276.516 45.2126 275.946 40.7296 275.471 33.6714C275.471 33.576 275.471 33.576 275.377 33.4807C272.813 32.2407 269.775 29.4746 269.87 25.8502C269.87 24.6102 270.25 23.8471 270.915 23.4656C271.769 22.9887 273.098 23.2749 274.807 24.2287H274.902C274.902 24.2287 274.902 24.2287 274.902 24.1333C274.617 15.7397 274.522 8.10923 274.522 8.01385V7.63232H309.648V8.01385C309.648 8.10923 310.122 15.549 310.312 24.0379V24.1333H310.407C312.021 23.2749 313.255 23.0841 314.11 23.561C314.774 23.9425 315.154 24.7056 315.154 25.9455C315.249 29.9516 311.831 32.4315 310.407 33.1945C310.312 33.1945 310.312 33.2899 310.312 33.3853C310.122 42.065 309.268 47.0248 307.844 48.4555C305.66 50.8401 299.11 52.2708 292.465 52.2708Z" fill="#0A3F64" stroke="#0A3F64"/>
<path d="M315.724 161.481C297.022 152.515 288.003 169.97 272.149 165.582C271.2 165.296 260.378 163.388 248.796 164.247C236.169 165.105 263.131 132.389 262.086 130.196C260.567 126.857 233.701 125.522 235.03 121.897L245.473 80.0251C245.473 80.0251 268.827 70.8685 271.2 71.3454L293.13 85.8434C292.085 86.4156 301.484 77.6406 314.775 70.9639L337.749 80.0251L351.134 120.085L323.319 127.048C325.882 133.725 328.16 167.49 315.724 161.481Z" fill="#00C2CD"/>
<path d="M331.483 418.343L331.103 428.453H313.73L312.971 417.007L331.483 418.343Z" fill="white"/>
<path d="M331.483 428.834H313.35L312.591 416.53L331.957 417.866L331.483 428.834ZM314.015 428.071H330.723L331.103 418.724L313.445 417.484L314.015 428.071Z" fill="#0A3F64" stroke="#0A3F64"/>
<path d="M332.053 427.69C332.053 427.69 357.21 435.702 358.065 442.379H312.876V427.69H332.053Z" fill="#E2474B"/>
<path d="M359.773 441.425V443.619H311.831V438.277L359.773 441.425Z" fill="#0A3F64"/>
<path d="M258.004 418.343L258.384 428.453H275.757L276.516 417.007L258.004 418.343Z" fill="white"/>
<path d="M276.136 428.833H258.004L257.624 417.96L276.991 416.625L276.136 428.833ZM258.763 428.07H275.377L276.041 417.483L258.383 418.723L258.763 428.07Z" fill="#0A3F64" stroke="#0A3F64"/>
<path d="M301.578 216.039L296.357 220.617L279.838 420.822H252.308V197.249L336.134 199.252L335.09 420.822H310.217L291.705 211.746L301.578 216.039Z" fill="#0A3F64"/>
<path d="M301.294 28.7097C300.724 28.7097 300.345 28.2328 300.345 27.7559V26.9929C300.345 26.4206 300.819 26.0391 301.294 26.0391C301.864 26.0391 302.243 26.516 302.243 26.9929V27.7559C302.243 28.2328 301.864 28.7097 301.294 28.7097Z" fill="#0A3F64"/>
<path d="M285.44 28.7097C284.87 28.7097 284.49 28.3282 284.49 27.7559V26.9929C284.49 26.4206 284.87 26.0391 285.44 26.0391C286.009 26.0391 286.389 26.4206 286.389 26.9929V27.7559C286.389 28.2328 285.914 28.7097 285.44 28.7097Z" fill="#0A3F64"/>
<path d="M282.022 23.0826C281.832 23.0826 281.642 22.9872 281.547 22.7965C281.357 22.5103 281.452 22.2242 281.737 22.1288C284.585 20.412 287.718 21.175 287.813 21.2704C288.097 21.3658 288.287 21.6519 288.192 21.9381C288.097 22.2242 287.813 22.415 287.528 22.3196C287.528 22.3196 284.775 21.5565 282.306 23.0826C282.212 23.0826 282.117 23.0826 282.022 23.0826Z" fill="#0A3F64"/>
<path d="M304.711 23.2731C304.616 23.2731 304.521 23.2731 304.426 23.1777C301.958 21.6516 299.205 22.4147 299.205 22.4147C298.92 22.5101 298.635 22.3193 298.54 22.0332C298.445 21.747 298.635 21.4609 298.92 21.3655C299.015 21.3655 302.148 20.5071 304.996 22.2239C305.281 22.4147 305.281 22.7008 305.186 22.8916C305.091 23.1777 304.901 23.2731 304.711 23.2731Z" fill="#0A3F64"/>
<path d="M244.144 163.293L244.998 199.633L341.546 199.728L341.261 154.995L244.144 163.293Z" fill="#00C2CD"/>
<path d="M254.587 164.819C251.359 164.819 247.846 164.533 244.049 163.865C243.764 163.77 243.574 163.484 243.574 163.198C243.669 162.912 243.859 162.721 244.239 162.721C258.479 165.296 269.111 161.767 271.105 161.099C271.105 154.137 272.339 148.795 272.719 147.174L250.125 139.543C249.84 139.448 249.65 139.162 249.745 138.876C249.84 138.589 250.125 138.399 250.409 138.494L273.953 146.506L273.858 146.983C273.858 147.078 272.149 152.992 272.149 161.481V161.862L271.865 161.958C271.675 162.053 264.934 164.819 254.587 164.819Z" fill="#0A3F64"/>
<path d="M257.434 427.69C257.434 427.69 232.276 435.702 231.422 442.379H276.61V427.69H257.434Z" fill="#E2474B"/>
<path d="M392.62 444.001H170.38C170.19 444.001 170 443.81 170 443.619C170 443.429 170.19 443.238 170.38 443.238H392.62C392.81 443.238 393 443.429 393 443.619C393 443.81 392.905 444.001 392.62 444.001Z" fill="#0A3F64"/>
<path d="M294.364 242.175C294.174 242.175 293.984 241.984 293.984 241.793L291.99 220.523L287.054 219.283L284.016 210.604C283.921 210.413 284.016 210.222 284.206 210.127C284.395 210.031 284.585 210.127 284.68 210.318L287.623 218.616L292.655 219.856L294.743 241.698C294.838 241.984 294.648 242.175 294.364 242.175C294.364 242.175 294.459 242.175 294.364 242.175Z" fill="#0A3F64"/>
<path d="M294.364 242.175C294.174 242.175 293.984 241.984 293.984 241.793L291.99 220.523L287.054 219.283L284.016 210.604C283.921 210.413 284.016 210.222 284.206 210.127C284.395 210.031 284.585 210.127 284.68 210.318L287.623 218.616L292.655 219.856L294.743 241.698C294.838 241.984 294.648 242.175 294.364 242.175ZM294.364 242.175C294.459 242.175 294.364 242.175 294.364 242.175Z" stroke="#0A3F64"/>
<path d="M229.714 441.425V443.619H277.656V438.277L229.714 441.425Z" fill="#0A3F64"/>
<path d="M271.579 161.481L315.818 150.13C315.818 150.13 327.495 144.884 327.59 140.592L323.223 127.048C322.084 127.525 317.812 134.011 313.16 137.349C309.363 140.115 304.901 139.925 304.901 139.925L273.668 144.121L258.573 141.737L262.655 128.288L238.732 118.75C238.732 118.75 232.846 156.426 241.105 163.675C246.517 168.539 271.579 161.481 271.579 161.481Z" fill="white"/>
<path d="M248.32 165.774C244.998 165.774 242.15 165.298 240.726 163.962C232.371 156.618 237.973 120.182 238.162 118.656L238.257 118.179L263.035 128.099L259.048 141.452L273.668 143.741L304.901 139.545C304.901 139.545 309.363 139.64 312.97 137.065C315.818 134.966 318.477 131.819 320.47 129.53C321.894 127.813 322.654 126.954 323.128 126.764L323.508 126.573L328.065 140.594V140.689C327.97 145.172 316.578 150.323 316.008 150.609H315.913L271.674 161.959C270.915 162.055 257.624 165.774 248.32 165.774ZM238.922 119.324C238.257 123.711 233.701 156.809 241.295 163.39C246.612 168.064 271.294 161.196 271.579 161.101L315.818 149.75C319.046 148.32 327.211 143.932 327.305 140.689L323.128 127.717C322.654 128.194 321.894 129.053 321.135 130.006C319.141 132.391 316.388 135.634 313.445 137.732C309.743 140.403 305.376 140.403 304.901 140.403L273.573 144.6L257.909 142.12L261.991 128.671L238.922 119.324Z" fill="#0A3F64" stroke="#0A3F64"/>
<path d="M278.699 137.064C272.908 136.492 273.953 133.154 269.016 132.581C264.08 132.009 262.086 130.197 262.086 130.197L258.479 141.738C258.479 141.738 276.991 148.033 279.364 149.178C281.642 150.322 312.116 161.768 320.755 162.817C341.356 165.297 351.894 159.479 354.077 154.042C357.495 145.744 347.337 117.511 347.337 117.511L322.274 123.52L327.211 140.975C327.211 141.07 284.49 137.637 278.699 137.064Z" fill="white"/>
<path d="M329.964 163.867C327.021 163.867 323.983 163.676 320.755 163.295C312.116 162.245 281.737 150.8 279.269 149.56C276.99 148.415 258.668 142.12 258.478 142.12L258.099 142.025L261.991 129.53L262.466 129.911C262.466 129.911 264.459 131.628 269.206 132.2C271.674 132.486 272.718 133.44 273.763 134.394C274.902 135.443 275.946 136.397 278.794 136.683C284.111 137.256 321.704 140.212 326.736 140.594L321.894 123.234L347.716 117.035L347.811 117.321C348.191 118.465 357.969 145.84 354.552 154.138C353.223 157.286 349.615 160.052 344.489 161.769C340.311 163.199 335.47 163.867 329.964 163.867ZM258.953 141.548C261.611 142.501 277.37 147.843 279.554 148.892C282.022 150.132 312.211 161.482 320.85 162.532C330.059 163.676 338.128 163.104 344.204 161.101C349.045 159.479 352.558 156.904 353.792 153.947C356.925 146.412 348.286 121.231 347.147 117.988L322.844 123.902L327.685 141.548H327.306C326.831 141.548 284.49 138.114 278.794 137.542C275.661 137.256 274.332 136.111 273.288 135.062C272.339 134.203 271.389 133.345 269.111 133.059C265.409 132.582 263.225 131.533 262.371 130.96L258.953 141.548Z" fill="#0A3F64" stroke="#0A3F64"/>
<path d="M293.129 35.7681C293.129 35.7681 293.129 35.6727 293.129 35.7681C292.559 35.6727 290.281 35.1004 289.996 33.7651C289.806 32.8113 289.901 32.5251 291.23 29.0914C291.515 28.3284 291.895 27.4699 292.275 26.3253C292.37 26.1346 292.559 26.0392 292.749 26.1346C292.939 26.23 293.034 26.4207 292.939 26.6115C292.559 27.7561 292.18 28.6145 291.895 29.3776C290.566 32.7159 290.566 32.9067 290.661 33.5743C290.756 34.1466 292.18 34.7189 293.129 34.9097C293.319 34.9097 293.509 35.1958 293.414 35.3866C293.509 35.5773 293.319 35.7681 293.129 35.7681Z" fill="#0A3F64" stroke="#0A3F64"/>
<path d="M295.598 0.190965C289.807 0.763253 282.687 1.71707 278.984 3.52931C274.712 3.81545 269.111 6.48613 272.149 20.0303C274.712 31.2853 269.776 18.5996 280.883 9.82448C287.338 11.446 304.047 14.8797 311.737 7.63071C316.578 3.0524 305.566 -0.85823 295.598 0.190965Z" fill="#0A3F64"/>
<path d="M239.396 104.441L234.555 123.326L261.706 129.812L266.642 115.696L239.396 104.441Z" fill="#00C2CD"/>
<path d="M344.583 101.868L351.324 120.467L323.223 126.762L318.002 109.117L344.583 101.868Z" fill="#00C2CD"/>
<path d="M258.478 142.215H258.383C258.194 142.12 258.099 141.929 258.099 141.738L264.744 120.086C264.839 119.896 265.029 119.8 265.219 119.8C265.409 119.896 265.503 120.086 265.503 120.277L258.858 141.929C258.763 142.024 258.668 142.215 258.478 142.215Z" fill="#0A3F64" stroke="#0A3F64"/>
<path d="M327.97 144.789C327.78 144.789 327.686 144.694 327.591 144.503L319.141 113.886C319.047 113.695 319.236 113.504 319.426 113.409C319.616 113.313 319.806 113.504 319.901 113.695L328.35 144.312C328.445 144.503 328.255 144.694 328.065 144.789C328.065 144.789 328.065 144.789 327.97 144.789Z" fill="#0A3F64" stroke="#0A3F64"/>
<path d="M295.882 43.1137C296.167 43.8767 292.465 45.1167 290.281 44.1629C284.775 41.7783 284.775 37.2 285.724 38.3446C286.104 38.8215 288.288 41.2061 291.136 42.1599C294.743 43.3998 295.503 42.1599 295.882 43.1137Z" fill="#0A3F64"/>
</g>
<g clip-path="url(#clip2)">
<path d="M544.62 414.73V427.837H526.378L524.808 415.401L544.62 414.73Z" fill="white"/>
<path d="M545.667 428.954H525.331L523.537 414.284L545.742 413.539L545.667 428.954ZM527.35 426.72H543.499V415.848L526.079 416.443L527.35 426.72Z" fill="#0A3F64"/>
<path d="M471.053 415.028L470.604 428.284H452.362L451.465 414.73L471.053 415.028Z" fill="white"/>
<path d="M471.651 429.401H451.24L450.269 413.613L472.249 413.911L471.651 429.401ZM453.409 427.167H469.483L469.931 416.145L452.661 415.922L453.409 427.167Z" fill="#0A3F64"/>
<path d="M471.128 426.5C471.128 426.5 497.893 435.362 498.79 442.734H450.867V426.5H471.128Z" fill="#FFB900"/>
<path d="M500.584 440.052V443.999H450.343V439.531L500.584 440.052Z" fill="#0A3F64"/>
<path d="M473.37 433.574C472.921 433.574 472.473 433.276 472.323 432.755C472.174 432.159 472.473 431.563 473.071 431.34L482.192 428.659C482.79 428.51 483.388 428.808 483.613 429.404C483.762 430 483.463 430.595 482.865 430.819L473.744 433.5C473.594 433.5 473.445 433.574 473.37 433.574Z" fill="#0A3F64"/>
<path d="M477.93 436.254C477.482 436.254 477.033 435.956 476.884 435.435C476.734 434.839 477.033 434.244 477.631 434.02L486.753 431.339C487.351 431.19 487.949 431.488 488.173 432.084C488.323 432.68 488.024 433.275 487.425 433.499L478.304 436.18C478.08 436.254 478.005 436.254 477.93 436.254Z" fill="#0A3F64"/>
<path d="M484.211 439.012C483.762 439.012 483.314 438.714 483.164 438.192C483.015 437.597 483.314 437.001 483.912 436.777L493.033 434.097C493.631 433.948 494.229 434.245 494.453 434.841C494.603 435.437 494.304 436.033 493.706 436.256L484.585 438.937C484.435 438.937 484.286 439.012 484.211 439.012Z" fill="#0A3F64"/>
<path d="M477.108 416.966H448.1L445.633 185.141L529.293 199.588L549.255 416.966H521.293L491.986 272.569L495.35 240.845L477.108 416.966Z" fill="#0A3F64"/>
<path d="M492.36 58.094C492.36 58.094 490.342 79.6158 492.061 81.9244C493.781 84.3074 507.537 88.0309 507.537 88.0309L487.052 137.553L451.39 134.128L449.072 97.7865C449.072 97.7865 465.371 84.6053 466.343 81.8499C467.688 78.1264 467.688 58.0195 467.688 58.0195H492.36V58.094Z" fill="white"/>
<path d="M487.725 138.823L450.268 135.248L447.876 97.3431L448.325 96.9708C456.175 90.5664 464.698 83.0449 465.221 81.5555C466.268 78.6512 466.492 63.6828 466.492 58.0975C466.492 57.5018 467.015 56.9805 467.613 56.9805C468.212 56.9805 468.735 57.5018 468.735 58.0975C468.735 60.1827 468.66 78.4278 467.314 82.3002C466.343 85.0556 453.708 95.4814 450.119 98.3113L452.362 133.163L486.23 136.44L505.892 88.8536C502.079 87.7365 492.659 84.9067 491.014 82.6726C489.22 80.1406 490.641 63.1615 491.164 58.023C491.239 57.4273 491.762 56.9805 492.36 56.9805C492.958 57.0549 493.407 57.5762 493.407 58.172C492.435 68.151 491.986 79.8427 492.883 81.2577C493.781 82.5236 501.182 85.1301 507.761 86.9174L508.958 87.2152L487.725 138.823Z" fill="#0A3F64"/>
<path d="M613.626 95.3303L610.262 95.6281L599.795 111.267L591.048 98.6814C591.048 98.6814 603.459 90.8621 603.907 87.6599C604.356 84.4577 607.944 80.6597 610.187 80.2129C615.346 79.2448 620.28 84.0108 620.953 87.1386C621.477 90.1174 613.626 95.3303 613.626 95.3303Z" fill="white"/>
<path d="M599.795 113.279L589.403 98.3847L590.375 97.7889C596.132 94.1399 602.487 89.2249 602.711 87.5866C603.16 83.8631 607.197 79.6928 609.888 79.1715C615.496 78.1289 621.178 83.1184 621.925 86.9163C622.598 90.4164 616.169 94.9591 614.225 96.2995L614 96.4485L610.86 96.7464L599.795 113.279ZM592.618 98.9804L599.795 109.257L609.664 94.5867L613.328 94.2144C616.692 91.9058 620.131 88.6291 619.832 87.2142C619.383 84.6822 614.972 80.363 610.412 81.1822C608.692 81.48 605.403 84.8312 605.029 87.661C604.58 90.9377 596.356 96.5974 592.618 98.9804Z" fill="#0A3F64"/>
<path d="M544.769 426.5C544.769 426.5 571.983 435.139 572.88 442.288H524.135V426.5H544.769Z" fill="#FFB900"/>
<path d="M524.135 439.38V443.55H574.301V439.082L524.135 439.38Z" fill="#0A3F64"/>
<path d="M546.04 432.16C545.591 432.16 545.143 431.862 544.993 431.341C544.844 430.745 545.143 430.149 545.741 429.926L554.862 427.245C555.46 427.096 556.058 427.394 556.282 427.99C556.432 428.585 556.133 429.181 555.535 429.405L546.414 432.086C546.264 432.16 546.189 432.16 546.04 432.16Z" fill="#0A3F64"/>
<path d="M550.6 434.914C550.152 434.914 549.703 434.616 549.554 434.095C549.404 433.499 549.703 432.903 550.301 432.68L559.422 429.999C560.021 429.85 560.619 430.148 560.843 430.744C560.993 431.339 560.693 431.935 560.095 432.158L550.974 434.839C550.825 434.914 550.75 434.914 550.6 434.914Z" fill="#0A3F64"/>
<path d="M556.956 437.594C556.507 437.594 556.059 437.296 555.909 436.775C555.76 436.179 556.059 435.583 556.657 435.36L565.778 432.679C566.376 432.53 566.974 432.828 567.198 433.424C567.348 434.02 567.049 434.615 566.451 434.839L557.33 437.52C557.18 437.594 557.031 437.594 556.956 437.594Z" fill="#0A3F64"/>
<path d="M605.328 89.6691C603.01 82.2966 608.917 80.4348 610.337 80.0625C610.487 80.0625 610.636 80.137 610.561 80.2859C610.187 81.8498 608.543 89.4457 607.945 91.084C607.272 92.9458 605.702 90.8606 605.328 89.6691Z" fill="white"/>
<path d="M606.333 75.1644C607.882 74.9056 609.319 76.7039 609.774 77.6094C611.125 80.2526 611.371 82.6277 610.584 84.7223C609.551 87.6131 606.896 88.9629 605.839 89.4415C605.409 89.589 604.954 89.5895 604.598 89.2715C604.254 89.027 604.033 88.611 604.033 88.1579C604.119 85.9539 604.575 78.7049 604.883 76.9169C605.03 75.5332 605.891 75.2384 606.333 75.1644ZM607.746 78.6279C607.537 78.2853 607.242 77.8816 606.972 77.6248C606.763 79.0943 606.504 82.9882 606.343 86.5636C607.155 85.975 608.077 85.1414 608.556 83.9287C608.986 82.4222 608.766 80.6471 607.746 78.6279Z" fill="#0A3F64"/>
<path d="M619.682 86.022C619.682 86.022 612.356 83.4155 609.141 84.4581C605.851 85.4262 606.3 92.2774 611.758 95.852C617.066 99.3521 622 87.5858 619.682 86.022Z" fill="white"/>
<path d="M613.701 97.5645C612.804 97.5645 611.907 97.2666 611.01 96.7454C606.972 94.0644 605.552 89.8197 605.926 87.0643C606.225 85.2025 607.197 83.8621 608.692 83.4153C612.206 82.2982 619.159 84.7557 619.981 85.0536L620.205 85.2025C622.374 86.6175 620.953 91.2346 619.084 94.0644C617.589 96.373 615.645 97.5645 613.701 97.5645ZM610.935 85.3515C610.337 85.3515 609.813 85.4259 609.44 85.5004C608.542 85.7983 608.318 86.7664 608.243 87.3622C607.944 89.5962 609.215 92.8729 612.355 94.8836C613.701 95.7772 615.122 95.4049 616.542 93.841C618.71 91.458 619.533 87.809 619.159 86.9898C617.29 86.4685 613.552 85.3515 610.935 85.3515Z" fill="#0A3F64"/>
<path d="M512.621 83.6373C523.387 87.5842 536.919 117.372 545.891 119.011C557.479 121.17 594.263 91.829 594.263 91.829L604.804 108.138C604.804 108.138 566.002 151.777 549.255 155.65C542.526 157.214 528.396 147.235 528.396 147.235C530.191 154.011 529.966 206.885 529.966 206.885L450.568 205.842L440.699 142.915L430.008 159.597L411.242 140.607C404.663 138.149 427.241 86.6161 456.848 82.1479C459.689 81.7011 471.726 78.8712 478.753 84.0097C481.968 86.3927 490.491 87.0629 492.51 79.9883C492.51 80.0628 510.229 82.7437 512.621 83.6373Z" fill="#EDC300"/>
<path d="M430.98 166.971C430.905 170.545 455.278 205.471 457.521 205.769C459.764 206.067 474.716 203.908 473.67 207.631C473.072 209.791 467.165 209.94 466.193 211.727C464.997 214.036 468.81 215.897 467.913 216.046C467.913 216.046 459.839 221.631 458.493 222.525C456.624 223.791 450.119 218.653 448.026 213.067C446.68 209.493 400.177 175.237 404.439 156.843C408.626 138.523 431.204 158.406 430.98 166.971Z" fill="white"/>
<path d="M457.744 223.864C457.37 223.864 456.922 223.79 456.473 223.641C453.333 222.673 448.698 218.204 446.978 213.513C446.605 212.768 443.091 209.64 439.427 206.364C425.596 194.002 400.027 171.065 403.317 156.618C405.186 148.501 410.344 147.905 413.26 148.277C421.783 149.394 432.25 160.788 432.1 166.969C432.325 170.097 454.305 202.342 457.744 204.651C458.342 204.651 459.613 204.576 461.034 204.502C467.613 204.13 472.697 203.906 474.267 205.842C474.716 206.438 474.865 207.108 474.641 207.853C474.117 209.566 472.024 210.236 469.931 210.906C468.959 211.204 467.314 211.725 467.09 212.098C466.791 212.768 467.239 213.438 468.211 214.406C468.734 214.928 469.258 215.449 468.959 216.194C468.809 216.566 468.585 216.789 468.286 216.938C467.164 217.683 460.286 222.524 459.015 223.343C458.716 223.715 458.268 223.864 457.744 223.864ZM411.989 150.437C408.7 150.437 406.531 152.671 405.485 157.139C402.419 170.32 428.437 193.48 440.848 204.651C446.679 209.864 448.623 211.651 448.997 212.694C449.819 214.928 451.614 217.385 453.707 219.321C455.95 221.332 457.445 221.704 457.744 221.555C458.791 220.811 464.099 217.162 466.267 215.672C465.37 214.704 464.099 213.066 465.071 211.13C465.744 209.864 467.389 209.342 469.183 208.821C470.305 208.449 472.248 207.853 472.398 207.257C471.65 206.066 463.651 206.513 461.034 206.736C459.015 206.885 457.819 206.959 457.146 206.885C455.277 206.662 448.025 196.608 442.268 188.267C438.455 182.757 429.633 169.65 429.708 166.969C429.858 161.831 420.138 151.479 412.886 150.511C412.662 150.437 412.288 150.437 411.989 150.437Z" fill="#0A3F64"/>
<path d="M475.838 210.536C475.464 210.014 474.791 209.94 474.268 210.238L456.698 222.376C456.175 222.749 456.025 223.419 456.399 223.94C456.623 224.238 456.997 224.387 457.296 224.387C457.521 224.387 457.745 224.312 457.969 224.164L460.436 222.451L456.175 412.274C456.175 412.87 456.623 413.392 457.296 413.392C457.894 413.392 458.418 412.945 458.418 412.274L462.679 220.887L475.464 212.025C476.062 211.727 476.211 210.982 475.838 210.536Z" fill="#005C5D"/>
<path d="M485.931 15.5738C490.416 16.0951 501.257 17.2122 501.108 25.1804C501.033 34.2658 499.313 45.8831 498.341 52.0641C497.967 54.5216 495.874 56.2344 493.407 56.2344L465.894 55.9365C463.352 55.9365 461.259 54.0003 461.034 51.4683C460.137 43.0532 458.492 25.1804 459.539 22.574C463.053 13.4142 478.828 14.7546 485.931 15.5738Z" fill="#0A3F64"/>
<path d="M429.185 100.245C429.185 100.245 394.271 135.842 393.075 148.278C391.131 168.087 442.269 211.28 442.269 211.28L457.446 198.769L430.307 157.587L429.185 100.245Z" fill="#EDC300"/>
<path d="M467.912 61.8204C466.417 60.2565 465.893 54.15 465.819 47.2243C465.819 47.0008 465.744 46.8519 465.52 46.703C463.725 45.5859 461.109 43.2773 461.258 39.8517C461.333 36.8729 463.501 37.5432 465.221 38.5113C465.52 38.6602 465.893 38.4368 465.893 38.1389C466.118 29.7983 466.716 22.4258 466.716 22.4258L499.387 22.7981C499.387 22.7981 499.238 30.2451 498.789 38.5857C498.789 38.9581 497.144 58.916 496.322 60.7033C495.873 61.6714 495.051 62.4906 493.93 63.1608C493.93 63.1608 491.836 64.8736 479.949 64.7247L467.912 61.8204Z" fill="white"/>
<path d="M481.445 65.9161C480.996 65.9161 480.473 65.9161 480.024 65.9161C479.426 65.9161 478.903 65.3948 478.903 64.799C478.903 64.2032 479.426 63.682 480.024 63.682C490.939 63.8309 493.257 62.416 493.332 62.3415L493.407 62.267C494.379 61.6713 494.977 61.0755 495.351 60.3308C496.023 58.6925 497.593 40.075 497.668 38.5856C497.967 32.2557 498.117 26.2981 498.192 23.915L467.763 23.6172C467.613 25.9257 467.24 31.8088 467.015 38.2133C467.015 38.809 466.716 39.3303 466.193 39.5537C465.669 39.8516 465.146 39.8516 464.623 39.5537C463.352 38.809 462.754 38.8835 462.679 38.8835C462.604 38.958 462.455 39.1814 462.38 39.9261C462.305 43.1283 464.922 45.0645 466.118 45.8092C466.641 46.1071 466.94 46.6284 466.94 47.2241C467.09 58.1712 468.211 60.5542 468.735 61.0755C469.183 61.5223 469.109 62.267 468.66 62.6394C468.211 63.0862 467.464 63.0117 467.09 62.5649C466.118 61.5968 464.847 58.9159 464.698 47.522C463.128 46.4794 459.987 43.9474 460.137 39.8516C460.212 38.3622 460.66 37.3941 461.557 36.9473C462.38 36.5005 463.501 36.5749 464.772 37.0962C464.997 29.2024 465.52 22.4256 465.52 22.3512L465.595 21.3086L500.434 21.7554V22.8725C500.434 22.9469 500.285 30.4684 499.836 38.7345C499.836 38.958 498.192 59.2138 497.294 61.2244C496.771 62.3415 495.874 63.3841 494.528 64.1288C494.08 64.5756 491.313 65.9161 481.445 65.9161Z" fill="#0A3F64"/>
<path d="M477.856 42.3099C477.781 42.3099 477.781 42.3099 477.856 42.3099C477.183 42.2354 476.734 41.7141 476.734 41.1184L476.809 40.4481C476.884 39.8524 477.407 39.3311 478.005 39.4056C478.603 39.48 479.127 40.0013 479.052 40.5971L478.977 41.2673C478.903 41.8631 478.379 42.3099 477.856 42.3099Z" fill="#0A3F64"/>
<path d="M492.883 42.5298C492.21 42.5298 491.762 42.0085 491.762 41.4128V40.5936C491.762 39.9979 492.285 39.4766 492.883 39.4766C493.481 39.4766 494.005 39.9979 494.005 40.5936V41.4128C494.005 42.083 493.481 42.5298 492.883 42.5298Z" fill="#0A3F64"/>
<path d="M480.398 37.3189C480.249 37.3189 480.099 37.3189 479.95 37.2445C479.95 37.2445 477.557 36.2019 475.165 37.0955C474.567 37.3189 473.969 37.0211 473.744 36.4253C473.52 35.8295 473.819 35.2338 474.417 35.0104C477.782 33.7444 480.847 35.1593 480.996 35.1593C481.52 35.4572 481.819 36.0529 481.52 36.6487C481.221 37.0955 480.772 37.3189 480.398 37.3189Z" fill="#0A3F64"/>
<path d="M481.145 52.587C480.622 53.3317 483.239 55.9381 486.304 55.8637C491.313 55.7147 492.883 52.2891 491.687 52.5125C491.238 52.587 489.369 53.6296 486.379 53.6296C483.089 53.704 481.444 52.0657 481.145 52.587Z" fill="#0A3F64"/>
<path d="M471.576 17.3607C471.576 17.3607 456.399 13.4138 460.661 33.6696C463.128 45.2869 457.745 30.3184 470.978 21.9778C472.399 21.1586 471.576 17.3607 471.576 17.3607Z" fill="#0A3F64"/>
<path d="M486.528 50.5C486.005 50.5 485.556 50.1277 485.407 49.6064C485.257 49.0106 485.706 48.4149 486.304 48.2659C487.052 48.117 487.949 47.7446 488.173 47.5212C488.248 47.0744 488.248 46.9255 487.052 43.7977C486.753 43.053 486.454 42.1594 486.005 41.0423V40.9679C485.93 40.67 485.257 38.3614 485.631 36.7231C485.781 35.9784 486.379 35.4571 487.351 35.0103C489.519 34.1166 493.332 34.0422 495.575 35.4571C496.098 35.755 496.248 36.4997 495.949 37.021C495.649 37.5423 494.902 37.6912 494.379 37.3933C492.285 36.1273 488.472 36.6486 487.799 37.3188C487.65 38.2125 488.024 39.7764 488.173 40.3721C488.547 41.4147 488.921 42.3083 489.145 43.053C490.416 46.4786 490.566 46.851 490.341 48.0425C490.042 49.6808 487.725 50.2766 486.753 50.5C486.678 50.5 486.603 50.5 486.528 50.5Z" fill="#0A3F64"/>
<path d="M528.321 412.127L498.565 243.602C498.49 243.378 498.415 243.229 498.266 243.006L499.836 233.697V214.558C499.836 213.963 499.313 213.441 498.715 213.441C498.116 213.441 497.593 213.963 497.593 214.558V233.399L490.939 272.645C490.864 273.241 491.238 273.836 491.836 273.911C491.911 273.911 491.986 273.911 492.061 273.911C492.584 273.911 493.107 273.539 493.182 273.017L497.294 248.964L526.078 412.499C526.153 413.021 526.676 413.393 527.199 413.393C527.274 413.393 527.349 413.393 527.424 413.393C528.022 413.319 528.396 412.723 528.321 412.127Z" fill="#005C5D"/>
<path d="M489.818 88.5549L482.491 83.8633L474.865 88.0336L482.566 95.4061L479.202 165.333L491.537 184.993L500.21 164.589L487.949 94.438L489.818 88.5549Z" fill="#FFB900"/>
<path d="M482.715 83.9367L469.931 91.8305L452.885 81.1813L461.333 77.0854L482.715 83.9367Z" fill="white"/>
<path d="M482.566 83.5656L492.585 90.3424L503.351 83.8635L497.669 79.1719L482.566 83.5656Z" fill="white"/>
<path d="M505.219 84.0117L497.893 77.9052L482.043 82.5968L461.259 75.8945L450.567 81.1074L469.931 93.1715L482.94 85.1288L492.584 91.6077L505.219 84.0117ZM469.931 90.5651L455.203 81.3308L461.483 78.2776L480.099 84.2352L469.931 90.5651ZM497.369 80.4372L501.332 83.7883L492.584 89.0757L485.183 84.0862L497.369 80.4372Z" fill="#0A3F64"/>
<path d="M503.351 108.957V115.436L517.481 115.362L517.406 108.883L503.351 108.957Z" fill="white"/>
<path d="M502.229 116.553L502.154 107.84L518.527 107.766L518.602 116.479L502.229 116.553ZM504.472 110.074V114.319H516.359V110.074H504.472Z" fill="#0A3F64"/>
<path d="M597.254 113.053C596.88 113.053 596.506 112.829 596.282 112.457L588.581 99.0524C588.282 98.5311 588.432 97.8609 589.03 97.563C589.553 97.2651 590.226 97.4141 590.525 98.0098L598.226 111.414C598.525 111.936 598.375 112.606 597.777 112.904C597.628 113.053 597.403 113.053 597.254 113.053Z" fill="#0A3F64"/>
<path d="M438.008 205.991C437.709 205.991 437.335 205.842 437.11 205.544C436.737 205.098 436.811 204.353 437.26 203.981L450.418 193.555C450.867 193.182 451.615 193.257 451.988 193.704C452.362 194.151 452.287 194.895 451.839 195.268L438.68 205.693C438.456 205.917 438.232 205.991 438.008 205.991Z" fill="#0A3F64"/>
<path d="M454.231 203.533C453.932 203.533 453.633 203.384 453.409 203.161C452.96 202.714 453.035 201.969 453.484 201.597L456.25 198.99L429.335 156.915C429.036 156.394 429.186 155.723 429.709 155.351C430.232 155.053 430.905 155.202 431.279 155.723L459.091 199.363L454.979 203.235C454.755 203.384 454.456 203.533 454.231 203.533Z" fill="#0A3F64"/>
<path d="M441.297 142.99C441.073 142.99 440.848 142.915 440.624 142.767C440.101 142.394 440.026 141.649 440.4 141.203L454.156 123.702C454.53 123.181 455.278 123.106 455.726 123.479C456.249 123.851 456.324 124.596 455.95 125.043L442.194 142.543C441.97 142.841 441.671 142.99 441.297 142.99Z" fill="#0A3F64"/>
<path d="M505.444 17.6585C503.575 14.6052 499.538 15.7968 498.042 11.3286C496.547 6.86037 494.005 10.0626 488.772 8.72212C483.538 7.38166 486.23 5.66885 481.221 4.99862C476.137 4.3284 475.688 10.2115 470.23 9.54129C464.848 8.87106 464.249 17.3606 464.249 17.3606C464.175 17.4351 464.025 17.5096 463.95 17.584C461.857 17.6585 458.493 18.0309 457.296 19.5947C454.156 23.5416 460.362 24.2119 457.895 31.361C456.698 34.8611 464.324 37.9143 463.651 35.01C462.978 32.0312 464.848 30.4673 466.044 28.3077C466.567 27.4141 466.941 26.0736 467.24 24.8076C468.062 24.8076 468.586 24.3608 469.558 23.8395C470.754 23.1693 474.193 25.1055 476.361 25.7757C478.529 26.446 482.566 25.3289 485.781 25.4778C488.996 25.6268 489.893 26.297 491.388 29.946C492.884 33.6695 501.556 33.8185 503.575 31.361C505.594 28.829 501.631 26.446 504.173 25.2544C506.79 24.2119 507.313 20.6373 505.444 17.6585Z" fill="#0A3F64"/>
</g>
<defs>
<clipPath id="clip0">
<rect width="200" height="417" fill="white" transform="translate(0 27)"/>
</clipPath>
<clipPath id="clip1">
<rect width="223" height="444" fill="white" transform="translate(170)"/>
</clipPath>
<clipPath id="clip2">
<rect width="229" height="439" fill="white" transform="translate(393 5)"/>
</clipPath>
</defs>
</svg>
