<svg width="198" height="244" viewBox="0 0 198 244" fill="none" xmlns="http://www.w3.org/2000/svg">
<path d="M82.3704 67.9713C82.3704 67.9713 83.3331 93.3872 81.0226 96.2754C78.8084 99.1636 66.9673 105.806 66.9673 105.806L107.112 131.126L131.179 106.288C131.179 106.288 118.279 100.608 117.027 97.2381C115.295 92.6171 115.68 67.875 115.68 67.875H82.3704V67.9713Z" fill="white"/>
<path d="M107.4 132.956L64.1751 105.711L66.293 104.556C70.9139 101.956 78.3267 97.4316 79.867 95.4099C81.0222 93.7732 81.311 79.91 80.8297 68.0684L83.7177 67.9722C83.9103 74.0373 84.4879 94.1583 82.0812 97.2391C80.2521 99.5496 73.3207 103.786 69.6624 105.904L106.822 129.298L128.676 106.77C124.44 104.845 116.834 100.897 115.679 97.8167C113.946 93.0993 114.139 70.5715 114.235 67.9722H117.123C117.027 74.8075 117.123 93.1956 118.375 96.7577C118.952 98.4906 125.787 102.342 131.756 104.941L133.682 105.807L107.4 132.956Z" fill="#0A3F64"/>
<path d="M88.82 16.2743C88.82 16.2743 72.9355 18.6811 72.9355 28.2121C72.9355 39.0909 74.7647 53.0504 75.8236 60.3672C76.2087 63.2553 78.7117 65.3733 81.6961 65.3733H114.524C117.508 65.3733 120.108 63.1591 120.396 60.1746C121.552 50.066 123.766 28.7897 122.611 25.6127C118.567 14.5414 88.82 16.2743 88.82 16.2743Z" fill="#0A3F64"/>
<path d="M91.7081 76.5403C101.046 77.5993 112.695 75.8664 115.872 72.5931C117.797 70.6677 118.567 63.2547 118.76 54.6864C118.76 54.3976 118.856 54.205 119.145 54.1088C121.455 52.7609 124.729 49.969 124.729 45.733C124.632 42.0747 121.84 42.8449 119.723 44.0001C119.337 44.1927 118.856 43.9039 118.856 43.5188C118.664 33.2176 118.086 24.168 118.086 24.168H76.305C76.305 24.168 76.4013 33.3139 76.7864 43.615C76.7864 44.0964 76.305 44.3852 75.92 44.1927C73.7058 42.9411 70.7214 41.8821 70.6251 45.733C70.5289 50.5467 74.7647 53.5311 76.9789 54.5901C77.1715 54.6864 77.364 54.879 77.364 55.1678C77.8454 62.3882 78.5192 68.7422 79.5782 70.9565C80.1558 72.208 81.2148 73.1708 82.5626 74.0372L91.7081 76.5403Z" fill="white"/>
<path d="M97.2913 78.2683C95.2696 78.2683 93.248 78.1721 91.5151 77.9795C90.745 77.8832 90.1674 77.2093 90.2636 76.3429C90.3599 75.5727 91.0338 74.9951 91.9002 75.0913C101.72 76.2466 112.309 74.1286 114.909 71.6255C115.486 71.0479 117.027 68.0634 117.315 54.6815C117.315 53.9113 117.7 53.2374 118.374 52.8523C119.818 51.9859 123.284 49.5791 123.188 45.7282C123.188 44.8617 122.995 44.5729 122.899 44.4766C122.706 44.3803 121.936 44.3803 120.3 45.2468C119.626 45.6319 118.952 45.5356 118.278 45.2468C117.7 44.8617 117.315 44.2841 117.315 43.5139C117.219 35.7158 116.834 28.4954 116.641 25.6072H77.7486C77.7486 28.5916 77.9412 35.8121 78.23 43.6102C78.23 44.3803 77.8449 45.0543 77.2673 45.4393C76.5934 45.8244 75.8232 45.8244 75.2456 45.4393C73.4165 44.3803 72.5501 44.3803 72.3575 44.5729C72.2613 44.5729 72.0687 44.958 72.0687 45.8244C71.9725 50.5418 77.0747 53.0449 77.6524 53.3337C78.3262 53.6225 78.8076 54.3927 78.9039 55.1629C79.5777 65.5603 80.4442 69.2187 80.9255 70.4702C81.3106 71.3367 82.177 72.1069 83.3322 72.8771C84.0061 73.2621 84.2949 74.1286 83.8136 74.8988C83.4285 75.5727 82.5621 75.8615 81.7919 75.3801C80.0591 74.4174 78.9039 73.1659 78.23 71.7218C77.2673 69.6038 76.4971 64.4051 75.9195 55.9331C72.6463 54.2002 68.9881 50.7343 69.0844 45.9207C69.0844 44.0915 69.7583 42.84 70.8172 42.2623C71.9725 41.5884 73.4165 41.6847 75.1493 42.5512C74.7643 32.9239 74.7643 24.5482 74.7643 24.4519V23.0078H119.241L119.337 24.3556C119.337 24.4519 119.915 32.7314 120.107 42.4549C121.84 41.781 123.188 41.6847 124.247 42.3586C125.402 43.0325 125.98 44.2841 125.98 46.017C126.076 51.1194 122.129 54.2002 120.107 55.4517C119.722 69.4112 118.086 72.6845 116.834 73.9361C113.85 76.728 105.185 78.2683 97.2913 78.2683Z" fill="#0A3F64"/>
<path d="M75.4391 25.2269C81.9854 33.4101 111.059 41.497 124.825 14.1555C138.592 -13.1859 99.5064 8.37917 86.7026 12.2301C81.2152 13.963 69.8554 18.2953 75.4391 25.2269Z" fill="#0A3F64"/>
<path d="M185.956 218.352C185.956 218.352 184.608 219.219 182.49 220.47C177.484 223.358 168.339 228.653 161.889 231.445C160.444 232.119 159.097 232.601 158.038 232.889C155.053 233.852 151.491 234.719 147.544 235.489C121.263 240.976 78.3267 243.768 57.8213 238.088C56.5698 237.703 55.3183 237.414 54.0668 237.029C45.7876 234.526 38.4712 231.638 32.4062 228.75C17.4844 221.914 9.39781 215.272 9.39781 215.272C6.70227 213.346 4.68061 210.843 3.42911 208.051C1.50372 203.719 1.21492 198.713 3.04403 194.092L33.0801 116.111L61.7684 103.499C64.6564 102.536 67.8333 102.921 70.4326 104.558C78.0379 109.372 93.1522 102.151 100.18 102.921C116.834 104.654 123.477 107.157 129.638 103.403C131.949 101.959 134.741 101.574 137.436 102.247L163.333 116.688L194.524 195.728C197.893 204.296 194.235 214.02 185.956 218.352Z" fill="#F2F2F2"/>
<path d="M89.3978 242.705C76.7865 242.705 65.3305 241.743 57.3401 239.625C56.0886 239.24 54.8371 238.951 53.5856 238.566C46.0766 236.351 38.6638 233.463 31.7325 230.286C17.292 223.547 9.20541 217.193 8.53153 216.615C5.73971 214.594 3.52552 211.898 2.17775 208.817C-0.036449 204.004 -0.132718 198.709 1.6964 193.703L32.0213 115.144L61.3834 102.243C64.6566 101.088 68.3148 101.57 71.2992 103.399C75.535 106.094 82.9478 104.458 89.4941 103.014C93.6337 102.147 97.5807 101.281 100.469 101.57C104.801 102.051 108.363 102.532 111.54 102.917C120.397 104.169 124.921 104.747 129.061 102.243C131.66 100.607 134.933 100.222 137.918 100.992L138.303 101.088L164.68 115.818L164.873 116.299L196.064 195.339C199.723 204.678 195.872 215.171 186.919 219.792C186.63 219.985 185.378 220.755 183.453 221.91C178.447 224.799 169.205 230.19 162.659 232.982C161.119 233.656 159.771 234.233 158.616 234.522C155.535 235.485 151.973 236.351 148.026 237.218C131.179 240.395 108.941 242.705 89.3978 242.705ZM34.2355 117.166L4.39194 194.665C2.75536 198.901 2.9479 203.426 4.77702 207.47C5.93225 210.165 7.85764 212.476 10.2644 214.112C10.4569 214.209 18.5435 220.755 32.984 227.494C39.8191 230.671 47.1356 233.463 54.452 235.677C55.7035 236.062 56.8588 236.351 58.2065 236.736C78.038 242.128 120.3 239.721 147.256 234.041C151.107 233.271 154.668 232.308 157.557 231.441C158.519 231.153 159.771 230.671 161.215 229.997C167.569 227.205 176.81 221.91 181.72 219.022C183.838 217.771 185.186 216.904 185.186 216.904L185.282 216.808C192.887 212.861 196.257 203.907 193.08 195.917L162.081 117.647L136.859 103.591C134.644 103.11 132.334 103.399 130.409 104.554C125.306 107.635 120.204 106.865 110.962 105.613C107.785 105.228 104.223 104.65 99.9875 104.265C97.5807 103.976 93.9225 104.843 89.9754 105.709C82.8515 107.25 74.8611 108.983 69.5663 105.709C67.3521 104.361 64.6566 103.976 62.2499 104.747L34.2355 117.166Z" fill="#0A3F64"/>
<path d="M63.5016 155.678C62.7314 155.389 61.9613 155.774 61.6724 156.544L48.3873 193.706L36.9312 187.737C36.2573 187.352 35.3909 187.64 35.0058 188.314C34.6207 188.988 34.9095 189.855 35.5834 190.24L58.8806 202.466C59.0732 202.563 59.362 202.659 59.5545 202.659C60.0359 202.659 60.6135 202.37 60.806 201.889C61.1911 201.215 60.9023 200.348 60.2284 199.963L50.8903 195.053L64.368 157.507C64.6568 156.737 64.2717 155.967 63.5016 155.678Z" fill="#0A3F64"/>
<path d="M164.873 188.314C164.488 187.64 163.622 187.352 162.948 187.737L151.588 193.706L138.207 156.544C137.918 155.774 137.148 155.389 136.378 155.678C135.608 155.967 135.222 156.737 135.511 157.507L148.989 195.053L139.747 199.963C139.073 200.348 138.784 201.215 139.169 201.889C139.458 202.37 139.94 202.659 140.421 202.659C140.614 202.659 140.902 202.563 141.095 202.466L164.392 190.24C164.97 189.951 165.258 189.085 164.873 188.314Z" fill="#0A3F64"/>
<path d="M110.096 109.364L101.432 103.684L91.6121 108.497L97.1957 116.777L88.2427 215.456L101.817 241.257L113.754 215.456L103.453 117.258L110.096 109.364Z" fill="#F8A127"/>
<path d="M40.6854 167.901L54.1631 234.522H147.352L158.038 167.901H40.6854Z" fill="#D9F6F7"/>
<path d="M148.603 235.97H53.0076L38.856 166.461H159.674L148.603 235.97ZM55.4143 233.082H146.196L156.401 169.349H42.4179L55.4143 233.082Z" fill="#0A3F64"/>
<path d="M147.545 234.524H54.0674V241.744H147.545V234.524Z" fill="#00B7C5"/>
<path d="M148.989 243.191H52.6229V233.083H148.989V243.191ZM55.511 240.303H146.1V235.971H55.511V240.303Z" fill="#0A3F64"/>
<path d="M99.1212 212.962C104.066 212.962 108.074 208.953 108.074 204.009C108.074 199.064 104.066 195.055 99.1212 195.055C94.1766 195.055 90.1682 199.064 90.1682 204.009C90.1682 208.953 94.1766 212.962 99.1212 212.962Z" fill="#F2F2F2"/>
<path d="M99.1214 214.404C93.4415 214.404 88.7243 209.783 88.7243 204.006C88.7243 198.326 93.3452 193.609 99.1214 193.609C104.801 193.609 109.518 198.23 109.518 204.006C109.518 209.783 104.801 214.404 99.1214 214.404ZM99.1214 196.593C94.9818 196.593 91.6124 199.963 91.6124 204.103C91.6124 208.242 94.9818 211.612 99.1214 211.612C103.261 211.612 106.63 208.242 106.63 204.103C106.63 199.963 103.261 196.593 99.1214 196.593Z" fill="#0A3F64"/>
<path d="M108.363 48.14C107.593 48.14 106.919 47.4661 106.919 46.6959V45.7332C106.919 44.963 107.593 44.2891 108.363 44.2891C109.133 44.2891 109.807 44.963 109.807 45.7332V46.6959C109.807 47.4661 109.133 48.14 108.363 48.14Z" fill="#0A3F64"/>
<path d="M89.0134 48.14C88.2432 48.14 87.5693 47.4661 87.5693 46.6959V45.7332C87.5693 44.963 88.2432 44.2891 89.0134 44.2891C89.7835 44.2891 90.4574 44.963 90.4574 45.7332V46.6959C90.4574 47.4661 89.8798 48.14 89.0134 48.14Z" fill="#0A3F64"/>
<path d="M84.8737 43.6163C84.3923 43.6163 83.911 43.3275 83.6222 42.9424C83.2371 42.2685 83.4296 41.402 84.1035 40.9207C87.858 38.6101 91.9013 39.7654 92.0939 39.7654C92.864 39.9579 93.3454 40.7281 93.0566 41.4983C92.864 42.2685 92.0939 42.7498 91.3237 42.461C91.2274 42.461 88.2431 41.6908 85.5476 43.3275C85.355 43.6163 85.1625 43.6163 84.8737 43.6163Z" fill="#0A3F64"/>
<path d="M112.407 43.6163C112.118 43.6163 111.925 43.52 111.636 43.4237C108.941 41.7871 105.956 42.5573 105.86 42.5573C105.09 42.7498 104.32 42.2685 104.127 41.4983C103.935 40.7281 104.32 39.9579 105.09 39.7654C105.283 39.7654 109.326 38.6101 113.08 40.9207C113.754 41.3057 113.947 42.1722 113.562 42.9424C113.369 43.4237 112.888 43.6163 112.407 43.6163Z" fill="#0A3F64"/>
<path d="M98.3508 58.5381C97.6769 58.5381 97.003 58.0567 96.9067 57.2865C96.8105 56.5164 97.2918 55.7462 98.062 55.6499C99.3135 55.4574 100.661 55.0723 101.431 54.7835C100.758 53.917 99.6023 52.3766 98.2545 49.0071C97.9657 48.2369 98.3508 47.4667 99.1209 47.1779C99.8911 46.8891 100.661 47.2742 100.95 48.0444C102.202 51.3176 103.164 52.4729 103.838 53.2431C104.319 53.8207 104.897 54.4946 104.705 55.5536C104.608 56.1313 104.319 57.5754 98.5433 58.5381C98.5433 58.5381 98.447 58.5381 98.3508 58.5381Z" fill="#0A3F64"/>
<path d="M105.956 60.3666C106.63 61.3294 103.357 64.5064 99.6024 64.3138C93.4412 64.025 91.6121 59.8853 93.0561 60.1741C93.6337 60.2704 95.8479 61.5219 99.5062 61.6182C103.549 61.7145 105.571 59.6927 105.956 60.3666Z" fill="#0A3F64"/>
<path d="M64.1756 226.243C63.5017 226.243 62.9241 225.761 62.7316 225.087L53.2009 176.759C53.0084 175.988 53.586 175.218 54.3561 175.026C55.1263 174.833 55.8964 175.411 56.089 176.181L65.6197 224.51C65.8122 225.28 65.2346 226.05 64.4644 226.243C64.3681 226.243 64.2719 226.243 64.1756 226.243Z" fill="#F2F2F2"/>
<path d="M100.18 102.821L83.7175 112.159L61.5755 103.495L76.1122 97.1406L100.18 102.821Z" fill="#F2F2F2"/>
<path d="M100.18 102.826L117.412 113.609L135.703 102.634L125.787 96.9536L100.18 102.826Z" fill="#F2F2F2"/>
<path d="M138.495 102.632L125.98 95.5078L100.084 101.477L75.9201 95.7004L57.8214 103.595L83.8142 113.8L100.084 104.557L117.412 115.34L138.495 102.632ZM83.5254 110.623L65.2342 103.498L76.1126 98.6848L96.1367 103.402L83.5254 110.623ZM125.595 98.4923L132.815 102.632L117.412 111.874L103.838 103.402L125.595 98.4923Z" fill="#0A3F64"/>
</svg>
