<svg width="248" height="253" viewBox="0 0 248 253" fill="none" xmlns="http://www.w3.org/2000/svg">
<g clip-path="url(#clip0)">
<path d="M173.715 104.258C179.353 118.375 178.498 133.474 172.589 146.31C169.459 153.05 168.299 160.413 168.989 167.592C169.44 172.398 170.694 177.186 172.734 181.66C173.107 182.468 173.454 183.337 173.784 184.162C181.365 203.145 173.179 211.803 160.824 216.737C148.468 221.671 136.588 221.076 128.99 202.05C128.591 201.051 128.218 199.991 127.863 198.975C126.355 194.439 124.036 190.279 121.165 186.64C116.66 180.935 110.677 176.474 103.704 173.718C90.5782 168.484 79.5231 158.041 73.9289 143.906C63.2609 116.939 76.3916 86.0584 103.304 74.8577C131.063 63.3691 162.682 76.6305 173.715 104.258Z" fill="#FBFAE5"/>
<path d="M161.145 217.413C145.427 223.689 135.005 218.886 128.396 202.336C127.979 201.293 127.624 200.277 127.269 199.26C125.813 194.855 123.589 190.807 120.701 187.126C116.23 181.507 110.326 177.116 103.519 174.395C89.5563 168.84 78.8421 158.109 73.3346 144.191C62.5452 116.92 75.8864 85.553 103.104 74.2302C116.657 68.6167 131.539 68.6166 145.031 74.2591C158.522 79.9016 168.914 90.4587 174.326 104.012C179.86 117.869 179.485 133.028 173.172 146.629C170.191 153.108 168.936 160.359 169.643 167.581C170.077 172.343 171.322 176.983 173.345 181.414C173.735 182.265 174.065 183.091 174.412 183.959C181.082 200.536 176.862 211.136 161.145 217.413ZM104.367 75.237C104.149 75.3242 103.887 75.4288 103.668 75.5159C77.1927 86.5423 64.1326 117.092 74.6881 143.651C80.0568 157.221 90.5012 167.657 104.071 173.116C111.061 175.916 117.227 180.454 121.829 186.272C124.812 190.067 127.106 194.289 128.657 198.807C129.012 199.823 129.367 200.84 129.766 201.839C136.115 217.737 145.666 222.133 160.685 216.135C175.704 210.138 179.6 200.372 173.251 184.473C172.921 183.648 172.574 182.779 172.201 181.971C170.126 177.411 168.855 172.58 168.369 167.687C167.68 160.256 168.936 152.753 172.022 146.031C178.116 132.769 178.516 118.053 173.121 104.543C167.847 91.3378 157.708 81.0325 144.583 75.546C131.597 70.155 117.377 70.0413 104.367 75.237Z" fill="#0A3F64"/>
<path d="M172.751 181.703C173.124 182.511 173.471 183.38 173.801 184.205C181.381 203.188 173.196 211.846 160.841 216.78C148.485 221.714 136.605 221.12 129.007 202.094C128.608 201.095 128.235 200.035 127.88 199.018C126.372 194.483 124.053 190.322 121.182 186.684L168.945 167.61C169.457 172.442 170.694 177.186 172.751 181.703Z" fill="#0A3F64"/>
<path d="M173.682 205.71C173.551 205.763 173.359 205.789 173.193 205.754L125.352 190.661C125.003 190.548 124.786 190.131 124.9 189.783C125.015 189.436 125.434 189.218 125.783 189.33L173.65 204.363C173.999 204.476 174.216 204.893 174.102 205.24C173.996 205.484 173.856 205.641 173.682 205.71Z" fill="#EBDB40"/>
<path d="M174.504 196.866C174.373 196.918 174.181 196.944 174.016 196.91L134.587 184.501C134.238 184.388 134.021 183.971 134.135 183.623C134.249 183.275 134.669 183.058 135.017 183.17L174.446 195.579C174.795 195.692 175.012 196.109 174.898 196.457C174.863 196.622 174.723 196.778 174.504 196.866Z" fill="#EBDB40"/>
<path d="M172.78 187.986C172.649 188.038 172.457 188.064 172.291 188.03L146.47 179.907C146.122 179.795 145.905 179.378 146.019 179.03C146.133 178.682 146.552 178.464 146.901 178.577L172.722 186.7C173.071 186.812 173.288 187.229 173.173 187.577C173.095 187.76 172.955 187.916 172.78 187.986Z" fill="#EBDB40"/>
<path d="M169.783 178.706C169.652 178.758 169.46 178.784 169.294 178.75L157.308 174.974C156.959 174.862 156.742 174.445 156.856 174.097C156.97 173.749 157.39 173.531 157.738 173.644L169.725 177.419C170.073 177.532 170.29 177.949 170.176 178.297C170.158 178.505 170.001 178.619 169.783 178.706Z" fill="#EBDB40"/>
<path d="M166.73 213.019C166.599 213.072 166.407 213.098 166.224 213.02L129.394 200.782C129.045 200.669 128.828 200.252 128.942 199.904C129.057 199.557 129.476 199.339 129.825 199.451L166.671 211.733C167.02 211.846 167.237 212.263 167.123 212.611C167.061 212.837 166.904 212.95 166.73 213.019Z" fill="#EBDB40"/>
<path d="M151.678 217.92C151.547 217.973 151.355 217.999 151.172 217.921L136.868 213.157C136.519 213.045 136.302 212.628 136.416 212.28C136.53 211.932 136.95 211.714 137.298 211.827L151.647 216.573C151.995 216.686 152.212 217.103 152.098 217.451C152.037 217.677 151.853 217.851 151.678 217.92Z" fill="#EBDB40"/>
<path d="M152.488 177.103C152.138 177.242 151.729 177.104 151.59 176.756C142.043 155.385 140.91 139.62 141.621 130.119C141.675 129.745 141.667 129.345 141.72 128.971C136.671 131.793 131.161 134.346 126.315 136.282C122.735 137.711 119.059 139.028 115.515 140.041C115.654 140.136 115.75 140.249 115.889 140.344C122.932 146.699 132.988 158.951 140.789 181.019C140.927 181.367 140.726 181.749 140.333 181.906C139.984 182.046 139.557 181.864 139.444 181.455C131.661 159.431 121.587 147.135 113.856 140.451C105.031 142.817 97.5101 143.252 95.8705 139.273C94.9164 136.884 94.9121 134.971 95.936 133.606C97.7211 131.231 101.847 131.547 102.012 131.582L102.117 131.591C102.344 131.651 107.339 133.132 114.183 138.86C117.683 137.865 121.568 136.565 125.759 134.892C131.741 132.503 137.243 129.802 141.855 127.154C142.895 118.731 145.391 114.46 145.514 114.26L145.61 114.121C145.794 113.947 149.913 109.431 153.445 110.035C154.962 110.285 156.068 111.405 156.813 113.273C158.461 117.4 151.74 123.005 143.153 127.996C143.073 128.683 143.028 129.456 142.965 130.187C142.272 139.479 143.448 154.975 152.813 176.016C153.004 176.494 152.863 176.902 152.488 177.103C152.488 177.103 152.531 177.085 152.488 177.103ZM98.5185 133.481C97.9509 133.708 97.4617 134.004 97.1029 134.5C96.4116 135.43 96.4344 136.882 97.1977 138.793C98.2558 141.443 104.066 141.54 112.533 139.418C106.699 134.697 102.419 133.233 101.843 133.06C101.512 132.991 99.8719 132.94 98.5185 133.481ZM146.707 115.093C146.453 115.597 144.464 119.363 143.445 126.318C151.691 121.363 156.614 116.576 155.556 113.927C154.983 112.493 154.226 111.738 153.232 111.53C150.947 111.133 147.818 113.944 146.707 115.093Z" fill="#0A3F64"/>
<path d="M99.0507 57.8695C98.7014 58.009 98.2744 57.827 98.1356 57.4795L89.514 35.8904C89.3752 35.5428 89.5594 35.1167 89.9087 34.9772C90.2579 34.8378 90.685 35.0198 90.8237 35.3673L99.4453 56.9564C99.5841 57.304 99.3999 57.7301 99.0507 57.8695Z" fill="#0A3F64"/>
<path d="M58.1289 91.2834C57.9543 91.3531 57.7623 91.3794 57.6229 91.284L36.0346 82.4785C35.6685 82.3224 35.5124 81.9315 35.6703 81.5662C35.8281 81.201 36.2211 81.0441 36.5871 81.2001L58.1318 90.0231C58.4979 90.1791 58.654 90.57 58.4961 90.9353C58.4608 91.1005 58.3035 91.2136 58.1289 91.2834Z" fill="#0A3F64"/>
<path d="M54.8987 141.379C54.8551 141.397 54.8551 141.397 54.8114 141.414L32.1863 147.125C31.8197 147.221 31.419 146.978 31.3238 146.613C31.2287 146.248 31.4739 145.848 31.8405 145.752L54.4656 140.041C54.8322 139.945 55.233 140.188 55.3281 140.553C55.4059 140.875 55.248 141.24 54.8987 141.379Z" fill="#0A3F64"/>
<path d="M60.5111 200.94C60.2928 201.028 60.0224 200.985 59.8047 200.82C59.5086 200.585 59.4398 200.159 59.7197 199.846L74.1909 181.576C74.4271 181.28 74.8548 181.21 75.1682 181.488C75.4642 181.723 75.5331 182.148 75.2532 182.462L60.782 200.732C60.712 200.81 60.642 200.888 60.5111 200.94Z" fill="#0A3F64"/>
<path d="M147.484 54.541C147.309 54.6108 147.1 54.5937 146.917 54.5156C146.551 54.3596 146.395 53.9687 146.552 53.6034L156.093 32.3667C156.251 32.0014 156.644 31.8445 157.01 32.0005C157.376 32.1565 157.532 32.5475 157.374 32.9127L147.834 54.1495C147.755 54.3321 147.615 54.4887 147.484 54.541Z" fill="#0A3F64"/>
<path d="M184.272 88.6058C183.966 88.7278 183.574 88.6327 183.391 88.3026C183.209 87.9725 183.332 87.5204 183.664 87.3375L204.017 75.9359C204.349 75.753 204.802 75.8741 204.984 76.2042C205.167 76.5343 205.044 76.9864 204.712 77.1693L184.377 88.6143C184.316 88.5883 184.316 88.5883 184.272 88.6058Z" fill="#0A3F64"/>
<path d="M221.23 135.646C221.099 135.698 220.994 135.69 220.89 135.681L197.771 132.423C197.396 132.371 197.108 132.033 197.162 131.659C197.215 131.285 197.556 130.998 197.931 131.049L221.006 134.325C221.381 134.377 221.668 134.716 221.615 135.089C221.658 135.324 221.492 135.541 221.23 135.646Z" fill="#0A3F64"/>
</g>
<defs>
<clipPath id="clip0">
<rect width="187.435" height="195.845" fill="white" transform="translate(0.932129 70.5078) rotate(-21.7692)"/>
</clipPath>
</defs>
</svg>
