<svg width="457" height="457" viewBox="0 0 457 457" fill="none" xmlns="http://www.w3.org/2000/svg">
<g clip-path="url(#clip0)">
<path d="M196.621 42.9122C194.302 45.0459 191.343 46.2727 188.157 46.449C184.503 46.6237 181.022 45.3792 178.299 42.9267C175.575 40.4742 173.965 37.1157 173.731 33.4754C173.517 29.8157 174.724 26.3451 177.145 23.6453C179.566 20.9455 182.905 19.3696 186.54 19.1736C190.194 18.9989 193.675 20.2434 196.398 22.6959C202.023 27.7521 202.544 36.4013 197.552 41.9773C197.255 42.2896 196.937 42.6212 196.621 42.9122ZM178.685 23.3304C178.39 23.6019 178.093 23.9142 177.817 24.2071C175.545 26.7304 174.428 30.0012 174.609 33.4148C174.812 36.809 176.327 39.9794 178.894 42.2615C181.439 44.5629 184.719 45.7163 188.128 45.5709C191.517 45.4042 194.669 43.9213 196.921 41.3767C201.615 36.1537 201.135 28.0569 195.845 23.3224C193.3 21.0209 190.02 19.8675 186.611 20.0129C183.609 20.1775 180.836 21.3519 178.685 23.3304Z" fill="black"/>
<path d="M202.653 50.2292C202.358 50.5007 201.985 50.6463 201.577 50.6679C201.128 50.6875 200.665 50.523 200.35 50.2227L197.824 47.9426C196.425 48.8758 194.911 49.5998 193.302 50.1357L193.504 53.5299C193.529 53.9796 193.369 54.4411 193.073 54.7533C192.775 55.1063 192.36 55.2907 191.89 55.3297L186.5 55.6062C185.561 55.6436 184.731 54.9113 184.684 53.9712L184.497 50.7205C182.634 50.3881 180.822 49.7727 179.162 48.8994L176.911 51.4033C176.613 51.7563 176.198 51.9407 175.728 51.9797C175.279 51.9994 174.816 51.8349 174.501 51.5346L170.455 47.8984C170.099 47.5962 169.911 47.1796 169.867 46.7085C169.842 46.2588 170.002 45.7974 170.298 45.4851L172.508 43.02C171.423 41.4602 170.588 39.749 170.024 37.9078L166.696 38.057C166.247 38.0767 165.784 37.9122 165.469 37.6119C165.113 37.3097 164.925 36.893 164.881 36.422L164.547 31.0235C164.523 30.5738 164.682 30.1124 164.979 29.8001C165.277 29.4471 165.691 29.2627 166.161 29.2237L169.529 29.0763C169.857 27.3586 170.448 25.6738 171.259 24.1012L168.714 21.7997C168.358 21.4975 168.169 21.0809 168.125 20.6099C168.101 20.1601 168.26 19.6987 168.557 19.3864L172.108 15.3329C172.406 14.98 172.82 14.7956 173.29 14.7565C173.739 14.7369 174.202 14.9014 174.517 15.2017L177.023 17.4605C178.592 16.3721 180.312 15.5763 182.146 15.0305L181.939 11.7585C181.891 10.8183 182.614 9.99601 183.553 9.95863L188.943 9.68217C189.392 9.66252 189.855 9.82703 190.17 10.1273C190.526 10.4295 190.715 10.8462 190.759 11.3172L190.963 14.6706C192.743 15.0399 194.474 15.6514 196.072 16.5422L198.281 14.0771C198.579 13.7241 198.993 13.5397 199.463 13.5007C199.912 13.481 200.375 13.6455 200.69 13.9458L204.736 17.582C205.092 17.8842 205.281 18.3009 205.325 18.7719C205.349 19.2216 205.19 19.683 204.893 19.9953L202.642 22.4992C203.609 23.9312 204.348 25.4544 204.88 27.0902L208.248 26.9428C209.187 26.9054 210.016 27.6377 210.063 28.5778L210.397 33.9763C210.421 34.426 210.262 34.8875 209.965 35.1997C209.667 35.5527 209.253 35.7371 208.783 35.7762L205.537 35.9292C205.202 37.8505 204.585 39.6769 203.667 41.3872L206.173 43.646C206.529 43.9482 206.718 44.3648 206.762 44.8359C206.786 45.2856 206.627 45.747 206.33 46.0593L202.74 50.0701C202.737 50.1516 202.695 50.1904 202.653 50.2292ZM192.591 49.4906C192.655 49.4324 192.738 49.3956 192.82 49.3587C194.49 48.8459 196.046 48.0832 197.488 47.1112C197.697 46.9579 198.023 46.9733 198.22 47.1457L200.924 49.5769C201.28 49.8791 201.81 49.8633 202.149 49.5122L205.739 45.5013C205.888 45.3249 205.957 45.1038 205.945 44.879C205.933 44.6541 205.818 44.4448 205.661 44.2743L202.997 41.8857C202.78 41.692 202.749 41.4051 202.88 41.1666C203.841 39.4176 204.48 37.531 204.795 35.5885C204.846 35.3055 205.057 35.1115 205.343 35.0842L208.814 34.9213C209.038 34.9115 209.246 34.7989 209.415 34.6437C209.564 34.4672 209.633 34.2462 209.621 34.0213L209.287 28.6229C209.275 28.398 209.16 28.1887 209.003 28.0182C208.826 27.8671 208.604 27.7955 208.379 27.8054L204.806 27.9838C204.541 27.9917 204.282 27.8368 204.211 27.548C203.681 25.8715 202.923 24.2863 201.917 22.8117C201.762 22.6005 201.773 22.2748 201.944 22.079L204.323 19.418C204.621 19.065 204.6 18.5339 204.245 18.191L200.199 14.5548C200.022 14.4037 199.8 14.3321 199.575 14.3419C199.351 14.3517 199.143 14.4643 198.974 14.6195L196.637 17.2417C196.446 17.4569 196.16 17.4842 195.92 17.3506C194.283 16.4172 192.492 15.7824 190.65 15.4307C190.367 15.3766 190.192 15.1441 190.181 14.8785L189.984 11.3215C189.972 11.0967 189.857 10.8874 189.7 10.7169C189.523 10.5658 189.301 10.4942 189.076 10.504L183.686 10.7805C183.216 10.8195 182.835 11.2094 182.879 11.6804L183.098 15.1773C183.109 15.4429 182.957 15.7008 182.669 15.7688C180.775 16.2913 179.012 17.1259 177.443 18.255C177.212 18.4277 176.908 18.3929 176.71 18.2205L173.984 15.8494C173.806 15.6983 173.585 15.6267 173.36 15.6366C173.136 15.6464 172.928 15.7589 172.759 15.9141L169.169 19.925C169.02 20.1015 168.951 20.3225 168.963 20.5473C168.975 20.7722 169.09 20.9815 169.247 21.152L171.95 23.5832C172.148 23.7556 172.198 24.0638 172.067 24.3023C171.214 25.9137 170.601 27.618 170.292 29.3977C170.241 29.6807 170.03 29.8747 169.745 29.8613L166.172 30.0398C165.948 30.0496 165.74 30.1621 165.571 30.3173C165.422 30.4938 165.353 30.7148 165.365 30.9397L165.699 36.3382C165.711 36.563 165.826 36.7723 165.983 36.9428C166.161 37.0939 166.382 37.1655 166.607 37.1557L170.159 36.9966C170.424 36.9887 170.683 37.1436 170.754 37.4324C171.318 39.3143 172.151 41.0662 173.274 42.6687C173.449 42.9012 173.418 43.2056 173.248 43.4015L170.89 46.0431C170.74 46.2195 170.671 46.4406 170.683 46.6654C170.696 46.8903 170.81 47.0996 170.967 47.2701L175.013 50.9062C175.191 51.0573 175.413 51.1289 175.637 51.1191C175.862 51.1093 176.069 50.9967 176.238 50.8416L178.639 48.1612C178.809 47.9653 179.116 47.9186 179.356 48.0522C181.074 48.9894 182.906 49.6261 184.831 49.941C185.114 49.9951 185.31 50.2082 185.34 50.4951L185.561 53.9513C185.573 54.1761 185.688 54.3854 185.845 54.5559C186.023 54.707 186.244 54.7786 186.469 54.7688L191.859 54.4923C192.084 54.4825 192.292 54.37 192.46 54.2148C192.61 54.0383 192.679 53.8173 192.667 53.5924L192.471 49.9947C192.397 49.7873 192.465 49.607 192.591 49.4906Z" fill="black"/>
<path d="M173.945 72.4699C172.617 73.6919 170.92 74.3868 169.083 74.4635C164.859 74.6113 161.249 71.3219 161.037 67.0709C160.844 62.8413 164.092 59.2629 168.338 59.0957C172.562 58.9478 176.172 62.2373 176.384 66.4882C176.473 68.5313 175.79 70.4973 174.41 72.0024C174.242 72.1576 174.093 72.3341 173.945 72.4699ZM164.064 61.7287C162.651 63.0283 161.807 64.9459 161.894 67.0297C162.084 70.7903 165.279 73.7136 169.033 73.6048C170.849 73.5475 172.529 72.7498 173.759 71.4212C174.989 70.0927 175.603 68.3477 175.527 66.5294C175.337 62.7689 172.142 59.8456 168.388 59.9544C166.714 60.0387 165.203 60.6812 164.064 61.7287Z" fill="black"/>
<path d="M177.263 76.4996C177.073 76.6741 176.825 76.7848 176.56 76.7927C176.254 76.7987 175.972 76.7038 175.735 76.4888L174.512 75.371C173.697 75.924 172.807 76.3102 171.879 76.6132L171.96 78.3093C171.969 78.6156 171.877 78.8967 171.665 79.1314C171.453 79.3661 171.183 79.4961 170.877 79.5021L167.917 79.6279C167.611 79.6339 167.329 79.539 167.093 79.324C166.856 79.109 166.723 78.8377 166.714 78.5314L166.633 76.8353C165.804 76.6535 165.02 76.3516 164.259 75.9895L163.113 77.2405C162.688 77.7099 161.974 77.7374 161.5 77.3074L159.314 75.2267C159.077 75.0117 158.944 74.7404 158.935 74.4341C158.926 74.1278 159.017 73.8467 159.23 73.612L160.313 72.4192C159.771 71.6189 159.374 70.7643 159.061 69.8321L157.368 69.8951C157.062 69.9011 156.78 69.8063 156.543 69.5912C156.306 69.3762 156.174 69.1049 156.164 68.7986L156.007 65.8348C155.998 65.5285 156.09 65.2473 156.302 65.0127C156.514 64.778 156.784 64.648 157.09 64.642L158.743 64.577C158.94 63.6484 159.259 62.7255 159.697 61.8897L158.454 60.7506C158.217 60.5356 158.085 60.2643 158.075 59.958C158.066 59.6517 158.158 59.3706 158.37 59.1359L160.344 56.9656C160.557 56.7309 160.826 56.6009 161.132 56.5949C161.438 56.5889 161.72 56.6837 161.957 56.8988L163.219 58.0592C163.95 57.5838 164.778 57.2151 165.623 56.949L165.544 55.2122C165.506 54.5783 165.994 54.0507 166.627 54.0194L169.586 53.8936C170.219 53.8622 170.752 54.3562 170.79 54.9901L170.871 56.6862C171.801 56.8931 172.726 57.2221 173.585 57.6907L174.689 56.4785C175.114 56.0091 175.828 55.9816 176.302 56.4116L178.491 58.4109C178.728 58.6259 178.861 58.8972 178.87 59.2035C178.879 59.5098 178.788 59.7909 178.575 60.0256L177.45 61.2572C177.932 62.0342 178.329 62.8889 178.582 63.7571L180.235 63.6922C180.541 63.6862 180.823 63.781 181.06 63.9961C181.297 64.2111 181.43 64.4824 181.439 64.7887L181.596 67.7525C181.605 68.0588 181.514 68.34 181.301 68.5746C181.089 68.8093 180.819 68.9393 180.513 68.9453L178.819 69.0084C178.647 69.8362 178.352 70.6583 177.979 71.3951L179.241 72.5555C179.478 72.7706 179.61 73.0419 179.62 73.3481C179.629 73.6544 179.537 73.9356 179.325 74.1702L177.351 76.3405C177.326 76.4414 177.284 76.4802 177.263 76.4996ZM171.168 75.9681C171.232 75.9099 171.315 75.873 171.376 75.8555C172.405 75.5777 173.38 75.1139 174.237 74.5221C174.426 74.3883 174.71 74.4017 174.888 74.5528L176.309 75.843C176.368 75.9069 176.428 75.9301 176.509 75.934C176.591 75.9378 176.633 75.899 176.696 75.8408L178.67 73.6705C178.734 73.6123 178.756 73.5522 178.759 73.4708C178.762 73.3894 178.723 73.3467 178.664 73.2828L177.204 71.95C177.026 71.7989 176.975 71.5314 177.085 71.3123C177.523 70.4765 177.84 69.5943 178.037 68.6657C178.087 68.4234 178.276 68.2488 178.521 68.2603L180.48 68.1894C180.561 68.1932 180.603 68.1544 180.666 68.0962C180.73 68.038 180.752 67.9779 180.755 67.8965L180.598 64.9326C180.583 64.7892 180.465 64.6613 180.302 64.6537L178.384 64.7265C178.14 64.715 177.921 64.562 177.868 64.3352C177.598 63.3642 177.183 62.4476 176.602 61.6047C176.466 61.4148 176.477 61.1298 176.645 60.9746L177.962 59.5277C178.025 59.4696 178.047 59.4094 178.05 59.328C178.053 59.2466 178.014 59.204 177.955 59.1401L175.766 57.1408C175.668 57.0343 175.484 57.046 175.378 57.143L174.104 58.5511C173.955 58.7275 173.689 58.7762 173.469 58.6639C172.55 58.1313 171.565 57.7791 170.513 57.5665C170.27 57.5143 170.093 57.3225 170.102 57.0782L170.011 55.1165C169.995 54.9731 169.878 54.8452 169.715 54.8375L166.736 54.942C166.593 54.9557 166.466 55.072 166.46 55.2349L166.55 57.2373C166.563 57.4621 166.412 57.6793 166.165 57.7493C165.238 58.0115 164.327 58.4172 163.512 58.9701C163.324 59.104 163.039 59.0906 162.882 58.9201L161.422 57.5873C161.363 57.5233 161.303 57.5001 161.222 57.4963C161.14 57.4924 161.098 57.5312 161.035 57.5894L159.061 59.7597C158.997 59.8179 158.975 59.878 158.972 59.9594C158.969 60.0409 159.008 60.0835 159.067 60.1474L160.527 61.4802C160.705 61.6313 160.756 61.8988 160.646 62.1179C160.124 63.0313 159.782 64.0143 159.602 65.0456C159.553 65.288 159.363 65.4626 159.098 65.4705L157.139 65.5414C157.057 65.5376 156.994 65.5957 156.952 65.6345C156.889 65.6927 156.866 65.7528 156.863 65.8343L157.02 68.7981C157.017 68.8795 157.057 68.9221 157.115 68.9861C157.174 69.05 157.234 69.0732 157.316 69.0771L159.296 68.9868C159.521 68.9769 159.739 69.1299 159.833 69.3586C160.123 70.351 160.577 71.3102 161.198 72.1551C161.334 72.345 161.324 72.6299 161.175 72.8064L159.881 74.1932C159.818 74.2514 159.795 74.3115 159.792 74.3929C159.811 74.4549 159.848 74.5382 159.888 74.5809L162.077 76.5801C162.175 76.6867 162.359 76.6749 162.464 76.5779L163.781 75.1311C163.93 74.9546 164.196 74.906 164.416 75.0183C165.256 75.4656 166.121 75.7713 167.051 75.9782C167.294 76.0304 167.47 76.2222 167.462 76.4665L167.573 78.4495C167.57 78.5309 167.609 78.5735 167.668 78.6375C167.727 78.7014 167.787 78.7246 167.868 78.7284L170.828 78.6027C170.91 78.6065 170.952 78.5677 171.015 78.5095C171.078 78.4513 171.101 78.3912 171.104 78.3098L171.012 76.3481C170.997 76.2047 171.063 76.0651 171.168 75.9681Z" fill="black"/>
</g>
<g clip-path="url(#clip1)" filter="url(#filter0_d)">
<path d="M453.001 264.043H53.2559V400.043H453.001V264.043Z" fill="#F9F9F9"/>
<path d="M108.575 353.996C120.599 353.996 130.346 344.247 130.346 332.222C130.346 320.196 120.599 310.447 108.575 310.447C96.5503 310.447 86.8027 320.196 86.8027 332.222C86.8027 344.247 96.5503 353.996 108.575 353.996Z" fill="#F09700"/>
<path d="M4 332.217L76.4539 373.981V290.454L4 332.217L76.4539 373.981V290.454L4 332.217Z" fill="#F9F9F9"/>
<path d="M391.612 331.152H176.392C171.395 331.152 167.469 327.226 167.469 322.229C167.469 317.231 171.395 313.305 176.392 313.305H391.969C396.966 313.305 400.892 317.231 400.892 322.229C400.892 327.226 396.609 331.152 391.612 331.152Z" fill="#CCCCCC"/>
<path d="M296.315 360.06H176.392C171.395 360.06 167.469 356.134 167.469 351.136C167.469 346.139 171.395 342.212 176.392 342.212H296.315C301.312 342.212 305.238 346.139 305.238 351.136C305.238 356.134 300.955 360.06 296.315 360.06Z" fill="#CCCCCC"/>
</g>
<g clip-path="url(#clip2)">
<path d="M293.997 420.5C293.797 421.2 293.597 421.8 293.497 422.5C285.897 450.3 272.797 459 265.897 456.4C263.697 455.6 262.097 453.6 261.597 450.6C259.497 438.4 275.097 413 275.097 413C275.097 413 303.997 381.8 293.997 420.5Z" fill="#EBDB40"/>
<path d="M320.397 443.7C319.897 446.7 318.197 448.6 315.797 449.2C309.297 450.7 297.897 442.3 291.097 417.4C290.997 417 290.897 416.6 290.797 416.1C281.697 380.8 305.997 406.2 305.997 406.2C305.997 406.2 322.397 432.5 320.397 443.7Z" fill="#EBDB40"/>
<path d="M315.798 449.1C309.298 450.6 297.898 442.2 291.098 417.3L295.698 416.1C295.698 416.2 295.998 435.8 315.798 449.1Z" fill="#0A3F64"/>
<path d="M293.496 422.5C285.896 450.3 272.796 459 265.896 456.4C287.296 444.5 289.796 419.3 289.796 419.3L293.496 422.5Z" fill="#0A3F64"/>
<path d="M362.897 268.8C360.497 263.3 356.397 258 349.897 253.7C348.697 252.9 347.297 252.1 345.897 251.4C334.797 245.8 230.397 250.3 215.397 251C214.197 251 213.597 251.1 213.597 251.1C213.597 251.1 208.197 258.1 205.497 266C203.897 270.8 203.297 275.9 205.397 280.1C206.097 281.4 208.597 285.8 211.297 290.2L269.697 391.1L275.297 400.8L273.297 406.9L270.497 415.3L292.197 427.4L363.797 295.2C365.997 290.5 367.497 279.4 362.897 268.8ZM290.597 354.9L286.697 366.6L283.997 357.7L262.697 287.8L269.297 284.7L285.997 276.8L304.097 289L311.097 293.7L290.597 354.9Z" fill="#F8A127"/>
<path d="M362.898 268.8C329.198 264.2 310.498 281.5 304.098 289.1L285.998 276.9L269.298 284.8C253.998 273.8 225.998 268.6 205.498 266.1C208.198 258.2 213.598 251.2 213.598 251.2C213.598 251.2 214.198 251.2 215.398 251.1C230.398 250.4 334.898 245.9 345.898 251.5C347.298 252.2 348.698 253 349.898 253.8C356.398 258 360.498 263.3 362.898 268.8Z" fill="#F38704"/>
<path d="M267.297 83.9999C267.297 83.9999 268.297 110.4 265.897 113.4C263.597 116.4 251.297 123.3 251.297 123.3L292.997 149.6L317.997 123.8C317.997 123.8 304.597 117.9 303.297 114.4C301.497 109.6 301.897 83.8999 301.897 83.8999H267.297V83.9999Z" fill="white"/>
<path d="M293.296 151.5L248.396 123.2L250.596 122C255.396 119.3 263.096 114.6 264.696 112.5C265.896 110.8 266.196 96.4 265.696 84.1L268.696 84C268.896 90.3 269.496 111.2 266.996 114.4C265.096 116.8 257.896 121.2 254.096 123.4L292.696 147.7L315.396 124.3C310.996 122.3 303.096 118.2 301.896 115C300.096 110.1 300.296 86.7 300.396 84H303.396C303.296 91.1 303.396 110.2 304.696 113.9C305.296 115.7 312.396 119.7 318.596 122.4L320.596 123.3L293.296 151.5Z" fill="#0A3F64"/>
<path d="M273.998 30.3001C273.998 30.3001 257.498 32.8001 257.498 42.7001C257.498 54.0001 259.398 68.5001 260.498 76.1001C260.898 79.1001 263.498 81.3001 266.598 81.3001H300.698C303.798 81.3001 306.498 79.0001 306.798 75.9001C307.998 65.4001 310.298 43.3001 309.098 40.0001C304.898 28.5001 273.998 30.3001 273.998 30.3001Z" fill="#0A3F64"/>
<path d="M276.997 92.9C286.697 94 298.797 92.2 302.097 88.8C304.097 86.8 304.897 79.1 305.097 70.2C305.097 69.9 305.197 69.7 305.497 69.6C307.897 68.2 311.297 65.3 311.297 60.9C311.197 57.1 308.297 57.9 306.097 59.1C305.697 59.3 305.197 59 305.197 58.6C304.997 47.9 304.397 38.5 304.397 38.5H260.997C260.997 38.5 261.097 48 261.497 58.7C261.497 59.2 260.997 59.5 260.597 59.3C258.297 58 255.197 56.9 255.097 60.9C254.997 65.9 259.397 69 261.697 70.1C261.897 70.2 262.097 70.4 262.097 70.7C262.597 78.2 263.297 84.8 264.397 87.1C264.997 88.4 266.097 89.4 267.497 90.3L276.997 92.9Z" fill="white"/>
<path d="M282.798 94.7003C280.698 94.7003 278.598 94.6003 276.798 94.4003C275.998 94.3003 275.398 93.6003 275.498 92.7003C275.598 91.9003 276.298 91.3003 277.198 91.4003C287.398 92.6003 298.398 90.4003 301.098 87.8003C301.698 87.2003 303.298 84.1003 303.598 70.2003C303.598 69.4003 303.998 68.7003 304.698 68.3003C306.198 67.4003 309.798 64.9003 309.698 60.9003C309.698 60.0003 309.498 59.7003 309.398 59.6003C309.198 59.5003 308.398 59.5003 306.698 60.4003C305.998 60.8003 305.298 60.7003 304.598 60.4003C303.998 60.0003 303.598 59.4003 303.598 58.6003C303.498 50.5003 303.098 43.0003 302.898 40.0003H262.498C262.498 43.1003 262.698 50.6003 262.998 58.7003C262.998 59.5003 262.598 60.2003 261.998 60.6003C261.298 61.0003 260.498 61.0003 259.898 60.6003C257.998 59.5003 257.098 59.5003 256.898 59.7003C256.798 59.7003 256.598 60.1003 256.598 61.0003C256.498 65.9003 261.798 68.5003 262.398 68.8003C263.098 69.1003 263.598 69.9003 263.698 70.7003C264.398 81.5003 265.298 85.3003 265.798 86.6003C266.198 87.5003 267.098 88.3003 268.298 89.1003C268.998 89.5003 269.298 90.4003 268.798 91.2003C268.398 91.9003 267.498 92.2003 266.698 91.7003C264.898 90.7003 263.698 89.4003 262.998 87.9003C261.998 85.7003 261.198 80.3003 260.598 71.5003C257.198 69.7003 253.398 66.1003 253.498 61.1003C253.498 59.2003 254.198 57.9003 255.298 57.3003C256.498 56.6003 257.998 56.7003 259.798 57.6003C259.398 47.6003 259.398 38.9003 259.398 38.8003V37.3003H305.598L305.698 38.7003C305.698 38.8003 306.298 47.4003 306.498 57.5003C308.298 56.8003 309.698 56.7003 310.798 57.4003C311.998 58.1003 312.598 59.4003 312.598 61.2003C312.698 66.5003 308.598 69.7003 306.498 71.0003C306.098 85.5003 304.398 88.9003 303.098 90.2003C299.998 93.1003 290.998 94.7003 282.798 94.7003Z" fill="#0A3F64"/>
<path d="M260.098 39.6001C266.898 48.1001 297.098 56.5001 311.398 28.1001C325.698 -0.299872 285.098 22.1001 271.798 26.1001C266.098 27.9001 254.298 32.4001 260.098 39.6001Z" fill="#0A3F64"/>
<path d="M374.897 240.2C374.897 240.2 373.497 241.1 371.297 242.4C366.097 245.4 356.597 250.9 349.897 253.8C348.397 254.5 346.997 255 345.897 255.3C342.797 256.3 339.097 257.2 334.997 258C307.697 263.7 263.097 266.6 241.797 260.7C240.497 260.3 239.197 260 237.897 259.6C229.297 257 221.697 254 215.397 251C199.897 243.9 191.497 237 191.497 237C188.697 235 186.597 232.4 185.297 229.5C183.297 225 182.997 219.8 184.897 215L216.097 134L245.897 120.9C248.897 119.9 252.197 120.3 254.897 122C262.797 127 278.497 119.5 285.797 120.3C303.097 122.1 309.997 124.7 316.397 120.8C318.797 119.3 321.697 118.9 324.497 119.6L351.397 134.6L383.797 216.7C387.297 225.6 383.497 235.7 374.897 240.2Z" fill="#F2F2F2"/>
<path d="M274.597 265.5C261.497 265.5 249.597 264.5 241.297 262.3C239.997 261.9 238.697 261.6 237.397 261.2C229.597 258.9 221.897 255.9 214.697 252.6C199.697 245.6 191.297 239 190.597 238.4C187.697 236.3 185.397 233.5 183.997 230.3C181.697 225.3 181.597 219.8 183.497 214.6L214.997 133L245.497 119.6C248.897 118.4 252.697 118.9 255.797 120.8C260.197 123.6 267.897 121.9 274.697 120.4C278.997 119.5 283.097 118.6 286.097 118.9C290.597 119.4 294.297 119.9 297.597 120.3C306.797 121.6 311.497 122.2 315.797 119.6C318.497 117.9 321.897 117.5 324.997 118.3L325.397 118.4L352.797 133.7L352.997 134.2L385.397 216.3C389.197 226 385.197 236.9 375.897 241.7C375.597 241.9 374.297 242.7 372.297 243.9C367.097 246.9 357.497 252.5 350.697 255.4C349.097 256.1 347.697 256.7 346.497 257C343.297 258 339.597 258.9 335.497 259.8C317.997 263.1 294.897 265.5 274.597 265.5ZM217.297 135.1L186.297 215.6C184.597 220 184.797 224.7 186.697 228.9C187.897 231.7 189.897 234.1 192.397 235.8C192.597 235.9 200.997 242.7 215.997 249.7C223.097 253 230.697 255.9 238.297 258.2C239.597 258.6 240.797 258.9 242.197 259.3C262.797 264.9 306.697 262.4 334.697 256.5C338.697 255.7 342.397 254.7 345.397 253.8C346.397 253.5 347.697 253 349.197 252.3C355.797 249.4 365.397 243.9 370.497 240.9C372.697 239.6 374.097 238.7 374.097 238.7L374.197 238.6C382.097 234.5 385.597 225.2 382.297 216.9L350.097 135.6L323.897 121C321.597 120.5 319.197 120.8 317.197 122C311.897 125.2 306.597 124.4 296.997 123.1C293.697 122.7 289.997 122.1 285.597 121.7C283.097 121.4 279.297 122.3 275.197 123.2C267.797 124.8 259.497 126.6 253.997 123.2C251.697 121.8 248.897 121.4 246.397 122.2L217.297 135.1Z" fill="#0A3F64"/>
<path d="M247.697 175.1C246.897 174.8 246.097 175.2 245.797 176L231.997 214.6L220.097 208.4C219.397 208 218.497 208.3 218.097 209C217.697 209.7 217.997 210.6 218.697 211L242.897 223.7C243.097 223.8 243.397 223.9 243.597 223.9C244.097 223.9 244.697 223.6 244.897 223.1C245.297 222.4 244.997 221.5 244.297 221.1L234.597 216L248.597 177C248.897 176.2 248.497 175.4 247.697 175.1Z" fill="#0A3F64"/>
<path d="M352.998 209C352.598 208.3 351.698 208 350.998 208.4L339.198 214.6L325.298 176C324.998 175.2 324.198 174.8 323.398 175.1C322.598 175.4 322.198 176.2 322.498 177L336.498 216L326.898 221.1C326.198 221.5 325.898 222.4 326.298 223.1C326.598 223.6 327.098 223.9 327.598 223.9C327.798 223.9 328.098 223.8 328.298 223.7L352.498 211C353.098 210.7 353.398 209.8 352.998 209Z" fill="#0A3F64"/>
<path d="M296.096 127L287.096 121.1L276.896 126.1L282.696 134.7L273.396 237.2L287.496 264L299.896 237.2L289.196 135.2L296.096 127Z" fill="#F8A127"/>
<path d="M223.998 187.8L237.998 257H334.798L345.898 187.8H223.998Z" fill="#D9F6F7"/>
<path d="M336.098 258.5H236.798L222.098 186.3H347.598L336.098 258.5ZM239.298 255.5H333.598L344.198 189.3H225.798L239.298 255.5Z" fill="#0A3F64"/>
<path d="M334.996 257H237.896V264.5H334.996V257Z" fill="#00B7C5"/>
<path d="M336.496 266H236.396V255.5H336.496V266ZM239.396 263H333.496V258.5H239.396V263Z" fill="#0A3F64"/>
<path d="M275.997 365.2C275.397 365.2 274.797 364.8 274.597 364.2L245.297 276.1L278.497 263.2C279.297 262.9 280.097 263.3 280.397 264.1C280.697 264.9 280.297 265.7 279.497 266L249.097 277.8L277.497 363.2C277.797 364 277.297 364.8 276.497 365.1C276.297 365.2 276.197 365.2 275.997 365.2Z" fill="#0A3F64"/>
<path d="M278.997 413.5C278.797 413.5 278.597 413.5 278.397 413.4C277.597 413.1 277.297 412.2 277.597 411.5L329.097 282L296.597 265.9C295.897 265.5 295.597 264.6 295.897 263.9C296.297 263.2 297.197 262.9 297.897 263.2L332.897 280.6L280.397 412.6C280.197 413.1 279.597 413.5 278.997 413.5Z" fill="#0A3F64"/>
<path d="M286.698 366.7L275.198 400.9L269.598 391.2L283.998 357.8L286.698 366.7Z" fill="#EE7802"/>
<path d="M276.196 445.1C275.996 445.1 275.796 445.1 275.596 445L265.296 440.3C264.496 440 264.196 439.1 264.596 438.3C264.896 437.5 265.796 437.2 266.596 437.6L276.896 442.3C277.696 442.6 277.996 443.5 277.596 444.3C277.296 444.8 276.796 445.1 276.196 445.1Z" fill="#0A3F64"/>
<path d="M278.798 437.7C278.598 437.7 278.398 437.7 278.198 437.6L267.898 432.9C267.098 432.6 266.798 431.7 267.198 430.9C267.498 430.1 268.398 429.8 269.198 430.2L279.498 434.9C280.298 435.2 280.598 436.1 280.198 436.9C279.898 437.4 279.298 437.7 278.798 437.7Z" fill="#0A3F64"/>
<path d="M281.398 430.4C281.198 430.4 280.997 430.4 280.797 430.3L270.498 425.6C269.698 425.3 269.397 424.4 269.797 423.6C270.097 422.8 270.997 422.5 271.797 422.9L282.098 427.6C282.898 427.9 283.197 428.8 282.797 429.6C282.497 430 281.898 430.4 281.398 430.4Z" fill="#0A3F64"/>
<path d="M306.397 437.7C305.797 437.7 305.297 437.4 304.997 436.8C304.697 436 304.997 435.2 305.697 434.8L315.997 430.1C316.797 429.8 317.597 430.1 317.997 430.8C318.297 431.6 317.997 432.4 317.297 432.8L306.997 437.5C306.897 437.7 306.597 437.7 306.397 437.7Z" fill="#0A3F64"/>
<path d="M303.197 430C302.597 430 302.097 429.7 301.797 429.1C301.497 428.3 301.797 427.5 302.497 427.1L312.797 422.4C313.597 422.1 314.397 422.4 314.797 423.1C315.097 423.9 314.797 424.7 314.097 425.1L303.797 429.8C303.697 430 303.497 430 303.197 430Z" fill="#0A3F64"/>
<path d="M299.496 422.7C298.896 422.7 298.396 422.4 298.096 421.8C297.796 421 298.096 420.2 298.796 419.8L309.096 415.1C309.896 414.8 310.696 415.1 311.096 415.8C311.396 416.6 311.096 417.4 310.396 417.8L300.096 422.5C299.996 422.6 299.696 422.7 299.496 422.7Z" fill="#0A3F64"/>
<path d="M284.696 234.6C289.833 234.6 293.996 230.436 293.996 225.3C293.996 220.164 289.833 216 284.696 216C279.56 216 275.396 220.164 275.396 225.3C275.396 230.436 279.56 234.6 284.696 234.6Z" fill="#F2F2F2"/>
<path d="M284.696 236.1C278.796 236.1 273.896 231.3 273.896 225.3C273.896 219.4 278.696 214.5 284.696 214.5C290.596 214.5 295.496 219.3 295.496 225.3C295.496 231.3 290.596 236.1 284.696 236.1ZM284.696 217.6C280.396 217.6 276.896 221.1 276.896 225.4C276.896 229.7 280.396 233.2 284.696 233.2C288.996 233.2 292.496 229.7 292.496 225.4C292.496 221.1 288.996 217.6 284.696 217.6Z" fill="#0A3F64"/>
<path d="M294.297 63.3999C293.497 63.3999 292.797 62.6999 292.797 61.8999V60.8999C292.797 60.0999 293.497 59.3999 294.297 59.3999C295.097 59.3999 295.797 60.0999 295.797 60.8999V61.8999C295.797 62.6999 295.097 63.3999 294.297 63.3999Z" fill="#0A3F64"/>
<path d="M274.197 63.3999C273.397 63.3999 272.697 62.6999 272.697 61.8999V60.8999C272.697 60.0999 273.397 59.3999 274.197 59.3999C274.997 59.3999 275.697 60.0999 275.697 60.8999V61.8999C275.697 62.6999 275.097 63.3999 274.197 63.3999Z" fill="#0A3F64"/>
<path d="M269.896 58.6999C269.396 58.6999 268.896 58.3999 268.596 57.9999C268.196 57.2999 268.396 56.3999 269.096 55.8999C272.996 53.4999 277.196 54.6999 277.396 54.6999C278.196 54.8999 278.696 55.6999 278.396 56.4999C278.196 57.2999 277.396 57.7999 276.596 57.4999C276.496 57.4999 273.396 56.6999 270.596 58.3999C270.396 58.6999 270.196 58.6999 269.896 58.6999Z" fill="#0A3F64"/>
<path d="M298.497 58.6999C298.197 58.6999 297.997 58.5999 297.697 58.4999C294.897 56.7999 291.797 57.5999 291.697 57.5999C290.897 57.7999 290.097 57.2999 289.897 56.4999C289.697 55.6999 290.097 54.8999 290.897 54.6999C291.097 54.6999 295.297 53.4999 299.197 55.8999C299.897 56.2999 300.097 57.1999 299.697 57.9999C299.497 58.4999 298.997 58.6999 298.497 58.6999Z" fill="#0A3F64"/>
<path d="M283.897 74.1999C283.197 74.1999 282.497 73.6999 282.397 72.8999C282.297 72.0999 282.797 71.2999 283.597 71.1999C284.897 70.9999 286.297 70.5999 287.097 70.2999C286.397 69.3999 285.197 67.7999 283.797 64.2999C283.497 63.4999 283.897 62.6999 284.697 62.3999C285.497 62.0999 286.297 62.4999 286.597 63.2999C287.897 66.6999 288.897 67.8999 289.597 68.6999C290.097 69.2999 290.697 69.9999 290.497 71.0999C290.397 71.6999 290.097 73.1999 284.097 74.1999C284.097 74.1999 283.997 74.1999 283.897 74.1999Z" fill="#0A3F64"/>
<path d="M291.797 76.1002C292.497 77.1002 289.097 80.4002 285.197 80.2002C278.797 79.9002 276.897 75.6002 278.397 75.9002C278.997 76.0002 281.297 77.3002 285.097 77.4002C289.297 77.5002 291.397 75.4002 291.797 76.1002Z" fill="#0A3F64"/>
<path d="M248.398 248.4C247.698 248.4 247.098 247.9 246.898 247.2L236.998 197C236.798 196.2 237.398 195.4 238.198 195.2C238.998 195 239.798 195.6 239.998 196.4L249.898 246.6C250.098 247.4 249.498 248.2 248.698 248.4C248.598 248.4 248.498 248.4 248.398 248.4Z" fill="#F2F2F2"/>
<path d="M285.797 120.2L268.697 129.9L245.697 120.9L260.797 114.3L285.797 120.2Z" fill="#F2F2F2"/>
<path d="M285.797 120.2L303.697 131.4L322.697 120L312.397 114.1L285.797 120.2Z" fill="#F2F2F2"/>
<path d="M325.597 120L312.597 112.6L285.697 118.8L260.597 112.8L241.797 121L268.797 131.6L285.697 122L303.697 133.2L325.597 120ZM268.497 128.3L249.497 120.9L260.797 115.9L281.597 120.8L268.497 128.3ZM312.197 115.7L319.697 120L303.697 129.6L289.597 120.8L312.197 115.7Z" fill="#0A3F64"/>
</g>
<g clip-path="url(#clip3)">
<path d="M387.032 113.223C377.068 113.223 369 105.165 369 95.3031C369 85.4412 377.068 77.4233 387.032 77.4233C391.51 77.4233 395.826 79.067 399.134 82.0737C399.376 82.3142 399.416 82.675 399.174 82.9155C398.932 83.1561 398.569 83.1962 398.327 82.9556C395.221 80.1494 391.187 78.626 387.032 78.626C377.754 78.626 370.21 86.0826 370.21 95.3031C370.21 104.524 377.754 112.02 387.032 112.02C396.31 112.02 403.854 104.524 403.854 95.3031C403.854 92.3365 403.047 89.41 401.554 86.8844C401.393 86.6037 401.473 86.2429 401.756 86.0425C402.038 85.8821 402.401 85.9623 402.603 86.2429C404.217 88.969 405.064 92.0959 405.064 95.3031C405.023 105.165 396.955 113.223 387.032 113.223Z" fill="black"/>
<path d="M401.514 78.5456C401.191 78.6258 400.989 78.9465 401.07 79.2672C401.151 79.5879 401.473 79.7884 401.796 79.7082L404.499 79.0668L385.902 97.5879L377.35 91.2137C377.068 91.0133 376.705 91.0534 376.503 91.334C376.301 91.6146 376.342 91.9754 376.624 92.1759L385.983 99.1514L405.507 79.7483L405.225 82.4342C405.185 82.755 405.427 83.0757 405.749 83.0757C405.79 83.0757 405.79 83.0757 405.83 83.0757C406.153 83.0757 406.395 82.8351 406.435 82.5545L407 77.2227L401.514 78.5456Z" fill="black"/>
</g>
<defs>
<filter id="filter0_d" x="0" y="263.043" width="457" height="144" filterUnits="userSpaceOnUse" color-interpolation-filters="sRGB">
<feFlood flood-opacity="0" result="BackgroundImageFix"/>
<feColorMatrix in="SourceAlpha" type="matrix" values="0 0 0 0 0 0 0 0 0 0 0 0 0 0 0 0 0 0 127 0"/>
<feOffset dy="3"/>
<feGaussianBlur stdDeviation="2"/>
<feColorMatrix type="matrix" values="0 0 0 0 0 0 0 0 0 0 0 0 0 0 0 0 0 0 0.1 0"/>
<feBlend mode="normal" in2="BackgroundImageFix" result="effect1_dropShadow"/>
<feBlend mode="normal" in="SourceGraphic" in2="effect1_dropShadow" result="shape"/>
</filter>
<clipPath id="clip0">
<rect width="72.4849" height="48.5049" fill="white" transform="translate(135.336 49.1621) rotate(-42.6121)"/>
</clipPath>
<clipPath id="clip1">
<rect width="449" height="136" fill="white" transform="translate(4 264.043)"/>
</clipPath>
<clipPath id="clip2">
<rect width="204.5" height="442.8" fill="white" transform="translate(182.098 14)"/>
</clipPath>
<clipPath id="clip3">
<rect width="38" height="36" fill="white" transform="translate(369 77.2227)"/>
</clipPath>
</defs>
</svg>
