<svg width="602" height="599" viewBox="0 0 602 599" fill="none" xmlns="http://www.w3.org/2000/svg">
<path d="M177.196 311.142C166.541 303.806 135.71 341.922 130.42 332.696C125.13 323.469 118.783 258.43 110.47 258.279C102.233 258.203 98.8328 293.975 84.475 305.167C70.7973 315.906 27.9506 254.271 15.0286 263.724C39.8902 292.008 140.697 407.264 174.627 459.975C175.005 460.58 174.854 461.412 174.249 461.79C174.022 461.942 173.796 462.017 173.569 462.017C173.115 462.017 172.738 461.79 172.435 461.412C138.657 409.003 38.53 294.429 13.2905 265.766C3.39122 282.631 47.6737 320.595 49.3362 344.493C50.9986 368.543 3.92019 345.401 0.595227 367.106C-2.8053 388.811 74.5001 385.786 83.2659 403.936C92.0317 422.086 46.0112 420.196 38.1522 437.212C30.2932 454.228 181.352 472 181.352 472C181.352 472 187.851 318.478 177.196 311.142Z" fill="#D9F6F7"/>
<path d="M476.544 157.96C495.551 127.814 511.24 105.427 522.403 89.9104C539.902 78.1625 616.232 24.964 599.337 3.46301C584.252 -15.5998 542.617 48.9033 526.023 78.3841C513.955 94.122 494.344 121.165 469.605 161.063C474.13 143.331 491.328 67.9661 460.252 58.2131C426.763 47.795 462.364 151.754 468.096 163.502C448.184 195.421 425.255 235.319 399.912 283.641C407.756 249.949 425.255 158.847 384.827 146.212C338.968 132.026 385.128 269.898 395.084 292.951C375.474 330.633 354.958 373.414 333.537 421.292L337.761 422.401C358.88 374.965 379.396 332.628 398.705 295.389C419.522 288.518 567.055 238.866 556.194 202.957C545.936 168.156 425.255 268.79 400.515 291.621C427.668 239.309 452.106 196.972 472.924 163.502C493.138 156.852 590.286 123.159 583.045 98.3335C576.106 75.5025 500.379 136.681 476.544 157.96Z" fill="#D9F6F7"/>
<path d="M443.749 136.347H437.162V205.966H443.749V136.347Z" fill="#0A3F64"/>
<path d="M442.39 56.3651H437.637V60.293H442.119C442.119 60.293 442.119 56.0942 442.39 56.3651Z" fill="#226DA1"/>
<path d="M436.754 529.337V535.093H441.711V529.066C441.779 529.066 436.754 528.524 436.754 529.337Z" fill="#226DA1"/>
<g filter="url(#filter0_d)">
<path d="M389.218 590.625H207.697C179.108 590.625 155.883 567.464 155.883 538.953V56.9064C155.883 28.3954 179.108 5.23438 207.697 5.23438H389.218C417.808 5.23438 441.033 28.3954 441.033 56.9064V538.953C441.033 567.464 417.808 590.625 389.218 590.625Z" fill="#0A3F64"/>
<path d="M381.545 578.775H212.383C187.732 578.775 167.699 558.797 167.699 534.214V63.0026C167.699 38.4195 187.732 18.4414 212.383 18.4414H381.545C406.196 18.4414 426.229 38.4195 426.229 63.0026V534.146C426.161 558.797 406.196 578.775 381.545 578.775Z" fill="white"/>
<path d="M381.545 129.576H212.383C187.732 129.576 167.699 109.597 167.699 85.0143V63.0026C167.699 38.4195 187.732 18.4414 212.383 18.4414H381.545C406.196 18.4414 426.229 38.4195 426.229 63.0026V84.9466C426.161 109.597 406.196 129.576 381.545 129.576Z" fill="#F38704"/>
<path d="M156.494 175.625H153.506V217.613H156.494V175.625Z" fill="#0A3F64"/>
<path d="M159.008 122.125H153.371V164.858H159.008V122.125Z" fill="#0A3F64"/>
<path d="M157.92 79.5234H152.895V103.226H157.92V79.5234Z" fill="#0A3F64"/>
<path d="M337.471 37.4023H256.116C238.664 37.4023 224.471 23.3161 224.471 5.84375H369.049C369.117 23.2484 354.924 37.4023 337.471 37.4023Z" fill="#0A3F64"/>
<path d="M312.452 26.5635H284.134C282.776 26.5635 281.689 25.4799 281.689 24.1255C281.689 22.7711 282.776 21.6875 284.134 21.6875H312.452C313.81 21.6875 314.897 22.7711 314.897 24.1255C314.897 25.4799 313.81 26.5635 312.452 26.5635Z" fill="#226DA2"/>
<path d="M327.703 27.1041C329.353 27.1041 330.691 25.77 330.691 24.1243C330.691 22.4786 329.353 21.1445 327.703 21.1445C326.053 21.1445 324.715 22.4786 324.715 24.1243C324.715 25.77 326.053 27.1041 327.703 27.1041Z" fill="#226DA2"/>
<path d="M271.871 24.1257C271.871 25.8864 270.445 27.3763 268.611 27.3763C266.846 27.3763 265.352 25.9542 265.352 24.1257C265.352 22.2972 266.778 20.875 268.611 20.875C270.377 20.875 271.871 22.3649 271.871 24.1257Z" fill="#226DA2"/>
<path d="M155 56.5682H159.482V60.2251H154.729C154.729 60.2929 155 55.8232 155 56.5682Z" fill="#226DA1"/>
<path d="M155.679 530.352H160.365V535.566H155.679C155.679 535.566 155.136 530.352 155.679 530.352Z" fill="#226DA1"/>
<path d="M343.924 564.01H255.778C255.031 564.01 254.42 563.4 254.42 562.655C254.42 561.91 255.031 561.301 255.778 561.301H343.924C344.671 561.301 345.282 561.91 345.282 562.655C345.282 563.4 344.671 564.01 343.924 564.01Z" fill="#FEFFFF"/>
<path d="M379.779 32.9295C379.779 33.0649 379.643 33.2003 379.507 33.2003H378.76C378.624 33.2003 378.488 33.0649 378.488 32.9295V27.9857C378.488 27.8503 378.624 27.7148 378.76 27.7148H379.507C379.643 27.7148 379.779 27.8503 379.779 27.9857V32.9295Z" fill="#FCFCF4"/>
<path d="M377.538 32.9305C377.538 33.0659 377.403 33.2014 377.267 33.2014H376.52C376.384 33.2014 376.248 33.0659 376.248 32.9305V29.3412C376.248 29.2058 376.384 29.0703 376.52 29.0703H377.267C377.403 29.0703 377.538 29.2058 377.538 29.3412V32.9305Z" fill="#FCFCF4"/>
<path d="M375.296 32.9329C375.296 33.0683 375.16 33.2038 375.024 33.2038H374.277C374.142 33.2038 374.006 33.0683 374.006 32.9329V30.4271C374.006 30.2917 374.142 30.1562 374.277 30.1562H375.024C375.16 30.1562 375.296 30.2917 375.296 30.4271V32.9329Z" fill="#FCFCF4"/>
<path d="M373.056 32.9285C373.056 33.0639 372.92 33.1993 372.784 33.1993H372.037C371.901 33.1993 371.766 33.0639 371.766 32.9285V31.3031C371.766 31.1677 371.901 31.0322 372.037 31.0322H372.784C372.92 31.0322 373.056 31.1677 373.056 31.3031V32.9285Z" fill="#FCFCF4"/>
<path fill-rule="evenodd" clip-rule="evenodd" d="M383.513 30.2229C383.174 29.8843 382.834 29.6134 382.562 29.2748C384.6 27.2432 388.063 27.1754 390.168 29.2748C389.829 29.6134 389.557 29.8843 389.218 30.2229C388.403 29.478 387.452 29.0717 386.365 29.0717C385.211 29.0717 384.26 29.478 383.513 30.2229Z" fill="#FCFCF4"/>
<path fill-rule="evenodd" clip-rule="evenodd" d="M384.871 31.6453C384.531 31.3066 384.192 31.0358 383.92 30.6971C385.142 29.4104 387.451 29.3427 388.741 30.6971C388.402 31.0358 388.13 31.3066 387.791 31.6453C386.772 30.9003 385.821 30.9003 384.871 31.6453Z" fill="#FCFCF4"/>
<path fill-rule="evenodd" clip-rule="evenodd" d="M387.249 32.1192C386.91 32.4578 386.638 32.7287 386.298 33.0673C385.959 32.7287 385.687 32.4578 385.348 32.1192C385.755 31.6451 386.706 31.5774 387.249 32.1192Z" fill="#FCFCF4"/>
<path opacity="0.4" d="M402.325 27.582H393.972C393.293 27.582 392.75 28.1238 392.75 28.801V32.0517C392.75 32.7289 393.293 33.2707 393.972 33.2707H402.325C403.004 33.2707 403.548 32.7289 403.548 32.0517V28.801C403.548 28.1238 403.004 27.582 402.325 27.582ZM403.072 32.0517C403.072 32.458 402.733 32.7966 402.325 32.7966H393.972C393.565 32.7966 393.225 32.458 393.225 32.0517V28.801C393.225 28.3947 393.565 28.0561 393.972 28.0561H402.325C402.733 28.0561 403.072 28.3947 403.072 28.801V32.0517Z" fill="#FCFCF4"/>
<path d="M402.597 32.0518C402.597 32.1873 402.461 32.3227 402.326 32.3227H393.973C393.837 32.3227 393.701 32.1873 393.701 32.0518V28.8012C393.701 28.6657 393.837 28.5303 393.973 28.5303H402.326C402.461 28.5303 402.597 28.6657 402.597 28.8012V32.0518Z" fill="#FCFCF4"/>
<path d="M404.769 30.4259C404.769 30.7645 404.497 31.1031 404.09 31.1031C404.09 30.6291 404.09 30.155 404.09 29.8164C404.429 29.8164 404.769 30.0873 404.769 30.4259Z" fill="#FCFCF4"/>
<g filter="url(#filter1_d)">
<path d="M296.76 170.715C321.06 170.715 340.76 151.015 340.76 126.715C340.76 102.414 321.06 82.7148 296.76 82.7148C272.459 82.7148 252.76 102.414 252.76 126.715C252.76 151.015 272.459 170.715 296.76 170.715Z" fill="white"/>
<path d="M288.779 100.587C284.142 100.821 272.868 101.247 272.41 109.482C271.889 118.87 272.809 131.033 273.406 137.44C273.52 138.663 274.069 139.805 274.954 140.657C275.84 141.509 277.002 142.015 278.228 142.082L306.64 143.658C307.897 143.728 309.136 143.332 310.121 142.548C311.105 141.763 311.766 140.643 311.978 139.402C313.46 130.75 315.705 112.229 314.825 109.396C311.83 99.7477 296.125 100.215 288.779 100.587Z" fill="#0A3F64"/>
<path d="M291.899 152.566C299.136 153.913 308.318 152.885 310.998 150.232C312.57 148.674 313.522 142.231 314.101 134.854C314.101 134.638 314.999 108.414 314.999 108.414L282.407 106.618C282.407 106.618 282.03 114.565 281.851 123.49C281.862 123.577 281.848 123.666 281.81 123.745C281.771 123.824 281.711 123.89 281.635 123.935C281.56 123.98 281.473 124.002 281.385 123.998C281.297 123.994 281.212 123.964 281.141 123.912C279.476 122.714 277.154 121.667 276.898 125.012C276.584 129.161 279.803 131.931 281.478 132.928C281.566 132.983 281.639 133.059 281.689 133.151C281.738 133.242 281.763 133.345 281.761 133.449C281.792 139.734 282.035 145.216 282.713 147.183C283.141 148.307 283.909 149.27 284.908 149.94L291.899 152.566Z" fill="white"/>
<path d="M309.662 152.143C305.441 154.132 297.539 154.491 291.747 153.418C291.529 153.366 291.34 153.233 291.218 153.045C291.096 152.858 291.05 152.631 291.091 152.411C291.132 152.191 291.256 151.995 291.438 151.864C291.619 151.733 291.844 151.677 292.066 151.707C299.084 153.005 307.991 151.986 310.393 149.61C311.076 148.937 312.351 146.113 313.24 134.794C313.24 134.417 313.792 118.388 314.093 109.243L283.23 107.537C283.127 109.84 282.858 116.399 282.714 123.511C282.711 123.764 282.639 124.01 282.506 124.225C282.373 124.439 282.184 124.613 281.96 124.728C281.747 124.836 281.509 124.883 281.271 124.864C281.033 124.845 280.805 124.761 280.613 124.62C279.342 123.722 278.547 123.543 278.251 123.682C277.955 123.821 277.802 124.324 277.744 125.083C277.416 129.397 281.439 131.907 281.901 132.181C282.118 132.314 282.296 132.5 282.42 132.722C282.543 132.944 282.607 133.193 282.606 133.447C282.651 142.526 283.127 145.776 283.504 146.917C283.877 147.871 284.535 148.686 285.39 149.251C285.49 149.315 285.576 149.399 285.643 149.497C285.71 149.596 285.756 149.707 285.778 149.824C285.8 149.941 285.798 150.061 285.772 150.177C285.746 150.293 285.696 150.403 285.626 150.499C285.556 150.595 285.467 150.676 285.364 150.736C285.262 150.797 285.148 150.836 285.03 150.85C284.912 150.865 284.792 150.856 284.678 150.822C284.564 150.789 284.458 150.733 284.366 150.657C283.222 149.884 282.347 148.775 281.861 147.482C281.228 145.646 280.904 141.107 280.864 133.604C278.399 132.087 275.701 128.957 276.002 124.962C276.118 123.489 276.617 122.537 277.51 122.119C278.404 121.702 279.571 121.922 280.967 122.788C281.151 114.258 281.506 106.67 281.511 106.594L281.551 105.696L315.866 107.595L315.835 108.444C315.633 114.599 314.964 134.704 314.937 134.933C313.976 147.182 312.562 149.889 311.579 150.859C311.015 151.39 310.368 151.824 309.662 152.143Z" fill="#0A3F64"/>
<path d="M309.523 128.272C309.384 128.339 309.228 128.367 309.074 128.353C308.844 128.338 308.629 128.232 308.477 128.059C308.324 127.885 308.247 127.659 308.262 127.428L308.32 126.584C308.335 126.354 308.442 126.14 308.615 125.988C308.788 125.837 309.015 125.76 309.245 125.776C309.475 125.791 309.689 125.898 309.84 126.071C309.992 126.244 310.069 126.471 310.053 126.701L309.999 127.545C309.988 127.696 309.938 127.843 309.855 127.97C309.772 128.097 309.658 128.201 309.523 128.272Z" fill="#0A3F64"/>
<path d="M294.873 127.556C294.745 127.617 294.605 127.645 294.464 127.637C294.235 127.628 294.019 127.528 293.863 127.36C293.708 127.191 293.625 126.968 293.633 126.739L293.696 125.886C293.702 125.772 293.729 125.661 293.778 125.558C293.826 125.455 293.894 125.362 293.979 125.285C294.063 125.209 294.161 125.149 294.269 125.111C294.376 125.072 294.489 125.055 294.603 125.06C294.717 125.065 294.829 125.093 294.932 125.141C295.035 125.19 295.127 125.258 295.204 125.342C295.281 125.427 295.34 125.525 295.379 125.632C295.417 125.739 295.435 125.853 295.429 125.967L295.393 126.811C295.381 126.97 295.326 127.123 295.234 127.254C295.143 127.386 295.018 127.49 294.873 127.556Z" fill="#0A3F64"/>
<path d="M297.614 121.448C297.411 121.539 297.18 121.552 296.968 121.483C295.202 120.977 293.312 121.137 291.656 121.932C291.556 121.985 291.445 122.018 291.332 122.029C291.218 122.039 291.104 122.027 290.995 121.993C290.886 121.96 290.785 121.905 290.698 121.832C290.61 121.759 290.538 121.67 290.485 121.569C290.432 121.468 290.399 121.358 290.388 121.244C290.378 121.131 290.39 121.016 290.424 120.908C290.458 120.799 290.512 120.698 290.585 120.61C290.658 120.522 290.747 120.45 290.848 120.397C292.923 119.377 295.304 119.169 297.525 119.813C297.689 119.869 297.832 119.973 297.937 120.111C298.042 120.25 298.103 120.416 298.112 120.589C298.122 120.762 298.08 120.934 297.991 121.083C297.902 121.232 297.771 121.351 297.614 121.425V121.448Z" fill="#0A3F64"/>
<path d="M313.353 123.232C313.217 123.294 313.066 123.321 312.917 123.31C312.767 123.299 312.622 123.251 312.496 123.169C310.941 122.188 309.08 121.811 307.265 122.11C307.04 122.158 306.805 122.116 306.611 121.991C306.418 121.867 306.281 121.67 306.233 121.445C306.184 121.22 306.226 120.985 306.351 120.791C306.476 120.598 306.672 120.461 306.897 120.412C309.174 120.006 311.521 120.476 313.466 121.728C313.561 121.791 313.642 121.873 313.705 121.968C313.768 122.062 313.812 122.169 313.834 122.281C313.855 122.393 313.855 122.508 313.831 122.62C313.808 122.731 313.763 122.837 313.699 122.931C313.614 123.061 313.494 123.165 313.353 123.232Z" fill="#0A3F64"/>
<path d="M304.256 135.149C303.577 135.452 302.86 135.662 302.124 135.773C302.011 135.791 301.896 135.786 301.785 135.759C301.675 135.733 301.57 135.684 301.478 135.617C301.386 135.55 301.308 135.465 301.248 135.368C301.189 135.271 301.149 135.163 301.132 135.05C301.114 134.938 301.119 134.823 301.145 134.712C301.172 134.601 301.22 134.496 301.288 134.404C301.355 134.312 301.439 134.234 301.537 134.175C301.634 134.115 301.742 134.076 301.854 134.058C302.977 133.878 304.014 133.416 304.099 133.16C304.257 132.522 304.265 132.482 303.094 128.913L302.137 125.972C302.102 125.863 302.089 125.749 302.098 125.635C302.107 125.522 302.138 125.411 302.19 125.309C302.242 125.208 302.314 125.118 302.4 125.044C302.487 124.97 302.588 124.914 302.696 124.879C302.805 124.843 302.919 124.83 303.033 124.839C303.146 124.848 303.257 124.88 303.359 124.932C303.46 124.984 303.55 125.055 303.624 125.142C303.698 125.229 303.754 125.329 303.79 125.438C304.171 126.614 304.485 127.575 304.746 128.374C305.967 132.109 306.07 132.415 305.788 133.573C305.664 133.932 305.462 134.259 305.198 134.532C304.933 134.804 304.612 135.015 304.256 135.149Z" fill="#0A3F64"/>
<path d="M278.295 132.594C278.295 132.594 279.306 133.717 281.438 136.033C283.885 138.727 307.879 138.651 309.607 137.892C313.415 136.222 312.638 132.926 314.012 133.286C315.713 133.735 312.876 150.562 310.959 152.848C309.042 155.133 291.63 154.998 282.413 152.578C274.74 150.58 278.295 132.594 278.295 132.594Z" fill="#0A3F64"/>
<path d="M308.638 139.468C309.15 140.24 306.793 143.186 303.924 143.244C299.236 143.343 297.638 139.814 298.787 139.994C299.236 140.061 300.974 141.035 303.775 140.914C306.801 140.784 308.292 138.947 308.638 139.468Z" fill="white"/>
<path d="M278.735 108.284C278.735 108.284 305.225 117.546 317.899 108.755C330.574 99.9643 311.277 98.5096 299.586 99.0484C287.894 99.5872 271.457 101.042 278.735 108.284Z" fill="#0A3F64"/>
<path d="M284.308 102.122C284.308 102.122 268.351 97.2105 272.01 119.031C274.102 131.504 269.11 115.291 283.513 107.021C285.008 106.163 284.308 102.122 284.308 102.122Z" fill="#0A3F64"/>
</g>
<g clip-path="url(#clip0)" filter="url(#filter2_d)">
<path d="M502.002 206H238.473V295H502.002V206Z" fill="#F9F9F9"/>
<path d="M274.941 264.868C282.868 264.868 289.294 258.488 289.294 250.618C289.294 242.749 282.868 236.369 274.941 236.369C267.014 236.369 260.588 242.749 260.588 250.618C260.588 258.488 267.014 264.868 274.941 264.868Z" fill="#F09700"/>
<path d="M206 250.614L253.765 277.945V223.283L206 250.614L253.765 277.945V223.283L206 250.614Z" fill="#F9F9F9"/>
<path d="M461.532 249.917H319.65C316.356 249.917 313.768 247.348 313.768 244.077C313.768 240.807 316.356 238.237 319.65 238.237H461.768C465.062 238.237 467.65 240.807 467.65 244.077C467.65 247.348 464.826 249.917 461.532 249.917Z" fill="#CCCCCC"/>
<path d="M398.709 268.836H319.65C316.356 268.836 313.768 266.266 313.768 262.996C313.768 259.725 316.356 257.156 319.65 257.156H398.709C402.003 257.156 404.591 259.725 404.591 262.996C404.591 266.266 401.768 268.836 398.709 268.836Z" fill="#CCCCCC"/>
</g>
</g>
<defs>
<filter id="filter0_d" x="148.895" y="5.23438" width="357.105" height="593.391" filterUnits="userSpaceOnUse" color-interpolation-filters="sRGB">
<feFlood flood-opacity="0" result="BackgroundImageFix"/>
<feColorMatrix in="SourceAlpha" type="matrix" values="0 0 0 0 0 0 0 0 0 0 0 0 0 0 0 0 0 0 127 0"/>
<feOffset dy="4"/>
<feGaussianBlur stdDeviation="2"/>
<feColorMatrix type="matrix" values="0 0 0 0 0 0 0 0 0 0 0 0 0 0 0 0 0 0 0.25 0"/>
<feBlend mode="normal" in2="BackgroundImageFix" result="effect1_dropShadow"/>
<feBlend mode="normal" in="SourceGraphic" in2="effect1_dropShadow" result="shape"/>
</filter>
<filter id="filter1_d" x="240.76" y="70.7148" width="112" height="112" filterUnits="userSpaceOnUse" color-interpolation-filters="sRGB">
<feFlood flood-opacity="0" result="BackgroundImageFix"/>
<feColorMatrix in="SourceAlpha" type="matrix" values="0 0 0 0 0 0 0 0 0 0 0 0 0 0 0 0 0 0 127 0"/>
<feOffset/>
<feGaussianBlur stdDeviation="6"/>
<feColorMatrix type="matrix" values="0 0 0 0 0 0 0 0 0 0 0 0 0 0 0 0 0 0 0.15 0"/>
<feBlend mode="normal" in2="BackgroundImageFix" result="effect1_dropShadow"/>
<feBlend mode="normal" in="SourceGraphic" in2="effect1_dropShadow" result="shape"/>
</filter>
<filter id="filter2_d" x="202" y="205" width="304" height="97" filterUnits="userSpaceOnUse" color-interpolation-filters="sRGB">
<feFlood flood-opacity="0" result="BackgroundImageFix"/>
<feColorMatrix in="SourceAlpha" type="matrix" values="0 0 0 0 0 0 0 0 0 0 0 0 0 0 0 0 0 0 127 0"/>
<feOffset dy="3"/>
<feGaussianBlur stdDeviation="2"/>
<feColorMatrix type="matrix" values="0 0 0 0 0 0 0 0 0 0 0 0 0 0 0 0 0 0 0.1 0"/>
<feBlend mode="normal" in2="BackgroundImageFix" result="effect1_dropShadow"/>
<feBlend mode="normal" in="SourceGraphic" in2="effect1_dropShadow" result="shape"/>
</filter>
<clipPath id="clip0">
<rect width="296" height="89" fill="white" transform="translate(206 206)"/>
</clipPath>
</defs>
</svg>
