<svg width="358" height="171" viewBox="0 0 358 171" fill="none" xmlns="http://www.w3.org/2000/svg">
<g clip-path="url(#clip0)" filter="url(#filter0_d)">
<path d="M354 -3.69629H42.3945V162.625H354V-3.69629Z" fill="#F7F7F7"/>
<path d="M4 81.8374L60.4785 131.585V32.0894L4 81.8374L60.4785 131.585V32.0894L4 81.8374Z" fill="#F7F7F7"/>
<g filter="url(#filter1_d)">
<path d="M94.9238 117.34C114.806 117.34 130.924 101.223 130.924 81.3403C130.924 61.4581 114.806 45.3403 94.9238 45.3403C75.0416 45.3403 58.9238 61.4581 58.9238 81.3403C58.9238 101.223 75.0416 117.34 94.9238 117.34Z" fill="white"/>
<path d="M88.3943 59.9686C84.5996 60.1597 75.3755 60.5086 75.0008 67.2458C74.5747 74.927 75.3278 84.8784 75.8164 90.1205C75.9092 91.1215 76.3586 92.0558 77.0829 92.7531C77.8071 93.4504 78.7579 93.8641 79.7617 93.9188L103.007 95.2082C104.036 95.2653 105.05 94.9419 105.855 94.2997C106.661 93.6575 107.202 92.7413 107.375 91.7258C108.587 84.647 110.424 69.4939 109.704 67.176C107.254 59.2817 94.4041 59.6637 88.3943 59.9686Z" fill="#0A3F64"/>
<path d="M90.9488 102.491C96.8704 103.593 104.383 102.752 106.576 100.581C107.861 99.3063 108.64 94.0349 109.114 87.9994C109.114 87.8231 109.849 66.3664 109.849 66.3664L83.1831 64.897C83.1831 64.897 82.8745 71.399 82.7276 78.7019C82.7371 78.7731 82.7254 78.8456 82.694 78.9103C82.6627 78.9751 82.6131 79.0292 82.5513 79.0659C82.4895 79.1027 82.4183 79.1205 82.3464 79.1172C82.2746 79.1138 82.2053 79.0895 82.1472 79.0472C80.7843 78.0663 78.8851 77.2104 78.6757 79.9472C78.4186 83.3415 81.0525 85.608 82.4227 86.4235C82.495 86.4682 82.5544 86.5311 82.595 86.6058C82.6356 86.6806 82.656 86.7646 82.6541 86.8496C82.6799 91.9925 82.8782 96.4778 83.4329 98.0868C83.7837 99.0065 84.4114 99.7946 85.2292 100.342L90.9488 102.491Z" fill="white"/>
<path d="M105.483 102.147C102.03 103.774 95.5643 104.068 90.8256 103.19C90.6473 103.148 90.4922 103.039 90.3922 102.886C90.2923 102.732 90.2552 102.546 90.2888 102.366C90.3223 102.186 90.4239 102.026 90.5724 101.919C90.7209 101.812 90.905 101.766 91.0864 101.791C96.828 102.852 104.116 102.018 106.081 100.075C106.64 99.5242 107.683 97.2136 108.41 87.9528C108.41 87.6442 108.862 74.5299 109.108 67.047L83.857 65.6511C83.7725 67.5356 83.5521 72.9026 83.4346 78.7213C83.4323 78.9278 83.3736 79.1297 83.2648 79.3052C83.156 79.4806 83.0013 79.623 82.8174 79.7168C82.6434 79.8052 82.4484 79.8437 82.254 79.8282C82.0595 79.8126 81.8731 79.7436 81.7154 79.6287C80.6758 78.894 80.0256 78.7471 79.7831 78.8609C79.5407 78.9748 79.4158 79.3862 79.368 80.0071C79.0998 83.5373 82.3913 85.5907 82.7696 85.8148C82.9467 85.9234 83.0927 86.0757 83.1938 86.2572C83.2948 86.4386 83.3474 86.6431 83.3464 86.8507C83.3831 94.2785 83.7725 96.9381 84.0811 97.8711C84.386 98.6518 84.9249 99.319 85.6239 99.7813C85.7061 99.8336 85.7766 99.9021 85.8312 99.9827C85.8858 100.063 85.9233 100.154 85.9415 100.25C85.9596 100.346 85.9579 100.444 85.9365 100.539C85.9152 100.634 85.8746 100.723 85.8173 100.802C85.76 100.881 85.6871 100.947 85.6033 100.996C85.5194 101.046 85.4263 101.078 85.3297 101.09C85.2331 101.102 85.1351 101.094 85.0417 101.067C84.9482 101.039 84.8613 100.993 84.7864 100.931C83.8504 100.299 83.1341 99.3913 82.7366 98.334C82.2186 96.8315 81.9541 93.1177 81.9211 86.9793C79.9044 85.7377 77.6966 83.1773 77.9427 79.9079C78.0382 78.703 78.446 77.9242 79.177 77.5826C79.908 77.2409 80.8631 77.4209 82.0056 78.1299C82.1562 71.1503 82.4464 64.9422 82.45 64.8797L82.4831 64.145L110.559 65.6989L110.534 66.3932C110.368 71.4295 109.821 87.8793 109.799 88.0667C109.013 98.0879 107.856 100.303 107.051 101.096C106.59 101.531 106.06 101.886 105.483 102.147Z" fill="#0A3F64"/>
<path d="M105.366 82.6139C105.252 82.6689 105.125 82.6917 104.998 82.68C104.81 82.6677 104.634 82.5811 104.509 82.4392C104.385 82.2973 104.321 82.1118 104.333 81.9233L104.381 81.2327C104.394 81.0446 104.481 80.8693 104.623 80.7453C104.765 80.6213 104.95 80.5588 105.138 80.5714C105.326 80.5841 105.501 80.6709 105.625 80.8129C105.749 80.9548 105.812 81.1401 105.799 81.3282L105.755 82.0188C105.746 82.1428 105.705 82.2625 105.637 82.3666C105.569 82.4707 105.476 82.5558 105.366 82.6139Z" fill="#0A3F64"/>
<path d="M93.3816 82.0315C93.2774 82.0811 93.1625 82.1039 93.0473 82.0976C92.8598 82.09 92.6831 82.0084 92.5557 81.8707C92.4283 81.733 92.3607 81.5504 92.3677 81.3629L92.4191 80.665C92.4235 80.5719 92.4461 80.4805 92.4857 80.3962C92.5254 80.3118 92.5812 80.2361 92.6501 80.1733C92.719 80.1106 92.7996 80.062 92.8873 80.0304C92.975 79.9988 93.0681 79.9847 93.1612 79.9891C93.2543 79.9934 93.3456 80.016 93.4299 80.0557C93.5143 80.0953 93.59 80.1512 93.6528 80.2201C93.7156 80.289 93.7641 80.3696 93.7958 80.4573C93.8274 80.5449 93.8414 80.638 93.8371 80.7311L93.8077 81.4217C93.7974 81.5521 93.7524 81.6773 93.6775 81.7845C93.6026 81.8917 93.5004 81.977 93.3816 82.0315Z" fill="#0E2549"/>
<path d="M95.6261 77.0338C95.4596 77.109 95.271 77.1195 95.0971 77.0632C93.6525 76.6492 92.1061 76.7799 90.7514 77.4305C90.6689 77.4739 90.5787 77.5007 90.4858 77.5092C90.393 77.5178 90.2994 77.5079 90.2104 77.4803C90.1213 77.4527 90.0386 77.4078 89.967 77.3482C89.8953 77.2886 89.836 77.2155 89.7926 77.133C89.7492 77.0505 89.7225 76.9602 89.7139 76.8674C89.7054 76.7746 89.7152 76.681 89.7428 76.5919C89.7705 76.5029 89.8154 76.4202 89.875 76.3485C89.9345 76.2768 90.0077 76.2176 90.0902 76.1742C91.7879 75.3398 93.7359 75.1695 95.5526 75.6966C95.6869 75.7425 95.8043 75.8275 95.89 75.9405C95.9757 76.0536 96.0256 76.1896 96.0335 76.3313C96.0414 76.4729 96.0068 76.6137 95.9342 76.7355C95.8617 76.8574 95.7544 76.9549 95.6261 77.0154V77.0338Z" fill="#0A3F64"/>
<path d="M108.502 78.4938C108.391 78.5446 108.268 78.5665 108.145 78.5575C108.022 78.5485 107.904 78.509 107.801 78.4424C106.528 77.6396 105.006 77.3312 103.521 77.5754C103.337 77.6154 103.145 77.5805 102.986 77.4786C102.828 77.3766 102.716 77.2159 102.676 77.0318C102.636 76.8476 102.671 76.6552 102.773 76.4967C102.875 76.3383 103.036 76.2268 103.22 76.1869C105.083 75.8545 107.003 76.239 108.594 77.2632C108.672 77.3149 108.738 77.3816 108.79 77.4592C108.842 77.5369 108.877 77.624 108.895 77.7156C108.913 77.8071 108.912 77.9013 108.894 77.9926C108.875 78.084 108.838 78.1707 108.785 78.2477C108.715 78.354 108.617 78.4391 108.502 78.4938Z" fill="#0A3F64"/>
<path d="M101.059 88.2437C100.504 88.4919 99.9166 88.6637 99.3146 88.7543C99.2224 88.7688 99.1283 88.765 99.0377 88.7431C98.947 88.7212 98.8615 88.6816 98.7862 88.6267C98.7108 88.5718 98.6469 88.5026 98.5983 88.423C98.5497 88.3434 98.5172 88.255 98.5028 88.1629C98.4883 88.0707 98.4921 87.9766 98.514 87.886C98.5359 87.7953 98.5754 87.7098 98.6303 87.6345C98.6852 87.5591 98.7545 87.4952 98.834 87.4466C98.9136 87.398 99.002 87.3655 99.0942 87.351C100.013 87.2041 100.861 86.8257 100.931 86.6163C101.059 86.0947 101.067 86.0616 100.108 83.1412L99.3256 80.7351C99.2969 80.6463 99.286 80.5528 99.2934 80.4598C99.3009 80.3668 99.3265 80.2762 99.369 80.1931C99.4115 80.1101 99.4699 80.0362 99.5409 79.9757C99.6119 79.9152 99.6942 79.8693 99.783 79.8406C99.8717 79.8119 99.9652 79.801 100.058 79.8084C100.151 79.8159 100.242 79.8416 100.325 79.884C100.408 79.9265 100.482 79.9849 100.542 80.0559C100.603 80.1269 100.649 80.2092 100.677 80.298C100.99 81.2604 101.247 82.0465 101.46 82.7004C102.459 85.7567 102.544 86.0065 102.312 86.9543C102.211 87.248 102.046 87.5158 101.83 87.7386C101.613 87.9615 101.35 88.1339 101.059 88.2437Z" fill="#0A3F64"/>
<path d="M79.8197 86.1548C79.8197 86.1548 80.6462 87.0731 82.3911 88.9687C84.3931 91.1727 104.024 91.1103 105.438 90.4895C108.554 89.1229 107.918 86.4266 109.042 86.7205C110.434 87.0878 108.113 100.856 106.544 102.726C104.976 104.596 90.7299 104.485 83.1882 102.505C76.9103 100.871 79.8197 86.1548 79.8197 86.1548Z" fill="#0A3F64"/>
<path d="M104.645 91.7766C105.064 92.4084 103.135 94.8182 100.788 94.866C96.9529 94.9468 95.6451 92.0594 96.5855 92.2064C96.9528 92.2615 98.3745 93.0586 100.667 92.9594C103.143 92.8529 104.362 91.3505 104.645 91.7766Z" fill="white"/>
<path d="M80.18 66.263C80.18 66.263 101.853 73.8414 112.224 66.6488C122.594 59.4561 106.805 58.2659 97.2396 58.7067C87.6739 59.1475 74.2253 60.3377 80.18 66.263Z" fill="#0A3F64"/>
<path d="M84.7363 61.2228C84.7363 61.2228 71.6807 57.204 74.6746 75.057C76.3865 85.2619 72.3016 71.997 84.0861 65.2305C85.3093 64.5289 84.7363 61.2228 84.7363 61.2228Z" fill="#0A3F64"/>
</g>
</g>
<path d="M155.75 47.3672H150.82V51.3984H156.547V52.625H149.32V41.25H156.469V42.4844H150.82V46.1406H155.75V47.3672ZM153.547 38.1094H155.297L153.203 40.4062H152.039L153.547 38.1094ZM169.297 48.4922C169.297 49.7786 169.003 50.8151 168.414 51.6016C167.826 52.388 167.029 52.7812 166.023 52.7812C164.997 52.7812 164.19 52.4557 163.602 51.8047V55.875H162.156V44.1719H163.477L163.547 45.1094C164.135 44.3802 164.953 44.0156 166 44.0156C167.016 44.0156 167.818 44.3984 168.406 45.1641C169 45.9297 169.297 46.9948 169.297 48.3594V48.4922ZM167.852 48.3281C167.852 47.375 167.648 46.6224 167.242 46.0703C166.836 45.5182 166.279 45.2422 165.57 45.2422C164.695 45.2422 164.039 45.6302 163.602 46.4062V50.4453C164.034 51.2161 164.695 51.6016 165.586 51.6016C166.279 51.6016 166.828 51.3281 167.234 50.7812C167.646 50.2292 167.852 49.4115 167.852 48.3281ZM170.758 48.3203C170.758 47.4922 170.919 46.7474 171.242 46.0859C171.57 45.4245 172.023 44.9141 172.602 44.5547C173.185 44.1953 173.849 44.0156 174.594 44.0156C175.745 44.0156 176.674 44.4141 177.383 45.2109C178.096 46.0078 178.453 47.0677 178.453 48.3906V48.4922C178.453 49.3151 178.294 50.0547 177.977 50.7109C177.664 51.362 177.214 51.8698 176.625 52.2344C176.042 52.599 175.37 52.7812 174.609 52.7812C173.464 52.7812 172.534 52.3828 171.82 51.5859C171.112 50.7891 170.758 49.7344 170.758 48.4219V48.3203ZM172.211 48.4922C172.211 49.4297 172.427 50.1823 172.859 50.75C173.297 51.3177 173.88 51.6016 174.609 51.6016C175.344 51.6016 175.927 51.3151 176.359 50.7422C176.792 50.1641 177.008 49.3568 177.008 48.3203C177.008 47.3932 176.786 46.6432 176.344 46.0703C175.906 45.4922 175.323 45.2031 174.594 45.2031C173.88 45.2031 173.305 45.487 172.867 46.0547C172.43 46.6224 172.211 47.4349 172.211 48.4922ZM185.188 50.3828C185.188 49.9922 185.039 49.6901 184.742 49.4766C184.451 49.2578 183.938 49.0703 183.203 48.9141C182.474 48.7578 181.893 48.5703 181.461 48.3516C181.034 48.1328 180.716 47.8724 180.508 47.5703C180.305 47.2682 180.203 46.9089 180.203 46.4922C180.203 45.7995 180.495 45.2135 181.078 44.7344C181.667 44.2552 182.417 44.0156 183.328 44.0156C184.286 44.0156 185.062 44.263 185.656 44.7578C186.255 45.2526 186.555 45.8854 186.555 46.6562H185.102C185.102 46.2604 184.932 45.9193 184.594 45.6328C184.26 45.3464 183.839 45.2031 183.328 45.2031C182.802 45.2031 182.391 45.3177 182.094 45.5469C181.797 45.776 181.648 46.0755 181.648 46.4453C181.648 46.7943 181.786 47.0573 182.062 47.2344C182.339 47.4115 182.836 47.5807 183.555 47.7422C184.279 47.9036 184.865 48.0964 185.312 48.3203C185.76 48.5443 186.091 48.8151 186.305 49.1328C186.523 49.4453 186.633 49.8281 186.633 50.2812C186.633 51.0365 186.331 51.6432 185.727 52.1016C185.122 52.5547 184.339 52.7812 183.375 52.7812C182.698 52.7812 182.099 52.6615 181.578 52.4219C181.057 52.1823 180.648 51.849 180.352 51.4219C180.06 50.9896 179.914 50.5234 179.914 50.0234H181.359C181.385 50.5078 181.578 50.8932 181.938 51.1797C182.302 51.4609 182.781 51.6016 183.375 51.6016C183.922 51.6016 184.359 51.4922 184.688 51.2734C185.021 51.0495 185.188 50.7526 185.188 50.3828ZM193.438 50.3828C193.438 49.9922 193.289 49.6901 192.992 49.4766C192.701 49.2578 192.188 49.0703 191.453 48.9141C190.724 48.7578 190.143 48.5703 189.711 48.3516C189.284 48.1328 188.966 47.8724 188.758 47.5703C188.555 47.2682 188.453 46.9089 188.453 46.4922C188.453 45.7995 188.745 45.2135 189.328 44.7344C189.917 44.2552 190.667 44.0156 191.578 44.0156C192.536 44.0156 193.312 44.263 193.906 44.7578C194.505 45.2526 194.805 45.8854 194.805 46.6562H193.352C193.352 46.2604 193.182 45.9193 192.844 45.6328C192.51 45.3464 192.089 45.2031 191.578 45.2031C191.052 45.2031 190.641 45.3177 190.344 45.5469C190.047 45.776 189.898 46.0755 189.898 46.4453C189.898 46.7943 190.036 47.0573 190.312 47.2344C190.589 47.4115 191.086 47.5807 191.805 47.7422C192.529 47.9036 193.115 48.0964 193.562 48.3203C194.01 48.5443 194.341 48.8151 194.555 49.1328C194.773 49.4453 194.883 49.8281 194.883 50.2812C194.883 51.0365 194.581 51.6432 193.977 52.1016C193.372 52.5547 192.589 52.7812 191.625 52.7812C190.948 52.7812 190.349 52.6615 189.828 52.4219C189.307 52.1823 188.898 51.849 188.602 51.4219C188.31 50.9896 188.164 50.5234 188.164 50.0234H189.609C189.635 50.5078 189.828 50.8932 190.188 51.1797C190.552 51.4609 191.031 51.6016 191.625 51.6016C192.172 51.6016 192.609 51.4922 192.938 51.2734C193.271 51.0495 193.438 50.7526 193.438 50.3828ZM198.336 52.625H196.883V44.1719H198.336V52.625ZM198.352 40.6328H200.102L198.008 42.9297H196.844L198.352 40.6328ZM203.508 50.6641L205.602 44.1719H207.078L204.047 52.625H202.945L199.883 44.1719H201.359L203.508 50.6641ZM211.867 52.7812C210.721 52.7812 209.789 52.4062 209.07 51.6562C208.352 50.901 207.992 49.8932 207.992 48.6328V48.3672C207.992 47.5286 208.151 46.7812 208.469 46.125C208.792 45.4635 209.24 44.9479 209.812 44.5781C210.391 44.2031 211.016 44.0156 211.688 44.0156C212.786 44.0156 213.641 44.3776 214.25 45.1016C214.859 45.8255 215.164 46.862 215.164 48.2109V48.8125H209.438C209.458 49.6458 209.701 50.3203 210.164 50.8359C210.633 51.3464 211.227 51.6016 211.945 51.6016C212.456 51.6016 212.888 51.4974 213.242 51.2891C213.596 51.0807 213.906 50.8047 214.172 50.4609L215.055 51.1484C214.346 52.237 213.284 52.7812 211.867 52.7812ZM211.688 45.2031C211.104 45.2031 210.615 45.4167 210.219 45.8438C209.823 46.2656 209.578 46.8594 209.484 47.625H213.719V47.5156C213.677 46.7812 213.479 46.2135 213.125 45.8125C212.771 45.4062 212.292 45.2031 211.688 45.2031ZM218.414 52.625H216.969V40.625H218.414V52.625ZM226.859 52.625H224.594V44.1719H226.859V52.625ZM224.461 41.9844C224.461 41.6458 224.573 41.3672 224.797 41.1484C225.026 40.9297 225.336 40.8203 225.727 40.8203C226.112 40.8203 226.419 40.9297 226.648 41.1484C226.878 41.3672 226.992 41.6458 226.992 41.9844C226.992 42.3281 226.875 42.6094 226.641 42.8281C226.411 43.0469 226.107 43.1562 225.727 43.1562C225.346 43.1562 225.039 43.0469 224.805 42.8281C224.576 42.6094 224.461 42.3281 224.461 41.9844ZM230.844 44.1719L230.914 45.1172C231.513 44.3828 232.323 44.0156 233.344 44.0156C234.432 44.0156 235.18 44.4453 235.586 45.3047C236.18 44.4453 237.026 44.0156 238.125 44.0156C239.042 44.0156 239.724 44.2839 240.172 44.8203C240.62 45.3516 240.844 46.1536 240.844 47.2266V52.625H238.578V47.2344C238.578 46.7552 238.484 46.4062 238.297 46.1875C238.109 45.9635 237.779 45.8516 237.305 45.8516C236.628 45.8516 236.159 46.1745 235.898 46.8203L235.906 52.625H233.648V47.2422C233.648 46.7526 233.552 46.3984 233.359 46.1797C233.167 45.9609 232.839 45.8516 232.375 45.8516C231.734 45.8516 231.271 46.1172 230.984 46.6484V52.625H228.727V44.1719H230.844ZM250.195 48.4766C250.195 49.7786 249.898 50.8229 249.305 51.6094C248.716 52.3906 247.919 52.7812 246.914 52.7812C246.06 52.7812 245.37 52.4844 244.844 51.8906V55.875H242.586V44.1719H244.68L244.758 45C245.305 44.3438 246.018 44.0156 246.898 44.0156C247.94 44.0156 248.75 44.401 249.328 45.1719C249.906 45.9427 250.195 47.0052 250.195 48.3594V48.4766ZM247.938 48.3125C247.938 47.526 247.797 46.9193 247.516 46.4922C247.24 46.0651 246.836 45.8516 246.305 45.8516C245.596 45.8516 245.109 46.1224 244.844 46.6641V50.125C245.12 50.6823 245.612 50.9609 246.32 50.9609C247.398 50.9609 247.938 50.0781 247.938 48.3125ZM256.5 52.625C256.396 52.4219 256.32 52.1693 256.273 51.8672C255.727 52.4766 255.016 52.7812 254.141 52.7812C253.312 52.7812 252.625 52.5417 252.078 52.0625C251.536 51.5833 251.266 50.9792 251.266 50.25C251.266 49.3542 251.596 48.6667 252.258 48.1875C252.924 47.7083 253.885 47.4661 255.141 47.4609H256.18V46.9766C256.18 46.5859 256.078 46.2734 255.875 46.0391C255.677 45.8047 255.362 45.6875 254.93 45.6875C254.549 45.6875 254.25 45.7786 254.031 45.9609C253.818 46.1432 253.711 46.3932 253.711 46.7109H251.453C251.453 46.2214 251.604 45.7682 251.906 45.3516C252.208 44.9349 252.635 44.6094 253.188 44.375C253.74 44.1354 254.359 44.0156 255.047 44.0156C256.089 44.0156 256.914 44.2786 257.523 44.8047C258.138 45.3255 258.445 46.0599 258.445 47.0078V50.6719C258.451 51.474 258.562 52.0807 258.781 52.4922V52.625H256.5ZM254.633 51.0547C254.966 51.0547 255.273 50.9818 255.555 50.8359C255.836 50.6849 256.044 50.4844 256.18 50.2344V48.7812H255.336C254.206 48.7812 253.604 49.1719 253.531 49.9531L253.523 50.0859C253.523 50.3672 253.622 50.599 253.82 50.7812C254.018 50.9635 254.289 51.0547 254.633 51.0547ZM263.695 50.9609C264.112 50.9609 264.451 50.8464 264.711 50.6172C264.971 50.388 265.107 50.0833 265.117 49.7031H267.234C267.229 50.276 267.073 50.8021 266.766 51.2812C266.458 51.7552 266.036 52.125 265.5 52.3906C264.969 52.651 264.38 52.7812 263.734 52.7812C262.526 52.7812 261.573 52.3984 260.875 51.6328C260.177 50.862 259.828 49.7995 259.828 48.4453V48.2969C259.828 46.9948 260.174 45.9557 260.867 45.1797C261.56 44.4036 262.51 44.0156 263.719 44.0156C264.776 44.0156 265.622 44.3177 266.258 44.9219C266.898 45.5208 267.224 46.3203 267.234 47.3203H265.117C265.107 46.8828 264.971 46.5286 264.711 46.2578C264.451 45.9818 264.107 45.8438 263.68 45.8438C263.154 45.8438 262.755 46.0365 262.484 46.4219C262.219 46.8021 262.086 47.4219 262.086 48.2812V48.5156C262.086 49.3854 262.219 50.0104 262.484 50.3906C262.75 50.7708 263.154 50.9609 263.695 50.9609ZM271.227 42.0938V44.1719H272.672V45.8281H271.227V50.0469C271.227 50.3594 271.286 50.5833 271.406 50.7188C271.526 50.8542 271.755 50.9219 272.094 50.9219C272.344 50.9219 272.565 50.9036 272.758 50.8672V52.5781C272.315 52.7135 271.859 52.7812 271.391 52.7812C269.807 52.7812 269 51.9818 268.969 50.3828V45.8281H267.734V44.1719H268.969V42.0938H271.227ZM278.828 52.625C278.724 52.4219 278.648 52.1693 278.602 51.8672C278.055 52.4766 277.344 52.7812 276.469 52.7812C275.641 52.7812 274.953 52.5417 274.406 52.0625C273.865 51.5833 273.594 50.9792 273.594 50.25C273.594 49.3542 273.924 48.6667 274.586 48.1875C275.253 47.7083 276.214 47.4661 277.469 47.4609H278.508V46.9766C278.508 46.5859 278.406 46.2734 278.203 46.0391C278.005 45.8047 277.69 45.6875 277.258 45.6875C276.878 45.6875 276.578 45.7786 276.359 45.9609C276.146 46.1432 276.039 46.3932 276.039 46.7109H273.781C273.781 46.2214 273.932 45.7682 274.234 45.3516C274.536 44.9349 274.964 44.6094 275.516 44.375C276.068 44.1354 276.688 44.0156 277.375 44.0156C278.417 44.0156 279.242 44.2786 279.852 44.8047C280.466 45.3255 280.773 46.0599 280.773 47.0078V50.6719C280.779 51.474 280.891 52.0807 281.109 52.4922V52.625H278.828ZM276.961 51.0547C277.294 51.0547 277.602 50.9818 277.883 50.8359C278.164 50.6849 278.372 50.4844 278.508 50.2344V48.7812H277.664C276.534 48.7812 275.932 49.1719 275.859 49.9531L275.852 50.0859C275.852 50.3672 275.951 50.599 276.148 50.7812C276.346 50.9635 276.617 51.0547 276.961 51.0547ZM287.258 46.2891C286.951 46.2474 286.68 46.2266 286.445 46.2266C285.591 46.2266 285.031 46.5156 284.766 47.0938V52.625H282.508V44.1719H284.641L284.703 45.1797C285.156 44.4036 285.784 44.0156 286.586 44.0156C286.836 44.0156 287.07 44.0495 287.289 44.1172L287.258 46.2891ZM297.727 52.625H295.469V43.9219L292.773 44.7578V42.9219L297.484 41.2344H297.727V52.625ZM309.086 47.9219C309.086 49.4948 308.76 50.6979 308.109 51.5312C307.458 52.3646 306.505 52.7812 305.25 52.7812C304.01 52.7812 303.062 52.3724 302.406 51.5547C301.75 50.737 301.414 49.5651 301.398 48.0391V45.9453C301.398 44.3568 301.727 43.151 302.383 42.3281C303.044 41.5052 303.995 41.0938 305.234 41.0938C306.474 41.0938 307.422 41.5026 308.078 42.3203C308.734 43.1328 309.07 44.3021 309.086 45.8281V47.9219ZM306.828 45.625C306.828 44.6823 306.698 43.9974 306.438 43.5703C306.182 43.138 305.781 42.9219 305.234 42.9219C304.703 42.9219 304.31 43.1276 304.055 43.5391C303.805 43.9453 303.672 44.5833 303.656 45.4531V48.2188C303.656 49.1458 303.781 49.8359 304.031 50.2891C304.286 50.737 304.693 50.9609 305.25 50.9609C305.802 50.9609 306.201 50.7448 306.445 50.3125C306.69 49.8802 306.818 49.2188 306.828 48.3281V45.625ZM318.273 47.9219C318.273 49.4948 317.948 50.6979 317.297 51.5312C316.646 52.3646 315.693 52.7812 314.438 52.7812C313.198 52.7812 312.25 52.3724 311.594 51.5547C310.938 50.737 310.602 49.5651 310.586 48.0391V45.9453C310.586 44.3568 310.914 43.151 311.57 42.3281C312.232 41.5052 313.182 41.0938 314.422 41.0938C315.661 41.0938 316.609 41.5026 317.266 42.3203C317.922 43.1328 318.258 44.3021 318.273 45.8281V47.9219ZM316.016 45.625C316.016 44.6823 315.885 43.9974 315.625 43.5703C315.37 43.138 314.969 42.9219 314.422 42.9219C313.891 42.9219 313.497 43.1276 313.242 43.5391C312.992 43.9453 312.859 44.5833 312.844 45.4531V48.2188C312.844 49.1458 312.969 49.8359 313.219 50.2891C313.474 50.737 313.88 50.9609 314.438 50.9609C314.99 50.9609 315.388 50.7448 315.633 50.3125C315.878 49.8802 316.005 49.2188 316.016 48.3281V45.625ZM319.773 43.4375C319.773 42.7396 320 42.1745 320.453 41.7422C320.906 41.3047 321.5 41.0859 322.234 41.0859C322.979 41.0859 323.578 41.3021 324.031 41.7344C324.484 42.1615 324.711 42.7422 324.711 43.4766V44.0391C324.711 44.7422 324.484 45.3073 324.031 45.7344C323.578 46.1615 322.984 46.375 322.25 46.375C321.51 46.375 320.911 46.1615 320.453 45.7344C320 45.3021 319.773 44.7214 319.773 43.9922V43.4375ZM321.273 44.0391C321.273 44.3516 321.362 44.6042 321.539 44.7969C321.721 44.9844 321.958 45.0781 322.25 45.0781C322.542 45.0781 322.773 44.9818 322.945 44.7891C323.117 44.5964 323.203 44.3385 323.203 44.0156V43.4375C323.203 43.125 323.117 42.8724 322.945 42.6797C322.773 42.487 322.536 42.3906 322.234 42.3906C321.948 42.3906 321.716 42.487 321.539 42.6797C321.362 42.8672 321.273 43.1302 321.273 43.4688V44.0391ZM325.211 49.8359C325.211 49.1328 325.44 48.5677 325.898 48.1406C326.357 47.7083 326.951 47.4922 327.68 47.4922C328.419 47.4922 329.016 47.7057 329.469 48.1328C329.927 48.5547 330.156 49.138 330.156 49.8828V50.4453C330.156 51.1432 329.932 51.7083 329.484 52.1406C329.036 52.5677 328.44 52.7812 327.695 52.7812C326.945 52.7812 326.344 52.5651 325.891 52.1328C325.438 51.7005 325.211 51.1276 325.211 50.4141V49.8359ZM326.711 50.4453C326.711 50.7318 326.805 50.9766 326.992 51.1797C327.18 51.3828 327.414 51.4844 327.695 51.4844C328.331 51.4844 328.648 51.1328 328.648 50.4297V49.8359C328.648 49.5234 328.56 49.2734 328.383 49.0859C328.206 48.8932 327.971 48.7969 327.68 48.7969C327.388 48.7969 327.154 48.8932 326.977 49.0859C326.799 49.2734 326.711 49.5312 326.711 49.8594V50.4453ZM322.695 51.7734L321.594 51.1797L327.148 42.2891L328.25 42.8828L322.695 51.7734ZM148.516 72.3359C148.516 71.0182 148.81 69.9688 149.398 69.1875C149.992 68.4062 150.802 68.0156 151.828 68.0156C152.651 68.0156 153.331 68.3229 153.867 68.9375V64.625H156.133V76.625H154.094L153.984 75.7266C153.422 76.4297 152.698 76.7812 151.812 76.7812C150.818 76.7812 150.018 76.3906 149.414 75.6094C148.815 74.8229 148.516 73.7318 148.516 72.3359ZM150.773 72.5C150.773 73.2917 150.911 73.8984 151.188 74.3203C151.464 74.7422 151.865 74.9531 152.391 74.9531C153.089 74.9531 153.581 74.6589 153.867 74.0703V70.7344C153.586 70.1458 153.099 69.8516 152.406 69.8516C151.318 69.8516 150.773 70.7344 150.773 72.5ZM157.531 72.3203C157.531 71.4818 157.693 70.7344 158.016 70.0781C158.339 69.4219 158.802 68.9141 159.406 68.5547C160.016 68.1953 160.721 68.0156 161.523 68.0156C162.664 68.0156 163.594 68.3646 164.312 69.0625C165.036 69.7604 165.44 70.7083 165.523 71.9062L165.539 72.4844C165.539 73.7812 165.177 74.8229 164.453 75.6094C163.729 76.3906 162.758 76.7812 161.539 76.7812C160.32 76.7812 159.346 76.3906 158.617 75.6094C157.893 74.8281 157.531 73.7656 157.531 72.4219V72.3203ZM159.789 72.4844C159.789 73.2865 159.94 73.901 160.242 74.3281C160.544 74.75 160.977 74.9609 161.539 74.9609C162.086 74.9609 162.513 74.7526 162.82 74.3359C163.128 73.9141 163.281 73.2422 163.281 72.3203C163.281 71.5339 163.128 70.9245 162.82 70.4922C162.513 70.0599 162.081 69.8438 161.523 69.8438C160.971 69.8438 160.544 70.0599 160.242 70.4922C159.94 70.9193 159.789 71.5833 159.789 72.4844ZM171.508 74.2891C171.508 74.013 171.37 73.7969 171.094 73.6406C170.823 73.4792 170.385 73.3359 169.781 73.2109C167.771 72.7891 166.766 71.9349 166.766 70.6484C166.766 69.8984 167.076 69.2734 167.695 68.7734C168.32 68.2682 169.135 68.0156 170.141 68.0156C171.214 68.0156 172.07 68.2682 172.711 68.7734C173.357 69.2786 173.68 69.9349 173.68 70.7422H171.422C171.422 70.4193 171.318 70.1536 171.109 69.9453C170.901 69.7318 170.576 69.625 170.133 69.625C169.753 69.625 169.458 69.7109 169.25 69.8828C169.042 70.0547 168.938 70.2734 168.938 70.5391C168.938 70.7891 169.055 70.9922 169.289 71.1484C169.529 71.2995 169.93 71.4323 170.492 71.5469C171.055 71.6562 171.529 71.7812 171.914 71.9219C173.107 72.3594 173.703 73.1172 173.703 74.1953C173.703 74.9661 173.372 75.5911 172.711 76.0703C172.049 76.5443 171.195 76.7812 170.148 76.7812C169.44 76.7812 168.81 76.6562 168.258 76.4062C167.711 76.151 167.281 75.8047 166.969 75.3672C166.656 74.9245 166.5 74.4479 166.5 73.9375H168.641C168.661 74.3385 168.81 74.6458 169.086 74.8594C169.362 75.0729 169.732 75.1797 170.195 75.1797C170.628 75.1797 170.953 75.099 171.172 74.9375C171.396 74.7708 171.508 74.5547 171.508 74.2891ZM184.211 75.7656C183.654 76.4427 182.883 76.7812 181.898 76.7812C180.992 76.7812 180.299 76.5208 179.82 76C179.346 75.4792 179.104 74.7161 179.094 73.7109V68.1719H181.352V73.6328C181.352 74.513 181.753 74.9531 182.555 74.9531C183.32 74.9531 183.846 74.6875 184.133 74.1562V68.1719H186.398V76.625H184.273L184.211 75.7656ZM192.68 74.2891C192.68 74.013 192.542 73.7969 192.266 73.6406C191.995 73.4792 191.557 73.3359 190.953 73.2109C188.943 72.7891 187.938 71.9349 187.938 70.6484C187.938 69.8984 188.247 69.2734 188.867 68.7734C189.492 68.2682 190.307 68.0156 191.312 68.0156C192.385 68.0156 193.242 68.2682 193.883 68.7734C194.529 69.2786 194.852 69.9349 194.852 70.7422H192.594C192.594 70.4193 192.49 70.1536 192.281 69.9453C192.073 69.7318 191.747 69.625 191.305 69.625C190.924 69.625 190.63 69.7109 190.422 69.8828C190.214 70.0547 190.109 70.2734 190.109 70.5391C190.109 70.7891 190.227 70.9922 190.461 71.1484C190.701 71.2995 191.102 71.4323 191.664 71.5469C192.227 71.6562 192.701 71.7812 193.086 71.9219C194.279 72.3594 194.875 73.1172 194.875 74.1953C194.875 74.9661 194.544 75.5911 193.883 76.0703C193.221 76.5443 192.367 76.7812 191.32 76.7812C190.612 76.7812 189.982 76.6562 189.43 76.4062C188.883 76.151 188.453 75.8047 188.141 75.3672C187.828 74.9245 187.672 74.4479 187.672 73.9375H189.812C189.833 74.3385 189.982 74.6458 190.258 74.8594C190.534 75.0729 190.904 75.1797 191.367 75.1797C191.799 75.1797 192.125 75.099 192.344 74.9375C192.568 74.7708 192.68 74.5547 192.68 74.2891ZM201.398 75.7656C200.841 76.4427 200.07 76.7812 199.086 76.7812C198.18 76.7812 197.487 76.5208 197.008 76C196.534 75.4792 196.292 74.7161 196.281 73.7109V68.1719H198.539V73.6328C198.539 74.513 198.94 74.9531 199.742 74.9531C200.508 74.9531 201.034 74.6875 201.32 74.1562V68.1719H203.586V76.625H201.461L201.398 75.7656ZM210.188 76.625C210.083 76.4219 210.008 76.1693 209.961 75.8672C209.414 76.4766 208.703 76.7812 207.828 76.7812C207 76.7812 206.312 76.5417 205.766 76.0625C205.224 75.5833 204.953 74.9792 204.953 74.25C204.953 73.3542 205.284 72.6667 205.945 72.1875C206.612 71.7083 207.573 71.4661 208.828 71.4609H209.867V70.9766C209.867 70.5859 209.766 70.2734 209.562 70.0391C209.365 69.8047 209.049 69.6875 208.617 69.6875C208.237 69.6875 207.938 69.7786 207.719 69.9609C207.505 70.1432 207.398 70.3932 207.398 70.7109H205.141C205.141 70.2214 205.292 69.7682 205.594 69.3516C205.896 68.9349 206.323 68.6094 206.875 68.375C207.427 68.1354 208.047 68.0156 208.734 68.0156C209.776 68.0156 210.602 68.2786 211.211 68.8047C211.826 69.3255 212.133 70.0599 212.133 71.0078V74.6719C212.138 75.474 212.25 76.0807 212.469 76.4922V76.625H210.188ZM208.32 75.0547C208.654 75.0547 208.961 74.9818 209.242 74.8359C209.523 74.6849 209.732 74.4844 209.867 74.2344V72.7812H209.023C207.893 72.7812 207.292 73.1719 207.219 73.9531L207.211 74.0859C207.211 74.3672 207.31 74.599 207.508 74.7812C207.706 74.9635 207.977 75.0547 208.32 75.0547ZM209.18 64.625H211.641L209.477 67.0469H207.641L209.18 64.625ZM218.617 70.2891C218.31 70.2474 218.039 70.2266 217.805 70.2266C216.951 70.2266 216.391 70.5156 216.125 71.0938V76.625H213.867V68.1719H216L216.062 69.1797C216.516 68.4036 217.143 68.0156 217.945 68.0156C218.195 68.0156 218.43 68.0495 218.648 68.1172L218.617 70.2891ZM222.094 76.625H219.828V68.1719H222.094V76.625ZM219.695 65.9844C219.695 65.6458 219.807 65.3672 220.031 65.1484C220.26 64.9297 220.57 64.8203 220.961 64.8203C221.346 64.8203 221.654 64.9297 221.883 65.1484C222.112 65.3672 222.227 65.6458 222.227 65.9844C222.227 66.3281 222.109 66.6094 221.875 66.8281C221.646 67.0469 221.341 67.1562 220.961 67.1562C220.581 67.1562 220.273 67.0469 220.039 66.8281C219.81 66.6094 219.695 66.3281 219.695 65.9844ZM223.609 72.3203C223.609 71.4818 223.771 70.7344 224.094 70.0781C224.417 69.4219 224.88 68.9141 225.484 68.5547C226.094 68.1953 226.799 68.0156 227.602 68.0156C228.742 68.0156 229.672 68.3646 230.391 69.0625C231.115 69.7604 231.518 70.7083 231.602 71.9062L231.617 72.4844C231.617 73.7812 231.255 74.8229 230.531 75.6094C229.807 76.3906 228.836 76.7812 227.617 76.7812C226.398 76.7812 225.424 76.3906 224.695 75.6094C223.971 74.8281 223.609 73.7656 223.609 72.4219V72.3203ZM225.867 72.4844C225.867 73.2865 226.018 73.901 226.32 74.3281C226.622 74.75 227.055 74.9609 227.617 74.9609C228.164 74.9609 228.591 74.7526 228.898 74.3359C229.206 73.9141 229.359 73.2422 229.359 72.3203C229.359 71.5339 229.206 70.9245 228.898 70.4922C228.591 70.0599 228.159 69.8438 227.602 69.8438C227.049 69.8438 226.622 70.0599 226.32 70.4922C226.018 70.9193 225.867 71.5833 225.867 72.4844ZM237.586 74.2891C237.586 74.013 237.448 73.7969 237.172 73.6406C236.901 73.4792 236.464 73.3359 235.859 73.2109C233.849 72.7891 232.844 71.9349 232.844 70.6484C232.844 69.8984 233.154 69.2734 233.773 68.7734C234.398 68.2682 235.214 68.0156 236.219 68.0156C237.292 68.0156 238.148 68.2682 238.789 68.7734C239.435 69.2786 239.758 69.9349 239.758 70.7422H237.5C237.5 70.4193 237.396 70.1536 237.188 69.9453C236.979 69.7318 236.654 69.625 236.211 69.625C235.831 69.625 235.536 69.7109 235.328 69.8828C235.12 70.0547 235.016 70.2734 235.016 70.5391C235.016 70.7891 235.133 70.9922 235.367 71.1484C235.607 71.2995 236.008 71.4323 236.57 71.5469C237.133 71.6562 237.607 71.7812 237.992 71.9219C239.185 72.3594 239.781 73.1172 239.781 74.1953C239.781 74.9661 239.451 75.5911 238.789 76.0703C238.128 76.5443 237.273 76.7812 236.227 76.7812C235.518 76.7812 234.888 76.6562 234.336 76.4062C233.789 76.151 233.359 75.8047 233.047 75.3672C232.734 74.9245 232.578 74.4479 232.578 73.9375H234.719C234.74 74.3385 234.888 74.6458 235.164 74.8594C235.44 75.0729 235.81 75.1797 236.273 75.1797C236.706 75.1797 237.031 75.099 237.25 74.9375C237.474 74.7708 237.586 74.5547 237.586 74.2891ZM247.344 68.1719L247.414 69.1172C248.013 68.3828 248.823 68.0156 249.844 68.0156C250.932 68.0156 251.68 68.4453 252.086 69.3047C252.68 68.4453 253.526 68.0156 254.625 68.0156C255.542 68.0156 256.224 68.2839 256.672 68.8203C257.12 69.3516 257.344 70.1536 257.344 71.2266V76.625H255.078V71.2344C255.078 70.7552 254.984 70.4062 254.797 70.1875C254.609 69.9635 254.279 69.8516 253.805 69.8516C253.128 69.8516 252.659 70.1745 252.398 70.8203L252.406 76.625H250.148V71.2422C250.148 70.7526 250.052 70.3984 249.859 70.1797C249.667 69.9609 249.339 69.8516 248.875 69.8516C248.234 69.8516 247.771 70.1172 247.484 70.6484V76.625H245.227V68.1719H247.344ZM258.734 72.3203C258.734 71.4818 258.896 70.7344 259.219 70.0781C259.542 69.4219 260.005 68.9141 260.609 68.5547C261.219 68.1953 261.924 68.0156 262.727 68.0156C263.867 68.0156 264.797 68.3646 265.516 69.0625C266.24 69.7604 266.643 70.7083 266.727 71.9062L266.742 72.4844C266.742 73.7812 266.38 74.8229 265.656 75.6094C264.932 76.3906 263.961 76.7812 262.742 76.7812C261.523 76.7812 260.549 76.3906 259.82 75.6094C259.096 74.8281 258.734 73.7656 258.734 72.4219V72.3203ZM260.992 72.4844C260.992 73.2865 261.143 73.901 261.445 74.3281C261.747 74.75 262.18 74.9609 262.742 74.9609C263.289 74.9609 263.716 74.7526 264.023 74.3359C264.331 73.9141 264.484 73.2422 264.484 72.3203C264.484 71.5339 264.331 70.9245 264.023 70.4922C263.716 70.0599 263.284 69.8438 262.727 69.8438C262.174 69.8438 261.747 70.0599 261.445 70.4922C261.143 70.9193 260.992 71.5833 260.992 72.4844ZM275.75 72.4766C275.75 73.8307 275.461 74.888 274.883 75.6484C274.305 76.4036 273.497 76.7812 272.461 76.7812C271.544 76.7812 270.812 76.4297 270.266 75.7266L270.164 76.625H268.133V64.625H270.391V68.9297C270.911 68.3203 271.596 68.0156 272.445 68.0156C273.477 68.0156 274.284 68.3958 274.867 69.1562C275.456 69.9115 275.75 70.9766 275.75 72.3516V72.4766ZM273.492 72.3125C273.492 71.4583 273.357 70.8359 273.086 70.4453C272.815 70.0495 272.411 69.8516 271.875 69.8516C271.156 69.8516 270.661 70.1458 270.391 70.7344V74.0703C270.667 74.6641 271.167 74.9609 271.891 74.9609C272.62 74.9609 273.099 74.6016 273.328 73.8828C273.438 73.5391 273.492 73.0156 273.492 72.3125ZM279.531 76.625H277.266V68.1719H279.531V76.625ZM277.133 65.9844C277.133 65.6458 277.245 65.3672 277.469 65.1484C277.698 64.9297 278.008 64.8203 278.398 64.8203C278.784 64.8203 279.091 64.9297 279.32 65.1484C279.549 65.3672 279.664 65.6458 279.664 65.9844C279.664 66.3281 279.547 66.6094 279.312 66.8281C279.083 67.0469 278.779 67.1562 278.398 67.1562C278.018 67.1562 277.711 67.0469 277.477 66.8281C277.247 66.6094 277.133 66.3281 277.133 65.9844ZM283.781 76.625H281.516V64.625H283.781V76.625ZM289.539 76.7812C288.299 76.7812 287.289 76.401 286.508 75.6406C285.732 74.8802 285.344 73.8672 285.344 72.6016V72.3828C285.344 71.5339 285.508 70.776 285.836 70.1094C286.164 69.4375 286.628 68.9219 287.227 68.5625C287.831 68.1979 288.518 68.0156 289.289 68.0156C290.445 68.0156 291.354 68.3802 292.016 69.1094C292.682 69.8385 293.016 70.8724 293.016 72.2109V73.1328H287.633C287.706 73.6849 287.924 74.1276 288.289 74.4609C288.659 74.7943 289.125 74.9609 289.688 74.9609C290.557 74.9609 291.237 74.6458 291.727 74.0156L292.836 75.2578C292.497 75.737 292.039 76.112 291.461 76.3828C290.883 76.6484 290.242 76.7812 289.539 76.7812ZM289.281 69.8438C288.833 69.8438 288.469 69.9948 288.188 70.2969C287.911 70.599 287.734 71.0312 287.656 71.5938H290.797V71.4141C290.786 70.9141 290.651 70.5286 290.391 70.2578C290.13 69.9818 289.76 69.8438 289.281 69.8438ZM301.891 75.6016C302.406 75.6016 302.857 75.4453 303.242 75.1328C303.628 74.8203 303.841 74.4297 303.883 73.9609H305.25C305.224 74.4453 305.057 74.9062 304.75 75.3438C304.443 75.7812 304.031 76.1302 303.516 76.3906C303.005 76.651 302.464 76.7812 301.891 76.7812C300.74 76.7812 299.823 76.3984 299.141 75.6328C298.464 74.862 298.125 73.8099 298.125 72.4766V72.2344C298.125 71.4115 298.276 70.6797 298.578 70.0391C298.88 69.3984 299.312 68.901 299.875 68.5469C300.443 68.1927 301.112 68.0156 301.883 68.0156C302.831 68.0156 303.617 68.2995 304.242 68.8672C304.872 69.4349 305.208 70.1719 305.25 71.0781H303.883C303.841 70.5312 303.633 70.0833 303.258 69.7344C302.888 69.3802 302.43 69.2031 301.883 69.2031C301.148 69.2031 300.578 69.4688 300.172 70C299.771 70.526 299.57 71.2891 299.57 72.2891V72.5625C299.57 73.5365 299.771 74.2865 300.172 74.8125C300.573 75.3385 301.146 75.6016 301.891 75.6016ZM306.492 72.3203C306.492 71.4922 306.654 70.7474 306.977 70.0859C307.305 69.4245 307.758 68.9141 308.336 68.5547C308.919 68.1953 309.583 68.0156 310.328 68.0156C311.479 68.0156 312.409 68.4141 313.117 69.2109C313.831 70.0078 314.188 71.0677 314.188 72.3906V72.4922C314.188 73.3151 314.029 74.0547 313.711 74.7109C313.398 75.362 312.948 75.8698 312.359 76.2344C311.776 76.599 311.104 76.7812 310.344 76.7812C309.198 76.7812 308.268 76.3828 307.555 75.5859C306.846 74.7891 306.492 73.7344 306.492 72.4219V72.3203ZM307.945 72.4922C307.945 73.4297 308.161 74.1823 308.594 74.75C309.031 75.3177 309.615 75.6016 310.344 75.6016C311.078 75.6016 311.661 75.3151 312.094 74.7422C312.526 74.1641 312.742 73.3568 312.742 72.3203C312.742 71.3932 312.521 70.6432 312.078 70.0703C311.641 69.4922 311.057 69.2031 310.328 69.2031C309.615 69.2031 309.039 69.487 308.602 70.0547C308.164 70.6224 307.945 71.4349 307.945 72.4922ZM317.359 68.1719L317.398 69.1094C318.018 68.3802 318.854 68.0156 319.906 68.0156C321.089 68.0156 321.893 68.4688 322.32 69.375C322.602 68.9688 322.966 68.6406 323.414 68.3906C323.867 68.1406 324.401 68.0156 325.016 68.0156C326.87 68.0156 327.812 68.9974 327.844 70.9609V76.625H326.398V71.0469C326.398 70.4427 326.26 69.9922 325.984 69.6953C325.708 69.3932 325.245 69.2422 324.594 69.2422C324.057 69.2422 323.612 69.4036 323.258 69.7266C322.904 70.0443 322.698 70.474 322.641 71.0156V76.625H321.188V71.0859C321.188 69.8568 320.586 69.2422 319.383 69.2422C318.435 69.2422 317.786 69.6458 317.438 70.4531V76.625H315.992V68.1719H317.359ZM150.453 92.1719L150.492 93.1094C151.112 92.3802 151.948 92.0156 153 92.0156C154.182 92.0156 154.987 92.4688 155.414 93.375C155.695 92.9688 156.06 92.6406 156.508 92.3906C156.961 92.1406 157.495 92.0156 158.109 92.0156C159.964 92.0156 160.906 92.9974 160.938 94.9609V100.625H159.492V95.0469C159.492 94.4427 159.354 93.9922 159.078 93.6953C158.802 93.3932 158.339 93.2422 157.688 93.2422C157.151 93.2422 156.706 93.4036 156.352 93.7266C155.997 94.0443 155.792 94.474 155.734 95.0156V100.625H154.281V95.0859C154.281 93.8568 153.68 93.2422 152.477 93.2422C151.529 93.2422 150.88 93.6458 150.531 94.4531V100.625H149.086V92.1719H150.453ZM166.633 100.781C165.487 100.781 164.555 100.406 163.836 99.6562C163.117 98.901 162.758 97.8932 162.758 96.6328V96.3672C162.758 95.5286 162.917 94.7812 163.234 94.125C163.557 93.4635 164.005 92.9479 164.578 92.5781C165.156 92.2031 165.781 92.0156 166.453 92.0156C167.552 92.0156 168.406 92.3776 169.016 93.1016C169.625 93.8255 169.93 94.862 169.93 96.2109V96.8125H164.203C164.224 97.6458 164.466 98.3203 164.93 98.8359C165.398 99.3464 165.992 99.6016 166.711 99.6016C167.221 99.6016 167.654 99.4974 168.008 99.2891C168.362 99.0807 168.672 98.8047 168.938 98.4609L169.82 99.1484C169.112 100.237 168.049 100.781 166.633 100.781ZM166.453 93.2031C165.87 93.2031 165.38 93.4167 164.984 93.8438C164.589 94.2656 164.344 94.8594 164.25 95.625H168.484V95.5156C168.443 94.7812 168.245 94.2135 167.891 93.8125C167.536 93.4062 167.057 93.2031 166.453 93.2031ZM172.977 92.1719L173.023 93.2344C173.669 92.4219 174.513 92.0156 175.555 92.0156C177.341 92.0156 178.242 93.0234 178.258 95.0391V100.625H176.812V95.0312C176.807 94.4219 176.667 93.9714 176.391 93.6797C176.12 93.388 175.695 93.2422 175.117 93.2422C174.648 93.2422 174.237 93.3672 173.883 93.6172C173.529 93.8672 173.253 94.1953 173.055 94.6016V100.625H171.609V92.1719H172.977ZM185.359 98.3828C185.359 97.9922 185.211 97.6901 184.914 97.4766C184.622 97.2578 184.109 97.0703 183.375 96.9141C182.646 96.7578 182.065 96.5703 181.633 96.3516C181.206 96.1328 180.888 95.8724 180.68 95.5703C180.477 95.2682 180.375 94.9089 180.375 94.4922C180.375 93.7995 180.667 93.2135 181.25 92.7344C181.839 92.2552 182.589 92.0156 183.5 92.0156C184.458 92.0156 185.234 92.263 185.828 92.7578C186.427 93.2526 186.727 93.8854 186.727 94.6562H185.273C185.273 94.2604 185.104 93.9193 184.766 93.6328C184.432 93.3464 184.01 93.2031 183.5 93.2031C182.974 93.2031 182.562 93.3177 182.266 93.5469C181.969 93.776 181.82 94.0755 181.82 94.4453C181.82 94.7943 181.958 95.0573 182.234 95.2344C182.51 95.4115 183.008 95.5807 183.727 95.7422C184.451 95.9036 185.036 96.0964 185.484 96.3203C185.932 96.5443 186.263 96.8151 186.477 97.1328C186.695 97.4453 186.805 97.8281 186.805 98.2812C186.805 99.0365 186.503 99.6432 185.898 100.102C185.294 100.555 184.51 100.781 183.547 100.781C182.87 100.781 182.271 100.661 181.75 100.422C181.229 100.182 180.82 99.849 180.523 99.4219C180.232 98.9896 180.086 98.5234 180.086 98.0234H181.531C181.557 98.5078 181.75 98.8932 182.109 99.1797C182.474 99.4609 182.953 99.6016 183.547 99.6016C184.094 99.6016 184.531 99.4922 184.859 99.2734C185.193 99.0495 185.359 98.7526 185.359 98.3828ZM193.906 100.625C193.823 100.458 193.755 100.161 193.703 99.7344C193.031 100.432 192.229 100.781 191.297 100.781C190.464 100.781 189.779 100.547 189.242 100.078C188.711 99.6042 188.445 99.0052 188.445 98.2812C188.445 97.401 188.779 96.7188 189.445 96.2344C190.117 95.7448 191.06 95.5 192.273 95.5H193.68V94.8359C193.68 94.3307 193.529 93.9297 193.227 93.6328C192.924 93.3307 192.479 93.1797 191.891 93.1797C191.375 93.1797 190.943 93.3099 190.594 93.5703C190.245 93.8307 190.07 94.1458 190.07 94.5156H188.617C188.617 94.0938 188.766 93.6875 189.062 93.2969C189.365 92.901 189.771 92.5885 190.281 92.3594C190.797 92.1302 191.362 92.0156 191.977 92.0156C192.951 92.0156 193.714 92.2604 194.266 92.75C194.818 93.2344 195.104 93.9036 195.125 94.7578V98.6484C195.125 99.4245 195.224 100.042 195.422 100.5V100.625H193.906ZM191.508 99.5234C191.961 99.5234 192.391 99.4062 192.797 99.1719C193.203 98.9375 193.497 98.6328 193.68 98.2578V96.5234H192.547C190.776 96.5234 189.891 97.0417 189.891 98.0781C189.891 98.5312 190.042 98.8854 190.344 99.1406C190.646 99.3958 191.034 99.5234 191.508 99.5234ZM197.047 96.3281C197.047 95.0104 197.352 93.9635 197.961 93.1875C198.57 92.4062 199.378 92.0156 200.383 92.0156C201.414 92.0156 202.219 92.3802 202.797 93.1094L202.867 92.1719H204.188V100.422C204.188 101.516 203.862 102.378 203.211 103.008C202.565 103.638 201.695 103.953 200.602 103.953C199.992 103.953 199.396 103.823 198.812 103.562C198.229 103.302 197.784 102.945 197.477 102.492L198.227 101.625C198.846 102.391 199.604 102.773 200.5 102.773C201.203 102.773 201.75 102.576 202.141 102.18C202.536 101.784 202.734 101.227 202.734 100.508V99.7812C202.156 100.448 201.367 100.781 200.367 100.781C199.378 100.781 198.576 100.383 197.961 99.5859C197.352 98.7891 197.047 97.7031 197.047 96.3281ZM198.5 96.4922C198.5 97.4453 198.695 98.1953 199.086 98.7422C199.477 99.2839 200.023 99.5547 200.727 99.5547C201.638 99.5547 202.307 99.1406 202.734 98.3125V94.4531C202.292 93.6458 201.628 93.2422 200.742 93.2422C200.039 93.2422 199.49 93.5156 199.094 94.0625C198.698 94.6094 198.5 95.4193 198.5 96.4922ZM209.883 100.781C208.737 100.781 207.805 100.406 207.086 99.6562C206.367 98.901 206.008 97.8932 206.008 96.6328V96.3672C206.008 95.5286 206.167 94.7812 206.484 94.125C206.807 93.4635 207.255 92.9479 207.828 92.5781C208.406 92.2031 209.031 92.0156 209.703 92.0156C210.802 92.0156 211.656 92.3776 212.266 93.1016C212.875 93.8255 213.18 94.862 213.18 96.2109V96.8125H207.453C207.474 97.6458 207.716 98.3203 208.18 98.8359C208.648 99.3464 209.242 99.6016 209.961 99.6016C210.471 99.6016 210.904 99.4974 211.258 99.2891C211.612 99.0807 211.922 98.8047 212.188 98.4609L213.07 99.1484C212.362 100.237 211.299 100.781 209.883 100.781ZM209.703 93.2031C209.12 93.2031 208.63 93.4167 208.234 93.8438C207.839 94.2656 207.594 94.8594 207.5 95.625H211.734V95.5156C211.693 94.7812 211.495 94.2135 211.141 93.8125C210.786 93.4062 210.307 93.2031 209.703 93.2031ZM216.227 92.1719L216.273 93.2344C216.919 92.4219 217.763 92.0156 218.805 92.0156C220.591 92.0156 221.492 93.0234 221.508 95.0391V100.625H220.062V95.0312C220.057 94.4219 219.917 93.9714 219.641 93.6797C219.37 93.388 218.945 93.2422 218.367 93.2422C217.898 93.2422 217.487 93.3672 217.133 93.6172C216.779 93.8672 216.503 94.1953 216.305 94.6016V100.625H214.859V92.1719H216.227ZM228.609 98.3828C228.609 97.9922 228.461 97.6901 228.164 97.4766C227.872 97.2578 227.359 97.0703 226.625 96.9141C225.896 96.7578 225.315 96.5703 224.883 96.3516C224.456 96.1328 224.138 95.8724 223.93 95.5703C223.727 95.2682 223.625 94.9089 223.625 94.4922C223.625 93.7995 223.917 93.2135 224.5 92.7344C225.089 92.2552 225.839 92.0156 226.75 92.0156C227.708 92.0156 228.484 92.263 229.078 92.7578C229.677 93.2526 229.977 93.8854 229.977 94.6562H228.523C228.523 94.2604 228.354 93.9193 228.016 93.6328C227.682 93.3464 227.26 93.2031 226.75 93.2031C226.224 93.2031 225.812 93.3177 225.516 93.5469C225.219 93.776 225.07 94.0755 225.07 94.4453C225.07 94.7943 225.208 95.0573 225.484 95.2344C225.76 95.4115 226.258 95.5807 226.977 95.7422C227.701 95.9036 228.286 96.0964 228.734 96.3203C229.182 96.5443 229.513 96.8151 229.727 97.1328C229.945 97.4453 230.055 97.8281 230.055 98.2812C230.055 99.0365 229.753 99.6432 229.148 100.102C228.544 100.555 227.76 100.781 226.797 100.781C226.12 100.781 225.521 100.661 225 100.422C224.479 100.182 224.07 99.849 223.773 99.4219C223.482 98.9896 223.336 98.5234 223.336 98.0234H224.781C224.807 98.5078 225 98.8932 225.359 99.1797C225.724 99.4609 226.203 99.6016 226.797 99.6016C227.344 99.6016 227.781 99.4922 228.109 99.2734C228.443 99.0495 228.609 98.7526 228.609 98.3828ZM235.555 96.3281C235.555 95.0312 235.862 93.9896 236.477 93.2031C237.091 92.4115 237.896 92.0156 238.891 92.0156C239.88 92.0156 240.664 92.3542 241.242 93.0312V88.625H242.688V100.625H241.359L241.289 99.7188C240.711 100.427 239.906 100.781 238.875 100.781C237.896 100.781 237.096 100.38 236.477 99.5781C235.862 98.776 235.555 97.7292 235.555 96.4375V96.3281ZM237 96.4922C237 97.4505 237.198 98.2005 237.594 98.7422C237.99 99.2839 238.536 99.5547 239.234 99.5547C240.151 99.5547 240.82 99.1432 241.242 98.3203V94.4375C240.81 93.6406 240.146 93.2422 239.25 93.2422C238.542 93.2422 237.99 93.5156 237.594 94.0625C237.198 94.6094 237 95.4193 237 96.4922ZM248.445 100.781C247.299 100.781 246.367 100.406 245.648 99.6562C244.93 98.901 244.57 97.8932 244.57 96.6328V96.3672C244.57 95.5286 244.729 94.7812 245.047 94.125C245.37 93.4635 245.818 92.9479 246.391 92.5781C246.969 92.2031 247.594 92.0156 248.266 92.0156C249.365 92.0156 250.219 92.3776 250.828 93.1016C251.438 93.8255 251.742 94.862 251.742 96.2109V96.8125H246.016C246.036 97.6458 246.279 98.3203 246.742 98.8359C247.211 99.3464 247.805 99.6016 248.523 99.6016C249.034 99.6016 249.466 99.4974 249.82 99.2891C250.174 99.0807 250.484 98.8047 250.75 98.4609L251.633 99.1484C250.924 100.237 249.862 100.781 248.445 100.781ZM248.266 93.2031C247.682 93.2031 247.193 93.4167 246.797 93.8438C246.401 94.2656 246.156 94.8594 246.062 95.625H250.297V95.5156C250.255 94.7812 250.057 94.2135 249.703 93.8125C249.349 93.4062 248.87 93.2031 248.266 93.2031ZM259.352 90.125V92.1719H260.93V93.2891H259.352V98.5312C259.352 98.8698 259.422 99.125 259.562 99.2969C259.703 99.4635 259.943 99.5469 260.281 99.5469C260.448 99.5469 260.677 99.5156 260.969 99.4531V100.625C260.589 100.729 260.219 100.781 259.859 100.781C259.214 100.781 258.727 100.586 258.398 100.195C258.07 99.8047 257.906 99.25 257.906 98.5312V93.2891H256.367V92.1719H257.906V90.125H259.352ZM266.133 100.781C264.987 100.781 264.055 100.406 263.336 99.6562C262.617 98.901 262.258 97.8932 262.258 96.6328V96.3672C262.258 95.5286 262.417 94.7812 262.734 94.125C263.057 93.4635 263.505 92.9479 264.078 92.5781C264.656 92.2031 265.281 92.0156 265.953 92.0156C267.052 92.0156 267.906 92.3776 268.516 93.1016C269.125 93.8255 269.43 94.862 269.43 96.2109V96.8125H263.703C263.724 97.6458 263.966 98.3203 264.43 98.8359C264.898 99.3464 265.492 99.6016 266.211 99.6016C266.721 99.6016 267.154 99.4974 267.508 99.2891C267.862 99.0807 268.172 98.8047 268.438 98.4609L269.32 99.1484C268.612 100.237 267.549 100.781 266.133 100.781ZM265.953 93.2031C265.37 93.2031 264.88 93.4167 264.484 93.8438C264.089 94.2656 263.844 94.8594 263.75 95.625H267.984V95.5156C267.943 94.7812 267.745 94.2135 267.391 93.8125C267.036 93.4062 266.557 93.2031 265.953 93.2031ZM273.945 95.2578L275.82 92.1719H277.508L274.742 96.3516L277.594 100.625H275.922L273.969 97.4609L272.016 100.625H270.336L273.188 96.3516L270.422 92.1719H272.094L273.945 95.2578ZM281.008 90.125V92.1719H282.586V93.2891H281.008V98.5312C281.008 98.8698 281.078 99.125 281.219 99.2969C281.359 99.4635 281.599 99.5469 281.938 99.5469C282.104 99.5469 282.333 99.5156 282.625 99.4531V100.625C282.245 100.729 281.875 100.781 281.516 100.781C280.87 100.781 280.383 100.586 280.055 100.195C279.727 99.8047 279.562 99.25 279.562 98.5312V93.2891H278.023V92.1719H279.562V90.125H281.008ZM283.742 96.3203C283.742 95.4922 283.904 94.7474 284.227 94.0859C284.555 93.4245 285.008 92.9141 285.586 92.5547C286.169 92.1953 286.833 92.0156 287.578 92.0156C288.729 92.0156 289.659 92.4141 290.367 93.2109C291.081 94.0078 291.438 95.0677 291.438 96.3906V96.4922C291.438 97.3151 291.279 98.0547 290.961 98.7109C290.648 99.362 290.198 99.8698 289.609 100.234C289.026 100.599 288.354 100.781 287.594 100.781C286.448 100.781 285.518 100.383 284.805 99.5859C284.096 98.7891 283.742 97.7344 283.742 96.4219V96.3203ZM285.195 96.4922C285.195 97.4297 285.411 98.1823 285.844 98.75C286.281 99.3177 286.865 99.6016 287.594 99.6016C288.328 99.6016 288.911 99.3151 289.344 98.7422C289.776 98.1641 289.992 97.3568 289.992 96.3203C289.992 95.3932 289.771 94.6432 289.328 94.0703C288.891 93.4922 288.307 93.2031 287.578 93.2031C286.865 93.2031 286.289 93.487 285.852 94.0547C285.414 94.6224 285.195 95.4349 285.195 96.4922ZM296.867 96.3281C296.867 95.0312 297.174 93.9896 297.789 93.2031C298.404 92.4115 299.208 92.0156 300.203 92.0156C301.193 92.0156 301.977 92.3542 302.555 93.0312V88.625H304V100.625H302.672L302.602 99.7188C302.023 100.427 301.219 100.781 300.188 100.781C299.208 100.781 298.409 100.38 297.789 99.5781C297.174 98.776 296.867 97.7292 296.867 96.4375V96.3281ZM298.312 96.4922C298.312 97.4505 298.51 98.2005 298.906 98.7422C299.302 99.2839 299.849 99.5547 300.547 99.5547C301.464 99.5547 302.133 99.1432 302.555 98.3203V94.4375C302.122 93.6406 301.458 93.2422 300.562 93.2422C299.854 93.2422 299.302 93.5156 298.906 94.0625C298.51 94.6094 298.312 95.4193 298.312 96.4922ZM309.758 100.781C308.612 100.781 307.68 100.406 306.961 99.6562C306.242 98.901 305.883 97.8932 305.883 96.6328V96.3672C305.883 95.5286 306.042 94.7812 306.359 94.125C306.682 93.4635 307.13 92.9479 307.703 92.5781C308.281 92.2031 308.906 92.0156 309.578 92.0156C310.677 92.0156 311.531 92.3776 312.141 93.1016C312.75 93.8255 313.055 94.862 313.055 96.2109V96.8125H307.328C307.349 97.6458 307.591 98.3203 308.055 98.8359C308.523 99.3464 309.117 99.6016 309.836 99.6016C310.346 99.6016 310.779 99.4974 311.133 99.2891C311.487 99.0807 311.797 98.8047 312.062 98.4609L312.945 99.1484C312.237 100.237 311.174 100.781 309.758 100.781ZM309.578 93.2031C308.995 93.2031 308.505 93.4167 308.109 93.8438C307.714 94.2656 307.469 94.8594 307.375 95.625H311.609V95.5156C311.568 94.7812 311.37 94.2135 311.016 93.8125C310.661 93.4062 310.182 93.2031 309.578 93.2031ZM154.312 124.625C154.229 124.458 154.161 124.161 154.109 123.734C153.438 124.432 152.635 124.781 151.703 124.781C150.87 124.781 150.185 124.547 149.648 124.078C149.117 123.604 148.852 123.005 148.852 122.281C148.852 121.401 149.185 120.719 149.852 120.234C150.523 119.745 151.466 119.5 152.68 119.5H154.086V118.836C154.086 118.331 153.935 117.93 153.633 117.633C153.331 117.331 152.885 117.18 152.297 117.18C151.781 117.18 151.349 117.31 151 117.57C150.651 117.831 150.477 118.146 150.477 118.516H149.023C149.023 118.094 149.172 117.688 149.469 117.297C149.771 116.901 150.177 116.589 150.688 116.359C151.203 116.13 151.768 116.016 152.383 116.016C153.357 116.016 154.12 116.26 154.672 116.75C155.224 117.234 155.51 117.904 155.531 118.758V122.648C155.531 123.424 155.63 124.042 155.828 124.5V124.625H154.312ZM151.914 123.523C152.367 123.523 152.797 123.406 153.203 123.172C153.609 122.938 153.904 122.633 154.086 122.258V120.523H152.953C151.182 120.523 150.297 121.042 150.297 122.078C150.297 122.531 150.448 122.885 150.75 123.141C151.052 123.396 151.44 123.523 151.914 123.523ZM159.758 114.125V116.172H161.336V117.289H159.758V122.531C159.758 122.87 159.828 123.125 159.969 123.297C160.109 123.464 160.349 123.547 160.688 123.547C160.854 123.547 161.083 123.516 161.375 123.453V124.625C160.995 124.729 160.625 124.781 160.266 124.781C159.62 124.781 159.133 124.586 158.805 124.195C158.477 123.805 158.312 123.25 158.312 122.531V117.289H156.773V116.172H158.312V114.125H159.758ZM166.539 124.781C165.393 124.781 164.461 124.406 163.742 123.656C163.023 122.901 162.664 121.893 162.664 120.633V120.367C162.664 119.529 162.823 118.781 163.141 118.125C163.464 117.464 163.911 116.948 164.484 116.578C165.062 116.203 165.688 116.016 166.359 116.016C167.458 116.016 168.312 116.378 168.922 117.102C169.531 117.826 169.836 118.862 169.836 120.211V120.812H164.109C164.13 121.646 164.372 122.32 164.836 122.836C165.305 123.346 165.898 123.602 166.617 123.602C167.128 123.602 167.56 123.497 167.914 123.289C168.268 123.081 168.578 122.805 168.844 122.461L169.727 123.148C169.018 124.237 167.956 124.781 166.539 124.781ZM166.359 117.203C165.776 117.203 165.286 117.417 164.891 117.844C164.495 118.266 164.25 118.859 164.156 119.625H168.391V119.516C168.349 118.781 168.151 118.214 167.797 117.812C167.443 117.406 166.964 117.203 166.359 117.203ZM167.062 112.625H168.812L166.719 114.922H165.555L167.062 112.625ZM180.086 124.625H178.633V114.992L175.719 116.062V114.75L179.859 113.195H180.086V124.625ZM189.992 113.242V114.469H189.727C188.602 114.49 187.706 114.823 187.039 115.469C186.372 116.115 185.987 117.023 185.883 118.195C186.482 117.508 187.299 117.164 188.336 117.164C189.326 117.164 190.115 117.513 190.703 118.211C191.297 118.909 191.594 119.81 191.594 120.914C191.594 122.086 191.273 123.023 190.633 123.727C189.997 124.43 189.143 124.781 188.07 124.781C186.982 124.781 186.099 124.365 185.422 123.531C184.745 122.693 184.406 121.615 184.406 120.297V119.742C184.406 117.648 184.852 116.049 185.742 114.945C186.638 113.836 187.969 113.268 189.734 113.242H189.992ZM188.094 118.367C187.599 118.367 187.143 118.516 186.727 118.812C186.31 119.109 186.021 119.482 185.859 119.93V120.461C185.859 121.398 186.07 122.154 186.492 122.727C186.914 123.299 187.44 123.586 188.07 123.586C188.721 123.586 189.232 123.346 189.602 122.867C189.977 122.388 190.164 121.76 190.164 120.984C190.164 120.203 189.974 119.573 189.594 119.094C189.219 118.609 188.719 118.367 188.094 118.367ZM200.438 119.773C200.438 121.466 200.148 122.724 199.57 123.547C198.992 124.37 198.089 124.781 196.859 124.781C195.646 124.781 194.747 124.38 194.164 123.578C193.581 122.771 193.279 121.568 193.258 119.969V118.039C193.258 116.367 193.547 115.125 194.125 114.312C194.703 113.5 195.609 113.094 196.844 113.094C198.068 113.094 198.969 113.487 199.547 114.273C200.125 115.055 200.422 116.263 200.438 117.898V119.773ZM198.992 117.797C198.992 116.573 198.82 115.682 198.477 115.125C198.133 114.562 197.589 114.281 196.844 114.281C196.104 114.281 195.565 114.56 195.227 115.117C194.888 115.674 194.714 116.531 194.703 117.688V120C194.703 121.229 194.88 122.138 195.234 122.727C195.594 123.31 196.135 123.602 196.859 123.602C197.573 123.602 198.102 123.326 198.445 122.773C198.794 122.221 198.977 121.352 198.992 120.164V117.797ZM209.797 123.602C210.312 123.602 210.763 123.445 211.148 123.133C211.534 122.82 211.747 122.43 211.789 121.961H213.156C213.13 122.445 212.964 122.906 212.656 123.344C212.349 123.781 211.938 124.13 211.422 124.391C210.911 124.651 210.37 124.781 209.797 124.781C208.646 124.781 207.729 124.398 207.047 123.633C206.37 122.862 206.031 121.81 206.031 120.477V120.234C206.031 119.411 206.182 118.68 206.484 118.039C206.786 117.398 207.219 116.901 207.781 116.547C208.349 116.193 209.018 116.016 209.789 116.016C210.737 116.016 211.523 116.299 212.148 116.867C212.779 117.435 213.115 118.172 213.156 119.078H211.789C211.747 118.531 211.539 118.083 211.164 117.734C210.794 117.38 210.336 117.203 209.789 117.203C209.055 117.203 208.484 117.469 208.078 118C207.677 118.526 207.477 119.289 207.477 120.289V120.562C207.477 121.536 207.677 122.286 208.078 122.812C208.479 123.339 209.052 123.602 209.797 123.602ZM220 124.625C219.917 124.458 219.849 124.161 219.797 123.734C219.125 124.432 218.323 124.781 217.391 124.781C216.557 124.781 215.872 124.547 215.336 124.078C214.805 123.604 214.539 123.005 214.539 122.281C214.539 121.401 214.872 120.719 215.539 120.234C216.211 119.745 217.154 119.5 218.367 119.5H219.773V118.836C219.773 118.331 219.622 117.93 219.32 117.633C219.018 117.331 218.573 117.18 217.984 117.18C217.469 117.18 217.036 117.31 216.688 117.57C216.339 117.831 216.164 118.146 216.164 118.516H214.711C214.711 118.094 214.859 117.688 215.156 117.297C215.458 116.901 215.865 116.589 216.375 116.359C216.891 116.13 217.456 116.016 218.07 116.016C219.044 116.016 219.807 116.26 220.359 116.75C220.911 117.234 221.198 117.904 221.219 118.758V122.648C221.219 123.424 221.318 124.042 221.516 124.5V124.625H220ZM217.602 123.523C218.055 123.523 218.484 123.406 218.891 123.172C219.297 122.938 219.591 122.633 219.773 122.258V120.523H218.641C216.87 120.523 215.984 121.042 215.984 122.078C215.984 122.531 216.135 122.885 216.438 123.141C216.74 123.396 217.128 123.523 217.602 123.523ZM227.57 117.469C227.352 117.432 227.115 117.414 226.859 117.414C225.911 117.414 225.268 117.818 224.93 118.625V124.625H223.484V116.172H224.891L224.914 117.148C225.388 116.393 226.06 116.016 226.93 116.016C227.211 116.016 227.424 116.052 227.57 116.125V117.469ZM233.812 124.625C233.729 124.458 233.661 124.161 233.609 123.734C232.938 124.432 232.135 124.781 231.203 124.781C230.37 124.781 229.685 124.547 229.148 124.078C228.617 123.604 228.352 123.005 228.352 122.281C228.352 121.401 228.685 120.719 229.352 120.234C230.023 119.745 230.966 119.5 232.18 119.5H233.586V118.836C233.586 118.331 233.435 117.93 233.133 117.633C232.831 117.331 232.385 117.18 231.797 117.18C231.281 117.18 230.849 117.31 230.5 117.57C230.151 117.831 229.977 118.146 229.977 118.516H228.523C228.523 118.094 228.672 117.688 228.969 117.297C229.271 116.901 229.677 116.589 230.188 116.359C230.703 116.13 231.268 116.016 231.883 116.016C232.857 116.016 233.62 116.26 234.172 116.75C234.724 117.234 235.01 117.904 235.031 118.758V122.648C235.031 123.424 235.13 124.042 235.328 124.5V124.625H233.812ZM231.414 123.523C231.867 123.523 232.297 123.406 232.703 123.172C233.109 122.938 233.404 122.633 233.586 122.258V120.523H232.453C230.682 120.523 229.797 121.042 229.797 122.078C229.797 122.531 229.948 122.885 230.25 123.141C230.552 123.396 230.94 123.523 231.414 123.523ZM240.688 123.602C241.203 123.602 241.654 123.445 242.039 123.133C242.424 122.82 242.638 122.43 242.68 121.961H244.047C244.021 122.445 243.854 122.906 243.547 123.344C243.24 123.781 242.828 124.13 242.312 124.391C241.802 124.651 241.26 124.781 240.688 124.781C239.536 124.781 238.62 124.398 237.938 123.633C237.26 122.862 236.922 121.81 236.922 120.477V120.234C236.922 119.411 237.073 118.68 237.375 118.039C237.677 117.398 238.109 116.901 238.672 116.547C239.24 116.193 239.909 116.016 240.68 116.016C241.628 116.016 242.414 116.299 243.039 116.867C243.669 117.435 244.005 118.172 244.047 119.078H242.68C242.638 118.531 242.43 118.083 242.055 117.734C241.685 117.38 241.227 117.203 240.68 117.203C239.945 117.203 239.375 117.469 238.969 118C238.568 118.526 238.367 119.289 238.367 120.289V120.562C238.367 121.536 238.568 122.286 238.969 122.812C239.37 123.339 239.943 123.602 240.688 123.602ZM247.633 114.125V116.172H249.211V117.289H247.633V122.531C247.633 122.87 247.703 123.125 247.844 123.297C247.984 123.464 248.224 123.547 248.562 123.547C248.729 123.547 248.958 123.516 249.25 123.453V124.625C248.87 124.729 248.5 124.781 248.141 124.781C247.495 124.781 247.008 124.586 246.68 124.195C246.352 123.805 246.188 123.25 246.188 122.531V117.289H244.648V116.172H246.188V114.125H247.633ZM254.414 124.781C253.268 124.781 252.336 124.406 251.617 123.656C250.898 122.901 250.539 121.893 250.539 120.633V120.367C250.539 119.529 250.698 118.781 251.016 118.125C251.339 117.464 251.786 116.948 252.359 116.578C252.938 116.203 253.562 116.016 254.234 116.016C255.333 116.016 256.188 116.378 256.797 117.102C257.406 117.826 257.711 118.862 257.711 120.211V120.812H251.984C252.005 121.646 252.247 122.32 252.711 122.836C253.18 123.346 253.773 123.602 254.492 123.602C255.003 123.602 255.435 123.497 255.789 123.289C256.143 123.081 256.453 122.805 256.719 122.461L257.602 123.148C256.893 124.237 255.831 124.781 254.414 124.781ZM254.234 117.203C253.651 117.203 253.161 117.417 252.766 117.844C252.37 118.266 252.125 118.859 252.031 119.625H256.266V119.516C256.224 118.781 256.026 118.214 255.672 117.812C255.318 117.406 254.839 117.203 254.234 117.203ZM263.477 117.469C263.258 117.432 263.021 117.414 262.766 117.414C261.818 117.414 261.174 117.818 260.836 118.625V124.625H259.391V116.172H260.797L260.82 117.148C261.294 116.393 261.966 116.016 262.836 116.016C263.117 116.016 263.331 116.052 263.477 116.125V117.469ZM268.164 124.781C267.018 124.781 266.086 124.406 265.367 123.656C264.648 122.901 264.289 121.893 264.289 120.633V120.367C264.289 119.529 264.448 118.781 264.766 118.125C265.089 117.464 265.536 116.948 266.109 116.578C266.688 116.203 267.312 116.016 267.984 116.016C269.083 116.016 269.938 116.378 270.547 117.102C271.156 117.826 271.461 118.862 271.461 120.211V120.812H265.734C265.755 121.646 265.997 122.32 266.461 122.836C266.93 123.346 267.523 123.602 268.242 123.602C268.753 123.602 269.185 123.497 269.539 123.289C269.893 123.081 270.203 122.805 270.469 122.461L271.352 123.148C270.643 124.237 269.581 124.781 268.164 124.781ZM267.984 117.203C267.401 117.203 266.911 117.417 266.516 117.844C266.12 118.266 265.875 118.859 265.781 119.625H270.016V119.516C269.974 118.781 269.776 118.214 269.422 117.812C269.068 117.406 268.589 117.203 267.984 117.203ZM278.062 122.383C278.062 121.992 277.914 121.69 277.617 121.477C277.326 121.258 276.812 121.07 276.078 120.914C275.349 120.758 274.768 120.57 274.336 120.352C273.909 120.133 273.591 119.872 273.383 119.57C273.18 119.268 273.078 118.909 273.078 118.492C273.078 117.799 273.37 117.214 273.953 116.734C274.542 116.255 275.292 116.016 276.203 116.016C277.161 116.016 277.938 116.263 278.531 116.758C279.13 117.253 279.43 117.885 279.43 118.656H277.977C277.977 118.26 277.807 117.919 277.469 117.633C277.135 117.346 276.714 117.203 276.203 117.203C275.677 117.203 275.266 117.318 274.969 117.547C274.672 117.776 274.523 118.076 274.523 118.445C274.523 118.794 274.661 119.057 274.938 119.234C275.214 119.411 275.711 119.581 276.43 119.742C277.154 119.904 277.74 120.096 278.188 120.32C278.635 120.544 278.966 120.815 279.18 121.133C279.398 121.445 279.508 121.828 279.508 122.281C279.508 123.036 279.206 123.643 278.602 124.102C277.997 124.555 277.214 124.781 276.25 124.781C275.573 124.781 274.974 124.661 274.453 124.422C273.932 124.182 273.523 123.849 273.227 123.422C272.935 122.99 272.789 122.523 272.789 122.023H274.234C274.26 122.508 274.453 122.893 274.812 123.18C275.177 123.461 275.656 123.602 276.25 123.602C276.797 123.602 277.234 123.492 277.562 123.273C277.896 123.049 278.062 122.753 278.062 122.383ZM281.422 123.867C281.422 123.617 281.495 123.409 281.641 123.242C281.792 123.076 282.016 122.992 282.312 122.992C282.609 122.992 282.833 123.076 282.984 123.242C283.141 123.409 283.219 123.617 283.219 123.867C283.219 124.107 283.141 124.307 282.984 124.469C282.833 124.63 282.609 124.711 282.312 124.711C282.016 124.711 281.792 124.63 281.641 124.469C281.495 124.307 281.422 124.107 281.422 123.867Z" fill="#707070"/>
<defs>
<filter id="filter0_d" x="0" y="0.625" width="358" height="170" filterUnits="userSpaceOnUse" color-interpolation-filters="sRGB">
<feFlood flood-opacity="0" result="BackgroundImageFix"/>
<feColorMatrix in="SourceAlpha" type="matrix" values="0 0 0 0 0 0 0 0 0 0 0 0 0 0 0 0 0 0 127 0"/>
<feOffset dy="4"/>
<feGaussianBlur stdDeviation="2"/>
<feColorMatrix type="matrix" values="0 0 0 0 0 0 0 0 0 0 0 0 0 0 0 0 0 0 0.25 0"/>
<feBlend mode="normal" in2="BackgroundImageFix" result="effect1_dropShadow"/>
<feBlend mode="normal" in="SourceGraphic" in2="effect1_dropShadow" result="shape"/>
</filter>
<filter id="filter1_d" x="54.9238" y="45.3403" width="80" height="80" filterUnits="userSpaceOnUse" color-interpolation-filters="sRGB">
<feFlood flood-opacity="0" result="BackgroundImageFix"/>
<feColorMatrix in="SourceAlpha" type="matrix" values="0 0 0 0 0 0 0 0 0 0 0 0 0 0 0 0 0 0 127 0"/>
<feOffset dy="4"/>
<feGaussianBlur stdDeviation="2"/>
<feColorMatrix type="matrix" values="0 0 0 0 0 0 0 0 0 0 0 0 0 0 0 0 0 0 0.25 0"/>
<feBlend mode="normal" in2="BackgroundImageFix" result="effect1_dropShadow"/>
<feBlend mode="normal" in="SourceGraphic" in2="effect1_dropShadow" result="shape"/>
</filter>
<clipPath id="clip0">
<rect width="350" height="162" fill="white" transform="translate(4 0.625)"/>
</clipPath>
</defs>
</svg>
