<svg width="305" height="105" viewBox="0 0 305 105" fill="none" xmlns="http://www.w3.org/2000/svg">
<path d="M150.337 82.736C147.397 81.5653 145.11 79.9863 143.531 78.0261C141.924 76.0659 141.135 73.8879 141.135 71.4648V70.2941C141.135 69.6407 141.461 69.314 142.142 69.314H147.015C147.696 69.314 148.023 69.6407 148.023 70.2941V71.0837C148.023 73.2345 149.193 75.113 151.535 76.7193C153.876 78.3256 156.789 79.1151 160.328 79.1151C163.841 79.1151 166.699 78.3528 168.877 76.8009C171.055 75.2763 172.117 73.3161 172.117 70.9748C172.117 69.3413 171.545 68.0072 170.429 66.9455C169.313 65.9109 167.979 65.0941 166.454 64.4952C164.93 63.8962 162.588 63.1612 159.403 62.2355C155.619 61.201 152.488 60.1392 150.065 59.1046C147.614 58.0701 145.572 56.5999 143.912 54.7486C142.251 52.8973 141.434 50.5287 141.434 47.6428C141.434 43.4774 143.122 40.1287 146.525 37.6512C149.901 35.1737 154.393 33.9214 159.947 33.9214C163.677 33.9214 166.971 34.5203 169.857 35.691C172.743 36.8617 174.948 38.4952 176.527 40.5371C178.079 42.6062 178.869 44.8931 178.869 47.4523V47.7517C178.869 48.4052 178.542 48.7319 177.861 48.7319H173.097C172.416 48.7319 172.09 48.4052 172.09 47.7517V47.4523C172.09 45.2198 171.001 43.3685 168.795 41.8711C166.59 40.3737 163.623 39.6114 159.893 39.6114C156.435 39.6114 153.658 40.2921 151.562 41.6261C149.466 42.9601 148.404 44.8114 148.404 47.1528C148.404 49.3853 149.411 51.0732 151.453 52.2439C153.495 53.4146 156.626 54.5853 160.9 55.7832C164.821 56.8994 168.006 57.9339 170.456 58.914C172.906 59.8942 175.003 61.3099 176.745 63.1884C178.515 65.0397 179.386 67.49 179.386 70.4847C179.386 74.7318 177.671 78.135 174.213 80.6669C170.756 83.2261 166.182 84.4784 160.492 84.4784C156.653 84.5057 153.277 83.9067 150.337 82.736Z" fill="#F09700"/>
<path fill-rule="evenodd" clip-rule="evenodd" d="M159.948 36.1701C154.72 36.1701 150.739 37.3485 147.856 39.4642L147.853 39.4667L147.849 39.4693C145.029 41.5224 143.683 44.1945 143.683 47.643C143.683 50.078 144.359 51.8794 145.586 53.2472C147.023 54.8485 148.79 56.1256 150.94 57.0332L150.944 57.0349L150.948 57.0367C153.249 58.0193 156.277 59.0498 159.996 60.0666L160.014 60.0713L160.031 60.0763C163.212 61.0008 165.645 61.7612 167.277 62.4024C169.036 63.0933 170.616 64.0525 171.958 65.2964L171.969 65.3063L171.979 65.3163C173.557 66.8169 174.366 68.7467 174.366 70.9749C174.366 74.1286 172.879 76.742 170.175 78.638C167.507 80.5354 164.15 81.3639 160.329 81.3639C156.452 81.3639 153.065 80.4954 150.263 78.5736C147.669 76.7936 145.959 74.4606 145.789 71.5628H143.385C143.405 73.4067 144.003 75.0544 145.27 76.601L145.276 76.6082L145.282 76.6156C146.562 78.2044 148.495 79.5823 151.169 80.647C153.8 81.6945 156.882 82.2555 160.476 82.23L160.484 82.2299H160.492C165.865 82.2299 169.92 81.0478 172.876 78.8596L172.881 78.8562L172.885 78.8528C175.764 76.7446 177.138 74.0155 177.138 70.4848C177.138 67.9489 176.414 66.0958 175.12 64.7423L175.109 64.7301L175.097 64.7177C173.593 63.0956 171.779 61.8648 169.622 61.002C167.276 60.0636 164.176 59.0538 160.289 57.9472C155.968 56.736 152.623 55.5063 150.335 54.1948C149.044 53.4547 147.973 52.4873 147.234 51.2513C146.491 50.0097 146.156 48.6196 146.156 47.1529C146.156 43.9838 147.662 41.4432 150.355 39.7291C152.923 38.0954 156.161 37.3629 159.893 37.3629C163.908 37.3629 167.364 38.1811 170.059 40.0109C172.463 41.6433 173.991 43.8079 174.286 46.4833H176.573C176.406 44.8253 175.801 43.3198 174.739 41.8997C173.437 40.2215 171.578 38.8156 169.013 37.7749C166.437 36.7299 163.436 36.1701 159.948 36.1701ZM145.199 35.8359C149.067 32.9984 154.07 31.6729 159.948 31.6729C163.919 31.6729 167.507 32.311 170.703 33.6074C173.903 34.9054 176.451 36.7618 178.307 39.1616L178.317 39.1747L178.327 39.188C180.159 41.6305 181.118 44.3873 181.118 47.4524V47.7519C181.118 48.4253 180.948 49.3555 180.194 50.0933C179.45 50.8224 178.526 50.9806 177.862 50.9806H173.098C172.434 50.9806 171.509 50.8224 170.765 50.0933C170.012 49.3555 169.842 48.4253 169.842 47.7519V47.4524C169.842 46.1133 169.255 44.9012 167.533 43.7316C165.817 42.5666 163.339 41.8602 159.893 41.8602C156.711 41.8602 154.395 42.4889 152.77 43.5233C151.271 44.4773 150.653 45.6393 150.653 47.1529C150.653 47.9187 150.822 48.4888 151.093 48.942C151.367 49.4007 151.821 49.8626 152.572 50.2932C154.367 51.3226 157.282 52.4339 161.508 53.6181L161.512 53.6193L161.517 53.6206C165.469 54.746 168.738 55.8049 171.292 56.8264C174.03 57.9216 176.405 59.5182 178.383 61.6471C180.62 63.9945 181.635 67.0373 181.635 70.4848C181.635 75.4464 179.58 79.5223 175.547 82.4778C171.591 85.4044 166.502 86.7261 160.5 86.7272C156.42 86.7552 152.753 86.1183 149.506 84.8253C146.303 83.55 143.664 81.7721 141.786 79.4441C139.867 77.0993 138.887 74.4244 138.887 71.465V70.2943C138.887 69.6209 139.057 68.6907 139.81 67.9529C140.555 67.2238 141.479 67.0655 142.143 67.0655H147.016C147.68 67.0655 148.604 67.2238 149.348 67.9528C150.102 68.6907 150.272 69.6209 150.272 70.2943V71.0838C150.272 72.2646 150.861 73.5297 152.807 74.8652C154.689 76.1559 157.128 76.8666 160.329 76.8666C163.529 76.8666 165.886 76.172 167.573 74.9697L167.581 74.9643L167.588 74.9589C169.235 73.8061 169.869 72.501 169.869 70.9749C169.869 69.9413 169.538 69.2052 168.89 68.5843C168.001 67.7639 166.917 67.093 165.632 66.5883C164.218 66.0325 161.973 65.3243 158.793 64.3999C154.953 63.3496 151.727 62.2589 149.186 61.1745C146.437 60.013 144.122 58.3505 142.238 56.2503C140.144 53.9154 139.186 50.9796 139.186 47.643C139.186 42.7619 141.215 38.7376 145.199 35.8359Z" fill="#F09700"/>
<path d="M251.451 38.1683C254.392 41.1086 255.862 45.1107 255.862 50.229V83.0353C255.862 83.6887 255.535 84.0154 254.855 84.0154H249.764C249.083 84.0154 248.756 83.6887 248.756 83.0353V51.5903C248.756 47.9965 247.694 45.1379 245.544 43.0144C243.42 40.8908 240.616 39.829 237.158 39.829C233.565 39.829 230.679 40.8636 228.473 42.9599C226.268 45.0562 225.179 47.8604 225.179 51.3725V83.0081C225.179 83.6615 224.853 83.9882 224.172 83.9882H218.999C218.318 83.9882 217.992 83.6615 217.992 83.0081V51.5903C217.992 47.9965 216.93 45.1379 214.834 43.0144C212.737 40.8908 209.933 39.829 206.394 39.829C202.8 39.829 199.942 40.8636 197.818 42.9599C195.694 45.0562 194.605 47.8604 194.605 51.3725V83.0081C194.605 83.6615 194.279 83.9882 193.598 83.9882H188.425C187.745 83.9882 187.418 83.6615 187.418 83.0081V35.4185C187.418 34.7651 187.745 34.4384 188.425 34.4384H193.598C194.279 34.4384 194.605 34.7651 194.605 35.4185V39.339C194.605 39.4751 194.66 39.5568 194.769 39.584C194.878 39.6112 194.987 39.5568 195.123 39.4479C196.62 37.5421 198.526 36.1264 200.867 35.1735C203.209 34.2206 205.795 33.7578 208.654 33.7578C212.166 33.7578 215.188 34.4384 217.692 35.8269C220.197 37.1882 222.103 39.2028 223.382 41.7892C223.518 42.1159 223.682 42.1159 223.9 41.7892C225.397 39.1212 227.493 37.1065 230.189 35.7725C232.911 34.4384 235.988 33.7578 239.445 33.7578C244.482 33.7578 248.511 35.228 251.451 38.1683Z" fill="#F09700"/>
<path fill-rule="evenodd" clip-rule="evenodd" d="M208.654 36.0066C206.042 36.0066 203.749 36.4287 201.715 37.2564C199.821 38.0272 198.301 39.132 197.087 40.5945C199.6 38.5282 202.767 37.5805 206.394 37.5805C210.417 37.5805 213.84 38.8061 216.435 41.4347C219.025 44.0583 220.241 47.5268 220.241 51.5904V81.7396H222.931V51.3726C222.931 48.5942 223.537 46.095 224.813 43.9603C224.518 44.1293 224.114 44.283 223.611 44.283C222.761 44.283 222.164 43.8495 221.842 43.5019C221.586 43.2267 221.433 42.9386 221.344 42.7397C220.263 40.5768 218.687 38.9267 216.619 37.8028L216.611 37.7983L216.603 37.7937C214.506 36.6312 211.879 36.0066 208.654 36.0066ZM226.767 41.4827C226.819 41.4315 226.872 41.3807 226.925 41.3303C229.625 38.7632 233.105 37.5805 237.159 37.5805C241.109 37.5805 244.518 38.8113 247.129 41.4191C249.788 44.0477 251.005 47.5274 251.005 51.5904V81.7669H253.614V50.2291C253.614 45.5649 252.29 42.1861 249.862 39.7584C247.433 37.3296 244.026 36.0066 239.446 36.0066C236.293 36.0066 233.562 36.6247 231.183 37.79C229.403 38.6717 227.935 39.8974 226.767 41.4827ZM196.104 41.4947C195.696 41.7246 195.034 41.9681 194.224 41.7656C193.71 41.6372 193.158 41.323 192.776 40.7498C192.424 40.2222 192.357 39.6852 192.357 39.3391V36.6872H189.667V81.7396H192.357V51.3726C192.357 47.4286 193.578 44.0625 196.104 41.4947ZM200.02 33.0909C202.669 32.0128 205.55 31.5093 208.654 31.5093C212.45 31.5093 215.864 32.2446 218.775 33.8558C220.746 34.9283 222.399 36.3516 223.72 38.0799C225.208 36.2752 227.035 34.8247 229.192 33.7573L229.196 33.7553L229.2 33.7533C232.264 32.2517 235.685 31.5093 239.446 31.5093C244.938 31.5093 249.59 33.1265 253.042 36.5784C256.495 40.0313 258.111 44.6567 258.111 50.2291V83.0354C258.111 83.7088 257.941 84.639 257.188 85.3768C256.443 86.1059 255.519 86.2642 254.855 86.2642H249.764C249.1 86.2642 248.176 86.1059 247.432 85.3768C246.678 84.639 246.508 83.7088 246.508 83.0354V51.5904C246.508 48.4684 245.603 46.2325 243.964 44.6146L243.959 44.6096L243.954 44.6045C242.319 42.9688 240.121 42.0778 237.159 42.0778C234.026 42.0778 231.733 42.9642 230.023 44.5898C228.339 46.1907 227.428 48.3655 227.428 51.3726V83.0082C227.428 83.6815 227.258 84.6117 226.505 85.3496C225.761 86.0787 224.837 86.2369 224.173 86.2369H219C218.336 86.2369 217.412 86.0787 216.667 85.3496C215.914 84.6118 215.744 83.6816 215.744 83.0082V51.5904C215.744 48.4665 214.837 46.2177 213.234 44.5942C211.636 42.9757 209.45 42.0778 206.394 42.0778C203.256 42.0778 201.013 42.9663 199.398 44.5603C197.769 46.1687 196.855 48.3619 196.855 51.3726V83.0082C196.855 83.6816 196.684 84.6118 195.931 85.3496C195.187 86.0787 194.263 86.2369 193.599 86.2369H188.426C187.762 86.2369 186.838 86.0787 186.093 85.3496C185.34 84.6117 185.17 83.6815 185.17 83.0082V35.4187C185.17 34.7453 185.34 33.8151 186.093 33.0773C186.838 32.3481 187.762 32.1899 188.426 32.1899H193.599C194.263 32.1899 195.187 32.3481 195.931 33.0772C196.477 33.6117 196.716 34.2471 196.807 34.8127C197.792 34.1346 198.864 33.5614 200.02 33.0909Z" fill="#F09700"/>
<path d="M273.095 82.736C270.154 81.5653 267.867 79.9863 266.288 78.0261C264.682 76.0659 263.893 73.8879 263.893 71.4648V70.2941C263.893 69.6407 264.219 69.314 264.9 69.314H269.8C270.481 69.314 270.808 69.6407 270.808 70.2941V71.0837C270.808 73.2345 271.978 75.113 274.32 76.7193C276.661 78.3256 279.574 79.1151 283.114 79.1151C286.626 79.1151 289.484 78.3528 291.662 76.8009C293.84 75.2763 294.902 73.3161 294.902 70.9748C294.902 69.3413 294.33 68.0072 293.214 66.9455C292.098 65.9109 290.764 65.0941 289.239 64.4952C287.715 63.8962 285.373 63.1612 282.188 62.2355C278.404 61.201 275.273 60.1392 272.85 59.1046C270.399 58.0701 268.357 56.5999 266.697 54.7486C265.036 52.8973 264.219 50.5287 264.219 47.6428C264.219 43.4774 265.907 40.1287 269.31 37.6512C272.686 35.1737 277.178 33.9214 282.732 33.9214C286.462 33.9214 289.756 34.5203 292.642 35.691C295.528 36.8617 297.733 38.4952 299.312 40.5371C300.864 42.6062 301.654 44.8931 301.654 47.4523V47.7517C301.654 48.4052 301.327 48.7319 300.647 48.7319H295.882C295.201 48.7319 294.875 48.4052 294.875 47.7517V47.4523C294.875 45.2198 293.786 43.3685 291.581 41.8711C289.375 40.3737 286.408 39.6114 282.678 39.6114C279.22 39.6114 276.443 40.2921 274.347 41.6261C272.251 42.9601 271.189 44.8114 271.189 47.1528C271.189 49.3853 272.196 51.0732 274.238 52.2439C276.28 53.4146 279.411 54.5853 283.685 55.7832C287.606 56.8994 290.791 57.9339 293.241 58.914C295.692 59.8942 297.788 61.3099 299.53 63.1884C301.3 65.0397 302.171 67.49 302.171 70.4847C302.171 74.7318 300.456 78.135 296.998 80.6669C293.541 83.2261 288.967 84.4784 283.277 84.4784C279.411 84.5057 276.035 83.9067 273.095 82.736Z" fill="#F09700"/>
<path fill-rule="evenodd" clip-rule="evenodd" d="M282.733 36.1701C277.505 36.1701 273.524 37.3485 270.641 39.4642L270.638 39.4667L270.634 39.4693C267.814 41.5224 266.469 44.1945 266.469 47.643C266.469 50.078 267.144 51.8794 268.371 53.2472C269.808 54.8485 271.575 56.1256 273.725 57.0332L273.729 57.0349L273.733 57.0367C276.034 58.0193 279.062 59.0498 282.781 60.0666L282.799 60.0713L282.816 60.0763C285.997 61.0008 288.43 61.7612 290.062 62.4024C291.821 63.0933 293.401 64.0525 294.743 65.2964L294.754 65.3063L294.764 65.3163C296.342 66.817 297.151 68.7467 297.151 70.9749C297.151 74.1285 295.664 76.742 292.96 78.638C290.293 80.5354 286.935 81.3639 283.114 81.3639C279.237 81.3639 275.85 80.4954 273.048 78.5736C270.454 76.7936 268.744 74.4606 268.574 71.5628H266.142C266.163 73.4067 266.761 75.0544 268.028 76.601L268.034 76.6082L268.04 76.6156C269.32 78.2044 271.253 79.5823 273.927 80.647C276.557 81.6941 279.639 82.2555 283.262 82.23L283.27 82.2299H283.277C288.65 82.2299 292.705 81.0478 295.661 78.8596L295.666 78.8562L295.67 78.8528C298.549 76.7446 299.923 74.0155 299.923 70.4848C299.923 67.9489 299.199 66.0958 297.905 64.7423L297.894 64.7301L297.882 64.7177C296.378 63.0956 294.564 61.8648 292.407 61.002C290.061 60.0636 286.961 59.0538 283.074 57.9472C278.753 56.736 275.408 55.5063 273.12 54.1948C271.829 53.4547 270.758 52.4873 270.019 51.2513C269.276 50.0097 268.941 48.6196 268.941 47.1529C268.941 43.9838 270.447 41.4432 273.14 39.7291C275.708 38.0954 278.946 37.3629 282.679 37.3629C286.693 37.3629 290.15 38.1811 292.844 40.0109C295.248 41.6433 296.776 43.8079 297.071 46.4833H299.358C299.191 44.8253 298.586 43.3198 297.524 41.8997C296.222 40.2215 294.363 38.8156 291.798 37.7749C289.222 36.7299 286.221 36.1701 282.733 36.1701ZM267.984 35.8359C271.852 32.9984 276.855 31.6729 282.733 31.6729C286.704 31.6729 290.293 32.311 293.488 33.6074C296.688 34.9054 299.236 36.7618 301.092 39.1616L301.102 39.1747L301.112 39.188C302.944 41.6305 303.903 44.3873 303.903 47.4524V47.7519C303.903 48.4252 303.733 49.3554 302.98 50.0933C302.235 50.8224 301.311 50.9806 300.647 50.9806H295.883C295.219 50.9806 294.295 50.8224 293.55 50.0933C292.797 49.3555 292.627 48.4253 292.627 47.7519V47.4524C292.627 46.1133 292.041 44.9012 290.318 43.7316C288.602 42.5666 286.124 41.8602 282.679 41.8602C279.496 41.8602 277.18 42.4889 275.555 43.5233C274.056 44.4773 273.438 45.6393 273.438 47.1529C273.438 47.9187 273.607 48.4888 273.878 48.942C274.153 49.4007 274.606 49.8626 275.357 50.2932C277.153 51.3226 280.067 52.4339 284.293 53.6181L284.297 53.6193L284.302 53.6206C288.254 54.746 291.523 55.8049 294.077 56.8263C296.815 57.9216 299.19 59.5182 301.168 61.6471C303.405 63.9945 304.42 67.0373 304.42 70.4848C304.42 75.4464 302.365 79.5223 298.332 82.4777C294.376 85.4043 289.287 86.7261 283.285 86.7272C279.18 86.7553 275.512 86.1187 272.263 84.8253C269.06 83.55 266.422 81.7721 264.544 79.4441C262.625 77.0993 261.645 74.4244 261.645 71.465V70.2943C261.645 69.6209 261.815 68.6907 262.568 67.9528C263.312 67.2237 264.236 67.0655 264.901 67.0655H269.801C270.465 67.0655 271.389 67.2237 272.133 67.9528C272.887 68.6907 273.057 69.6209 273.057 70.2943V71.0838C273.057 72.2646 273.646 73.5297 275.592 74.8652C277.474 76.1559 279.913 76.8666 283.114 76.8666C286.314 76.8666 288.671 76.172 290.358 74.9697L290.366 74.9643L290.373 74.9589C292.02 73.8061 292.654 72.501 292.654 70.9749C292.654 69.9414 292.323 69.2053 291.675 68.5844C290.787 67.7639 289.703 67.0931 288.418 66.5882C287.003 66.0325 284.758 65.3243 281.578 64.3999C277.738 63.3496 274.512 62.2588 271.971 61.1745C269.222 60.013 266.908 58.3505 265.024 56.2503C262.929 53.9154 261.971 50.9796 261.971 47.643C261.971 42.7619 264 38.7376 267.984 35.8359Z" fill="#F09700"/>
<path d="M115.844 54.0407H59.9505L31.1191 0.625H87.0123L115.844 54.0407Z" fill="#EFAD00"/>
<path d="M31.1191 104.625H87.0123L115.844 54.0405H59.9505L31.1191 104.625Z" fill="#CC4309"/>
<path d="M60.2492 54.0679L30.955 0.625L0 52.5161L31.0639 104.625L60.2492 54.0679Z" fill="#E86B02"/>
<path fill-rule="evenodd" clip-rule="evenodd" d="M30.9316 40.5643C30.9316 34.2064 36.0863 29.0518 42.4442 29.0518H76.4756C82.8545 29.0518 87.9297 34.2153 88.015 40.4797L88.0154 40.5084V61.6093C88.0154 67.9672 82.8607 73.1219 76.5028 73.1219H61.0746L48.7138 82.323L48.5338 82.431C46.7321 83.512 44.4905 83.3225 42.9049 82.0892C41.5256 81.0165 40.911 79.4093 40.9689 77.8954L40.703 72.991C35.1712 72.1517 30.9316 67.3753 30.9316 61.6093V40.5643ZM42.4442 37.4842C40.7434 37.4842 39.3641 38.8635 39.3641 40.5643V61.6093C39.3641 63.3101 40.7434 64.6894 42.4442 64.6894H48.6977L49.0694 71.5461L58.2807 64.6894H76.5028C78.2036 64.6894 79.5829 63.3101 79.5829 61.6093V40.5716C79.5473 38.8427 78.148 37.4842 76.4756 37.4842H42.4442Z" fill="white"/>
</svg>
