<svg width="125" height="41" viewBox="0 0 125 41" fill="none" xmlns="http://www.w3.org/2000/svg">
<path d="M61.6984 32.2085C60.4917 31.7582 59.5531 31.1509 58.9051 30.3969C58.2459 29.643 57.9219 28.8053 57.9219 27.8734V27.4231C57.9219 27.1718 58.0559 27.0462 58.3353 27.0462H60.3353C60.6146 27.0462 60.7487 27.1718 60.7487 27.4231V27.7268C60.7487 28.554 61.2291 29.2765 62.19 29.8943C63.1509 30.5121 64.3464 30.8158 65.7989 30.8158C67.2403 30.8158 68.4134 30.5226 69.3073 29.9257C70.2011 29.3393 70.6369 28.5854 70.6369 27.6849C70.6369 27.0566 70.4022 26.5435 69.9442 26.1352C69.4861 25.7373 68.9386 25.4231 68.3129 25.1928C67.6872 24.9624 66.7263 24.6797 65.419 24.3236C63.866 23.9257 62.5811 23.5174 61.5867 23.1195C60.5811 22.7215 59.7431 22.1561 59.0615 21.4441C58.38 20.732 58.0448 19.821 58.0448 18.7111C58.0448 17.109 58.7375 15.821 60.1342 14.8681C61.5196 13.9153 63.3632 13.4336 65.6425 13.4336C67.1732 13.4336 68.5252 13.664 69.7095 14.1142C70.8939 14.5645 71.7989 15.1928 72.4469 15.9781C73.0838 16.7739 73.4078 17.6535 73.4078 18.6378V18.753C73.4078 19.0043 73.2737 19.1299 72.9944 19.1299H71.0391C70.7598 19.1299 70.6257 19.0043 70.6257 18.753V18.6378C70.6257 17.7791 70.1788 17.0671 69.2738 16.4912C68.3687 15.9153 67.1509 15.6221 65.6202 15.6221C64.2012 15.6221 63.0615 15.8839 62.2012 16.3969C61.3408 16.91 60.9051 17.6221 60.9051 18.5226C60.9051 19.3812 61.3185 20.0305 62.1565 20.4807C62.9945 20.931 64.2794 21.3812 66.0336 21.842C67.6425 22.2713 68.9497 22.6692 69.9553 23.0462C70.9609 23.4231 71.8212 23.9676 72.5363 24.6901C73.2626 25.4022 73.6201 26.3446 73.6201 27.4964C73.6201 29.1299 72.9162 30.4388 71.4972 31.4126C70.0782 32.3969 68.2011 32.8786 65.866 32.8786C64.2906 32.8891 62.9051 32.6587 61.6984 32.2085Z" fill="#F09700"/>
<path fill-rule="evenodd" clip-rule="evenodd" d="M65.6415 14.2981C63.4959 14.2981 61.8623 14.7513 60.6792 15.565L60.6777 15.566L60.6763 15.567C59.5189 16.3566 58.9666 17.3844 58.9666 18.7107C58.9666 19.6473 59.244 20.3401 59.7475 20.8662C60.337 21.4821 61.0625 21.9733 61.9446 22.3223L61.9463 22.323L61.948 22.3237C62.8925 22.7016 64.135 23.098 65.6614 23.489L65.6685 23.4908L65.6756 23.4928C66.9812 23.8483 67.9796 24.1408 68.6493 24.3874C69.3711 24.6532 70.0197 25.0221 70.5705 25.5005L70.5749 25.5043L70.5792 25.5082C71.2266 26.0853 71.5587 26.8275 71.5587 27.6845C71.5587 28.8975 70.9485 29.9026 69.8386 30.6319C68.7439 31.3617 67.3659 31.6803 65.7979 31.6803C64.2067 31.6803 62.8166 31.3463 61.6669 30.6071C60.6021 29.9225 59.9003 29.0252 59.8306 27.9107H58.8439C58.8523 28.6199 59.0978 29.2536 59.6179 29.8484L59.6204 29.8512L59.6228 29.854C60.1481 30.4651 60.9413 30.9951 62.0388 31.4046C63.1185 31.8075 64.3832 32.0232 65.8584 32.0134L65.8617 32.0134H65.865C68.07 32.0134 69.7339 31.5587 70.9472 30.7171L70.9491 30.7158L70.951 30.7145C72.1325 29.9037 72.6963 28.854 72.6963 27.4961C72.6963 26.5207 72.3992 25.808 71.8682 25.2874L71.8634 25.2827L71.8587 25.2779C71.2413 24.6541 70.4969 24.1807 69.6116 23.8488C68.6488 23.4879 67.3765 23.0995 65.7816 22.6739C64.0083 22.208 62.6353 21.7351 61.6965 21.2306C61.1667 20.946 60.7272 20.5739 60.4237 20.0985C60.1188 19.621 59.9813 19.0863 59.9813 18.5222C59.9813 17.3033 60.5993 16.3262 61.7047 15.6669C62.7583 15.0386 64.0872 14.7568 65.6192 14.7568C67.2667 14.7568 68.6852 15.0715 69.7912 15.7753C70.7778 16.4031 71.4046 17.2357 71.5259 18.2647H72.4643C72.3958 17.627 72.1475 17.048 71.7117 16.5018C71.1775 15.8563 70.4145 15.3156 69.3616 14.9153C68.3044 14.5134 67.0731 14.2981 65.6415 14.2981ZM59.5886 14.1696C61.1762 13.0782 63.2292 12.5684 65.6415 12.5684C67.2713 12.5684 68.7439 12.8138 70.0554 13.3124C71.3685 13.8116 72.4143 14.5257 73.176 15.4486L73.1801 15.4537L73.1842 15.4588C73.936 16.3982 74.3297 17.4585 74.3297 18.6374V18.7526C74.3297 19.0116 74.2598 19.3694 73.9506 19.6531C73.6452 19.9336 73.2659 19.9944 72.9934 19.9944H71.0381C70.7656 19.9944 70.3863 19.9336 70.0809 19.6531C69.7718 19.3694 69.7019 19.0116 69.7019 18.7526V18.6374C69.7019 18.1224 69.4613 17.6562 68.7544 17.2063C68.0502 16.7583 67.033 16.4866 65.6192 16.4866C64.3131 16.4866 63.3627 16.7284 62.6956 17.1262C62.0804 17.4931 61.8269 17.9401 61.8269 18.5222C61.8269 18.8168 61.8962 19.036 62.0074 19.2103C62.1201 19.3868 62.3063 19.5644 62.6145 19.7301C63.3513 20.126 64.5475 20.5534 66.2816 21.0088L66.2834 21.0093L66.2853 21.0098C67.9074 21.4426 69.249 21.8499 70.2971 22.2428C71.4208 22.664 72.3955 23.2781 73.2073 24.0969C74.1254 24.9998 74.542 26.1701 74.542 27.4961C74.542 29.4044 73.6986 30.972 72.0434 32.1087C70.4196 33.2344 68.3311 33.7427 65.868 33.7431C64.1938 33.7539 62.6888 33.5089 61.356 33.0116C60.0415 32.5211 58.9585 31.8373 58.1879 30.9419C57.4003 30.0401 56.998 29.0113 56.998 27.873V27.4228C56.998 27.1638 57.0679 26.806 57.377 26.5222C57.6825 26.2418 58.0618 26.1809 58.3343 26.1809H60.3343C60.6068 26.1809 60.9861 26.2418 61.2915 26.5222C61.6006 26.806 61.6705 27.1638 61.6705 27.4228V27.7264C61.6705 28.1806 61.9122 28.6672 62.7111 29.1808C63.4832 29.6772 64.4842 29.9506 65.7979 29.9506C67.1111 29.9506 68.0783 29.6834 68.7708 29.221L68.7739 29.2189L68.7771 29.2168C69.4529 28.7735 69.7131 28.2715 69.7131 27.6845C69.7131 27.287 69.5773 27.0039 69.3112 26.7651C68.9466 26.4495 68.5018 26.1915 67.9744 25.9974C67.3939 25.7836 66.4727 25.5112 65.1676 25.1557C63.5918 24.7517 62.2675 24.3322 61.2249 23.9151C60.0967 23.4684 59.1468 22.829 58.3736 22.0212C57.514 21.1232 57.1209 19.9941 57.1209 18.7107C57.1209 16.8334 57.9536 15.2856 59.5886 14.1696Z" fill="#F09700"/>
<path d="M103.195 15.0665C104.402 16.1973 105.005 17.7366 105.005 19.7052V32.323C105.005 32.5743 104.871 32.6999 104.592 32.6999H102.502C102.223 32.6999 102.089 32.5743 102.089 32.323V20.2288C102.089 18.8466 101.653 17.7471 100.771 16.9303C99.8991 16.1136 98.7483 15.7052 97.3293 15.7052C95.8545 15.7052 94.6701 16.1031 93.7651 16.9094C92.8601 17.7157 92.4131 18.7942 92.4131 20.145V32.3125C92.4131 32.5638 92.2791 32.6895 91.9997 32.6895H89.8768C89.5975 32.6895 89.4634 32.5638 89.4634 32.3125V20.2288C89.4634 18.8466 89.0277 17.7471 88.1673 16.9303C87.307 16.1136 86.1562 15.7052 84.7037 15.7052C83.2288 15.7052 82.0556 16.1031 81.1841 16.9094C80.3126 17.7157 79.8657 18.7942 79.8657 20.145V32.3125C79.8657 32.5638 79.7316 32.6895 79.4523 32.6895H77.3294C77.0501 32.6895 76.916 32.5638 76.916 32.3125V14.0089C76.916 13.7576 77.0501 13.6319 77.3294 13.6319H79.4523C79.7316 13.6319 79.8657 13.7576 79.8657 14.0089V15.5167C79.8657 15.5691 79.8881 15.6005 79.9328 15.611C79.9775 15.6214 80.0221 15.6005 80.078 15.5586C80.6925 14.8256 81.4746 14.2811 82.4355 13.9146C83.3964 13.5481 84.4579 13.3701 85.6311 13.3701C87.0724 13.3701 88.3126 13.6319 89.3405 14.1659C90.3684 14.6895 91.1506 15.4644 91.6757 16.4591C91.7316 16.5848 91.7986 16.5848 91.888 16.4591C92.5025 15.4329 93.3628 14.6581 94.469 14.145C95.5863 13.6319 96.8489 13.3701 98.2678 13.3701C100.335 13.3701 101.988 13.9356 103.195 15.0665Z" fill="#F09700"/>
<path fill-rule="evenodd" clip-rule="evenodd" d="M85.6301 14.2356C84.5578 14.2356 83.6171 14.398 82.7824 14.7163C82.0051 15.0128 81.381 15.4377 80.8831 16.0002C81.9144 15.2055 83.214 14.8409 84.7027 14.8409C86.3537 14.8409 87.7582 15.3123 88.8231 16.3233C89.886 17.3324 90.3853 18.6665 90.3853 20.2294V31.8252H91.4893V20.1456C91.4893 19.077 91.7381 18.1157 92.2617 17.2947C92.1407 17.3597 91.9746 17.4188 91.7683 17.4188C91.4197 17.4188 91.1744 17.2521 91.0421 17.1184C90.9374 17.0126 90.8746 16.9018 90.838 16.8252C90.3944 15.9934 89.7476 15.3587 88.8989 14.9264L88.8955 14.9247L88.8921 14.923C88.0314 14.4758 86.9537 14.2356 85.6301 14.2356ZM93.0636 16.3418C93.0849 16.3221 93.1065 16.3026 93.1283 16.2832C94.2365 15.2958 95.6645 14.8409 97.3283 14.8409C98.9496 14.8409 100.349 15.3143 101.42 16.3173C102.511 17.3283 103.011 18.6667 103.011 20.2294V31.8357H104.081V19.7058C104.081 17.9119 103.538 16.6123 102.542 15.6786C101.545 14.7445 100.147 14.2356 98.2669 14.2356C96.9729 14.2356 95.8522 14.4733 94.8756 14.9215C94.1452 15.2606 93.543 15.7321 93.0636 16.3418ZM80.4795 16.3464C80.3122 16.4348 80.0403 16.5285 79.7079 16.4506C79.4971 16.4012 79.2705 16.2804 79.1137 16.0599C78.9693 15.857 78.9419 15.6505 78.9419 15.5173V14.4974H77.8379V31.8252H78.9419V20.1456C78.9419 18.6287 79.4427 17.334 80.4795 16.3464ZM82.0867 13.1142C83.1738 12.6995 84.3559 12.5059 85.6301 12.5059C87.1877 12.5059 88.5891 12.7887 89.7836 13.4084C90.5923 13.8209 91.2709 14.3683 91.8129 15.033C92.4238 14.3389 93.1736 13.781 94.0586 13.3705L94.0603 13.3697L94.0619 13.369C95.3196 12.7914 96.7235 12.5059 98.2669 12.5059C100.521 12.5059 102.43 13.1279 103.847 14.4555C105.264 15.7836 105.927 17.5626 105.927 19.7058V32.3236C105.927 32.5826 105.857 32.9404 105.548 33.2242C105.243 33.5046 104.863 33.5654 104.591 33.5654H102.501C102.229 33.5654 101.85 33.5046 101.544 33.2242C101.235 32.9404 101.165 32.5826 101.165 32.3236V20.2294C101.165 19.0286 100.794 18.1687 100.121 17.5464L100.119 17.5444L100.117 17.5425C99.4458 16.9134 98.5439 16.5707 97.3283 16.5707C96.0425 16.5707 95.1017 16.9116 94.3999 17.5368C93.7088 18.1526 93.335 18.989 93.335 20.1456V32.3131C93.335 32.5721 93.2651 32.9299 92.956 33.2137C92.6505 33.4941 92.2713 33.555 91.9987 33.555H89.8758C89.6033 33.555 89.2241 33.4941 88.9186 33.2137C88.6095 32.9299 88.5396 32.5721 88.5396 32.3131V20.2294C88.5396 19.0279 88.1674 18.1629 87.5096 17.5385C86.8539 16.916 85.9567 16.5707 84.7027 16.5707C83.4146 16.5707 82.4942 16.9124 81.8315 17.5255C81.1628 18.1441 80.7876 18.9876 80.7876 20.1456V32.3131C80.7876 32.5721 80.7177 32.9299 80.4086 33.2137C80.1031 33.4941 79.7238 33.555 79.4513 33.555H77.3284C77.0559 33.555 76.6766 33.4941 76.3712 33.2137C76.0621 32.9299 75.9922 32.5721 75.9922 32.3131V14.0095C75.9922 13.7505 76.0621 13.3927 76.3712 13.1089C76.6766 12.8285 77.0559 12.7676 77.3284 12.7676H79.4513C79.7238 12.7676 80.1031 12.8285 80.4086 13.1089C80.6325 13.3145 80.7309 13.5589 80.7681 13.7764C81.1724 13.5156 81.6122 13.2951 82.0867 13.1142Z" fill="#F09700"/>
<path d="M112.077 32.2085C110.871 31.7582 109.932 31.1509 109.284 30.3969C108.625 29.643 108.301 28.8053 108.301 27.8734V27.4231C108.301 27.1718 108.435 27.0462 108.714 27.0462H110.725C111.005 27.0462 111.139 27.1718 111.139 27.4231V27.7268C111.139 28.554 111.619 29.2765 112.58 29.8943C113.541 30.5121 114.737 30.8158 116.189 30.8158C117.63 30.8158 118.804 30.5226 119.697 29.9257C120.591 29.3393 121.027 28.5854 121.027 27.6849C121.027 27.0566 120.792 26.5435 120.334 26.1352C119.876 25.7373 119.329 25.4231 118.703 25.1928C118.077 24.9624 117.116 24.6797 115.809 24.3236C114.256 23.9257 112.971 23.5174 111.977 23.1195C110.971 22.7215 110.133 22.1561 109.452 21.4441C108.77 20.732 108.435 19.821 108.435 18.7111C108.435 17.109 109.128 15.821 110.524 14.8681C111.91 13.9153 113.753 13.4336 116.033 13.4336C117.563 13.4336 118.915 13.664 120.1 14.1142C121.284 14.5645 122.189 15.1928 122.837 15.9781C123.474 16.7739 123.798 17.6535 123.798 18.6378V18.753C123.798 19.0043 123.664 19.1299 123.385 19.1299H121.429C121.15 19.1299 121.016 19.0043 121.016 18.753V18.6378C121.016 17.7791 120.569 17.0671 119.664 16.4912C118.759 15.9153 117.541 15.6221 116.01 15.6221C114.591 15.6221 113.452 15.8839 112.591 16.3969C111.731 16.91 111.295 17.6221 111.295 18.5226C111.295 19.3812 111.709 20.0305 112.547 20.4807C113.385 20.931 114.669 21.3812 116.424 21.842C118.033 22.2713 119.34 22.6692 120.345 23.0462C121.351 23.4231 122.211 23.9676 122.926 24.6901C123.653 25.4022 124.01 26.3446 124.01 27.4964C124.01 29.1299 123.306 30.4388 121.887 31.4126C120.468 32.3969 118.591 32.8786 116.256 32.8786C114.669 32.8891 113.284 32.6587 112.077 32.2085Z" fill="#F09700"/>
<path fill-rule="evenodd" clip-rule="evenodd" d="M116.034 14.2981C113.888 14.2981 112.254 14.7513 111.071 15.565L111.07 15.566L111.068 15.567C109.911 16.3566 109.359 17.3844 109.359 18.7107C109.359 19.6473 109.636 20.3401 110.14 20.8662C110.729 21.4821 111.455 21.9733 112.337 22.3223L112.338 22.323L112.34 22.3237C113.284 22.7016 114.527 23.0979 116.053 23.489L116.061 23.4908L116.068 23.4928C117.373 23.8483 118.372 24.1408 119.041 24.3874C119.763 24.6532 120.412 25.0221 120.963 25.5005L120.967 25.5043L120.971 25.5081C121.619 26.0853 121.951 26.8275 121.951 27.6845C121.951 28.8975 121.341 29.9026 120.231 30.6319C119.136 31.3617 117.758 31.6803 116.19 31.6803C114.599 31.6803 113.209 31.3463 112.059 30.6071C110.994 29.9225 110.292 29.0252 110.223 27.9107H109.225C109.233 28.6199 109.479 29.2536 109.999 29.8484L110.001 29.8512L110.004 29.854C110.529 30.4651 111.322 30.9951 112.42 31.4046C113.499 31.8073 114.764 32.0232 116.251 32.0134L116.254 32.0134H116.257C118.462 32.0134 120.126 31.5587 121.339 30.7171L121.341 30.7158L121.343 30.7145C122.525 29.9037 123.088 28.854 123.088 27.496C123.088 26.5207 122.791 25.808 122.26 25.2874L122.255 25.2827L122.251 25.2779C121.633 24.654 120.889 24.1807 120.004 23.8488C119.041 23.4879 117.769 23.0995 116.174 22.6739C114.4 22.208 113.027 21.7351 112.089 21.2306C111.559 20.946 111.119 20.5739 110.816 20.0985C110.511 19.621 110.373 19.0863 110.373 18.5222C110.373 17.3033 110.991 16.3262 112.097 15.6669C113.15 15.0386 114.479 14.7568 116.011 14.7568C117.659 14.7568 119.077 15.0715 120.183 15.7753C121.17 16.4031 121.797 17.2357 121.918 18.2647H122.856C122.788 17.627 122.54 17.048 122.104 16.5017C121.57 15.8563 120.807 15.3156 119.754 14.9153C118.696 14.5134 117.465 14.2981 116.034 14.2981ZM109.981 14.1695C111.568 13.0782 113.621 12.5684 116.034 12.5684C117.663 12.5684 119.136 12.8138 120.447 13.3124C121.761 13.8116 122.806 14.5257 123.568 15.4486L123.572 15.4537L123.576 15.4588C124.328 16.3982 124.722 17.4585 124.722 18.6374V18.7526C124.722 19.0116 124.652 19.3693 124.343 19.6531C124.037 19.9336 123.658 19.9944 123.385 19.9944H121.43C121.158 19.9944 120.778 19.9336 120.473 19.6532C120.164 19.3694 120.094 19.0116 120.094 18.7526V18.6374C120.094 18.1224 119.853 17.6562 119.146 17.2063C118.442 16.7583 117.425 16.4866 116.011 16.4866C114.705 16.4866 113.755 16.7284 113.088 17.1262C112.472 17.4931 112.219 17.9401 112.219 18.5222C112.219 18.8168 112.288 19.036 112.399 19.2103C112.512 19.3868 112.698 19.5644 113.007 19.73C113.743 20.126 114.94 20.5534 116.674 21.0088L116.675 21.0093L116.677 21.0098C118.299 21.4426 119.641 21.8499 120.689 22.2428C121.813 22.664 122.788 23.2781 123.599 24.0969C124.517 24.9998 124.934 26.1701 124.934 27.496C124.934 29.4043 124.091 30.972 122.435 32.1087C120.812 33.2343 118.723 33.7427 116.26 33.7431C114.575 33.7539 113.07 33.5091 111.737 33.0116C110.422 32.5211 109.339 31.8373 108.569 30.9419C107.781 30.0401 107.379 29.0113 107.379 27.873V27.4228C107.379 27.1638 107.449 26.806 107.758 26.5222C108.063 26.2418 108.443 26.1809 108.715 26.1809H110.726C110.999 26.1809 111.378 26.2418 111.684 26.5222C111.993 26.806 112.063 27.1638 112.063 27.4228V27.7264C112.063 28.1806 112.304 28.6671 113.103 29.1808C113.875 29.6772 114.876 29.9506 116.19 29.9506C117.503 29.9506 118.47 29.6834 119.163 29.221L119.166 29.2189L119.169 29.2168C119.845 28.7735 120.105 28.2715 120.105 27.6845C120.105 27.287 119.969 27.0039 119.703 26.7651C119.339 26.4495 118.894 26.1915 118.366 25.9974C117.786 25.7836 116.865 25.5112 115.56 25.1557C113.984 24.7517 112.66 24.3322 111.617 23.9151C110.489 23.4684 109.539 22.829 108.766 22.0212C107.906 21.1232 107.513 19.994 107.513 18.7107C107.513 16.8334 108.346 15.2856 109.981 14.1695Z" fill="#F09700"/>
<path d="M47.5422 21.1714H24.6038L12.7715 0.626953H35.7099L47.5422 21.1714Z" fill="#EFAD00"/>
<path d="M12.7715 40.6264H35.7099L47.5422 21.1709H24.6038L12.7715 40.6264Z" fill="#CC4309"/>
<path d="M24.7261 21.1819L12.7038 0.626953L0 20.5851L12.7485 40.6269L24.7261 21.1819Z" fill="#E86B02"/>
<path fill-rule="evenodd" clip-rule="evenodd" d="M12.6934 15.9885C12.6934 13.5431 14.8088 11.5605 17.4181 11.5605H31.3845C34.0024 11.5605 36.0852 13.5465 36.1202 15.9559L36.1204 15.967V24.0827C36.1204 26.528 34.0049 28.5106 31.3957 28.5106H25.064L19.9911 32.0495L19.9173 32.091C19.1778 32.5068 18.2579 32.4339 17.6072 31.9596C17.0411 31.547 16.7889 30.9288 16.8126 30.3466L16.7035 28.4603C14.4333 28.1374 12.6934 26.3004 12.6934 24.0827V15.9885ZM17.4181 14.8038C16.7201 14.8038 16.154 15.3343 16.154 15.9885V24.0827C16.154 24.7368 16.7201 25.2674 17.4181 25.2674H19.9845L20.1371 27.9045L23.9174 25.2674H31.3957C32.0936 25.2674 32.6597 24.7368 32.6597 24.0827V15.9913C32.6451 15.3263 32.0708 14.8038 31.3845 14.8038H17.4181Z" fill="white"/>
</svg>
