<svg width="117" height="41" viewBox="0 0 117 41" fill="none" xmlns="http://www.w3.org/2000/svg">
<path d="M16.8495 40.625H6.00238L0.496094 30.8169H11.3432L16.8495 40.625Z" fill="#00929A"/>
<path d="M22.3691 10.8765H11.522L5.92969 0.625H16.7768L22.3691 10.8765Z" fill="#00A7B3"/>
<path d="M6.01562 20.711H16.7966L22.3624 10.8765H11.5749L6.01562 20.711Z" fill="#00929A"/>
<path d="M0.496094 30.8168H11.2969L16.7767 20.7109H6.06194L0.496094 30.8168Z" fill="#00A7B3"/>
<path d="M11.6082 10.9294L5.93646 0.625L0 10.6647L6.00926 20.711L11.6082 10.9294Z" fill="#9DEAED"/>
<path d="M22.7139 31.0815L16.7708 20.7109L11.1719 30.8301L16.8568 40.6117L22.7139 31.0815Z" fill="#9DEAED"/>
<path d="M29.1924 23.8481V21.684L43.8052 7.48145H30.6682V3.9209H51.6808V5.89972L36.79 20.1684H51.6808V23.8481H29.1924Z" fill="#00A7B3"/>
<path d="M54.2021 23.8481V3.9209H59.0334V23.8481H54.2021Z" fill="#00A7B3"/>
<path d="M62.7334 23.8481V3.9209H66.0689L82.9849 17.1505V3.9209H87.3793V23.8481H84.0173L67.1477 10.4067V23.8481H62.7334Z" fill="#00A7B3"/>
<path d="M91.1055 23.8481V3.9209H96.0095V11.9752L107.631 3.9209H114.673L100.887 13.1466L116.215 23.8481H108.531L96.0095 14.8474V23.8481H91.1055Z" fill="#00A7B3"/>
<path d="M29.1064 36.6012V30.936H30.0065L33.9906 34.2716C34.123 34.3841 34.2487 34.49 34.348 34.5826C34.4539 34.6819 34.5465 34.7812 34.6326 34.8871C34.6127 34.5694 34.5995 34.3444 34.5929 34.212C34.5863 34.0796 34.5796 33.9804 34.5796 33.9076V30.936H35.7643V36.6012H34.8642L30.708 33.1002C30.6088 33.0141 30.5227 32.9281 30.4433 32.8619C30.3705 32.7891 30.2977 32.7163 30.2315 32.6435C30.2514 32.8156 30.2646 32.981 30.2712 33.1399C30.2779 33.2987 30.2845 33.4311 30.2845 33.5436V36.6012H29.1064Z" fill="#00A7B3"/>
<path d="M43.0381 36.6012V30.936H48.8356V31.9023H44.3551V33.1663H46.9693V34.1326H44.3551V35.5356H48.8885V36.6012H43.0381Z" fill="#00A7B3"/>
<path d="M58.3457 31.9486V36.6012H57.0287V31.9486H54.4277V30.936H60.9532V31.9486H58.3457Z" fill="#00A7B3"/>
<path d="M68.1207 36.6012L65.9434 30.936H67.3067L68.7428 34.7348L70.2451 30.936H71.1651L72.7005 34.7348L74.0704 30.936H75.2485L73.0645 36.6012H72.1776L70.6158 32.6832L69.034 36.6012H68.1207Z" fill="#00A7B3"/>
<path d="M81.3896 32.2729C81.3896 31.7567 81.4889 31.4059 81.6808 31.2206C81.8728 31.0287 82.2434 30.936 82.7927 30.936H86.9621C87.5114 30.936 87.882 31.0287 88.074 31.2206C88.2659 31.4125 88.3652 31.7633 88.3652 32.2729V35.2577C88.3652 35.7739 88.2659 36.1313 88.074 36.3166C87.882 36.5019 87.5114 36.6012 86.9621 36.6012H82.7927C82.2434 36.6012 81.8728 36.5085 81.6808 36.3166C81.4889 36.1313 81.3896 35.7739 81.3896 35.2577V32.2729ZM82.7067 35.529H87.0548V31.942H82.7067V35.529Z" fill="#00A7B3"/>
<path d="M95.5332 36.6012V30.936H100.378C100.828 30.936 101.152 31.0221 101.357 31.1941C101.556 31.3662 101.662 31.6442 101.662 32.0346V33.3649C101.662 33.7487 101.562 34.0267 101.357 34.1988C101.159 34.3708 100.828 34.4635 100.378 34.4635H99.6364L102.251 36.6012H100.358L98.0746 34.4635H96.8237V36.6012H95.5332ZM99.7887 31.9155H96.8237V33.4906H99.7887C100.02 33.4906 100.173 33.4575 100.259 33.3914C100.345 33.3252 100.384 33.2061 100.384 33.0406V32.3589C100.384 32.1935 100.345 32.081 100.259 32.0148C100.173 31.9486 100.02 31.9155 99.7887 31.9155Z" fill="#00A7B3"/>
<path d="M108.716 36.6012V30.936H110.046V33.2987L113.183 30.936H115.089L111.337 33.6031L115.546 36.6012H113.428L110.039 34.1127V36.6012H108.716Z" fill="#00A7B3"/>
</svg>
