<svg width="363" height="412" viewBox="0 0 363 412" fill="none" xmlns="http://www.w3.org/2000/svg">
<path d="M317.955 205.054H1.0459V410.947H317.955V205.054Z" fill="white"/>
<path d="M317.955 204H1.04544H0V412H319V204H317.955ZM314.47 206.107L159.535 309.194L4.53026 206.107H314.47ZM2.09089 409.893V207.02L158.908 311.371L159.465 311.722L316.909 207.02V409.893H2.09089Z" fill="black"/>
<g clip-path="url(#clip0)">
<path d="M203.915 346.093C203.745 346.689 203.574 347.2 203.489 347.796C197.023 371.465 185.877 378.872 180.006 376.658C178.134 375.977 176.773 374.274 176.347 371.72C174.56 361.333 187.834 339.707 187.834 339.707C187.834 339.707 212.423 313.144 203.915 346.093Z" fill="#EBDB40"/>
<path d="M226.377 365.846C225.951 368.4 224.505 370.018 222.463 370.529C216.932 371.806 207.233 364.654 201.447 343.454C201.362 343.114 201.277 342.773 201.191 342.348C193.449 312.293 214.124 333.919 214.124 333.919C214.124 333.919 228.079 356.311 226.377 365.846Z" fill="#EBDB40"/>
<path d="M222.463 370.444C216.933 371.721 207.233 364.569 201.447 343.369L205.361 342.348C205.361 342.433 205.616 359.12 222.463 370.444Z" fill="#0A3F64"/>
<path d="M203.489 347.797C197.023 371.466 185.877 378.873 180.006 376.659C198.214 366.528 200.341 345.072 200.341 345.072L203.489 347.797Z" fill="#0A3F64"/>
<path d="M262.538 216.936C260.496 212.254 257.008 207.741 251.477 204.08C250.456 203.399 249.265 202.718 248.074 202.122C238.629 197.354 149.8 201.185 137.037 201.781C136.016 201.781 135.505 201.867 135.505 201.867C135.505 201.867 130.911 207.826 128.613 214.552C127.252 218.639 126.742 222.981 128.528 226.557C129.124 227.664 131.251 231.41 133.548 235.156L183.238 321.063L188.003 329.321L186.301 334.515L183.919 341.666L202.383 351.968L263.304 239.413C265.176 235.412 266.452 225.961 262.538 216.936ZM201.021 290.242L197.703 300.203L195.406 292.626L177.282 233.113L182.898 230.474L197.107 223.747L212.508 234.135L218.464 238.136L201.021 290.242Z" fill="#F8A127"/>
<path d="M262.539 216.936C233.865 213.02 217.954 227.749 212.509 234.22L197.108 223.832L182.899 230.558C169.881 221.193 146.057 216.766 128.614 214.637C130.912 207.911 135.506 201.951 135.506 201.951C135.506 201.951 136.017 201.951 137.038 201.866C149.801 201.27 238.715 197.439 248.074 202.207C249.266 202.803 250.457 203.484 251.478 204.165C257.008 207.741 260.497 212.253 262.539 216.936Z" fill="#F38704"/>
<path d="M181.197 59.5969C181.197 59.5969 182.048 82.0738 180.006 84.628C178.049 87.1822 167.583 93.0569 167.583 93.0569L203.064 115.449L224.335 93.4826C224.335 93.4826 212.934 88.4593 211.828 85.4794C210.296 81.3927 210.636 59.5117 210.636 59.5117H181.197V59.5969Z" fill="white"/>
<path d="M203.319 117.067L165.115 92.9725L166.987 91.9509C171.071 89.6521 177.623 85.6505 178.984 83.8626C180.005 82.4152 180.26 70.155 179.835 59.6828L182.388 59.5977C182.558 64.9615 183.068 82.7557 180.941 85.4802C179.325 87.5236 173.198 91.2697 169.965 93.1428L202.808 113.832L222.123 93.9091C218.379 92.2063 211.657 88.7155 210.636 85.9911C209.104 81.8192 209.275 61.8964 209.36 59.5977H211.912C211.827 65.6426 211.912 81.9043 213.018 85.0545C213.529 86.587 219.57 89.9926 224.845 92.2914L226.547 93.0577L203.319 117.067Z" fill="#0A3F64"/>
<path d="M186.898 13.8771C186.898 13.8771 172.858 16.0056 172.858 24.4345C172.858 34.0553 174.475 46.4006 175.411 52.8713C175.751 55.4255 177.964 57.2986 180.601 57.2986H209.615C212.253 57.2986 214.55 55.3403 214.806 52.701C215.827 43.7613 217.784 24.9454 216.763 22.1357C213.189 12.3446 186.898 13.8771 186.898 13.8771Z" fill="#0A3F64"/>
<path d="M189.45 67.1746C197.703 68.1111 207.998 66.5786 210.806 63.6838C212.508 61.981 213.188 55.4253 213.359 47.8478C213.359 47.5924 213.444 47.4221 213.699 47.3369C215.741 46.145 218.634 43.6759 218.634 39.9298C218.549 36.6944 216.081 37.3756 214.21 38.3972C213.869 38.5675 213.444 38.3121 213.444 37.9715C213.274 28.8616 212.763 20.8584 212.763 20.8584H175.836C175.836 20.8584 175.921 28.9467 176.261 38.0567C176.261 38.4824 175.836 38.7378 175.496 38.5675C173.539 37.4607 170.901 36.5242 170.816 39.9298C170.731 44.1868 174.475 46.8261 176.432 47.7626C176.602 47.8478 176.772 48.0181 176.772 48.2735C177.197 54.659 177.793 60.2782 178.729 62.2365C179.239 63.3433 180.175 64.1947 181.366 64.9609L189.45 67.1746Z" fill="white"/>
<path d="M194.385 68.7073C192.598 68.7073 190.811 68.6221 189.28 68.4519C188.599 68.3667 188.089 67.7707 188.174 67.0045C188.259 66.3234 188.854 65.8125 189.62 65.8977C198.299 66.9193 207.658 65.0463 209.956 62.8326C210.466 62.3218 211.827 59.6824 212.083 47.848C212.083 47.1669 212.423 46.5709 213.019 46.2303C214.295 45.4641 217.358 43.3356 217.273 39.93C217.273 39.1637 217.103 38.9083 217.018 38.8231C216.847 38.738 216.167 38.738 214.72 39.5043C214.125 39.8448 213.529 39.7597 212.933 39.5043C212.423 39.1637 212.083 38.6529 212.083 37.9717C211.998 31.0754 211.657 24.6899 211.487 22.1357H177.112C177.112 24.775 177.283 31.1605 177.538 38.0569C177.538 38.738 177.198 39.334 176.687 39.6745C176.091 40.0151 175.411 40.0151 174.9 39.6745C173.284 38.738 172.518 38.738 172.348 38.9083C172.263 38.9083 172.092 39.2488 172.092 40.0151C172.007 44.187 176.517 46.4006 177.027 46.656C177.623 46.9114 178.048 47.5926 178.133 48.2737C178.729 57.4688 179.495 60.7041 179.92 61.8109C180.261 62.5772 181.026 63.2583 182.047 63.9394C182.643 64.28 182.898 65.0463 182.473 65.7274C182.133 66.3234 181.367 66.5788 180.686 66.1531C179.155 65.3017 178.133 64.1949 177.538 62.9178C176.687 61.0447 176.006 56.4471 175.496 48.9548C172.603 47.4223 169.37 44.3572 169.455 40.1002C169.455 38.4826 170.05 37.3758 170.986 36.8649C172.007 36.2689 173.284 36.3541 174.815 37.1203C174.475 28.6063 174.475 21.1992 174.475 21.114V19.8369H213.784L213.869 21.0289C213.869 21.114 214.38 28.4361 214.55 37.0352C216.082 36.4392 217.273 36.3541 218.209 36.9501C219.23 37.546 219.74 38.6529 219.74 40.1854C219.825 44.6978 216.337 47.4223 214.55 48.5291C214.21 60.8744 212.763 63.7692 211.657 64.876C209.02 67.345 201.362 68.7073 194.385 68.7073Z" fill="#0A3F64"/>
<path d="M175.071 21.7951C180.857 29.032 206.552 36.1838 218.72 12.004C230.887 -12.1757 196.342 6.89564 185.026 10.3012C180.176 11.8338 170.136 15.6651 175.071 21.7951Z" fill="#0A3F64"/>
<path d="M272.749 192.586C272.749 192.586 271.558 193.353 269.686 194.459C265.261 197.014 257.178 201.696 251.477 204.165C250.201 204.761 249.01 205.187 248.074 205.442C245.436 206.294 242.288 207.06 238.8 207.741C215.571 212.594 177.623 215.063 159.5 210.04C158.394 209.699 157.288 209.444 156.181 209.104C148.864 206.89 142.398 204.336 137.037 201.781C123.849 195.737 116.702 189.862 116.702 189.862C114.319 188.159 112.533 185.945 111.426 183.476C109.725 179.645 109.47 175.218 111.086 171.131L137.633 102.168L162.988 91.0143C165.541 90.1629 168.349 90.5035 170.646 91.9509C177.368 96.2079 190.726 89.8224 196.937 90.5035C211.657 92.036 217.528 94.2496 222.974 90.9292C225.016 89.6521 227.483 89.3115 229.866 89.9075L252.754 102.678L280.321 172.578C283.299 180.156 280.066 188.755 272.749 192.586Z" fill="#F2F2F2"/>
<path d="M187.408 214.126C176.262 214.126 166.137 213.275 159.074 211.402C157.968 211.061 156.862 210.806 155.756 210.465C149.119 208.507 142.568 205.953 136.442 203.143C123.679 197.184 116.532 191.564 115.936 191.054C113.469 189.266 111.512 186.882 110.32 184.157C108.363 179.9 108.278 175.217 109.895 170.79L136.697 101.316L162.648 89.9072C165.541 88.8855 168.774 89.3112 171.412 90.9289C175.156 93.3128 181.707 91.8654 187.493 90.5883C191.152 89.822 194.64 89.0558 197.193 89.3112C201.022 89.7369 204.17 90.1626 206.978 90.5032C214.805 91.61 218.805 92.1208 222.463 89.9072C224.76 88.4598 227.653 88.1192 230.291 88.8004L230.631 88.8855L253.945 101.912L254.115 102.338L281.683 172.238C284.916 180.496 281.513 189.776 273.6 193.863C273.344 194.033 272.238 194.715 270.537 195.736C266.112 198.29 257.944 203.058 252.158 205.527C250.797 206.123 249.605 206.634 248.584 206.89C245.862 207.741 242.714 208.507 239.225 209.274C224.335 212.083 204.68 214.126 187.408 214.126ZM138.654 103.104L112.277 171.642C110.831 175.388 111.001 179.389 112.618 182.965C113.639 185.349 115.34 187.393 117.468 188.84C117.638 188.925 124.785 194.715 137.548 200.674C143.589 203.484 150.055 205.953 156.522 207.911C157.628 208.252 158.649 208.507 159.84 208.848C177.368 213.616 214.72 211.487 238.544 206.464C241.948 205.783 245.096 204.931 247.649 204.165C248.499 203.91 249.605 203.484 250.882 202.888C256.497 200.419 264.666 195.736 269.005 193.182C270.877 192.075 272.068 191.309 272.068 191.309L272.153 191.224C278.875 187.733 281.853 179.815 279.045 172.748L251.648 103.53L229.355 91.0991C227.398 90.6734 225.356 90.9289 223.654 91.9505C219.145 94.675 214.635 93.9939 206.467 92.8871C203.659 92.5465 200.511 92.0357 196.767 91.6951C194.64 91.4397 191.407 92.206 187.918 92.9722C181.622 94.3345 174.56 95.867 169.88 92.9722C167.923 91.7803 165.541 91.4397 163.414 92.1208L138.654 103.104Z" fill="#0A3F64"/>
<path d="M164.52 137.16C163.84 136.905 163.159 137.245 162.904 137.926L151.162 170.79L141.037 165.512C140.441 165.171 139.675 165.426 139.335 166.022C138.995 166.618 139.25 167.385 139.846 167.725L160.436 178.538C160.606 178.623 160.862 178.708 161.032 178.708C161.457 178.708 161.968 178.453 162.138 178.027C162.478 177.431 162.223 176.665 161.627 176.324L153.374 171.982L165.286 138.778C165.541 138.097 165.201 137.415 164.52 137.16Z" fill="#0A3F64"/>
<path d="M254.115 166.022C253.775 165.426 253.009 165.171 252.413 165.512L242.373 170.79L230.546 137.926C230.291 137.245 229.61 136.905 228.93 137.16C228.249 137.415 227.909 138.097 228.164 138.778L240.076 171.982L231.908 176.324C231.312 176.665 231.057 177.431 231.397 178.027C231.652 178.453 232.078 178.708 232.503 178.708C232.673 178.708 232.929 178.623 233.099 178.538L253.69 167.725C254.2 167.47 254.455 166.704 254.115 166.022Z" fill="#0A3F64"/>
<path d="M205.701 96.2078L198.043 91.1846L189.365 95.4416L194.3 102.764L186.387 190.032L198.384 212.85L208.934 190.032L199.83 103.189L205.701 96.2078Z" fill="#F8A127"/>
<path d="M144.354 147.973L156.266 206.89H238.629L248.074 147.973H144.354Z" fill="#D9F6F7"/>
<path d="M239.736 208.166H155.246L142.738 146.695H249.521L239.736 208.166ZM157.373 205.612H237.609L246.628 149.25H145.886L157.373 205.612Z" fill="#0A3F64"/>
<path d="M238.8 206.89H156.182V213.275H238.8V206.89Z" fill="#00B7C5"/>
<path d="M240.076 214.552H154.905V205.612H240.076V214.552ZM157.458 211.998H237.523V208.167H157.458V211.998Z" fill="#0A3F64"/>
<path d="M188.599 299.011C188.088 299.011 187.578 298.67 187.408 298.159L162.478 223.151L190.726 212.168C191.407 211.912 192.087 212.253 192.343 212.934C192.598 213.615 192.257 214.296 191.577 214.552L165.711 224.598L189.875 297.308C190.13 297.989 189.705 298.67 189.024 298.925C188.854 299.011 188.769 299.011 188.599 299.011Z" fill="#0A3F64"/>
<path d="M191.152 340.133C190.981 340.133 190.811 340.133 190.641 340.048C189.96 339.793 189.705 339.027 189.96 338.431L233.779 228.174L206.127 214.467C205.531 214.126 205.276 213.36 205.531 212.764C205.871 212.168 206.637 211.913 207.233 212.168L237.013 226.982L192.343 339.367C192.173 339.793 191.662 340.133 191.152 340.133Z" fill="#0A3F64"/>
<path d="M197.703 300.288L187.918 329.406L183.153 321.148L195.406 292.711L197.703 300.288Z" fill="#EE7802"/>
<path d="M188.769 367.038C188.599 367.038 188.429 367.038 188.259 366.952L179.495 362.951C178.814 362.695 178.559 361.929 178.899 361.248C179.154 360.567 179.92 360.312 180.601 360.652L189.365 364.654C190.045 364.909 190.301 365.675 189.96 366.356C189.705 366.782 189.28 367.038 188.769 367.038Z" fill="#0A3F64"/>
<path d="M190.982 360.738C190.812 360.738 190.642 360.738 190.471 360.653L181.708 356.651C181.027 356.396 180.772 355.629 181.112 354.948C181.367 354.267 182.133 354.012 182.814 354.352L191.578 358.354C192.258 358.609 192.513 359.376 192.173 360.057C191.918 360.482 191.407 360.738 190.982 360.738Z" fill="#0A3F64"/>
<path d="M193.194 354.522C193.024 354.522 192.854 354.522 192.683 354.437L183.92 350.435C183.239 350.18 182.984 349.414 183.324 348.733C183.579 348.051 184.345 347.796 185.026 348.137L193.789 352.138C194.47 352.394 194.725 353.16 194.385 353.841C194.13 354.181 193.619 354.522 193.194 354.522Z" fill="#0A3F64"/>
<path d="M214.466 360.738C213.955 360.738 213.53 360.483 213.274 359.972C213.019 359.291 213.274 358.61 213.87 358.269L222.634 354.268C223.314 354.012 223.995 354.268 224.335 354.864C224.591 355.545 224.335 356.226 223.74 356.566L214.976 360.568C214.891 360.738 214.636 360.738 214.466 360.738Z" fill="#0A3F64"/>
<path d="M211.743 354.182C211.232 354.182 210.807 353.926 210.552 353.415C210.296 352.734 210.552 352.053 211.147 351.713L219.911 347.711C220.592 347.456 221.272 347.711 221.613 348.307C221.868 348.988 221.613 349.669 221.017 350.01L212.253 354.011C212.168 354.182 211.998 354.182 211.743 354.182Z" fill="#0A3F64"/>
<path d="M208.594 347.967C208.084 347.967 207.659 347.711 207.403 347.2C207.148 346.519 207.403 345.838 207.999 345.498L216.763 341.496C217.443 341.241 218.124 341.496 218.464 342.092C218.72 342.773 218.464 343.454 217.869 343.795L209.105 347.796C209.02 347.882 208.765 347.967 208.594 347.967Z" fill="#0A3F64"/>
<path d="M196.002 187.818C200.372 187.818 203.915 184.273 203.915 179.9C203.915 175.527 200.372 171.982 196.002 171.982C191.632 171.982 188.089 175.527 188.089 179.9C188.089 184.273 191.632 187.818 196.002 187.818Z" fill="#F2F2F2"/>
<path d="M196.002 189.095C190.982 189.095 186.812 185.009 186.812 179.9C186.812 174.877 190.897 170.705 196.002 170.705C201.022 170.705 205.191 174.792 205.191 179.9C205.191 185.009 201.022 189.095 196.002 189.095ZM196.002 173.344C192.343 173.344 189.365 176.324 189.365 179.985C189.365 183.646 192.343 186.626 196.002 186.626C199.66 186.626 202.638 183.646 202.638 179.985C202.638 176.324 199.66 173.344 196.002 173.344Z" fill="#0A3F64"/>
<path d="M204.17 42.0579C203.489 42.0579 202.894 41.462 202.894 40.7808V39.9294C202.894 39.2483 203.489 38.6523 204.17 38.6523C204.851 38.6523 205.446 39.2483 205.446 39.9294V40.7808C205.446 41.462 204.851 42.0579 204.17 42.0579Z" fill="#0A3F64"/>
<path d="M187.067 42.0579C186.387 42.0579 185.791 41.462 185.791 40.7808V39.9294C185.791 39.2483 186.387 38.6523 187.067 38.6523C187.748 38.6523 188.344 39.2483 188.344 39.9294V40.7808C188.344 41.462 187.833 42.0579 187.067 42.0579Z" fill="#0A3F64"/>
<path d="M183.408 38.0565C182.983 38.0565 182.558 37.8011 182.302 37.4605C181.962 36.8646 182.132 36.0983 182.728 35.6726C186.046 33.6292 189.62 34.6509 189.79 34.6509C190.471 34.8212 190.896 35.5023 190.641 36.1834C190.471 36.8646 189.79 37.2903 189.109 37.0348C189.024 37.0348 186.386 36.3537 184.004 37.8011C183.834 38.0565 183.664 38.0565 183.408 38.0565Z" fill="#0A3F64"/>
<path d="M207.744 38.0565C207.488 38.0565 207.318 37.9714 207.063 37.8862C204.68 36.4389 202.043 37.12 201.958 37.12C201.277 37.2903 200.596 36.8646 200.426 36.1834C200.256 35.5023 200.596 34.8212 201.277 34.6509C201.447 34.6509 205.021 33.6292 208.339 35.6726C208.935 36.0132 209.105 36.7794 208.765 37.4605C208.594 37.8862 208.169 38.0565 207.744 38.0565Z" fill="#0A3F64"/>
<path d="M195.321 51.2534C194.726 51.2534 194.13 50.8277 194.045 50.1466C193.96 49.4655 194.385 48.7843 195.066 48.6992C196.172 48.5289 197.363 48.1884 198.044 47.9329C197.448 47.1667 196.427 45.8044 195.236 42.8245C194.981 42.1434 195.321 41.4623 196.002 41.2069C196.683 40.9515 197.363 41.292 197.619 41.9731C198.725 44.8679 199.576 45.8896 200.171 46.5707C200.597 47.0815 201.107 47.6775 200.937 48.6141C200.852 49.1249 200.597 50.402 195.491 51.2534C195.491 51.2534 195.406 51.2534 195.321 51.2534Z" fill="#0A3F64"/>
<path d="M202.043 52.8715C202.638 53.7229 199.745 56.5325 196.427 56.3623C190.982 56.1068 189.365 52.4458 190.641 52.7012C191.152 52.7864 193.109 53.8932 196.342 53.9783C199.916 54.0635 201.702 52.2755 202.043 52.8715Z" fill="#0A3F64"/>
<path d="M165.116 199.568C164.52 199.568 164.009 199.142 163.839 198.546L155.416 155.806C155.246 155.125 155.756 154.444 156.437 154.273C157.118 154.103 157.798 154.614 157.968 155.295L166.392 198.035C166.562 198.716 166.051 199.397 165.371 199.568C165.286 199.568 165.201 199.568 165.116 199.568Z" fill="#F2F2F2"/>
<path d="M196.938 90.4178L182.388 98.6764L162.818 91.0138L175.666 85.3945L196.938 90.4178Z" fill="#F2F2F2"/>
<path d="M196.938 90.4181L212.168 99.9538L228.334 90.2479L219.57 85.2246L196.938 90.4181Z" fill="#F2F2F2"/>
<path d="M230.802 90.2476L219.741 83.9473L196.853 89.226L175.496 84.1175L159.5 91.099L182.473 100.124L196.853 91.9504L212.168 101.486L230.802 90.2476ZM182.218 97.3143L166.052 91.0139L175.666 86.7569L193.364 90.9288L182.218 97.3143ZM219.4 86.5866L225.782 90.2476L212.168 98.4211L200.171 90.9288L219.4 86.5866Z" fill="#0A3F64"/>
</g>
<g clip-path="url(#clip1)">
<path d="M336.43 126C323.32 126 312.704 115.256 312.704 102.107C312.704 88.958 323.32 78.2676 336.43 78.2676C342.322 78.2676 348.001 80.4591 352.354 84.468C352.672 84.7887 352.725 85.2698 352.407 85.5905C352.088 85.9112 351.611 85.9647 351.292 85.644C347.205 81.9023 341.897 79.8711 336.43 79.8711C324.222 79.8711 314.296 89.8132 314.296 102.107C314.296 114.401 324.222 124.397 336.43 124.397C348.638 124.397 358.564 114.401 358.564 102.107C358.564 98.1518 357.502 94.2498 355.538 90.8823C355.326 90.5081 355.432 90.027 355.804 89.7598C356.175 89.546 356.653 89.6529 356.919 90.027C359.042 93.6618 360.156 97.831 360.156 102.107C360.103 115.256 349.488 126 336.43 126Z" fill="black"/>
<path d="M355.486 79.7639C355.061 79.8708 354.796 80.2984 354.902 80.7261C355.008 81.1537 355.433 81.4209 355.857 81.314L359.414 80.4588L334.944 105.154L323.692 96.6548C323.32 96.3875 322.842 96.441 322.577 96.8151C322.312 97.1893 322.365 97.6704 322.736 97.9376L335.05 107.238L360.74 81.3675L360.369 84.9488C360.316 85.3764 360.634 85.804 361.059 85.804C361.112 85.804 361.112 85.804 361.165 85.804C361.59 85.804 361.908 85.4833 361.961 85.1091L362.704 78L355.486 79.7639Z" fill="black"/>
</g>
<defs>
<clipPath id="clip0">
<rect width="174" height="377" fill="white" transform="translate(108.704)"/>
</clipPath>
<clipPath id="clip1">
<rect width="50" height="48" fill="white" transform="translate(312.704 78)"/>
</clipPath>
</defs>
</svg>
