<svg width="480" height="553" viewBox="0 0 480 553" fill="none" xmlns="http://www.w3.org/2000/svg">
<path d="M149.915 525.633V537.733H166.715L168.115 526.333L149.915 525.633Z" fill="white"/>
<path d="M167.415 538.533H149.215V524.933L169.015 525.633L167.415 538.533ZM150.715 537.033H166.115L167.315 527.033L150.715 526.433V537.033Z" fill="#0A3F64"/>
<path d="M149.015 537.033C149.015 537.033 124.815 544.733 123.915 551.033H167.415V537.033H149.015Z" fill="#FFB900"/>
<path d="M217.516 525.933L218.016 538.133H234.816L235.516 525.633L217.516 525.933Z" fill="white"/>
<path d="M235.515 538.933H217.315L216.815 525.233L236.415 524.933L235.515 538.933ZM218.715 537.433H234.115L234.815 526.433L218.315 526.633L218.715 537.433Z" fill="#0A3F64"/>
<path d="M217.116 537.433C217.116 537.433 192.916 545.133 192.016 551.433H235.516V537.433H217.116Z" fill="#FFB900"/>
<path d="M190.415 549.033V552.733H236.615V548.533L190.415 549.033Z" fill="#0A3F64"/>
<path d="M168.815 548.433V552.333H122.615V548.133L168.815 548.433Z" fill="#0A3F64"/>
<path d="M215.415 542.733C215.315 542.733 215.316 542.733 215.216 542.733L206.816 540.233C206.416 540.133 206.216 539.733 206.316 539.333C206.416 538.933 206.816 538.733 207.216 538.833L215.616 541.333C216.016 541.433 216.216 541.833 216.116 542.233C216.016 542.533 215.815 542.733 215.415 542.733Z" fill="#0A3F64"/>
<path d="M211.215 545.233C211.115 545.233 211.115 545.233 211.015 545.233L202.615 542.733C202.215 542.633 202.015 542.233 202.115 541.833C202.215 541.433 202.615 541.233 203.015 541.333L211.415 543.833C211.815 543.933 212.015 544.333 211.915 544.733C211.915 545.033 211.615 545.233 211.215 545.233Z" fill="#0A3F64"/>
<path d="M205.415 547.833C205.315 547.833 205.316 547.833 205.216 547.833L196.816 545.333C196.416 545.233 196.216 544.833 196.316 544.433C196.416 544.033 196.816 543.833 197.216 543.933L205.616 546.433C206.016 546.533 206.216 546.933 206.116 547.333C206.116 547.533 205.815 547.833 205.415 547.833Z" fill="#0A3F64"/>
<path d="M148.616 541.533C148.516 541.533 148.516 541.533 148.416 541.533L140.016 539.033C139.616 538.933 139.416 538.533 139.516 538.133C139.616 537.733 140.016 537.533 140.416 537.633L148.816 540.133C149.216 540.233 149.416 540.633 149.316 541.033C149.216 541.333 148.916 541.533 148.616 541.533Z" fill="#0A3F64"/>
<path d="M144.416 544.033C144.316 544.033 144.316 544.033 144.216 544.033L135.816 541.533C135.416 541.433 135.216 541.033 135.316 540.633C135.416 540.233 135.816 540.033 136.216 540.133L144.616 542.633C145.016 542.733 145.216 543.133 145.116 543.533C145.016 543.833 144.716 544.033 144.416 544.033Z" fill="#0A3F64"/>
<path d="M138.616 546.533C138.516 546.533 138.516 546.533 138.416 546.533L130.016 544.033C129.616 543.933 129.416 543.533 129.516 543.133C129.616 542.733 130.016 542.533 130.416 542.633L138.816 545.133C139.216 545.233 139.416 545.633 139.316 546.033C139.216 546.333 138.916 546.533 138.616 546.533Z" fill="#0A3F64"/>
<path d="M212.015 528.132H238.715L240.915 314.232L164.015 327.532L145.715 528.132H171.415L198.315 394.832L195.215 365.632L212.015 528.132Z" fill="#0A3F64"/>
<path d="M152.715 203.033L142.915 220.233L156.915 224.933C156.915 224.933 160.815 211.433 163.715 210.133C166.615 208.933 169.215 204.633 168.415 202.533C167.715 200.433 165.315 198.133 165.315 198.133L152.715 203.033Z" fill="white"/>
<path d="M157.415 225.833L141.815 220.633L152.215 202.433L165.515 197.333L165.815 197.633C165.915 197.733 168.315 200.033 169.115 202.233C170.015 204.733 167.215 209.333 164.015 210.733C162.315 211.533 159.215 219.533 157.615 225.033L157.415 225.833ZM144.015 219.833L156.415 224.033C157.415 220.633 160.615 210.733 163.415 209.533C166.015 208.433 168.315 204.433 167.715 202.933C167.215 201.433 165.815 199.833 165.115 199.233L153.215 203.833L144.015 219.833Z" fill="#0A3F64"/>
<path d="M151.115 213.633L153.915 215.733C155.315 216.733 157.315 216.433 158.315 215.033L175.215 192.233L167.315 186.333L150.415 209.133C149.415 210.633 149.715 212.533 151.115 213.633Z" fill="#0A3F64"/>
<path d="M184.916 179.133L159.816 168.333L143.316 146.133L124.516 189.733L152.016 186.433L177.016 197.233L184.916 179.133Z" fill="#FFB900"/>
<path d="M195.315 196.533C195.315 196.533 197.215 216.333 195.615 218.533C194.015 220.733 184.915 224.733 184.915 224.733L200.315 269.833L233.115 266.633L235.215 233.033C235.215 233.033 220.215 220.833 219.315 218.333C218.115 214.833 218.015 196.333 218.015 196.333H195.315V196.533Z" fill="white"/>
<path d="M199.715 270.733L183.915 224.433L184.515 224.133C187.015 223.033 193.715 219.833 194.915 218.133C195.815 216.933 195.415 206.233 194.515 196.633C194.515 196.233 194.815 195.833 195.215 195.833C195.615 195.833 196.015 196.133 196.015 196.533C196.315 199.933 197.815 216.733 196.215 219.033C194.715 221.033 188.015 224.233 185.815 225.233L200.715 269.133L232.315 266.033L234.415 233.533C231.315 231.033 219.515 221.233 218.615 218.733C217.315 215.233 217.315 197.233 217.315 196.533C217.315 196.133 217.615 195.833 218.015 195.833C218.415 195.833 218.715 196.133 218.715 196.533C218.715 201.633 218.915 215.533 219.915 218.233C220.515 219.933 229.815 227.933 235.515 232.633L235.815 232.833L233.615 267.433L199.715 270.733Z" fill="#0A3F64"/>
<path d="M179.916 223.033C170.016 226.633 172.416 279.533 172.416 279.533C170.816 285.733 167.016 327.633 167.016 327.633L236.416 332.833L244.616 291.233C244.616 291.233 249.716 221.233 222.516 217.133C219.916 216.733 194.516 244.733 193.716 218.033C193.616 218.133 182.016 222.233 179.916 223.033Z" fill="#FFB900"/>
<path d="M230.115 349.733C230.015 349.733 229.815 349.733 229.715 349.633L213.515 338.433C213.215 338.233 213.115 337.733 213.315 337.433C213.515 337.133 214.015 337.033 214.315 337.233L230.515 348.433C230.815 348.633 230.915 349.133 230.715 349.433C230.615 349.633 230.415 349.733 230.115 349.733Z" fill="#00B7C5"/>
<path d="M189.415 218.533C185.415 218.533 168.615 226.833 152.715 244.333C150.715 246.533 149.115 257.133 149.115 257.133C148.015 257.933 160.415 220.233 160.515 221.733C160.515 221.733 138.115 213.233 138.215 215.633C138.315 218.033 118.515 256.433 126.115 285.733C126.915 288.833 137.715 310.633 165.715 266.733L162.415 319.433L159.515 354.233L186.015 356.233L189.415 218.533Z" fill="#00B7C5"/>
<path d="M220.815 215.933L210.515 268.033C210.415 273.733 203.515 333.133 204.915 357.533L240.615 360.333L241.015 343.433V325.633C241.015 325.633 282.115 307.133 279.915 298.533C271.515 264.233 262.815 248.433 255.915 233.933C254.815 231.533 230.015 215.933 220.815 215.933Z" fill="#00B7C5"/>
<path d="M207.215 156.533C203.115 156.133 193.115 155.033 191.615 162.233C189.915 170.433 189.115 181.233 188.815 187.033C188.715 189.333 190.215 191.333 192.415 191.733L217.215 196.833C219.515 197.333 221.715 196.033 222.515 193.833C224.915 186.433 230.015 170.633 229.615 168.033C228.115 159.033 213.715 157.133 207.215 156.533Z" fill="#0A3F64"/>
<path d="M214.215 201.733C215.815 200.633 217.515 195.233 218.915 189.033C218.915 188.833 219.115 188.733 219.215 188.633C221.015 188.033 223.815 186.433 224.415 183.333C224.915 180.633 222.815 180.833 221.115 181.333C220.815 181.433 220.515 181.133 220.615 180.833C222.015 173.233 223.015 166.533 223.015 166.533L193.615 160.433C193.615 160.433 192.315 167.233 191.015 174.833C190.915 175.133 188.515 193.433 188.815 195.233C189.015 196.233 189.615 197.133 190.515 197.933C190.515 197.933 192.115 199.833 202.815 202.033L214.215 201.733Z" fill="white"/>
<path d="M202.715 202.733C202.715 202.733 202.615 202.733 202.515 202.733C192.515 200.633 190.215 198.833 189.915 198.433C188.915 197.533 188.315 196.433 188.015 195.433C187.615 193.433 190.115 174.933 190.215 174.733C191.515 167.233 192.815 160.433 192.815 160.333L192.915 159.633L223.715 166.033L223.615 166.733C223.615 166.833 222.715 173.233 221.315 180.533C222.715 180.133 223.715 180.233 224.415 180.833C225.015 181.433 225.215 182.233 225.015 183.533C224.315 187.233 221.015 188.833 219.415 189.433C217.015 199.733 215.415 201.833 214.415 202.533C214.115 202.733 213.615 202.633 213.415 202.333C213.215 202.033 213.315 201.533 213.615 201.333C214.315 200.833 215.815 198.633 218.015 189.033C218.115 188.633 218.415 188.233 218.815 188.133C220.015 187.733 222.915 186.433 223.515 183.333C223.615 182.733 223.615 182.233 223.415 182.033C223.315 181.933 222.815 181.633 221.215 182.133C220.815 182.233 220.415 182.133 220.115 181.933C219.815 181.633 219.615 181.233 219.715 180.833C220.915 174.733 221.715 169.133 222.015 167.233L194.015 161.433C193.615 163.433 192.615 168.933 191.515 175.033C191.315 176.333 189.015 193.633 189.315 195.133C189.515 195.933 189.915 196.633 190.715 197.433L190.815 197.533C190.815 197.533 192.615 199.333 202.615 201.433C203.015 201.533 203.315 201.933 203.215 202.333C203.415 202.533 203.115 202.733 202.715 202.733Z" fill="#0A3F64"/>
<path d="M207.315 181.033H207.215C206.815 180.933 206.515 180.633 206.615 180.233L206.715 179.633C206.815 179.233 207.115 178.933 207.515 179.033C207.915 179.133 208.215 179.433 208.115 179.833L208.015 180.433C208.015 180.733 207.715 181.033 207.315 181.033Z" fill="#0A3F64"/>
<path d="M195.115 179.233H195.015C194.615 179.133 194.315 178.733 194.415 178.333L194.515 177.633C194.615 177.233 195.015 176.933 195.415 177.033C195.815 177.133 196.115 177.533 196.015 177.933L195.915 178.633C195.715 178.933 195.415 179.233 195.115 179.233Z" fill="#0A3F64"/>
<path d="M213.216 177.933C213.016 177.933 212.816 177.833 212.716 177.733C209.116 174.233 206.516 174.933 206.416 174.933C206.016 175.033 205.616 174.833 205.516 174.433C205.416 174.033 205.616 173.633 206.016 173.533C206.116 173.533 209.516 172.533 213.816 176.633C214.116 176.933 214.116 177.433 213.816 177.633C213.616 177.833 213.416 177.933 213.216 177.933Z" fill="#0A3F64"/>
<path d="M198.715 186.033C198.615 186.033 198.515 186.033 198.415 185.933C197.815 185.633 195.815 184.633 195.815 183.233C195.815 182.233 196.015 181.933 197.815 179.133C198.215 178.533 198.715 177.833 199.215 176.933C199.515 176.433 200.115 175.033 200.115 174.133C199.915 173.933 198.915 173.633 197.415 173.633C197.415 173.633 197.415 173.633 197.315 173.633C195.815 173.633 194.515 174.033 194.115 174.533C193.815 174.833 193.415 174.933 193.115 174.633C192.815 174.333 192.715 173.933 193.015 173.633C194.315 171.933 198.215 171.833 200.215 172.533C201.415 172.933 201.715 173.633 201.715 174.033C201.715 175.533 200.715 177.433 200.615 177.633C200.015 178.533 199.515 179.233 199.115 179.833C197.315 182.533 197.315 182.633 197.315 183.133C197.315 183.333 198.115 184.033 199.015 184.433C199.415 184.633 199.515 185.033 199.415 185.433C199.215 185.833 199.015 186.033 198.715 186.033Z" fill="#0A3F64"/>
<path d="M224.315 320.633C224.315 320.633 219.915 326.333 218.915 327.633C217.915 328.833 210.615 332.733 210.615 332.733L227.715 338.733C227.715 338.733 227.815 333.933 228.215 331.233C228.515 329.833 232.815 326.333 232.815 326.333C232.815 326.333 224.715 321.133 224.315 320.633Z" fill="white"/>
<path d="M228.415 339.733L208.815 332.833L210.315 332.033C213.115 330.633 217.715 327.933 218.315 327.133C219.315 325.933 223.715 320.233 223.715 320.233L224.215 319.533L224.815 320.133C225.315 320.533 230.215 323.733 233.215 325.633L234.115 326.233L233.315 326.933C231.315 328.533 229.115 330.733 228.915 331.333C228.415 334.033 228.415 338.733 228.415 338.733V339.733ZM212.515 332.533L227.015 337.633C227.015 336.033 227.215 333.033 227.515 331.033C227.715 329.733 230.115 327.533 231.615 326.333C229.115 324.733 225.915 322.733 224.515 321.733C223.415 323.233 220.415 327.133 219.515 328.133C218.715 329.133 214.815 331.333 212.515 332.533Z" fill="#0A3F64"/>
<path d="M231.515 340.632C231.415 340.632 231.315 340.632 231.215 340.632L208.715 333.133C208.315 333.033 208.115 332.533 208.215 332.233C208.315 331.933 208.815 331.633 209.215 331.733L231.715 339.233C232.115 339.333 232.315 339.832 232.215 340.132C232.115 340.432 231.815 340.632 231.515 340.632Z" fill="#0A3F64"/>
<path d="M162.915 338.532C162.615 338.532 162.315 338.332 162.215 338.032C162.115 337.632 162.215 337.232 162.615 337.032L180.615 330.232C181.015 330.132 181.415 330.232 181.615 330.632C181.715 331.032 181.615 331.432 181.215 331.632L163.215 338.432C163.115 338.532 163.015 338.532 162.915 338.532Z" fill="#0A3F64"/>
<path d="M235.015 328.533L218.715 317.833L246.615 293.333L233.515 268.433C233.315 268.033 233.415 267.633 233.815 267.433C234.215 267.233 234.615 267.333 234.815 267.733L248.415 293.733L221.115 317.733L235.215 326.933L239.515 325.533C239.915 325.433 240.315 325.633 240.415 326.033C240.515 326.433 240.315 326.833 239.915 326.933L235.015 328.533Z" fill="#0A3F64"/>
<path d="M216.415 295.333C216.415 296.233 217.215 297.033 218.115 297.033C219.015 297.033 219.815 296.233 219.815 295.333C219.815 294.433 219.015 293.633 218.115 293.633C217.115 293.633 216.415 294.433 216.415 295.333Z" fill="white"/>
<path d="M218.115 297.833C216.815 297.833 215.715 296.733 215.715 295.433C215.715 294.133 216.815 293.033 218.115 293.033C219.415 293.033 220.515 294.133 220.515 295.433C220.515 296.733 219.415 297.833 218.115 297.833ZM218.115 294.433C217.615 294.433 217.115 294.833 217.115 295.433C217.115 295.933 217.515 296.433 218.115 296.433C218.615 296.433 219.115 296.033 219.115 295.433C219.015 294.833 218.615 294.433 218.115 294.433Z" fill="#0A3F64"/>
<path d="M214.715 308.932C214.715 309.832 215.515 310.632 216.415 310.632C217.315 310.632 218.115 309.832 218.115 308.932C218.115 308.032 217.315 307.232 216.415 307.232C215.415 307.232 214.715 308.032 214.715 308.932Z" fill="white"/>
<path d="M216.416 311.433C215.116 311.433 214.016 310.333 214.016 309.033C214.016 307.733 215.116 306.633 216.416 306.633C217.716 306.633 218.816 307.733 218.816 309.033C218.816 310.333 217.716 311.433 216.416 311.433ZM216.416 308.033C215.916 308.033 215.416 308.433 215.416 309.033C215.416 309.533 215.816 310.033 216.416 310.033C216.916 310.033 217.416 309.633 217.416 309.033C217.316 308.433 216.916 308.033 216.416 308.033Z" fill="#0A3F64"/>
<path d="M199.215 164.933C195.515 163.933 188.615 160.933 190.915 153.633C193.215 146.333 194.115 149.333 194.115 149.333C194.115 149.333 195.315 151.333 195.915 151.533C196.515 151.733 195.215 151.933 198.515 146.133C198.515 146.133 204.315 146.233 206.015 150.333C207.715 154.333 209.815 152.733 211.115 151.233C212.215 149.933 214.115 152.333 214.315 154.033C214.815 155.933 223.615 156.833 225.915 158.733C229.515 161.633 230.715 162.733 229.515 168.133C229.315 169.133 225.515 178.833 225.515 178.833L224.515 167.633C224.515 167.433 205.415 166.633 199.215 164.933Z" fill="#0A3F64"/>
<path d="M181.715 294.433H177.415C177.015 294.433 176.715 294.133 176.715 293.733C176.715 293.333 177.015 293.033 177.415 293.033H181.715C182.115 293.033 182.415 293.333 182.415 293.733C182.415 294.133 182.115 294.433 181.715 294.433Z" fill="#0A3F64"/>
<path d="M183.016 309.733H178.716C178.316 309.733 178.016 309.433 178.016 309.033C178.016 308.633 178.316 308.333 178.716 308.333H183.016C183.416 308.333 183.716 308.633 183.716 309.033C183.816 309.333 183.416 309.733 183.016 309.733Z" fill="#0A3F64"/>
<path d="M197.515 394.932L192.615 364.132V347.232H194.015V364.032L199.015 394.732L197.515 394.932Z" fill="#00B7C5"/>
<path d="M161.116 209.033C169.516 209.233 168.616 201.533 168.616 201.533C168.616 201.533 160.616 205.833 159.116 206.933C157.616 208.133 159.916 209.033 161.116 209.033Z" fill="white"/>
<path d="M161.415 209.833C161.315 209.833 161.215 209.833 161.115 209.833C160.215 209.833 158.315 209.333 157.915 208.133C157.815 207.733 157.715 207.033 158.615 206.433C160.115 205.333 167.915 201.133 168.215 200.933L169.215 200.433L169.315 201.533C169.315 201.633 169.715 205.133 167.515 207.533C166.215 209.033 164.115 209.833 161.415 209.833ZM161.215 208.333C163.615 208.433 165.415 207.733 166.515 206.533C167.615 205.333 167.915 203.833 167.915 202.833C165.715 204.033 160.715 206.833 159.515 207.633C159.415 207.733 159.415 207.733 159.315 207.733C159.615 207.933 160.515 208.333 161.215 208.333Z" fill="#0A3F64"/>
<path d="M159.316 195.433C159.316 195.433 163.716 201.433 163.616 204.733C163.516 208.033 157.116 209.433 152.416 205.433C147.716 201.433 157.316 193.733 159.316 195.433Z" fill="white"/>
<path d="M158.815 208.633C156.615 208.633 154.115 207.933 151.915 206.033C149.715 204.133 149.915 201.233 152.415 198.233C154.315 195.933 158.115 193.433 159.815 194.933L159.915 195.033C160.115 195.333 164.415 201.333 164.315 204.833C164.315 206.233 163.415 207.433 161.815 208.033C161.115 208.433 160.015 208.633 158.815 208.633ZM158.515 195.933C157.615 195.933 155.315 197.033 153.515 199.133C152.415 200.433 150.815 203.033 152.915 204.833C155.715 207.233 159.215 207.533 161.315 206.633C161.915 206.333 162.915 205.733 162.915 204.733C162.915 202.333 160.015 197.633 158.815 195.933C158.715 195.933 158.715 195.933 158.515 195.933Z" fill="#0A3F64"/>
<path d="M144.415 278.133C144.315 278.133 144.215 278.133 144.215 278.133C143.815 278.033 143.615 277.533 143.815 277.233C148.715 263.633 152.015 244.533 152.015 244.333C152.115 243.933 152.515 243.633 152.915 243.733C153.315 243.833 153.615 244.233 153.515 244.633C153.515 244.833 150.215 264.033 145.215 277.833C145.015 277.933 144.715 278.133 144.415 278.133Z" fill="#0A3F64"/>
<path d="M198.315 191.533C198.115 192.833 197.415 193.733 196.715 193.633C196.015 193.533 195.715 192.433 195.915 191.133C196.115 189.833 196.815 188.933 197.515 189.033C198.215 189.133 198.615 190.233 198.315 191.533Z" fill="#0A3F64"/>
<path d="M132.915 186.032C132.815 186.032 132.715 186.032 132.615 185.932C132.215 185.732 132.015 185.332 132.215 184.932L145.115 153.232C145.315 152.832 145.715 152.632 146.115 152.832C146.515 153.032 146.715 153.432 146.515 153.832L133.615 185.532C133.415 185.832 133.115 186.032 132.915 186.032Z" fill="#0A3F64"/>
<g clip-path="url(#clip0)">
<path d="M395.741 163.992C388.506 178.945 375.719 189.394 361.048 194.105C353.325 196.557 346.544 201.055 341.269 206.905C337.729 210.814 334.793 215.355 332.685 220.297C332.309 221.193 331.863 222.114 331.44 222.988C321.712 243.093 308.736 242.89 295.702 236.583C282.668 230.276 274.434 220.273 284.185 200.122C284.697 199.064 285.278 197.982 285.836 196.946C288.383 192.387 290.033 187.45 290.858 182.456C292.148 174.62 291.353 166.513 288.459 158.867C283.05 144.439 283.353 127.836 290.634 112.906C304.529 84.4257 339.028 72.2181 367.784 85.6217C397.393 99.4948 409.9 134.732 395.741 163.992Z" fill="#FBFAE5"/>
<path d="M295.392 237.341C278.811 229.317 275.036 217.384 283.518 199.855C284.052 198.751 284.611 197.715 285.169 196.679C287.649 192.258 289.278 187.482 290.126 182.441C291.372 174.698 290.578 166.705 287.778 159.218C282.012 143.88 282.797 127.339 289.967 112.639C304.018 83.837 339.063 71.4396 368.141 84.9993C382.6 91.7686 393.514 103.75 398.864 118.773C404.213 133.796 403.331 149.949 396.386 164.304C389.284 178.98 376.8 189.86 361.217 194.811C353.813 197.19 347.054 201.528 341.756 207.424C338.239 211.287 335.415 215.712 333.33 220.608C332.931 221.551 332.508 222.425 332.063 223.345C323.605 240.942 311.973 245.364 295.392 237.341ZM368.256 86.7584C368.026 86.6469 367.75 86.5132 367.52 86.4018C339.224 73.221 305.043 85.2417 291.395 113.33C284.403 127.662 283.658 143.768 289.213 158.72C292.084 166.412 292.951 174.723 291.639 182.719C290.771 187.921 289.053 192.881 286.552 197.462C285.994 198.498 285.436 199.534 284.924 200.592C276.776 217.431 280.24 228.362 296.084 236.029C311.927 243.695 322.649 239.628 330.797 222.789C331.22 221.915 331.665 220.995 332.042 220.099C334.194 215.064 337.152 210.477 340.737 206.477C346.215 200.441 353.179 195.918 360.856 193.444C376.005 188.567 388.15 178.034 395.074 163.726C401.841 149.739 402.705 133.975 397.499 119.362C392.318 104.931 381.982 93.3998 368.256 86.7584Z" fill="#0A3F64"/>
<path d="M332.663 220.342C332.287 221.239 331.841 222.159 331.418 223.033C321.69 243.138 308.714 242.935 295.68 236.628C282.646 230.321 274.412 220.318 284.163 200.167C284.675 199.109 285.256 198.027 285.814 196.991C288.361 192.432 290.011 187.496 290.836 182.501L341.223 206.883C337.707 210.859 334.793 215.354 332.663 220.342Z" fill="#0A3F64"/>
<path d="M314.013 238.8C313.874 238.733 313.712 238.598 313.619 238.439L290.691 188.791C290.526 188.427 290.703 187.945 291.067 187.78C291.431 187.616 291.914 187.793 292.079 188.156L315.074 237.78C315.239 238.144 315.063 238.627 314.699 238.791C314.426 238.886 314.197 238.889 314.013 238.8Z" fill="#EBDB40"/>
<path d="M321.736 232.94C321.598 232.873 321.436 232.738 321.342 232.579L302.422 191.684C302.257 191.32 302.433 190.838 302.797 190.673C303.161 190.508 303.644 190.685 303.809 191.049L322.73 231.944C322.895 232.308 322.718 232.79 322.354 232.955C322.195 233.048 321.967 233.051 321.736 232.94Z" fill="#EBDB40"/>
<path d="M327.624 225.001C327.486 224.934 327.324 224.799 327.231 224.64L314.837 197.861C314.672 197.498 314.848 197.015 315.212 196.851C315.576 196.686 316.059 196.863 316.224 197.227L328.618 224.005C328.783 224.369 328.606 224.851 328.242 225.016C328.037 225.087 327.809 225.09 327.624 225.001Z" fill="#EBDB40"/>
<path d="M332.899 215.743C332.761 215.676 332.599 215.541 332.505 215.382L326.756 202.947C326.591 202.584 326.767 202.101 327.131 201.937C327.495 201.772 327.978 201.949 328.143 202.313L333.892 214.747C334.057 215.111 333.881 215.593 333.517 215.758C333.336 215.897 333.129 215.854 332.899 215.743Z" fill="#EBDB40"/>
<path d="M303.027 238.594C302.889 238.527 302.727 238.392 302.656 238.187L285.504 199.51C285.339 199.146 285.515 198.664 285.879 198.499C286.243 198.335 286.726 198.511 286.891 198.875L304.021 237.598C304.186 237.962 304.009 238.444 303.645 238.609C303.418 238.726 303.212 238.683 303.027 238.594Z" fill="#EBDB40"/>
<path d="M288.042 230.094C287.904 230.027 287.742 229.892 287.67 229.687L281.017 214.657C280.852 214.294 281.028 213.811 281.392 213.647C281.756 213.482 282.239 213.659 282.404 214.023L289.103 229.075C289.268 229.438 289.092 229.921 288.728 230.085C288.501 230.203 288.226 230.183 288.042 230.094Z" fill="#EBDB40"/>
<path d="M321.509 200.636C321.14 200.458 320.952 200.026 321.13 199.658C331.34 176.208 343.206 163.667 351.379 157.231C351.719 156.998 352.036 156.697 352.376 156.464C346.4 154.481 340.303 151.928 335.191 149.455C331.414 147.627 327.658 145.639 324.244 143.533C324.269 143.716 324.248 143.876 324.274 144.058C324.321 154.415 321.828 171.549 309.776 194.107C309.598 194.475 309.142 194.595 308.727 194.394C308.359 194.216 308.192 193.738 308.439 193.346C320.469 170.834 322.984 153.655 322.697 142.501C314.32 137.141 308.454 131.407 310.457 127.152C311.681 124.622 313.218 123.208 315.069 123.025C318.29 122.71 321.061 126.265 321.154 126.424L321.224 126.514C321.342 126.741 323.812 131.855 324.218 141.59C327.586 143.674 331.482 145.843 335.903 147.982C342.213 151.036 348.423 153.473 353.938 155.233C361.484 149.857 366.754 148.716 367.005 148.667L367.188 148.642C367.463 148.661 374.121 148.646 376.224 151.935C377.135 153.341 377.044 155.057 376.086 157.036C373.971 161.406 364.528 160.13 354.212 156.898C353.6 157.341 352.944 157.875 352.31 158.363C344.318 164.659 332.701 177.037 322.623 200.096C322.378 200.602 321.946 200.791 321.509 200.636C321.509 200.636 321.555 200.658 321.509 200.636ZM317.063 125.012C316.464 124.722 315.867 124.546 315.204 124.623C313.948 124.753 312.796 125.842 311.816 127.867C310.458 130.673 314.64 135.422 322.558 140.673C322.082 132.494 320.123 127.968 319.84 127.377C319.653 127.06 318.491 125.702 317.063 125.012ZM367.209 150.242C366.617 150.41 362.125 151.586 355.777 155.896C365.815 158.879 373.28 159.312 374.638 156.505C375.372 154.987 375.425 153.82 374.863 152.867C373.508 150.735 368.949 150.289 367.209 150.242Z" fill="#0A3F64"/>
<path d="M378.346 69.6661C377.978 69.4878 377.811 69.0098 377.989 68.6417L389.054 45.776C389.232 45.408 389.71 45.2419 390.079 45.4202C390.447 45.5985 390.614 46.0766 390.436 46.4447L379.371 69.3103C379.193 69.6784 378.715 69.8444 378.346 69.6661Z" fill="#0A3F64"/>
<path d="M321.426 61.3716C321.241 61.2825 321.079 61.1473 321.054 60.9647L312.314 37.0899C312.172 36.6801 312.372 36.2661 312.782 36.1237C313.192 35.9814 313.606 36.182 313.749 36.5917L322.443 60.4443C322.586 60.8541 322.385 61.2682 321.975 61.4105C321.816 61.5039 321.61 61.4608 321.426 61.3716Z" fill="#0A3F64"/>
<path d="M278.714 95.7225C278.668 95.7002 278.668 95.7002 278.622 95.6779L257.431 81.6764C257.084 81.4521 256.986 80.9503 257.21 80.6046C257.434 80.2588 257.936 80.161 258.283 80.3853L279.474 94.3868C279.82 94.6111 279.918 95.1129 279.694 95.4587C279.492 95.7584 279.082 95.9008 278.714 95.7225Z" fill="#0A3F64"/>
<path d="M234.862 144.174C234.632 144.063 234.468 143.813 234.442 143.516C234.413 143.105 234.706 142.736 235.163 142.73L260.489 140.903C260.9 140.875 261.27 141.168 261.277 141.625C261.305 142.036 261.013 142.406 260.555 142.412L235.229 144.238C235.115 144.24 235 144.241 234.862 144.174Z" fill="#0A3F64"/>
<path d="M416.541 106.203C416.357 106.114 416.217 105.933 416.146 105.728C416.003 105.318 416.203 104.904 416.613 104.762L440.713 96.7775C441.122 96.6352 441.537 96.8357 441.68 97.2455C441.823 97.6553 441.622 98.0693 441.212 98.2117L417.113 106.196C416.908 106.267 416.679 106.27 416.541 106.203Z" fill="#0A3F64"/>
<path d="M416.085 160.947C415.763 160.791 415.552 160.405 415.684 160.014C415.816 159.624 416.27 159.39 416.661 159.522L440.768 167.497C441.159 167.629 441.394 168.083 441.262 168.474C441.13 168.864 440.676 169.098 440.285 168.966L416.155 161.037C416.131 160.969 416.131 160.969 416.085 160.947Z" fill="#0A3F64"/>
<path d="M405.305 225.397C405.167 225.33 405.097 225.24 405.027 225.149L390.697 204.134C390.464 203.794 390.526 203.313 390.866 203.08C391.206 202.847 391.687 202.91 391.921 203.25L406.204 224.243C406.438 224.583 406.376 225.064 406.036 225.297C405.878 225.504 405.581 225.531 405.305 225.397Z" fill="#0A3F64"/>
</g>
<path d="M89.0999 328.982H82.6998C82.4998 326.482 81.7999 318.082 78.0999 315.982C76.7999 315.182 75.2998 315.282 73.6998 316.082L73.2998 316.282V350.582H89.0999C92.5999 350.582 95.3998 347.782 95.3998 344.282V335.382C95.3998 331.782 92.5999 328.982 89.0999 328.982ZM89.0999 349.082H74.7998V317.182C75.7998 316.782 76.5998 316.782 77.2998 317.182C80.1998 318.882 81.0998 326.782 81.1998 329.682V330.382H88.9998C90.9998 330.382 92.6998 331.582 93.4998 333.382H85.3998C84.9998 333.382 84.6998 333.682 84.6998 334.082C84.6998 334.482 84.9998 334.782 85.3998 334.782H93.8998C93.8998 334.882 93.8998 335.082 93.8998 335.182V338.482H85.3998C84.9998 338.482 84.6998 338.782 84.6998 339.182C84.6998 339.582 84.9998 339.882 85.3998 339.882H93.8998V343.582H85.3998C84.9998 343.582 84.6998 343.882 84.6998 344.282C84.6998 344.682 84.9998 344.982 85.3998 344.982H93.7998C93.2998 347.482 91.3999 349.082 89.0999 349.082Z" fill="black"/>
<path d="M70.8004 350.584H64.4004V327.484H70.8004V350.584ZM65.9004 349.084H69.4004V328.984H65.9004V349.084Z" fill="black"/>
<path d="M77.1002 365.283C60.6002 365.283 47.2002 351.883 47.2002 335.383C47.2002 318.883 60.6002 305.383 77.1002 305.383C93.6002 305.383 107 318.783 107 335.283C107 351.783 93.6002 365.283 77.1002 365.283ZM77.1002 306.883C61.4002 306.883 48.7002 319.683 48.7002 335.283C48.7002 350.983 61.5002 363.683 77.1002 363.683C92.7002 363.683 105.5 350.883 105.5 335.283C105.5 319.683 92.8002 306.883 77.1002 306.883Z" fill="black"/>
<path d="M10.1996 311.981C4.59959 311.981 0.0996094 307.481 0.0996094 301.881C0.0996094 296.281 4.59959 291.781 10.1996 291.781C15.7996 291.781 20.2996 296.281 20.2996 301.881C20.2996 307.381 15.6996 311.981 10.1996 311.981ZM10.1996 293.181C5.39958 293.181 1.59961 297.081 1.59961 301.781C1.59961 306.581 5.49959 310.381 10.1996 310.381C14.9996 310.381 18.7996 306.481 18.7996 301.781C18.7996 297.081 14.8996 293.181 10.1996 293.181Z" fill="black"/>
<defs>
<clipPath id="clip0">
<rect width="204" height="214" fill="white" transform="translate(296.213) rotate(25.8217)"/>
</clipPath>
</defs>
</svg>
