<svg width="59" height="59" viewBox="0 0 59 59" fill="none" xmlns="http://www.w3.org/2000/svg">
<g filter="url(#filter0_d)">
<rect x="5.20996" y="5.625" width="48" height="48" fill="white"/>
</g>
<g clip-path="url(#clip0)">
<path d="M41.1863 24.6811C41.1301 23.4059 40.9239 22.5292 40.6284 21.7695C40.3237 20.9631 39.8549 20.2412 39.2406 19.641C38.6404 19.0315 37.9137 18.5579 37.1167 18.2579C36.3527 17.9625 35.4805 17.7563 34.2053 17.7001C32.9206 17.6391 32.5127 17.625 29.2543 17.625C25.9958 17.625 25.588 17.6391 24.308 17.6953C23.0328 17.7516 22.1561 17.958 21.3966 18.2532C20.5901 18.5579 19.8681 19.0268 19.268 19.641C18.6585 20.2412 18.1851 20.9679 17.8849 21.7649C17.5895 22.5292 17.3833 23.4011 17.327 24.6763C17.2661 25.961 17.252 26.3689 17.252 29.6273C17.252 32.8858 17.2661 33.2936 17.3223 34.5736C17.3785 35.8488 17.5849 36.7255 17.8803 37.4852C18.1851 38.2916 18.6585 39.0135 19.268 39.6137C19.8681 40.2232 20.5948 40.6968 21.3919 40.9968C22.1561 41.2922 23.028 41.4984 24.3034 41.5546C25.5832 41.611 25.9913 41.6249 29.2497 41.6249C32.5082 41.6249 32.916 41.611 34.196 41.5546C35.4712 41.4984 36.3479 41.2922 37.1074 40.9968C38.7203 40.3732 39.9955 39.0979 40.6191 37.4852C40.9143 36.721 41.1207 35.8488 41.177 34.5736C41.2332 33.2936 41.2473 32.8858 41.2473 29.6273C41.2473 26.3689 41.2425 25.961 41.1863 24.6811ZM39.025 34.4799C38.9734 35.652 38.7765 36.2849 38.6124 36.7069C38.2092 37.7524 37.3793 38.5822 36.3338 38.9855C35.9118 39.1496 35.2743 39.3465 34.1068 39.3979C32.8409 39.4543 32.4613 39.4683 29.259 39.4683C26.0568 39.4683 25.6724 39.4543 24.4111 39.3979C23.239 39.3465 22.6061 39.1496 22.1841 38.9855C21.6638 38.7932 21.1902 38.4884 20.8058 38.0899C20.4073 37.7008 20.1025 37.2319 19.9102 36.7116C19.7462 36.2897 19.5493 35.652 19.4978 34.4846C19.4414 33.2187 19.4275 32.8389 19.4275 29.6367C19.4275 26.4345 19.4414 26.05 19.4978 24.7889C19.5493 23.6168 19.7462 22.9839 19.9102 22.5619C20.1025 22.0415 20.4073 21.568 20.8106 21.1834C21.1996 20.7849 21.6684 20.4802 22.1889 20.2881C22.6108 20.124 23.2485 19.9271 24.4159 19.8754C25.6818 19.8192 26.0616 19.8051 29.2636 19.8051C32.4706 19.8051 32.8503 19.8192 34.1116 19.8754C35.2837 19.9271 35.9166 20.124 36.3386 20.2881C36.8589 20.4802 37.3325 20.7849 37.7169 21.1834C38.1154 21.5726 38.4201 22.0415 38.6124 22.5619C38.7765 22.9839 38.9734 23.6214 39.025 24.7889C39.0813 26.0548 39.0954 26.4345 39.0954 29.6367C39.0954 32.8389 39.0813 33.214 39.025 34.4799Z" fill="#F09700"/>
<path d="M29.2541 23.4619C25.8505 23.4619 23.0889 26.2233 23.0889 29.6272C23.0889 33.031 25.8505 35.7924 29.2541 35.7924C32.658 35.7924 35.4194 33.031 35.4194 29.6272C35.4194 26.2233 32.658 23.4619 29.2541 23.4619ZM29.2541 33.6264C27.046 33.6264 25.2549 31.8355 25.2549 29.6272C25.2549 27.4189 27.046 25.6279 29.2541 25.6279C31.4625 25.6279 33.2534 27.4189 33.2534 29.6272C33.2534 31.8355 31.4625 33.6264 29.2541 33.6264Z" fill="#F09700"/>
<path d="M37.1034 23.2186C37.1034 24.0134 36.4589 24.6579 35.6639 24.6579C34.8691 24.6579 34.2246 24.0134 34.2246 23.2186C34.2246 22.4236 34.8691 21.7793 35.6639 21.7793C36.4589 21.7793 37.1034 22.4236 37.1034 23.2186Z" fill="#F09700"/>
</g>
<defs>
<filter id="filter0_d" x="0.209961" y="0.625" width="58" height="58" filterUnits="userSpaceOnUse" color-interpolation-filters="sRGB">
<feFlood flood-opacity="0" result="BackgroundImageFix"/>
<feColorMatrix in="SourceAlpha" type="matrix" values="0 0 0 0 0 0 0 0 0 0 0 0 0 0 0 0 0 0 127 0"/>
<feOffset/>
<feGaussianBlur stdDeviation="2.5"/>
<feColorMatrix type="matrix" values="0 0 0 0 0 0 0 0 0 0 0 0 0 0 0 0 0 0 0.12 0"/>
<feBlend mode="normal" in2="BackgroundImageFix" result="effect1_dropShadow"/>
<feBlend mode="normal" in="SourceGraphic" in2="effect1_dropShadow" result="shape"/>
</filter>
<clipPath id="clip0">
<rect width="24" height="24" fill="white" transform="translate(17.21 17.625)"/>
</clipPath>
</defs>
</svg>
