<svg width="58" height="59" viewBox="0 0 58 59" fill="none" xmlns="http://www.w3.org/2000/svg">
<g filter="url(#filter0_d)">
<rect x="5" y="5.625" width="48" height="48" fill="white"/>
</g>
<path d="M38.8906 20.4844H19.1094C17.9477 20.4844 17 21.4311 17 22.5938V36.6562C17 37.815 17.9435 38.7656 19.1094 38.7656H38.8906C40.0494 38.7656 41 37.8221 41 36.6562V22.5938C41 21.435 40.0565 20.4844 38.8906 20.4844ZM38.5993 21.8906L29.0447 31.4453L19.4075 21.8906H38.5993ZM18.4062 36.3651V22.8782L25.1787 29.5926L18.4062 36.3651ZM19.4006 37.3594L26.1773 30.5827L28.5519 32.9368C28.8267 33.2093 29.2703 33.2085 29.5441 32.9347L31.8594 30.6194L38.5994 37.3594H19.4006ZM39.5938 36.365L32.8537 29.625L39.5938 22.8849V36.365Z" fill="#F09700"/>
<defs>
<filter id="filter0_d" x="0" y="0.625" width="58" height="58" filterUnits="userSpaceOnUse" color-interpolation-filters="sRGB">
<feFlood flood-opacity="0" result="BackgroundImageFix"/>
<feColorMatrix in="SourceAlpha" type="matrix" values="0 0 0 0 0 0 0 0 0 0 0 0 0 0 0 0 0 0 127 0"/>
<feOffset/>
<feGaussianBlur stdDeviation="2.5"/>
<feColorMatrix type="matrix" values="0 0 0 0 0 0 0 0 0 0 0 0 0 0 0 0 0 0 0.12 0"/>
<feBlend mode="normal" in2="BackgroundImageFix" result="effect1_dropShadow"/>
<feBlend mode="normal" in="SourceGraphic" in2="effect1_dropShadow" result="shape"/>
</filter>
</defs>
</svg>
