<svg width="58" height="58" viewBox="0 0 58 58" fill="none" xmlns="http://www.w3.org/2000/svg">
<g filter="url(#filter0_d)">
<rect x="5" y="5" width="48" height="48" fill="white"/>
</g>
<path d="M34.2488 41C33.474 41 32.7059 40.863 31.9547 40.5901C28.6456 39.388 25.574 37.4301 23.0719 34.9281C20.5698 32.4261 18.6119 29.3544 17.4098 26.0453C17.0236 24.9818 16.9096 23.8841 17.0711 22.7824C17.2225 21.7504 17.6222 20.7486 18.2272 19.8852C18.8348 19.018 19.6448 18.2967 20.5697 17.7993C21.5561 17.269 22.6326 17 23.7695 17C24.1232 17 24.4288 17.2471 24.5029 17.5928L25.6801 23.0863C25.7333 23.335 25.6569 23.5939 25.477 23.7738L23.4656 25.7852C25.3631 29.5578 28.4421 32.6368 32.2147 34.5343L34.2262 32.5229C34.406 32.343 34.6649 32.2667 34.9137 32.3199L40.4071 33.497C40.7529 33.5711 41 33.8767 41 34.2304C41 35.3673 40.731 36.4439 40.2006 37.4302C39.7032 38.3551 38.9819 39.1652 38.1147 39.7728C37.2514 40.3777 36.2495 40.7774 35.2175 40.9288C34.8942 40.9763 34.5708 41 34.2488 41V41ZM23.1703 18.5327C21.6706 18.6983 20.3395 19.4844 19.4556 20.746C18.4616 22.1646 18.2298 23.9094 18.8196 25.5332C21.1307 31.8951 26.1049 36.8693 32.4668 39.1803C34.0906 39.7702 35.8355 39.5385 37.2541 38.5444C38.5157 37.6605 39.3017 36.3294 39.4673 34.8297L34.9984 33.8721L32.8977 35.9727C32.6741 36.1963 32.3345 36.2556 32.0485 36.1212C27.5866 34.0251 23.9749 30.4134 21.8788 25.9515C21.7444 25.6655 21.8037 25.3258 22.0273 25.1023L24.1279 23.0017L23.1703 18.5327Z" fill="#F09700"/>
<path d="M40.2495 29.7495C39.8354 29.7495 39.4996 29.4137 39.4996 28.9995C39.4996 23.21 34.7895 18.4999 29 18.4999C28.5858 18.4999 28.25 18.1641 28.25 17.75C28.25 17.3358 28.5858 17 29 17C32.2052 17 35.2185 18.2481 37.485 20.5145C39.7514 22.781 40.9995 25.7943 40.9995 28.9995C40.9995 29.4137 40.6638 29.7495 40.2495 29.7495Z" fill="#F09700"/>
<path d="M37.2497 29.7496C36.8355 29.7496 36.4997 29.4138 36.4997 28.9996C36.4997 24.8643 33.1353 21.4999 29 21.4999C28.5858 21.4999 28.25 21.1641 28.25 20.75C28.25 20.3358 28.5858 20 29 20C33.9624 20 37.9996 24.0372 37.9996 28.9996C37.9996 29.4138 37.6639 29.7496 37.2497 29.7496Z" fill="#F09700"/>
<path d="M34.2498 29.7497C33.8356 29.7497 33.4998 29.4139 33.4998 28.9998C33.4998 26.5185 31.4812 24.4999 29 24.4999C28.5858 24.4999 28.25 24.1641 28.25 23.75C28.25 23.3358 28.5858 23 29 23C32.3083 23 34.9997 25.6915 34.9997 28.9998C34.9997 29.4139 34.664 29.7497 34.2498 29.7497Z" fill="#F09700"/>
<defs>
<filter id="filter0_d" x="0" y="0" width="58" height="58" filterUnits="userSpaceOnUse" color-interpolation-filters="sRGB">
<feFlood flood-opacity="0" result="BackgroundImageFix"/>
<feColorMatrix in="SourceAlpha" type="matrix" values="0 0 0 0 0 0 0 0 0 0 0 0 0 0 0 0 0 0 127 0"/>
<feOffset/>
<feGaussianBlur stdDeviation="2.5"/>
<feColorMatrix type="matrix" values="0 0 0 0 0 0 0 0 0 0 0 0 0 0 0 0 0 0 0.12 0"/>
<feBlend mode="normal" in2="BackgroundImageFix" result="effect1_dropShadow"/>
<feBlend mode="normal" in="SourceGraphic" in2="effect1_dropShadow" result="shape"/>
</filter>
</defs>
</svg>
