<svg width="58" height="59" viewBox="0 0 58 59" fill="none" xmlns="http://www.w3.org/2000/svg">
<g filter="url(#filter0_d)">
<rect x="5" y="5.625" width="48" height="48" fill="white"/>
</g>
<g clip-path="url(#clip0)">
<path d="M34.5071 31.9322L34.4981 32.0072C32.2991 30.9112 32.0691 30.7652 31.7851 31.1912C31.5881 31.4862 31.0141 32.1552 30.8411 32.3532C30.6661 32.5482 30.4921 32.5632 30.1951 32.4282C29.8951 32.2782 28.9321 31.9632 27.7921 30.9432C26.9041 30.1482 26.3081 29.1732 26.1321 28.8732C25.8391 28.3672 26.4521 28.2952 27.0101 27.2392C27.1101 27.0292 27.0591 26.8642 26.9851 26.7152C26.9101 26.5652 26.3131 25.0952 26.0631 24.5092C25.8231 23.9252 25.5761 23.9992 25.3911 23.9992C24.8151 23.9492 24.3941 23.9572 24.0231 24.3432C22.4091 26.1172 22.8161 27.9472 24.1971 29.8932C26.9111 33.4452 28.3571 34.0992 31.0011 35.0072C31.7151 35.2342 32.3661 35.2022 32.8811 35.1282C33.4551 35.0372 34.6481 34.4072 34.8971 33.7022C35.1521 32.9972 35.1521 32.4122 35.0771 32.2772C35.0031 32.1422 34.8071 32.0672 34.5071 31.9322V31.9322Z" fill="#F09700"/>
<path d="M37.52 21.0744C29.831 13.6414 17.106 19.0324 17.101 29.5184C17.101 31.6144 17.65 33.6584 18.696 35.4634L17 41.6254L23.335 39.9734C31.24 44.2434 40.996 38.5734 41 29.5244C41 26.3484 39.76 23.3594 37.505 21.1134L37.52 21.0744ZM39.002 29.4914C38.996 37.1244 30.617 41.8914 23.99 37.9954L23.63 37.7814L19.88 38.7564L20.885 35.1114L20.646 34.7364C16.522 28.1714 21.26 19.5914 29.072 19.5914C31.726 19.5914 34.217 20.6264 36.093 22.5014C37.968 24.3604 39.002 26.8514 39.002 29.4914V29.4914Z" fill="#F09700"/>
</g>
<defs>
<filter id="filter0_d" x="0" y="0.625" width="58" height="58" filterUnits="userSpaceOnUse" color-interpolation-filters="sRGB">
<feFlood flood-opacity="0" result="BackgroundImageFix"/>
<feColorMatrix in="SourceAlpha" type="matrix" values="0 0 0 0 0 0 0 0 0 0 0 0 0 0 0 0 0 0 127 0"/>
<feOffset/>
<feGaussianBlur stdDeviation="2.5"/>
<feColorMatrix type="matrix" values="0 0 0 0 0 0 0 0 0 0 0 0 0 0 0 0 0 0 0.12 0"/>
<feBlend mode="normal" in2="BackgroundImageFix" result="effect1_dropShadow"/>
<feBlend mode="normal" in="SourceGraphic" in2="effect1_dropShadow" result="shape"/>
</filter>
<clipPath id="clip0">
<rect width="24" height="24" fill="white" transform="translate(17 17.625)"/>
</clipPath>
</defs>
</svg>
