<svg width="59" height="59" viewBox="0 0 59 59" fill="none" xmlns="http://www.w3.org/2000/svg">
<g filter="url(#filter0_d)">
<rect x="5.20996" y="5.625" width="48" height="48" fill="white"/>
</g>
<g clip-path="url(#clip0)">
<path d="M39.9846 24.0012C39.7253 23.0373 38.9654 22.2774 38.0016 22.0179C36.2409 21.5361 29.198 21.5361 29.198 21.5361C29.198 21.5361 22.1553 21.5361 20.3946 21.9996C19.4494 22.2589 18.6709 23.0374 18.4116 24.0012C17.9482 25.7618 17.9482 29.4129 17.9482 29.4129C17.9482 29.4129 17.9482 33.0825 18.4116 34.8247C18.6711 35.7884 19.4308 36.5483 20.3948 36.8078C22.1739 37.2897 29.1982 37.2897 29.1982 37.2897C29.1982 37.2897 36.2409 37.2897 38.0016 36.8262C38.9655 36.5668 39.7253 35.807 39.9849 34.8432C40.4481 33.0825 40.4481 29.4315 40.4481 29.4315C40.4481 29.4315 40.4666 25.7618 39.9846 24.0012ZM26.9557 32.786V26.0398L32.8122 29.4129L26.9557 32.786Z" fill="#F09700"/>
</g>
<defs>
<filter id="filter0_d" x="0.209961" y="0.625" width="58" height="58" filterUnits="userSpaceOnUse" color-interpolation-filters="sRGB">
<feFlood flood-opacity="0" result="BackgroundImageFix"/>
<feColorMatrix in="SourceAlpha" type="matrix" values="0 0 0 0 0 0 0 0 0 0 0 0 0 0 0 0 0 0 127 0"/>
<feOffset/>
<feGaussianBlur stdDeviation="2.5"/>
<feColorMatrix type="matrix" values="0 0 0 0 0 0 0 0 0 0 0 0 0 0 0 0 0 0 0.12 0"/>
<feBlend mode="normal" in2="BackgroundImageFix" result="effect1_dropShadow"/>
<feBlend mode="normal" in="SourceGraphic" in2="effect1_dropShadow" result="shape"/>
</filter>
<clipPath id="clip0">
<rect width="24" height="24" fill="white" transform="translate(17.21 17.625)"/>
</clipPath>
</defs>
</svg>
