<svg width="48" height="49" viewBox="0 0 48 49" fill="none" xmlns="http://www.w3.org/2000/svg">
<g clip-path="url(#clip0)">
<path d="M33.2969 17.5469V43.6406H39.8594V17.3906L36.7344 16.8438L33.2969 17.5469Z" fill="#F09700"/>
<path d="M42.1562 43.0625H40.4453V18.1797C40.4453 17.0234 39.5 16.0781 38.3438 16.0781H34.5156C33.3594 16.0781 32.4141 17.0234 32.4141 18.1797V43.0625H28.0625V29.4531C28.0625 28.2969 27.1172 27.3516 25.9609 27.3516H22.1328C20.9766 27.3516 20.0312 28.2969 20.0312 29.4531V43.0625H15.6797V36.0156C15.6797 34.8594 14.7344 33.914 13.5781 33.914H9.75C8.59375 33.914 7.64844 34.8594 7.64844 36.0156V43.0625H5.84375C5.41406 43.0625 5.0625 43.414 5.0625 43.8437C5.0625 44.2734 5.41406 44.625 5.84375 44.625H42.1562C42.5859 44.625 42.9375 44.2734 42.9375 43.8437C42.9375 43.414 42.5859 43.0625 42.1562 43.0625ZM14.1172 43.0625H9.21094V36.0156C9.21094 35.7187 9.45312 35.4765 9.75 35.4765H13.5781C13.875 35.4765 14.1172 35.7187 14.1172 36.0156V43.0625ZM26.5 43.0625H21.5938V29.4531C21.5938 29.1562 21.8359 28.914 22.1328 28.914H25.9609C26.2578 28.914 26.5 29.1562 26.5 29.4531V43.0625ZM38.8828 43.0625H33.9766V18.1797C33.9766 17.8828 34.2188 17.6406 34.5156 17.6406H38.3438C38.6406 17.6406 38.8828 17.8828 38.8828 18.1797V43.0625Z" fill="#333333"/>
<path d="M40.4375 5.44516C40.4453 5.23423 40.375 5.01548 40.2109 4.85141C40.0469 4.68735 39.8281 4.61704 39.6172 4.62485C39.6016 4.62485 39.5938 4.62485 39.5781 4.62485H34.8516C34.4219 4.62485 34.0703 4.97641 34.0703 5.4061C34.0703 5.83579 34.4219 6.18735 34.8516 6.18735H37.7734L30.0469 13.9139L27.1328 10.9999C26.9844 10.8514 26.7891 10.7733 26.5781 10.7733C26.3672 10.7733 26.1719 10.8592 26.0234 10.9999L11.9922 25.0389C11.6875 25.3436 11.6875 25.8358 11.9922 26.1405C12.1484 26.2967 12.3438 26.367 12.5469 26.367C12.75 26.367 12.9453 26.2889 13.1016 26.1405L26.5938 12.6483L29.5078 15.5624C29.8125 15.867 30.3047 15.867 30.6094 15.5624L38.8828 7.28891V9.93735C38.8828 10.367 39.2344 10.7186 39.6641 10.7186C40.0938 10.7186 40.4453 10.367 40.4453 9.93735V5.48423C40.4453 5.4686 40.4375 5.46079 40.4375 5.44516Z" fill="#333333"/>
<path d="M9.90625 29.1018C10.3377 29.1018 10.6875 28.752 10.6875 28.3206C10.6875 27.8891 10.3377 27.5393 9.90625 27.5393C9.47478 27.5393 9.125 27.8891 9.125 28.3206C9.125 28.752 9.47478 29.1018 9.90625 29.1018Z" fill="#333333"/>
</g>
<defs>
<clipPath id="clip0">
<rect width="37.875" height="40" fill="white" transform="translate(5.0625 4.625)"/>
</clipPath>
</defs>
</svg>
