<svg width="193" height="500" viewBox="0 0 193 500" fill="none" xmlns="http://www.w3.org/2000/svg">
<g clip-path="url(#clip0)">
<path d="M33.5518 466.73V481.631H54.1198L55.8187 467.521L33.5518 466.73Z" fill="white"/>
<path d="M54.9085 482.545H32.6416V465.82L56.9107 466.671L54.9085 482.545ZM34.4618 480.721H53.331L54.8478 468.374L34.4618 467.705V480.721Z" fill="#0A3F64"/>
<path d="M32.3997 480.719C32.3997 480.719 2.67011 490.207 1.63867 497.992H54.97V480.719H32.3997Z" fill="#FDD44E"/>
<path d="M116.432 467.035L117.038 482.118H137.606L138.577 466.73L116.432 467.035Z" fill="white"/>
<path d="M138.455 483.032H116.127L115.521 466.185L139.547 465.82L138.455 483.032ZM117.887 481.207H136.756L137.605 467.644L117.401 467.949L117.887 481.207Z" fill="#0A3F64"/>
<path d="M115.885 481.207C115.885 481.207 86.1555 490.695 85.124 498.48H138.455V481.207H115.885Z" fill="#FDD44E"/>
<path d="M83.1826 495.5V500H139.851V494.891L83.1826 495.5Z" fill="#0A3F64"/>
<path d="M56.6683 494.708V499.513H0V494.344L56.6683 494.708Z" fill="#0A3F64"/>
<path d="M113.883 487.774C113.822 487.774 113.701 487.774 113.64 487.713L103.387 484.611C102.901 484.49 102.659 483.942 102.78 483.456C102.901 482.969 103.447 482.726 103.933 482.847L114.186 485.949C114.672 486.071 114.914 486.618 114.793 487.105C114.672 487.531 114.308 487.774 113.883 487.774Z" fill="#0A3F64"/>
<path d="M108.726 490.817C108.665 490.817 108.544 490.817 108.483 490.756L98.2294 487.654C97.7441 487.532 97.5014 486.985 97.6227 486.499C97.7441 486.012 98.2901 485.769 98.7755 485.89L109.029 488.992C109.515 489.114 109.757 489.661 109.636 490.148C109.515 490.574 109.151 490.817 108.726 490.817Z" fill="#0A3F64"/>
<path d="M101.627 493.918C101.567 493.918 101.445 493.918 101.385 493.857L91.1308 490.755C90.6454 490.634 90.4027 490.086 90.5241 489.6C90.6454 489.113 91.1915 488.87 91.6769 488.992L101.931 492.093C102.416 492.215 102.659 492.763 102.537 493.249C102.355 493.675 101.991 493.918 101.627 493.918Z" fill="#0A3F64"/>
<path d="M31.9133 486.192C31.8527 486.192 31.7313 486.192 31.6706 486.131L21.4169 483.029C20.9316 482.908 20.6889 482.36 20.8102 481.874C20.9316 481.387 21.4776 481.144 21.963 481.265L32.2167 484.367C32.7021 484.489 32.9448 485.036 32.8234 485.523C32.6414 485.949 32.2774 486.192 31.9133 486.192Z" fill="#0A3F64"/>
<path d="M26.7571 489.297C26.6964 489.297 26.5751 489.297 26.5144 489.236L16.2607 486.135C15.7753 486.013 15.5326 485.466 15.654 484.979C15.7753 484.492 16.3214 484.249 16.8068 484.371L27.0604 487.473C27.5458 487.594 27.7885 488.142 27.6672 488.628C27.4852 489.054 27.1211 489.297 26.7571 489.297Z" fill="#0A3F64"/>
<path d="M19.5969 492.399C19.5363 492.399 19.4149 492.399 19.3542 492.338L9.10054 489.236C8.61516 489.115 8.37247 488.567 8.49381 488.081C8.61516 487.594 9.16121 487.351 9.6466 487.472L19.9003 490.574C20.3857 490.696 20.6284 491.243 20.507 491.73C20.3857 492.095 20.0216 492.399 19.5969 492.399Z" fill="#0A3F64"/>
<path d="M109.635 469.773H142.399L145.19 206.727L50.7829 223.088L28.334 469.773H59.8231L92.8291 305.864L89.0674 269.919L109.635 469.773Z" fill="#0A3F64"/>
<path d="M36.8892 69.9425L24.876 91.1078L42.0464 96.8857C42.0464 96.8857 46.8395 80.221 50.3585 78.7005C53.8776 77.1801 57.0932 71.9495 56.1831 69.3951C55.273 66.8407 52.4214 64.043 52.4214 64.043L36.8892 69.9425Z" fill="white"/>
<path d="M42.6529 98.0415L23.541 91.5946L36.2823 69.2129L52.6639 62.9485L53.0886 63.3742C53.21 63.4959 56.1223 66.3544 57.093 69.0913C58.1852 72.1323 54.7268 77.8494 50.7831 79.5523C48.6595 80.4646 44.9585 90.3782 43.017 97.1292L42.6529 98.0415ZM26.2106 90.6215L41.4395 95.7304C42.7136 91.5338 46.5967 79.3699 49.9943 77.9102C53.21 76.5113 56.0009 71.7065 55.3335 69.7603C54.7268 67.9965 52.9673 65.9895 52.1786 65.138L37.5564 70.7334L26.2106 90.6215Z" fill="#0A3F64"/>
<path d="M35.0083 83.0195L38.4666 85.574C40.1655 86.8512 42.5924 86.4863 43.8665 84.7833L64.6773 56.6846L54.9696 49.5078L34.1589 77.6066C32.9454 79.3095 33.3094 81.7423 35.0083 83.0195Z" fill="#0A3F64"/>
<path d="M76.387 40.5668L45.6866 27.3081L25.4219 0L2.36621 53.5823L36.1003 49.629L66.8007 62.8877L76.387 40.5668Z" fill="#FDD44E"/>
<path d="M89.1887 61.9761C89.1887 61.9761 91.4942 86.3648 89.5527 89.0409C87.6112 91.717 76.3867 96.7042 76.3867 96.7042L95.1953 152.233L135.421 148.34L138.03 107.104C138.03 107.104 119.646 92.1427 118.554 89.0409C117.037 84.7835 117.037 62.0369 117.037 62.0369H89.1887V61.9761Z" fill="white"/>
<path d="M94.589 153.205L75.2344 96.2772L76.0231 95.9123C79.0568 94.5742 87.3689 90.6209 88.8251 88.5531C89.9172 87.0326 89.4318 73.8955 88.279 62.0964C88.2183 61.6099 88.5824 61.1233 89.1284 61.1233C89.6138 61.0625 90.0992 61.4274 90.0992 61.9748C90.4632 66.1105 92.3441 86.8501 90.2812 89.6478C88.461 92.1414 80.2095 96.0339 77.4793 97.2503L95.8024 151.258L134.512 147.488L137.06 107.468C133.298 104.366 118.797 92.3239 117.705 89.2829C116.128 84.9039 116.128 62.8871 116.128 61.9748C116.128 61.4882 116.553 61.0625 117.038 61.0625C117.523 61.0625 117.948 61.4882 117.948 61.9748C117.948 68.2392 118.191 85.3296 119.404 88.6747C120.132 90.7426 131.539 100.595 138.577 106.373L138.941 106.677L136.271 149.19L94.589 153.205Z" fill="#0A3F64"/>
<path d="M70.2586 94.5744C58.124 99.0143 61.0363 164.091 61.0363 164.091C59.0341 171.755 54.3623 223.269 54.3623 223.269L139.547 229.716L149.619 178.567C149.619 178.567 155.928 92.5065 122.558 87.4585C119.343 86.9719 88.2177 121.457 87.1863 88.5532C87.1256 88.5532 72.8675 93.6013 70.2586 94.5744Z" fill="#FDD44E"/>
<path d="M131.903 250.395C131.721 250.395 131.539 250.334 131.357 250.213L111.517 236.467C111.092 236.163 110.971 235.616 111.274 235.19C111.577 234.765 112.123 234.704 112.548 234.947L132.388 248.692C132.813 248.996 132.934 249.544 132.631 249.97C132.449 250.274 132.206 250.395 131.903 250.395Z" fill="#A1C5E2"/>
<path d="M81.969 88.981C77.0545 88.981 56.4258 99.138 36.8892 120.729C34.5229 123.405 32.4601 136.542 32.4601 136.542C31.1253 137.576 46.2934 91.1705 46.4148 92.9951C46.4148 92.9951 18.9907 82.4733 19.112 85.4535C19.2334 88.4337 -5.0357 135.691 4.24723 171.696C5.21799 175.528 18.5053 202.288 52.8461 148.341L48.8417 213.175L45.3227 255.932L77.8433 258.425L81.969 88.981Z" fill="#F09700"/>
<path d="M120.435 85.8779L107.754 149.982C107.694 157.037 99.1995 230.021 100.838 260.005L144.643 263.472L145.189 242.672V220.837C145.189 220.837 195.548 198.151 192.939 187.447C182.625 145.238 171.885 125.837 163.513 108.016C162.117 105.036 131.781 85.8779 120.435 85.8779Z" fill="#F09700"/>
<path d="M103.75 12.7724C98.7142 12.2859 86.4583 10.887 84.6381 19.7667C82.5753 29.8628 81.6045 43.1824 81.1798 50.2375C80.9978 53.0352 82.9393 55.468 85.6089 56.0762L116.006 62.3406C118.797 62.888 121.588 61.3067 122.437 58.5698C125.41 49.4468 131.599 30.0453 131.113 26.8826C129.475 15.9351 111.698 13.5631 103.75 12.7724Z" fill="#0A3F64"/>
<path d="M112.306 68.4228C114.308 67.0239 116.371 60.4554 118.13 52.7313C118.191 52.488 118.312 52.3055 118.555 52.2447C120.8 51.4541 124.198 49.5078 124.926 45.6762C125.532 42.3311 122.984 42.5744 120.921 43.2434C120.557 43.365 120.193 43.0001 120.254 42.6352C122.013 33.3297 123.166 25.0582 123.166 25.0582L87.0658 17.5774C87.0658 17.5774 85.4276 25.9097 83.8501 35.276C83.7895 35.7017 80.6952 58.2051 81.1806 60.3946C81.4232 61.611 82.1513 62.7057 83.1828 63.6788C83.1828 63.6788 85.1243 66.0508 98.2296 68.7877L112.306 68.4228Z" fill="white"/>
<path d="M98.2901 69.6389C98.2294 69.6389 98.1687 69.6389 98.1081 69.6389C85.7915 67.0845 83.0612 64.7733 82.5758 64.2868C81.3624 63.1312 80.5736 61.854 80.3309 60.5768C79.8456 58.0832 82.9399 35.3365 83.0005 35.1541C84.578 25.9095 86.2162 17.5163 86.2162 17.4555L86.3982 16.5432L124.197 24.3282L124.076 25.1796C124.076 25.2405 122.923 33.2078 121.224 42.2092C122.923 41.7834 124.197 41.9051 125.047 42.6349C125.835 43.3039 126.078 44.3987 125.775 45.9192C124.925 50.4807 120.86 52.4877 118.979 53.1568C116.067 65.8073 114.065 68.3617 112.791 69.2132C112.366 69.5173 111.82 69.3957 111.517 68.9699C111.213 68.5442 111.335 67.9968 111.759 67.6927C112.609 67.0845 114.49 64.3476 117.22 52.5486C117.341 52.0012 117.705 51.5754 118.251 51.393C119.768 50.8456 123.348 49.2643 124.015 45.4935C124.137 44.7028 124.076 44.1554 123.833 43.9121C123.712 43.7905 123.105 43.4256 121.164 44.0946C120.678 44.2771 120.193 44.1554 119.768 43.7905C119.404 43.4256 119.222 42.939 119.283 42.4525C120.678 34.9716 121.77 28.099 122.074 25.727L87.733 18.6111C87.2476 20.9831 85.9735 27.8557 84.6994 35.3365C84.4567 36.857 81.6657 58.2656 82.0298 60.0902C82.2118 61.0633 82.8185 61.9756 83.7893 62.8879L83.85 63.0096C83.85 63.0096 86.0949 65.2599 98.3507 67.8143C98.8361 67.936 99.1395 68.4225 99.0788 68.9091C99.0788 69.3348 98.7148 69.6389 98.2901 69.6389Z" fill="#0A3F64"/>
<path d="M103.932 42.94C103.872 42.94 103.811 42.94 103.811 42.94C103.326 42.8791 102.962 42.3926 103.022 41.906L103.144 41.1762C103.204 40.6896 103.69 40.3247 104.175 40.3855C104.66 40.4464 105.024 40.9329 104.964 41.4195L104.842 42.1493C104.721 42.6359 104.357 42.94 103.932 42.94Z" fill="#0A3F64"/>
<path d="M88.9461 40.6899C88.8854 40.6899 88.8248 40.6899 88.7641 40.6899C88.2787 40.5683 87.9753 40.1425 88.036 39.5952L88.218 38.6829C88.3394 38.1963 88.7641 37.8922 89.3101 37.953C89.7955 38.0747 90.0989 38.5004 90.0382 39.0478L89.8562 39.9601C89.7349 40.3858 89.3708 40.6899 88.9461 40.6899Z" fill="#0A3F64"/>
<path d="M111.152 39.1093C110.91 39.1093 110.728 39.0484 110.546 38.866C106.116 34.6086 102.901 35.4601 102.779 35.4601C102.294 35.5817 101.809 35.3384 101.627 34.8519C101.505 34.3653 101.748 33.8787 102.233 33.6963C102.415 33.6355 106.541 32.4191 111.82 37.5279C112.184 37.8929 112.184 38.4402 111.82 38.8052C111.638 39.0484 111.395 39.1093 111.152 39.1093Z" fill="#0A3F64"/>
<path d="M93.3758 49.0211C93.2545 49.0211 93.1331 49.0211 93.0118 48.9602C92.223 48.6561 89.7961 47.4397 89.7961 45.7368C89.7961 44.4596 89.9782 44.1555 92.2837 40.6887C92.7691 39.9589 93.3152 39.0466 94.0432 37.9518C94.3466 37.3436 95.1353 35.6407 95.196 34.4851C94.8926 34.2418 93.7399 33.8161 91.9197 33.8161H91.859C89.9782 33.8161 88.4007 34.3026 87.9153 34.9717C87.6119 35.3974 87.0052 35.4582 86.6412 35.1541C86.2164 34.85 86.1558 34.2418 86.4591 33.8769C88.0973 31.7482 92.8298 31.6874 95.2567 32.4781C96.7128 32.9646 97.0769 33.7553 97.0162 34.3635C97.0162 36.1881 95.7421 38.56 95.6207 38.8033L95.5601 38.8641C94.832 39.9589 94.2859 40.8712 93.8005 41.601C91.6163 44.9461 91.6163 45.0069 91.6163 45.676C91.677 45.9801 92.5871 46.7099 93.6792 47.2573C94.1646 47.4397 94.3466 47.9871 94.1646 48.4737C94.0432 48.8386 93.6792 49.0211 93.3758 49.0211Z" fill="#0A3F64"/>
<path d="M124.804 214.633C124.804 214.633 119.404 221.627 118.191 223.208C116.917 224.729 108.059 229.412 108.059 229.412L128.991 236.771C128.991 236.771 129.051 230.872 129.658 227.527C129.961 225.763 135.361 221.505 135.361 221.505C135.361 221.505 125.29 215.18 124.804 214.633Z" fill="white"/>
<path d="M129.84 238.048L105.753 229.594L107.573 228.621C110.971 226.858 116.613 223.634 117.463 222.6C118.676 221.08 124.015 214.146 124.076 214.085L124.744 213.234L125.472 214.025C126.078 214.511 132.085 218.404 135.786 220.776L136.878 221.445L135.847 222.235C133.359 224.181 130.629 226.858 130.507 227.709C129.901 230.993 129.84 236.771 129.84 236.832V238.048ZM110.303 229.229L128.081 235.494C128.141 233.548 128.263 229.838 128.748 227.344C129.051 225.763 131.964 223.087 133.784 221.566C130.75 219.62 126.806 217.066 125.047 215.849C123.651 217.674 119.95 222.478 118.919 223.695C117.887 225.033 113.094 227.709 110.303 229.229Z" fill="#0A3F64"/>
<path d="M133.602 239.206C133.48 239.206 133.42 239.206 133.298 239.145L105.692 229.9C105.207 229.718 104.964 229.231 105.086 228.745C105.268 228.258 105.814 228.015 106.299 228.197L133.905 237.503C134.391 237.685 134.633 238.172 134.512 238.658C134.33 238.962 133.966 239.206 133.602 239.206Z" fill="#0A3F64"/>
<path d="M49.4479 236.651C49.0839 236.651 48.7199 236.408 48.5985 236.043C48.4165 235.556 48.6592 235.07 49.1446 234.887L71.2295 226.494C71.7148 226.312 72.2002 226.555 72.3822 227.042C72.5643 227.528 72.3216 228.015 71.8362 228.197L49.7513 236.59C49.63 236.59 49.5086 236.651 49.4479 236.651Z" fill="#0A3F64"/>
<path d="M137.909 224.306L117.826 211.169L152.046 181.002L136.028 150.349C135.785 149.923 135.967 149.376 136.392 149.132C136.817 148.889 137.363 149.072 137.605 149.497L154.29 181.428L120.799 210.986L138.091 222.299L143.43 220.535C143.915 220.352 144.401 220.657 144.583 221.082C144.765 221.569 144.462 222.055 144.037 222.238L137.909 224.306Z" fill="#0A3F64"/>
<path d="M115.035 183.555C115.035 184.71 115.945 185.623 117.098 185.623C118.251 185.623 119.161 184.71 119.161 183.555C119.161 182.399 118.251 181.487 117.098 181.487C116.006 181.426 115.035 182.399 115.035 183.555Z" fill="white"/>
<path d="M117.159 186.535C115.521 186.535 114.187 185.197 114.187 183.555C114.187 181.913 115.521 180.575 117.159 180.575C118.798 180.575 120.132 181.913 120.132 183.555C120.132 185.197 118.798 186.535 117.159 186.535ZM117.159 182.338C116.492 182.338 116.007 182.886 116.007 183.494C116.007 184.163 116.553 184.65 117.159 184.65C117.827 184.65 118.312 184.102 118.312 183.494C118.312 182.886 117.766 182.338 117.159 182.338Z" fill="#0A3F64"/>
<path d="M112.973 200.22C112.973 201.376 113.883 202.288 115.036 202.288C116.188 202.288 117.098 201.376 117.098 200.22C117.098 199.065 116.188 198.152 115.036 198.152C113.883 198.152 112.973 199.065 112.973 200.22Z" fill="white"/>
<path d="M115.035 203.261C113.397 203.261 112.062 201.923 112.062 200.28C112.062 198.638 113.397 197.3 115.035 197.3C116.674 197.3 118.008 198.638 118.008 200.28C118.069 201.923 116.674 203.261 115.035 203.261ZM115.035 199.064C114.368 199.064 113.883 199.611 113.883 200.22C113.883 200.828 114.429 201.375 115.035 201.375C115.703 201.375 116.188 200.828 116.188 200.22C116.188 199.611 115.703 199.064 115.035 199.064Z" fill="#0A3F64"/>
<path d="M94.0429 23.1724C89.4317 21.956 81.0589 18.3068 83.8498 9.30544C86.7015 0.304099 87.7936 4.01411 87.7936 4.01411C87.7936 4.01411 89.2497 6.4469 89.9778 6.69018C90.7059 6.93346 89.0677 7.11592 93.1328 0C93.1328 0 100.292 0.182459 102.355 5.10887C104.418 10.0961 107.027 8.08904 108.604 6.20362C109.939 4.56149 112.366 7.60248 112.487 9.60954C113.094 11.9815 123.894 13.0763 126.685 15.3266C131.114 18.8542 132.57 20.3138 131.053 26.8216C130.75 28.0988 126.199 39.9586 126.199 39.9586L124.986 26.2742C124.986 26.2742 101.566 25.1794 94.0429 23.1724Z" fill="#0A3F64"/>
<path d="M72.504 182.336H67.2255C66.7401 182.336 66.3154 181.911 66.3154 181.424C66.3154 180.937 66.7401 180.512 67.2255 180.512H72.504C72.9894 180.512 73.4141 180.937 73.4141 181.424C73.4141 181.971 72.9894 182.336 72.504 182.336Z" fill="#0A3F64"/>
<path d="M74.1417 201.133H68.8632C68.3778 201.133 67.9531 200.707 67.9531 200.221C67.9531 199.734 68.3778 199.309 68.8632 199.309H74.1417C74.6271 199.309 75.0518 199.734 75.0518 200.221C75.0518 200.707 74.6271 201.133 74.1417 201.133Z" fill="#0A3F64"/>
<path d="M91.9188 305.985L85.8516 268.094V247.355H87.6717V267.973L93.739 305.742L91.9188 305.985Z" fill="#18898E"/>
<path d="M47.2638 77.4243C57.5782 77.6676 56.4861 68.1797 56.4861 68.1797C56.4861 68.1797 46.6571 73.5318 44.7762 74.8699C42.8954 76.2079 45.8077 77.3635 47.2638 77.4243Z" fill="white"/>
<path d="M47.6283 78.337C47.5069 78.337 47.3856 78.337 47.2643 78.337C46.1115 78.337 43.8059 77.668 43.3205 76.2691C43.1992 75.8434 43.1385 74.9919 44.2306 74.1404C46.1115 72.7416 55.6371 67.5719 56.0618 67.3894L57.2146 66.7812L57.3966 68.1193C57.3966 68.3017 57.882 72.4983 55.1517 75.5393C53.4529 77.3639 50.9046 78.337 47.6283 78.337ZM47.3249 76.5124C50.2372 76.5732 52.4214 75.8434 53.8169 74.2621C55.091 72.8024 55.5157 70.9778 55.5764 69.7006C52.8461 71.2211 46.7182 74.5662 45.3227 75.6001C45.2621 75.6609 45.2014 75.7218 45.1407 75.7826C45.4441 76.0867 46.4755 76.4516 47.3249 76.5124Z" fill="#0A3F64"/>
<path d="M45.0801 60.7003C45.0801 60.7003 50.4193 68.1203 50.3586 72.1344C50.298 76.1485 42.3498 77.9123 36.5859 72.9251C30.822 67.9378 42.5319 58.5716 45.0801 60.7003Z" fill="white"/>
<path d="M44.4129 76.8767C41.7433 76.8767 38.7097 75.9644 35.9794 73.6532C33.2491 71.2813 33.4918 67.7537 36.5861 64.1045C38.9523 61.3068 43.5635 58.205 45.687 60.0296L45.869 60.2121C46.1117 60.5162 51.3903 67.9362 51.2689 72.1936C51.2082 73.8965 50.1161 75.3562 48.2353 76.2077C47.2038 76.6334 45.869 76.8767 44.4129 76.8767ZM44.1095 61.246C42.9567 61.246 40.1658 62.6449 37.9816 65.2601C36.5861 66.9023 34.5839 70.0041 37.1928 72.2544C40.6512 75.2346 44.9589 75.5995 47.5072 74.4439C48.2353 74.1398 49.3881 73.41 49.4487 72.0719C49.5094 69.0918 45.9297 63.3747 44.4736 61.3068C44.3522 61.3068 44.2309 61.246 44.1095 61.246Z" fill="#0A3F64"/>
<path d="M26.8171 162.328C26.6957 162.328 26.6351 162.328 26.5137 162.267C26.0283 162.084 25.7856 161.598 25.9677 161.111C31.9136 144.325 35.9787 120.848 36.0393 120.605C36.1 120.119 36.5854 119.754 37.0708 119.875C37.5562 119.936 37.9202 120.423 37.7988 120.909C37.7382 121.153 33.6731 144.812 27.6665 161.719C27.5452 162.084 27.1811 162.328 26.8171 162.328Z" fill="#0A3F64"/>
<path d="M92.8904 55.831C92.6477 57.3515 91.7376 58.5071 90.8882 58.3855C90.0388 58.2638 89.6141 56.865 89.8568 55.3445C90.0995 53.824 91.0096 52.6684 91.859 52.79C92.7084 52.9117 93.1938 54.3105 92.8904 55.831Z" fill="#0A3F64"/>
<path d="M12.6198 49.0213C12.4985 49.0213 12.3771 49.0213 12.2558 48.9605C11.7704 48.7781 11.5884 48.2307 11.7704 47.7441L27.606 8.7586C27.788 8.27204 28.3341 8.08958 28.8194 8.27204C29.3048 8.4545 29.4868 9.00188 29.3048 9.48844L13.4086 48.474C13.2872 48.8389 12.9232 49.0213 12.6198 49.0213Z" fill="#0A3F64"/>
</g>
<defs>
<clipPath id="clip0">
<rect width="193" height="500" fill="white"/>
</clipPath>
</defs>
</svg>
