<svg width="149" height="49" viewBox="0 0 149 49" fill="none" xmlns="http://www.w3.org/2000/svg">
<path d="M53.466 24.9034H27.6691L14.3623 0.25H40.1592L53.466 24.9034Z" fill="#F09700"/>
<path d="M14.3623 48.2502H40.1592L53.466 24.9036H27.6691L14.3623 48.2502Z" fill="#E94F0F"/>
<path d="M27.8073 24.916L14.2869 0.25L0 24.1997L14.3372 48.25L27.8073 24.916Z" fill="#EE7802"/>
<path d="M39.6821 13.4438H21.6758V15.3287H39.6695C40.1847 15.3287 40.6119 15.7559 40.6119 16.2711V21.913C40.6119 22.4281 40.1847 22.8554 39.6695 22.8554H36.8297V19.0983L31.1501 23.7978L36.8297 28.4972V24.7402H39.6695C41.2402 24.7402 42.5093 23.4711 42.5093 21.913V16.2711C42.5219 14.713 41.2402 13.4438 39.6821 13.4438Z" fill="white"/>
<path d="M27.3678 34.1392H15.0537C14.5259 34.1392 14.1112 33.712 14.1112 33.1968V25.6701C14.1112 25.1549 14.5385 24.7277 15.0537 24.7277H19.7908V22.8429H15.0537C13.483 22.8429 12.2139 24.112 12.2139 25.6701V33.1968C12.2139 34.7549 13.483 36.0241 15.0537 36.0241H27.3678V39.7811L33.0474 35.0816L27.3678 30.3822V34.1392Z" fill="white"/>
<path d="M13.1563 17.2007H18.8359C19.351 17.2007 19.7783 16.7735 19.7783 16.2583V12.5012C19.7783 11.9861 19.351 11.5588 18.8359 11.5588H13.1563C12.6411 11.5588 12.2139 11.9861 12.2139 12.5012V16.2583C12.2139 16.7861 12.6411 17.2007 13.1563 17.2007Z" fill="white"/>
<path d="M22.6302 26.6123H28.3098C28.8249 26.6123 29.2522 26.1851 29.2522 25.6699V21.9129C29.2522 21.3977 28.8249 20.9705 28.3098 20.9705H22.6302C22.115 20.9705 21.6878 21.3977 21.6878 21.9129V25.6699C21.6752 26.1851 22.1024 26.6123 22.6302 26.6123Z" fill="white"/>
<path d="M41.5663 32.2542H35.8867C35.3716 32.2542 34.9443 32.6814 34.9443 33.1966V36.9536C34.9443 37.4688 35.3716 37.896 35.8867 37.896H41.5663C42.0815 37.896 42.5087 37.4688 42.5087 36.9536V33.1966C42.5213 32.6814 42.0941 32.2542 41.5663 32.2542Z" fill="white"/>
<path d="M62.8018 35.7475V32.8072C62.8018 32.4805 62.9023 32.2418 63.1285 31.9528L75.518 16.7611C75.6185 16.6229 75.5683 16.4721 75.3798 16.4721H63.7567C63.3295 16.4721 63.0405 16.1831 63.0405 15.7559V13.0041C63.0405 12.5768 63.3295 12.2878 63.7567 12.2878H80.406C80.8332 12.2878 81.1222 12.5768 81.1222 13.0041V15.957C81.1222 16.2837 81.0217 16.6229 80.7955 16.8617L68.2049 32.0407C68.1044 32.1789 68.1546 32.3297 68.3431 32.3297H80.4436C80.8709 32.3297 81.1599 32.6187 81.1599 33.046V35.7475C81.1599 36.1747 80.8709 36.4638 80.4436 36.4638H63.5054C63.0782 36.4512 62.8018 36.1747 62.8018 35.7475Z" fill="#E94F0F"/>
<path d="M83.3847 30.093C82.857 28.5223 82.5303 26.3862 82.5303 24.3003C82.5303 22.2144 82.8193 20.1286 83.3345 18.6082C84.7167 14.4364 88.3606 11.9233 93.1983 11.9233C97.7973 11.9233 101.353 14.4364 102.786 18.5705C103.351 20.1788 103.64 22.2773 103.64 24.2626C103.64 26.2982 103.351 28.4343 102.786 30.093C101.366 34.315 97.7596 36.8281 93.1481 36.8281C88.4235 36.8406 84.7669 34.315 83.3847 30.093ZM98.5261 28.8113C98.8528 27.6678 99.0538 25.9589 99.0538 24.3506C99.0538 22.5914 98.8654 20.983 98.5764 19.9401C97.7722 17.3767 95.7743 15.8563 93.0727 15.8563C90.4591 15.8563 88.4737 17.3767 87.6695 19.9401C87.3428 20.983 87.1418 22.5914 87.1418 24.3506C87.1418 26.0595 87.3303 27.7181 87.6695 28.8113C88.4235 31.3746 90.4716 32.8951 93.1732 32.8951C95.724 32.8951 97.7219 31.3746 98.5261 28.8113Z" fill="#E94F0F"/>
<path d="M121.822 12.3002H124.9C125.328 12.3002 125.617 12.5892 125.617 13.0164V35.7473C125.617 36.1745 125.328 36.4635 124.9 36.4635H121.822C121.395 36.4635 121.106 36.1745 121.106 35.7473V34.3274C121.106 34.1389 120.968 34.0887 120.817 34.2269C119.585 35.8855 117.688 36.7902 115.024 36.7902C110.513 36.7902 106.392 34.1766 106.392 28.962V13.0164C106.392 12.5892 106.681 12.3002 107.108 12.3002H110.199C110.626 12.3002 110.915 12.5892 110.915 13.0164V27.5295C110.915 30.7588 112.712 32.8447 115.891 32.8447C119.07 32.8447 121.106 30.7588 121.106 27.5295V13.0164C121.106 12.5892 121.395 12.3002 121.822 12.3002Z" fill="#E94F0F"/>
<path d="M144.967 12.3003H148.096C148.523 12.3003 148.812 12.5893 148.812 13.0165V35.2197C148.812 44.2291 142.215 46.3652 134.726 45.7998C134.249 45.7998 134.06 45.4731 134.06 45.0459L134.161 42.2438C134.161 41.8165 134.488 41.5275 134.965 41.5778C141.461 42.005 144.263 40.3966 144.263 35.0815V34.2773C144.263 34.0888 144.125 34.0385 143.974 34.1767C142.743 35.5589 140.896 36.4511 138.182 36.4511C134.387 36.4511 130.492 34.5034 129.172 30.093C128.695 28.4846 128.557 26.4867 128.557 24.3003C128.557 21.9757 128.695 19.9401 129.273 18.2312C130.454 14.5244 133.633 11.9233 137.905 11.9233C140.607 11.9233 142.605 12.7778 143.974 14.2479C144.113 14.4364 144.263 14.3485 144.263 14.1474V13.004C144.263 12.5893 144.54 12.3003 144.967 12.3003ZM144.263 24.2626C144.263 21.4103 144.163 20.7945 143.937 19.8521C143.459 17.6281 141.662 15.8689 138.911 15.8689C136.159 15.8689 134.4 17.6281 133.696 19.8521C133.369 20.7568 133.168 22.0385 133.168 24.2626C133.168 26.5872 133.357 28.0071 133.646 28.7233C134.261 30.9474 136.159 32.7066 138.911 32.7066C141.801 32.7066 143.51 30.9097 143.987 28.7233C144.163 27.8186 144.263 27.1527 144.263 24.2626Z" fill="#E94F0F"/>
</svg>
