<svg width="48" height="49" viewBox="0 0 48 49" fill="none" xmlns="http://www.w3.org/2000/svg">
<g clip-path="url(#clip0)">
<path d="M27.8234 42.2501L25.855 44.0782C25.527 44.3751 25.0271 44.3595 24.7224 44.0313L16.4585 35.1173C16.1617 34.7892 16.1774 34.2892 16.5054 33.9845L18.4738 32.1563C18.8018 31.8595 19.3017 31.8751 19.6063 32.2032L27.8702 41.1251C28.167 41.4454 28.1436 41.9532 27.8234 42.2501Z" fill="#F09700"/>
<path d="M42.4069 25.8211L38.228 18.5867L38.5639 18.3914C39.2903 17.9695 39.8137 17.2898 40.0324 16.4773C40.2511 15.6648 40.1417 14.8211 39.7199 14.0867C38.8529 12.5867 36.9236 12.0633 35.4239 12.9383L35.0881 13.1336L30.9093 5.89922C30.5656 5.30547 30.0188 4.8836 29.3627 4.71172C28.7066 4.53204 28.0192 4.62579 27.4256 4.96954C26.832 5.31329 26.4102 5.86016 26.2384 6.51641C26.1212 6.96954 26.1212 7.43047 26.2462 7.86797L22.247 12.368C21.958 12.6883 21.9892 13.1805 22.3095 13.4695C22.6297 13.7586 23.1218 13.7273 23.4108 13.407L27.0116 9.35235L37.4704 27.4695L19.9897 31.2195L15.1001 22.7508L18.7399 18.657C19.0289 18.3367 18.9977 17.8445 18.6774 17.5555C18.3572 17.2664 17.8651 17.2977 17.5761 17.618L13.6472 22.0477L7.10953 25.8211C6.25033 26.3211 5.63327 27.118 5.37552 28.0789C5.11776 29.0399 5.25054 30.0398 5.75044 30.907L8.26554 35.2586C8.9529 36.4539 10.2104 37.118 11.4992 37.118C12.1319 37.118 12.7724 36.9539 13.3582 36.618L15.2172 35.5477L23.364 43.6961C23.9732 44.3055 24.7855 44.618 25.5979 44.618C26.1368 44.618 26.6836 44.4773 27.1757 44.1961C28.0349 43.7039 28.5972 42.8523 28.73 41.868C28.8628 40.8836 28.5348 39.9227 27.8318 39.2195L25.0042 36.3914L25.7775 35.9461C26.3633 35.6023 26.7461 35.0242 26.8242 34.3445C26.9023 33.6648 26.6523 33.0164 26.1524 32.5555L25.2151 31.6883L38.3765 28.8602C38.6889 29.1883 39.0951 29.4227 39.5403 29.5398C39.759 29.6023 39.9855 29.6258 40.2042 29.6258C40.6494 29.6258 41.079 29.5086 41.4774 29.282C42.071 28.9383 42.4928 28.3914 42.6646 27.7352C42.8365 27.0945 42.7505 26.4148 42.4069 25.8211ZM35.8614 14.493L36.1972 14.2977C36.9549 13.8602 37.9234 14.118 38.3608 14.8758C38.7982 15.6336 38.5405 16.6023 37.7828 17.0398L37.447 17.2352L35.8926 14.532L35.8614 14.493ZM12.5693 35.2664C11.5383 35.8602 10.2104 35.5086 9.61682 34.4773L7.10172 30.1258C6.81272 29.6258 6.73461 29.0398 6.88301 28.4852C7.03142 27.9305 7.39072 27.4617 7.89062 27.1727L13.8581 23.7274L18.529 31.8211L12.5693 35.2664ZM27.1757 41.6727C27.1132 42.1727 26.8242 42.5945 26.3868 42.8523C25.7619 43.2117 24.9652 43.1102 24.4575 42.5945L16.6076 34.743L19.4741 33.0867L26.7226 40.3367C27.0741 40.6883 27.2381 41.1805 27.1757 41.6727ZM25.0902 33.7195C25.2229 33.8367 25.2854 34.0086 25.262 34.1883C25.2386 34.368 25.1448 34.5164 24.9886 34.6102L23.856 35.2664L21.1691 32.5789L23.3405 32.1102L25.0902 33.7195ZM41.1493 27.3523C41.079 27.6102 40.915 27.8211 40.6885 27.9539C40.462 28.0867 40.1964 28.118 39.9386 28.0555C39.6809 27.9852 39.47 27.8211 39.3372 27.5945L27.8474 7.67266C27.7146 7.4461 27.6834 7.18047 27.7459 6.92266C27.8162 6.66485 27.9802 6.45391 28.2067 6.3211C28.3551 6.23516 28.5269 6.18829 28.6988 6.18829C28.7847 6.18829 28.8706 6.1961 28.9565 6.21954C29.2143 6.28985 29.4252 6.45391 29.558 6.68047L41.0556 26.6023C41.1884 26.8289 41.2196 27.0945 41.1493 27.3523Z" fill="#333333"/>
<path d="M20.4969 16.2969C20.7 16.2969 20.9031 16.2109 21.0515 16.0703C21.1999 15.9297 21.278 15.7266 21.278 15.5156C21.278 15.3047 21.1921 15.1094 21.0515 14.9609C20.9031 14.8125 20.7078 14.7344 20.4969 14.7344C20.2938 14.7344 20.0907 14.8203 19.9423 14.9609C19.7939 15.1094 19.7158 15.3047 19.7158 15.5156C19.7158 15.7266 19.8017 15.9219 19.9423 16.0703C20.0907 16.2109 20.286 16.2969 20.4969 16.2969Z" fill="#333333"/>
</g>
<defs>
<clipPath id="clip0">
<rect width="37.5" height="40" fill="white" transform="translate(5.25 4.625)"/>
</clipPath>
</defs>
</svg>
