<svg width="48" height="49" viewBox="0 0 48 49" fill="none" xmlns="http://www.w3.org/2000/svg">
<g clip-path="url(#clip0)">
<path d="M26.2617 29.6172L31.2617 34.6953L29.3086 37.0391L23.918 31.9609L26.2617 29.6172Z" fill="#F09700"/>
<path d="M42.1051 34.8434L36.1051 18.4216V8.81219C36.1051 8.3825 35.7535 8.03094 35.3238 8.03094H32.3082L31.2535 5.14031C31.1051 4.73406 30.6598 4.52313 30.2535 4.67156L21.066 8.03094H9.87852C9.44883 8.03094 9.09727 8.3825 9.09727 8.81219V12.4059L6.35508 13.4059C6.15977 13.4763 6.00352 13.6247 5.91758 13.8122C5.83164 13.9997 5.82383 14.2184 5.89414 14.4059L9.10508 23.195V40.4294C9.10508 40.8591 9.45664 41.2106 9.88633 41.2106H15.6832L16.7379 44.1013C16.8551 44.4216 17.152 44.6169 17.4723 44.6169C17.5582 44.6169 17.652 44.6013 17.7379 44.57L26.9254 41.2106H35.316C35.7457 41.2106 36.0973 40.8591 36.0973 40.4294V37.8591L41.6363 35.8356C41.8316 35.7653 41.9879 35.6169 42.0738 35.4294C42.1676 35.2497 42.1832 35.0388 42.1051 34.8434ZM9.09727 18.6481L7.6207 14.6091L9.09727 14.07V18.6481ZM30.0504 6.40594L30.6441 8.03094H25.6129L30.0504 6.40594ZM17.941 42.8434L17.3473 41.2184H22.3785L17.941 42.8434ZM34.5426 39.6559H10.6598V9.59344H34.5426V39.6559ZM36.1051 36.2028V22.9684L40.3707 34.6403L36.1051 36.2028Z" fill="#333333"/>
<path d="M21.3394 22.7971C21.0348 22.4924 20.5426 22.4924 20.2379 22.7971L18.4332 24.6018L17.316 24.1409C16.9176 23.9768 16.4644 24.1721 16.3004 24.5706C16.1363 24.969 16.3316 25.4299 16.7301 25.5862L18.3316 26.2424C18.4254 26.2815 18.5269 26.2971 18.6285 26.2971C18.8316 26.2971 19.0348 26.219 19.1832 26.0706L21.3551 23.8987C21.6441 23.6018 21.6441 23.1096 21.3394 22.7971Z" fill="#333333"/>
<path d="M32.0508 34.1172L26.6992 28.7656C26.3945 28.4609 25.9024 28.4609 25.5977 28.7656L24.9649 29.3984L23.8711 28.3047C24.707 27.2344 25.1992 25.8984 25.1992 24.4375C25.1992 20.9609 22.3711 18.1406 18.9023 18.1406C15.4258 18.1406 12.6055 20.9688 12.6055 24.4375C12.6055 27.9063 15.4336 30.7344 18.9023 30.7344C20.3555 30.7344 21.6992 30.2344 22.7695 29.4063L23.8633 30.5L23.2305 31.1328C22.9258 31.4375 22.9258 31.9297 23.2305 32.2344L28.5742 37.5938C28.7305 37.75 28.9258 37.8203 29.1289 37.8203C29.332 37.8203 29.5274 37.7422 29.6836 37.5938L32.0508 35.2266C32.3555 34.9141 32.3555 34.4219 32.0508 34.1172ZM18.8945 29.1797C16.2852 29.1797 14.1602 27.0547 14.1602 24.4453C14.1602 21.8359 16.2852 19.7109 18.8945 19.7109C21.5039 19.7109 23.6289 21.8359 23.6289 24.4453C23.6289 27.0547 21.5117 29.1797 18.8945 29.1797ZM29.1289 35.9375L24.8789 31.6875L26.1445 30.4219L30.3945 34.6719L29.1289 35.9375Z" fill="#333333"/>
<path d="M30.6914 12.7422C30.6836 12.6953 30.668 12.6406 30.6445 12.5938C30.6211 12.5469 30.5977 12.5 30.5742 12.4609C30.543 12.4141 30.5117 12.375 30.4805 12.3438C30.4492 12.3125 30.4023 12.2734 30.3633 12.2422C30.3242 12.2109 30.2773 12.1875 30.2305 12.1719C30.1836 12.1484 30.1367 12.1406 30.082 12.125C29.9805 12.1016 29.8789 12.1016 29.7773 12.125C29.7305 12.1328 29.6758 12.1484 29.6289 12.1719C29.582 12.1953 29.5352 12.2188 29.4961 12.2422C29.457 12.2734 29.4102 12.3047 29.3789 12.3438C29.3477 12.3828 29.3086 12.4219 29.2773 12.4609C29.2461 12.5 29.2227 12.5469 29.207 12.5938C29.1836 12.6406 29.168 12.6875 29.1602 12.7422C29.1523 12.7891 29.1445 12.8438 29.1445 12.8906C29.1445 12.9453 29.1523 12.9922 29.1602 13.0391C29.168 13.0859 29.1836 13.1406 29.207 13.1875C29.2305 13.2344 29.2461 13.2813 29.2773 13.3203C29.3086 13.3672 29.3398 13.4063 29.3789 13.4375C29.418 13.4688 29.457 13.5078 29.4961 13.5313C29.5352 13.5625 29.582 13.5859 29.6289 13.6016C29.6758 13.625 29.7227 13.6328 29.7773 13.6484C29.832 13.6641 29.8789 13.6641 29.9336 13.6641C29.9883 13.6641 30.0352 13.6563 30.0898 13.6484C30.1445 13.6406 30.1914 13.625 30.2383 13.6016C30.2852 13.5781 30.332 13.5547 30.3711 13.5313C30.4102 13.5 30.457 13.4688 30.4883 13.4375C30.5195 13.4063 30.5586 13.3594 30.582 13.3203C30.6133 13.2813 30.6367 13.2344 30.6523 13.1875C30.6758 13.1406 30.6836 13.0938 30.6992 13.0391C30.7148 12.9844 30.7148 12.9375 30.7148 12.8906C30.707 12.8438 30.6992 12.7891 30.6914 12.7422Z" fill="#333333"/>
<path d="M27.2227 12.1096H15.2852C14.8555 12.1096 14.5039 12.4612 14.5039 12.8909C14.5039 13.3206 14.8555 13.6721 15.2852 13.6721H27.2227C27.6523 13.6721 28.0039 13.3206 28.0039 12.8909C28.0039 12.4612 27.6523 12.1096 27.2227 12.1096Z" fill="#333333"/>
<path d="M16.0508 15.6016C16.043 15.5547 16.0273 15.5 16.0039 15.4531C15.9805 15.4062 15.957 15.3594 15.9336 15.3203C15.9023 15.2734 15.8711 15.2344 15.8398 15.2031C15.8008 15.1641 15.7617 15.1328 15.7227 15.1094C15.6836 15.0781 15.6367 15.0547 15.5898 15.0391C15.543 15.0156 15.4961 15.0078 15.4414 14.9922C15.3398 14.9688 15.2383 14.9688 15.1367 14.9922C15.0898 15 15.0352 15.0156 14.9883 15.0391C14.9414 15.0625 14.8945 15.0859 14.8555 15.1094C14.8086 15.1406 14.7695 15.1719 14.7383 15.2031C14.707 15.2344 14.668 15.2812 14.6367 15.3203C14.6055 15.3594 14.582 15.4062 14.5664 15.4531C14.543 15.5 14.5352 15.5469 14.5195 15.6016C14.5039 15.6562 14.5039 15.7031 14.5039 15.75C14.5039 15.7969 14.5117 15.8516 14.5195 15.8984C14.5273 15.9453 14.543 16 14.5664 16.0469C14.5898 16.0937 14.6133 16.1406 14.6367 16.1797C14.668 16.2266 14.6992 16.2656 14.7383 16.2969C14.7773 16.3281 14.8164 16.3672 14.8555 16.3906C14.8945 16.4219 14.9414 16.4453 14.9883 16.4609C15.0352 16.4844 15.082 16.4922 15.1367 16.5078C15.1836 16.5156 15.2383 16.5234 15.293 16.5234C15.3398 16.5234 15.3945 16.5156 15.4414 16.5078C15.4883 16.5 15.543 16.4844 15.5898 16.4609C15.6367 16.4375 15.6836 16.4141 15.7227 16.3906C15.7695 16.3594 15.8086 16.3281 15.8398 16.2969C15.8789 16.2578 15.9101 16.2187 15.9336 16.1797C15.9648 16.1406 15.9883 16.0937 16.0039 16.0469C16.0273 16 16.0351 15.9531 16.0508 15.8984C16.0664 15.8437 16.0664 15.7969 16.0664 15.75C16.0664 15.7031 16.0586 15.6484 16.0508 15.6016Z" fill="#333333"/>
<path d="M29.9258 14.9688H17.9883C17.5586 14.9688 17.207 15.3203 17.207 15.75C17.207 16.1797 17.5586 16.5312 17.9883 16.5312H29.9258C30.3555 16.5312 30.707 16.1797 30.707 15.75C30.707 15.3203 30.3555 14.9688 29.9258 14.9688Z" fill="#333333"/>
</g>
<defs>
<clipPath id="clip0">
<rect width="36.3203" height="40" fill="white" transform="translate(5.83984 4.625)"/>
</clipPath>
</defs>
</svg>
