<svg width="48" height="49" viewBox="0 0 48 49" fill="none" xmlns="http://www.w3.org/2000/svg">
<path d="M6.42208 18.418C6.42208 18.418 2.35958 11.4649 7.90646 6.85548C7.90646 6.85548 13.5315 3.57423 17.594 7.24611C17.594 7.24611 7.98458 14.1211 6.42208 18.418Z" fill="#F09700"/>
<path d="M41.3125 18.2617C41.3125 18.2617 45.375 11.3086 39.8281 6.69923C39.8281 6.69923 34.2031 3.41798 30.1406 7.08986C30.1406 7.08986 39.75 13.9649 41.3125 18.2617Z" fill="#F09700"/>
<path d="M41.7578 19.2383C43.2031 17.6289 44 15.5664 44 13.3867C44 8.55859 40.0781 4.62891 35.25 4.62891C33.0938 4.62891 31.0625 5.40234 29.4609 6.82422C27.7109 6.28516 25.875 6.01172 24 6.01172C22.125 6.01172 20.2812 6.29297 18.5391 6.82422C16.9375 5.40234 14.8984 4.62891 12.75 4.62891C7.92188 4.62891 4 8.55859 4 13.3867C4 15.5664 4.78906 17.6289 6.24219 19.2383C5.73438 20.9414 5.46875 22.7305 5.46875 24.5586C5.46875 28.8008 6.88281 32.832 9.49219 36.0977L7.26562 38.5742C5.98438 40.0039 6.08594 42.2305 7.5 43.6445C8.13281 44.2773 8.97656 44.6211 9.89844 44.6211C9.92969 44.6211 9.96094 44.6211 9.99219 44.6211C11 44.5977 11.9609 44.1523 12.6328 43.4102L15 40.7773C17.7188 42.3008 20.7969 43.1055 24 43.1055C27.3516 43.1055 30.5703 42.2227 33.3828 40.5586L35.9453 43.4102C36.6172 44.1523 37.5781 44.5977 38.5859 44.6211C38.6172 44.6211 38.6484 44.6211 38.6797 44.6211C39.5938 44.6211 40.4453 44.2773 41.0781 43.6445C42.4922 42.2305 42.6016 39.9961 41.3125 38.5742L38.7734 35.7539C41.2109 32.543 42.5312 28.6523 42.5312 24.5508C42.5312 22.7305 42.2656 20.9414 41.7578 19.2383ZM5.5625 13.3867C5.5625 9.41797 8.78906 6.19141 12.75 6.19141C14.2188 6.19141 15.625 6.63672 16.8125 7.44922C14.6328 8.37109 12.625 9.71484 10.8984 11.4414C9.13281 13.207 7.77344 15.2617 6.85156 17.5039C6.01562 16.3008 5.5625 14.8789 5.5625 13.3867ZM11.4688 42.3711C11.0859 42.8008 10.5312 43.0508 9.95312 43.0664C9.42969 43.082 8.95312 42.8945 8.60938 42.5508C7.76562 41.707 7.6875 40.4492 8.42969 39.6289L10.5312 37.293C10.6562 37.4258 10.7734 37.5508 10.9062 37.6758C11.7578 38.5273 12.6797 39.2852 13.6562 39.9492L11.4688 42.3711ZM40.1484 39.6211C40.8906 40.4414 40.8125 41.6992 39.9688 42.543C39.625 42.8867 39.1406 43.0742 38.625 43.0586C38.0469 43.043 37.4922 42.793 37.1094 42.3633L34.7109 39.6992C35.5547 39.0977 36.3594 38.418 37.1094 37.668C37.3359 37.4414 37.5547 37.207 37.7734 36.9727L40.1484 39.6211ZM24 41.543C14.6406 41.543 7.03125 33.9258 7.03125 24.5586C7.03125 15.1914 14.6406 7.56641 24 7.56641C33.3594 7.56641 40.9688 15.1836 40.9688 24.5508C40.9688 33.9258 33.3594 41.543 24 41.543ZM37.1016 11.4414C35.375 9.71484 33.375 8.37109 31.1875 7.44922C32.375 6.63672 33.7812 6.19141 35.25 6.19141C39.2109 6.19141 42.4375 9.41797 42.4375 13.3867C42.4375 14.8789 41.9844 16.3008 41.1484 17.5039C40.2266 15.2617 38.8672 13.207 37.1016 11.4414Z" fill="#333333"/>
<path d="M24.0002 15.7461C23.5705 15.7461 23.2189 16.0977 23.2189 16.5273V24.3476L20.9767 28.2226C20.758 28.5976 20.8908 29.0742 21.2658 29.293C21.3908 29.3633 21.5236 29.3945 21.6564 29.3945C21.9299 29.3945 22.1877 29.2539 22.3361 29.0039L24.6799 24.9414C24.7502 24.8242 24.7814 24.6914 24.7814 24.5508V16.5273C24.7814 16.0898 24.4299 15.7461 24.0002 15.7461Z" fill="#333333"/>
<path d="M35.7656 16.3711C35.5156 16.0195 35.0312 15.9258 34.6797 16.1758C34.3281 16.4258 34.2344 16.9102 34.4844 17.2617C35.8281 19.1992 36.6094 21.4336 36.75 23.7773H36.0156C35.5859 23.7773 35.2344 24.1289 35.2344 24.5586C35.2344 24.9883 35.5859 25.3398 36.0156 25.3398H36.7422C36.3516 31.7617 31.1953 36.918 24.7734 37.3086V36.582C24.7734 36.1523 24.4219 35.8008 23.9922 35.8008C23.5625 35.8008 23.2109 36.1523 23.2109 36.582V37.3086C16.7891 36.918 11.6328 31.7617 11.2422 25.3398H11.9688C12.3984 25.3398 12.75 24.9883 12.75 24.5586C12.75 24.1289 12.3984 23.7773 11.9688 23.7773H11.2422C11.6328 17.3555 16.7891 12.1992 23.2109 11.8086V12.5352C23.2109 12.9648 23.5625 13.3164 23.9922 13.3164C24.4219 13.3164 24.7734 12.9648 24.7734 12.5352V11.8086C25.625 11.8633 26.4688 11.9961 27.2969 12.2227C27.7109 12.332 28.1406 12.0898 28.25 11.668C28.3594 11.2539 28.1172 10.8242 27.6953 10.7148C26.5 10.3867 25.25 10.2227 24 10.2227C16.0938 10.2227 9.66406 16.6523 9.66406 24.5586C9.66406 32.4648 16.0938 38.8945 24 38.8945C31.9062 38.8945 38.3359 32.4648 38.3359 24.5586C38.3359 21.6133 37.4453 18.7852 35.7656 16.3711Z" fill="#333333"/>
<path d="M34.1641 14.4492L34.1328 14.418C33.8281 14.1133 33.3359 14.1133 33.0312 14.418C32.7266 14.7227 32.7266 15.2148 33.0312 15.5195L33.0469 15.5352C33.2031 15.6914 33.3984 15.7695 33.6016 15.7695C33.7969 15.7695 34 15.6914 34.1484 15.543C34.4609 15.2539 34.4687 14.7539 34.1641 14.4492Z" fill="#333333"/>
</svg>
