<svg width="48" height="48" viewBox="0 0 48 48" fill="none" xmlns="http://www.w3.org/2000/svg">
<g clip-path="url(#clip0)">
<path d="M26.2617 28.9922L31.2617 34.0703L29.3086 36.4141L23.918 31.3359L26.2617 28.9922Z" fill="#F09700"/>
<path d="M42.1051 34.2184L36.1051 17.7966V8.18719C36.1051 7.7575 35.7535 7.40594 35.3238 7.40594H32.3082L31.2535 4.51531C31.1051 4.10906 30.6598 3.89813 30.2535 4.04656L21.066 7.40594H9.87852C9.44883 7.40594 9.09727 7.7575 9.09727 8.18719V11.7809L6.35508 12.7809C6.15977 12.8513 6.00352 12.9997 5.91758 13.1872C5.83164 13.3747 5.82383 13.5934 5.89414 13.7809L9.10508 22.57V39.8044C9.10508 40.2341 9.45664 40.5856 9.88633 40.5856H15.6832L16.7379 43.4763C16.8551 43.7966 17.152 43.9919 17.4723 43.9919C17.5582 43.9919 17.652 43.9763 17.7379 43.945L26.9254 40.5856H35.316C35.7457 40.5856 36.0973 40.2341 36.0973 39.8044V37.2341L41.6363 35.2106C41.8316 35.1403 41.9879 34.9919 42.0738 34.8044C42.1676 34.6247 42.1832 34.4138 42.1051 34.2184ZM9.09727 18.0231L7.6207 13.9841L9.09727 13.445V18.0231ZM30.0504 5.78094L30.6441 7.40594H25.6129L30.0504 5.78094ZM17.941 42.2184L17.3473 40.5934H22.3785L17.941 42.2184ZM34.5426 39.0309H10.6598V8.96844H34.5426V39.0309ZM36.1051 35.5778V22.3434L40.3707 34.0153L36.1051 35.5778Z" fill="#333333"/>
<path d="M21.3394 22.1721C21.0348 21.8674 20.5426 21.8674 20.2379 22.1721L18.4332 23.9768L17.316 23.5159C16.9176 23.3518 16.4644 23.5471 16.3004 23.9456C16.1363 24.344 16.3316 24.8049 16.7301 24.9612L18.3316 25.6174C18.4254 25.6565 18.5269 25.6721 18.6285 25.6721C18.8316 25.6721 19.0348 25.594 19.1832 25.4456L21.3551 23.2737C21.6441 22.9768 21.6441 22.4846 21.3394 22.1721Z" fill="#333333"/>
<path d="M32.0508 33.4922L26.6992 28.1406C26.3945 27.8359 25.9024 27.8359 25.5977 28.1406L24.9649 28.7734L23.8711 27.6797C24.707 26.6094 25.1992 25.2734 25.1992 23.8125C25.1992 20.3359 22.3711 17.5156 18.9023 17.5156C15.4258 17.5156 12.6055 20.3438 12.6055 23.8125C12.6055 27.2813 15.4336 30.1094 18.9023 30.1094C20.3555 30.1094 21.6992 29.6094 22.7695 28.7813L23.8633 29.875L23.2305 30.5078C22.9258 30.8125 22.9258 31.3047 23.2305 31.6094L28.5742 36.9688C28.7305 37.125 28.9258 37.1953 29.1289 37.1953C29.332 37.1953 29.5274 37.1172 29.6836 36.9688L32.0508 34.6016C32.3555 34.2891 32.3555 33.7969 32.0508 33.4922ZM18.8945 28.5547C16.2852 28.5547 14.1602 26.4297 14.1602 23.8203C14.1602 21.2109 16.2852 19.0859 18.8945 19.0859C21.5039 19.0859 23.6289 21.2109 23.6289 23.8203C23.6289 26.4297 21.5117 28.5547 18.8945 28.5547ZM29.1289 35.3125L24.8789 31.0625L26.1445 29.7969L30.3945 34.0469L29.1289 35.3125Z" fill="#333333"/>
<path d="M30.6914 12.1172C30.6836 12.0703 30.668 12.0156 30.6445 11.9688C30.6211 11.9219 30.5977 11.875 30.5742 11.8359C30.543 11.7891 30.5117 11.75 30.4805 11.7188C30.4492 11.6875 30.4023 11.6484 30.3633 11.6172C30.3242 11.5859 30.2773 11.5625 30.2305 11.5469C30.1836 11.5234 30.1367 11.5156 30.082 11.5C29.9805 11.4766 29.8789 11.4766 29.7773 11.5C29.7305 11.5078 29.6758 11.5234 29.6289 11.5469C29.582 11.5703 29.5352 11.5938 29.4961 11.6172C29.457 11.6484 29.4102 11.6797 29.3789 11.7188C29.3477 11.7578 29.3086 11.7969 29.2773 11.8359C29.2461 11.875 29.2227 11.9219 29.207 11.9688C29.1836 12.0156 29.168 12.0625 29.1602 12.1172C29.1523 12.1641 29.1445 12.2188 29.1445 12.2656C29.1445 12.3203 29.1523 12.3672 29.1602 12.4141C29.168 12.4609 29.1836 12.5156 29.207 12.5625C29.2305 12.6094 29.2461 12.6563 29.2773 12.6953C29.3086 12.7422 29.3398 12.7813 29.3789 12.8125C29.418 12.8438 29.457 12.8828 29.4961 12.9063C29.5352 12.9375 29.582 12.9609 29.6289 12.9766C29.6758 13 29.7227 13.0078 29.7773 13.0234C29.832 13.0391 29.8789 13.0391 29.9336 13.0391C29.9883 13.0391 30.0352 13.0313 30.0898 13.0234C30.1445 13.0156 30.1914 13 30.2383 12.9766C30.2852 12.9531 30.332 12.9297 30.3711 12.9063C30.4102 12.875 30.457 12.8438 30.4883 12.8125C30.5195 12.7813 30.5586 12.7344 30.582 12.6953C30.6133 12.6563 30.6367 12.6094 30.6523 12.5625C30.6758 12.5156 30.6836 12.4688 30.6992 12.4141C30.7148 12.3594 30.7148 12.3125 30.7148 12.2656C30.707 12.2188 30.6992 12.1641 30.6914 12.1172Z" fill="#333333"/>
<path d="M27.2227 11.4846H15.2852C14.8555 11.4846 14.5039 11.8362 14.5039 12.2659C14.5039 12.6956 14.8555 13.0471 15.2852 13.0471H27.2227C27.6523 13.0471 28.0039 12.6956 28.0039 12.2659C28.0039 11.8362 27.6523 11.4846 27.2227 11.4846Z" fill="#333333"/>
<path d="M16.0508 14.9766C16.043 14.9297 16.0273 14.875 16.0039 14.8281C15.9805 14.7812 15.957 14.7344 15.9336 14.6953C15.9023 14.6484 15.8711 14.6094 15.8398 14.5781C15.8008 14.5391 15.7617 14.5078 15.7227 14.4844C15.6836 14.4531 15.6367 14.4297 15.5898 14.4141C15.543 14.3906 15.4961 14.3828 15.4414 14.3672C15.3398 14.3438 15.2383 14.3438 15.1367 14.3672C15.0898 14.375 15.0352 14.3906 14.9883 14.4141C14.9414 14.4375 14.8945 14.4609 14.8555 14.4844C14.8086 14.5156 14.7695 14.5469 14.7383 14.5781C14.707 14.6094 14.668 14.6562 14.6367 14.6953C14.6055 14.7344 14.582 14.7812 14.5664 14.8281C14.543 14.875 14.5352 14.9219 14.5195 14.9766C14.5039 15.0312 14.5039 15.0781 14.5039 15.125C14.5039 15.1719 14.5117 15.2266 14.5195 15.2734C14.5273 15.3203 14.543 15.375 14.5664 15.4219C14.5898 15.4687 14.6133 15.5156 14.6367 15.5547C14.668 15.6016 14.6992 15.6406 14.7383 15.6719C14.7773 15.7031 14.8164 15.7422 14.8555 15.7656C14.8945 15.7969 14.9414 15.8203 14.9883 15.8359C15.0352 15.8594 15.082 15.8672 15.1367 15.8828C15.1836 15.8906 15.2383 15.8984 15.293 15.8984C15.3398 15.8984 15.3945 15.8906 15.4414 15.8828C15.4883 15.875 15.543 15.8594 15.5898 15.8359C15.6367 15.8125 15.6836 15.7891 15.7227 15.7656C15.7695 15.7344 15.8086 15.7031 15.8398 15.6719C15.8789 15.6328 15.9101 15.5937 15.9336 15.5547C15.9648 15.5156 15.9883 15.4687 16.0039 15.4219C16.0273 15.375 16.0351 15.3281 16.0508 15.2734C16.0664 15.2187 16.0664 15.1719 16.0664 15.125C16.0664 15.0781 16.0586 15.0234 16.0508 14.9766Z" fill="#333333"/>
<path d="M29.9258 14.3438H17.9883C17.5586 14.3438 17.207 14.6953 17.207 15.125C17.207 15.5547 17.5586 15.9062 17.9883 15.9062H29.9258C30.3555 15.9062 30.707 15.5547 30.707 15.125C30.707 14.6953 30.3555 14.3438 29.9258 14.3438Z" fill="#333333"/>
</g>
<defs>
<clipPath id="clip0">
<rect width="36.3203" height="40" fill="white" transform="translate(5.83984 4)"/>
</clipPath>
</defs>
</svg>
