<svg width="48" height="49" viewBox="0 0 48 49" fill="none" xmlns="http://www.w3.org/2000/svg">
<g clip-path="url(#clip0)">
<path d="M2.89355 36.842V43.3952L8.51058 39.4803L2.89355 36.842Z" fill="#F09700"/>
<path d="M44.936 20.6294C45.4061 20.6294 45.7871 20.2483 45.7871 19.7783C45.7871 19.3083 45.4061 18.9272 44.936 18.9272C44.466 18.9272 44.085 19.3083 44.085 19.7783C44.085 20.2483 44.466 20.6294 44.936 20.6294Z" fill="#333333"/>
<path d="M44.7916 5.66762C44.1448 5.02932 43.2937 4.67188 42.3831 4.67188H19.4044C18.4937 4.67188 17.6427 5.02932 16.9959 5.66762C16.3576 6.31443 16.0001 7.16549 16.0001 8.07613V21.6932H5.61715C3.73629 21.6932 2.21289 23.2166 2.21289 25.0974V43.8208C2.21289 44.1527 2.40012 44.4506 2.70651 44.5953C2.82566 44.6463 2.94481 44.6719 3.06395 44.6719C3.2597 44.6719 3.45544 44.6038 3.60864 44.4761L8.47672 40.4166H28.5959C30.4767 40.4166 32.0001 38.8932 32.0001 37.0123V26.6293H39.5235L44.3916 30.6889C44.5448 30.8166 44.7405 30.8846 44.9363 30.8846C45.064 30.8846 45.1831 30.8591 45.3022 30.808C45.6001 30.6719 45.7959 30.3655 45.7959 30.0336V23.608C45.7959 23.14 45.4129 22.757 44.9448 22.757C44.4767 22.757 44.0937 23.14 44.0937 23.608V28.2208L40.3831 25.1314C40.2299 25.0038 40.0427 24.9357 39.8384 24.9357H32.0001C31.915 23.14 30.4171 21.7017 28.6044 21.7017H17.7023V8.07613C17.7023 7.13996 18.4682 6.374 19.4044 6.374H42.3831C43.3193 6.374 44.0852 7.13996 44.0852 8.07613V15.9485C44.0852 16.4166 44.4682 16.7995 44.9363 16.7995C45.4044 16.7995 45.7874 16.4166 45.7874 15.9485V8.07613C45.7874 7.16549 45.4299 6.31443 44.7916 5.66762ZM28.5959 23.3953C29.532 23.3953 30.298 24.1612 30.298 25.0974V37.0123C30.298 37.9485 29.532 38.7144 28.5959 38.7144H8.17034C7.97459 38.7144 7.77885 38.7825 7.62566 38.9102L3.91502 41.9995V25.0974C3.91502 24.1612 4.68098 23.3953 5.61715 23.3953H28.5959Z" fill="#333333"/>
<path d="M21.1069 19.1399H30.0431C30.5112 19.1399 30.8942 18.7569 30.8942 18.2888C30.8942 17.8207 30.5112 17.4377 30.0431 17.4377H21.1069C20.6388 17.4377 20.2559 17.8207 20.2559 18.2888C20.2559 18.7569 20.6388 19.1399 21.1069 19.1399Z" fill="#333333"/>
<path d="M39.9743 11.855L36.6637 16.7827L34.9956 14.3912C34.7233 14.0082 34.1956 13.9146 33.8126 14.1784C33.4296 14.4507 33.336 14.9784 33.5999 15.3614L35.9828 18.7656C36.1445 18.9954 36.3999 19.1316 36.6807 19.1316H36.6892C36.9701 19.1316 37.2339 18.9869 37.3871 18.7571L41.3871 12.7997C41.6509 12.4082 41.5488 11.8805 41.1573 11.6167C40.7658 11.3529 40.2382 11.4635 39.9743 11.855Z" fill="#F09700"/>
<path d="M21.1069 14.8847H26.2133C26.6814 14.8847 27.0644 14.5018 27.0644 14.0337C27.0644 13.5656 26.6814 13.1826 26.2133 13.1826H21.1069C20.6388 13.1826 20.2559 13.5656 20.2559 14.0337C20.2559 14.5018 20.6388 14.8847 21.1069 14.8847Z" fill="#333333"/>
<path d="M30.0425 14.8847C30.5125 14.8847 30.8935 14.5037 30.8935 14.0337C30.8935 13.5637 30.5125 13.1826 30.0425 13.1826C29.5724 13.1826 29.1914 13.5637 29.1914 14.0337C29.1914 14.5037 29.5724 14.8847 30.0425 14.8847Z" fill="#333333"/>
<path d="M8.1704 31.906H13.2768C13.7449 31.906 14.1278 31.523 14.1278 31.0549C14.1278 30.5868 13.7449 30.2039 13.2768 30.2039H8.1704C7.70231 30.2039 7.31934 30.5868 7.31934 31.0549C7.31934 31.523 7.70231 31.906 8.1704 31.906Z" fill="#333333"/>
<path d="M26.0424 30.2039H20.936C20.4679 30.2039 20.085 30.5868 20.085 31.0549C20.085 31.523 20.4679 31.906 20.936 31.906H26.0424C26.5105 31.906 26.8935 31.523 26.8935 31.0549C26.8935 30.5868 26.5105 30.2039 26.0424 30.2039Z" fill="#333333"/>
<path d="M17.1069 31.906C17.577 31.906 17.958 31.525 17.958 31.0549C17.958 30.5849 17.577 30.2039 17.1069 30.2039C16.6369 30.2039 16.2559 30.5849 16.2559 31.0549C16.2559 31.525 16.6369 31.906 17.1069 31.906Z" fill="#333333"/>
<path d="M12.4253 27.6506H26.0423C26.5104 27.6506 26.8934 27.2676 26.8934 26.7996C26.8934 26.3315 26.5104 25.9485 26.0423 25.9485H12.4253C11.9572 25.9485 11.5742 26.3315 11.5742 26.7996C11.5742 27.2676 11.9572 27.6506 12.4253 27.6506Z" fill="#333333"/>
</g>
<defs>
<clipPath id="clip0">
<rect width="43.5745" height="40" fill="white" transform="translate(2.21289 4.67188)"/>
</clipPath>
</defs>
</svg>
