<svg width="48" height="48" viewBox="0 0 48 48" fill="none" xmlns="http://www.w3.org/2000/svg">
<g clip-path="url(#clip0)">
<path d="M33.2969 16.9219V43.0156H39.8594V16.7656L36.7344 16.2188L33.2969 16.9219Z" fill="#F09700"/>
<path d="M42.1562 42.4375H40.4453V17.5547C40.4453 16.3984 39.5 15.4531 38.3438 15.4531H34.5156C33.3594 15.4531 32.4141 16.3984 32.4141 17.5547V42.4375H28.0625V28.8281C28.0625 27.6719 27.1172 26.7266 25.9609 26.7266H22.1328C20.9766 26.7266 20.0312 27.6719 20.0312 28.8281V42.4375H15.6797V35.3906C15.6797 34.2344 14.7344 33.289 13.5781 33.289H9.75C8.59375 33.289 7.64844 34.2344 7.64844 35.3906V42.4375H5.84375C5.41406 42.4375 5.0625 42.789 5.0625 43.2187C5.0625 43.6484 5.41406 44 5.84375 44H42.1562C42.5859 44 42.9375 43.6484 42.9375 43.2187C42.9375 42.789 42.5859 42.4375 42.1562 42.4375ZM14.1172 42.4375H9.21094V35.3906C9.21094 35.0937 9.45312 34.8515 9.75 34.8515H13.5781C13.875 34.8515 14.1172 35.0937 14.1172 35.3906V42.4375ZM26.5 42.4375H21.5938V28.8281C21.5938 28.5312 21.8359 28.289 22.1328 28.289H25.9609C26.2578 28.289 26.5 28.5312 26.5 28.8281V42.4375ZM38.8828 42.4375H33.9766V17.5547C33.9766 17.2578 34.2188 17.0156 34.5156 17.0156H38.3438C38.6406 17.0156 38.8828 17.2578 38.8828 17.5547V42.4375Z" fill="#333333"/>
<path d="M40.4375 4.82016C40.4453 4.60923 40.375 4.39048 40.2109 4.22641C40.0469 4.06235 39.8281 3.99204 39.6172 3.99985C39.6016 3.99985 39.5938 3.99985 39.5781 3.99985H34.8516C34.4219 3.99985 34.0703 4.35141 34.0703 4.7811C34.0703 5.21079 34.4219 5.56235 34.8516 5.56235H37.7734L30.0469 13.2889L27.1328 10.3749C26.9844 10.2264 26.7891 10.1483 26.5781 10.1483C26.3672 10.1483 26.1719 10.2342 26.0234 10.3749L11.9922 24.4139C11.6875 24.7186 11.6875 25.2108 11.9922 25.5155C12.1484 25.6717 12.3438 25.742 12.5469 25.742C12.75 25.742 12.9453 25.6639 13.1016 25.5155L26.5938 12.0233L29.5078 14.9374C29.8125 15.242 30.3047 15.242 30.6094 14.9374L38.8828 6.66391V9.31235C38.8828 9.74204 39.2344 10.0936 39.6641 10.0936C40.0938 10.0936 40.4453 9.74204 40.4453 9.31235V4.85923C40.4453 4.8436 40.4375 4.83579 40.4375 4.82016Z" fill="#333333"/>
<path d="M9.90625 28.4768C10.3377 28.4768 10.6875 28.127 10.6875 27.6956C10.6875 27.2641 10.3377 26.9143 9.90625 26.9143C9.47478 26.9143 9.125 27.2641 9.125 27.6956C9.125 28.127 9.47478 28.4768 9.90625 28.4768Z" fill="#333333"/>
</g>
<defs>
<clipPath id="clip0">
<rect width="37.875" height="40" fill="white" transform="translate(5.0625 4)"/>
</clipPath>
</defs>
</svg>
