<svg width="48" height="48" viewBox="0 0 48 48" fill="none" xmlns="http://www.w3.org/2000/svg">
<g clip-path="url(#clip0)">
<path d="M22.4353 13.1016H6.62402V24.1172H22.4353V13.1016Z" fill="#F09700"/>
<path d="M19.2258 23.3359H17.0342V25.2891H19.2258V23.3359Z" fill="#F09700"/>
<path d="M18.7957 17.4219H9.92727C9.49676 17.4219 9.14453 17.0703 9.14453 16.6406C9.14453 16.2109 9.49676 15.8594 9.92727 15.8594H18.8035C19.234 15.8594 19.5862 16.2109 19.5862 16.6406C19.5784 17.0781 19.234 17.4219 18.7957 17.4219Z" fill="#333333"/>
<path d="M18.7957 20.7422H9.92727C9.49676 20.7422 9.14453 20.3906 9.14453 19.9609C9.14453 19.5312 9.49676 19.1797 9.92727 19.1797H18.8035C19.234 19.1797 19.5862 19.5312 19.5862 19.9609C19.5784 20.3984 19.234 20.7422 18.7957 20.7422Z" fill="#333333"/>
<path d="M37.8318 25.9375H28.9556C28.5251 25.9375 28.1729 25.5859 28.1729 25.1562C28.1729 24.7266 28.5251 24.375 28.9556 24.375H37.8318C38.2623 24.375 38.6146 24.7266 38.6146 25.1562C38.6146 25.5859 38.2623 25.9375 37.8318 25.9375Z" fill="#333333"/>
<path d="M37.8318 29.2578H28.9556C28.5251 29.2578 28.1729 28.9062 28.1729 28.4766C28.1729 28.0469 28.5251 27.6953 28.9556 27.6953H37.8318C38.2623 27.6953 38.6146 28.0469 38.6146 28.4766C38.6146 28.9062 38.2623 29.2578 37.8318 29.2578Z" fill="#333333"/>
<path d="M23.2646 38.6095C22.9358 38.6095 22.6384 38.3986 22.5288 38.0939C22.4192 37.7892 22.5131 37.4455 22.7558 37.2345C23.0141 37.0158 23.3898 36.9923 23.6716 37.1642C23.9455 37.3361 24.0864 37.6642 24.0238 37.9767C23.9534 38.3439 23.6324 38.6095 23.2646 38.6095Z" fill="#333333"/>
<path d="M40.3283 20.2031H35.8432V8.13281C35.8432 5.85156 33.9881 4 31.7025 4H15.5703C13.2848 4 11.4297 5.85156 11.4297 8.13281V11.9297H7.6647C6.62366 11.9297 5.78613 12.7734 5.78613 13.8125V23.3359C5.78613 24.375 6.63149 25.2188 7.6647 25.2188H11.4218V39.8672C11.4218 42.1484 13.2769 44 15.5625 44H31.7025C33.9881 44 35.8432 42.1484 35.8432 39.8672V33.4844H40.3283C41.3693 33.4844 42.2069 32.6406 42.2069 31.6016V22.0781C42.2147 21.0469 41.3693 20.2031 40.3283 20.2031ZM12.9951 8.13281C12.9951 6.71875 14.1458 5.5625 15.5703 5.5625H31.7104C33.1271 5.5625 34.2856 6.71875 34.2856 8.13281V8.60938H12.9951V8.13281ZM7.35161 23.3359V13.8125C7.35161 13.6406 7.4925 13.4922 7.6647 13.4922H21.3782C21.5505 13.4922 21.6913 13.6328 21.6913 13.8125V23.3359C21.6913 23.5078 21.5505 23.6562 21.3782 23.6562H19.4997C19.1161 23.6562 18.7874 23.9297 18.7248 24.3047L18.5682 25.2188L16.6505 23.8047C16.5175 23.7031 16.3531 23.6484 16.1887 23.6484H7.6647C7.4925 23.6562 7.35161 23.5156 7.35161 23.3359ZM34.2856 37.0469H26.787C26.3565 37.0469 26.0042 37.3984 26.0042 37.8281C26.0042 38.2578 26.3565 38.6094 26.787 38.6094H34.2856V39.8672C34.2856 41.2812 33.1271 42.4375 31.7104 42.4375H15.5703C14.1536 42.4375 12.9951 41.2812 12.9951 39.8672V38.6094H19.711C20.1415 38.6094 20.4938 38.2578 20.4938 37.8281C20.4938 37.3984 20.1415 37.0469 19.711 37.0469H12.9951V25.2188H15.9382L18.6778 27.2344C18.8109 27.3359 18.9752 27.3906 19.1396 27.3906C19.2414 27.3906 19.3353 27.375 19.4292 27.3359C19.6797 27.2344 19.8597 27.0078 19.9067 26.7422L20.165 25.2266H21.3861C22.4271 25.2266 23.2646 24.3828 23.2646 23.3438V13.8125C23.2646 12.7734 22.4193 11.9297 21.3861 11.9297H12.9951V10.1719H34.2856V20.2031H26.6148C25.5737 20.2031 24.7362 21.0469 24.7362 22.0859V31.6094C24.7362 32.6484 25.5815 33.4922 26.6148 33.4922H27.8358L28.0941 35.0078C28.1411 35.2734 28.3211 35.5 28.5716 35.6016C28.6655 35.6406 28.7673 35.6562 28.8612 35.6562C29.0256 35.6562 29.19 35.6016 29.323 35.5L32.0626 33.4844H34.2856V37.0469ZM40.6492 31.6094C40.6492 31.7812 40.5083 31.9297 40.3361 31.9297H31.8043C31.6399 31.9297 31.4756 31.9844 31.3425 32.0859L29.4248 33.5L29.2682 32.5859C29.2056 32.2109 28.8769 31.9375 28.4933 31.9375H26.6148C26.4426 31.9375 26.3017 31.7969 26.3017 31.6172V22.0781C26.3017 21.9062 26.4426 21.7578 26.6148 21.7578H40.3283C40.5005 21.7578 40.6414 21.8984 40.6414 22.0781V31.6094H40.6492Z" fill="#333333"/>
</g>
<defs>
<clipPath id="clip0">
<rect width="36.4286" height="40" fill="white" transform="translate(5.78613 4)"/>
</clipPath>
</defs>
</svg>
