<svg width="500" height="529" viewBox="0 0 500 529" fill="none" xmlns="http://www.w3.org/2000/svg">
<rect width="499.152" height="528" fill="#FDF1E1"/>
<g clip-path="url(#clip0)">
<path d="M221.485 142.875L240.287 139.976C259.088 81.5171 237.532 37 237.532 37C195.728 38.4494 155.784 69.5769 155.784 69.5769L146.143 52.1151C105.717 61.2946 53.3763 119.063 53.3763 119.063L50.0705 151.778C50.0705 151.778 34.575 140.528 31.8203 142.944C29.0655 145.36 2 223.282 2 223.282V349.034C27.4127 305.966 50.6215 269.11 71.4199 237.776C71.4888 237.569 71.6265 237.293 71.8331 237.086C71.8331 237.017 71.902 236.948 72.0397 236.879C84.4362 218.174 96.0061 201.403 106.612 186.495C107.232 180.904 112.328 139.355 122.865 117.959C133.127 97.0464 123.072 79.7227 122.934 79.5846C122.245 78.4113 122.59 76.9619 123.76 76.2717C124.931 75.5815 126.377 75.9266 127.066 77.0999C127.548 77.9282 138.567 96.8393 127.135 120.099C119.49 135.766 114.67 163.65 112.535 178.213C124.105 162.2 134.504 148.465 143.732 136.732C194.144 72.7518 220.59 53.4265 221.692 52.6673C222.794 51.9081 224.309 52.1151 225.067 53.2194C225.824 54.3237 225.618 55.8421 224.516 56.6013C224.24 56.8084 197.312 76.5478 147.314 140.114C130.441 161.51 109.642 189.67 85.1937 225.905C98.8987 216.518 123.829 203.957 162.947 199.677C224.378 193.052 232.78 190.291 233.055 190.153C234.295 189.67 235.672 190.291 236.155 191.533C236.637 192.776 236.017 194.156 234.777 194.708C234.02 194.984 225.755 197.814 163.429 204.509C105.028 210.789 78.9266 236.602 75.7587 239.915C72.935 244.195 70.0425 248.543 67.0812 253.029C70.2492 250.751 73.9681 248.198 78.3068 245.575C92.7004 237.017 116.805 226.043 149.999 222.661C211.637 216.38 221.899 213.343 222.312 213.205C223.551 212.791 224.929 213.481 225.342 214.793C225.755 216.035 225.067 217.415 223.827 217.829C223.414 217.967 213.428 221.073 150.55 227.492C88.8438 233.773 58.4726 266.695 58.1971 267.04C58.1282 267.109 57.9905 267.247 57.9216 267.316C40.7044 294.164 22.0409 324.463 2 358.559V528.069C158.539 442.624 206.128 324.394 206.128 324.394L189.324 298.512L215.012 301.135C254.474 209.478 244.832 159.992 244.832 159.992L221.485 142.875Z" fill="#FDDDB3"/>
</g>
<path d="M353.37 471.965L356.145 502.687L327.206 502.489L316.503 471.965H353.37Z" fill="white"/>
<path d="M357.83 504.172L326.116 503.974L314.422 470.477H354.658L357.83 504.172ZM328.197 501.001L354.46 501.199L351.883 473.45H318.485L328.197 501.001Z" fill="#0A3F64"/>
<path d="M357.73 501.405C357.73 501.405 399.552 514.983 400.94 525.884L325.818 525.488L325.917 501.207L357.73 501.405Z" fill="#00A7B3"/>
<path d="M323.539 520.931L323.439 527.571L403.318 528.067V520.832L323.539 520.931Z" fill="#0A3F64"/>
<path d="M343.459 520.236C342.666 520.236 341.973 519.543 341.973 518.75L342.072 504.181C342.072 503.389 342.765 502.695 343.558 502.695C344.351 502.695 345.045 503.389 345.045 504.181L344.946 518.75C344.946 519.543 344.252 520.236 343.459 520.236Z" fill="#0A3F64"/>
<path d="M103.428 425.492C103.428 425.492 270.122 355.326 288.753 371.282C300.943 381.688 354.46 453.935 363.478 478.018L312.538 487.334C312.538 487.334 270.915 427.97 262.292 423.51C256.346 420.438 181.72 436.196 181.72 436.196L103.428 425.492Z" fill="#0A3F64"/>
<path d="M402.526 461.473L446.627 488.033L425.617 506.269L392.615 491.007L402.526 461.473Z" fill="white"/>
<path d="M425.914 507.947L390.831 491.694L401.733 459.188L449.204 487.73L425.914 507.947ZM394.399 490.208L425.319 504.479L444.05 488.226L403.318 463.747L394.399 490.208Z" fill="#0A3F64"/>
<path d="M447.023 486.046C447.023 486.046 487.359 468.604 495.684 475.937L438.996 525.192L423.04 506.858L447.023 486.046Z" fill="#00A7B3"/>
<path d="M141.384 423.214C141.384 423.214 261.896 382.184 281.32 384.365C317.692 388.428 421.355 463.747 421.355 463.747L399.75 504.678L272.5 442.737C272.5 442.737 176.071 499.722 140.691 514.489C16.6117 566.222 12.8457 436.097 12.8457 436.097L88.859 408.15L141.384 423.214Z" fill="#00A7B3"/>
<path d="M494.99 470.98L499.152 475.737L438.798 528.065L434.14 522.614L494.99 470.98Z" fill="#0A3F64"/>
<path d="M443.554 519.844C443.158 519.844 442.761 519.646 442.464 519.349L432.95 508.348C432.454 507.754 432.454 506.763 433.049 506.267C433.644 505.772 434.635 505.772 435.13 506.366L444.644 517.367C445.14 517.961 445.14 518.952 444.545 519.448C444.248 519.745 443.851 519.844 443.554 519.844Z" fill="#0A3F64"/>
<path d="M138.312 206.868C138.312 206.868 127.807 238.383 129.392 242.843C130.978 247.302 145.15 265.934 145.15 265.934L93.5165 326.685L40 305.873L52.289 248.492C52.289 248.492 83.2096 235.112 85.8855 231.347C89.6514 226.094 98.3726 195.074 98.3726 195.074L138.312 206.868Z" fill="white"/>
<path d="M94.0122 328.468L38.3154 306.764L51.0999 247.401L51.7937 247.103C66.5603 240.661 83.2098 232.634 84.7955 230.454C87.7686 226.39 94.6069 203.2 97.0845 194.578C97.2827 193.785 98.1746 193.289 98.9675 193.587C99.7603 193.785 100.256 194.677 99.9585 195.47C99.5621 196.758 91.0391 226.886 87.2731 232.238C84.5973 236.004 60.3167 246.707 53.7758 249.581L41.8832 304.98L93.2194 324.999L142.375 266.131C139.303 261.969 129.69 247.5 128.203 243.436C126.519 238.778 135.339 211.822 137.123 206.47C137.42 205.677 138.213 205.281 139.006 205.578C139.799 205.876 140.195 206.669 139.898 207.461C134.843 222.723 130.086 239.968 130.978 242.445C132.267 245.914 141.582 260.185 145.448 265.338L146.141 266.33L94.0122 328.468Z" fill="#0A3F64"/>
<path d="M146.835 134.821C139.502 131.848 121.762 124.217 115.023 136.605C107.392 150.777 99.9589 170.301 96.1929 180.608C94.7064 184.671 96.4903 189.23 100.256 191.311L143.069 214.502C147.034 216.583 151.89 215.493 154.466 211.826C163.089 199.537 180.035 172.481 180.729 167.427C183.108 150.381 158.53 139.578 146.835 134.821Z" fill="#0A3F64"/>
<path d="M113.834 217.569C124.042 224.903 139.007 230.056 145.052 227.876C148.62 226.588 154.764 217.371 161.107 206.37C161.305 206.073 181.721 166.134 181.721 166.134L132.565 139.574C132.565 139.574 126.222 151.565 119.384 165.242C119.087 165.836 118.294 165.936 117.996 165.341C116.312 162.269 113.438 158.998 110.663 163.953C107.194 170.098 110.068 176.738 111.951 179.513C112.149 179.81 112.149 180.207 112.05 180.504C107.491 190.315 103.924 198.937 103.527 202.505C103.329 204.388 103.824 206.37 104.915 208.352L113.834 217.569Z" fill="white"/>
<path d="M141.583 229.865C133.556 229.865 121.068 224.612 112.942 218.765C112.248 218.269 112.149 217.377 112.644 216.684C113.14 215.99 114.032 215.891 114.726 216.386C124.636 223.522 139.204 228.477 144.655 226.495C146.241 225.9 150.205 222.531 159.917 205.584C160.215 204.989 172.702 180.61 179.837 166.636L133.258 141.463C131.375 144.932 126.222 154.941 120.771 165.843C120.375 166.636 119.582 167.131 118.69 167.131C117.897 167.131 117.104 166.735 116.708 165.942C115.419 163.564 114.329 162.771 113.735 162.771C113.239 162.771 112.545 163.464 111.951 164.555C108.284 170.996 112.644 177.835 113.239 178.528C113.735 179.222 113.834 180.213 113.437 181.006C106.896 195.079 105.212 200.43 105.013 202.512C104.815 204.097 105.212 205.683 106.203 207.467C106.599 208.161 106.302 209.053 105.608 209.449C104.914 209.845 104.022 209.548 103.626 208.854C102.338 206.575 101.842 204.296 102.04 202.115C102.437 198.845 105.212 191.511 110.662 179.916C107.987 175.753 106.104 168.915 109.473 162.969C110.761 160.789 112.149 159.698 113.834 159.698C115.518 159.698 117.203 160.888 118.69 163.266C125.231 150.184 131.276 138.688 131.375 138.589L132.069 137.301L183.802 165.248L183.108 166.537C178.351 175.952 162.593 206.575 162.395 206.872C151.989 225.107 147.827 228.279 145.547 229.072C144.457 229.666 143.07 229.865 141.583 229.865Z" fill="#0A3F64"/>
<path d="M158.728 192.792C158.529 192.792 158.232 192.693 158.034 192.593C157.34 192.197 157.043 191.305 157.439 190.611L158.133 189.323C158.529 188.629 159.421 188.332 160.115 188.728C160.809 189.125 161.106 190.017 160.71 190.71L160.016 191.999C159.818 192.494 159.322 192.792 158.728 192.792Z" fill="#0A3F64"/>
<path d="M136.628 181.003C136.43 181.003 136.133 180.903 135.934 180.804C135.241 180.408 134.943 179.516 135.34 178.822L136.033 177.534C136.43 176.84 137.322 176.543 138.015 176.939C138.709 177.336 139.007 178.228 138.61 178.921L137.916 180.21C137.619 180.705 137.124 181.003 136.628 181.003Z" fill="#0E2549"/>
<path d="M145.348 173.572C144.952 173.572 144.655 173.473 144.357 173.176C144.258 173.076 140.789 169.806 135.735 170.004C134.942 170.004 134.249 169.41 134.149 168.617C134.149 167.824 134.744 167.13 135.537 167.031C141.78 166.833 146.141 170.797 146.339 170.995C146.934 171.59 146.934 172.482 146.339 173.076C146.141 173.374 145.745 173.572 145.348 173.572Z" fill="#0A3F64"/>
<path d="M168.341 187.843C167.845 187.843 167.35 187.546 167.053 187.15C164.476 182.888 159.818 181.699 159.719 181.699C158.926 181.501 158.43 180.708 158.629 179.915C158.827 179.122 159.62 178.627 160.413 178.825C160.611 178.924 166.359 180.212 169.629 185.663C170.026 186.357 169.828 187.249 169.134 187.744C168.936 187.744 168.638 187.843 168.341 187.843Z" fill="#0A3F64"/>
<path d="M145.647 199.632C144.061 199.632 142.575 199.235 141.881 199.037C141.088 198.839 140.593 197.947 140.89 197.154C141.088 196.361 141.98 195.866 142.773 196.163C144.656 196.658 146.539 196.757 146.935 196.46C147.629 195.568 147.728 195.568 148.521 189.126C148.719 187.739 148.917 185.955 149.215 183.874C149.314 183.081 150.107 182.486 150.899 182.586C151.692 182.685 152.287 183.477 152.188 184.27C151.891 186.351 151.692 188.135 151.494 189.523C150.701 196.163 150.602 196.757 149.314 198.343C148.323 199.334 146.935 199.632 145.647 199.632Z" fill="#0A3F64"/>
<path d="M107.292 176.741C107.292 176.741 108.085 179.219 109.671 184.373C111.554 190.319 148.718 207.662 151.889 207.761C159.025 207.959 160.214 202.31 162.097 203.797C164.377 205.68 147.727 229.762 143.069 231.844C138.411 234.024 111.554 221.041 99.0667 210.635C88.6607 202.013 107.292 176.741 107.292 176.741Z" fill="#0A3F64"/>
<path d="M149.214 209.542C149.412 211.127 143.664 214.002 139.204 211.92C131.871 208.65 131.97 202.01 133.655 203.1C134.249 203.496 136.231 206.271 140.691 208.154C145.448 210.236 149.115 208.452 149.214 209.542Z" fill="white"/>
<path d="M125.726 139.38C125.726 139.38 159.917 172.976 185.982 168.715C212.046 164.354 183.207 148.002 164.674 140.371C146.241 132.641 119.681 122.929 125.726 139.38Z" fill="#0A3F64"/>
<path d="M138.808 133.928C138.808 133.928 117.699 114.701 107.491 151.172C101.644 171.984 105.707 143.243 134.051 140.964C136.925 140.667 138.808 133.928 138.808 133.928Z" fill="#0A3F64"/>
<path d="M232.462 331.436C232.462 331.436 239.696 333.517 244.156 331.436C248.616 329.355 247.625 316.273 251.886 318.651C253.868 319.841 253.571 330.742 253.571 330.742L272.698 330.643C272.698 330.643 273.095 347.293 261.797 352.05C252.382 356.014 231.074 348.284 230.975 348.085C230.777 347.689 232.462 331.436 232.462 331.436Z" fill="white"/>
<path d="M254.76 354.738C244.156 354.738 230.678 349.684 230.578 349.585C230.38 349.486 229.786 349.287 229.587 348.693C229.389 348.296 229.29 347.9 231.074 331.349L231.272 329.566L232.957 330.061C233.056 330.061 239.696 331.944 243.561 330.16C245.048 329.466 245.841 326.196 246.534 323.52C247.327 320.547 248.021 317.871 249.805 317.078C250.399 316.781 251.39 316.682 252.58 317.376C254.661 318.565 255.057 324.214 255.057 329.268L274.184 329.169V330.656C274.184 331.349 274.383 348.395 262.391 353.45C260.112 354.342 257.535 354.738 254.76 354.738ZM232.362 347.107C236.426 348.594 253.472 353.846 261.103 350.675C269.427 347.107 270.815 336.106 271.013 332.142L251.886 332.241L251.985 330.656C252.183 325.8 251.688 320.844 250.994 319.853H250.895C250.399 320.349 249.706 322.727 249.408 324.214C248.516 327.583 247.525 331.449 244.85 332.737C241.282 334.422 236.426 333.728 233.849 333.232C233.254 338.287 232.561 344.729 232.362 347.107Z" fill="#0A3F64"/>
<path d="M261.598 304.586L251.787 347.399L271.707 353.246L283.203 308.847L261.598 304.586Z" fill="#0A3F64"/>
<path d="M263.779 309.536L254.761 346.006L268.239 348.187L277.357 312.311L263.779 309.536Z" fill="white"/>
<path d="M269.329 349.877L252.977 347.201L262.689 307.758L279.239 311.127L269.329 349.877ZM256.643 344.823L267.049 346.508L275.473 313.407L264.77 311.226L256.643 344.823Z" fill="#0A3F64"/>
<path d="M227.902 363.654C227.902 363.654 255.156 360.681 261.102 362.168C267.049 363.654 280.23 358.402 282.509 345.518C284.788 332.635 278.248 331.644 278.248 331.644C278.248 331.644 275.968 338.977 275.274 340.266C274.184 342.347 266.553 346.113 266.553 346.113C266.553 346.113 267.049 333.923 263.58 332.238C260.111 330.553 257.138 347.005 257.138 347.005L227.902 341.653V363.654Z" fill="white"/>
<path d="M226.416 365.337V339.867L255.949 345.318C256.841 341.056 258.823 332.434 261.895 330.947C262.688 330.551 263.481 330.551 264.274 330.947C267.544 332.533 268.04 339.371 268.139 343.633C270.914 342.047 273.59 340.362 273.986 339.569C274.482 338.678 275.968 334.02 276.86 331.146L277.257 329.956L278.545 330.155C278.743 330.155 280.824 330.551 282.509 332.83C284.491 335.605 285.086 339.966 284.095 345.714C283.104 351.66 279.635 356.913 274.383 360.282C269.923 363.156 264.571 364.445 260.904 363.553C256.247 362.364 235.732 364.247 228.2 365.039L226.416 365.337ZM229.389 343.335V361.967C235.435 361.372 256.147 359.39 261.499 360.679C263.778 361.273 268.337 360.58 272.599 357.805C277.158 354.832 280.131 350.372 281.023 345.218C282.113 339.074 281.023 336.002 280.032 334.614C279.734 334.218 279.437 333.92 279.14 333.722C278.347 336.101 277.058 339.966 276.563 340.957C275.374 343.236 269.13 346.507 267.247 347.399L264.968 348.489L265.067 346.011C265.265 340.759 264.571 334.713 263.085 333.623C261.796 334.515 259.814 340.759 258.625 347.201L258.328 348.687L229.389 343.335Z" fill="#0A3F64"/>
<path d="M84.895 227.877C92.3278 229.363 107.094 260.879 121.861 263.356C126.321 264.05 133.555 257.113 137.024 253.446C152.385 237.094 143.367 318.657 153.574 326.585H236.624L238.408 355.821L147.034 349.181C131.177 359.983 150.7 408.346 140.691 422.023C139.403 423.807 12.5486 444.321 11.954 442.24C-25.1112 318.558 50.803 221.138 84.895 227.877Z" fill="#F09700"/>
<path d="M64.8761 257.608C85.9853 249.779 99.86 342.046 150.007 338.577C202.433 334.91 241.976 337.189 242.273 339.072C242.273 339.072 239.3 376.038 239.003 376.831C239.003 376.831 195.793 382.381 133.556 389.021C107.59 391.796 76.0749 357.209 55.6593 330.351C44.0641 315.287 44.6587 265.24 64.8761 257.608Z" fill="#F09700"/>
<path d="M135.339 390.009C135.24 390.009 135.24 390.009 135.141 390.009C124.339 388.522 117.897 387.531 104.815 385.549C78.8498 381.684 56.9477 341.448 43.0731 308.248C42.7757 307.455 43.0731 306.662 43.8659 306.265C44.6587 305.968 45.4516 306.265 45.848 307.058C59.4253 339.465 80.7328 378.909 105.311 382.477C118.293 384.36 124.834 385.351 135.637 386.937C136.43 387.036 137.024 387.829 136.925 388.621C136.628 389.414 136.033 390.009 135.339 390.009Z" fill="#0A3F64"/>
<path d="M239.003 378.422C238.904 378.422 238.904 378.422 238.805 378.422C238.012 378.323 237.417 377.629 237.516 376.836L241.481 339.077C235.633 337.789 199.956 336.5 150.899 340.762C124.636 343.041 107.491 319.95 92.9227 294.777C92.5263 294.084 92.7245 293.192 93.4183 292.795C94.112 292.399 95.0039 292.597 95.4004 293.291C109.473 317.671 125.925 339.969 150.503 337.789C181.225 335.113 204.911 334.816 216.308 334.915C243.76 335.014 244.156 336.798 244.454 337.888V338.086L240.291 377.133C240.39 377.827 239.796 378.422 239.003 378.422Z" fill="#0A3F64"/>
<path d="M140.79 338.377C140.096 338.377 139.502 337.882 139.303 337.188L131.573 294.276C131.474 293.483 131.97 292.69 132.762 292.591C133.555 292.492 134.348 292.987 134.447 293.78L142.177 336.693C142.276 337.485 141.781 338.278 140.988 338.377C140.988 338.278 140.889 338.377 140.79 338.377Z" fill="#0A3F64"/>
<defs>
<clipPath id="clip0">
<rect width="246" height="491" fill="white" transform="translate(2 37)"/>
</clipPath>
</defs>
</svg>
