<svg width="141" height="49" viewBox="0 0 141 49" fill="none" xmlns="http://www.w3.org/2000/svg">
<path d="M69.3868 38.1934C68.0297 37.6531 66.9742 36.9243 66.2454 36.0196C65.504 35.1149 65.1396 34.1096 65.1396 32.9913V32.451C65.1396 32.1494 65.2904 31.9986 65.6046 31.9986H67.8538C68.1679 31.9986 68.3187 32.1494 68.3187 32.451V32.8154C68.3187 33.8081 68.859 34.6751 69.9396 35.4164C71.0203 36.1578 72.3648 36.5222 73.9983 36.5222C75.6192 36.5222 76.9386 36.1704 77.9438 35.4541C78.9491 34.7505 79.4391 33.8458 79.4391 32.7651C79.4391 32.0112 79.1752 31.3955 78.6601 30.9055C78.1449 30.428 77.5292 30.051 76.8255 29.7746C76.1218 29.4981 75.0412 29.1589 73.5711 28.7316C71.8245 28.2541 70.3794 27.7641 69.2611 27.2866C68.1302 26.8091 67.1878 26.1306 66.4213 25.2761C65.6548 24.4217 65.2779 23.3285 65.2779 21.9966C65.2779 20.074 66.0569 18.5285 67.6276 17.385C69.1857 16.2416 71.259 15.6636 73.8224 15.6636C75.5438 15.6636 77.0642 15.94 78.3962 16.4803C79.7281 17.0206 80.7459 17.7746 81.4747 18.717C82.1909 19.6719 82.5553 20.7274 82.5553 21.9086V22.0468C82.5553 22.3484 82.4046 22.4992 82.0904 22.4992H79.8915C79.5773 22.4992 79.4265 22.3484 79.4265 22.0468V21.9086C79.4265 20.8782 78.9239 20.0238 77.9061 19.3327C76.8883 18.6416 75.5187 18.2898 73.7972 18.2898C72.2014 18.2898 70.9197 18.6039 69.9522 19.2196C68.9847 19.8353 68.4946 20.6897 68.4946 21.7704C68.4946 22.8007 68.9595 23.5798 69.9019 24.1201C70.8444 24.6604 72.2894 25.2007 74.2622 25.7536C76.0716 26.2688 77.5417 26.7463 78.6726 27.1986C79.8035 27.651 80.7711 28.3044 81.5752 29.1714C82.392 30.0259 82.7941 31.1568 82.7941 32.539C82.7941 34.4992 82.0025 36.0698 80.4067 37.2384C78.8108 38.4196 76.6998 38.9976 74.0737 38.9976C72.3019 39.0102 70.7438 38.7337 69.3868 38.1934Z" fill="#F09700"/>
<path fill-rule="evenodd" clip-rule="evenodd" d="M73.8221 16.7014C71.4091 16.7014 69.572 17.2453 68.2414 18.2217L68.2398 18.2229L68.2382 18.2241C66.9366 19.1717 66.3155 20.405 66.3155 21.9966C66.3155 23.1204 66.6273 23.9519 67.1936 24.5831C67.8566 25.3222 68.6725 25.9116 69.6646 26.3305L69.6665 26.3313L69.6684 26.3321C70.7305 26.7856 72.1279 27.2612 73.8445 27.7305L73.8525 27.7327L73.8604 27.735C75.3287 28.1617 76.4515 28.5127 77.2047 28.8086C78.0165 29.1275 78.7459 29.5702 79.3653 30.1443L79.3702 30.1488L79.3751 30.1535C80.1032 30.8461 80.4767 31.7367 80.4767 32.7651C80.4767 34.2207 79.7904 35.4269 78.5422 36.3019C77.3111 37.1777 75.7614 37.56 73.998 37.56C72.2085 37.56 70.6452 37.1592 69.3523 36.2723C68.1547 35.4507 67.3655 34.3739 67.2871 33.0365H66.1775C66.1869 33.8875 66.463 34.648 67.0479 35.3618L67.0507 35.3651L67.0534 35.3685C67.6441 36.1018 68.5362 36.7378 69.7704 37.2292C70.9847 37.7126 72.407 37.9716 74.0661 37.9598L74.0697 37.9598H74.0734C76.5532 37.9598 78.4245 37.4142 79.789 36.4042L79.7911 36.4027L79.7932 36.4011C81.122 35.4281 81.756 34.1685 81.756 32.539C81.756 31.3685 81.4219 30.5133 80.8248 29.8886L80.8194 29.8829L80.8141 29.8772C80.1197 29.1286 79.2825 28.5605 78.2869 28.1623C77.2042 27.7292 75.7733 27.2631 73.9797 26.7524C71.9853 26.1933 70.4413 25.6258 69.3855 25.0205C68.7897 24.6789 68.2954 24.2324 67.9541 23.6619C67.6112 23.0889 67.4565 22.4473 67.4565 21.7704C67.4565 20.3077 68.1516 19.1351 69.3948 18.344C70.5796 17.59 72.0742 17.2519 73.797 17.2519C75.6499 17.2519 77.2451 17.6296 78.4889 18.4741C79.5984 19.2275 80.3033 20.2265 80.4398 21.4613H81.4952C81.4181 20.6961 81.1389 20.0013 80.6488 19.3458C80.048 18.5713 79.1899 17.9224 78.0058 17.442C76.8169 16.9597 75.4321 16.7014 73.8221 16.7014ZM67.0149 16.5472C68.8003 15.2375 71.1092 14.6257 73.8221 14.6257C75.6551 14.6257 77.3111 14.9203 78.7861 15.5186C80.2628 16.1177 81.4389 16.9745 82.2955 18.0821L82.3001 18.0881L82.3047 18.0943C83.1502 19.2216 83.5929 20.4939 83.5929 21.9086V22.0468C83.5929 22.3576 83.5143 22.7869 83.1667 23.1275C82.8232 23.464 82.3967 23.537 82.0902 23.537H79.8912C79.5847 23.537 79.1582 23.464 78.8147 23.1275C78.4671 22.7869 78.3885 22.3576 78.3885 22.0468V21.9086C78.3885 21.2906 78.1179 20.7311 77.3229 20.1913C76.531 19.6536 75.387 19.3276 73.797 19.3276C72.3282 19.3276 71.2594 19.6178 70.5092 20.0952C69.8173 20.5355 69.5322 21.0718 69.5322 21.7704C69.5322 22.1238 69.61 22.3869 69.7352 22.5961C69.8619 22.8078 70.0713 23.021 70.4179 23.2198C71.2465 23.6948 72.5918 24.2077 74.542 24.7543L74.544 24.7549L74.5461 24.7555C76.3704 25.2749 77.8792 25.7636 79.0578 26.235C80.3216 26.7406 81.4177 27.4774 82.3307 28.46C83.3632 29.5434 83.8317 30.9478 83.8317 32.539C83.8317 34.8289 82.8832 36.7101 81.0218 38.0742C79.1957 39.4249 76.8469 40.0349 74.0769 40.0354C72.1941 40.0484 70.5015 39.7544 69.0026 39.1576C67.5242 38.569 66.3063 37.7485 65.4396 36.674C64.554 35.5918 64.1016 34.3572 64.1016 32.9913V32.451C64.1016 32.1402 64.1802 31.7109 64.5278 31.3704C64.8713 31.0338 65.2978 30.9608 65.6043 30.9608H67.8535C68.16 30.9608 68.5865 31.0338 68.93 31.3703C69.2777 31.7109 69.3563 32.1402 69.3563 32.451V32.8154C69.3563 33.3604 69.6281 33.9443 70.5265 34.5606C71.3949 35.1564 72.5206 35.4844 73.998 35.4844C75.4749 35.4844 76.5625 35.1638 77.3413 34.6089L77.3449 34.6064L77.3484 34.6039C78.1085 34.0719 78.401 33.4695 78.401 32.7651C78.401 32.2881 78.2483 31.9484 77.9491 31.6618C77.5391 31.2831 77.0388 30.9735 76.4458 30.7405C75.7929 30.484 74.7569 30.1572 73.2891 29.7305C71.517 29.2458 70.0277 28.7423 68.8552 28.2419C67.5863 27.7058 66.5181 26.9385 65.6485 25.9692C64.6818 24.8915 64.2398 23.5366 64.2398 21.9966C64.2398 19.7438 65.1762 17.8864 67.0149 16.5472Z" fill="#F09700"/>
<path d="M116.054 17.6237C117.411 18.9808 118.09 20.8279 118.09 23.1902V38.3316C118.09 38.6332 117.939 38.7839 117.625 38.7839H115.275C114.961 38.7839 114.81 38.6332 114.81 38.3316V23.8185C114.81 22.1599 114.32 20.8405 113.327 19.8604C112.347 18.8803 111.053 18.3902 109.457 18.3902C107.798 18.3902 106.466 18.8677 105.449 19.8353C104.431 20.8028 103.928 22.097 103.928 23.718V38.319C103.928 38.6206 103.777 38.7714 103.463 38.7714H101.076C100.762 38.7714 100.611 38.6206 100.611 38.319V23.8185C100.611 22.1599 100.121 20.8405 99.1534 19.8604C98.1859 18.8803 96.8916 18.3902 95.2581 18.3902C93.5995 18.3902 92.2801 18.8677 91.3 19.8353C90.3199 20.8028 89.8173 22.097 89.8173 23.718V38.319C89.8173 38.6206 89.6665 38.7714 89.3523 38.7714H86.9649C86.6508 38.7714 86.5 38.6206 86.5 38.319V16.3546C86.5 16.0531 86.6508 15.9023 86.9649 15.9023H89.3523C89.6665 15.9023 89.8173 16.0531 89.8173 16.3546V18.164C89.8173 18.2269 89.8424 18.2646 89.8927 18.2771C89.9429 18.2897 89.9932 18.2646 90.056 18.2143C90.7471 17.3347 91.6267 16.6813 92.7073 16.2415C93.788 15.8017 94.9817 15.5881 96.301 15.5881C97.922 15.5881 99.3167 15.9023 100.473 16.5431C101.629 17.1714 102.508 18.1012 103.099 19.2949C103.162 19.4457 103.237 19.4457 103.338 19.2949C104.029 18.0635 104.996 17.1337 106.24 16.518C107.497 15.9023 108.917 15.5881 110.513 15.5881C112.837 15.5881 114.697 16.2667 116.054 17.6237Z" fill="#F09700"/>
<path fill-rule="evenodd" clip-rule="evenodd" d="M96.3018 16.626C95.0959 16.626 94.0379 16.8208 93.0993 17.2028C92.2251 17.5586 91.5232 18.0685 90.9633 18.7435C92.1231 17.7898 93.5846 17.3524 95.2588 17.3524C97.1156 17.3524 98.6951 17.9181 99.8927 19.1313C101.088 20.3422 101.65 21.943 101.65 23.8185V37.7335H102.891V23.718C102.891 22.4357 103.171 21.2822 103.76 20.2969C103.624 20.3749 103.437 20.4459 103.205 20.4459C102.813 20.4459 102.537 20.2458 102.388 20.0854C102.271 19.9584 102.2 19.8254 102.159 19.7335C101.66 18.7353 100.932 17.9737 99.9779 17.455L99.9741 17.4529L99.9703 17.4508C99.0024 16.9142 97.7903 16.626 96.3018 16.626ZM104.662 19.1534C104.686 19.1298 104.71 19.1063 104.734 19.0831C105.981 17.8983 107.587 17.3524 109.458 17.3524C111.281 17.3524 112.854 17.9204 114.059 19.124C115.287 20.3372 115.849 21.9433 115.849 23.8185V37.7461H117.052V23.1902C117.052 21.0375 116.441 19.4781 115.321 18.3576C114.2 17.2366 112.627 16.626 110.513 16.626C109.058 16.626 107.798 16.9113 106.699 17.4491C105.878 17.856 105.201 18.4217 104.662 19.1534ZM90.5094 19.159C90.3213 19.2651 90.0155 19.3774 89.6417 19.284C89.4046 19.2247 89.1497 19.0797 88.9733 18.8152C88.811 18.5717 88.7802 18.3238 88.7802 18.164V16.9401H87.5386V37.7335H88.7802V23.718C88.7802 21.8977 89.3434 20.3441 90.5094 19.159ZM92.3168 15.2803C93.5394 14.7827 94.8689 14.5503 96.3018 14.5503C98.0535 14.5503 99.6296 14.8897 100.973 15.6333C101.882 16.1283 102.646 16.7852 103.255 17.5829C103.942 16.7499 104.785 16.0805 105.781 15.5878L105.783 15.5869L105.784 15.586C107.199 14.893 108.778 14.5503 110.513 14.5503C113.048 14.5503 115.195 15.2967 116.789 16.8899C118.382 18.4835 119.128 20.6183 119.128 23.1902V38.3316C119.128 38.6424 119.049 39.0717 118.702 39.4122C118.358 39.7487 117.932 39.8218 117.625 39.8218H115.276C114.969 39.8218 114.543 39.7487 114.199 39.4122C113.851 39.0717 113.773 38.6424 113.773 38.3316V23.8185C113.773 22.3776 113.355 21.3456 112.599 20.5989L112.596 20.5966L112.594 20.5942C111.839 19.8393 110.825 19.4281 109.458 19.4281C108.012 19.4281 106.954 19.8372 106.164 20.5875C105.387 21.3263 104.967 22.3301 104.967 23.718V38.319C104.967 38.6298 104.888 39.0591 104.541 39.3997C104.197 39.7362 103.771 39.8092 103.464 39.8092H101.077C100.77 39.8092 100.344 39.7362 100 39.3997C99.6525 39.0591 99.5739 38.6298 99.5739 38.319V23.8185C99.5739 22.3767 99.1552 21.3388 98.4155 20.5895C97.6781 19.8425 96.6691 19.4281 95.2588 19.4281C93.8102 19.4281 92.7751 19.8381 92.0298 20.5738C91.2779 21.3162 90.8558 22.3284 90.8558 23.718V38.319C90.8558 38.6298 90.7772 39.0591 90.4296 39.3997C90.0861 39.7362 89.6596 39.8092 89.3531 39.8092H86.9656C86.6592 39.8092 86.2326 39.7362 85.8891 39.3997C85.5415 39.0591 85.4629 38.6298 85.4629 38.319V16.3546C85.4629 16.0438 85.5415 15.6145 85.8891 15.274C86.2326 14.9375 86.6592 14.8644 86.9656 14.8644H89.3531C89.6596 14.8644 90.0861 14.9375 90.4296 15.274C90.6814 15.5206 90.7921 15.8139 90.8339 16.075C91.2887 15.762 91.7832 15.4974 92.3168 15.2803Z" fill="#F09700"/>
<path d="M126.044 38.1934C124.687 37.6531 123.631 36.9243 122.903 36.0196C122.161 35.1149 121.797 34.1096 121.797 32.9913V32.451C121.797 32.1494 121.948 31.9986 122.262 31.9986H124.524C124.838 31.9986 124.989 32.1494 124.989 32.451V32.8154C124.989 33.8081 125.529 34.6751 126.609 35.4164C127.69 36.1578 129.035 36.5222 130.668 36.5222C132.289 36.5222 133.608 36.1704 134.614 35.4541C135.619 34.7505 136.109 33.8458 136.109 32.7651C136.109 32.0112 135.845 31.3955 135.33 30.9055C134.815 30.428 134.199 30.051 133.495 29.7746C132.792 29.4981 131.711 29.1589 130.241 28.7316C128.494 28.2541 127.049 27.7641 125.931 27.2866C124.8 26.8091 123.858 26.1306 123.091 25.2761C122.325 24.4217 121.948 23.3285 121.948 21.9966C121.948 20.074 122.727 18.5285 124.297 17.385C125.856 16.2416 127.929 15.6636 130.492 15.6636C132.214 15.6636 133.734 15.94 135.066 16.4803C136.398 17.0206 137.416 17.7746 138.145 18.717C138.861 19.6719 139.225 20.7274 139.225 21.9086V22.0468C139.225 22.3484 139.074 22.4992 138.76 22.4992H136.561C136.247 22.4992 136.096 22.3484 136.096 22.0468V21.9086C136.096 20.8782 135.594 20.0238 134.576 19.3327C133.558 18.6416 132.189 18.2898 130.467 18.2898C128.871 18.2898 127.59 18.6039 126.622 19.2196C125.654 19.8353 125.164 20.6897 125.164 21.7704C125.164 22.8007 125.629 23.5798 126.572 24.1201C127.514 24.6604 128.959 25.2007 130.932 25.7536C132.741 26.2688 134.212 26.7463 135.342 27.1986C136.473 27.651 137.441 28.3044 138.245 29.1714C139.062 30.0259 139.464 31.1568 139.464 32.539C139.464 34.4992 138.672 36.0698 137.076 37.2384C135.481 38.4196 133.37 38.9976 130.743 38.9976C128.959 39.0102 127.401 38.7337 126.044 38.1934Z" fill="#F09700"/>
<path fill-rule="evenodd" clip-rule="evenodd" d="M130.492 16.7014C128.079 16.7014 126.242 17.2453 124.911 18.2217L124.91 18.2229L124.908 18.2241C123.606 19.1717 122.985 20.405 122.985 21.9966C122.985 23.1204 123.297 23.9519 123.863 24.5831C124.526 25.3222 125.342 25.9116 126.334 26.3305L126.336 26.3313L126.338 26.3321C127.4 26.7856 128.798 27.2612 130.514 27.7305L130.522 27.7327L130.53 27.735C131.999 28.1617 133.121 28.5127 133.875 28.8086C134.686 29.1275 135.416 29.5702 136.035 30.1443L136.04 30.1488L136.045 30.1535C136.773 30.8461 137.146 31.7367 137.146 32.7651C137.146 34.2207 136.46 35.4269 135.212 36.3019C133.981 37.1777 132.431 37.56 130.668 37.56C128.878 37.56 127.315 37.1592 126.022 36.2722C124.825 35.4507 124.035 34.3739 123.957 33.0365H122.835C122.844 33.8875 123.12 34.648 123.705 35.3618L123.708 35.3651L123.711 35.3685C124.301 36.1018 125.193 36.7378 126.428 37.2292C127.641 37.7125 129.064 37.9716 130.736 37.9598L130.74 37.9598H130.743C133.223 37.9598 135.094 37.4142 136.459 36.4042L136.461 36.4027L136.463 36.4011C137.792 35.4281 138.426 34.1685 138.426 32.539C138.426 31.3685 138.092 30.5133 137.495 29.8885L137.489 29.8829L137.484 29.8772C136.789 29.1286 135.952 28.5605 134.957 28.1623C133.874 27.7291 132.443 27.2631 130.649 26.7523C128.655 26.1933 127.111 25.6258 126.055 25.0205C125.46 24.6789 124.965 24.2324 124.624 23.6619C124.281 23.0889 124.126 22.4473 124.126 21.7704C124.126 20.3077 124.821 19.1351 126.065 18.344C127.249 17.59 128.744 17.2519 130.467 17.2519C132.32 17.2519 133.915 17.6296 135.159 18.4741C136.268 19.2275 136.973 20.2265 137.11 21.4613H138.165C138.088 20.6961 137.809 20.0013 137.319 19.3458C136.718 18.5713 135.86 17.9224 134.676 17.442C133.487 16.9597 132.102 16.7014 130.492 16.7014ZM123.685 16.5472C125.47 15.2375 127.779 14.6257 130.492 14.6257C132.325 14.6257 133.981 14.9203 135.456 15.5186C136.933 16.1177 138.109 16.9745 138.965 18.0821L138.97 18.0881L138.975 18.0943C139.82 19.2216 140.263 20.4939 140.263 21.9086V22.0468C140.263 22.3576 140.184 22.7869 139.837 23.1275C139.493 23.464 139.066 23.537 138.76 23.537H136.561C136.255 23.537 135.828 23.464 135.485 23.1275C135.137 22.7869 135.058 22.3576 135.058 22.0468V21.9086C135.058 21.2906 134.788 20.7311 133.993 20.1913C133.201 19.6536 132.057 19.3276 130.467 19.3276C128.998 19.3276 127.929 19.6178 127.179 20.0952C126.487 20.5355 126.202 21.0718 126.202 21.7704C126.202 22.1238 126.28 22.3869 126.405 22.5961C126.532 22.8078 126.741 23.021 127.088 23.2198C127.916 23.6948 129.262 24.2077 131.212 24.7543L131.214 24.7549L131.216 24.7555C133.04 25.2749 134.549 25.7636 135.728 26.235C136.991 26.7406 138.088 27.4774 139 28.46C140.033 29.5434 140.501 30.9478 140.501 32.539C140.501 34.8289 139.553 36.7101 137.692 38.0741C135.866 39.4249 133.517 40.0349 130.747 40.0354C128.852 40.0484 127.159 39.7546 125.66 39.1576C124.181 38.569 122.964 37.7485 122.097 36.674C121.211 35.5918 120.759 34.3572 120.759 32.9913V32.451C120.759 32.1402 120.837 31.7109 121.185 31.3703C121.529 31.0338 121.955 30.9608 122.262 30.9608H124.523C124.83 30.9608 125.256 31.0338 125.6 31.3703C125.947 31.7109 126.026 32.1402 126.026 32.451V32.8154C126.026 33.3604 126.298 33.9443 127.196 34.5606C128.065 35.1564 129.19 35.4844 130.668 35.4844C132.145 35.4844 133.232 35.1638 134.011 34.6089L134.015 34.6064L134.018 34.6039C134.778 34.0719 135.071 33.4695 135.071 32.7651C135.071 32.2881 134.918 31.9484 134.619 31.6618C134.209 31.2831 133.709 30.9735 133.116 30.7405C132.463 30.484 131.427 30.1572 129.959 29.7305C128.187 29.2458 126.697 28.7423 125.525 28.2419C124.256 27.7058 123.188 26.9385 122.318 25.9692C121.352 24.8915 120.91 23.5366 120.91 21.9966C120.91 19.7438 121.846 17.8864 123.685 16.5472Z" fill="#F09700"/>
<path d="M53.466 24.9493H27.6691L14.3623 0.295898H40.1592L53.466 24.9493Z" fill="#EFAD00"/>
<path d="M14.3623 48.2958H40.1592L53.466 24.9492H27.6691L14.3623 48.2958Z" fill="#CC4309"/>
<path d="M27.8073 24.9619L14.2869 0.295898L0 24.2456L14.3372 48.2959L27.8073 24.9619Z" fill="#E86B02"/>
<path fill-rule="evenodd" clip-rule="evenodd" d="M14.2764 18.7293C14.2764 15.7949 16.6554 13.4158 19.5898 13.4158H35.2966C38.2408 13.4158 40.5832 15.7989 40.6225 18.6902L40.6227 18.7035V28.4423C40.6227 31.3767 38.2436 33.7558 35.3092 33.7558H28.1885L22.4835 38.0025L22.4005 38.0523C21.5689 38.5513 20.5343 38.4638 19.8025 37.8946C19.1659 37.3995 18.8822 36.6577 18.9089 35.959L18.7862 33.6954C16.2331 33.308 14.2764 31.1036 14.2764 28.4423V18.7293ZM19.5898 17.3077C18.8049 17.3077 18.1683 17.9443 18.1683 18.7293V28.4423C18.1683 29.2273 18.8049 29.8639 19.5898 29.8639H22.4761L22.6477 33.0286L26.899 29.8639H35.3092C36.0942 29.8639 36.7308 29.2273 36.7308 28.4423V18.7326C36.7144 17.9347 36.0685 17.3077 35.2966 17.3077H19.5898Z" fill="white"/>
</svg>
