<svg width="48" height="49" viewBox="0 0 48 49" fill="none" xmlns="http://www.w3.org/2000/svg">
<g clip-path="url(#clip0)">
<path d="M4.85938 34.0156L5.09375 43.1562L9.9375 35.8125L4.85938 34.0156Z" fill="#00A7B3"/>
<path d="M40.0938 4.64844H17.75C15.5938 4.64844 13.8438 6.39844 13.8438 8.55469V11.3672H7.90625C5.75 11.3672 4 13.1172 4 15.2734V23.0859C4 23.5156 4.35156 23.8672 4.78125 23.8672C5.21094 23.8672 5.5625 23.5156 5.5625 23.0859V15.2734C5.5625 13.9844 6.61719 12.9297 7.90625 12.9297H30.25C31.5391 12.9297 32.5938 13.9844 32.5938 15.2734V30.8984C32.5938 32.1875 31.5391 33.2422 30.25 33.2422H11.0312C10.7656 33.2422 10.5156 33.3828 10.375 33.6016L5.5625 41.1797V29.3359C5.5625 28.9062 5.21094 28.5547 4.78125 28.5547C4.35156 28.5547 4 28.9062 4 29.3359V43.8672C4 44.2109 4.22656 44.5234 4.5625 44.6172C4.89844 44.7109 5.25 44.5781 5.4375 44.2891L11.4609 34.8047H30.25C32.4062 34.8047 34.1562 33.0547 34.1562 30.8984V28.5547H36.5469L42.5625 37.5781C42.9844 38.2188 43.9922 37.9219 43.9922 37.1484V8.55469C44 6.39844 42.25 4.64844 40.0938 4.64844ZM42.4375 34.5703L37.6172 27.3438C37.4688 27.125 37.2266 26.9922 36.9688 26.9922H34.1562V15.2734C34.1562 13.1172 32.4062 11.3672 30.25 11.3672H15.4062V8.55469C15.4062 7.26562 16.4609 6.21094 17.75 6.21094H40.0938C41.3828 6.21094 42.4375 7.26562 42.4375 8.55469V34.5703Z" fill="#333333"/>
<path d="M5.5625 26.2109C5.5625 26.6406 5.21094 26.9922 4.78125 26.9922C4.35156 26.9922 4 26.6406 4 26.2109C4 25.7812 4.35156 25.4297 4.78125 25.4297C5.21094 25.4297 5.5625 25.7812 5.5625 26.2109Z" fill="#333333"/>
</g>
<defs>
<clipPath id="clip0">
<rect width="40" height="40" fill="white" transform="translate(4 4.64844)"/>
</clipPath>
</defs>
</svg>
