<svg width="48" height="49" viewBox="0 0 48 49" fill="none" xmlns="http://www.w3.org/2000/svg">
<g clip-path="url(#clip0)">
<path d="M26.2617 29.6406L31.2617 34.7188L29.3086 37.0625L23.918 31.9844L26.2617 29.6406Z" fill="#00A7B3"/>
<path d="M42.1051 34.8669L36.1051 18.445V8.83563C36.1051 8.40594 35.7535 8.05438 35.3238 8.05438H32.3082L31.2535 5.16375C31.1051 4.7575 30.6598 4.54656 30.2535 4.695L21.066 8.05438H9.87852C9.44883 8.05438 9.09727 8.40594 9.09727 8.83563V12.4294L6.35508 13.4294C6.15977 13.4997 6.00352 13.6481 5.91758 13.8356C5.83164 14.0231 5.82383 14.2419 5.89414 14.4294L9.10508 23.2184V40.4528C9.10508 40.8825 9.45664 41.2341 9.88633 41.2341H15.6832L16.7379 44.1247C16.8551 44.445 17.152 44.6403 17.4723 44.6403C17.5582 44.6403 17.652 44.6247 17.7379 44.5934L26.9254 41.2341H35.316C35.7457 41.2341 36.0973 40.8825 36.0973 40.4528V37.8825L41.6363 35.8591C41.8316 35.7888 41.9879 35.6403 42.0738 35.4528C42.1676 35.2731 42.1832 35.0622 42.1051 34.8669ZM9.09727 18.6716L7.6207 14.6325L9.09727 14.0934V18.6716ZM30.0504 6.42938L30.6441 8.05438H25.6129L30.0504 6.42938ZM17.941 42.8669L17.3473 41.2419H22.3785L17.941 42.8669ZM34.5426 39.6794H10.6598V9.61688H34.5426V39.6794ZM36.1051 36.2263V22.9919L40.3707 34.6638L36.1051 36.2263Z" fill="#333333"/>
<path d="M21.3394 22.8206C21.0348 22.5159 20.5426 22.5159 20.2379 22.8206L18.4332 24.6252L17.316 24.1643C16.9176 24.0002 16.4644 24.1956 16.3004 24.594C16.1363 24.9924 16.3316 25.4534 16.7301 25.6096L18.3316 26.2659C18.4254 26.3049 18.5269 26.3206 18.6285 26.3206C18.8316 26.3206 19.0348 26.2424 19.1832 26.094L21.3551 23.9221C21.6441 23.6252 21.6441 23.1331 21.3394 22.8206Z" fill="#333333"/>
<path d="M32.0508 34.1406L26.6992 28.7891C26.3945 28.4844 25.9024 28.4844 25.5977 28.7891L24.9649 29.4219L23.8711 28.3281C24.707 27.2578 25.1992 25.9219 25.1992 24.4609C25.1992 20.9844 22.3711 18.1641 18.9023 18.1641C15.4258 18.1641 12.6055 20.9922 12.6055 24.4609C12.6055 27.9297 15.4336 30.7578 18.9023 30.7578C20.3555 30.7578 21.6992 30.2578 22.7695 29.4297L23.8633 30.5234L23.2305 31.1562C22.9258 31.4609 22.9258 31.9531 23.2305 32.2578L28.5742 37.6172C28.7305 37.7734 28.9258 37.8438 29.1289 37.8438C29.332 37.8438 29.5274 37.7656 29.6836 37.6172L32.0508 35.25C32.3555 34.9375 32.3555 34.4453 32.0508 34.1406ZM18.8945 29.2031C16.2852 29.2031 14.1602 27.0781 14.1602 24.4688C14.1602 21.8594 16.2852 19.7344 18.8945 19.7344C21.5039 19.7344 23.6289 21.8594 23.6289 24.4688C23.6289 27.0781 21.5117 29.2031 18.8945 29.2031ZM29.1289 35.9609L24.8789 31.7109L26.1445 30.4453L30.3945 34.6953L29.1289 35.9609Z" fill="#333333"/>
<path d="M30.6914 12.7656C30.6836 12.7188 30.668 12.6641 30.6445 12.6172C30.6211 12.5703 30.5977 12.5234 30.5742 12.4844C30.543 12.4375 30.5117 12.3984 30.4805 12.3672C30.4492 12.3359 30.4023 12.2969 30.3633 12.2656C30.3242 12.2344 30.2773 12.2109 30.2305 12.1953C30.1836 12.1719 30.1367 12.1641 30.082 12.1484C29.9805 12.125 29.8789 12.125 29.7773 12.1484C29.7305 12.1563 29.6758 12.1719 29.6289 12.1953C29.582 12.2188 29.5352 12.2422 29.4961 12.2656C29.457 12.2969 29.4102 12.3281 29.3789 12.3672C29.3477 12.4063 29.3086 12.4453 29.2773 12.4844C29.2461 12.5234 29.2227 12.5703 29.207 12.6172C29.1836 12.6641 29.168 12.7109 29.1602 12.7656C29.1523 12.8125 29.1445 12.8672 29.1445 12.9141C29.1445 12.9688 29.1523 13.0156 29.1602 13.0625C29.168 13.1094 29.1836 13.1641 29.207 13.2109C29.2305 13.2578 29.2461 13.3047 29.2773 13.3438C29.3086 13.3906 29.3398 13.4297 29.3789 13.4609C29.418 13.4922 29.457 13.5313 29.4961 13.5547C29.5352 13.5859 29.582 13.6094 29.6289 13.625C29.6758 13.6484 29.7227 13.6563 29.7773 13.6719C29.832 13.6875 29.8789 13.6875 29.9336 13.6875C29.9883 13.6875 30.0352 13.6797 30.0898 13.6719C30.1445 13.6641 30.1914 13.6484 30.2383 13.625C30.2852 13.6016 30.332 13.5781 30.3711 13.5547C30.4102 13.5234 30.457 13.4922 30.4883 13.4609C30.5195 13.4297 30.5586 13.3828 30.582 13.3438C30.6133 13.3047 30.6367 13.2578 30.6523 13.2109C30.6758 13.1641 30.6836 13.1172 30.6992 13.0625C30.7148 13.0078 30.7148 12.9609 30.7148 12.9141C30.707 12.8672 30.6992 12.8125 30.6914 12.7656Z" fill="#333333"/>
<path d="M27.2227 12.1331H15.2852C14.8555 12.1331 14.5039 12.4846 14.5039 12.9143C14.5039 13.344 14.8555 13.6956 15.2852 13.6956H27.2227C27.6523 13.6956 28.0039 13.344 28.0039 12.9143C28.0039 12.4846 27.6523 12.1331 27.2227 12.1331Z" fill="#333333"/>
<path d="M16.0508 15.625C16.043 15.5781 16.0273 15.5234 16.0039 15.4766C15.9805 15.4297 15.957 15.3828 15.9336 15.3437C15.9023 15.2969 15.8711 15.2578 15.8398 15.2266C15.8008 15.1875 15.7617 15.1562 15.7227 15.1328C15.6836 15.1016 15.6367 15.0781 15.5898 15.0625C15.543 15.0391 15.4961 15.0312 15.4414 15.0156C15.3398 14.9922 15.2383 14.9922 15.1367 15.0156C15.0898 15.0234 15.0352 15.0391 14.9883 15.0625C14.9414 15.0859 14.8945 15.1094 14.8555 15.1328C14.8086 15.1641 14.7695 15.1953 14.7383 15.2266C14.707 15.2578 14.668 15.3047 14.6367 15.3437C14.6055 15.3828 14.582 15.4297 14.5664 15.4766C14.543 15.5234 14.5352 15.5703 14.5195 15.625C14.5039 15.6797 14.5039 15.7266 14.5039 15.7734C14.5039 15.8203 14.5117 15.875 14.5195 15.9219C14.5273 15.9687 14.543 16.0234 14.5664 16.0703C14.5898 16.1172 14.6133 16.1641 14.6367 16.2031C14.668 16.25 14.6992 16.2891 14.7383 16.3203C14.7773 16.3516 14.8164 16.3906 14.8555 16.4141C14.8945 16.4453 14.9414 16.4687 14.9883 16.4844C15.0352 16.5078 15.082 16.5156 15.1367 16.5312C15.1836 16.5391 15.2383 16.5469 15.293 16.5469C15.3398 16.5469 15.3945 16.5391 15.4414 16.5312C15.4883 16.5234 15.543 16.5078 15.5898 16.4844C15.6367 16.4609 15.6836 16.4375 15.7227 16.4141C15.7695 16.3828 15.8086 16.3516 15.8398 16.3203C15.8789 16.2812 15.9101 16.2422 15.9336 16.2031C15.9648 16.1641 15.9883 16.1172 16.0039 16.0703C16.0273 16.0234 16.0351 15.9766 16.0508 15.9219C16.0664 15.8672 16.0664 15.8203 16.0664 15.7734C16.0664 15.7266 16.0586 15.6719 16.0508 15.625Z" fill="#333333"/>
<path d="M29.9258 14.9922H17.9883C17.5586 14.9922 17.207 15.3438 17.207 15.7734C17.207 16.2031 17.5586 16.5547 17.9883 16.5547H29.9258C30.3555 16.5547 30.707 16.2031 30.707 15.7734C30.707 15.3438 30.3555 14.9922 29.9258 14.9922Z" fill="#333333"/>
</g>
<defs>
<clipPath id="clip0">
<rect width="36.3203" height="40" fill="white" transform="translate(5.83984 4.64844)"/>
</clipPath>
</defs>
</svg>
