<svg width="48" height="49" viewBox="0 0 48 49" fill="none" xmlns="http://www.w3.org/2000/svg">
<g clip-path="url(#clip0)">
<path d="M13.5312 22.8906L18.7656 17.1094L22.9063 21.7188L28.2188 14.6094L35.1719 24.1406L13.5312 24.0625V22.8906Z" fill="#00A7B3"/>
<path d="M22.0703 12.4065C20.7422 12.4065 19.6641 13.4846 19.6641 14.8127C19.6641 16.1409 20.7422 17.219 22.0703 17.219C23.3984 17.219 24.4765 16.1409 24.4765 14.8127C24.4765 13.4846 23.3984 12.4065 22.0703 12.4065ZM22.0703 15.6487C21.6094 15.6487 21.2266 15.2737 21.2266 14.8049C21.2266 14.344 21.6016 13.9612 22.0703 13.9612C22.5312 13.9612 22.9141 14.3362 22.9141 14.8049C22.9141 15.2737 22.5391 15.6487 22.0703 15.6487Z" fill="#333333"/>
<path d="M32.9922 4.64844H15.0078C13.1016 4.64844 11.5547 6.20313 11.5547 8.10156V41.1875C11.5547 43.1016 13.1016 44.6484 15.0078 44.6484H32.9844C34.8906 44.6484 36.4375 43.0938 36.4375 41.1953V41.5V8.10156C36.4453 6.20313 34.8984 4.64844 32.9922 4.64844ZM13.1172 8.10156C13.1172 7.0625 13.9688 6.21094 15.0078 6.21094H32.9844C34.0312 6.21094 34.875 7.0625 34.875 8.10156V10.1406H13.1172V8.10156ZM13.1172 24.6641H34.8828V31.7578H13.1172V24.6641ZM14.4609 23.1016L18.7578 18.125L21.875 21.7422L20.8516 23.1094H14.4609V23.1016ZM27.9922 19.7578H25.3203L25.875 19.0234H30.625L33.6875 23.1016H22.8125L24.1484 21.3203H27.9922C28.4219 21.3203 28.7734 20.9688 28.7734 20.5391C28.7734 20.1016 28.4219 19.7578 27.9922 19.7578ZM27.0469 17.4531L28.25 15.8438L29.4531 17.4531H27.0469ZM13.1172 33.3203H34.8828V37.5938H13.1172V33.3203ZM32.9922 43.0859H15.0078C13.9688 43.0859 13.1172 42.2344 13.1172 41.1953V39.1562H34.8828V41.1953C34.8828 42.2344 34.0312 43.0859 32.9922 43.0859ZM34.8828 22.0938L31.6406 17.7656L28.875 14.0781C28.7266 13.8828 28.4922 13.7656 28.25 13.7656C28.0078 13.7656 27.7734 13.8828 27.625 14.0781L24.8594 17.7656L22.8438 20.4531L19.3516 16.4141C19.2031 16.2422 18.9844 16.1406 18.7578 16.1406C18.5312 16.1406 18.3125 16.2422 18.1641 16.4141L13.1172 22.2656V11.7031H34.8828V22.0938Z" fill="#333333"/>
<path d="M29.5391 8.02368C29.5312 7.97681 29.5156 7.92212 29.4922 7.87524C29.4688 7.82837 29.4453 7.78149 29.4219 7.74243C29.3906 7.69556 29.3594 7.65649 29.3203 7.62524C29.2812 7.59399 29.2422 7.55493 29.2031 7.53149C29.1641 7.50024 29.1172 7.47681 29.0703 7.46118C29.0234 7.43774 28.9766 7.42993 28.9219 7.41431C28.8203 7.39087 28.7187 7.39087 28.6172 7.41431C28.5703 7.42212 28.5156 7.43774 28.4688 7.46118C28.4219 7.48462 28.375 7.50806 28.3359 7.53149C28.2891 7.56274 28.25 7.59399 28.2188 7.62524C28.1797 7.66431 28.1484 7.70337 28.125 7.74243C28.0938 7.78149 28.0703 7.82837 28.0547 7.87524C28.0313 7.92212 28.0234 7.96899 28.0078 8.02368C28 8.07056 27.9922 8.12524 27.9922 8.17993C27.9922 8.22681 28 8.28149 28.0078 8.33618C28.0156 8.38306 28.0313 8.43774 28.0547 8.48462C28.0781 8.53149 28.1016 8.57837 28.125 8.61743C28.1563 8.65649 28.1875 8.70337 28.2188 8.73462C28.2578 8.77368 28.2969 8.80493 28.3359 8.82837C28.375 8.85962 28.4219 8.88305 28.4688 8.89868C28.5156 8.92212 28.5625 8.93774 28.6172 8.94555C28.6641 8.95337 28.7187 8.96118 28.7734 8.96118C28.8203 8.96118 28.875 8.95337 28.9297 8.94555C28.9766 8.93774 29.0313 8.92212 29.0781 8.89868C29.125 8.87524 29.1719 8.8518 29.2109 8.82837C29.25 8.79712 29.2969 8.76587 29.3281 8.73462C29.3594 8.70337 29.3984 8.65649 29.4297 8.61743C29.4609 8.57837 29.4844 8.53149 29.5 8.48462C29.5234 8.43774 29.5313 8.39087 29.5469 8.33618C29.5547 8.28931 29.5625 8.23462 29.5625 8.17993C29.5547 8.12524 29.5469 8.07837 29.5391 8.02368Z" fill="#333333"/>
<path d="M25.8047 7.39819H19.2266C18.7969 7.39819 18.4453 7.74976 18.4453 8.17944C18.4453 8.60913 18.7969 8.96069 19.2266 8.96069H25.8047C26.2344 8.96069 26.586 8.60913 26.586 8.17944C26.586 7.74976 26.2344 7.39819 25.8047 7.39819Z" fill="#333333"/>
<path d="M25.0312 40.3362H22.9688C22.5391 40.3362 22.1875 40.6877 22.1875 41.1174C22.1875 41.5471 22.5391 41.8987 22.9688 41.8987H25.0312C25.4609 41.8987 25.8125 41.5471 25.8125 41.1174C25.8125 40.6877 25.4609 40.3362 25.0312 40.3362Z" fill="#333333"/>
<path d="M16.0156 35.1953C16.0078 35.1484 15.9922 35.0937 15.9688 35.0469C15.9453 35 15.9219 34.9531 15.8984 34.9141C15.8672 34.8672 15.8359 34.8281 15.7969 34.7969C15.7578 34.7656 15.7188 34.7266 15.6797 34.7031C15.6406 34.6719 15.5938 34.6484 15.5469 34.6328C15.5 34.6094 15.4531 34.5937 15.3984 34.5859C15.2969 34.5625 15.1953 34.5625 15.0938 34.5859C15.0469 34.5937 14.9922 34.6094 14.9453 34.6328C14.8984 34.6562 14.8516 34.6719 14.8125 34.7031C14.7656 34.7344 14.7266 34.7656 14.6953 34.7969C14.6641 34.8281 14.625 34.875 14.6016 34.9141C14.5703 34.9531 14.5469 35 14.5312 35.0469C14.5078 35.0937 14.5 35.1406 14.4844 35.1953C14.4766 35.2422 14.4688 35.2969 14.4688 35.3516C14.4688 35.3984 14.4766 35.4531 14.4844 35.5078C14.4922 35.5547 14.5078 35.6094 14.5312 35.6562C14.5547 35.7031 14.5781 35.75 14.6016 35.7891C14.6328 35.8281 14.6641 35.875 14.6953 35.9062C14.7266 35.9375 14.7734 35.9766 14.8125 36C14.8516 36.0312 14.8984 36.0547 14.9453 36.0703C14.9922 36.0937 15.0391 36.1094 15.0938 36.1172C15.1406 36.125 15.1953 36.1328 15.2422 36.1328C15.2969 36.1328 15.3438 36.125 15.3984 36.1172C15.4453 36.1094 15.5 36.0937 15.5469 36.0703C15.5938 36.0469 15.6406 36.0312 15.6797 36C15.7266 35.9687 15.7656 35.9375 15.7969 35.9062C15.8281 35.875 15.8672 35.8281 15.8984 35.7891C15.9297 35.75 15.9531 35.7031 15.9688 35.6562C15.9922 35.6094 16 35.5625 16.0156 35.5078C16.0234 35.4609 16.0312 35.4062 16.0312 35.3516C16.0312 35.3047 16.0234 35.25 16.0156 35.1953Z" fill="#333333"/>
<path d="M22.2266 34.5703H18.2187C17.7891 34.5703 17.4375 34.9219 17.4375 35.3516C17.4375 35.7812 17.7891 36.1328 18.2187 36.1328H22.2266C22.6562 36.1328 23.0078 35.7812 23.0078 35.3516C23.0078 34.9219 22.6641 34.5703 22.2266 34.5703Z" fill="#333333"/>
<path d="M32.75 34.5703H25.7734C25.3437 34.5703 24.9922 34.9219 24.9922 35.3516C24.9922 35.7812 25.3437 36.1328 25.7734 36.1328H32.75C33.1797 36.1328 33.5312 35.7812 33.5312 35.3516C33.5312 34.9219 33.1797 34.5703 32.75 34.5703Z" fill="#333333"/>
<path d="M32.7969 25.5156H28.7031C28.2734 25.5156 27.9219 25.8672 27.9219 26.2969V29.9375C27.9219 30.3672 28.2734 30.7188 28.7031 30.7188H32.7969C33.2266 30.7188 33.5781 30.3672 33.5781 29.9375V26.2969C33.5781 25.8672 33.2266 25.5156 32.7969 25.5156ZM32.0156 29.1563H29.4844V27.0781H32.0156V29.1563Z" fill="#333333"/>
<path d="M26.0469 25.5156H21.9531C21.5234 25.5156 21.1719 25.8672 21.1719 26.2969V29.9375C21.1719 30.3672 21.5234 30.7188 21.9531 30.7188H26.0469C26.4765 30.7188 26.8281 30.3672 26.8281 29.9375V26.2969C26.8281 25.8672 26.4844 25.5156 26.0469 25.5156ZM25.2656 29.1563H22.7344V27.0781H25.2656V29.1563Z" fill="#333333"/>
<path d="M19.3047 25.5156H15.2109C14.7812 25.5156 14.4297 25.8672 14.4297 26.2969V29.9375C14.4297 30.3672 14.7812 30.7188 15.2109 30.7188H19.3047C19.7344 30.7188 20.0859 30.3672 20.0859 29.9375V26.2969C20.0859 25.8672 19.7344 25.5156 19.3047 25.5156ZM18.5234 29.1563H15.9922V27.0781H18.5234V29.1563Z" fill="#333333"/>
</g>
<defs>
<clipPath id="clip0">
<rect width="24.8906" height="40" fill="white" transform="translate(11.5547 4.64844)"/>
</clipPath>
</defs>
</svg>
