<svg width="48" height="49" viewBox="0 0 48 49" fill="none" xmlns="http://www.w3.org/2000/svg">
<g clip-path="url(#clip0)">
<path d="M27.4785 29.7322L32.9212 43.8517L34.8143 42.6685L36.0764 39.1189L39.626 43.0629L41.5191 43.2206L42.7023 41.5642L43.0967 40.381L38.995 36.2003L43.57 33.9128L42.9232 33.1004L29.2139 27.9968L27.4785 29.7322Z" fill="#00A7B3"/>
<path d="M40.6436 4.64844H6.94606C5.2107 4.64844 3.80664 6.0525 3.80664 7.78786V26.7585C3.80664 28.4859 5.2107 29.8979 6.94606 29.8979H14.7078C15.1417 29.8979 15.4966 29.5429 15.4966 29.1091C15.4966 28.6753 15.1417 28.3203 14.7078 28.3203H6.94606C6.08627 28.3203 5.39213 27.6262 5.39213 26.7664V7.78786C5.39213 6.92807 6.08627 6.23392 6.94606 6.23392H40.6436C41.5033 6.23392 42.1975 6.92807 42.1975 7.78786V26.7585C42.1975 27.6183 41.5033 28.3124 40.6436 28.3124H38.2693C37.8354 28.3124 37.4805 28.6674 37.4805 29.1012C37.4805 29.535 37.8354 29.89 38.2693 29.89H40.6436C42.371 29.89 43.783 28.4859 43.783 26.7506V7.78786C43.7751 6.0525 42.371 4.64844 40.6436 4.64844Z" fill="#333333"/>
<path d="M44.1931 33.7394C44.1694 33.1163 43.7829 32.572 43.1992 32.3512L30.1051 27.4922C29.2216 27.1609 28.2514 27.3738 27.5809 28.0443C26.9105 28.7148 26.6975 29.6771 27.0288 30.5685L31.872 43.6468C32.0929 44.2384 32.6371 44.6249 33.2682 44.6485C33.284 44.6485 33.2997 44.6485 33.3155 44.6485C33.9229 44.6485 34.475 44.2936 34.7196 43.7256L36.0605 40.6493L38.9712 43.56C39.7994 44.3882 41.1483 44.3882 41.9686 43.56L43.0887 42.4399C43.491 42.0376 43.7119 41.5091 43.7119 40.9412C43.7119 40.3732 43.491 39.8448 43.0887 39.4425L40.2175 36.5712L43.2938 35.1987C43.8539 34.9384 44.2088 34.3705 44.1931 33.7394ZM38.5137 35.5852C38.2771 35.6878 38.1035 35.9086 38.0562 36.1611C38.0089 36.4135 38.0877 36.6817 38.2771 36.8631L41.9608 40.5468C42.1737 40.7598 42.1737 41.0989 41.9608 41.3119L40.8407 42.432C40.7381 42.5346 40.604 42.5898 40.462 42.5898C40.3201 42.5898 40.186 42.5346 40.0834 42.432L36.3524 38.701C36.171 38.5196 35.9028 38.4328 35.6425 38.4801C35.3822 38.5275 35.1692 38.701 35.0666 38.9455L33.3155 42.9684L28.5117 30.0163C28.3461 29.5667 28.6143 29.2512 28.701 29.1644C28.7641 29.1013 28.9692 28.9278 29.2611 28.9278C29.3479 28.9278 29.4425 28.9436 29.5529 28.983L42.5287 33.7947L38.5137 35.5852ZM42.647 33.842L42.9231 33.1005L42.647 33.842Z" fill="#333333"/>
<path d="M26.3586 25.7094L24.1184 23.4692C23.8108 23.1616 23.3059 23.1616 22.9983 23.4692C22.6907 23.7769 22.6907 24.2817 22.9983 24.5893L25.2385 26.8295C25.3963 26.9873 25.5935 27.0583 25.7985 27.0583C26.0036 27.0583 26.2008 26.9794 26.3586 26.8295C26.6662 26.5219 26.6662 26.0171 26.3586 25.7094Z" fill="#333333"/>
<path d="M24.1658 28.3203H21.0027C20.5688 28.3203 20.2139 28.6753 20.2139 29.1091C20.2139 29.5429 20.5688 29.8979 21.0027 29.8979H24.1658C24.5996 29.8979 24.9545 29.5429 24.9545 29.1091C24.9545 28.6753 24.5996 28.3203 24.1658 28.3203Z" fill="#333333"/>
<path d="M28.7087 20.6138C28.2749 20.6138 27.9199 20.9687 27.9199 21.4026V24.5657C27.9199 24.9995 28.2749 25.3545 28.7087 25.3545C29.1426 25.3545 29.4975 24.9995 29.4975 24.5657V21.4026C29.4975 20.9687 29.1426 20.6138 28.7087 20.6138Z" fill="#333333"/>
<path d="M35.3586 22.0808C35.0509 21.7732 34.5461 21.7732 34.2385 22.0808L31.9983 24.321C31.6907 24.6286 31.6907 25.1335 31.9983 25.4411C32.1561 25.5989 32.3533 25.6699 32.5583 25.6699C32.7634 25.6699 32.9606 25.591 33.1184 25.4411L35.3586 23.2009C35.6662 22.8933 35.6662 22.3885 35.3586 22.0808Z" fill="#333333"/>
<path d="M25.4436 31.9961C25.1359 31.6885 24.6311 31.6885 24.3235 31.9961L22.0833 34.2363C21.7756 34.5439 21.7756 35.0487 22.0833 35.3564C22.241 35.5141 22.4382 35.5851 22.6433 35.5851C22.8484 35.5851 23.0456 35.5062 23.2034 35.3564L25.4436 33.1162C25.7512 32.8086 25.7512 32.3037 25.4436 31.9961Z" fill="#333333"/>
<path d="M17.8475 29.8981C18.2875 29.8981 18.6442 29.5414 18.6442 29.1014C18.6442 28.6614 18.2875 28.3047 17.8475 28.3047C17.4075 28.3047 17.0508 28.6614 17.0508 29.1014C17.0508 29.5414 17.4075 29.8981 17.8475 29.8981Z" fill="#333333"/>
</g>
<defs>
<clipPath id="clip0">
<rect width="40.3865" height="40" fill="white" transform="translate(3.80664 4.64844)"/>
</clipPath>
</defs>
</svg>
