<svg width="279" height="477" viewBox="0 0 279 477" fill="none" xmlns="http://www.w3.org/2000/svg">
<path d="M213.17 477H65.2597C41.9636 477 23.0391 458.127 23.0391 434.896V42.1045C23.0391 18.8725 41.9636 0 65.2597 0H213.17C236.466 0 255.391 18.8725 255.391 42.1045V434.896C255.391 458.127 236.466 477 213.17 477Z" fill="#0A3F64"/>
<path d="M206.917 467.343H69.0775C48.9908 467.343 32.667 451.064 32.667 431.033V47.0713C32.667 27.0399 48.9908 10.761 69.0775 10.761H206.917C227.004 10.761 243.328 27.0399 243.328 47.0713V430.978C243.272 451.064 227.004 467.343 206.917 467.343Z" fill="white"/>
<path d="M23.5373 138.84H21.1025V173.054H23.5373V138.84Z" fill="#0A3F64"/>
<path d="M25.584 95.2456H20.9912V130.066H25.584V95.2456Z" fill="#0A3F64"/>
<path d="M24.6993 60.5352H20.6045V79.8491H24.6993V60.5352Z" fill="#0A3F64"/>
<path d="M257.604 106.836H252.236V163.564H257.604V106.836Z" fill="#0A3F64"/>
<path d="M171.005 26.2113H104.714C90.4928 26.2113 78.9277 14.7333 78.9277 0.496094H196.736C196.791 14.6781 185.226 26.2113 171.005 26.2113Z" fill="#0A3F64"/>
<path d="M150.618 17.3801H127.543C126.436 17.3801 125.551 16.4972 125.551 15.3936C125.551 14.2899 126.436 13.407 127.543 13.407H150.618C151.724 13.407 152.61 14.2899 152.61 15.3936C152.61 16.4972 151.724 17.3801 150.618 17.3801Z" fill="#226DA2"/>
<path d="M163.045 17.8209C164.39 17.8209 165.48 16.7339 165.48 15.3929C165.48 14.0519 164.39 12.9648 163.045 12.9648C161.7 12.9648 160.61 14.0519 160.61 15.3929C160.61 16.7339 161.7 17.8209 163.045 17.8209Z" fill="#226DA2"/>
<path d="M117.551 15.3949C117.551 16.8296 116.389 18.0436 114.895 18.0436C113.457 18.0436 112.239 16.8848 112.239 15.3949C112.239 13.9049 113.401 12.7461 114.895 12.7461C116.334 12.7461 117.551 13.9601 117.551 15.3949Z" fill="#226DA2"/>
<path d="M256.497 41.6633H252.624V44.8639H256.276C256.276 44.8639 256.276 41.4426 256.497 41.6633Z" fill="#226DA1"/>
<path d="M22.32 41.83H25.9721V44.8098H22.0986C22.0986 44.865 22.32 41.223 22.32 41.83Z" fill="#226DA1"/>
<path d="M22.8725 427.887H26.6906V432.136H22.8725C22.8725 432.136 22.4298 427.887 22.8725 427.887Z" fill="#226DA1"/>
<path d="M251.904 427.06V431.75H255.944V426.839C255.999 426.839 251.904 426.398 251.904 427.06Z" fill="#226DA1"/>
<path d="M176.262 455.313H104.437C103.828 455.313 103.33 454.816 103.33 454.209C103.33 453.602 103.828 453.105 104.437 453.105H176.262C176.87 453.105 177.368 453.602 177.368 454.209C177.368 454.816 176.87 455.313 176.262 455.313Z" fill="#FEFFFF"/>
<path d="M205.479 22.5687C205.479 22.679 205.368 22.7894 205.258 22.7894H204.649C204.538 22.7894 204.428 22.679 204.428 22.5687V18.5403C204.428 18.4299 204.538 18.3196 204.649 18.3196H205.258C205.368 18.3196 205.479 18.4299 205.479 18.5403V22.5687Z" fill="#FCFCF4"/>
<path d="M203.653 22.5705C203.653 22.6808 203.542 22.7912 203.432 22.7912H202.823C202.712 22.7912 202.602 22.6808 202.602 22.5705V19.6458C202.602 19.5354 202.712 19.425 202.823 19.425H203.432C203.542 19.425 203.653 19.5354 203.653 19.6458V22.5705Z" fill="#FCFCF4"/>
<path d="M201.827 22.5704C201.827 22.6807 201.716 22.7911 201.605 22.7911H200.997C200.886 22.7911 200.775 22.6807 200.775 22.5704V20.5286C200.775 20.4182 200.886 20.3079 200.997 20.3079H201.605C201.716 20.3079 201.827 20.4182 201.827 20.5286V22.5704Z" fill="#FCFCF4"/>
<path d="M200.001 22.5678C200.001 22.6782 199.89 22.7886 199.779 22.7886H199.171C199.06 22.7886 198.949 22.6782 198.949 22.5678V21.2434C198.949 21.1331 199.06 21.0227 199.171 21.0227H199.779C199.89 21.0227 200.001 21.1331 200.001 21.2434V22.5678Z" fill="#FCFCF4"/>
<path fill-rule="evenodd" clip-rule="evenodd" d="M208.522 20.3621C208.245 20.0862 207.968 19.8655 207.747 19.5895C209.407 17.9341 212.229 17.8789 213.945 19.5895C213.668 19.8655 213.447 20.0862 213.17 20.3621C212.506 19.7551 211.731 19.424 210.846 19.424C209.905 19.424 209.13 19.7551 208.522 20.3621Z" fill="#FCFCF4"/>
<path fill-rule="evenodd" clip-rule="evenodd" d="M209.628 21.5212C209.352 21.2452 209.075 21.0245 208.854 20.7486C209.85 19.7001 211.731 19.6449 212.782 20.7486C212.506 21.0245 212.284 21.2452 212.008 21.5212C211.178 20.9141 210.403 20.9141 209.628 21.5212Z" fill="#FCFCF4"/>
<path fill-rule="evenodd" clip-rule="evenodd" d="M211.565 21.9069C211.288 22.1829 211.067 22.4036 210.79 22.6795C210.514 22.4036 210.292 22.1829 210.016 21.9069C210.348 21.5207 211.122 21.4655 211.565 21.9069Z" fill="#FCFCF4"/>
<path opacity="0.4" d="M223.85 18.2102H217.044C216.491 18.2102 216.048 18.6517 216.048 19.2035V21.8523C216.048 22.4041 216.491 22.8456 217.044 22.8456H223.85C224.403 22.8456 224.846 22.4041 224.846 21.8523V19.2035C224.846 18.6517 224.403 18.2102 223.85 18.2102ZM224.459 21.8523C224.459 22.1834 224.182 22.4593 223.85 22.4593H217.044C216.712 22.4593 216.435 22.1834 216.435 21.8523V19.2035C216.435 18.8724 216.712 18.5965 217.044 18.5965H223.85C224.182 18.5965 224.459 18.8724 224.459 19.2035V21.8523Z" fill="#FCFCF4"/>
<path d="M224.071 21.8524C224.071 21.9628 223.96 22.0731 223.85 22.0731H217.044C216.933 22.0731 216.822 21.9628 216.822 21.8524V19.2036C216.822 19.0933 216.933 18.9829 217.044 18.9829H223.85C223.96 18.9829 224.071 19.0933 224.071 19.2036V21.8524Z" fill="#FCFCF4"/>
<path d="M225.842 20.5277C225.842 20.8036 225.621 21.0795 225.289 21.0795C225.289 20.6932 225.289 20.3069 225.289 20.031C225.566 20.031 225.842 20.2517 225.842 20.5277Z" fill="#FCFCF4"/>
<g filter="url(#filter0_d)">
<rect x="77.6084" y="56.9141" width="120.447" height="120.447" fill="white"/>
</g>
<g clip-path="url(#clip0)">
<path d="M91.3096 152.107C91.3096 128.807 91.3096 105.465 91.3096 82.165C91.4336 81.8753 91.599 81.5443 91.7231 81.2546C93.0464 76.6607 97.0163 73.5154 101.731 73.5154C125.798 73.474 149.825 73.474 173.851 73.5154C177.035 73.5154 179.847 74.7156 181.749 77.3229C182.866 78.8956 183.486 80.8407 184.355 82.6203C184.355 105.796 184.355 128.972 184.355 152.148C181.543 159.101 178.937 160.839 171.246 160.839C148.419 160.839 125.55 160.839 102.723 160.839C101.855 160.839 100.945 160.798 100.076 160.632C95.2795 159.722 92.7156 156.535 91.3096 152.107ZM138.452 151.072C148.915 151.072 159.377 151.114 169.84 151.031C170.998 151.031 172.569 150.493 173.107 149.624C173.52 148.962 172.9 147.306 172.28 146.396C168.847 141.305 165.332 136.298 161.776 131.331C159.791 128.558 157.31 128.31 154.787 130.711C153.546 131.911 152.389 133.194 151.148 134.394C148.501 137.001 145.979 136.836 143.663 133.814C138.122 126.613 132.622 119.371 127.08 112.17C124.558 108.9 122.531 109.107 120.67 112.832C117.528 119.04 114.426 125.206 111.325 131.414C108.802 136.463 106.197 141.429 103.716 146.52C102.434 149.127 103.467 150.824 106.321 151.114C107.024 151.155 107.686 151.155 108.389 151.155C118.479 151.072 128.445 151.072 138.452 151.072ZM151.479 89.2006C145.813 89.2006 141.347 93.6289 141.347 99.216C141.347 105.01 145.731 109.48 151.437 109.48C157.061 109.48 161.61 105.01 161.61 99.4643C161.61 93.6703 157.186 89.2006 151.479 89.2006Z" fill="#00A7B3"/>
</g>
<g filter="url(#filter1_d)">
<rect x="66.6357" y="362.977" width="64" height="64" fill="white"/>
</g>
<g clip-path="url(#clip1)">
<path d="M105.979 398.053L105.967 398.153C103.035 396.691 102.728 396.497 102.349 397.065C102.087 397.458 101.321 398.35 101.091 398.614C100.857 398.874 100.625 398.894 100.229 398.714C99.8293 398.514 98.5453 398.094 97.0253 396.734C95.8413 395.674 95.0466 394.374 94.8119 393.974C94.4213 393.299 95.2386 393.203 95.9826 391.795C96.1159 391.515 96.0479 391.295 95.9493 391.097C95.8493 390.897 95.0533 388.937 94.7199 388.155C94.3999 387.377 94.0706 387.475 93.8239 387.475C93.0559 387.409 92.4946 387.419 91.9999 387.934C89.8479 390.299 90.3906 392.739 92.2319 395.334C95.8506 400.07 97.7786 400.942 101.304 402.153C102.256 402.455 103.124 402.413 103.811 402.314C104.576 402.193 106.167 401.353 106.499 400.413C106.839 399.473 106.839 398.693 106.739 398.513C106.64 398.333 106.379 398.233 105.979 398.053Z" fill="#00A7B3"/>
<path d="M109.996 383.575C99.7437 373.665 82.7771 380.853 82.7704 394.834C82.7704 397.629 83.5024 400.354 84.8971 402.761L82.6357 410.977L91.0824 408.774C101.622 414.467 114.63 406.907 114.636 394.842C114.636 390.607 112.982 386.622 109.976 383.627L109.996 383.575ZM111.972 394.798C111.964 404.975 100.792 411.331 91.9557 406.137L91.4757 405.851L86.4757 407.151L87.8157 402.291L87.4971 401.791C81.9984 393.038 88.3157 381.598 98.7317 381.598C102.27 381.598 105.592 382.978 108.093 385.478C110.593 387.957 111.972 391.278 111.972 394.798Z" fill="#00A7B3"/>
</g>
<g filter="url(#filter2_d)">
<rect x="146.636" y="362.977" width="64" height="64" fill="white"/>
</g>
<path d="M185.634 410.977C184.601 410.977 183.577 410.794 182.575 410.43C178.163 408.827 174.068 406.217 170.732 402.881C167.395 399.545 164.785 395.449 163.182 391.037C162.667 389.619 162.515 388.155 162.731 386.686C162.932 385.31 163.465 383.975 164.272 382.823C165.082 381.667 166.162 380.705 167.395 380.042C168.71 379.335 170.146 378.977 171.662 378.977C172.133 378.977 172.541 379.306 172.64 379.767L174.209 387.092C174.28 387.423 174.178 387.768 173.938 388.008L171.256 390.69C173.787 395.72 177.892 399.826 182.922 402.356L185.604 399.674C185.844 399.434 186.189 399.332 186.521 399.403L193.845 400.973C194.306 401.071 194.636 401.479 194.636 401.95C194.636 403.466 194.277 404.902 193.57 406.217C192.907 407.45 191.945 408.53 190.789 409.34C189.637 410.147 188.302 410.68 186.926 410.882C186.495 410.945 186.063 410.976 185.634 410.977ZM170.863 381.02C168.863 381.241 167.088 382.289 165.91 383.971C164.585 385.863 164.275 388.189 165.062 390.354C168.143 398.837 174.776 405.469 183.258 408.55C185.423 409.337 187.75 409.028 189.641 407.702C191.323 406.524 192.371 404.749 192.592 402.749L186.633 401.473L183.833 404.274C183.535 404.572 183.082 404.651 182.7 404.472C176.751 401.677 171.936 396.861 169.141 390.912C168.962 390.531 169.041 390.078 169.339 389.78L172.14 386.979L170.863 381.02Z" fill="#00A7B3"/>
<path d="M193.636 395.976C193.084 395.976 192.636 395.528 192.636 394.976C192.636 387.257 186.356 380.976 178.637 380.976C178.084 380.976 177.637 380.529 177.637 379.977C177.637 379.424 178.084 378.977 178.637 378.977C182.91 378.977 186.928 380.641 189.95 383.663C192.972 386.684 194.636 390.702 194.636 394.976C194.636 395.528 194.188 395.976 193.636 395.976Z" fill="#00A7B3"/>
<path d="M189.636 395.976C189.084 395.976 188.636 395.528 188.636 394.976C188.636 389.462 184.15 384.976 178.637 384.976C178.084 384.976 177.637 384.529 177.637 383.976C177.637 383.424 178.084 382.976 178.637 382.976C185.253 382.976 190.636 388.359 190.636 394.976C190.636 395.528 190.189 395.976 189.636 395.976Z" fill="#00A7B3"/>
<path d="M185.636 395.976C185.084 395.976 184.636 395.528 184.636 394.976C184.636 391.668 181.945 388.976 178.637 388.976C178.084 388.976 177.637 388.529 177.637 387.976C177.637 387.424 178.084 386.976 178.637 386.976C183.048 386.976 186.636 390.565 186.636 394.976C186.636 395.528 186.189 395.976 185.636 395.976Z" fill="#00A7B3"/>
<g filter="url(#filter3_d)">
<rect x="8" y="202.73" width="262.208" height="136.246" fill="white"/>
</g>
<rect x="24.3389" y="216.543" width="150.889" height="14.7394" rx="7.3697" fill="#CCCCCC"/>
<rect x="24.959" y="253.13" width="99.1435" height="7.36976" rx="3.68488" fill="#CCCCCC"/>
<rect x="151.171" y="253.13" width="99.1435" height="7.36976" rx="3.68488" fill="#CCCCCC"/>
<rect x="24.959" y="272.285" width="99.1435" height="7.36976" rx="3.68488" fill="#CCCCCC"/>
<rect x="151.171" y="272.285" width="99.1435" height="7.36976" rx="3.68488" fill="#CCCCCC"/>
<rect x="24.959" y="291.434" width="99.1435" height="7.36976" rx="3.68488" fill="#CCCCCC"/>
<rect x="151.171" y="291.434" width="99.1435" height="7.36976" rx="3.68488" fill="#CCCCCC"/>
<rect x="24.959" y="310.586" width="99.1435" height="7.36976" rx="3.68488" fill="#CCCCCC"/>
<rect x="151.171" y="310.586" width="99.1435" height="7.36976" rx="3.68488" fill="#CCCCCC"/>
<defs>
<filter id="filter0_d" x="69.6084" y="52.9141" width="136.447" height="136.447" filterUnits="userSpaceOnUse" color-interpolation-filters="sRGB">
<feFlood flood-opacity="0" result="BackgroundImageFix"/>
<feColorMatrix in="SourceAlpha" type="matrix" values="0 0 0 0 0 0 0 0 0 0 0 0 0 0 0 0 0 0 127 0"/>
<feOffset dy="4"/>
<feGaussianBlur stdDeviation="4"/>
<feColorMatrix type="matrix" values="0 0 0 0 0 0 0 0 0 0 0 0 0 0 0 0 0 0 0.1 0"/>
<feBlend mode="normal" in2="BackgroundImageFix" result="effect1_dropShadow"/>
<feBlend mode="normal" in="SourceGraphic" in2="effect1_dropShadow" result="shape"/>
</filter>
<filter id="filter1_d" x="61.6357" y="357.977" width="74" height="74" filterUnits="userSpaceOnUse" color-interpolation-filters="sRGB">
<feFlood flood-opacity="0" result="BackgroundImageFix"/>
<feColorMatrix in="SourceAlpha" type="matrix" values="0 0 0 0 0 0 0 0 0 0 0 0 0 0 0 0 0 0 127 0"/>
<feOffset/>
<feGaussianBlur stdDeviation="2.5"/>
<feColorMatrix type="matrix" values="0 0 0 0 0 0 0 0 0 0 0 0 0 0 0 0 0 0 0.12 0"/>
<feBlend mode="normal" in2="BackgroundImageFix" result="effect1_dropShadow"/>
<feBlend mode="normal" in="SourceGraphic" in2="effect1_dropShadow" result="shape"/>
</filter>
<filter id="filter2_d" x="141.636" y="357.977" width="74" height="74" filterUnits="userSpaceOnUse" color-interpolation-filters="sRGB">
<feFlood flood-opacity="0" result="BackgroundImageFix"/>
<feColorMatrix in="SourceAlpha" type="matrix" values="0 0 0 0 0 0 0 0 0 0 0 0 0 0 0 0 0 0 127 0"/>
<feOffset/>
<feGaussianBlur stdDeviation="2.5"/>
<feColorMatrix type="matrix" values="0 0 0 0 0 0 0 0 0 0 0 0 0 0 0 0 0 0 0.12 0"/>
<feBlend mode="normal" in2="BackgroundImageFix" result="effect1_dropShadow"/>
<feBlend mode="normal" in="SourceGraphic" in2="effect1_dropShadow" result="shape"/>
</filter>
<filter id="filter3_d" x="0" y="198.73" width="278.208" height="152.246" filterUnits="userSpaceOnUse" color-interpolation-filters="sRGB">
<feFlood flood-opacity="0" result="BackgroundImageFix"/>
<feColorMatrix in="SourceAlpha" type="matrix" values="0 0 0 0 0 0 0 0 0 0 0 0 0 0 0 0 0 0 127 0"/>
<feOffset dy="4"/>
<feGaussianBlur stdDeviation="4"/>
<feColorMatrix type="matrix" values="0 0 0 0 0 0 0 0 0 0 0 0 0 0 0 0 0 0 0.1 0"/>
<feBlend mode="normal" in2="BackgroundImageFix" result="effect1_dropShadow"/>
<feBlend mode="normal" in="SourceGraphic" in2="effect1_dropShadow" result="shape"/>
</filter>
<clipPath id="clip0">
<rect width="93.0452" height="87.324" fill="white" transform="translate(91.3096 73.4766)"/>
</clipPath>
<clipPath id="clip1">
<rect width="32" height="32" fill="white" transform="translate(82.6357 378.977)"/>
</clipPath>
</defs>
</svg>
