<svg width="188" height="49" viewBox="0 0 188 49" fill="none" xmlns="http://www.w3.org/2000/svg">
<path d="M53.466 25.0714H27.6691L14.3623 0.417969H40.1592L53.466 25.0714Z" fill="#00A7B3"/>
<path d="M14.3623 48.4181H40.1592L53.466 25.0715H27.6691L14.3623 48.4181Z" fill="#008187"/>
<path d="M27.8073 25.0839L14.2869 0.417969L0 24.3677L14.3372 48.418L27.8073 25.0839Z" fill="#059A9F"/>
<path d="M31.6648 22.7216H26.4376C25.9224 22.7216 25.5203 23.1363 25.5203 23.6389V24.7949H22.4418V23.6389C22.4418 21.4274 24.2261 19.6431 26.4376 19.6431H31.6648V15.0316C31.6648 14.1771 30.9737 13.4986 30.1318 13.4986H17.8303C16.9758 13.4986 16.2973 14.1897 16.2973 15.0316V27.3331C16.2973 28.1876 16.9884 28.8661 17.8303 28.8661H22.4418V26.3279H25.5203V28.8661H30.1318C30.9863 28.8661 31.6648 28.175 31.6648 27.3331V22.7216ZM34.7434 22.7216V27.3331C34.7434 29.8839 32.6826 31.9447 30.1318 31.9447H25.5203V35.6389C25.5203 36.1541 25.935 36.5562 26.4376 36.5562H30.2826V39.6347H26.4376C24.2261 39.6347 22.4418 37.8504 22.4418 35.6389V31.9572H17.8303C15.2795 31.9572 13.2188 29.8965 13.2188 27.3457V15.0441C13.2188 12.4934 15.2795 10.4326 17.8303 10.4326H30.1318C32.6826 10.4326 34.7434 12.4934 34.7434 15.0441V19.6557H38.4376V22.7342H34.7434V22.7216ZM42.4334 29.1049V35.6515C42.4334 37.863 40.6491 39.6473 38.4376 39.6473H31.8282V36.5688H38.4376C38.9528 36.5688 39.3549 36.1541 39.3549 35.6515V29.1049H42.4334ZM38.4376 19.6557C40.6491 19.6557 42.4334 21.4399 42.4334 23.6515V27.5719H39.3549V23.6515C39.3549 23.1363 38.9402 22.7342 38.4376 22.7342V19.6557Z" fill="white"/>
<path d="M84.9047 24.4807C84.9047 26.8053 84.666 28.8409 84.0503 30.5498C82.7183 34.5331 79.7278 37.0084 75.0785 37.0084C72.8922 37.0084 70.9445 36.154 69.5749 34.5456C69.4367 34.4074 69.2859 34.4954 69.2859 34.6838V35.9153C69.2859 36.3425 68.9969 36.6315 68.5696 36.6315H65.4408C65.0136 36.6315 64.7246 36.3425 64.7246 35.9153V4.12468C64.7246 3.69745 65.0136 3.40845 65.4408 3.40845H68.5696C68.9969 3.40845 69.2859 3.69745 69.2859 4.12468V14.4158C69.2859 14.6043 69.4241 14.6545 69.5749 14.5163C70.9571 12.9456 72.8922 12.0912 75.0785 12.0912C79.866 12.0912 82.9068 14.6545 84.1885 18.7383C84.7162 20.3969 84.9047 22.3446 84.9047 24.4807ZM80.356 24.5687C80.356 21.7666 79.7906 19.7812 78.8356 18.3111C77.8806 16.8409 76.4607 16.0367 74.6136 16.0367C72.8168 16.0367 71.4848 16.8912 70.5801 18.4619C69.7759 19.8817 69.3487 21.8294 69.3487 24.531C69.3487 27.1446 69.7257 29.1299 70.4922 30.5121C71.3969 32.1205 72.7665 33.0755 74.6262 33.0755C76.7121 33.0755 78.2827 32.1707 79.1749 30.4618C79.9288 29.0294 80.356 27.132 80.356 24.5687Z" fill="#008187"/>
<path d="M102.885 12.468H105.964C106.391 12.468 106.68 12.757 106.68 13.1842V35.9151C106.68 36.3424 106.391 36.6314 105.964 36.6314H102.885C102.458 36.6314 102.169 36.3424 102.169 35.9151V34.4952C102.169 34.3068 102.031 34.2565 101.88 34.3947C100.649 36.0534 98.7514 36.9581 96.0875 36.9581C91.5765 36.9581 87.4551 34.3445 87.4551 29.1298V13.1842C87.4551 12.757 87.7441 12.468 88.1713 12.468H91.2498C91.6771 12.468 91.9661 12.757 91.9661 13.1842V27.6973C91.9661 30.9267 93.7629 33.0125 96.942 33.0125C100.121 33.0125 102.157 30.9267 102.157 27.6973V13.1842C102.182 12.757 102.458 12.468 102.885 12.468Z" fill="#008187"/>
<path d="M110.011 5.88389C110.011 4.12472 111.292 2.89331 113.14 2.89331C114.987 2.89331 116.218 4.12472 116.218 5.88389C116.218 7.64305 114.987 8.87446 113.14 8.87446C111.292 8.8619 110.011 7.63048 110.011 5.88389ZM110.865 35.9153V13.1844C110.865 12.7572 111.154 12.4682 111.581 12.4682H114.71C115.137 12.4682 115.426 12.7572 115.426 13.1844V35.9153C115.426 36.3425 115.137 36.6315 114.71 36.6315H111.581C111.142 36.619 110.865 36.3425 110.865 35.9153Z" fill="#008187"/>
<path d="M119.585 35.9153V4.12468C119.585 3.69745 119.874 3.40845 120.301 3.40845H123.43C123.857 3.40845 124.146 3.69745 124.146 4.12468V35.9153C124.146 36.3425 123.857 36.6315 123.43 36.6315H120.301C119.874 36.6189 119.585 36.3425 119.585 35.9153Z" fill="#008187"/>
<path d="M143.409 3.40845H146.538C146.965 3.40845 147.254 3.69745 147.254 4.12468V35.9153C147.254 36.3425 146.965 36.6315 146.538 36.6315H143.409C142.982 36.6315 142.693 36.3425 142.693 35.9153V34.6838C142.693 34.4954 142.555 34.3948 142.404 34.5456C141.022 36.154 139.087 37.0084 136.9 37.0084C132.251 37.0084 129.261 34.5456 127.929 30.5498C127.313 28.8409 127.074 26.8053 127.074 24.4807C127.074 22.3446 127.263 20.3969 127.79 18.7383C129.072 14.6545 132.113 12.0912 136.9 12.0912C139.087 12.0912 141.034 12.9456 142.404 14.5163C142.542 14.6545 142.693 14.6168 142.693 14.4158V4.12468C142.693 3.69745 142.982 3.40845 143.409 3.40845ZM142.643 24.531C142.643 21.8294 142.216 19.8817 141.411 18.4619C140.507 16.8912 139.187 16.0367 137.378 16.0367C135.531 16.0367 134.098 16.8409 133.156 18.3111C132.201 19.7812 131.635 21.7791 131.635 24.5687C131.635 27.132 132.063 29.0294 132.817 30.4493C133.721 32.1582 135.279 33.0629 137.365 33.0629C139.212 33.0629 140.595 32.1079 141.499 30.4995C142.266 29.1299 142.643 27.132 142.643 24.531Z" fill="#008187"/>
<path d="M166.756 30.1227C166.995 29.6955 167.284 29.5573 167.711 29.8337L169.659 31.0149C170.036 31.2536 170.136 31.5803 169.948 32.0075C168.289 34.9981 165.16 36.9834 160.838 36.9834C156.289 36.9834 153.198 34.8473 151.627 31.1908C150.874 29.3436 150.446 27.019 150.446 24.4054C150.446 22.219 150.547 20.6107 150.974 19.1405C152.117 14.818 155.674 12.0662 160.612 12.0662C166.832 12.0662 169.671 15.5342 170.576 21.2264C170.765 22.508 170.865 23.8777 170.903 25.4986C170.903 25.9761 170.614 26.2149 170.187 26.2149H155.196C155.058 26.2149 154.957 26.3154 154.957 26.4536C155.008 27.5971 155.096 28.4515 155.284 29.017C155.95 31.4798 158.136 33.1007 161.265 33.1007C163.854 33.063 165.713 31.9698 166.756 30.1227ZM155.41 19.7813C155.171 20.4976 155.033 21.3897 154.982 22.4327C154.982 22.5709 155.083 22.6714 155.221 22.6714H165.99C166.128 22.6714 166.229 22.5709 166.229 22.4327C166.178 21.4777 166.09 20.6358 165.94 20.108C165.324 17.6829 163.426 16.0243 160.574 16.0243C157.734 16.0368 156.025 17.5447 155.41 19.7813Z" fill="#008187"/>
<path d="M186.911 12.7574C187.288 12.9459 187.388 13.2851 187.288 13.6621L186.622 16.7406C186.521 17.2684 186.245 17.3061 185.767 17.1678C185.202 16.9794 184.348 16.8788 183.443 16.9794C180.553 17.0799 178.316 19.1155 178.316 22.2945V35.9155C178.316 36.3427 178.027 36.6317 177.6 36.6317H174.471C174.044 36.6317 173.755 36.3427 173.755 35.9155V13.1846C173.755 12.7574 174.044 12.4684 174.471 12.4684H177.6C178.027 12.4684 178.316 12.7574 178.316 13.1846V15.371C178.316 15.6097 178.454 15.66 178.555 15.4715C179.837 13.5239 181.734 12.2422 184.348 12.2422C185.491 12.2422 186.295 12.4684 186.911 12.7574Z" fill="#008187"/>
</svg>
