<svg width="510" height="434" viewBox="0 0 510 434" fill="none" xmlns="http://www.w3.org/2000/svg">
<g clip-path="url(#clip0)">
<path d="M255 433.148C395.569 433.148 509.523 406.987 509.523 374.716C509.523 342.444 395.569 316.283 255 316.283C114.431 316.283 0.477112 342.444 0.477112 374.716C0.477112 406.987 114.431 433.148 255 433.148Z" fill="white"/>
<path d="M255 433.626C186.964 433.626 123.031 427.537 74.9064 416.508C26.6228 405.414 0 390.559 0 374.715C0 358.872 26.6228 344.017 74.9064 332.923C122.999 321.862 186.964 315.805 255 315.805C323.036 315.805 386.969 321.893 435.094 332.923C483.409 344.017 510 358.872 510 374.715C510 390.559 483.377 405.414 435.094 416.508C386.969 427.569 323.036 433.626 255 433.626ZM255 316.761C187.059 316.761 123.158 322.85 75.1291 333.88C51.7825 339.235 33.4932 345.483 20.7066 352.401C7.60197 359.51 0.954222 367.033 0.954222 374.715C0.954222 382.43 7.60197 389.921 20.7066 397.03C33.4932 403.98 51.8143 410.196 75.1291 415.551C123.158 426.581 187.059 432.67 255 432.67C322.941 432.67 386.842 426.581 434.871 415.551C458.217 410.196 476.507 403.948 489.293 397.03C502.398 389.921 509.046 382.398 509.046 374.715C509.046 367.001 502.398 359.51 489.293 352.401C476.507 345.451 458.186 339.235 434.871 333.88C386.842 322.818 322.941 316.761 255 316.761Z" fill="#0A3F64"/>
<path d="M251.438 413.256C370.786 413.256 467.537 393.703 467.537 369.583C467.537 345.463 370.786 325.91 251.438 325.91C132.089 325.91 35.338 345.463 35.338 369.583C35.338 393.703 132.089 413.256 251.438 413.256Z" fill="#DBE2F8"/>
<path d="M251.438 413.734C193.675 413.734 139.38 409.176 98.5393 400.919C57.4759 392.631 34.8608 381.474 34.8608 369.551C34.8608 357.629 57.4759 346.503 98.5393 338.183C139.38 329.927 193.675 325.368 251.438 325.368C309.2 325.368 363.495 329.927 404.336 338.183C445.399 346.471 468.014 357.629 468.014 369.551C468.014 381.474 445.399 392.599 404.336 400.919C363.495 409.208 309.2 413.734 251.438 413.734ZM251.438 326.388C193.739 326.388 139.507 330.915 98.7301 339.171C78.9141 343.188 63.3921 347.842 52.514 353.006C41.4132 358.298 35.8151 363.877 35.8151 369.583C35.8151 375.289 41.445 380.868 52.514 386.16C63.3603 391.356 78.9141 396.01 98.7301 399.995C139.507 408.251 193.739 412.778 251.438 412.778C309.136 412.778 363.368 408.251 404.145 399.995C423.961 395.978 439.483 391.324 450.361 386.16C461.462 380.868 467.06 375.289 467.06 369.583C467.06 363.877 461.43 358.298 450.361 353.006C439.515 347.81 423.961 343.156 404.145 339.171C363.368 330.915 309.136 326.388 251.438 326.388Z" fill="#0A3F64"/>
<path d="M214.159 248.636H73.7932C67.8134 248.636 62.9786 243.791 62.9786 237.798V176.369C62.9786 170.376 67.8134 165.53 73.7932 165.53H214.159C220.139 165.53 224.974 170.376 224.974 176.369V237.798C224.974 243.791 220.139 248.636 214.159 248.636Z" fill="#00AAB8"/>
<path d="M214.159 249.114H73.7932C67.5589 249.114 62.5015 244.046 62.5015 237.798V176.368C62.5015 170.12 67.5589 165.052 73.7932 165.052H214.159C220.394 165.052 225.451 170.12 225.451 176.368V237.798C225.451 244.046 220.394 249.114 214.159 249.114ZM73.7932 166.008C68.0996 166.008 63.4557 170.662 63.4557 176.368V237.798C63.4557 243.504 68.0996 248.158 73.7932 248.158H214.159C219.853 248.158 224.497 243.504 224.497 237.798V176.368C224.497 170.662 219.853 166.008 214.159 166.008H73.7932Z" fill="#0A3F64"/>
<path d="M376.154 248.636H235.756C229.777 248.636 224.942 243.791 224.942 237.798V176.369C224.942 170.376 229.777 165.53 235.756 165.53H376.122C382.102 165.53 386.937 170.376 386.937 176.369V237.798C386.937 243.791 382.102 248.636 376.154 248.636Z" fill="#00AAB8"/>
<path d="M376.154 249.114H235.756C229.522 249.114 224.465 244.046 224.465 237.798V176.368C224.465 170.12 229.522 165.052 235.756 165.052H376.123C382.357 165.052 387.414 170.12 387.414 176.368V237.798C387.414 244.046 382.357 249.114 376.154 249.114ZM235.756 166.008C230.063 166.008 225.419 170.662 225.419 176.368V237.798C225.419 243.504 230.063 248.158 235.756 248.158H376.123C381.816 248.158 386.46 243.504 386.46 237.798V176.368C386.46 170.662 381.816 166.008 376.123 166.008H235.756Z" fill="#0A3F64"/>
<path d="M59.0664 293.649H31.7438C29.5809 293.649 27.8315 291.896 27.8315 289.728V211.978C27.8315 209.81 29.5809 208.057 31.7438 208.057H59.0664C61.2293 208.057 62.9787 209.81 62.9787 211.978V289.728C62.9787 291.896 61.2293 293.649 59.0664 293.649Z" fill="#00AAB8"/>
<path d="M59.0664 294.127H31.7438C29.3264 294.127 27.3544 292.151 27.3544 289.728V211.977C27.3544 209.555 29.3264 207.578 31.7438 207.578H59.0664C61.4837 207.578 63.4558 209.555 63.4558 211.977V289.728C63.4558 292.151 61.4837 294.127 59.0664 294.127ZM31.7438 208.534C29.8353 208.534 28.3086 210.065 28.3086 211.977V289.728C28.3086 291.641 29.8353 293.171 31.7438 293.171H59.0664C60.9748 293.171 62.5016 291.641 62.5016 289.728V211.977C62.5016 210.065 60.9748 208.534 59.0664 208.534H31.7438Z" fill="#0A3F64"/>
<path d="M418.172 293.649H390.849C388.686 293.649 386.937 291.896 386.937 289.728V211.978C386.937 209.81 388.686 208.057 390.849 208.057H418.172C420.335 208.057 422.084 209.81 422.084 211.978V289.728C422.084 291.896 420.335 293.649 418.172 293.649Z" fill="#00AAB8"/>
<path d="M418.172 294.127H390.849C388.432 294.127 386.46 292.151 386.46 289.728V211.977C386.46 209.555 388.432 207.578 390.849 207.578H418.172C420.589 207.578 422.561 209.555 422.561 211.977V289.728C422.561 292.151 420.589 294.127 418.172 294.127ZM390.849 208.534C388.941 208.534 387.414 210.065 387.414 211.977V289.728C387.414 291.641 388.941 293.171 390.849 293.171H418.172C420.08 293.171 421.607 291.641 421.607 289.728V211.977C421.607 210.065 420.08 208.534 418.172 208.534H390.849Z" fill="#0A3F64"/>
<path d="M381.403 306.716H68.5449C65.4914 306.716 62.9786 304.23 62.9786 301.138V254.181C62.9786 251.121 65.4596 248.603 68.5449 248.603H381.403C384.456 248.603 386.969 251.089 386.969 254.181V301.138C386.937 304.23 384.456 306.716 381.403 306.716Z" fill="#00AAB8"/>
<path d="M381.403 307.195H68.5449C65.237 307.195 62.5015 304.485 62.5015 301.138V254.182C62.5015 250.835 65.2052 248.125 68.5449 248.125H381.403C384.742 248.125 387.446 250.835 387.446 254.182V301.138C387.414 304.485 384.711 307.195 381.403 307.195ZM68.5449 249.113C65.7459 249.113 63.4557 251.408 63.4557 254.214V301.17C63.4557 303.975 65.7459 306.271 68.5449 306.271H381.403C384.202 306.271 386.492 303.975 386.492 301.17V254.182C386.492 251.377 384.202 249.081 381.403 249.081H68.5449V249.113Z" fill="#0A3F64"/>
<path d="M105.664 306.526L95.9628 350.327H106.396L116.765 306.526H105.664Z" fill="#0A3F64"/>
<path d="M368.839 306.526L381.689 350.327H371.256L357.738 306.526H368.839Z" fill="#0A3F64"/>
<path d="M116.86 193.741C116.86 195.654 115.302 197.216 113.393 197.216C111.485 197.216 109.926 195.654 109.926 193.741C109.926 191.829 111.485 190.267 113.393 190.267C115.302 190.267 116.86 191.829 116.86 193.741Z" fill="#0A3F64"/>
<path d="M116.86 225.938C116.86 227.85 115.302 229.412 113.393 229.412C111.485 229.412 109.926 227.85 109.926 225.938C109.926 224.025 111.485 222.463 113.393 222.463C115.302 222.463 116.86 224.025 116.86 225.938Z" fill="#0A3F64"/>
<path d="M173.637 193.741C173.637 195.654 172.078 197.216 170.17 197.216C168.261 197.216 166.703 195.654 166.703 193.741C166.703 191.829 168.261 190.267 170.17 190.267C172.078 190.267 173.637 191.829 173.637 193.741Z" fill="#0A3F64"/>
<path d="M173.637 225.938C173.637 227.85 172.078 229.412 170.17 229.412C168.261 229.412 166.703 227.85 166.703 225.938C166.703 224.025 168.261 222.463 170.17 222.463C172.078 222.463 173.637 224.025 173.637 225.938Z" fill="#0A3F64"/>
<path d="M278.347 193.741C278.347 195.654 276.788 197.216 274.88 197.216C272.971 197.216 271.413 195.654 271.413 193.741C271.413 191.829 272.971 190.267 274.88 190.267C276.788 190.267 278.347 191.829 278.347 193.741Z" fill="#0A3F64"/>
<path d="M278.347 225.938C278.347 227.85 276.788 229.412 274.88 229.412C272.971 229.412 271.413 227.85 271.413 225.938C271.413 224.025 272.971 222.463 274.88 222.463C276.788 222.463 278.347 224.025 278.347 225.938Z" fill="#0A3F64"/>
<path d="M335.155 193.741C335.155 195.654 333.596 197.216 331.688 197.216C329.779 197.216 328.221 195.654 328.221 193.741C328.221 191.829 329.779 190.267 331.688 190.267C333.596 190.267 335.155 191.829 335.155 193.741Z" fill="#0A3F64"/>
<path d="M335.155 225.938C335.155 227.85 333.596 229.412 331.688 229.412C329.779 229.412 328.221 227.85 328.221 225.938C328.221 224.025 329.779 222.463 331.688 222.463C333.596 222.463 335.155 224.025 335.155 225.938Z" fill="#0A3F64"/>
<path d="M230.635 223.836L221.698 234.037C221.698 234.037 214.35 237.703 192.085 246.151C187.441 247.904 208.784 249.785 221.888 246.661C223.924 246.182 230.286 250.55 235.184 247.617C236.838 246.629 236.17 243.058 235.375 240.349C234.834 238.564 235.152 236.651 236.202 235.121L238.237 232.156L230.635 223.836Z" fill="white"/>
<path d="M231.208 249.114C228.982 249.114 226.787 248.381 224.974 247.807C223.702 247.392 222.525 247.01 221.952 247.137C214.636 248.891 205.858 248.891 202.422 248.827C199.464 248.763 196.697 248.572 194.661 248.253C191.64 247.807 191.099 247.329 190.972 246.882C190.876 246.564 190.94 246.085 191.894 245.735C212.664 237.861 220.521 234.099 221.38 233.685L230.604 223.165L238.778 232.187L236.52 235.47C235.534 236.905 235.279 238.658 235.757 240.284C236.647 243.216 237.283 246.946 235.375 248.094C234.071 248.827 232.639 249.114 231.208 249.114ZM222.207 246.149C222.97 246.149 224.02 246.5 225.26 246.914C228.027 247.839 231.812 249.082 234.866 247.233C235.947 246.595 235.947 244.141 234.834 240.507C234.262 238.594 234.58 236.554 235.725 234.864L237.538 232.218L230.572 224.568L221.92 234.418L221.825 234.45C221.761 234.482 214.223 238.243 192.18 246.595C192.117 246.627 192.053 246.627 192.021 246.659C194.311 247.775 210.311 248.923 221.698 246.181C221.889 246.149 222.048 246.149 222.207 246.149Z" fill="#0A3F64"/>
<path d="M349.945 248.125C362.732 246.213 370.143 234.737 370.143 234.737L330.161 205.919C330.161 205.919 294.187 182.17 269.282 176.878C260.916 175.093 220.553 226.002 220.553 226.002L239.478 237.032L281.178 207.736C281.241 207.768 312.794 253.672 349.945 248.125Z" fill="#0A3F64"/>
<path d="M357.802 120.073C357.802 120.073 358.534 136.362 357.198 138.243C355.83 140.124 346.701 147.042 346.701 147.042L362.891 182.618L390.882 179.972L392.758 151.25C392.758 151.25 380.004 140.794 379.24 138.658C378.191 135.693 378.191 119.85 378.191 119.85L357.802 120.073Z" fill="white"/>
<path d="M362.573 183.158L346.065 146.912L346.383 146.689C349.532 144.298 355.734 139.421 356.784 137.986C357.706 136.711 357.579 126.351 357.325 120.103C357.325 119.848 357.516 119.625 357.77 119.593C358.056 119.593 358.247 119.784 358.279 120.039C358.343 121.728 358.979 136.552 357.579 138.528C356.307 140.25 348.928 145.956 347.274 147.199L363.177 182.137L390.436 179.555L392.249 151.503C390.277 149.877 379.526 140.983 378.763 138.847C377.682 135.85 377.713 120.517 377.713 119.88C377.713 119.625 377.936 119.401 378.19 119.401C378.445 119.401 378.668 119.625 378.668 119.88C378.668 120.039 378.668 135.659 379.685 138.528C380.226 139.995 387.987 146.753 393.076 150.929L393.267 151.088L391.359 180.448L362.573 183.158Z" fill="#0A3F64"/>
<path d="M358.183 89.2779C354.811 90.2661 346.541 92.5294 347.623 98.7138C348.863 105.759 351.662 114.621 353.189 119.275C353.794 121.124 355.67 122.208 357.547 121.889L378.826 118.128C380.766 117.777 382.166 116.024 382.039 114.047C381.625 107.385 380.639 93.2626 379.494 91.3181C375.613 84.6874 363.527 87.7159 358.183 89.2779Z" fill="#0A3F64"/>
<path d="M377.999 123.036C378.922 121.633 378.572 116.82 377.745 111.401C377.713 111.241 377.777 111.082 377.904 110.986C379.145 109.902 380.862 107.766 380.321 105.089C379.876 102.793 378.286 103.559 377.109 104.547C376.886 104.706 376.568 104.611 376.536 104.324C375.296 97.8205 373.928 92.21 373.928 92.21L348.673 96.6729C348.673 96.6729 349.754 102.475 351.122 108.946C351.186 109.233 354.971 124.566 355.83 125.873C356.307 126.575 357.038 127.116 357.993 127.467C357.993 127.467 359.837 128.519 369.03 126.893L377.999 123.036Z" fill="white"/>
<path d="M360.696 128.265C358.724 128.265 357.961 127.978 357.77 127.882C356.72 127.468 355.925 126.862 355.416 126.097C354.494 124.694 350.677 109.17 350.645 109.01C349.277 102.603 348.196 96.801 348.196 96.7372L348.1 96.259L374.278 91.6367L374.373 92.083C374.373 92.1468 375.741 97.6936 376.95 104.069C377.999 103.24 378.858 102.953 379.558 103.208C380.162 103.432 380.576 104.037 380.798 105.026C381.434 108.181 379.208 110.509 378.222 111.369C379.24 118.064 379.303 121.985 378.413 123.324C378.254 123.547 377.967 123.61 377.745 123.451C377.522 123.292 377.459 123.005 377.618 122.782C378.031 122.144 378.54 119.849 377.3 111.497C377.236 111.178 377.363 110.859 377.618 110.636C378.476 109.903 380.417 107.863 379.876 105.217C379.781 104.802 379.621 104.26 379.272 104.133C378.89 104.005 378.222 104.292 377.427 104.962C377.204 105.153 376.886 105.217 376.632 105.089C376.345 104.994 376.154 104.739 376.091 104.452C375.041 99.0643 373.928 94.2188 373.578 92.7843L349.214 97.0879C349.5 98.5861 350.422 103.527 351.567 108.851C351.695 109.457 355.448 124.439 356.211 125.619C356.593 126.224 357.261 126.703 358.152 127.021L358.215 127.053C358.215 127.053 360.219 127.946 368.934 126.416C369.189 126.384 369.443 126.543 369.475 126.798C369.507 127.053 369.348 127.308 369.093 127.34C365.054 128.041 362.414 128.265 360.696 128.265Z" fill="#0A3F64"/>
<path d="M367.726 109.011C367.376 109.011 367.026 108.756 366.962 108.405L366.835 107.895C366.74 107.481 366.994 107.035 367.44 106.939C367.885 106.843 368.298 107.098 368.394 107.545L368.521 108.055C368.616 108.469 368.362 108.915 367.917 109.011C367.821 109.011 367.789 109.011 367.726 109.011Z" fill="#0A3F64"/>
<path d="M356.848 110.921C356.466 110.921 356.148 110.666 356.052 110.284L355.925 109.678C355.83 109.232 356.116 108.818 356.561 108.754C356.975 108.658 357.42 108.945 357.484 109.391L357.611 109.997C357.706 110.443 357.42 110.858 356.975 110.921C356.943 110.921 356.879 110.921 356.848 110.921Z" fill="#0A3F64"/>
<path d="M370.811 104.452C370.779 104.452 370.748 104.452 370.684 104.452C367.217 103.624 364.609 104.006 364.577 104.006C364.322 104.038 364.068 103.879 364.036 103.624C364.004 103.369 364.163 103.114 364.418 103.082C364.545 103.05 367.249 102.635 370.907 103.528C371.161 103.592 371.32 103.847 371.256 104.102C371.225 104.293 371.034 104.452 370.811 104.452Z" fill="#0A3F64"/>
<path d="M362 116.152C361.968 116.152 361.968 116.152 361.936 116.152C361.268 116.056 359.074 115.673 358.692 114.685C358.533 114.239 358.66 113.091 359.01 110.382C359.233 108.565 359.583 105.823 359.424 105.345C359.424 105.313 359.328 105.249 359.074 105.217C357.801 104.994 355.193 105.823 353.826 107.13C353.635 107.321 353.348 107.321 353.158 107.13C352.967 106.939 352.967 106.652 353.158 106.461C354.812 104.867 357.897 103.974 359.36 104.325C359.996 104.452 360.219 104.771 360.314 105.026C360.569 105.664 360.346 107.544 359.964 110.541C359.774 112.039 359.519 114.08 359.614 114.43C359.71 114.685 360.919 115.1 362.064 115.259C362.318 115.291 362.509 115.546 362.477 115.801C362.445 115.992 362.223 116.152 362 116.152Z" fill="#0A3F64"/>
<path d="M373.96 95.2389C373.96 95.2389 355.13 108.213 341.198 98.3311C333.151 92.6249 352.49 91.9555 359.933 91.2542C367.376 90.5528 377.904 90.0109 373.96 95.2389Z" fill="#0A3F64"/>
<path d="M229.3 144.84L255.35 188.545H300.198L277.297 144.84H229.3Z" fill="#DBE2F8"/>
<path d="M300.962 189.022H255.064L228.473 144.361H277.583L277.711 144.616L300.962 189.022ZM255.604 188.066H299.403L277.011 145.318H230.159L255.604 188.066Z" fill="#0A3F64"/>
<path d="M288.652 181.564C288.493 181.564 288.302 181.468 288.239 181.309L272.335 150.578C272.208 150.355 272.303 150.068 272.526 149.941C272.748 149.813 273.035 149.909 273.162 150.132L289.066 180.863C289.193 181.086 289.097 181.373 288.875 181.5C288.811 181.564 288.748 181.564 288.652 181.564Z" fill="white"/>
<path d="M382.643 139.103C379.017 138.21 365.913 149.145 358.851 147.136C356.72 146.531 354.939 141.94 354.176 139.581C350.772 129.093 331.402 174.583 325.231 175.986L297.177 177.707L304.333 185.9C304.333 185.9 319.919 193.551 319.028 197.153C318.774 198.173 366.962 239.806 367.662 239.041C409.87 191.861 399.183 143.215 382.643 139.103Z" fill="#FFB900"/>
<path d="M305.383 197.505L297.813 194.413C297.813 194.413 293.105 196.804 291.515 196.358C288.239 195.433 283.118 186.858 283.881 185.041C284.645 183.224 295.364 182.778 295.364 182.778C295.364 182.778 294.123 178.761 294.06 177.741C294.06 177.518 296.986 177.486 297.813 177.868C298.926 178.379 300.803 180.865 300.803 180.865L309.009 190.014L305.383 197.505Z" fill="white"/>
<path d="M305.637 198.141L297.845 194.953C296.827 195.463 292.978 197.28 291.419 196.834C288.875 196.132 285.758 191.638 284.326 188.673C283.468 186.856 283.149 185.581 283.468 184.879C284.231 183.094 291.642 182.52 294.727 182.361C294.377 181.182 293.646 178.631 293.582 177.802C293.582 177.611 293.646 177.452 293.805 177.356C294.314 177.006 297.177 177.101 298.004 177.484C299.149 178.026 300.93 180.289 301.184 180.608L309.581 190.012L305.637 198.141ZM297.781 193.901L305.16 196.897L308.436 190.139L300.421 181.182C299.912 180.512 298.417 178.727 297.59 178.344C297.049 178.089 295.3 178.057 294.568 178.121C294.759 179.237 295.491 181.692 295.777 182.648L295.968 183.254L295.364 183.285C290.37 183.509 284.708 184.306 284.326 185.262C284.231 185.517 284.295 186.41 285.185 188.29C286.744 191.542 289.734 195.367 291.674 195.941C292.692 196.228 295.872 194.921 297.622 194.028L297.781 193.901Z" fill="#0A3F64"/>
<path d="M385.728 161.993C377.363 154.852 371.415 207.674 348.927 197.696C325.421 187.24 306.846 181.693 306.369 182.458C306.369 182.458 301.534 199.991 301.566 200.437C301.566 200.437 320.555 210.224 348.068 223.74C359.551 229.383 372.751 215.962 386.651 207.004C394.507 201.936 393.776 168.846 385.728 161.993Z" fill="#FFB900"/>
<path d="M357.388 226.576C354.271 226.576 351.122 225.779 347.846 224.185C342.566 221.603 337.222 218.957 331.974 216.343C331.751 216.216 331.656 215.929 331.751 215.705C331.878 215.482 332.165 215.387 332.387 215.482C337.636 218.096 342.979 220.742 348.259 223.324C358.247 228.234 366.994 225.46 377.522 214.112C377.713 213.92 377.999 213.92 378.19 214.08C378.381 214.271 378.381 214.558 378.222 214.749C373.069 220.296 368.552 223.675 364.004 225.365C361.809 226.162 359.614 226.576 357.388 226.576Z" fill="#0A3F64"/>
<path d="M375.296 176.496C375.073 176.368 374.787 176.464 374.66 176.687L374.628 176.719C365.913 192.722 360.665 202.381 349.118 197.248C339.831 193.104 331.847 189.98 325.994 187.844L349.405 155.647C349.564 155.424 349.5 155.137 349.309 154.978C349.087 154.819 348.8 154.882 348.641 155.074L325.072 187.526C322.686 186.665 320.683 185.964 319.156 185.422C315.53 184.178 312.381 183.222 310.027 182.584C306.337 181.596 306.147 181.915 305.956 182.234L305.924 182.298L301.375 199.161C301.312 199.416 301.471 199.671 301.725 199.735C301.757 199.735 301.821 199.767 301.853 199.767C302.075 199.767 302.266 199.639 302.298 199.416L306.751 182.871C308.119 182.935 314.925 184.816 325.072 188.514C325.072 188.514 325.104 188.514 325.104 188.546C331.752 190.968 339.799 194.156 348.705 198.141C354.558 200.723 359.074 199.99 363.464 195.782C367.439 191.925 370.97 185.422 375.455 177.197L375.487 177.165C375.614 176.91 375.55 176.623 375.296 176.496Z" fill="#0A3F64"/>
<path d="M366.58 116.949C367.121 117.395 365.722 119.881 363.431 120.391C359.71 121.252 357.865 119.052 358.819 118.989C359.201 118.957 360.728 119.339 362.954 118.797C365.34 118.192 366.23 116.662 366.58 116.949Z" fill="#0A3F64"/>
<path d="M258.213 166.679C258.213 169.07 260.089 171.046 262.411 171.046C264.733 171.046 266.61 169.102 266.61 166.679C266.61 164.288 264.733 162.312 262.411 162.312C260.121 162.312 258.213 164.288 258.213 166.679Z" fill="#00AAB8"/>
<path d="M262.411 171.525C259.835 171.525 257.736 169.357 257.736 166.679C257.736 164.002 259.835 161.834 262.411 161.834C264.988 161.834 267.087 164.002 267.087 166.679C267.087 169.357 264.988 171.525 262.411 171.525ZM262.411 162.79C260.344 162.79 258.69 164.544 258.69 166.679C258.69 168.815 260.344 170.569 262.411 170.569C264.479 170.569 266.133 168.815 266.133 166.679C266.133 164.544 264.479 162.79 262.411 162.79Z" fill="#0A3F64"/>
<path d="M259.803 58.707H52.3549V72.6696H259.803V58.707Z" fill="#00AAB8"/>
<path d="M260.312 73.1484H51.8778V58.2295H260.28V73.1484H260.312ZM52.832 72.1921H259.326V59.1858H52.832V72.1921Z" fill="#0A3F64"/>
<path d="M244.027 45.2236H167.562V58.7399H244.027V45.2236Z" fill="#0A3F64"/>
<path d="M262.189 31.7061H174.273V45.2224H262.189V31.7061Z" fill="#DBE2F8"/>
<path d="M262.666 45.7012H173.796V31.2285H262.666V45.7012ZM174.75 44.7448H261.712V32.1849H174.75V44.7448Z" fill="#0A3F64"/>
<path d="M164.958 1.28123L134.979 53.3193L144.317 58.7227L174.295 6.68456L164.958 1.28123Z" fill="#00AAB8"/>
<path d="M144.501 59.3763L134.355 53.5107L164.763 0.625L174.941 6.49057L144.501 59.3763ZM135.627 53.1282L144.12 58.0374L173.605 6.84123L165.112 1.932L135.627 53.1282Z" fill="#0A3F64"/>
<path d="M93.927 19.7812C93.7362 19.5899 93.4499 19.5899 93.2591 19.7812L86.3569 26.5075L86.166 11.5885C86.166 11.3335 85.9434 11.1104 85.6889 11.1104C85.4345 11.1104 85.2118 11.3335 85.2118 11.5885L85.4027 26.3162L78.7549 19.7493C78.5641 19.558 78.2778 19.558 78.087 19.7493C77.8961 19.9406 77.8961 20.2275 78.087 20.4187L85.4027 27.6551L85.4663 32.915C85.4663 33.17 85.6889 33.3931 85.9434 33.3931C86.1979 33.3931 86.4205 33.17 86.4205 32.915L86.3569 27.8145L93.8952 20.4506C94.1179 20.2594 94.1179 19.9725 93.927 19.7812Z" fill="#0A3F64"/>
<path d="M86.8978 58.7064C77.3238 58.7064 69.5309 50.9281 69.5309 41.3009V32.917H104.265V41.3009C104.233 50.9281 96.4718 58.7064 86.8978 58.7064Z" fill="#FFB900"/>
<path d="M82.0947 52.5863C82.0311 52.5863 81.9357 52.5544 81.8721 52.5225C74.0792 48.5378 74.0474 37.763 74.0474 37.2848C74.0474 37.0298 74.2701 36.8066 74.5245 36.8066C74.779 36.8066 75.0016 37.0298 75.0016 37.2848C75.0016 37.3804 75.0335 47.9321 82.3174 51.6618C82.54 51.7893 82.6355 52.0762 82.54 52.2994C82.4128 52.4907 82.2538 52.5863 82.0947 52.5863Z" fill="white"/>
<path d="M90.5556 6.87128C90.5556 9.58091 88.3609 11.7486 85.6891 11.7486C82.9855 11.7486 80.8226 9.54904 80.8226 6.87128C80.8226 4.19352 83.0173 6.87128 85.6891 6.87128C88.3927 6.87128 90.5556 4.16164 90.5556 6.87128Z" fill="#FFB900"/>
<path d="M85.6891 12.2276C82.731 12.2276 80.3455 9.80491 80.3455 6.87213C80.3455 6.39395 80.4091 5.69264 80.8862 5.37386C81.4587 4.99132 82.1585 5.3101 83.0173 5.69264C83.7807 6.01142 84.7031 6.42583 85.6891 6.42583C86.6433 6.42583 87.5975 6.01142 88.3609 5.69264C89.2515 5.3101 89.9513 5.0232 90.492 5.37386C91.0009 5.69264 91.0328 6.39395 91.0328 6.87213C91.0328 9.83679 88.6472 12.2276 85.6891 12.2276ZM81.4905 6.13893C81.4587 6.13893 81.4269 6.13893 81.4269 6.13893C81.4269 6.13893 81.2997 6.23456 81.2997 6.84025C81.2997 9.26298 83.2717 11.2394 85.6891 11.2394C88.1065 11.2394 90.0785 9.26298 90.0785 6.84025C90.0785 6.23456 89.9513 6.13893 89.9513 6.13893C89.8241 6.0433 89.0925 6.36208 88.7108 6.52147C87.8838 6.87213 86.8342 7.31842 85.6573 7.31842C84.4804 7.31842 83.4626 6.87213 82.6038 6.52147C82.3175 6.39395 81.7132 6.13893 81.4905 6.13893Z" fill="#0A3F64"/>
<path d="M100.32 19.7509C98.4437 21.6954 95.3584 21.7911 93.4181 19.9103C91.4779 18.0295 91.3825 14.9373 93.2591 12.9927C95.1357 11.0482 94.8495 14.491 96.7897 16.3718C98.7618 18.2526 102.197 17.8063 100.32 19.7509Z" fill="#FFB900"/>
<path d="M96.7898 21.7285C95.4539 21.7285 94.118 21.2504 93.1002 20.2303C90.9691 18.1901 90.8737 14.7791 92.9093 12.6433C93.2592 12.2926 93.7681 11.8145 94.3407 11.942C95.0086 12.0695 95.2949 12.7708 95.6766 13.6315C95.9946 14.3966 96.4081 15.3211 97.1079 15.9905C97.8076 16.6599 98.7619 17.0106 99.5252 17.2975C100.416 17.6482 101.147 17.9032 101.275 18.5726C101.402 19.1464 100.957 19.6884 100.639 20.039C99.6207 21.1866 98.2211 21.7285 96.7898 21.7285ZM94.1816 12.8983C94.1816 12.8983 93.9908 12.8983 93.6091 13.3446C91.9233 15.0979 91.9869 17.9032 93.7681 19.5927C95.5175 21.2823 98.3166 21.2185 100.002 19.4333C100.416 18.987 100.416 18.8276 100.416 18.8276C100.384 18.6683 99.6525 18.4132 99.239 18.2538C98.3802 17.9351 97.3305 17.5206 96.4717 16.7237C95.6447 15.9267 95.1995 14.8748 94.8178 14.0459C94.6587 13.6634 94.3407 12.9302 94.1816 12.8983C94.2134 12.8983 94.2134 12.8983 94.1816 12.8983Z" fill="#0A3F64"/>
<path d="M72.3935 20.0692C74.2701 22.0138 77.3555 22.1094 79.2957 20.2286C81.236 18.3478 81.3314 15.2556 79.4547 13.3111C77.5781 11.3665 77.8644 14.8094 75.9241 16.6902C73.9839 18.5391 70.5169 18.0928 72.3935 20.0692Z" fill="#FFB900"/>
<path d="M75.924 22.0465C75.8922 22.0465 75.8286 22.0465 75.7968 22.0465C74.3655 22.0146 73.0296 21.4089 72.0435 20.3888C71.6937 20.0382 71.2802 19.4962 71.4074 18.9224C71.5664 18.253 72.2662 17.998 73.1568 17.6792C73.9202 17.3923 74.8744 17.0416 75.5742 16.3722C76.2739 15.7028 76.6874 14.7464 77.0055 14.0132C77.3872 13.1206 77.6734 12.4193 78.3414 12.3237C78.9139 12.228 79.4547 12.6743 79.7727 13.025C80.7588 14.077 81.2995 15.4159 81.2677 16.8504C81.2359 18.2849 80.6315 19.6238 79.6137 20.612C78.6277 21.5364 77.3236 22.0465 75.924 22.0465ZM78.5322 13.2163C78.3732 13.2481 78.0551 13.9813 77.8961 14.3639C77.5462 15.1927 77.1009 16.2447 76.2421 17.0416C75.4151 17.8386 74.3337 18.253 73.4749 18.5718C73.0932 18.7312 72.3616 18.9862 72.298 19.1456C72.298 19.1456 72.298 19.305 72.7115 19.7513C73.5385 20.612 74.6199 21.0902 75.7968 21.122C76.9737 21.1539 78.0869 20.7076 78.9457 19.9107C80.6951 18.2211 80.7588 15.4159 79.1048 13.6626C78.7231 13.2163 78.5322 13.2163 78.5322 13.2163Z" fill="#0A3F64"/>
</g>
<defs>
<clipPath id="clip0">
<rect width="510" height="433" fill="white" transform="translate(0 0.625)"/>
</clipPath>
</defs>
</svg>
