<svg width="24" height="25" viewBox="0 0 24 25" fill="none" xmlns="http://www.w3.org/2000/svg">
<g clip-path="url(#clip0)">
<path d="M23.9163 14.0479L20.7628 7.29436C20.6703 7.10527 20.4699 6.9939 20.2605 7.01532H17.5814C17.2731 7.01532 17.0233 7.26519 17.0233 7.57346C17.0233 7.88172 17.2731 8.1316 17.5814 8.1316H19.8977L22.493 13.713H19.3116C17.8692 13.7059 16.5574 14.5476 15.9628 15.8619C15.5322 16.7658 14.6199 17.3414 13.6186 17.3409H10.3814C9.38012 17.3414 8.46789 16.7658 8.0372 15.8619C7.44262 14.5476 6.13079 13.7059 4.68835 13.713H1.56278L4.63253 8.1316H6.41859C6.72685 8.1316 6.97673 7.88172 6.97673 7.57346C6.97673 7.26519 6.72685 7.01532 6.41859 7.01532H4.29767C4.09597 6.99619 3.90106 7.09368 3.79535 7.26648L0.111639 14.02C0.0470592 14.0772 0.00705087 14.1572 0 14.2433V21.1921C0.0444419 22.7562 1.30997 24.0095 2.87441 24.0386H21.1256C22.6901 24.0095 23.9556 22.7562 24 21.1921V14.2433C23.9894 14.172 23.9605 14.1047 23.9163 14.0479ZM22.8837 21.1921C22.8403 22.1398 22.0739 22.8941 21.1256 22.9223H2.87441C1.92606 22.8941 1.15966 22.1399 1.11628 21.1921V14.8293H4.68835C5.68963 14.8289 6.60186 15.4044 7.03255 16.3084C7.62712 17.6226 8.93896 18.4643 10.3814 18.4572H13.6186C15.061 18.4643 16.3729 17.6226 16.9674 16.3084C17.3981 15.4044 18.3104 14.8289 19.3116 14.8293H22.8837V21.1921Z" fill="#08A8B4"/>
<path d="M11.6095 14.1319C11.8074 14.3477 12.1429 14.3621 12.3586 14.1641C12.3698 14.1538 12.3806 14.1431 12.3908 14.1319L16.1862 10.3086C16.3711 10.062 16.3211 9.71217 16.0745 9.52719C15.8761 9.37837 15.6032 9.37837 15.4047 9.52719L12.5582 12.3737V1.76908C12.5582 1.46082 12.3083 1.21094 12.0001 1.21094C11.6918 1.21094 11.4419 1.46082 11.4419 1.76908V12.3738L8.59542 9.52724C8.3488 9.34231 7.99898 9.39226 7.814 9.63888C7.66519 9.83732 7.66519 10.1102 7.814 10.3087L11.6095 14.1319Z" fill="#08A8B4"/>
</g>
<defs>
<clipPath id="clip0">
<rect width="24" height="24" fill="white" transform="translate(0 0.625)"/>
</clipPath>
</defs>
</svg>
