<svg width="78" height="156" viewBox="0 0 78 156" fill="none" xmlns="http://www.w3.org/2000/svg">
<path d="M69.5975 33.8412L75.5593 32.9235C81.521 14.4171 74.6857 0.324219 74.6857 0.324219C61.4301 0.783056 48.7641 10.6371 48.7641 10.6371L45.7068 5.10924C32.8879 8.01521 16.2911 26.3032 16.2911 26.3032L15.2429 36.6598C15.2429 36.6598 10.3293 33.0983 9.45583 33.8631C8.58231 34.6278 0 59.2958 0 59.2958V99.1054C8.0582 85.4714 15.4176 73.8038 22.0126 63.8841C22.0345 63.8186 22.0782 63.7312 22.1437 63.6656C22.1437 63.6438 22.1655 63.6219 22.2092 63.6001C26.14 57.6789 29.8088 52.3695 33.1718 47.65C33.3684 45.8802 34.9844 32.7269 38.3256 25.9536C41.5794 19.3332 38.3911 13.849 38.3474 13.8053C38.129 13.4339 38.2382 12.975 38.6095 12.7565C38.9807 12.538 39.4393 12.6473 39.6577 13.0187C39.8106 13.2809 43.3046 19.2677 39.6795 26.6309C37.2555 31.5907 35.7269 40.4179 35.0499 45.0281C38.7187 39.959 42.0162 35.611 44.9425 31.8966C60.9278 11.6422 69.3136 5.52438 69.663 5.28403C70.0124 5.04369 70.4929 5.10924 70.7331 5.45883C70.9733 5.80842 70.9078 6.28911 70.5584 6.52945C70.471 6.595 61.9324 12.8439 46.078 32.9672C40.7278 39.7405 34.1327 48.6551 26.3802 60.126C30.726 57.1545 38.6313 53.1779 51.0353 51.8233C70.5147 49.7257 73.1789 48.8517 73.2663 48.808C73.6594 48.6551 74.0961 48.8517 74.249 49.245C74.4019 49.6383 74.2053 50.0753 73.8122 50.2501C73.572 50.3375 70.9515 51.2333 51.1881 53.3527C32.6696 55.341 24.393 63.5127 23.3884 64.5615C22.4931 65.9161 21.5759 67.2926 20.6369 68.7129C21.6414 67.9918 22.8206 67.1834 24.1964 66.3531C28.7606 63.6438 36.4038 60.1697 46.9297 59.0991C66.4747 57.1108 69.7285 56.1494 69.8596 56.1057C70.2526 55.9747 70.6894 56.1931 70.8204 56.6083C70.9515 57.0016 70.7331 57.4386 70.34 57.5697C70.209 57.6134 67.0425 58.5966 47.1044 60.6286C27.5376 62.6169 17.9071 73.039 17.8198 73.1483C17.7979 73.1701 17.7542 73.2138 17.7324 73.2357C12.2729 81.7351 6.35484 91.327 0 102.121V155.783C49.6376 128.733 64.7276 91.3051 64.7276 91.3051L59.3992 83.1116L67.5447 83.9419C80.0579 54.9259 77.0006 39.2599 77.0006 39.2599L69.5975 33.8412Z" fill="#00929A"/>
</svg>
