<svg width="157" height="307" viewBox="0 0 157 307" fill="none" xmlns="http://www.w3.org/2000/svg">
<g clip-path="url(#clip0)">
<path d="M51.9272 280.05C46.0248 301.549 35.8702 308.272 30.5391 306.306C28.8255 305.671 27.6196 304.086 27.2388 301.803C25.5887 292.353 32.57 279.543 37.7108 272.693C40.1225 269.522 53.5139 274.469 51.9272 280.05Z" fill="#FFB900"/>
<path d="M51.9272 280.05C46.0248 301.486 35.8702 308.272 30.5391 306.306C47.1037 297.11 49.7693 275.23 49.7693 275.23C49.7693 275.23 51.2925 276.435 51.6733 277.45C52.4349 279.162 51.9272 280.05 51.9272 280.05Z" fill="black"/>
<path d="M38.5356 297.367C38.4086 297.367 38.2817 297.367 38.1548 297.303L30.2215 293.625C29.7138 293.435 29.5234 292.864 29.7772 292.357C29.9676 291.849 30.5388 291.659 31.0466 291.913L39.0433 295.591C39.551 295.781 39.7414 296.352 39.4876 296.859C39.2972 297.176 38.9164 297.367 38.5356 297.367Z" fill="black"/>
<path d="M40.5666 291.656C40.4396 291.656 40.3127 291.656 40.1858 291.592L32.189 287.914C31.6813 287.724 31.4909 287.153 31.7448 286.646C31.9352 286.138 32.5064 285.948 33.0141 286.202L41.0108 289.88C41.5186 290.07 41.709 290.641 41.4551 291.148C41.2647 291.466 40.8839 291.656 40.5666 291.656Z" fill="black"/>
<path d="M62.0183 199.699C62.0183 199.699 49.452 273.393 48.2461 277.198C46.9768 281.003 42.1533 285.887 40.3128 286.204C36.9491 286.775 34.6009 284.238 37.8376 274.725L36.6318 197.797L62.0183 199.699Z" fill="white"/>
<path d="M39.4241 287.218C37.9009 287.218 36.9489 286.52 36.4412 285.949C34.7911 284.047 34.918 280.305 36.822 274.597L35.5527 196.781L63.097 198.874L62.9066 199.889C62.3989 202.87 50.3403 273.709 49.071 277.515C47.7382 281.573 42.6609 286.774 40.3761 287.154C40.0588 287.218 39.7414 287.218 39.4241 287.218ZM37.5201 198.811L38.726 274.851L38.6625 274.978C36.4412 281.573 37.2028 283.856 37.9009 284.681C38.3452 285.188 39.1068 285.379 40.1222 285.252C41.5185 284.998 46.1515 280.495 47.3574 276.88C48.3094 273.963 56.56 226.271 60.9391 200.523L37.5201 198.811Z" fill="black"/>
<path d="M31.3006 273.394C17.6553 291.025 5.72368 293.371 1.59837 289.503C0.265584 288.234 -0.305612 286.332 0.202118 284.112C2.2965 274.726 13.5935 265.594 20.9556 261.154C24.3828 259.125 34.8547 268.828 31.3006 273.394Z" fill="#FFB900"/>
<path d="M31.3006 273.394C17.6553 290.961 5.72369 293.371 1.59839 289.502C20.3844 287.283 31.2371 268.066 31.2371 268.066C31.2371 268.066 32.1891 269.715 32.1891 270.857C32.1256 272.759 31.3006 273.394 31.3006 273.394Z" fill="black"/>
<path d="M12.7049 284.365C12.4511 284.365 12.1972 284.238 12.0068 284.048L6.041 277.642C5.6602 277.262 5.72366 276.627 6.10446 276.31C6.48526 275.93 7.11992 275.993 7.43725 276.374L13.4031 282.779C13.7839 283.16 13.7204 283.794 13.3396 284.111C13.1492 284.301 12.9588 284.365 12.7049 284.365Z" fill="black"/>
<path d="M16.7032 279.861C16.4494 279.861 16.1955 279.734 16.0051 279.544L10.0393 273.138C9.65849 272.758 9.72196 272.124 10.1028 271.806C10.4835 271.426 11.1182 271.489 11.4355 271.87L17.4014 278.275C17.7822 278.656 17.7187 279.29 17.3379 279.607C17.1475 279.797 16.9571 279.861 16.7032 279.861Z" fill="black"/>
<path d="M81.058 201.729C81.058 201.729 30.1581 265.022 27.556 268.066C24.9538 271.111 19.1784 273.901 17.3379 273.457C14.0377 272.696 13.6569 270.603 20.2573 263.056L58.591 192.914L81.058 201.729Z" fill="white"/>
<path d="M17.7188 274.469C17.465 274.469 17.2746 274.469 17.0842 274.405C16.0687 274.152 14.609 273.708 14.1647 272.313C13.53 270.41 15.0532 267.556 19.4324 262.546L58.0833 191.77L82.5813 201.346L81.7562 202.361C79.6619 204.961 30.7929 265.717 28.1907 268.761C25.8425 271.552 20.3844 274.469 17.7188 274.469ZM59.0353 194.116L21.0825 263.624L21.0191 263.687C16.4495 268.951 15.8148 270.917 16.0687 271.678C16.1322 271.805 16.2591 272.249 17.5919 272.503C18.8612 272.82 24.3193 270.41 26.858 267.429C29.2697 264.639 72.9979 210.225 79.5349 202.107L59.0353 194.116Z" fill="black"/>
<path d="M153.346 122.708C151.188 130.318 164.389 163.423 137.035 177.947C103.208 195.894 86.4528 205.217 86.4528 205.217L85.6912 215.491L30.5391 203.758C30.5391 203.758 34.347 189.426 41.3918 182.259C43.4227 180.23 68.6188 156.828 79.6619 152.579C93.8149 147.188 108.412 125.308 108.412 125.308L153.346 122.708Z" fill="black"/>
<path d="M96.2265 3.60526C98.7651 1.32216 107.143 0.0537616 112.474 1.06848C117.995 2.14661 135.766 67.786 135.766 67.786L97.6227 73.6206L91.2126 33.793C91.2126 33.793 90.3241 8.93252 96.2265 3.60526Z" fill="black"/>
<path d="M102.89 34.7448C102.89 34.7448 108.92 51.3607 108.158 53.4536C107.396 55.5464 104.287 63.5373 104.287 63.5373L124.152 91.6957L149.602 81.8022L142.239 59.6053C142.239 59.6053 123.58 46.414 122.248 44.6383C120.471 42.1649 118.186 33.2861 118.186 33.2861L102.89 34.7448Z" fill="white"/>
<path d="M123.834 92.9015L103.208 63.7284L103.398 63.2845C103.398 63.221 106.508 55.2936 107.27 53.2007C107.587 51.8689 104.858 42.9902 102.002 35.1261C101.812 34.6188 102.065 34.1114 102.573 33.9211C103.081 33.7309 103.589 33.9846 103.779 34.4919C105.62 39.5655 109.872 51.6787 109.047 53.8349C108.412 55.6107 106.064 61.699 105.366 63.4747L124.532 90.6183L148.459 81.2957L141.414 60.2403C137.733 57.6401 122.755 46.9856 121.486 45.2098C119.646 42.6096 117.361 33.9211 117.234 33.5406C117.107 33.0333 117.424 32.5259 117.932 32.3991C118.44 32.2722 118.947 32.5893 119.074 33.0967C119.709 35.5066 121.613 42.2291 123.009 44.1317C123.898 45.3367 135.576 53.8349 142.747 58.9085L143.001 59.0988L150.807 82.5006L123.834 92.9015Z" fill="black"/>
<path d="M90.2606 91.7578L72.6804 144.586L83.6601 149.406L102.51 101.334L90.2606 91.7578Z" fill="white"/>
<path d="M84.1679 150.674L71.5381 145.157L89.8164 90.1719L103.652 101.017L84.1679 150.674ZM73.8863 144.079L83.1524 148.137L101.367 101.651L90.7684 93.3429L73.8863 144.079Z" fill="black"/>
<path d="M128.34 44.7645C124.786 45.4621 117.742 60.4926 110.76 61.6341C108.602 62.0146 109.237 57.7655 107.65 55.9898C100.352 48.1892 96.4169 71.7179 93.1167 76.8549C85.1199 89.4119 80.8677 93.2171 80.7408 97.8468C80.6138 101.208 90.1338 101.208 92.2282 103.872C105.746 120.868 105.556 102.984 105.556 102.984C104.858 107.867 102.446 118.966 107.206 125.498C107.841 126.322 154.806 125.498 154.933 124.483C160.518 62.2683 144.588 41.5301 128.34 44.7645Z" fill="#FFB900"/>
<path d="M30.6025 123.722L58.7181 160.949H107.143L82.391 123.722H30.6025Z" fill="#DBE2F8"/>
<path d="M108.92 161.901H58.2103L28.6985 122.708H82.9621L108.92 161.901ZM59.1623 159.999H105.366L81.8832 124.674H32.5065L59.1623 159.999Z" fill="black"/>
<path d="M136.528 123.721C136.528 123.721 109.745 156.065 107.841 158.855C106.191 161.265 101.304 165.134 95.5283 162.787C85.6911 158.728 94.7033 158.475 95.4014 158.538C96.4803 158.665 100.034 156.255 100.034 156.255C100.034 156.255 95.1475 153.655 95.4014 151.815C95.6553 149.976 102.954 153.274 102.954 153.274L121.994 119.915L126.436 79.9609L141.922 96.4501L136.528 123.721Z" fill="white"/>
<path d="M99.146 164.438C97.8766 164.438 96.5439 164.184 95.2111 163.613C91.2127 161.964 89.753 160.759 90.0703 159.364C90.578 157.271 95.4649 157.525 95.5284 157.525C95.8457 157.525 96.9881 156.954 98.2574 156.193C96.4804 155.052 94.2591 153.339 94.5129 151.627C94.5764 151.12 94.8303 150.739 95.2745 150.485C96.7343 149.661 100.415 151.056 102.573 151.944L121.105 119.473L125.738 77.6797L142.938 96.008L137.48 124.039L137.353 124.23C137.099 124.547 110.57 156.574 108.729 159.301C107.016 161.647 103.462 164.438 99.146 164.438ZM92.1012 159.872C92.4186 160.189 93.3705 160.823 95.9092 161.901C101.494 164.184 105.937 159.998 107.079 158.286C108.92 155.559 133.291 126.196 135.639 123.278L140.843 96.7056L127.135 82.0556L122.882 120.107L103.335 154.354L102.573 153.974C100.098 152.832 97.4324 152.008 96.4169 152.071C96.7342 152.769 98.4478 154.164 100.542 155.242L101.938 156.003L100.669 156.891C99.2729 157.842 96.6708 159.491 95.4015 159.364C94.7033 159.428 92.7993 159.554 92.1012 159.872Z" fill="black"/>
<path d="M127.071 57.6372C116.536 59.6032 125.738 66.5159 118.059 89.1567C111.078 109.895 108.666 109.768 138.051 115.666C150.236 118.076 146.936 101.016 148.65 85.0979C149.729 75.9654 137.162 55.7346 127.071 57.6372Z" fill="#FFB900"/>
<path d="M140.272 116.811C139.511 116.811 138.749 116.747 137.924 116.557C122.121 113.386 115.647 111.991 113.426 108.122C111.585 104.951 113.045 100.639 115.774 92.9015C116.218 91.6331 116.663 90.2378 117.17 88.7792C119.138 82.9446 120.217 77.4271 120.471 71.9096C120.471 71.4022 120.915 70.9583 121.486 71.0217C121.994 71.0217 122.438 71.4656 122.375 72.0364C122.121 77.7442 120.978 83.3885 118.948 89.4134C118.44 90.872 117.996 92.2673 117.551 93.5357C115.14 100.512 113.68 104.698 115.076 107.171C116.853 110.278 123.454 111.737 138.241 114.654C140.526 115.098 142.176 114.845 143.446 113.893C146.619 111.42 146.809 104.38 147.063 96.3261C147.19 92.5844 147.317 88.7792 147.698 84.9106C147.761 84.4032 148.205 84.0227 148.777 84.0861C149.284 84.1496 149.665 84.5935 149.602 85.1643C149.221 88.906 149.094 92.7112 148.967 96.3896C148.713 104.951 148.459 112.371 144.588 115.415C143.446 116.367 142.049 116.811 140.272 116.811Z" fill="black"/>
<path d="M119.328 38.2974C121.105 36.0777 126.246 26.3111 125.421 23.3303C124.596 20.3496 121.296 21.7449 120.407 22.5693C119.836 23.0767 115.457 6.20703 115.457 6.20703L92.1011 11.8514C92.1011 11.8514 93.2435 28.0868 96.6706 35.9509C100.161 43.8783 104.604 44.7662 110.633 43.1173L119.328 38.2974Z" fill="white"/>
<path d="M106.191 44.7016C101.494 44.7016 98.3208 42.038 95.7822 36.2668C92.2915 28.3394 91.2126 12.4844 91.1492 11.8502L91.0857 11.0258L116.155 4.9375L116.409 5.82538C117.995 12.0405 119.899 18.8264 120.788 21.1095C121.676 20.6022 123.009 20.2216 124.215 20.6022C124.977 20.7924 125.929 21.4266 126.373 22.9487C127.388 26.5636 121.676 36.8376 120.09 38.8036C119.772 39.1841 119.138 39.311 118.757 38.9305C118.376 38.6134 118.249 37.9792 118.63 37.5986C120.534 35.2521 125.231 25.866 124.532 23.456C124.279 22.6316 123.898 22.4413 123.644 22.3779C122.819 22.1242 121.486 22.7584 121.105 23.1389L120.724 23.5195L120.153 23.3926C119.582 23.2024 118.947 23.0121 114.822 7.22061L93.1166 12.4844C93.3705 15.8457 94.6398 28.7833 97.5592 35.5058C100.859 43.0527 104.921 43.6235 110.379 42.1649C110.887 42.038 111.395 42.3551 111.522 42.799C111.649 43.3064 111.331 43.8138 110.824 43.9406C109.174 44.5114 107.65 44.7016 106.191 44.7016Z" fill="black"/>
<path d="M99.4 28.8465C98.9557 28.8465 98.5749 28.5294 98.448 28.0855L98.321 27.3245C98.2576 26.8171 98.5749 26.3097 99.0826 26.2463C99.5904 26.1829 100.098 26.5 100.162 27.0074L100.288 27.7684C100.352 28.2758 100.035 28.7831 99.5269 28.8465C99.5269 28.8465 99.4634 28.8465 99.4 28.8465Z" fill="black"/>
<path d="M109.681 25.9911C109.237 25.9911 108.856 25.674 108.729 25.23L108.602 24.469C108.539 23.9616 108.856 23.4543 109.364 23.3909C109.872 23.3274 110.379 23.6445 110.443 24.1519L110.57 24.9129C110.633 25.4203 110.316 25.9276 109.808 25.9911C109.808 25.9911 109.745 25.9911 109.681 25.9911Z" fill="black"/>
<path d="M107.587 22.1222C107.27 22.1222 106.952 21.9954 106.762 21.6783C106.508 21.2344 106.635 20.6636 107.079 20.3465C107.206 20.2831 109.491 18.8878 112.22 19.5855C112.728 19.7123 113.045 20.2197 112.918 20.727C112.791 21.2344 112.284 21.5515 111.776 21.4246C109.808 20.9173 108.095 21.9954 108.095 21.9954C107.904 22.0588 107.777 22.1222 107.587 22.1222Z" fill="black"/>
<path d="M101.367 35.2535C101.113 35.7608 103.525 36.9658 105.112 36.5218C109.11 35.4437 109.618 32.2727 108.856 32.9703C108.539 33.224 106.762 34.6827 104.731 35.0632C102.129 35.5071 101.684 34.6193 101.367 35.2535Z" fill="black"/>
<path d="M102.763 32.6532C100.986 32.6532 100.733 32.0824 100.542 31.8287C100.225 31.1945 100.415 30.6237 100.669 29.9895C100.986 29.2285 101.431 28.0235 101.494 25.8673C101.621 23.9647 101.431 23.4573 101.367 23.3305C101.304 23.3305 101.177 23.3305 101.05 23.3305H100.796C99.9075 23.267 97.7496 24.0915 96.6707 24.5989C96.163 24.7891 95.6553 24.5989 95.4014 24.1549C95.211 23.6476 95.4014 23.1402 95.8457 22.8865C96.163 22.7597 99.2094 21.3645 100.859 21.4279H101.05C101.494 21.4279 102.192 21.4913 102.7 22.0621C103.335 22.6963 103.462 23.8378 103.335 26.0575C103.208 28.5309 102.7 29.8627 102.383 30.7506V30.814C102.89 30.814 103.715 30.7506 104.477 30.6872C104.985 30.6237 105.493 30.9408 105.556 31.5116C105.619 32.019 105.302 32.5263 104.731 32.5897C103.969 32.6532 103.271 32.6532 102.763 32.6532Z" fill="black"/>
<path d="M111.522 125.944C111.078 125.944 110.633 125.627 110.57 125.119C106.191 97.3413 110.506 64.1094 110.57 63.7923C110.633 63.2849 111.141 62.9044 111.649 62.9679C112.156 63.0313 112.537 63.5386 112.474 64.046C112.41 64.3631 108.158 97.2779 112.474 124.802C112.537 125.309 112.22 125.817 111.712 125.88C111.585 125.944 111.585 125.944 111.522 125.944Z" fill="black"/>
<path d="M104.731 109.007C104.223 109.007 103.779 108.563 103.779 108.056V88.2052C103.779 87.6978 104.223 87.2539 104.731 87.2539C105.239 87.2539 105.683 87.6978 105.683 88.2052V108.056C105.683 108.626 105.239 109.007 104.731 109.007Z" fill="black"/>
<path d="M91.657 10.0111C91.657 10.0111 115.393 13.4357 121.423 23.5829C121.423 23.5829 122.755 22.7584 123.771 22.695C125.104 22.6316 125.611 22.9487 125.611 22.9487L120.788 6.01562L91.657 10.0111Z" fill="black"/>
<path d="M102.954 1.38574C102.954 1.38574 76.1077 2.40046 88.6105 46.9845C96.2899 74.3184 103.842 81.6116 103.842 81.6116C103.842 81.6116 100.415 72.289 96.9246 42.672C95.7187 32.5882 93.1166 27.6415 93.8782 21.6166C95.6553 8.61559 102.954 1.38574 102.954 1.38574Z" fill="black"/>
<path d="M105.239 1.00507C105.239 1.00507 145.286 -9.14207 133.291 75.9671L115.901 20.792L105.239 1.00507Z" fill="black"/>
<path d="M73.1248 143.7C73.1248 146.046 71.2208 147.949 68.8726 147.949C66.5243 147.949 64.6204 146.046 64.6204 143.7C64.6204 141.353 66.5243 139.451 68.8726 139.451C71.2208 139.387 73.1248 141.353 73.1248 143.7Z" fill="white"/>
<path d="M68.8724 148.901C66.0165 148.901 63.6682 146.554 63.6682 143.7C63.6682 140.847 66.0165 138.5 68.8724 138.5C71.7284 138.5 74.0767 140.847 74.0767 143.7C74.0767 146.554 71.7284 148.901 68.8724 148.901ZM68.8724 140.339C67.0319 140.339 65.5722 141.798 65.5722 143.637C65.5722 145.476 67.0319 146.935 68.8724 146.935C70.713 146.935 72.1727 145.476 72.1727 143.637C72.1727 141.861 70.713 140.339 68.8724 140.339Z" fill="black"/>
<path d="M62.0183 156.638C61.7009 156.638 61.4471 156.511 61.2567 156.257L42.788 130.699C42.4707 130.255 42.5976 129.684 42.9784 129.367C43.4227 129.05 43.9939 129.177 44.3112 129.557L62.8433 155.179C63.1607 155.623 63.0337 156.194 62.6529 156.511C62.4625 156.638 62.2087 156.638 62.0183 156.638Z" fill="white"/>
</g>
<defs>
<clipPath id="clip0">
<rect width="156" height="306" fill="white" transform="translate(0.0117188 0.625)"/>
</clipPath>
</defs>
</svg>
