<svg width="168" height="55" viewBox="0 0 168 55" fill="none" xmlns="http://www.w3.org/2000/svg">
<path d="M60.4423 28.3601H31.4208L16.4507 0.625H45.4722L60.4423 28.3601Z" fill="#F09700"/>
<path d="M16.4507 54.6253H45.4722L60.4423 28.3604H31.4208L16.4507 54.6253Z" fill="#E94F0F"/>
<path d="M31.5762 28.3742L16.3657 0.625L0.292969 27.5685L16.4223 54.625L31.5762 28.3742Z" fill="#EE7802"/>
<path d="M44.9348 15.4678H24.6777V17.5882H44.9207C45.5003 17.5882 45.9809 18.0688 45.9809 18.6484V24.9955C45.9809 25.5751 45.5003 26.0557 44.9207 26.0557H41.7259V21.829L35.3364 27.1159L41.7259 32.4028V28.1761H44.9207C46.6877 28.1761 48.1154 26.7484 48.1154 24.9955V18.6484C48.1296 16.8955 46.6877 15.4678 44.9348 15.4678Z" fill="white"/>
<path d="M31.0814 38.7504H17.228C16.6343 38.7504 16.1678 38.2697 16.1678 37.6902V29.2226C16.1678 28.643 16.6484 28.1624 17.228 28.1624H22.5573V26.042H17.228C15.461 26.042 14.0332 27.4697 14.0332 29.2226V37.6902C14.0332 39.443 15.461 40.8708 17.228 40.8708H31.0814V45.0975L37.4709 39.8106L31.0814 34.5237V38.7504Z" fill="white"/>
<path d="M15.0934 19.6948H21.4829C22.0625 19.6948 22.5431 19.2141 22.5431 18.6346V14.4079C22.5431 13.8283 22.0625 13.3477 21.4829 13.3477H15.0934C14.5138 13.3477 14.0332 13.8283 14.0332 14.4079V18.6346C14.0332 19.2283 14.5138 19.6948 15.0934 19.6948Z" fill="white"/>
<path d="M25.7522 30.2827H32.1417C32.7213 30.2827 33.2019 29.802 33.2019 29.2225V24.9958C33.2019 24.4162 32.7213 23.9355 32.1417 23.9355H25.7522C25.1726 23.9355 24.692 24.4162 24.692 24.9958V29.2225C24.6778 29.802 25.1584 30.2827 25.7522 30.2827Z" fill="white"/>
<path d="M47.0552 36.6299H40.6657C40.0861 36.6299 39.6055 37.1105 39.6055 37.6901V41.9168C39.6055 42.4964 40.0861 42.977 40.6657 42.977H47.0552C47.6348 42.977 48.1154 42.4964 48.1154 41.9168V37.6901C48.1296 37.1105 47.6489 36.6299 47.0552 36.6299Z" fill="white"/>
<path d="M70.9453 40.5601V37.2523C70.9453 36.8847 71.0584 36.6161 71.3129 36.291L85.2511 19.2004C85.3642 19.0449 85.3076 18.8753 85.0956 18.8753H72.0197C71.539 18.8753 71.2139 18.5502 71.2139 18.0695V14.9737C71.2139 14.4931 71.539 14.168 72.0197 14.168H90.75C91.2307 14.168 91.5558 14.4931 91.5558 14.9737V18.2957C91.5558 18.6633 91.4427 19.0449 91.1883 19.3135L77.0238 36.39C76.9108 36.5455 76.9673 36.7151 77.1794 36.7151H90.7924C91.2731 36.7151 91.5982 37.0402 91.5982 37.5208V40.5601C91.5982 41.0407 91.2731 41.3659 90.7924 41.3659H71.7369C71.2563 41.3517 70.9453 41.0407 70.9453 40.5601Z" fill="#E94F0F"/>
<path d="M94.1004 34.1987C93.5067 32.4316 93.1392 30.0285 93.1392 27.6819C93.1392 25.3353 93.4643 22.9887 94.0439 21.2782C95.5988 16.585 99.6983 13.7578 105.141 13.7578C110.315 13.7578 114.315 16.585 115.927 21.2358C116.563 23.0452 116.888 25.406 116.888 27.6395C116.888 29.9295 116.563 32.3327 115.927 34.1987C114.329 38.9484 110.272 41.7756 105.084 41.7756C99.769 41.7898 95.6554 38.9484 94.1004 34.1987ZM111.134 32.7568C111.502 31.4704 111.728 29.5479 111.728 27.7384C111.728 25.7594 111.516 23.95 111.191 22.7767C110.286 19.8929 108.039 18.1824 104.999 18.1824C102.059 18.1824 99.8256 19.8929 98.9208 22.7767C98.5533 23.95 98.3271 25.7594 98.3271 27.7384C98.3271 29.661 98.5392 31.5269 98.9208 32.7568C99.769 35.6405 102.073 37.351 105.112 37.351C107.982 37.351 110.23 35.6405 111.134 32.7568Z" fill="#E94F0F"/>
<path d="M137.343 14.1816H140.806C141.287 14.1816 141.612 14.5068 141.612 14.9874V40.5597C141.612 41.0403 141.287 41.3654 140.806 41.3654H137.343C136.862 41.3654 136.537 41.0403 136.537 40.5597V38.9623C136.537 38.7502 136.382 38.6937 136.212 38.8492C134.827 40.7152 132.692 41.733 129.695 41.733C124.62 41.733 119.984 38.7926 119.984 32.9261V14.9874C119.984 14.5068 120.309 14.1816 120.789 14.1816H124.267C124.748 14.1816 125.073 14.5068 125.073 14.9874V31.3146C125.073 34.9476 127.094 37.2942 130.671 37.2942C134.247 37.2942 136.537 34.9476 136.537 31.3146V14.9874C136.537 14.5068 136.862 14.1816 137.343 14.1816Z" fill="#E94F0F"/>
<path d="M163.381 14.1819H166.901C167.382 14.1819 167.707 14.507 167.707 14.9877V39.9662C167.707 50.1018 160.286 52.5049 151.861 51.8688C151.323 51.8688 151.111 51.5013 151.111 51.0206L151.224 47.8683C151.224 47.3877 151.592 47.0625 152.129 47.1191C159.437 47.5997 162.59 45.7903 162.59 39.8107V38.906C162.59 38.6939 162.434 38.6374 162.265 38.7929C160.879 40.3479 158.801 41.3515 155.748 41.3515C151.479 41.3515 147.097 39.1604 145.612 34.1987C145.075 32.3892 144.92 30.1416 144.92 27.6819C144.92 25.0667 145.075 22.7767 145.725 20.8541C147.054 16.684 150.631 13.7578 155.437 13.7578C158.476 13.7578 160.724 14.7191 162.265 16.373C162.42 16.585 162.59 16.4861 162.59 16.2599V14.9735C162.59 14.507 162.901 14.1819 163.381 14.1819ZM162.59 27.6395C162.59 24.4306 162.477 23.7379 162.222 22.6777C161.685 20.1756 159.664 18.1966 156.568 18.1966C153.472 18.1966 151.493 20.1756 150.701 22.6777C150.334 23.6955 150.108 25.1374 150.108 27.6395C150.108 30.2547 150.32 31.8521 150.645 32.6578C151.337 35.1599 153.472 37.139 156.568 37.139C159.819 37.139 161.742 35.1175 162.279 32.6578C162.477 31.64 162.59 30.8908 162.59 27.6395Z" fill="#E94F0F"/>
</svg>
