<svg width="212" height="55" viewBox="0 0 212 55" fill="none" xmlns="http://www.w3.org/2000/svg">
<path d="M60.7792 28.3601H31.7578L16.7876 0.625H45.8091L60.7792 28.3601Z" fill="#00A7B3"/>
<path d="M16.7876 54.6253H45.8091L60.7792 28.3604H31.7578L16.7876 54.6253Z" fill="#008187"/>
<path d="M31.9131 28.3742L16.7027 0.625L0.629883 27.5685L16.7592 54.625L31.9131 28.3742Z" fill="#059A9F"/>
<path d="M36.2528 25.7167H30.3722C29.7926 25.7167 29.3402 26.1832 29.3402 26.7487V28.0492H25.8769V26.7487C25.8769 24.2607 27.8842 22.2534 30.3722 22.2534H36.2528V17.0654C36.2528 16.1042 35.4753 15.3408 34.5282 15.3408H20.6889C19.7277 15.3408 18.9643 16.1183 18.9643 17.0654V30.9047C18.9643 31.866 19.7418 32.6293 20.6889 32.6293H25.8769V29.7738H29.3402V32.6293H34.5282C35.4895 32.6293 36.2528 31.8518 36.2528 30.9047V25.7167ZM39.7162 25.7167V30.9047C39.7162 33.7743 37.3978 36.0927 34.5282 36.0927H29.3402V40.2487C29.3402 40.8283 29.8067 41.2806 30.3722 41.2806H34.6978V44.744H30.3722C27.8842 44.744 25.8769 42.7366 25.8769 40.2487V36.1068H20.6889C17.8193 36.1068 15.501 33.7885 15.501 30.9188V17.0796C15.501 14.2099 17.8193 11.8916 20.6889 11.8916H34.5282C37.3978 11.8916 39.7162 14.2099 39.7162 17.0796V22.2675H43.8722V25.7309H39.7162V25.7167ZM48.3675 32.8979V40.2628C48.3675 42.7508 46.3601 44.7581 43.8722 44.7581H36.4366V41.2948H43.8722C44.4518 41.2948 44.9041 40.8283 44.9041 40.2628V32.8979H48.3675ZM43.8722 22.2675C46.3601 22.2675 48.3675 24.2748 48.3675 26.7628V31.1733H44.9041V26.7628C44.9041 26.1832 44.4376 25.7309 43.8722 25.7309V22.2675Z" fill="white"/>
<path d="M96.1477 27.6955C96.1477 30.3107 95.8791 32.6008 95.1864 34.5233C93.688 39.0044 90.3236 41.7893 85.0932 41.7893C82.6336 41.7893 80.4425 40.828 78.9016 39.0186C78.7461 38.8631 78.5765 38.962 78.5765 39.1741V40.5594C78.5765 41.04 78.2514 41.3652 77.7707 41.3652H74.2508C73.7702 41.3652 73.4451 41.04 73.4451 40.5594V4.79502C73.4451 4.31439 73.7702 3.98926 74.2508 3.98926H77.7707C78.2514 3.98926 78.5765 4.31439 78.5765 4.79502V16.3725C78.5765 16.5845 78.732 16.6411 78.9016 16.4856C80.4566 14.7186 82.6336 13.7573 85.0932 13.7573C90.4791 13.7573 93.9001 16.6411 95.3419 21.2353C95.9357 23.1013 96.1477 25.2924 96.1477 27.6955ZM91.0304 27.7945C91.0304 24.6421 90.3943 22.4086 89.3199 20.7547C88.2456 19.1008 86.6482 18.1961 84.5702 18.1961C82.5487 18.1961 81.0503 19.1573 80.0325 20.9243C79.1278 22.5217 78.6472 24.7128 78.6472 27.7521C78.6472 30.6924 79.0713 32.9259 79.9336 34.4809C80.9514 36.2903 82.4922 37.3646 84.5843 37.3646C86.9309 37.3646 88.698 36.3468 89.7016 34.4243C90.5498 32.8128 91.0304 30.6783 91.0304 27.7945Z" fill="#008187"/>
<path d="M116.376 14.1816H119.84C120.32 14.1816 120.646 14.5068 120.646 14.9874V40.5597C120.646 41.0403 120.32 41.3654 119.84 41.3654H116.376C115.896 41.3654 115.571 41.0403 115.571 40.5597V38.9623C115.571 38.7502 115.415 38.6937 115.246 38.8492C113.86 40.7152 111.726 41.733 108.729 41.733C103.654 41.733 99.0173 38.7926 99.0173 32.9261V14.9874C99.0173 14.5068 99.3425 14.1816 99.8231 14.1816H103.286C103.767 14.1816 104.092 14.5068 104.092 14.9874V31.3146C104.092 34.9476 106.114 37.2942 109.69 37.2942C113.267 37.2942 115.557 34.9476 115.557 31.3146V14.9874C115.585 14.5068 115.896 14.1816 116.376 14.1816Z" fill="#008187"/>
<path d="M124.392 6.77455C124.392 4.7955 125.833 3.41016 127.912 3.41016C129.99 3.41016 131.375 4.7955 131.375 6.77455C131.375 8.75361 129.99 10.139 127.912 10.139C125.833 10.1248 124.392 8.73948 124.392 6.77455ZM125.353 40.5599V14.9876C125.353 14.507 125.678 14.1819 126.159 14.1819H129.679C130.159 14.1819 130.484 14.507 130.484 14.9876V40.5599C130.484 41.0405 130.159 41.3657 129.679 41.3657H126.159C125.664 41.3515 125.353 41.0405 125.353 40.5599Z" fill="#008187"/>
<path d="M135.163 40.5594V4.79502C135.163 4.31439 135.488 3.98926 135.969 3.98926H139.489C139.97 3.98926 140.295 4.31439 140.295 4.79502V40.5594C140.295 41.04 139.97 41.3652 139.489 41.3652H135.969C135.488 41.351 135.163 41.04 135.163 40.5594Z" fill="#008187"/>
<path d="M161.966 3.98926H165.485C165.966 3.98926 166.291 4.31439 166.291 4.79502V40.5594C166.291 41.04 165.966 41.3652 165.485 41.3652H161.966C161.485 41.3652 161.16 41.04 161.16 40.5594V39.1741C161.16 38.962 161.004 38.8489 160.835 39.0186C159.28 40.828 157.103 41.7893 154.643 41.7893C149.413 41.7893 146.048 39.0186 144.55 34.5233C143.857 32.6008 143.589 30.3107 143.589 27.6955C143.589 25.2924 143.801 23.1013 144.394 21.2353C145.836 16.6411 149.257 13.7573 154.643 13.7573C157.103 13.7573 159.294 14.7186 160.835 16.4856C160.99 16.6411 161.16 16.5987 161.16 16.3725V4.79502C161.16 4.31439 161.485 3.98926 161.966 3.98926ZM161.103 27.7521C161.103 24.7128 160.623 22.5217 159.718 20.9243C158.7 19.1573 157.216 18.1961 155.18 18.1961C153.102 18.1961 151.491 19.1008 150.43 20.7547C149.356 22.4086 148.72 24.6563 148.72 27.7945C148.72 30.6783 149.201 32.8128 150.049 34.4102C151.067 36.3327 152.82 37.3505 155.166 37.3505C157.244 37.3505 158.799 36.2762 159.817 34.4667C160.679 32.9259 161.103 30.6783 161.103 27.7521Z" fill="#008187"/>
<path d="M188.231 34.0431C188.499 33.5625 188.824 33.407 189.305 33.718L191.496 35.0468C191.92 35.3154 192.033 35.6829 191.821 36.1635C189.955 39.5279 186.435 41.7614 181.572 41.7614C176.455 41.7614 172.978 39.3583 171.211 35.2447C170.362 33.1667 169.882 30.5515 169.882 27.6112C169.882 25.1515 169.995 23.3421 170.476 21.6881C171.762 16.8253 175.762 13.7295 181.318 13.7295C188.315 13.7295 191.51 17.6311 192.528 24.0347C192.74 25.4766 192.853 27.0175 192.895 28.841C192.895 29.3782 192.57 29.6468 192.09 29.6468H175.225C175.07 29.6468 174.957 29.7599 174.957 29.9154C175.013 31.2017 175.112 32.163 175.324 32.7991C176.073 35.5698 178.533 37.3934 182.053 37.3934C184.965 37.351 187.057 36.1211 188.231 34.0431ZM175.466 22.4091C175.197 23.2148 175.042 24.2185 174.985 25.3918C174.985 25.5473 175.098 25.6604 175.254 25.6604H187.368C187.524 25.6604 187.637 25.5473 187.637 25.3918C187.58 24.3175 187.481 23.3703 187.312 22.7766C186.619 20.0483 184.484 18.1824 181.276 18.1824C178.081 18.1965 176.158 19.8928 175.466 22.4091Z" fill="#008187"/>
<path d="M210.905 14.5063C211.329 14.7184 211.442 15.1001 211.329 15.5241L210.58 18.9875C210.467 19.5812 210.156 19.6236 209.618 19.4681C208.982 19.2561 208.021 19.143 207.003 19.2561C203.752 19.3692 201.236 21.6592 201.236 25.2357V40.5592C201.236 41.0398 200.911 41.365 200.43 41.365H196.91C196.429 41.365 196.104 41.0398 196.104 40.5592V14.987C196.104 14.5063 196.429 14.1812 196.91 14.1812H200.43C200.911 14.1812 201.236 14.5063 201.236 14.987V17.4467C201.236 17.7152 201.391 17.7718 201.504 17.5597C202.946 15.3686 205.081 13.9268 208.021 13.9268C209.307 13.9268 210.212 14.1812 210.905 14.5063Z" fill="#008187"/>
</svg>
