<svg width="159" height="55" viewBox="0 0 159 55" fill="none" xmlns="http://www.w3.org/2000/svg">
<path d="M78.6115 43.2601C77.0848 42.6523 75.8974 41.8324 75.0775 40.8146C74.2434 39.7968 73.8335 38.6659 73.8335 37.4078V36.7999C73.8335 36.4607 74.0031 36.291 74.3565 36.291H76.8869C77.2403 36.291 77.4099 36.4607 77.4099 36.7999V37.2099C77.4099 38.3266 78.0178 39.302 79.2335 40.136C80.4492 40.9701 81.9618 41.38 83.7995 41.38C85.623 41.38 87.1073 40.9842 88.2382 40.1784C89.3691 39.3868 89.9204 38.369 89.9204 37.1533C89.9204 36.3052 89.6235 35.6125 89.044 35.0612C88.4644 34.524 87.7717 34.0999 86.9801 33.7889C86.1885 33.4779 84.9728 33.0963 83.3188 32.6156C81.3539 32.0785 79.7283 31.5271 78.4701 30.99C77.1979 30.4528 76.1377 29.6895 75.2754 28.7282C74.4131 27.7669 73.989 26.5371 73.989 25.0387C73.989 22.8758 74.8654 21.1371 76.6324 19.8507C78.3853 18.5643 80.7178 17.9141 83.6015 17.9141C85.5382 17.9141 87.2487 18.2251 88.7471 18.8329C90.2455 19.4408 91.3906 20.2889 92.2104 21.3491C93.0162 22.4235 93.4262 23.6109 93.4262 24.9397V25.0952C93.4262 25.4345 93.2565 25.6041 92.9031 25.6041H90.4293C90.0759 25.6041 89.9063 25.4345 89.9063 25.0952V24.9397C89.9063 23.7806 89.3408 22.8193 88.1958 22.0418C87.0508 21.2643 85.5099 20.8685 83.5733 20.8685C81.778 20.8685 80.3361 21.2219 79.2476 21.9146C78.1591 22.6073 77.6078 23.5685 77.6078 24.7842C77.6078 25.9434 78.1309 26.8198 79.1911 27.4277C80.2513 28.0355 81.8769 28.6434 84.0963 29.2654C86.1319 29.8449 87.7858 30.3821 89.0581 30.891C90.3303 31.3999 91.4188 32.135 92.3235 33.1104C93.2424 34.0716 93.6947 35.3439 93.6947 36.8989C93.6947 39.1041 92.8042 40.8711 91.0089 42.1858C89.2136 43.5146 86.8387 44.1648 83.8843 44.1648C81.8911 44.179 80.1382 43.868 78.6115 43.2601Z" fill="#F09700"/>
<path fill-rule="evenodd" clip-rule="evenodd" d="M83.6014 19.0812C80.8868 19.0812 78.82 19.6931 77.3231 20.7916L77.3213 20.7929L77.3195 20.7942C75.8551 21.8603 75.1564 23.2477 75.1564 25.0383C75.1564 26.3026 75.5073 27.238 76.1443 27.9481C76.8902 28.7796 77.8081 29.4427 78.9241 29.914L78.9263 29.9149L78.9285 29.9158C80.1233 30.426 81.6954 30.961 83.6266 31.489L83.6355 31.4914L83.6445 31.494C85.2963 31.9741 86.5595 32.3689 87.4069 32.7018C88.3201 33.0606 89.1406 33.5586 89.8375 34.2045L89.843 34.2096L89.8485 34.2148C90.6676 34.994 91.0878 35.996 91.0878 37.1529C91.0878 38.7904 90.3157 40.1474 88.9115 41.1318C87.5265 42.117 85.783 42.5472 83.7993 42.5472C81.786 42.5472 80.0273 42.0963 78.5728 41.0984C77.2256 40.1742 76.3377 38.9628 76.2494 37.4582H75.0012C75.0118 38.4156 75.3224 39.2711 75.9804 40.0742L75.9835 40.0779L75.9866 40.0817C76.6511 40.9067 77.6547 41.6222 79.0432 42.175C80.4093 42.7189 82.0094 43.0101 83.8758 42.9969L83.88 42.9969H83.8841C86.6739 42.9969 88.7791 42.3831 90.3141 41.2469L90.3165 41.2451L90.3189 41.2434C91.8137 40.1488 92.527 38.7317 92.527 36.8985C92.527 35.5818 92.1512 34.6196 91.4794 33.9168L91.4733 33.9104L91.4674 33.904C90.6862 33.0618 89.7443 32.4227 88.6243 31.9747C87.4062 31.4874 85.7965 30.9631 83.7786 30.3885C81.535 29.7596 79.798 29.1212 78.6102 28.4402C77.94 28.0559 77.3839 27.5536 76.9998 26.9118C76.6141 26.2671 76.4401 25.5454 76.4401 24.7838C76.4401 23.1383 77.222 21.8192 78.6206 20.9292C79.9536 20.0809 81.6349 19.7005 83.5731 19.7005C85.6576 19.7005 87.4523 20.1254 88.8515 21.0755C90.0998 21.923 90.8927 23.047 91.0463 24.4361H92.2336C92.1469 23.5752 91.8328 22.7936 91.2814 22.0562C90.6055 21.1848 89.6401 20.4548 88.308 19.9144C86.9705 19.3719 85.4126 19.0812 83.6014 19.0812ZM75.9433 18.9077C77.9519 17.4344 80.5494 16.7461 83.6014 16.7461C85.6635 16.7461 87.5265 17.0775 89.1858 17.7506C90.8472 18.4245 92.1703 19.3884 93.1339 20.6345L93.1392 20.6413L93.1443 20.6482C94.0955 21.9164 94.5936 23.3478 94.5936 24.9393V25.0948C94.5936 25.4445 94.5051 25.9274 94.114 26.3106C93.7276 26.6891 93.2477 26.7713 92.903 26.7713H90.4291C90.0843 26.7713 89.6045 26.6891 89.2181 26.3106C88.827 25.9274 88.7385 25.4445 88.7385 25.0948V24.9393C88.7385 24.244 88.4342 23.6147 87.5397 23.0073C86.6489 22.4025 85.3619 22.0357 83.5731 22.0357C81.9207 22.0357 80.7183 22.3621 79.8743 22.8992C79.096 23.3945 78.7752 23.9979 78.7752 24.7838C78.7752 25.1814 78.8628 25.4775 79.0036 25.7128C79.1461 25.951 79.3817 26.1908 79.7717 26.4144C80.7039 26.9488 82.2173 27.5259 84.4112 28.1407L84.4136 28.1414L84.4159 28.142C86.4682 28.7264 88.1656 29.2762 89.4916 29.8066C90.9133 30.3753 92.1465 31.2043 93.1735 32.3097C94.3351 33.5285 94.8622 35.1084 94.8622 36.8985C94.8622 39.4747 93.7951 41.591 91.701 43.1256C89.6466 44.6452 87.0043 45.3314 83.888 45.332C81.7698 45.3466 79.8657 45.0158 78.1795 44.3445C76.5163 43.6823 75.1461 42.7592 74.1711 41.5504C73.1747 40.3329 72.6658 38.944 72.6658 37.4074V36.7995C72.6658 36.4499 72.7542 35.9669 73.1453 35.5838C73.5317 35.2052 74.0116 35.1231 74.3564 35.1231H76.8867C77.2315 35.1231 77.7114 35.2052 78.0978 35.5838C78.4889 35.9669 78.5773 36.4499 78.5773 36.7995V37.2095C78.5773 37.8226 78.8831 38.4795 79.8938 39.1729C80.8707 39.8431 82.1372 40.2121 83.7993 40.2121C85.4608 40.2121 86.6844 39.8514 87.5605 39.2272L87.5645 39.2243L87.5685 39.2215C88.4236 38.623 88.7527 37.9453 88.7527 37.1529C88.7527 36.6163 88.5809 36.2341 88.2442 35.9117C87.783 35.4857 87.2202 35.1374 86.553 34.8752C85.8185 34.5867 84.653 34.219 83.0018 33.739C81.0081 33.1937 79.3326 32.6273 78.0136 32.0643C76.5861 31.4612 75.3843 30.5979 74.4061 29.5074C73.3186 28.2951 72.8213 26.7708 72.8213 25.0383C72.8213 22.5039 73.8748 20.4143 75.9433 18.9077Z" fill="#F09700"/>
<path d="M131.113 20.1192C132.64 21.6459 133.403 23.7239 133.403 26.3815V43.4155C133.403 43.7547 133.233 43.9244 132.88 43.9244H130.236C129.883 43.9244 129.713 43.7547 129.713 43.4155V27.0883C129.713 25.2223 129.162 23.738 128.045 22.6354C126.943 21.5328 125.487 20.9815 123.691 20.9815C121.825 20.9815 120.327 21.5186 119.182 22.6071C118.037 23.6956 117.472 25.1516 117.472 26.9752V43.4013C117.472 43.7406 117.302 43.9102 116.949 43.9102H114.263C113.909 43.9102 113.74 43.7406 113.74 43.4013V27.0883C113.74 25.2223 113.188 23.738 112.1 22.6354C111.011 21.5328 109.555 20.9815 107.718 20.9815C105.852 20.9815 104.367 21.5186 103.265 22.6071C102.162 23.6956 101.597 25.1516 101.597 26.9752V43.4013C101.597 43.7406 101.427 43.9102 101.074 43.9102H98.3878C98.0344 43.9102 97.8647 43.7406 97.8647 43.4013V18.6914C97.8647 18.3521 98.0344 18.1825 98.3878 18.1825H101.074C101.427 18.1825 101.597 18.3521 101.597 18.6914V20.727C101.597 20.7977 101.625 20.8401 101.681 20.8542C101.738 20.8684 101.795 20.8401 101.865 20.7836C102.643 19.794 103.632 19.0589 104.848 18.5642C106.064 18.0694 107.407 17.8291 108.891 17.8291C110.714 17.8291 112.284 18.1825 113.584 18.9034C114.885 19.6103 115.874 20.6563 116.539 21.9993C116.609 22.1689 116.694 22.1689 116.807 21.9993C117.585 20.6139 118.673 19.5678 120.073 18.8752C121.486 18.1825 123.084 17.8291 124.879 17.8291C127.494 17.8291 129.586 18.5925 131.113 20.1192Z" fill="#F09700"/>
<path fill-rule="evenodd" clip-rule="evenodd" d="M108.891 18.9963C107.534 18.9963 106.344 19.2155 105.288 19.6452C104.305 20.0455 103.515 20.6191 102.885 21.3785C104.19 20.3056 105.834 19.8135 107.718 19.8135C109.807 19.8135 111.583 20.4499 112.931 21.8147C114.276 23.177 114.907 24.9779 114.907 27.0879V42.7423H116.304V26.9748C116.304 25.5322 116.619 24.2345 117.281 23.1261C117.128 23.2138 116.918 23.2937 116.657 23.2937C116.216 23.2937 115.906 23.0686 115.738 22.8881C115.606 22.7452 115.526 22.5956 115.48 22.4923C114.919 21.3693 114.1 20.5125 113.027 19.9289L113.022 19.9266L113.018 19.9242C111.929 19.3206 110.566 18.9963 108.891 18.9963ZM118.296 21.8396C118.323 21.8131 118.35 21.7867 118.378 21.7605C119.78 20.4276 121.586 19.8135 123.692 19.8135C125.743 19.8135 127.513 20.4526 128.868 21.8066C130.249 23.1715 130.881 24.9782 130.881 27.0879V42.7564H132.235V26.3811C132.235 23.9592 131.548 22.2049 130.287 20.9443C129.026 19.6832 127.257 18.9963 124.879 18.9963C123.242 18.9963 121.824 19.3172 120.588 19.9223C119.664 20.3801 118.902 21.0165 118.296 21.8396ZM102.375 21.8459C102.163 21.9653 101.819 22.0917 101.398 21.9865C101.132 21.9199 100.845 21.7567 100.647 21.4591C100.464 21.1852 100.429 20.9063 100.429 20.7266V19.3497H99.0324V42.7423H100.429V26.9748C100.429 24.927 101.063 23.1791 102.375 21.8459ZM104.408 17.4823C105.783 16.9226 107.279 16.6611 108.891 16.6611C110.862 16.6611 112.635 17.0429 114.146 17.8795C115.169 18.4364 116.028 19.1754 116.713 20.0728C117.486 19.1357 118.435 18.3826 119.555 17.8284L119.557 17.8273L119.559 17.8263C121.15 17.0466 122.926 16.6611 124.879 16.6611C127.731 16.6611 130.146 17.5009 131.939 19.2932C133.731 21.086 134.571 23.4877 134.571 26.3811V43.4151C134.571 43.7647 134.482 44.2477 134.091 44.6308C133.705 45.0094 133.225 45.0916 132.88 45.0916H130.237C129.892 45.0916 129.412 45.0094 129.025 44.6308C128.634 44.2477 128.546 43.7647 128.546 43.4151V27.0879C128.546 25.4668 128.076 24.3059 127.225 23.4658L127.222 23.4632L127.22 23.4606C126.371 22.6113 125.229 22.1486 123.692 22.1486C122.065 22.1486 120.874 22.6089 119.987 23.4529C119.112 24.2842 118.639 25.4134 118.639 26.9748V43.4009C118.639 43.7506 118.551 44.2336 118.16 44.6167C117.773 44.9953 117.293 45.0774 116.949 45.0774H114.263C113.918 45.0774 113.438 44.9953 113.052 44.6167C112.661 44.2336 112.572 43.7506 112.572 43.4009V27.0879C112.572 25.4658 112.101 24.2982 111.269 23.4552C110.439 22.6148 109.304 22.1486 107.718 22.1486C106.088 22.1486 104.923 22.61 104.085 23.4376C103.239 24.2727 102.764 25.4115 102.764 26.9748V43.4009C102.764 43.7506 102.676 44.2336 102.285 44.6167C101.898 44.9953 101.419 45.0774 101.074 45.0774H98.3879C98.0431 45.0774 97.5632 44.9953 97.1768 44.6167C96.7857 44.2336 96.6973 43.7506 96.6973 43.4009V18.691C96.6973 18.3414 96.7857 17.8584 97.1768 17.4753C97.5632 17.0967 98.0431 17.0145 98.3879 17.0145H101.074C101.419 17.0145 101.898 17.0967 102.285 17.4753C102.568 17.7528 102.693 18.0827 102.74 18.3764C103.251 18.0243 103.808 17.7266 104.408 17.4823Z" fill="#F09700"/>
<path d="M142.351 43.2601C140.825 42.6523 139.637 41.8324 138.817 40.8146C137.983 39.7968 137.573 38.6659 137.573 37.4078V36.7999C137.573 36.4607 137.743 36.291 138.096 36.291H140.641C140.994 36.291 141.164 36.4607 141.164 36.7999V37.2099C141.164 38.3266 141.772 39.302 142.987 40.136C144.203 40.9701 145.716 41.38 147.553 41.38C149.377 41.38 150.861 40.9842 151.992 40.1784C153.123 39.3868 153.674 38.369 153.674 37.1533C153.674 36.3052 153.377 35.6125 152.798 35.0612C152.218 34.524 151.526 34.0999 150.734 33.7889C149.942 33.4779 148.727 33.0963 147.073 32.6156C145.108 32.0785 143.482 31.5271 142.224 30.99C140.952 30.4528 139.892 29.6895 139.029 28.7282C138.167 27.7669 137.743 26.5371 137.743 25.0387C137.743 22.8758 138.619 21.1371 140.386 19.8507C142.139 18.5643 144.472 17.9141 147.355 17.9141C149.292 17.9141 151.003 18.2251 152.501 18.8329C153.999 19.4408 155.144 20.2889 155.964 21.3491C156.77 22.4235 157.18 23.6109 157.18 24.9397V25.0952C157.18 25.4345 157.01 25.6041 156.657 25.6041H154.183C153.83 25.6041 153.66 25.4345 153.66 25.0952V24.9397C153.66 23.7806 153.095 22.8193 151.95 22.0418C150.805 21.2643 149.264 20.8685 147.327 20.8685C145.532 20.8685 144.09 21.2219 143.002 21.9146C141.913 22.6073 141.362 23.5685 141.362 24.7842C141.362 25.9434 141.885 26.8198 142.945 27.4277C144.005 28.0355 145.631 28.6434 147.85 29.2654C149.886 29.8449 151.54 30.3821 152.812 30.891C154.084 31.3999 155.173 32.135 156.077 33.1104C156.996 34.0716 157.449 35.3439 157.449 36.8989C157.449 39.1041 156.558 40.8711 154.763 42.1858C152.967 43.5146 150.593 44.1648 147.638 44.1648C145.631 44.179 143.878 43.868 142.351 43.2601Z" fill="#F09700"/>
<path fill-rule="evenodd" clip-rule="evenodd" d="M147.355 19.0812C144.641 19.0812 142.574 19.6931 141.077 20.7916L141.075 20.7929L141.073 20.7942C139.609 21.8603 138.91 23.2477 138.91 25.0383C138.91 26.3026 139.261 27.238 139.898 27.9481C140.644 28.7796 141.562 29.4427 142.678 29.914L142.68 29.9149L142.682 29.9158C143.877 30.426 145.449 30.961 147.38 31.489L147.389 31.4914L147.398 31.494C149.05 31.9741 150.313 32.3689 151.161 32.7018C152.074 33.0606 152.895 33.5586 153.591 34.2044L153.597 34.2096L153.602 34.2148C154.422 34.994 154.842 35.996 154.842 37.1529C154.842 38.7904 154.07 40.1474 152.665 41.1318C151.28 42.117 149.537 42.5472 147.553 42.5472C145.54 42.5472 143.781 42.0963 142.327 41.0984C140.979 40.1742 140.092 38.9628 140.003 37.4582H138.741C138.752 38.4156 139.062 39.2711 139.72 40.0741L139.723 40.0779L139.726 40.0817C140.391 40.9067 141.394 41.6221 142.783 42.175C144.149 42.7187 145.749 43.0101 147.63 42.9969L147.634 42.9969H147.638C150.428 42.9969 152.533 42.3831 154.068 41.2469L154.07 41.2451L154.073 41.2434C155.568 40.1487 156.281 38.7317 156.281 36.8985C156.281 35.5818 155.905 34.6196 155.233 33.9168L155.227 33.9104L155.221 33.904C154.44 33.0618 153.498 32.4227 152.378 31.9747C151.16 31.4874 149.55 30.9631 147.533 30.3885C145.289 29.7596 143.552 29.1212 142.364 28.4402C141.694 28.0559 141.138 27.5536 140.754 26.9118C140.368 26.2671 140.194 25.5454 140.194 24.7838C140.194 23.1383 140.976 21.8192 142.375 20.9292C143.707 20.0809 145.389 19.7005 147.327 19.7005C149.412 19.7005 151.206 20.1254 152.605 21.0755C153.854 21.923 154.647 23.047 154.8 24.4361H155.987C155.901 23.5752 155.587 22.7936 155.035 22.0562C154.359 21.1848 153.394 20.4548 152.062 19.9144C150.724 19.3719 149.167 19.0812 147.355 19.0812ZM139.697 18.9077C141.706 17.4344 144.303 16.7461 147.355 16.7461C149.417 16.7461 151.28 17.0775 152.94 17.7506C154.601 18.4245 155.924 19.3884 156.888 20.6345L156.893 20.6413L156.898 20.6482C157.849 21.9164 158.347 23.3478 158.347 24.9393V25.0948C158.347 25.4444 158.259 25.9274 157.868 26.3105C157.481 26.6891 157.002 26.7713 156.657 26.7713H154.183C153.838 26.7713 153.358 26.6891 152.972 26.3106C152.581 25.9275 152.492 25.4445 152.492 25.0948V24.9393C152.492 24.244 152.188 23.6147 151.294 23.0073C150.403 22.4025 149.116 22.0357 147.327 22.0357C145.675 22.0357 144.472 22.3621 143.628 22.8992C142.85 23.3945 142.529 23.9979 142.529 24.7838C142.529 25.1814 142.617 25.4775 142.757 25.7128C142.9 25.951 143.136 26.1908 143.526 26.4144C144.458 26.9488 145.971 27.5259 148.165 28.1407L148.167 28.1414L148.17 28.142C150.222 28.7264 151.92 29.2762 153.245 29.8066C154.667 30.3753 155.9 31.2043 156.927 32.3097C158.089 33.5285 158.616 35.1084 158.616 36.8985C158.616 39.4747 157.549 41.591 155.455 43.1256C153.401 44.6451 150.758 45.3314 147.642 45.332C145.51 45.3466 143.606 45.0161 141.919 44.3445C140.256 43.6823 138.886 42.7592 137.911 41.5504C136.914 40.3329 136.406 38.944 136.406 37.4074V36.7995C136.406 36.4499 136.494 35.9669 136.885 35.5838C137.271 35.2052 137.751 35.1231 138.096 35.1231H140.641C140.985 35.1231 141.465 35.2052 141.852 35.5838C142.243 35.9669 142.331 36.4499 142.331 36.7995V37.2095C142.331 37.8226 142.637 38.4795 143.648 39.1729C144.625 39.8431 145.891 40.2121 147.553 40.2121C149.215 40.2121 150.438 39.8514 151.314 39.2272L151.318 39.2243L151.322 39.2215C152.177 38.623 152.507 37.9453 152.507 37.1529C152.507 36.6163 152.335 36.2341 151.998 35.9117C151.537 35.4857 150.974 35.1374 150.307 34.8752C149.572 34.5867 148.407 34.219 146.756 33.739C144.762 33.1936 143.087 32.6273 141.767 32.0642C140.34 31.4612 139.138 30.5979 138.16 29.5074C137.072 28.2951 136.575 26.7708 136.575 25.0383C136.575 22.5039 137.629 20.4143 139.697 18.9077Z" fill="#F09700"/>
<path d="M60.7008 28.3601H31.6794L16.7092 0.625H45.7307L60.7008 28.3601Z" fill="#EFAD00"/>
<path d="M16.7092 54.6253H45.7307L60.7008 28.3604H31.6794L16.7092 54.6253Z" fill="#CC4309"/>
<path d="M31.835 28.3742L16.6245 0.625L0.551758 27.5684L16.6811 54.625L31.835 28.3742Z" fill="#E86B02"/>
<path fill-rule="evenodd" clip-rule="evenodd" d="M16.6123 21.3624C16.6123 18.0612 19.2888 15.3848 22.59 15.3848H40.2601C43.5723 15.3848 46.2075 18.0658 46.2517 21.3185L46.2519 21.3334V32.2897C46.2519 35.5909 43.5755 38.2673 40.2743 38.2673H32.2635L25.8453 43.0448L25.7519 43.1009C24.8164 43.6622 23.6525 43.5638 22.8292 42.9235C22.113 42.3664 21.7939 41.532 21.8239 40.7459L21.6859 38.1994C18.8136 37.7636 16.6123 35.2835 16.6123 32.2897V21.3624ZM22.59 19.7631C21.7069 19.7631 20.9907 20.4793 20.9907 21.3624V32.2897C20.9907 33.1728 21.7069 33.8889 22.59 33.8889H25.837L26.03 37.4491L30.8128 33.8889H40.2743C41.1573 33.8889 41.8736 33.1728 41.8736 32.2897V21.3662C41.8551 20.4685 41.1285 19.7631 40.2601 19.7631H22.59Z" fill="white"/>
</svg>
