<svg width="479" height="478" viewBox="0 0 479 478" fill="none" xmlns="http://www.w3.org/2000/svg">
<g clip-path="url(#clip0)">
<path d="M476.018 243.29C454.757 215.123 316.739 348.961 330.005 318.977C343.271 289.084 387.52 152.339 344.27 138.528C301.02 124.717 291.934 206.037 251.32 175.963C210.705 145.888 263.313 10.4146 231.966 5.23552C200.62 0.0564633 211.977 122.446 161.822 88.6455C118.3 59.1158 78.5029 -7.48496 55.4243 1.87367C69.326 22.5899 109.214 83.103 152.554 156.973C201.982 241.291 266.13 361.046 290.844 452.088C291.026 452.815 290.572 453.542 289.845 453.723C289.754 453.723 289.572 453.814 289.481 453.814C288.845 453.814 288.3 453.451 288.209 452.815C263.495 362.045 199.529 242.563 150.192 158.336C106.761 84.2842 66.7819 23.6802 52.9711 3.14572C50.427 4.87207 48.1555 7.59789 46.1566 11.5958C25.7129 51.5744 129.294 167.876 100.037 186.502C70.8706 205.22 -24.1695 216.032 5.81447 248.378C35.7985 280.816 185.446 310.527 178.177 346.69C170.908 382.852 89.3153 325.337 63.0566 355.23C36.7979 385.124 212.977 454.541 212.977 454.541C212.977 454.541 246.595 460.356 302.474 456.267C358.263 452.179 497.37 271.457 476.018 243.29Z" fill="#DAF7F8"/>
</g>
<g clip-path="url(#clip1)">
<path d="M139.56 426.624C139.56 426.624 80.977 361.09 193.118 384.312L193.418 375.143C193.418 375.143 278.555 375.444 286.281 371.461L285.681 382.433C285.681 382.433 372.994 370.334 384.695 386.567C398.347 405.506 361.892 454.581 308.109 446.84C297.758 445.337 255.677 443.834 255.677 443.834L209.32 451.274L139.56 426.624Z" fill="#0A3F64"/>
<path d="M254.027 439.853L276.905 452.403C276.905 452.403 285.606 445.414 289.057 445.94C294.983 446.767 296.933 453.606 309.31 458.491C319.061 462.323 334.213 462.925 332.788 467.584C326.337 488.928 243.975 463.902 243.975 463.902L254.027 439.853Z" fill="white"/>
<path d="M310.81 477.352C303.909 477.352 295.583 476.526 285.756 474.872C264.528 471.34 243.825 465.102 243.6 465.027L242.4 464.651L253.427 438.272L276.755 451.049C279.155 449.245 285.831 444.36 289.132 444.811C292.207 445.262 294.232 446.99 296.783 449.245C299.633 451.725 303.159 454.806 309.685 457.437C313.135 458.789 317.486 459.766 321.236 460.668C327.312 462.021 332.113 463.148 333.538 465.553C333.988 466.305 334.063 467.131 333.838 467.958C331.963 474.196 324.237 477.352 310.81 477.352ZM245.475 463.223C268.954 470.213 326.787 483.59 331.738 467.282C331.813 467.056 331.813 466.831 331.663 466.681C330.763 465.102 325.737 463.975 320.861 462.848C316.961 461.946 312.61 460.969 308.935 459.541C302.109 456.835 298.358 453.604 295.433 450.973C293.032 448.869 291.382 447.366 288.982 447.065C286.956 446.765 281.181 450.522 277.73 453.303L277.13 453.754L254.627 441.429L245.475 463.223Z" fill="#0A3F64"/>
<path d="M145.486 382.582C115.032 379.801 116.532 413.019 138.135 431.582C159.663 450.145 260.703 473.668 260.703 473.668L272.179 439.924C272.179 439.849 197.694 387.317 145.486 382.582Z" fill="#0A3F64"/>
<path d="M263.253 467.281C263.103 467.281 262.953 467.281 262.878 467.206C262.203 466.98 261.903 466.304 262.128 465.628L270.754 440.376C195.443 393.555 148.712 385.589 148.262 385.514C147.587 385.439 147.136 384.762 147.286 384.086C147.361 383.41 148.037 382.959 148.712 383.109C149.162 383.184 196.719 391.376 272.929 438.873L273.755 439.399L264.528 466.454C264.303 466.98 263.778 467.281 263.253 467.281Z" fill="#008187"/>
<path d="M260.553 439.853L237.674 452.403C237.674 452.403 228.973 445.414 225.523 445.94C219.597 446.767 217.647 453.606 205.27 458.491C195.518 462.323 180.366 462.925 181.791 467.584C188.242 488.928 270.604 463.902 270.604 463.902L260.553 439.853Z" fill="white"/>
<path d="M203.77 477.352C190.343 477.352 182.616 474.196 180.741 467.958C180.516 467.131 180.591 466.305 181.041 465.553C182.391 463.148 187.267 462.096 193.343 460.668C197.169 459.766 201.444 458.789 204.895 457.437C211.421 454.881 214.946 451.725 217.722 449.245C220.272 446.99 222.297 445.187 225.373 444.811C228.748 444.36 235.424 449.245 237.749 451.049L261.078 438.272L272.104 464.651L270.904 465.027C270.679 465.102 249.976 471.34 228.748 474.872C218.997 476.526 210.671 477.352 203.77 477.352ZM225.898 447.065C225.823 447.065 225.748 447.065 225.673 447.065C223.272 447.366 221.547 448.869 219.222 450.973C216.221 453.604 212.546 456.835 205.72 459.541C202.119 460.969 197.694 462.021 193.793 462.848C188.917 463.975 183.817 465.102 182.992 466.681C182.917 466.906 182.842 467.056 182.917 467.282C187.867 483.59 245.701 470.213 269.179 463.223L260.028 441.429L237.524 453.754L236.924 453.303C233.624 450.673 228.073 447.065 225.898 447.065Z" fill="#0A3F64"/>
<path d="M361.442 382.582C391.896 379.801 390.396 413.019 368.793 431.582C347.265 450.145 257.252 470.813 257.252 470.813L246.751 439.924C246.751 439.849 309.235 387.317 361.442 382.582Z" fill="#0A3F64"/>
<path d="M257.252 472.017C256.727 472.017 256.277 471.716 256.127 471.19L245.25 439.4L246.001 438.874C309.385 396.638 353.116 382.584 353.566 382.434C354.241 382.208 354.916 382.584 355.066 383.26C355.291 383.937 354.916 384.613 354.241 384.763C353.791 384.914 310.735 398.817 248.101 440.377L258.302 470.364C258.527 470.965 258.152 471.716 257.552 471.942C257.477 472.017 257.327 472.017 257.252 472.017Z" fill="#008187"/>
<path d="M229.048 189.44C229.048 189.44 230.248 226.191 227.323 230.324C224.398 234.533 209.17 244.077 209.17 244.077L261.003 280.677L292.132 244.829C292.132 244.829 275.48 236.637 273.905 231.827C271.729 225.138 272.104 189.44 272.104 189.44H229.048Z" fill="white"/>
<path d="M261.228 282.105L207.145 244.002L208.57 243.1C212.771 240.47 224.098 232.954 226.348 229.723C228.298 226.867 228.298 203.569 227.848 189.516L230.099 189.44C230.249 193.273 231.224 226.641 228.223 231C225.748 234.608 215.096 241.597 211.196 244.152L260.853 279.174L290.332 245.204C286.132 243.025 274.28 236.637 272.855 232.203C270.679 225.439 270.979 190.944 271.054 189.516H273.305C273.305 189.891 272.93 225.063 275.03 231.526C276.08 234.758 286.432 240.77 292.657 243.852L294.008 244.528L261.228 282.105Z" fill="#0A3F64"/>
<path d="M238.424 124.055C238.424 124.055 215.546 127.512 215.546 141.265C215.546 156.972 218.172 177.114 219.747 187.71C220.347 191.919 223.947 195 228.223 195H275.555C279.905 195 283.506 191.768 284.031 187.41C285.681 172.905 288.907 142.092 287.181 137.432C281.331 121.65 238.424 124.055 238.424 124.055Z" fill="#0A3F64"/>
<path d="M242.55 211.156C255.977 212.735 272.779 210.179 277.43 205.52C280.13 202.814 281.256 191.992 281.556 179.667C281.556 179.291 281.781 178.991 282.081 178.84C285.381 176.961 290.182 172.828 290.032 166.741C289.882 161.405 285.906 162.532 282.831 164.26C282.306 164.561 281.631 164.185 281.556 163.509C281.331 148.629 280.43 135.627 280.43 135.627H220.347C220.347 135.627 220.497 148.929 221.022 163.734C221.022 164.411 220.347 164.862 219.747 164.486C216.596 162.682 212.171 161.179 212.096 166.741C211.946 173.655 218.097 178.014 221.322 179.517C221.622 179.667 221.847 179.968 221.922 180.343C222.597 190.865 223.647 199.883 225.073 203.115C225.823 204.843 229.798 207.774 231.824 208.902L242.55 211.156Z" fill="white"/>
<path d="M250.801 212.736C247.876 212.736 245.025 212.586 242.4 212.285C241.8 212.21 241.35 211.684 241.425 211.007C241.5 210.406 242.025 209.955 242.7 210.03C255.902 211.534 272.404 208.978 276.605 204.695C277.805 203.492 279.905 198.607 280.43 179.593C280.43 178.842 280.88 178.165 281.481 177.79C283.731 176.512 289.057 172.754 288.907 166.667C288.907 165.69 288.682 164.487 288.006 164.036C287.181 163.585 285.531 163.961 283.356 165.089C282.756 165.389 282.006 165.389 281.406 165.089C280.805 164.713 280.43 164.112 280.43 163.435C280.205 151.185 279.605 139.987 279.38 136.605H221.547C221.622 140.138 221.772 151.335 222.222 163.585C222.222 164.337 221.922 165.013 221.247 165.389C220.647 165.765 219.897 165.765 219.222 165.389C216.896 164.036 215.021 163.585 214.196 164.036C213.446 164.412 213.296 165.69 213.296 166.667C213.146 174.032 220.947 177.94 221.847 178.391C222.522 178.691 223.047 179.368 223.047 180.194C224.022 195.3 225.298 200.711 226.123 202.59C226.723 203.943 230.248 206.649 232.424 207.926C232.949 208.227 233.174 208.903 232.799 209.504C232.499 210.03 231.823 210.256 231.223 209.88C229.948 209.129 225.073 205.897 223.947 203.567C222.597 200.561 221.547 193.046 220.722 180.495C216.071 178.316 210.745 173.355 210.895 166.742C210.971 164.487 211.646 162.984 212.996 162.233C214.571 161.331 216.896 161.707 219.822 163.36C219.297 148.855 219.147 135.854 219.147 135.703V134.576H281.406L281.481 135.628C281.481 135.779 282.306 148.63 282.606 163.135C285.381 161.707 287.556 161.406 289.057 162.308C290.332 163.059 291.082 164.562 291.082 166.817C291.232 174.107 285.231 178.391 282.606 179.894C282.231 195.15 280.73 203.868 278.18 206.498C273.979 210.481 261.903 212.736 250.801 212.736Z" fill="#0A3F64"/>
<path d="M218.922 147.727C222.072 151.635 222.972 158.249 231.223 159.451C239.175 160.579 256.577 148.178 265.053 149.531C279.455 151.861 280.356 149.681 284.856 144.496C299.258 127.962 253.652 123.378 235.124 128.939C227.248 131.344 210.746 137.582 218.922 147.727Z" fill="#0A3F64"/>
<path d="M318.536 384.314C318.536 384.314 224.248 395.437 181.716 378.076C179.241 377.099 182.017 319.231 179.616 307.733C178.491 302.472 162.289 325.168 162.289 325.168C141.511 316.526 132.734 310.588 133.41 308.86C133.41 308.86 161.764 249.489 197.319 234.984C200.544 233.706 212.396 233.631 215.321 235.51C244.35 253.772 272.479 240.245 282.531 234.232C285.156 232.654 291.457 231.301 294.383 232.278C335.938 246.933 359.042 306.68 359.042 306.68C360.842 311.19 347.49 314.271 333.163 322.162C333.163 322.162 315.836 303.975 315.836 308.71C315.686 314.647 322.587 382.21 318.536 384.314Z" fill="#EDC300"/>
<path d="M265.053 178.242C264.003 178.242 263.178 177.416 263.178 176.363V174.935C263.178 173.883 264.078 173.057 265.053 173.057C266.103 173.057 266.928 173.883 266.928 174.935V176.363C266.928 177.416 266.103 178.242 265.053 178.242Z" fill="#0A3F64"/>
<path d="M237.224 178.242C236.174 178.242 235.349 177.416 235.349 176.363V174.935C235.349 173.883 236.174 173.057 237.224 173.057C238.274 173.057 239.099 173.883 239.099 174.935V176.363C239.099 177.416 238.274 178.242 237.224 178.242Z" fill="#0A3F64"/>
<path d="M231.223 171.102C230.848 171.102 230.473 170.876 230.248 170.576C229.948 170.05 230.098 169.373 230.623 168.998C235.724 165.916 241.2 167.419 241.425 167.419C242.025 167.57 242.4 168.171 242.175 168.772C242.025 169.373 241.425 169.749 240.825 169.524C240.75 169.524 236.099 168.246 231.824 170.801C231.599 171.027 231.448 171.102 231.223 171.102Z" fill="#0A3F64"/>
<path d="M270.979 171.1C270.754 171.1 270.604 171.025 270.379 170.95C266.028 168.395 261.378 169.597 261.378 169.672C260.778 169.823 260.178 169.522 260.028 168.921C259.878 168.32 260.178 167.718 260.778 167.568C261.003 167.493 266.404 166.065 271.579 169.146C272.104 169.447 272.254 170.123 271.954 170.725C271.729 170.875 271.354 171.1 270.979 171.1Z" fill="#0A3F64"/>
<path d="M250.726 192.52C250.201 192.52 249.676 192.144 249.601 191.543C249.526 190.942 249.901 190.34 250.501 190.265C253.202 189.814 255.977 188.988 256.652 188.462C256.577 188.311 256.352 188.086 256.127 187.785C255.227 186.658 253.502 184.554 251.476 179.368C251.251 178.767 251.551 178.166 252.151 177.94C252.751 177.715 253.352 178.015 253.577 178.616C255.452 183.501 256.952 185.305 257.852 186.357C258.527 187.109 259.052 187.86 258.827 188.913C258.527 190.416 255.827 191.618 250.801 192.445C250.801 192.52 250.726 192.52 250.726 192.52Z" fill="#0A3F64"/>
<path d="M261.678 196.125C262.578 197.478 257.927 202.138 252.526 201.837C243.675 201.461 240.975 195.374 243.075 195.825C243.9 195.975 247.126 197.854 252.376 197.929C258.152 198.079 261.078 195.223 261.678 196.125Z" fill="#0A3F64"/>
<path d="M301.734 339.22H201.144V403.401H301.734V339.22Z" fill="#DBE2F8"/>
<path d="M302.859 404.529H200.019V338.093H302.859V404.529ZM202.269 402.274H300.608V340.347H202.269V402.274Z" fill="#0A3F64"/>
<path d="M214.196 347.339H211.196V397.316H214.196V347.339Z" fill="white"/>
<path d="M372.919 362.218C365.343 376.046 318.236 388.446 318.236 388.446C318.236 388.446 298.208 395.736 295.508 394.834C289.882 392.955 280.73 376.497 282.006 373.115C283.206 369.733 299.633 369.357 299.633 369.357C299.633 369.357 299.183 361.616 299.108 359.737C299.108 359.287 304.134 359.362 305.559 360.113C307.434 361.09 310.81 365.9 310.81 365.9L314.86 370.935L340.514 350.418L325.962 315.021L352.366 303.598C352.216 303.598 381.095 347.262 372.919 362.218Z" fill="white"/>
<path d="M295.958 396.111C295.583 396.111 295.283 396.111 295.058 396.036C290.707 394.608 285.456 386.416 282.981 381.231C281.631 378.45 280.13 374.692 280.806 372.813C282.081 369.356 292.732 368.53 298.358 368.379C298.208 366.125 297.983 361.315 297.908 359.887C297.908 359.436 298.058 359.06 298.433 358.76C299.408 358.083 304.434 358.384 305.934 359.211C307.959 360.263 311.11 364.697 311.56 365.298L314.935 369.431L339.014 350.117L324.387 314.419L352.666 302.169L353.191 302.92C354.391 304.724 382.37 347.261 373.894 362.668C366.243 376.646 321.086 388.746 318.536 389.498C314.035 391.226 300.308 396.111 295.958 396.111ZM300.158 360.639C300.308 363.344 300.608 369.056 300.683 369.356L300.758 370.484H299.633C291.307 370.634 283.506 372.062 282.981 373.49C282.831 373.941 282.981 375.97 285.006 380.178C287.857 386.04 292.657 392.729 295.808 393.781C297.383 394.232 308.259 390.85 317.861 387.393H317.936C318.386 387.243 364.668 374.918 371.944 361.691C379.145 348.539 355.666 310.962 351.841 305.025L327.312 315.621L341.714 350.793L314.56 372.513L309.76 366.576C308.56 364.847 306.159 361.766 304.884 361.165C304.134 360.789 301.509 360.563 300.158 360.639Z" fill="#0A3F64"/>
<path d="M126.583 359.661C134.385 373.49 182.992 386.266 182.992 386.266C182.992 386.266 203.619 393.706 206.47 392.804C212.246 390.925 221.547 374.542 220.272 371.085C218.997 367.703 202.044 367.252 202.044 367.252C202.044 367.252 202.419 359.511 202.569 357.557C202.569 357.106 197.394 357.181 195.968 357.933C194.018 358.91 190.568 363.72 190.568 363.72L186.367 368.755L155.238 345.382L172.64 311.488L143.986 301.793C143.986 301.793 118.032 344.555 126.583 359.661Z" fill="white"/>
<path d="M205.945 394.007C201.519 394.007 187.267 388.971 182.691 387.318C180.066 386.642 133.559 374.166 125.608 360.188C116.832 344.706 141.961 302.996 143.086 301.192L143.536 300.44L174.29 310.887L156.738 345.082L186.367 367.252L189.817 363.119C190.268 362.442 193.493 358.083 195.593 357.031C197.169 356.204 202.269 355.979 203.319 356.655C203.694 356.881 203.92 357.332 203.844 357.708C203.769 359.135 203.469 363.945 203.394 366.2C209.17 366.425 220.122 367.252 221.472 370.709C222.147 372.588 220.797 376.195 219.447 378.826C216.896 384.086 211.496 392.429 206.92 393.856C206.62 393.932 206.32 394.007 205.945 394.007ZM127.559 359.06C135.135 372.363 182.841 384.988 183.367 385.139H183.442C193.343 388.746 204.595 392.128 206.17 391.677C209.395 390.625 214.496 383.711 217.346 377.849C219.297 373.866 219.447 371.912 219.297 371.461C218.772 370.033 210.745 368.605 202.119 368.304H200.994L201.069 367.177C201.069 366.876 201.369 361.165 201.519 358.459C200.169 358.384 197.394 358.534 196.568 358.985C195.293 359.586 192.893 362.668 191.618 364.396L191.543 364.471L186.667 370.258L153.812 345.683L171.065 312.089L144.511 303.071C141.061 308.933 120.058 345.833 127.559 359.06Z" fill="#0A3F64"/>
<path d="M148.711 282.253L133.334 308.932C133.334 308.932 151.262 325.015 168.514 328.773L188.767 302.695L148.711 282.253Z" fill="#EDC300"/>
<path d="M311.41 308.782L323.187 328.097L362.717 306.979L344.865 279.322L311.41 308.782Z" fill="#EDC300"/>
</g>
<defs>
<clipPath id="clip0">
<rect width="478.199" height="456.847" fill="white" transform="translate(0 0.964844)"/>
</clipPath>
<clipPath id="clip1">
<rect width="265.313" height="353.448" fill="white" transform="translate(122.233 123.903)"/>
</clipPath>
</defs>
</svg>
