<svg width="54" height="55" viewBox="0 0 54 55" fill="none" xmlns="http://www.w3.org/2000/svg">
<path d="M27 54.1797C41.9117 54.1797 54 42.0914 54 27.1797C54 12.268 41.9117 0.179688 27 0.179688C12.0883 0.179688 0 12.268 0 27.1797C0 42.0914 12.0883 54.1797 27 54.1797Z" fill="white"/>
<path d="M22.1034 11.1396C19.2574 11.2828 12.3393 11.5446 12.0582 16.5974C11.7387 22.3583 12.3035 29.8219 12.6699 33.7534C12.7395 34.5042 13.0766 35.205 13.6198 35.7279C14.1629 36.2508 14.876 36.5611 15.6289 36.6022L33.0631 37.5693C33.8346 37.6121 34.5949 37.3695 35.199 36.8879C35.8031 36.4062 36.2089 35.719 36.339 34.9574C37.2481 29.6483 38.6257 18.2835 38.0857 16.5451C36.2481 10.6244 26.6107 10.9109 22.1034 11.1396Z" fill="#0A3F64"/>
<path d="M24.0187 43.0381C28.46 43.8646 34.0942 43.2337 35.739 41.6055C36.7032 40.6494 37.2873 36.6959 37.6427 32.1692C37.6427 32.037 38.1937 15.9444 38.1937 15.9444L18.1945 14.8424C18.1945 14.8424 17.963 19.7189 17.8528 25.1961C17.8599 25.2495 17.8512 25.3039 17.8277 25.3524C17.8042 25.401 17.7669 25.4416 17.7206 25.4691C17.6742 25.4967 17.6208 25.5101 17.567 25.5076C17.5131 25.5051 17.4611 25.4868 17.4175 25.455C16.3954 24.7194 14.971 24.0775 14.8139 26.1301C14.6211 28.6758 16.5965 30.3757 17.6242 30.9873C17.6784 31.0209 17.7229 31.068 17.7534 31.124C17.7838 31.1801 17.7991 31.2431 17.7977 31.3069C17.817 35.164 17.9658 38.528 18.3818 39.7347C18.6449 40.4245 19.1157 41.0156 19.7291 41.4264L24.0187 43.0381Z" fill="white"/>
<path d="M34.9172 42.7803C32.3274 44.0008 27.4784 44.2213 23.9244 43.5628C23.7907 43.5312 23.6743 43.4494 23.5993 43.3343C23.5244 43.2192 23.4966 43.0797 23.5218 42.9447C23.5469 42.8097 23.6231 42.6895 23.7345 42.6091C23.8459 42.5288 23.9839 42.4944 24.12 42.5131C28.4262 43.3093 33.8923 42.6839 35.3663 41.2265C35.785 40.8132 36.5675 39.0802 37.113 32.1346C37.113 31.9032 37.4519 22.0675 37.6365 16.4553L18.6979 15.4084C18.6345 16.8218 18.4693 20.847 18.3811 25.2111C18.3794 25.3659 18.3354 25.5173 18.2538 25.6489C18.1722 25.7805 18.0561 25.8873 17.9182 25.9577C17.7877 26.0239 17.6415 26.0528 17.4956 26.0412C17.3498 26.0295 17.21 25.9777 17.0917 25.8916C16.312 25.3405 15.8243 25.2303 15.6425 25.3157C15.4607 25.4012 15.367 25.7097 15.3312 26.1753C15.1301 28.823 17.5986 30.3631 17.8824 30.5312C18.0152 30.6126 18.1247 30.7268 18.2005 30.8629C18.2763 30.999 18.3157 31.1523 18.315 31.3081C18.3425 36.8789 18.6346 38.8736 18.866 39.5734C19.0947 40.1589 19.4989 40.6593 20.0231 41.006C20.0847 41.0452 20.1376 41.0967 20.1786 41.1571C20.2195 41.2175 20.2477 41.2857 20.2613 41.3575C20.2749 41.4292 20.2736 41.503 20.2576 41.5742C20.2415 41.6454 20.2111 41.7126 20.1681 41.7716C20.1252 41.8306 20.0705 41.8802 20.0076 41.9173C19.9447 41.9544 19.8749 41.9782 19.8025 41.9873C19.73 41.9964 19.6565 41.9905 19.5864 41.97C19.5163 41.9496 19.4512 41.915 19.3949 41.8684C18.693 41.3942 18.1557 40.7135 17.8576 39.9205C17.4691 38.7937 17.2708 36.0083 17.246 31.4045C15.7334 30.4733 14.0776 28.553 14.2622 26.1009C14.3338 25.1973 14.6396 24.6132 15.1879 24.357C15.7362 24.1007 16.4525 24.2357 17.3094 24.7675C17.4223 19.5328 17.64 14.8767 17.6427 14.8298L17.6675 14.2788L38.7248 15.4442L38.7055 15.9649C38.5815 19.7422 38.171 32.0795 38.1545 32.22C37.5649 39.736 36.697 41.3973 36.0936 41.9924C35.7479 42.3185 35.3504 42.5848 34.9172 42.7803Z" fill="#0A3F64"/>
<path d="M34.8319 28.1286C34.7463 28.1699 34.6511 28.187 34.5564 28.1782C34.4151 28.169 34.2831 28.1041 34.1896 27.9976C34.0961 27.8912 34.0487 27.752 34.0577 27.6107L34.0936 27.0927C34.1031 26.9517 34.1682 26.8202 34.2746 26.7272C34.3811 26.6342 34.5201 26.5873 34.6611 26.5968C34.8021 26.6063 34.9336 26.6714 35.0266 26.7779C35.1196 26.8843 35.1666 27.0233 35.1571 27.1643L35.124 27.6823C35.1171 27.7753 35.0867 27.8651 35.0356 27.9431C34.9845 28.0212 34.9144 28.085 34.8319 28.1286Z" fill="#0A3F64"/>
<path d="M25.8428 27.6995C25.7647 27.7367 25.6785 27.7538 25.5921 27.7491C25.4515 27.7434 25.3189 27.6822 25.2234 27.5789C25.1279 27.4756 25.0772 27.3387 25.0824 27.1981L25.121 26.6746C25.1242 26.6048 25.1412 26.5363 25.1709 26.473C25.2007 26.4098 25.2426 26.353 25.2942 26.3059C25.3459 26.2588 25.4064 26.2224 25.4721 26.1987C25.5379 26.175 25.6077 26.1644 25.6775 26.1677C25.7473 26.1709 25.8158 26.1879 25.8791 26.2177C25.9424 26.2474 25.9992 26.2893 26.0462 26.341C26.0933 26.3927 26.1298 26.4531 26.1535 26.5189C26.1772 26.5846 26.1877 26.6544 26.1844 26.7242L26.1624 27.2422C26.1547 27.34 26.121 27.4339 26.0648 27.5143C26.0086 27.5947 25.932 27.6586 25.8428 27.6995Z" fill="#0E2549"/>
<path d="M27.5262 23.9446C27.4013 24.0011 27.2599 24.0089 27.1295 23.9667C26.046 23.6562 24.8862 23.7542 23.8702 24.2422C23.8083 24.2748 23.7406 24.2948 23.671 24.3012C23.6014 24.3076 23.5312 24.3003 23.4644 24.2795C23.3976 24.2588 23.3356 24.2251 23.2819 24.1804C23.2281 24.1357 23.1837 24.0809 23.1511 24.019C23.1185 23.9572 23.0985 23.8895 23.0921 23.8199C23.0857 23.7502 23.0931 23.68 23.1138 23.6133C23.1345 23.5465 23.1682 23.4845 23.2129 23.4307C23.2576 23.3769 23.3124 23.3325 23.3743 23.3C24.6475 22.6742 26.1086 22.5464 27.4711 22.9418C27.5718 22.9762 27.6599 23.0399 27.7241 23.1247C27.7884 23.2095 27.8258 23.3115 27.8318 23.4178C27.8377 23.524 27.8118 23.6296 27.7573 23.721C27.7029 23.8124 27.6224 23.8855 27.5262 23.9309V23.9446Z" fill="#0A3F64"/>
<path d="M37.1825 25.0382C37.0985 25.0763 37.0064 25.0927 36.9144 25.086C36.8225 25.0793 36.7337 25.0496 36.6563 24.9996C35.7019 24.3975 34.56 24.1662 33.4466 24.3494C33.3085 24.3794 33.1641 24.3533 33.0453 24.2768C32.9264 24.2003 32.8429 24.0798 32.8129 23.9417C32.7829 23.8036 32.809 23.6592 32.8855 23.5404C32.962 23.4215 33.0825 23.3379 33.2206 23.308C34.6179 23.0587 36.0578 23.3471 37.2514 24.1152C37.3096 24.1541 37.3595 24.204 37.3982 24.2623C37.4369 24.3205 37.4638 24.3859 37.4771 24.4545C37.4904 24.5232 37.49 24.5938 37.4758 24.6623C37.4617 24.7308 37.4341 24.7958 37.3946 24.8536C37.3421 24.9333 37.2687 24.9972 37.1825 25.0382Z" fill="#0A3F64"/>
<path d="M31.6008 32.3502C31.1838 32.5364 30.7436 32.6653 30.2921 32.7332C30.223 32.7441 30.1524 32.7412 30.0844 32.7248C30.0164 32.7084 29.9523 32.6787 29.8958 32.6375C29.8392 32.5963 29.7914 32.5444 29.7549 32.4847C29.7184 32.425 29.6941 32.3587 29.6832 32.2896C29.6724 32.2205 29.6752 32.15 29.6916 32.082C29.708 32.014 29.7377 31.9499 29.7789 31.8933C29.8201 31.8368 29.872 31.7889 29.9317 31.7524C29.9914 31.716 30.0577 31.6916 30.1268 31.6808C30.8156 31.5705 31.452 31.2868 31.5043 31.1297C31.6008 30.7385 31.6063 30.7137 30.8872 28.5234L30.3004 26.7188C30.2788 26.6522 30.2706 26.5821 30.2762 26.5123C30.2818 26.4426 30.3011 26.3746 30.3329 26.3123C30.3648 26.25 30.4086 26.1946 30.4618 26.1493C30.5151 26.1039 30.5768 26.0695 30.6434 26.0479C30.7099 26.0264 30.7801 26.0182 30.8498 26.0238C30.9196 26.0294 30.9875 26.0486 31.0498 26.0805C31.1121 26.1124 31.1675 26.1562 31.2129 26.2094C31.2582 26.2627 31.2927 26.3244 31.3142 26.391C31.5484 27.1128 31.7413 27.7024 31.9011 28.1928C32.6504 30.485 32.7138 30.6724 32.5403 31.3832C32.4643 31.6035 32.3407 31.8043 32.1783 31.9714C32.0159 32.1386 31.8187 32.2679 31.6008 32.3502Z" fill="#0A3F64"/>
<path d="M15.6699 30.7847C15.6699 30.7847 16.2898 31.4734 17.5985 32.8951C19.1 34.5481 33.8233 34.5013 34.884 34.0357C37.2203 33.0108 36.7437 30.9885 37.5868 31.2089C38.631 31.4845 36.8897 41.8106 35.7133 43.2129C34.5369 44.6153 23.8526 44.5326 18.1964 43.0476C13.4879 41.8216 15.6699 30.7847 15.6699 30.7847Z" fill="#0A3F64"/>
<path d="M34.2895 35.0076C34.6036 35.4815 33.1571 37.2888 31.3966 37.3246C28.5203 37.3853 27.5395 35.2197 28.2448 35.3299C28.5203 35.3713 29.5865 35.9691 31.3057 35.8947C33.1626 35.8148 34.0774 34.688 34.2895 35.0076Z" fill="white"/>
<path d="M15.9407 15.8677C15.9407 15.8677 32.1958 21.5515 39.9734 16.157C47.7511 10.7625 35.9096 9.86984 28.7354 10.2005C21.5611 10.5311 11.4747 11.4237 15.9407 15.8677Z" fill="#0A3F64"/>
<path d="M19.3593 12.0908C19.3593 12.0908 9.56769 9.07669 11.8131 22.4665C13.097 30.1202 10.0333 20.1715 18.8717 15.0966C19.7891 14.5704 19.3593 12.0908 19.3593 12.0908Z" fill="#0A3F64"/>
</svg>
