<svg width="99" height="88" viewBox="0 0 99 88" fill="none" xmlns="http://www.w3.org/2000/svg">
<path d="M74.2811 0H24.7811L0 44.032L24.7811 88H74.2811L99 44.032L74.2811 0Z" fill="#9DEAED"/>
<g clip-path="url(#clip0)">
<path d="M49.5 57.75C41.9183 57.75 35.75 51.5817 35.75 44C35.75 36.4183 41.9183 30.25 49.5 30.25C57.0817 30.25 63.25 36.4183 63.25 44C63.25 51.5817 57.0817 57.75 49.5 57.75ZM49.5 32.75C43.2967 32.75 38.25 37.7967 38.25 44C38.25 50.2033 43.2967 55.25 49.5 55.25C55.7033 55.25 60.75 50.2033 60.75 44C60.75 37.7967 55.7033 32.75 49.5 32.75Z" fill="#00929A"/>
<path d="M49.5 57.75C45.3784 57.75 42.2717 51.8383 42.2717 44C42.2717 36.1617 45.3784 30.25 49.5 30.25C53.6217 30.25 56.7283 36.1617 56.7283 44C56.7283 51.8383 53.6217 57.75 49.5 57.75ZM49.5 32.75C47.2634 32.75 44.7717 37.37 44.7717 44C44.7717 50.63 47.2634 55.25 49.5 55.25C51.7367 55.25 54.2284 50.63 54.2284 44C54.2284 37.37 51.7367 32.75 49.5 32.75Z" fill="#00929A"/>
<path d="M49.5 41.5502C45.2416 41.5502 41.2066 40.5719 38.4283 38.8652C37.84 38.5052 37.6566 37.7352 38.0183 37.1469C38.38 36.5569 39.15 36.3735 39.7383 36.7352C42.1333 38.2069 45.69 39.0502 49.5 39.0502C53.31 39.0502 56.8666 38.2069 59.2616 36.7352C59.8483 36.3735 60.6183 36.5569 60.9816 37.1469C61.3433 37.7352 61.1583 38.5052 60.57 38.8669C57.7933 40.5719 53.7583 41.5502 49.5 41.5502V41.5502Z" fill="#00929A"/>
<path d="M59.9167 51.5503C59.6933 51.5503 59.4667 51.4903 59.2633 51.3653C56.8667 49.8953 53.3083 49.0503 49.5 49.0503C45.6917 49.0503 42.1333 49.8936 39.7383 51.3653C39.15 51.727 38.38 51.5436 38.0183 50.9536C37.6567 50.3653 37.8417 49.5953 38.43 49.2336C41.2067 47.5286 45.2433 46.5503 49.5 46.5503C53.7567 46.5503 57.7933 47.5286 60.5717 49.2353C61.16 49.597 61.3433 50.367 60.9833 50.9553C60.7467 51.3386 60.335 51.5503 59.9167 51.5503Z" fill="#00929A"/>
<path d="M65.3333 32.3339C64.22 32.3339 63.1733 31.9005 62.3866 31.1139C61.6 30.3272 61.1666 29.2805 61.1666 28.1672C61.1666 27.0539 61.6 26.0072 62.3866 25.2205C63.9583 23.6472 66.7066 23.6472 68.2783 25.2205C69.0666 26.0072 69.4999 27.0539 69.4999 28.1672C69.4999 29.2805 69.0666 30.3255 68.2799 31.1139C67.4916 31.9005 66.4466 32.3339 65.3333 32.3339ZM65.3333 26.5005C64.8883 26.5005 64.47 26.6739 64.155 26.9889C63.84 27.3039 63.6666 27.7222 63.6666 28.1672C63.6666 28.6122 63.84 29.0305 64.155 29.3455C64.785 29.9755 65.8816 29.9755 66.5116 29.3455C66.8266 29.0305 66.9999 28.6122 66.9999 28.1672C66.9999 27.7222 66.8266 27.3039 66.5116 26.9889C66.1966 26.6739 65.7783 26.5005 65.3333 26.5005V26.5005Z" fill="#00929A"/>
<path d="M58.3333 36.4164C58.0133 36.4164 57.6933 36.2947 57.45 36.0497C56.9617 35.5614 56.9617 34.7697 57.45 34.2814L62.1 29.6314C62.5883 29.1431 63.38 29.1431 63.8683 29.6314C64.3566 30.1197 64.3566 30.9114 63.8683 31.3997L59.2183 36.0497C58.9733 36.2947 58.6533 36.4164 58.3333 36.4164Z" fill="#00929A"/>
<path d="M35.7333 59.0166C35.4133 59.0166 35.0933 58.895 34.85 58.65C34.3617 58.1616 34.3617 57.3699 34.85 56.8816L39.7833 51.9483C40.2717 51.4599 41.0633 51.4599 41.5517 51.9483C42.04 52.4366 42.04 53.2283 41.5517 53.7166L36.6183 58.65C36.3733 58.895 36.0533 59.0166 35.7333 59.0166V59.0166Z" fill="#00929A"/>
<path d="M33.6667 63.9994C32.5533 63.9994 31.5067 63.5661 30.72 62.7794C29.9333 61.9927 29.5 60.9461 29.5 59.8327C29.5 58.7194 29.9333 57.6727 30.72 56.8861C32.2917 55.3127 35.04 55.3127 36.6117 56.8861C37.4 57.6727 37.8333 58.7194 37.8333 59.8327C37.8333 60.9461 37.4 61.9911 36.6133 62.7794C35.825 63.5661 34.78 63.9994 33.6667 63.9994ZM33.6667 58.1661C33.2217 58.1661 32.8033 58.3394 32.4883 58.6544C32.1733 58.9694 32 59.3877 32 59.8327C32 60.2777 32.1733 60.6961 32.4883 61.0111C33.1183 61.6411 34.215 61.6411 34.845 61.0111C35.16 60.6961 35.3333 60.2777 35.3333 59.8327C35.3333 59.3877 35.16 58.9694 34.845 58.6544C34.53 58.3394 34.1117 58.1661 33.6667 58.1661Z" fill="#00929A"/>
<path d="M65.3333 63.9994C64.22 63.9994 63.175 63.5661 62.3866 62.7794C61.6 61.9911 61.1666 60.9461 61.1666 59.8327C61.1666 58.7194 61.6 57.6727 62.3866 56.8861C63.9583 55.3127 66.7066 55.3127 68.2783 56.8861C69.0666 57.6727 69.4999 58.7194 69.4999 59.8327C69.4999 60.9461 69.0666 61.9927 68.2799 62.7794C67.4933 63.5661 66.4466 63.9994 65.3333 63.9994ZM65.3333 58.1661C64.8883 58.1661 64.47 58.3394 64.155 58.6544C63.84 58.9694 63.6666 59.3877 63.6666 59.8327C63.6666 60.2777 63.84 60.6961 64.155 61.0111C64.785 61.6411 65.8816 61.6411 66.5116 61.0111C66.8266 60.6961 66.9999 60.2777 66.9999 59.8327C66.9999 59.3877 66.8266 58.9694 66.5116 58.6544C66.1966 58.3394 65.7783 58.1661 65.3333 58.1661Z" fill="#00929A"/>
<path d="M62.9833 58.7333C62.6633 58.7333 62.3433 58.6116 62.1 58.3666L57.45 53.7166C56.9617 53.2283 56.9617 52.4366 57.45 51.9483C57.9383 51.4599 58.73 51.4599 59.2183 51.9483L63.8683 56.5983C64.3566 57.0866 64.3566 57.8783 63.8683 58.3666C63.6233 58.6116 63.3033 58.7333 62.9833 58.7333Z" fill="#00929A"/>
<path d="M40.6667 36.4165C40.3467 36.4165 40.0267 36.2948 39.7833 36.0498L34.85 31.1165C34.3617 30.6282 34.3617 29.8365 34.85 29.3482C35.3383 28.8599 36.13 28.8599 36.6183 29.3482L41.5517 34.2815C42.04 34.7699 42.04 35.5615 41.5517 36.0498C41.3067 36.2948 40.9867 36.4165 40.6667 36.4165Z" fill="#00929A"/>
<path d="M33.6667 32.3339C32.5533 32.3339 31.5083 31.9005 30.72 31.1139C29.9333 30.3255 29.5 29.2805 29.5 28.1672C29.5 27.0539 29.9333 26.0072 30.72 25.2205C32.2917 23.6472 35.04 23.6472 36.6117 25.2205C37.4 26.0072 37.8333 27.0539 37.8333 28.1672C37.8333 29.2805 37.4 30.3272 36.6133 31.1139C35.8267 31.9005 34.78 32.3339 33.6667 32.3339ZM33.6667 26.5005C33.2217 26.5005 32.8033 26.6739 32.4883 26.9889C32.1733 27.3039 32 27.7222 32 28.1672C32 28.6122 32.1733 29.0305 32.4883 29.3455C33.1183 29.9755 34.215 29.9755 34.845 29.3455C35.16 29.0305 35.3333 28.6122 35.3333 28.1672C35.3333 27.7222 35.16 27.3039 34.845 26.9889C34.53 26.6739 34.1117 26.5005 33.6667 26.5005V26.5005Z" fill="#00929A"/>
</g>
<defs>
<clipPath id="clip0">
<rect width="40" height="40" fill="white" transform="translate(29.5 24)"/>
</clipPath>
</defs>
</svg>
