<svg width="112" height="113" viewBox="0 0 112 113" fill="none" xmlns="http://www.w3.org/2000/svg">
<g filter="url(#filter0_d)">
<path d="M56 100.906C80.3005 100.906 100 81.2068 100 56.9062C100 32.6057 80.3005 12.9062 56 12.9062C31.6995 12.9062 12 32.6057 12 56.9062C12 81.2068 31.6995 100.906 56 100.906Z" fill="white"/>
<path d="M48.0202 30.7773C43.3823 31.0107 32.1083 31.4373 31.6504 39.6715C31.1296 49.0597 32.05 61.2225 32.6472 67.6295C32.7606 68.853 33.3099 69.9949 34.1951 70.8471C35.0803 71.6994 36.2423 72.205 37.4692 72.2719L65.8806 73.8479C67.1378 73.9177 68.3767 73.5224 69.3612 72.7374C70.3457 71.9525 71.007 70.8327 71.219 69.5915C72.7006 60.9397 74.9455 42.4193 74.0655 39.5862C71.0708 29.9377 55.3655 30.4046 48.0202 30.7773Z" fill="#0A3F64"/>
<path d="M51.1405 82.7562C58.3781 84.1031 67.5597 83.0749 70.2401 80.4215C71.8116 78.8635 72.7633 72.4207 73.3425 65.0439C73.3425 64.8284 74.2405 38.6035 74.2405 38.6035L41.6491 36.8076C41.6491 36.8076 41.2719 44.7545 41.0923 53.6803C41.1039 53.7674 41.0897 53.856 41.0513 53.9351C41.013 54.0142 40.9524 54.0803 40.8768 54.1252C40.8013 54.1702 40.7143 54.1919 40.6265 54.1879C40.5387 54.1838 40.454 54.154 40.383 54.1023C38.7173 52.9035 36.396 51.8574 36.1401 55.2023C35.8258 59.3509 39.045 62.1211 40.7197 63.1178C40.8081 63.1725 40.8807 63.2493 40.9303 63.3407C40.9799 63.432 41.0048 63.5347 41.0026 63.6386C41.034 69.9244 41.2764 75.4064 41.9544 77.3729C42.3832 78.497 43.1503 79.4602 44.1499 80.1297L51.1405 82.7562Z" fill="white"/>
<path d="M68.9023 82.3327C64.6819 84.3216 56.7799 84.6808 50.988 83.6078C50.7702 83.5563 50.5805 83.423 50.4584 83.2354C50.3362 83.0479 50.2909 82.8205 50.3319 82.6005C50.3729 82.3805 50.4971 82.1846 50.6786 82.0537C50.8601 81.9227 51.0851 81.8667 51.3068 81.8972C58.3243 83.1947 67.2321 82.1755 69.6341 79.8004C70.3166 79.127 71.5917 76.3029 72.4807 64.9841C72.4807 64.607 73.0329 48.5784 73.3338 39.4327L42.4709 37.7265C42.3676 40.0298 42.0982 46.5894 41.9546 53.7012C41.9518 53.9536 41.8801 54.2003 41.7471 54.4148C41.6142 54.6293 41.425 54.8033 41.2003 54.918C40.9876 55.026 40.7493 55.073 40.5116 55.054C40.2739 55.035 40.0461 54.9506 39.8533 54.8102C38.5827 53.9123 37.788 53.7327 37.4917 53.8719C37.1954 54.011 37.0427 54.5139 36.9843 55.2727C36.6566 59.5874 40.6794 62.0972 41.1419 62.371C41.3583 62.5037 41.5368 62.6899 41.6603 62.9117C41.7837 63.1335 41.848 63.3833 41.8468 63.6372C41.8917 72.7155 42.3676 75.9661 42.7448 77.1066C43.1175 78.0607 43.7761 78.8761 44.6305 79.4412C44.7308 79.5051 44.817 79.5889 44.8838 79.6874C44.9505 79.7859 44.9964 79.897 45.0186 80.0139C45.0407 80.1308 45.0386 80.251 45.0125 80.3671C44.9864 80.4832 44.9369 80.5927 44.8668 80.6889C44.7967 80.785 44.7077 80.8658 44.6052 80.9263C44.5027 80.9867 44.3889 81.0255 44.2709 81.0403C44.1528 81.0551 44.033 81.0455 43.9188 81.0122C43.8046 80.9789 43.6984 80.9225 43.6068 80.8465C42.4628 80.0738 41.5873 78.9645 41.1015 77.6722C40.4684 75.8359 40.1452 71.2967 40.1048 63.7943C37.6399 62.2768 34.9415 59.1474 35.2423 55.1514C35.359 53.6788 35.8574 52.7269 36.7509 52.3094C37.6443 51.8918 38.8117 52.1118 40.208 52.9784C40.3921 44.4478 40.7468 36.86 40.7513 36.7837L40.7917 35.8857L75.1072 37.7849L75.0758 38.6335C74.8738 44.789 74.2048 64.8943 74.1778 65.1233C73.217 77.3715 71.8027 80.0788 70.8194 81.0486C70.2561 81.58 69.6082 82.014 68.9023 82.3327Z" fill="#0A3F64"/>
<path d="M68.763 58.4617C68.6234 58.5289 68.4682 58.5568 68.314 58.5425C68.0836 58.5275 67.8686 58.4216 67.7162 58.2482C67.5639 58.0748 67.4865 57.848 67.5013 57.6176L67.5597 56.7735C67.5751 56.5437 67.6813 56.3294 67.8547 56.1779C68.0282 56.0263 68.2548 55.9499 68.4846 55.9653C68.7144 55.9808 68.9287 56.087 69.0802 56.2604C69.2318 56.4339 69.3083 56.6604 69.2928 56.8902L69.2389 57.7343C69.2276 57.8859 69.1781 58.0322 69.0948 58.1594C69.0116 58.2866 68.8974 58.3906 68.763 58.4617Z" fill="#0A3F64"/>
<path d="M54.1128 57.7468C53.9855 57.8074 53.845 57.8352 53.7042 57.8276C53.4752 57.8183 53.2591 57.7185 53.1035 57.5502C52.9478 57.3819 52.8651 57.1588 52.8736 56.9297L52.9365 56.0766C52.9418 55.9628 52.9695 55.8511 53.018 55.748C53.0664 55.6449 53.1347 55.5524 53.2189 55.4757C53.3031 55.399 53.4016 55.3396 53.5087 55.301C53.6159 55.2623 53.7297 55.2451 53.8435 55.2505C53.9572 55.2558 54.0689 55.2834 54.172 55.3319C54.2751 55.3803 54.3676 55.4486 54.4444 55.5328C54.5211 55.6171 54.5804 55.7156 54.6191 55.8227C54.6577 55.9299 54.6749 56.0436 54.6696 56.1574L54.6337 57.0015C54.621 57.1608 54.5661 57.3139 54.4746 57.4449C54.383 57.5759 54.2581 57.6801 54.1128 57.7468Z" fill="#0E2549"/>
<path d="M56.8561 51.6375C56.6526 51.7294 56.4221 51.7422 56.2096 51.6734C54.4439 51.1674 52.5539 51.3272 50.8981 52.1224C50.7973 52.1754 50.687 52.2081 50.5736 52.2186C50.4601 52.229 50.3457 52.217 50.2369 52.1832C50.1281 52.1495 50.027 52.0946 49.9394 52.0217C49.8518 51.9489 49.7794 51.8595 49.7263 51.7587C49.6732 51.6579 49.6406 51.5476 49.6301 51.4341C49.6197 51.3207 49.6317 51.2063 49.6655 51.0975C49.6992 50.9886 49.7541 50.8875 49.8269 50.7999C49.8998 50.7123 49.9892 50.6399 50.09 50.5869C52.1649 49.5671 54.5459 49.3589 56.7663 50.0032C56.9304 50.0593 57.0739 50.1631 57.1786 50.3013C57.2833 50.4395 57.3444 50.6058 57.354 50.7789C57.3637 50.952 57.3214 51.124 57.2327 51.273C57.144 51.4219 57.0129 51.541 56.8561 51.615V51.6375Z" fill="#0A3F64"/>
<path d="M72.5932 53.422C72.4564 53.4841 72.3062 53.5109 72.1564 53.4999C72.0066 53.4889 71.8619 53.4405 71.7356 53.3591C70.1804 52.378 68.3195 52.001 66.505 52.2996C66.28 52.3484 66.0447 52.3058 65.851 52.1812C65.6574 52.0566 65.5212 51.8601 65.4724 51.6351C65.4236 51.41 65.4661 51.1748 65.5907 50.9811C65.7153 50.7875 65.9118 50.6512 66.1369 50.6024C68.4139 50.1962 70.7604 50.6661 72.7054 51.9179C72.8003 51.9812 72.8816 52.0626 72.9447 52.1575C73.0079 52.2524 73.0516 52.3589 73.0733 52.4708C73.095 52.5827 73.0943 52.6978 73.0712 52.8095C73.0482 52.9211 73.0032 53.027 72.9389 53.1212C72.8533 53.2511 72.7337 53.3551 72.5932 53.422Z" fill="#0A3F64"/>
<path d="M63.4967 65.3394C62.8173 65.6428 62.0999 65.8528 61.3641 65.9635C61.2515 65.9812 61.1365 65.9765 61.0256 65.9497C60.9148 65.923 60.8104 65.8747 60.7182 65.8075C60.6261 65.7404 60.5481 65.6558 60.4886 65.5585C60.4292 65.4613 60.3895 65.3532 60.3719 65.2406C60.3542 65.128 60.3588 65.013 60.3856 64.9022C60.4123 64.7914 60.4607 64.6869 60.5278 64.5948C60.5949 64.5026 60.6795 64.4246 60.7768 64.3652C60.874 64.3058 60.9821 64.2661 61.0947 64.2484C62.2172 64.0688 63.2543 63.6063 63.3396 63.3504C63.4967 62.7129 63.5057 62.6724 62.3339 59.1031L61.3776 56.1622C61.3425 56.0538 61.3291 55.9394 61.3382 55.8258C61.3473 55.7121 61.3787 55.6014 61.4306 55.4998C61.4825 55.3983 61.5539 55.308 61.6407 55.2341C61.7275 55.1602 61.8281 55.1041 61.9365 55.069C62.045 55.0339 62.1593 55.0205 62.273 55.0296C62.3867 55.0387 62.4974 55.0701 62.5989 55.122C62.7005 55.1739 62.7907 55.2453 62.8646 55.3321C62.9386 55.4189 62.9947 55.5195 63.0298 55.628C63.4114 56.8043 63.7257 57.7651 63.9861 58.5643C65.2073 62.2998 65.3106 62.6051 65.0278 63.7635C64.9039 64.1224 64.7025 64.4497 64.4379 64.7221C64.1733 64.9945 63.852 65.2052 63.4967 65.3394Z" fill="#0A3F64"/>
<path d="M37.5366 62.7842C37.5366 62.7842 38.5468 63.9066 40.6795 66.2234C43.1264 68.9172 67.1199 68.8409 68.8485 68.0821C72.6558 66.4119 71.8791 63.1164 73.253 63.4756C74.9546 63.9246 72.117 80.7523 70.1999 83.0376C68.2827 85.3229 50.8713 85.1883 41.6538 82.7683C33.9807 80.7703 37.5366 62.7842 37.5366 62.7842Z" fill="#0A3F64"/>
<path d="M67.8786 69.6587C68.3904 70.4309 66.0333 73.3762 63.1643 73.4346C58.4769 73.5334 56.8785 70.0044 58.0279 70.184C58.4769 70.2513 60.2145 71.2256 63.0161 71.1044C66.0422 70.9742 67.5329 69.1379 67.8786 69.6587Z" fill="white"/>
<path d="M37.9766 38.4738C37.9766 38.4738 64.4664 47.7363 77.1411 38.9453C89.8158 30.1543 70.5187 28.6996 58.8272 29.2383C47.1358 29.7771 30.6987 31.2318 37.9766 38.4738Z" fill="#0A3F64"/>
<path d="M43.5484 32.3127C43.5484 32.3127 27.5916 27.4009 31.2508 49.2213C33.3431 61.6939 28.3504 45.4813 42.7537 37.2111C44.2488 36.3535 43.5484 32.3127 43.5484 32.3127Z" fill="#0A3F64"/>
</g>
<defs>
<filter id="filter0_d" x="0" y="0.90625" width="112" height="112" filterUnits="userSpaceOnUse" color-interpolation-filters="sRGB">
<feFlood flood-opacity="0" result="BackgroundImageFix"/>
<feColorMatrix in="SourceAlpha" type="matrix" values="0 0 0 0 0 0 0 0 0 0 0 0 0 0 0 0 0 0 127 0"/>
<feOffset/>
<feGaussianBlur stdDeviation="6"/>
<feColorMatrix type="matrix" values="0 0 0 0 0 0 0 0 0 0 0 0 0 0 0 0 0 0 0.15 0"/>
<feBlend mode="normal" in2="BackgroundImageFix" result="effect1_dropShadow"/>
<feBlend mode="normal" in="SourceGraphic" in2="effect1_dropShadow" result="shape"/>
</filter>
</defs>
</svg>
