<svg width="99" height="88" viewBox="0 0 99 88" fill="none" xmlns="http://www.w3.org/2000/svg">
<path d="M74.2811 0H24.7811L0 44.032L24.7811 88H74.2811L99 44.032L74.2811 0Z" fill="#9DEAED"/>
<g clip-path="url(#clip0)">
<path d="M49.5 37.2065C47.1306 37.2065 45.203 39.1342 45.203 41.5036C45.203 43.4667 46.5267 45.1253 48.3281 45.6368V59.0042C48.3281 59.6514 48.8528 60.1761 49.5 60.1761C50.1472 60.1761 50.6719 59.6514 50.6719 59.0042V45.6368C52.4733 45.1253 53.797 43.4667 53.797 41.5036C53.797 39.1342 51.8694 37.2065 49.5 37.2065V37.2065ZM49.5 43.4568C48.423 43.4568 47.5468 42.5806 47.5468 41.5036C47.5468 40.4266 48.423 39.5504 49.5 39.5504C50.577 39.5504 51.4532 40.4266 51.4532 41.5036C51.4532 42.5806 50.577 43.4568 49.5 43.4568V43.4568Z" fill="#00929A"/>
<path d="M44.0784 35.2378C43.6209 34.7801 42.8789 34.7801 42.4211 35.2378C38.7878 38.871 38.7872 44.7522 42.4211 48.386C42.8789 48.8436 43.6208 48.8436 44.0784 48.386C44.5361 47.9284 44.5361 47.1863 44.0784 46.7286C41.3612 44.0114 41.3607 39.6128 44.0784 36.8951C44.5361 36.4374 44.5361 35.6954 44.0784 35.2378V35.2378Z" fill="#00929A"/>
<path d="M56.5788 35.2382C56.1212 34.7806 55.3792 34.7806 54.9215 35.2382C54.4638 35.6958 54.4638 36.4379 54.9215 36.8955C57.6326 39.6066 57.6326 44.018 54.9215 46.7291C54.4638 47.1867 54.4638 47.9287 54.9215 48.3864C55.3792 48.8441 56.1211 48.8441 56.5788 48.3864C60.2039 44.7615 60.2039 38.8631 56.5788 35.2382V35.2382Z" fill="#00929A"/>
<path d="M40.5427 33.3589C41.0004 32.9013 41.0004 32.1593 40.5427 31.7016C40.0851 31.244 39.3431 31.244 38.8854 31.7016C33.3108 37.2762 33.3108 46.3466 38.8854 51.9211C39.3429 52.3787 40.085 52.379 40.5427 51.9211C41.0004 51.4635 41.0004 50.7215 40.5427 50.2638C35.8821 45.6031 35.8821 38.0196 40.5427 33.3589V33.3589Z" fill="#00929A"/>
<path d="M60.1145 31.7016C59.6569 31.244 58.9148 31.244 58.4571 31.7016C57.9995 32.1592 57.9995 32.9012 58.4571 33.3589C63.1178 38.0196 63.1178 45.6031 58.4571 50.2638C57.9995 50.7214 57.9995 51.4635 58.4571 51.9211C58.9149 52.3788 59.6568 52.3788 60.1145 51.9211C65.689 46.3466 65.689 37.2762 60.1145 31.7016V31.7016Z" fill="#00929A"/>
<path d="M37.0066 29.8238C37.4643 29.3662 37.4643 28.6241 37.0066 28.1664C36.549 27.7088 35.807 27.7088 35.3493 28.1664C27.5411 35.9745 27.5581 47.6661 35.3493 55.4573C35.8068 55.9149 36.5489 55.9151 37.0066 55.4573C37.4643 54.9997 37.4643 54.2577 37.0066 53.8C30.1724 46.9656 30.1724 36.6581 37.0066 29.8238V29.8238Z" fill="#00929A"/>
<path d="M63.6502 28.1664C63.1926 27.7088 62.4505 27.7088 61.9929 28.1664C61.5352 28.624 61.5352 29.3661 61.9929 29.8238C68.8272 36.6581 68.8272 46.9656 61.9929 53.8C61.5352 54.2576 61.5352 54.9996 61.9929 55.4573C62.4506 55.915 63.1925 55.915 63.6502 55.4573C71.4583 47.6493 71.4415 35.9576 63.6502 28.1664V28.1664Z" fill="#00929A"/>
</g>
<defs>
<clipPath id="clip0">
<rect width="40" height="40" fill="white" transform="translate(29.5 24)"/>
</clipPath>
</defs>
</svg>
