<svg width="418" height="418" viewBox="0 0 418 418" fill="none" xmlns="http://www.w3.org/2000/svg">
<g clip-path="url(#clip0)">
<path d="M215.89 355.073C295.195 355.073 359.484 288.025 359.484 205.318C359.484 122.61 295.195 55.5625 215.89 55.5625C136.586 55.5625 72.2964 122.61 72.2964 205.318C72.2964 288.025 136.586 355.073 215.89 355.073Z" fill="white"/>
<path d="M390.732 315.003L410.46 268.932C413.089 262.836 410.241 255.824 404.129 253.188L373.88 240.284C373.268 240.02 372.902 239.356 372.982 238.668C376.247 220.846 376.436 202.927 373.943 185.513C373.874 184.833 374.224 184.188 374.836 183.946L405.573 171.685C411.719 169.204 414.716 162.255 412.216 156.116L393.493 109.435C390.993 103.296 384.025 100.29 377.879 102.772L347.728 114.852C347.116 115.094 346.33 114.9 345.938 114.297C335.499 99.1666 322.446 85.7282 307.109 74.558C306.55 74.1724 306.359 73.4393 306.587 72.7425L319.698 42.1792C322.328 36.084 319.48 29.0721 313.367 26.4353L267.164 6.64965C261.051 4.01287 254.031 6.84056 251.402 12.9357L238.194 43.8911C237.931 44.5006 237.267 44.8646 236.577 44.7837C219.211 41.8472 201.736 41.6833 184.8 44.1373C184.119 44.2047 183.472 43.8538 183.167 43.2162L170.714 12.2523C168.214 6.11357 161.246 3.10765 155.1 5.58949L108.488 24.2321C102.343 26.7139 99.3454 33.6624 101.845 39.8012L114.194 70.503C114.438 71.1143 114.245 71.8984 113.641 72.2888C98.6517 82.6673 85.3015 95.6324 74.2286 110.881C73.8435 111.438 73.083 111.688 72.4106 111.398L42.0044 98.3546C35.8917 95.7178 28.8719 98.5455 26.2427 104.641L6.51426 150.712C3.88503 156.807 6.73289 163.819 12.8455 166.456L43.7059 179.623C44.3172 179.887 44.6833 180.551 44.6037 181.24C41.4951 199.707 41.6979 218.229 44.7585 236.177C44.8886 236.884 44.5383 237.528 43.8389 237.805L13.9765 249.72C7.83091 252.202 4.83358 259.15 7.3331 265.289L26.1094 311.848C28.609 317.987 35.5774 320.993 41.723 318.511L72.8093 306.112C73.4212 305.87 74.1462 306.038 74.5386 306.641C84.2109 319.85 95.9556 331.784 109.441 341.866C110 342.252 110.191 342.985 109.902 343.656L96.7731 374.428C94.1439 380.523 96.9918 387.535 103.104 390.172L149.308 409.958C155.42 412.594 162.44 409.767 165.069 403.672L178.041 373.265C178.304 372.655 178.968 372.291 179.658 372.372C198.631 375.785 217.74 375.859 236.162 372.817C236.87 372.688 237.516 373.039 237.795 373.738L249.865 403.741C252.364 409.88 259.333 412.886 265.478 410.404L312.091 391.761C318.236 389.279 321.233 382.331 318.734 376.192L306.28 345.228C306.037 344.617 306.203 343.894 306.807 343.504C320.17 333.87 332.191 322.138 342.318 308.578C342.703 308.021 343.437 307.832 344.109 308.122L374.909 321.263C381.082 323.926 388.129 321.037 390.732 315.003ZM157.02 332.244C87.2307 302.428 54.7468 221.762 84.4755 152.171C114.204 82.5805 194.962 50.3282 264.752 80.1435C334.541 109.959 367.025 190.626 337.296 260.216C307.541 329.868 226.783 362.12 157.02 332.244Z" fill="#42A6B1"/>
<path d="M275.471 386.086L282.128 407.593L265.619 407.461L258.296 388.476L275.471 386.086Z" fill="white"/>
<path d="M283.526 408.589L264.953 408.456L256.898 387.679L276.204 384.957L283.526 408.589ZM266.284 406.464L280.797 406.531L274.806 387.148L259.694 389.272L266.284 406.464Z" fill="#0A3F64"/>
<path d="M283.126 405.801C283.126 405.801 308.623 414.032 309.422 420.67L263.621 420.405L263.688 405.668L283.126 405.801Z" fill="#0A3F64"/>
<path d="M262.224 417.617V421.733L310.887 421.998V417.617H262.224Z" fill="#0A3F64"/>
<path d="M274.406 417.351C273.873 417.351 273.407 416.887 273.407 416.356L273.474 407.527C273.474 406.996 273.94 406.531 274.472 406.531C275.005 406.531 275.471 406.996 275.471 407.527L275.404 416.356C275.404 416.887 274.938 417.351 274.406 417.351Z" fill="#0A3F64"/>
<path d="M265.619 291.961L287.121 307.029L276.936 316.522L263.888 305.635L265.619 291.961Z" fill="white"/>
<path d="M277.002 317.849L262.822 306.033L264.886 290.168L288.718 306.962L277.002 317.849ZM264.953 305.236L276.935 315.193L285.59 307.161L266.484 293.686L264.953 305.236Z" fill="#0A3F64"/>
<path d="M286.988 305.237C286.988 305.237 307.891 296.276 312.152 299.993L282.794 325.417L274.605 315.991L286.988 305.237Z" fill="#0A3F64"/>
<path d="M311.819 297.469L313.949 299.925L282.794 326.942L280.331 324.154L311.819 297.469Z" fill="#0A3F64"/>
<path d="M285.19 322.961C284.924 322.961 284.658 322.828 284.458 322.629L279.532 316.986C279.199 316.588 279.199 315.924 279.598 315.592C279.998 315.26 280.663 315.26 280.996 315.659L285.922 321.301C286.255 321.699 286.255 322.363 285.856 322.695C285.656 322.828 285.456 322.961 285.19 322.961Z" fill="#0A3F64"/>
<path d="M172.751 297.935C172.751 297.935 225.675 314.53 234.995 319.708C252.437 329.399 286.455 395.249 286.455 395.249L253.835 396.776L213.826 347.189C213.826 347.189 186.731 346.459 156.575 337.232C136.603 331.125 116.965 313.534 116.965 313.534L148.586 267.068C148.586 267.068 205.438 249.61 235.195 248.68C240.721 248.481 285.19 300.988 285.19 300.988L266.484 313.999L234.463 281.937L192.323 304.706L172.751 297.935Z" fill="#0A3F64"/>
<path d="M127.816 177.719C127.816 177.719 126.951 196.637 128.549 198.828C130.146 201.018 140.798 209.05 140.798 209.05L121.892 250.406L89.2052 247.286L87.0083 213.896C87.0083 213.896 101.92 201.748 102.786 199.226C104.051 195.774 103.984 177.387 103.984 177.387L127.816 177.719Z" fill="white"/>
<path d="M122.491 251.467L88.2732 248.215L86.0098 213.498L86.4092 213.166C93.5989 207.258 101.388 200.354 101.92 198.96C102.919 196.239 103.052 182.498 103.052 177.453C103.052 176.922 103.518 176.457 104.051 176.457C104.583 176.457 105.049 176.922 105.049 177.453C105.049 179.378 105.049 196.106 103.784 199.624C102.852 202.146 91.3355 211.705 88.0735 214.36L90.1372 246.356L121.292 249.277L139.6 209.316C137.136 207.457 129.214 201.35 127.75 199.358C126.086 197.101 126.618 182.166 126.818 177.586C126.818 177.054 127.284 176.59 127.883 176.656C128.416 176.656 128.882 177.121 128.815 177.718C128.416 186.613 128.482 196.969 129.348 198.23C130.546 199.889 138.468 206.063 141.397 208.253L142.063 208.718L122.491 251.467Z" fill="#0A3F64"/>
<path d="M127.35 141.938C131.278 143.067 140.931 145.722 139.666 152.891C138.201 161.123 134.939 171.412 133.142 176.788C132.41 178.913 130.279 180.24 128.016 179.842L103.185 175.461C100.922 175.062 99.3238 173.005 99.457 170.748C99.923 162.981 101.055 146.585 102.386 144.328C106.979 136.562 121.093 140.146 127.35 141.938Z" fill="#0A3F64"/>
<path d="M104.184 181.17C103.118 179.577 103.518 173.935 104.45 167.629C104.45 167.43 104.383 167.297 104.25 167.164C102.786 165.903 100.789 163.447 101.388 160.327C101.92 157.672 103.784 158.534 105.182 159.663C105.448 159.862 105.781 159.729 105.848 159.397C107.312 151.83 108.91 145.325 108.91 145.325L138.401 150.502C138.401 150.502 137.136 157.207 135.539 164.774C135.472 165.106 131.012 182.896 130.013 184.423C129.481 185.22 128.615 185.883 127.484 186.282C127.484 186.282 125.287 187.477 114.569 185.618L104.184 181.17Z" fill="white"/>
<path d="M124.421 187.675C122.357 187.675 119.229 187.41 114.569 186.613C114.036 186.547 113.637 186.016 113.77 185.485C113.836 184.954 114.369 184.555 114.902 184.688C124.754 186.414 127.084 185.485 127.151 185.485L127.217 185.418C128.149 185.02 128.881 184.555 129.281 183.958C130.146 182.564 134.34 165.902 134.673 164.641C135.938 158.866 136.937 153.556 137.336 151.431L109.776 146.586C109.31 148.643 108.045 153.887 106.98 159.729C106.913 160.194 106.514 160.658 106.048 160.791C105.582 160.99 105.049 160.857 104.65 160.525C103.651 159.729 103.052 159.596 102.919 159.663C102.852 159.663 102.652 159.928 102.519 160.592C101.92 163.446 104.05 165.703 105.049 166.5C105.448 166.832 105.648 167.363 105.582 167.894C104.05 177.851 104.783 180.174 105.116 180.705C105.448 181.17 105.315 181.767 104.849 182.099C104.383 182.431 103.784 182.298 103.451 181.834C102.719 180.772 101.987 178.183 103.584 167.894C102.32 166.765 99.8564 163.977 100.589 160.26C100.855 158.932 101.454 158.136 102.32 157.804C103.118 157.538 104.117 157.737 105.249 158.468C106.647 151.365 108.111 145.258 108.111 145.192L108.311 144.262L139.733 149.772L139.533 150.768C139.533 150.834 138.268 157.605 136.67 165.039C136.604 165.239 132.143 183.294 131.012 185.02C130.413 185.949 129.414 186.746 128.083 187.211C127.683 187.343 126.751 187.675 124.421 187.675Z" fill="#0A3F64"/>
<path d="M116.233 164.906C116.167 164.906 116.1 164.906 116.033 164.906C115.501 164.773 115.168 164.242 115.301 163.711L115.434 163.114C115.567 162.583 116.1 162.251 116.633 162.384C117.165 162.517 117.498 163.048 117.365 163.579L117.232 164.176C117.099 164.641 116.699 164.906 116.233 164.906Z" fill="#0A3F64"/>
<path d="M128.881 167.161C128.815 167.161 128.748 167.161 128.682 167.161C128.149 167.029 127.75 166.564 127.883 165.967L128.016 165.236C128.149 164.705 128.615 164.307 129.148 164.44C129.68 164.573 130.08 165.037 129.946 165.635L129.813 166.365C129.813 166.83 129.347 167.161 128.881 167.161Z" fill="#0A3F64"/>
<path d="M112.571 159.995C112.105 159.995 111.706 159.663 111.573 159.265C111.44 158.734 111.773 158.203 112.305 158.07C116.699 157.008 119.894 157.539 120.027 157.539C120.56 157.605 120.959 158.136 120.826 158.667C120.76 159.199 120.227 159.597 119.694 159.464C119.694 159.464 116.699 158.999 112.705 159.929C112.771 159.995 112.705 159.995 112.571 159.995Z" fill="#0A3F64"/>
<path d="M114.103 141.408C114.103 141.408 100.922 135.566 101.854 154.617C102.386 165.504 99.7233 151.099 112.971 145.523C114.302 144.926 114.103 141.408 114.103 141.408Z" fill="#0A3F64"/>
<path d="M122.89 173.605C122.424 173.605 121.958 173.273 121.892 172.742C121.825 172.211 122.224 171.68 122.757 171.613C123.822 171.481 124.954 171.149 125.287 170.883C125.287 170.219 125.02 168.162 124.887 166.635C124.355 162.652 124.222 160.86 124.488 159.997C124.621 159.598 125.02 159.134 125.952 158.935C127.816 158.536 131.544 159.598 133.608 161.523C134.007 161.922 134.007 162.519 133.608 162.917C133.209 163.316 132.609 163.316 132.21 162.917C130.479 161.258 127.217 160.528 126.352 160.793C126.285 161.59 126.618 164.511 126.884 166.303C127.35 169.887 127.417 170.95 127.217 171.547C126.751 172.875 124.421 173.339 123.09 173.538C122.957 173.605 122.957 173.605 122.89 173.605Z" fill="#0A3F64"/>
<path d="M108.91 148.84C108.91 148.84 127.483 158.399 137.802 153.288C148.12 148.11 134.007 145.057 125.287 144.26C116.566 143.397 104.317 142.733 108.91 148.84Z" fill="#0A3F64"/>
<path d="M115.9 142.469C115.9 142.469 103.385 136.627 103.851 154.882C104.117 165.304 101.92 151.496 114.702 146.385C115.967 145.854 115.9 142.469 115.9 142.469Z" fill="#0A3F64"/>
<path d="M102.253 201.682L99.0576 216.817L125.886 218.211L139.466 207.258L129.813 196.902L123.556 199.69L102.253 201.682Z" fill="white"/>
<path d="M209.765 253.258C213.76 252.328 216.822 248.744 222.547 250.536C225.343 251.399 237.525 250.536 233.864 248.412C230.203 246.288 218.885 242.371 218.885 242.371L209.366 245.624L201.976 244.628L196.917 258.236C196.917 258.302 205.771 254.187 209.765 253.258Z" fill="white"/>
<path d="M195.12 260.161L201.311 243.566L209.299 244.628L218.952 241.375L219.285 241.508C219.751 241.641 230.802 245.424 234.463 247.615C235.928 248.478 235.661 249.407 235.528 249.805C234.463 252.195 224.544 252.195 222.347 251.531C218.752 250.469 216.422 251.598 213.893 252.792C212.694 253.39 211.43 253.987 210.032 254.319C206.237 255.182 197.45 259.231 197.383 259.231L195.12 260.161ZM202.642 245.756L198.714 256.377C201.644 255.116 206.77 252.925 209.566 252.328C210.697 252.062 211.829 251.531 212.961 251C215.557 249.739 218.553 248.345 222.88 249.606C224.81 250.204 231.068 249.805 233.132 249.142C229.737 247.217 220.749 244.097 218.952 243.499L209.499 246.685L202.642 245.756Z" fill="#0A3F64"/>
<path d="M266.484 261.625L238.724 306.498H190.792L215.224 261.625H266.484Z" fill="#DBE2F8"/>
<path d="M239.256 307.494H189.128L214.625 260.629H268.281L239.256 307.494ZM192.457 305.502H238.125L264.687 262.62H215.823L192.457 305.502Z" fill="#0A3F64"/>
<path d="M203.108 299.856C202.975 299.856 202.775 299.79 202.642 299.723C202.176 299.458 201.977 298.86 202.243 298.396L219.218 266.865C219.485 266.4 220.084 266.201 220.55 266.467C221.016 266.732 221.216 267.33 220.949 267.794L203.974 299.325C203.774 299.657 203.441 299.856 203.108 299.856Z" fill="white"/>
<path d="M174.749 303.442L183.67 306.828C183.67 306.828 185.8 312.603 187.531 313.466C191.059 315.258 202.243 312.072 203.042 309.948C203.841 307.824 195.053 298.928 195.053 298.928C195.053 298.928 199.314 296.472 200.179 295.676C200.379 295.477 197.849 293.153 196.851 292.821C195.519 292.357 191.924 292.954 191.924 292.954L177.612 294.215L174.749 303.442Z" fill="white"/>
<path d="M190.526 314.995C189.128 314.995 187.93 314.796 187.064 314.331C185.334 313.402 183.603 309.352 182.937 307.56L173.551 303.976L176.813 293.222L191.724 291.894C192.457 291.761 195.652 291.297 197.117 291.761C198.182 292.093 200.911 294.417 201.111 295.28L201.244 295.811L200.845 296.275C200.179 296.873 198.049 298.2 196.651 298.997C200.112 302.582 204.772 307.958 203.974 310.149C203.84 310.481 203.441 311.609 199.979 312.937C197.45 314.065 193.588 314.995 190.526 314.995ZM176.014 302.847L184.535 306.033L184.668 306.432C185.6 309.021 187.198 312.074 187.996 312.539C189.594 313.402 193.988 312.937 198.115 311.543C201.044 310.547 201.976 309.684 202.11 309.485C202.176 308.489 198.648 303.909 194.321 299.528L193.389 298.599L194.52 297.935C195.719 297.205 197.649 296.076 198.714 295.346C198.049 294.682 196.917 293.753 196.451 293.62C195.652 293.355 193.389 293.554 191.991 293.819H191.924L178.277 295.014L176.014 302.847Z" fill="#0A3F64"/>
<path d="M98.7913 199.823C103.052 198.761 118.297 211.506 126.551 209.182C129.015 208.452 131.145 203.142 132.01 200.42C136.005 188.206 157.241 239.054 164.43 240.647L205.172 238.855L204.706 257.176L170.488 263.084C170.488 263.084 173.75 265.805 174.816 269.987C175.082 271.182 117.098 316.786 116.299 315.923C66.9703 261.092 79.4857 204.602 98.7913 199.823Z" fill="#F38704"/>
<path d="M110.708 207.59C123.556 208.187 110.242 259.698 137.403 269.058C165.762 278.816 186.066 288.84 185.866 289.902C185.866 289.902 176.08 308.621 175.681 309.019C175.681 309.019 151.715 302.315 117.431 291.893C103.185 287.578 94.3311 262.354 89.538 243.767C86.8752 233.146 98.4586 207.058 110.708 207.59Z" fill="#F38704"/>
<path d="M137.269 298.796C137.203 298.796 137.07 298.796 137.003 298.73C130.412 296.739 123.755 294.747 117.165 292.822C102.719 288.441 93.6652 263.88 88.6058 243.966C88.4726 243.435 88.8055 242.904 89.3381 242.771C89.8706 242.638 90.4032 242.97 90.5363 243.501C95.4626 262.884 104.183 286.848 117.697 290.897C124.221 292.888 130.878 294.88 137.469 296.805C138.002 296.938 138.268 297.535 138.135 298.066C138.068 298.531 137.669 298.796 137.269 298.796Z" fill="#0A3F64"/>
<path d="M176.413 308.751C176.28 308.751 176.08 308.685 175.947 308.618C175.481 308.353 175.282 307.755 175.548 307.291L184.668 290.032C181.672 287.907 163.299 279.012 137.07 269.985C122.757 265.072 119.162 249.008 117.365 232.479C117.298 231.948 117.698 231.417 118.23 231.417C118.763 231.351 119.295 231.749 119.295 232.28C120.893 247.083 123.689 263.347 137.669 268.126C154.312 273.835 166.76 279.212 172.685 281.867C187.131 288.372 186.931 289.301 186.732 290.098V290.231L177.212 308.22C177.079 308.552 176.746 308.751 176.413 308.751Z" fill="#0A3F64"/>
<path d="M169.09 262.288C168.758 262.288 168.491 262.156 168.292 261.89L137.203 219.34C136.87 218.875 137.003 218.278 137.403 217.946C137.869 217.614 138.468 217.747 138.801 218.145L169.889 260.695C170.222 261.16 170.089 261.757 169.69 262.089C169.556 262.222 169.357 262.288 169.09 262.288Z" fill="#0A3F64"/>
<path d="M124.687 199.159L122.69 206.992L96.9272 204.536L98.9244 196.703L124.687 199.159Z" fill="white"/>
<path d="M124.687 199.158L129.081 204.203L137.535 198.295L130.745 193.383L124.687 199.158Z" fill="white"/>
<path d="M139.266 198.298L130.612 192.125L124.288 198.166L98.1252 195.643L95.6621 205.468L123.422 208.123L125.153 201.352L128.948 205.667L139.266 198.298ZM121.958 205.932L98.1918 203.675L99.6564 197.767L123.422 200.091L121.958 205.932ZM130.812 194.714L135.805 198.298L129.214 202.945L126.019 199.294L130.812 194.714Z" fill="#0A3F64"/>
<path d="M117.498 174.068C116.899 174.599 118.496 177.453 121.159 178.051C125.486 179.047 127.616 176.524 126.551 176.391C126.152 176.391 124.288 176.79 121.758 176.126C118.962 175.528 117.964 173.736 117.498 174.068Z" fill="#0A3F64"/>
<path d="M235.595 284.06C235.595 286.516 233.598 288.507 231.135 288.507C228.672 288.507 226.675 286.516 226.675 284.06C226.675 281.604 228.672 279.612 231.135 279.612C233.598 279.612 235.595 281.604 235.595 284.06Z" fill="white"/>
<path d="M231.135 289.503C228.139 289.503 225.676 287.047 225.676 284.059C225.676 281.072 228.139 278.616 231.135 278.616C234.13 278.616 236.593 281.072 236.593 284.059C236.593 287.047 234.13 289.503 231.135 289.503ZM231.135 280.608C229.204 280.608 227.673 282.134 227.673 284.059C227.673 285.984 229.204 287.511 231.135 287.511C233.065 287.511 234.596 285.984 234.596 284.059C234.596 282.134 233.065 280.608 231.135 280.608Z" fill="#0A3F64"/>
</g>
<defs>
<clipPath id="clip0">
<rect width="418" height="418" fill="white"/>
</clipPath>
</defs>
</svg>
