<svg width="326" height="106" viewBox="0 0 326 106" fill="none" xmlns="http://www.w3.org/2000/svg">
<path d="M116.957 54.5504H60.5261L31.4175 0.621094H87.8481L116.957 54.5504Z" fill="#F09700"/>
<path d="M31.4175 105.621H87.8481L116.957 54.5503H60.5261L31.4175 105.621Z" fill="#E94F0F"/>
<path d="M60.8285 54.5779L31.2526 0.621094L0 53.0111L31.3626 105.621L60.8285 54.5779Z" fill="#EE7802"/>
<path d="M86.8037 29.4824H47.4149V33.6055H86.7762C87.9031 33.6055 88.8377 34.54 88.8377 35.667V48.0086C88.8377 49.1356 87.9031 50.0701 86.7762 50.0701H80.5641V41.8515L68.14 52.1316L80.5641 62.4117V54.1931H86.7762C90.212 54.1931 92.9882 51.417 92.9882 48.0086V35.667C93.0157 32.2586 90.212 29.4824 86.8037 29.4824Z" fill="white"/>
<path d="M59.8665 74.7532H32.9293C31.7749 74.7532 30.8678 73.8187 30.8678 72.6917V56.227C30.8678 55.1001 31.8024 54.1655 32.9293 54.1655H43.2919V50.0425H32.9293C29.4935 50.0425 26.7173 52.8187 26.7173 56.227V72.6917C26.7173 76.1001 29.4935 78.8763 32.9293 78.8763H59.8665V87.0948L72.2906 76.8147L59.8665 66.5346V74.7532Z" fill="white"/>
<path d="M28.7788 37.701H41.2029C42.3298 37.701 43.2644 36.7664 43.2644 35.6395V27.4209C43.2644 26.2939 42.3298 25.3594 41.2029 25.3594H28.7788C27.6518 25.3594 26.7173 26.2939 26.7173 27.4209V35.6395C26.7173 36.7939 27.6518 37.701 28.7788 37.701Z" fill="white"/>
<path d="M49.5039 58.2884H61.928C63.0549 58.2884 63.9895 57.3538 63.9895 56.2269V48.0083C63.9895 46.8813 63.0549 45.9468 61.928 45.9468H49.5039C48.3769 45.9468 47.4424 46.8813 47.4424 48.0083V56.2269C47.4149 57.3538 48.3494 58.2884 49.5039 58.2884Z" fill="white"/>
<path d="M90.9268 70.6304H78.5027C77.3757 70.6304 76.4412 71.5649 76.4412 72.6919V80.9105C76.4412 82.0375 77.3757 82.972 78.5027 82.972H90.9268C92.0537 82.972 92.9883 82.0375 92.9883 80.9105V72.6919C93.0158 71.5649 92.0812 70.6304 90.9268 70.6304Z" fill="white"/>
<path d="M137.38 78.2717V71.8397C137.38 71.1251 137.6 70.6028 138.094 69.9706L165.196 36.7389C165.416 36.4366 165.306 36.1068 164.894 36.1068H139.469C138.534 36.1068 137.902 35.4746 137.902 34.54V28.5204C137.902 27.5858 138.534 26.9536 139.469 26.9536H175.889C176.823 26.9536 177.456 27.5858 177.456 28.5204V34.9798C177.456 35.6944 177.236 36.4366 176.741 36.9588L149.199 70.163C148.979 70.4654 149.089 70.7952 149.501 70.7952H175.971C176.906 70.7952 177.538 71.4274 177.538 72.362V78.2717C177.538 79.2062 176.906 79.8384 175.971 79.8384H138.919C137.984 79.8109 137.38 79.2062 137.38 78.2717Z" fill="#E94F0F"/>
<path d="M182.403 65.9023C181.249 62.4665 180.534 57.7937 180.534 53.2309C180.534 48.668 181.166 44.1052 182.293 40.7793C185.317 31.6536 193.288 26.1562 203.87 26.1562C213.931 26.1562 221.709 31.6536 224.843 40.6968C226.08 44.2151 226.712 48.8055 226.712 53.1484C226.712 57.6013 226.08 62.274 224.843 65.9023C221.737 75.1379 213.848 80.6353 203.761 80.6353C193.425 80.6628 185.427 75.1379 182.403 65.9023ZM215.525 63.0987C216.24 60.5973 216.679 56.8591 216.679 53.3408C216.679 49.4926 216.267 45.9743 215.635 43.6929C213.876 38.0856 209.505 34.7597 203.596 34.7597C197.878 34.7597 193.535 38.0856 191.776 43.6929C191.062 45.9743 190.622 49.4926 190.622 53.3408C190.622 57.079 191.034 60.7073 191.776 63.0987C193.425 68.706 197.906 72.0319 203.815 72.0319C209.395 72.0319 213.766 68.706 215.525 63.0987Z" fill="#E94F0F"/>
<path d="M266.486 26.981H273.22C274.154 26.981 274.787 27.6132 274.787 28.5477V78.2715C274.787 79.2061 274.154 79.8383 273.22 79.8383H266.486C265.551 79.8383 264.919 79.2061 264.919 78.2715V75.1655C264.919 74.7532 264.617 74.6433 264.287 74.9456C261.593 78.5739 257.442 80.5529 251.615 80.5529C241.747 80.5529 232.732 74.8357 232.732 63.4286V28.5477C232.732 27.6132 233.364 26.981 234.298 26.981H241.06C241.995 26.981 242.627 27.6132 242.627 28.5477V60.2951C242.627 67.3592 246.558 71.9221 253.512 71.9221C260.466 71.9221 264.919 67.3592 264.919 60.2951V28.5477C264.919 27.6132 265.551 26.981 266.486 26.981Z" fill="#E94F0F"/>
<path d="M317.117 26.9809H323.961C324.895 26.9809 325.528 27.6131 325.528 28.5476V77.117C325.528 96.8251 311.097 101.498 294.715 100.261C293.67 100.261 293.258 99.5463 293.258 98.6118L293.478 92.4822C293.478 91.5476 294.192 90.9154 295.237 91.0254C309.448 91.9599 315.577 88.4416 315.577 76.8146V75.0555C315.577 74.6432 315.275 74.5332 314.945 74.8356C312.251 77.8591 308.211 79.8107 302.274 79.8107C293.973 79.8107 285.452 75.5502 282.565 65.9023C281.521 62.384 281.219 58.0136 281.219 53.2309C281.219 48.1458 281.521 43.6929 282.785 39.9547C285.369 31.846 292.323 26.1562 301.669 26.1562C307.579 26.1562 311.949 28.0254 314.945 31.2413C315.247 31.6536 315.577 31.4612 315.577 31.0214V28.5201C315.577 27.6131 316.182 26.9809 317.117 26.9809ZM315.577 53.1484C315.577 46.9089 315.357 45.562 314.863 43.5005C313.818 38.6353 309.887 34.7871 303.868 34.7871C297.848 34.7871 294 38.6353 292.461 43.5005C291.746 45.4795 291.306 48.2832 291.306 53.1484C291.306 58.2335 291.719 61.3395 292.351 62.9063C293.698 67.7714 297.848 71.6196 303.868 71.6196C310.19 71.6196 313.928 67.689 314.973 62.9063C315.357 60.9272 315.577 59.4704 315.577 53.1484Z" fill="#E94F0F"/>
</svg>
