<svg width="125" height="41" viewBox="0 0 125 41" fill="none" xmlns="http://www.w3.org/2000/svg">
<path d="M44.5549 21.1715H23.0575L11.9685 0.626953H33.4659L44.5549 21.1715Z" fill="#F09700"/>
<path d="M11.9685 40.6274H33.4659L44.5549 21.1719H23.0575L11.9685 40.6274Z" fill="#E94F0F"/>
<path d="M23.1728 21.1819L11.9058 0.626953L0 20.5851L11.9476 40.627L23.1728 21.1819Z" fill="#EE7802"/>
<path d="M33.068 11.6221H18.0627V13.1928H33.0575C33.4868 13.1928 33.8428 13.5488 33.8428 13.9781V18.6797C33.8428 19.109 33.4868 19.465 33.0575 19.465H30.691V16.3341L25.958 20.2503L30.691 24.1666V21.0357H33.0575C34.3664 21.0357 35.424 19.9781 35.424 18.6797V13.9781C35.4345 12.6797 34.3664 11.6221 33.068 11.6221Z" fill="white"/>
<path d="M22.8062 28.8677H12.5445C12.1047 28.8677 11.7591 28.5117 11.7591 28.0824V21.8101C11.7591 21.3808 12.1152 21.0248 12.5445 21.0248H16.4921V19.4541H12.5445C11.2356 19.4541 10.178 20.5117 10.178 21.8101V28.0824C10.178 29.3808 11.2356 30.4384 12.5445 30.4384H22.8062V33.5693L27.5392 29.6531L22.8062 25.7368V28.8677Z" fill="white"/>
<path d="M10.9633 14.7524H15.6963C16.1256 14.7524 16.4816 14.3963 16.4816 13.967V10.8361C16.4816 10.4068 16.1256 10.0508 15.6963 10.0508H10.9633C10.534 10.0508 10.178 10.4068 10.178 10.8361V13.967C10.178 14.4068 10.534 14.7524 10.9633 14.7524Z" fill="white"/>
<path d="M18.8586 22.5951H23.5915C24.0209 22.5951 24.3769 22.2391 24.3769 21.8098V18.6789C24.3769 18.2496 24.0209 17.8936 23.5915 17.8936H18.8586C18.4292 17.8936 18.0732 18.2496 18.0732 18.6789V21.8098C18.0628 22.2391 18.4188 22.5951 18.8586 22.5951Z" fill="white"/>
<path d="M34.6387 27.2969H29.9057C29.4764 27.2969 29.1204 27.6529 29.1204 28.0822V31.2131C29.1204 31.6424 29.4764 31.9985 29.9057 31.9985H34.6387C35.068 31.9985 35.424 31.6424 35.424 31.2131V28.0822C35.4345 27.6529 35.0785 27.2969 34.6387 27.2969Z" fill="white"/>
<path d="M52.335 30.2079V27.7577C52.335 27.4854 52.4187 27.2865 52.6072 27.0456L62.9318 14.3859C63.0156 14.2708 62.9737 14.1451 62.8166 14.1451H53.1308C52.7748 14.1451 52.5339 13.9043 52.5339 13.5483V11.2551C52.5339 10.899 52.7748 10.6582 53.1308 10.6582H67.0051C67.3611 10.6582 67.602 10.899 67.602 11.2551V13.7158C67.602 13.988 67.5182 14.2708 67.3297 14.4697L56.8376 27.1189C56.7538 27.2341 56.7957 27.3598 56.9528 27.3598H67.0365C67.3926 27.3598 67.6334 27.6006 67.6334 27.9566V30.2079C67.6334 30.564 67.3926 30.8048 67.0365 30.8048H52.9213C52.5653 30.7943 52.335 30.564 52.335 30.2079Z" fill="#E94F0F"/>
<path d="M69.4869 25.4959C69.0472 24.187 68.7749 22.4068 68.7749 20.6686C68.7749 18.9304 69.0157 17.1922 69.4451 15.9252C70.5969 12.4487 73.6335 10.3545 77.665 10.3545C81.4974 10.3545 84.4608 12.4487 85.6545 15.8938C86.1257 17.2341 86.3665 18.9828 86.3665 20.6372C86.3665 22.3336 86.1257 24.1137 85.6545 25.4959C84.4712 29.0142 81.466 31.1084 77.6231 31.1084C73.6859 31.1189 70.6388 29.0142 69.4869 25.4959ZM82.1047 24.4278C82.377 23.4749 82.5445 22.0508 82.5445 20.7105C82.5445 19.2445 82.3875 17.9042 82.1466 17.0351C81.4765 14.899 79.8116 13.632 77.5602 13.632C75.3822 13.632 73.7278 14.899 73.0576 17.0351C72.7854 17.9042 72.6178 19.2445 72.6178 20.7105C72.6178 22.1346 72.7749 23.5168 73.0576 24.4278C73.6859 26.5639 75.3927 27.8309 77.644 27.8309C79.7697 27.8309 81.4346 26.5639 82.1047 24.4278Z" fill="#E94F0F"/>
<path d="M101.518 10.6689H104.084C104.44 10.6689 104.681 10.9098 104.681 11.2658V30.2082C104.681 30.5642 104.44 30.8051 104.084 30.8051H101.518C101.162 30.8051 100.921 30.5642 100.921 30.2082V29.025C100.921 28.8679 100.806 28.826 100.681 28.9412C99.6544 30.3234 98.0733 31.0773 95.8534 31.0773C92.0942 31.0773 88.6597 28.8993 88.6597 24.5538V11.2658C88.6597 10.9098 88.9005 10.6689 89.2565 10.6689H91.8324C92.1885 10.6689 92.4293 10.9098 92.4293 11.2658V23.36C92.4293 26.0511 93.9267 27.7894 96.5759 27.7894C99.2251 27.7894 100.921 26.0511 100.921 23.36V11.2658C100.921 10.9098 101.162 10.6689 101.518 10.6689Z" fill="#E94F0F"/>
<path d="M120.806 10.6686H123.414C123.77 10.6686 124.01 10.9095 124.01 11.2655V29.7681C124.01 37.276 118.513 39.0561 112.272 38.5849C111.874 38.5849 111.717 38.3126 111.717 37.9566L111.801 35.6215C111.801 35.2655 112.073 35.0247 112.471 35.0665C117.885 35.4226 120.22 34.0822 120.22 29.6529V28.9828C120.22 28.8257 120.105 28.7838 119.979 28.899C118.953 30.0508 117.414 30.7943 115.152 30.7943C111.989 30.7943 108.743 29.1712 107.644 25.4959C107.246 24.1555 107.131 22.4906 107.131 20.6686C107.131 18.7315 107.246 17.0351 107.728 15.611C108.712 12.522 111.361 10.3545 114.921 10.3545C117.173 10.3545 118.838 11.0665 119.979 12.2917C120.094 12.4487 120.22 12.3754 120.22 12.2079V11.255C120.22 10.9095 120.45 10.6686 120.806 10.6686ZM120.22 20.6372C120.22 18.2603 120.136 17.7472 119.948 16.9618C119.55 15.1084 118.052 13.6425 115.759 13.6425C113.466 13.6425 112 15.1084 111.414 16.9618C111.141 17.7157 110.974 18.7838 110.974 20.6372C110.974 22.5744 111.131 23.7576 111.372 24.3545C111.885 26.2079 113.466 27.6739 115.759 27.6739C118.168 27.6739 119.592 26.1765 119.99 24.3545C120.136 23.6006 120.22 23.0456 120.22 20.6372Z" fill="#E94F0F"/>
</svg>
