<svg width="117" height="118" viewBox="0 0 117 118" fill="none" xmlns="http://www.w3.org/2000/svg">
<g clip-path="url(#clip0)">
<path d="M77.7778 59.8404L69.9058 55.2955C71.5195 52.0776 76.4973 41.2009 73.5318 35.9087C72.4737 34.0773 70.643 33.0204 68.0913 32.9304L67.4622 32.8926L43.0113 75.2428L62.4777 86.4818C66.8104 88.9833 72.2969 87.5131 74.7984 83.1805L81.1401 72.1963C83.5806 67.8284 82.1104 62.3418 77.7778 59.8404ZM63.4736 84.6159L45.8379 74.4339L68.5624 35.0738C70.0648 35.2902 71.0411 35.8539 71.6394 36.9316C74.0677 41.1814 69.468 51.544 67.5466 55.1539L67.0181 56.0692L76.6598 61.6358C79.1618 63.0803 80.3558 65.8038 80.038 68.4681L70.0912 62.7253C69.603 62.4435 68.9292 62.624 68.6474 63.1122C68.3655 63.6004 68.546 64.2742 69.0342 64.556L79.4692 70.5807C79.3635 70.7637 79.2931 70.8858 79.1874 71.0689L76.8268 75.1574L66.3918 69.1328C65.9037 68.8509 65.2299 69.0315 64.948 69.5196C64.6662 70.0078 64.8467 70.6816 65.3349 70.9635L75.8309 77.0234L73.1885 81.6001L62.6925 75.5402C62.2043 75.2584 61.5305 75.4389 61.2487 75.9271C60.9668 76.4153 61.1473 77.0891 61.6355 77.3709L71.9485 83.3251C69.8843 85.632 66.3417 86.2718 63.4736 84.6159Z" fill="#333333"/>
<path d="M39.8988 73.4467L31.9657 68.8666L48.3838 40.4297L56.3168 45.0098L39.8988 73.4467ZM34.8534 68.0928L39.125 70.5591L53.4292 45.7836L49.1575 43.3173L34.8534 68.0928Z" fill="#333333"/>
<path d="M37.1851 96.0442C16.8033 84.2767 9.81376 58.1916 21.5812 37.8098C33.3486 17.428 59.4338 10.4385 79.8156 22.2059C100.197 33.9733 107.187 60.0585 95.4195 80.4403C83.652 100.822 57.5669 107.812 37.1851 96.0442ZM78.7587 24.0366C59.4143 12.8681 34.5804 19.5223 23.4119 38.8667C12.2434 58.2111 18.8976 83.045 38.242 94.2135C57.5864 105.382 82.4203 98.7278 93.5888 79.3834C104.757 60.039 98.1031 35.2051 78.7587 24.0366Z" fill="#333333"/>
</g>
<defs>
<clipPath id="clip0">
<rect width="85.2611" height="85.2611" fill="white" transform="translate(42.8965 0.890625) rotate(30)"/>
</clipPath>
</defs>
</svg>
