<svg width="231" height="235" viewBox="0 0 231 235" fill="none" xmlns="http://www.w3.org/2000/svg">
<g clip-path="url(#clip0)">
<path d="M153.344 69.5835C153.344 69.5835 182.477 55.1061 167.114 21.5747C148.379 -19.3354 51.9887 -1.96263 93.7673 72.1053C115.874 111.334 153.344 69.5835 153.344 69.5835Z" fill="#0A3F64"/>
<path d="M97.7016 55.1992C97.7016 55.1992 90.3951 96.1094 88.3342 97.884C81.4024 104.049 77.7491 106.103 74.0021 106.29C72.5033 106.384 68.007 130.388 74.9389 142.063C86.0861 160.837 111.472 170.831 111.472 170.831L147.911 138.701L137.7 123.85C137.7 123.85 129.082 116.845 125.804 111.521C122.525 106.197 129.551 64.446 129.551 64.446L97.7016 55.1992Z" fill="white"/>
<path d="M111.753 172.514L110.91 172.234C109.879 171.86 84.8682 161.866 73.6273 142.812C66.9765 131.604 70.4424 109.561 72.3159 106.105C72.6906 105.358 73.2526 104.984 73.8147 104.984C77.2806 104.797 80.7465 102.743 87.2101 97.045C88.5215 94.8033 92.8305 73.8812 96.2027 55.014L96.4838 53.5195L131.143 63.5136L130.956 64.7278C128.239 80.6996 124.773 107.226 127.021 110.775C130.113 115.819 138.543 122.637 138.637 122.731L138.824 122.824L149.784 138.889L111.753 172.514ZM74.6577 107.693C73.0653 111.242 70.0677 131.324 76.0629 141.411C85.7113 157.756 106.788 167.377 111.191 169.245L146.037 138.516L136.67 124.879C135.452 123.851 127.771 117.5 124.586 112.363C121.307 107.132 126.459 74.8152 127.958 65.5684L98.8256 56.9754C96.0154 72.5736 91.3317 97.2318 89.3646 99.0064C82.5264 104.984 78.6857 107.319 74.6577 107.693Z" fill="#0A3F64"/>
<path d="M97.8895 64.0735C95.1729 58.843 90.8639 48.9424 93.8615 43.2448C96.7654 37.5473 102.761 41.7504 104.259 43.7118C105.196 45.0195 120.933 12.6089 120.933 12.6089L165.99 33.4376C165.99 33.4376 157.185 65.7548 146.975 80.3255C136.764 94.8962 127.397 94.9896 115.781 89.1987C110.067 86.3032 106.32 82.6606 103.791 79.0179L97.8895 64.0735Z" fill="white"/>
<path d="M128.239 94.1495C123.743 94.1495 119.34 92.4683 115.125 90.4134C109.879 87.7982 105.664 84.1555 102.666 79.6722C102.198 79.0184 102.385 78.1777 103.041 77.7107C103.697 77.2437 104.54 77.4305 105.008 78.0844C107.725 82.1006 111.565 85.4631 116.436 87.7982C127.209 93.1221 135.827 93.5891 145.85 79.392C154.749 66.6893 162.618 39.9762 164.304 34.0919L121.589 14.2906C106.788 44.7398 105.383 44.9266 104.446 45.02C103.884 45.1134 103.416 44.8332 103.135 44.4595C102.385 43.4321 99.8562 41.5641 97.7953 41.6575C96.6713 41.7509 95.8282 42.4047 95.1725 43.7123C93.299 47.4484 94.7041 54.547 99.2005 63.2334C99.5752 63.8872 99.2941 64.7278 98.6384 65.1014C97.9827 65.475 97.1396 65.1948 96.7649 64.541C93.2053 57.7227 89.6457 48.3824 92.7369 42.4981C94.1421 39.696 96.2029 39.0422 97.7017 38.8554C100.231 38.6686 102.854 40.0696 104.446 41.5641C106.882 37.828 113.814 24.1913 119.809 11.8622L120.371 10.6479L167.582 32.6909L167.301 33.8117C166.927 35.1193 158.309 66.5025 148.098 81.0732C141.26 90.8805 134.609 94.1495 128.239 94.1495Z" fill="#0A3F64"/>
<path d="M132.549 48.1964C132.268 48.1964 131.987 48.103 131.706 47.9162C131.612 47.9162 126.835 44.2735 122.339 44.4603C121.589 44.4603 120.934 43.8999 120.84 43.1527C120.84 42.4054 121.402 41.7516 122.151 41.6582C127.678 41.378 133.111 45.4877 133.392 45.6745C134.048 46.1415 134.142 46.9822 133.673 47.636C133.392 47.9162 132.924 48.1964 132.549 48.1964Z" fill="#0A3F64"/>
<path d="M152.595 59.1237C152.22 59.1237 151.752 58.9369 151.471 58.5633C151.471 58.5633 148.754 55.1074 144.82 54.6404C144.07 54.547 143.508 53.7998 143.602 53.0525C143.696 52.3053 144.445 51.7449 145.194 51.8383C150.253 52.4921 153.531 56.6952 153.625 56.882C154.093 57.5359 154 58.3765 153.344 58.8435C153.157 59.0303 152.876 59.1237 152.595 59.1237Z" fill="#0A3F64"/>
<path d="M159.151 61.0835C159.151 61.0835 156.248 45.2051 155.686 35.1177C155.592 34.0903 105.195 41.5625 105.195 41.5625L116.249 5.88281L168.987 27.8323L159.151 61.0835Z" fill="#0A3F64"/>
<path d="M68.1011 37.3625C55.8298 44.0875 56.8602 83.3164 88.803 66.504C98.1704 61.4603 92.2689 24.0994 68.1011 37.3625Z" fill="#0A3F64"/>
<path d="M137.701 77.0564C138.075 78.1772 132.642 79.5782 129.645 78.0838C121.963 74.3477 122.244 67.7161 123.556 69.3974C124.024 70.0512 127.116 73.6939 131.05 75.2817C136.108 77.3366 137.326 75.7487 137.701 77.0564Z" fill="#0A3F64"/>
<path d="M146.038 65.1014C145.85 65.1014 145.757 65.1014 145.569 65.008C144.82 64.7277 144.445 63.9805 144.633 63.2333L145.195 61.4587C145.476 60.7115 146.225 60.3379 146.975 60.5247C147.724 60.8049 148.099 61.5521 147.911 62.2993L147.349 64.0739C147.162 64.7277 146.6 65.1014 146.038 65.1014Z" fill="#0A3F64"/>
<path d="M124.961 55.0149C124.773 55.0149 124.68 55.0149 124.492 54.9215C123.743 54.6413 123.368 53.8941 123.556 53.1469L124.118 51.3723C124.399 50.625 125.148 50.2514 125.897 50.4382C126.647 50.7184 127.021 51.4657 126.834 52.2129L126.272 53.9875C126.085 54.5479 125.523 55.0149 124.961 55.0149Z" fill="#0A3F64"/>
<path d="M133.767 71.9181C132.174 71.9181 130.769 71.6379 130.394 71.4511C129.645 71.1709 129.364 70.3303 129.645 69.5831C129.926 68.8359 130.769 68.5557 131.425 68.8359C132.455 69.2095 135.172 69.3029 135.546 68.7425C135.546 61.8307 135.734 61.3637 135.921 61.0835C136.296 60.4297 137.139 60.0561 137.795 60.4297C138.45 60.7099 138.731 61.4571 138.544 62.1109C138.544 62.2977 138.357 63.5119 138.357 68.7425C138.357 69.7699 137.888 70.6105 137.045 71.1709C136.202 71.7313 134.984 71.9181 133.767 71.9181Z" fill="#0A3F64"/>
<path d="M54.3309 102.183C54.3309 102.183 12.1776 118.342 2.81022 168.779L0 184.938L50.9586 185.592L50.3029 216.414H177.044L182.664 156.637C182.664 156.637 160.182 108.068 147.068 107.134C133.954 106.2 118.029 120.21 105.852 118.342C93.674 116.474 68.0073 94.2442 54.3309 102.183Z" fill="#F09700"/>
<path d="M14.3326 166.91C14.3326 166.91 9.64888 230.143 18.0795 232.946C26.5102 235.748 111.66 229.583 111.66 229.583L112.128 214.919C112.128 214.919 52.7389 218.655 50.3034 216.507C47.7742 214.358 51.9895 175.13 51.9895 175.13L14.3326 166.91Z" fill="white"/>
<path d="M29.7878 235.002C23.699 235.002 19.2964 234.815 17.6102 234.255C14.7063 233.321 11.4277 228.37 11.6151 198.855C11.7088 182.883 12.9265 167.005 12.9265 166.818L13.0202 165.23L53.3937 173.917L53.3 175.131C51.4265 192.784 50.2088 212.305 51.2392 215.294C55.5482 216.415 90.4886 214.827 112.034 213.426L113.532 213.333L112.97 230.799L111.753 230.892C108.942 231.172 55.0798 235.002 29.7878 235.002ZM15.6431 168.593C15.3621 172.983 14.519 185.872 14.4253 198.855C14.238 228.651 17.7976 231.359 18.4533 231.546C25.0105 233.694 85.7112 229.958 110.16 228.184L110.535 216.321C106.319 216.602 94.2355 217.255 82.0579 217.816C51.1455 219.124 49.9277 218.096 49.1784 217.442C48.3353 216.695 47.1175 215.574 48.6163 194.746C49.1784 186.806 49.9277 179.054 50.3024 176.065L15.6431 168.593Z" fill="#0A3F64"/>
<path d="M83.7441 232.663L116.905 141.129H228.939L194.186 232.663H83.7441Z" fill="#D5EDE9"/>
<path d="M195.123 234.067H81.7773L115.875 139.73H231L195.123 234.067ZM85.8053 231.265H193.249L226.972 142.533H117.842L85.8053 231.265Z" fill="#0A3F64"/>
<path d="M159.339 197.734C163.995 197.734 167.77 193.971 167.77 189.328C167.77 184.685 163.995 180.922 159.339 180.922C154.683 180.922 150.908 184.685 150.908 189.328C150.908 193.971 154.683 197.734 159.339 197.734Z" fill="white"/>
<path d="M159.34 199.134C153.907 199.134 149.504 194.744 149.504 189.326C149.504 183.909 153.907 179.519 159.34 179.519C164.773 179.519 169.175 183.909 169.175 189.326C169.175 194.744 164.773 199.134 159.34 199.134ZM159.34 182.321C155.499 182.321 152.314 185.497 152.314 189.326C152.314 193.156 155.499 196.331 159.34 196.331C163.18 196.331 166.365 193.156 166.365 189.326C166.365 185.497 163.274 182.321 159.34 182.321Z" fill="#0A3F64"/>
<path d="M7.58794 161.305L5.24609 185.029H55.6427L59.296 160.277L7.58794 161.305Z" fill="#F09700"/>
</g>
<defs>
<clipPath id="clip0">
<rect width="231" height="235" fill="white"/>
</clipPath>
</defs>
</svg>
